# https://github.com/mikedh/trimesh
v -0.01440640 0.03741203 0.06582171
v 0.00873249 0.02708960 0.06735711
v 0.00856995 0.02701226 0.06789675
v 0.00844255 0.02694897 0.06893381
v 0.00846012 0.02695600 0.06997087
v -0.01440640 0.03748938 0.06628158
v -0.01440640 0.03812925 0.06503242
v 0.01175061 0.02603486 0.06734397
v 0.01407900 0.02513481 0.06746598
v 0.01445681 0.02487464 0.06784608
v 0.01385055 0.02499418 0.06815766
v 0.01082365 0.02606299 0.06831064
v 0.00931679 0.02659036 0.06893381
v 0.01081926 0.02606299 0.06997087
v 0.01085001 0.02607705 0.07049925
v 0.00858313 0.02701929 0.07058747
v -0.01440640 0.03761595 0.06689349
v -0.01440640 0.03912774 0.06460070
v 0.01799333 0.02398163 0.06736180
v 0.01477312 0.02498012 0.06733740
v 0.01730799 0.02412929 0.06750164
v 0.01692578 0.02396756 0.06819332
v 0.01554193 0.02432617 0.06893381
v 0.01380223 0.02498012 0.06997087
v 0.01450514 0.02472698 0.06997087
v 0.01387691 0.02500121 0.07053397
v 0.02717947 0.02385506 0.07396329
v 0.00559137 0.03539395 0.07362918
v -0.01440640 0.03823473 0.06766494
v -0.01440640 0.03777064 0.06717316
v -0.01440640 0.04008404 0.06438015
v 0.03047436 0.02165416 0.06732426
v 0.03047436 0.02137993 0.06764523
v 0.03047436 0.02122523 0.06789675
v 0.01763748 0.02391131 0.06786672
v 0.01630634 0.02407304 0.06893381
v 0.03047436 0.02105647 0.06864381
v 0.03047436 0.02099318 0.06893381
v 0.01682474 0.02393240 0.06893381
v 0.01682474 0.02392537 0.06997087
v 0.01692578 0.02395350 0.07054899
v 0.02786481 0.02372146 0.07396329
v 0.02681923 0.02441759 0.07396329
v 0.00621081 0.03697607 0.07394922
v 0.00621081 0.03593539 0.07381783
v 0.00536732 0.03593539 0.07370990
v -0.01440640 0.03891680 0.06792022
v -0.01440640 0.04099816 0.06437546
v 0.03047436 0.02307455 0.06724918
v 0.03047436 0.02244873 0.06725951
v 0.03047436 0.02206199 0.06728391
v 0.03047436 0.02102131 0.06965365
v 0.03047436 0.02103537 0.06997087
v 0.02798782 0.02370036 0.07396329
v 0.02675333 0.02452306 0.07396329
v 0.00519598 0.03697607 0.07377559
v 0.01736071 0.07413117 0.07396329
v 0.01733874 0.07498903 0.07396329
v 0.01733435 0.07534765 0.07396329
v 0.00621081 0.08261131 0.07394922
v -0.01440640 0.04008404 0.06803659
v -0.01440640 0.09282827 0.06437546
v 0.03047436 0.06705033 0.06724918
v 0.03047436 0.02149243 0.07068132
v 0.02902900 0.02377771 0.07396329
v 0.00519598 0.08261131 0.07377559
v -0.01440640 0.09282827 0.06804129
v -0.01440640 0.04111770 0.06803847
v 0.01733435 0.07638129 0.07396329
v 0.01733874 0.08261131 0.07396329
v 0.01739146 0.08359574 0.07396329
v 0.01740464 0.08369419 0.07396329
v 0.01765505 0.08419343 0.07396329
v 0.01780881 0.08428484 0.07396329
v 0.00621081 0.08365199 0.07389948
v 0.00523991 0.08365199 0.07375025
v -0.01436686 0.09282827 0.06438203
v 0.02127503 0.08418640 0.06735899
v 0.02167921 0.08356761 0.06732614
v 0.02232940 0.08317384 0.06735242
v 0.02272478 0.08253397 0.06732145
v 0.02583955 0.07941896 0.06732145
v 0.02687195 0.07836421 0.06733271
v 0.02695103 0.07742197 0.06729611
v 0.02747821 0.07794935 0.06737213
v 0.03047436 0.06774646 0.06731394
v 0.03047436 0.02244873 0.07087747
v 0.02972313 0.02452306 0.07396329
v 0.02963087 0.02402382 0.07396329
v 0.02961330 0.02393240 0.07396329
v 0.00541564 0.08424968 0.07368362
v 0.00309165 0.09282827 0.07065316
v 0.01865230 0.08442547 0.07396329
v 0.00621081 0.08428484 0.07372491
v -0.01142782 0.09282827 0.06490009
v 0.02190326 0.08380669 0.06789675
v 0.00205485 0.09282827 0.06727828
v 0.00311361 0.09282827 0.06746504
v 0.00327616 0.09282827 0.06750258
v 0.00413283 0.09282827 0.06770154
v 0.00430417 0.09282827 0.06780384
v 0.02138047 0.08425671 0.06789675
v 0.02243923 0.08327932 0.06789675
v 0.02347602 0.08225270 0.06789675
v 0.02607239 0.07965803 0.06789675
v 0.02647656 0.07902519 0.06735242
v 0.02657761 0.07913066 0.06789675
v 0.02709600 0.07856110 0.06789675
v 0.02754850 0.07804076 0.06789675
v 0.02845350 0.07679616 0.06893381
v 0.02861604 0.07613519 0.06827779
v 0.02877420 0.07534765 0.06815860
v 0.03047436 0.06825977 0.06753261
v 0.03047436 0.06805585 0.06744252
v 0.03047436 0.02352457 0.07104358
v 0.02976267 0.02555671 0.07396329
v 0.00413283 0.09282827 0.07080051
v 0.00396589 0.09282827 0.07077799
v 0.01968910 0.08446766 0.07396329
v 0.02199112 0.08389107 0.06893381
v 0.02252709 0.08337776 0.06893381
v 0.00430417 0.09282827 0.07076860
v 0.02147273 0.08431297 0.06893381
v 0.02511907 0.08078309 0.06893381
v 0.02615586 0.07974241 0.06893381
v 0.02666108 0.07922207 0.06893381
v 0.02717947 0.07863845 0.06893381
v 0.02761001 0.07811811 0.06893381
v 0.03047436 0.07504528 0.07396329
v 0.02906415 0.07534765 0.06893381
v 0.02938485 0.07431400 0.06893381
v 0.02957376 0.07298502 0.06836507
v 0.03047436 0.06882230 0.06784889
v 0.03047436 0.02452306 0.07112805
v 0.03047436 0.07190215 0.07396329
v 0.02072589 0.08446766 0.07396329
v 0.02147273 0.08431297 0.07396329
v 0.02199112 0.08389107 0.07396329
v 0.02252709 0.08337776 0.07396329
v 0.02312456 0.08278007 0.07396329
v 0.02511907 0.08078309 0.07396329
v 0.02615586 0.07974241 0.07396329
v 0.02666986 0.07922207 0.07396329
v 0.02718826 0.07866657 0.07396329
v 0.03047436 0.07431400 0.07308954
v 0.03047436 0.07111461 0.06986200
v 0.03047436 0.07005283 0.06881650
v 0.03047436 0.06909653 0.06804598
f 18 31 32
f 48 49 31
f 31 49 50
f 1 7 2
f 15 26 27
f 27 16 15
f 66 67 56
f 27 26 41
f 32 31 51
f 31 50 51
f 84 63 62
f 85 63 84
f 7 20 8
f 8 2 7
f 28 16 27
f 19 18 32
f 7 18 19
f 19 20 7
f 1 4 5
f 5 6 1
f 16 6 5
f 5 15 16
f 1 2 3
f 3 4 1
f 15 5 14
f 26 15 25
f 53 54 42
f 27 41 42
f 42 41 53
f 33 19 32
f 34 19 33
f 134 135 116
f 64 87 88
f 64 90 65
f 65 54 64
f 64 54 53
f 45 28 27
f 27 44 45
f 147 148 132
f 86 63 85
f 130 129 145
f 130 111 129
f 110 111 85
f 129 111 110
f 15 14 24
f 24 25 15
f 61 47 56
f 35 19 34
f 34 22 35
f 35 22 19
f 25 24 23
f 23 24 14
f 20 19 9
f 9 8 20
f 2 8 9
f 62 82 83
f 83 84 62
f 85 84 83
f 81 82 62
f 85 83 106
f 106 83 82
f 101 78 100
f 67 91 92
f 76 67 66
f 76 91 67
f 102 78 101
f 101 123 102
f 134 116 115
f 115 116 88
f 88 87 115
f 89 64 88
f 90 64 89
f 55 57 44
f 28 45 46
f 56 47 46
f 46 47 28
f 46 44 56
f 46 45 44
f 113 111 132
f 131 130 145
f 145 146 131
f 132 111 131
f 111 130 131
f 131 146 147
f 131 147 132
f 68 56 67
f 68 61 56
f 17 6 16
f 16 30 17
f 29 30 16
f 16 28 29
f 28 47 29
f 37 22 34
f 37 38 22
f 53 41 40
f 25 23 40
f 40 41 26
f 26 25 40
f 22 23 11
f 13 23 14
f 13 5 4
f 13 14 5
f 4 3 13
f 19 22 21
f 21 9 19
f 22 9 21
f 62 78 79
f 77 78 62
f 77 95 78
f 97 98 78
f 78 95 97
f 78 98 99
f 99 100 78
f 109 128 129
f 109 110 85
f 129 110 109
f 126 105 125
f 118 91 117
f 118 92 91
f 117 137 122
f 120 102 123
f 43 44 27
f 43 55 44
f 44 57 58
f 58 59 44
f 85 111 112
f 112 113 85
f 111 113 112
f 114 86 85
f 85 113 114
f 132 148 133
f 133 113 132
f 53 40 52
f 52 40 38
f 22 38 39
f 38 40 39
f 10 9 22
f 22 11 10
f 2 9 10
f 10 11 2
f 12 11 23
f 23 13 12
f 12 13 3
f 12 3 2
f 2 11 12
f 125 105 124
f 124 105 121
f 129 128 127
f 127 126 129
f 128 109 127
f 105 126 107
f 85 106 107
f 106 105 107
f 136 137 117
f 91 76 75
f 129 126 144
f 36 23 22
f 22 39 36
f 36 40 23
f 36 39 40
f 140 124 121
f 121 105 104
f 104 103 121
f 102 120 96
f 78 102 96
f 96 120 121
f 121 103 96
f 108 107 126
f 108 127 109
f 126 127 108
f 108 109 85
f 85 107 108
f 117 93 119
f 119 136 117
f 91 75 94
f 94 75 93
f 117 91 94
f 94 93 117
f 60 76 66
f 60 75 76
f 139 140 121
f 103 104 80
f 78 96 80
f 80 96 103
f 80 105 106
f 80 104 105
f 80 79 78
f 82 81 80
f 80 106 82
f 80 81 62
f 62 79 80
f 93 75 74
f 75 60 74
f 124 140 141
f 125 142 143
f 143 126 125
f 143 144 126
f 70 60 69
f 70 71 60
f 73 74 60
f 60 71 72
f 72 73 60
f 63 48 62
f 49 48 63
f 31 18 29
f 29 7 1
f 62 48 29
f 29 67 62
f 29 18 7
f 29 48 31
f 1 6 29
f 29 68 67
f 47 61 29
f 6 17 29
f 61 68 29
f 29 17 30
f 62 67 122
f 101 100 122
f 122 118 117
f 67 92 122
f 122 77 62
f 98 97 122
f 122 99 98
f 95 77 122
f 122 97 95
f 100 99 122
f 92 118 122
f 122 123 101
f 122 137 123
f 137 138 120
f 123 137 120
f 129 135 52
f 145 129 52
f 49 63 52
f 52 64 53
f 52 50 49
f 52 33 32
f 63 86 52
f 32 51 52
f 52 51 50
f 52 135 134
f 52 133 148
f 134 115 52
f 34 33 52
f 87 64 52
f 148 147 52
f 52 146 145
f 86 114 52
f 52 115 87
f 147 146 52
f 52 37 34
f 38 37 52
f 52 114 113
f 113 133 52
f 56 44 60
f 66 56 60
f 60 59 69
f 44 59 60
f 139 120 138
f 121 120 139
f 125 124 141
f 141 142 125
f 72 141 140
f 88 116 72
f 27 42 72
f 72 89 88
f 72 54 65
f 65 90 72
f 72 135 129
f 72 42 54
f 72 116 135
f 137 136 72
f 69 59 72
f 90 89 72
f 57 55 72
f 72 43 27
f 72 58 57
f 72 138 137
f 55 43 72
f 59 58 72
f 72 119 93
f 129 144 72
f 72 139 138
f 136 119 72
f 140 139 72
f 144 143 72
f 93 74 72
f 142 141 72
f 72 143 142
f 72 70 69
f 71 70 72
f 74 73 72

