# https://github.com/mikedh/trimesh
v 0.01756464 0.11598178 0.10333187
v 0.01830193 0.11598178 0.08698991
v 0.01757192 0.07639643 0.10333841
v 0.01756828 0.11591428 0.10333841
v 0.03028236 0.11930718 0.10370491
v 0.03028236 0.11779073 0.09279827
v 0.03028236 0.11759273 0.09185912
v 0.02958513 0.11598178 0.08698991
v 0.01831285 0.07536146 0.08698991
v 0.01757556 0.07536146 0.10333841
v 0.03028236 0.07402050 0.10370491
v 0.03317871 0.11930718 0.10370491
v 0.03421637 0.11928918 0.10370491
v 0.03525221 0.11892469 0.10370491
v 0.03494820 0.11756573 0.09921365
v 0.03065373 0.11746223 0.09209963
v 0.03505560 0.11684575 0.09905167
v 0.03615880 0.07876336 0.08699154
v 0.03028054 0.07847987 0.08698991
v 0.01837292 0.07432199 0.08698991
v 0.01771028 0.07499247 0.10333841
v 0.03040979 0.07434899 0.10370491
v 0.01805616 0.07432199 0.10333841
v 0.01863143 0.07391700 0.10333841
v 0.01969458 0.07370551 0.10333841
v 0.02799040 0.07370551 0.10333841
v 0.03615880 0.07333652 0.09072362
v 0.03615880 0.07357051 0.09156297
v 0.03600224 0.11760173 0.10370491
v 0.03611511 0.11709324 0.10370491
v 0.03615880 0.07333652 0.08699154
v 0.03613513 0.11684575 0.10370491
v 0.03614788 0.11279137 0.10370491
v 0.03615880 0.07876336 0.08873405
v 0.03028054 0.07333652 0.08698991
v 0.01880437 0.07357051 0.08698991
v 0.03615880 0.07431749 0.09193275
v 0.01880255 0.07357051 0.08761001
v 0.01880255 0.07357051 0.09798162
v 0.01880983 0.07357951 0.09901895
v 0.01969458 0.07335902 0.09901895
v 0.02799040 0.07335902 0.09901895
v 0.02799040 0.07333652 0.09798162
v 0.03615880 0.07535696 0.09197692
v 0.03615880 0.07626143 0.09196874
v 0.03615880 0.07639193 0.09196710
v 0.03615880 0.07730090 0.09194256
v 0.03615880 0.07743140 0.09193602
v 0.03615880 0.07826837 0.09161697
v 0.03615880 0.07843037 0.09153025
v 0.03615880 0.07871386 0.09081688
v 0.03615880 0.07874536 0.09072362
v 0.03615880 0.07875886 0.08977629
v 0.01969458 0.07333652 0.08698991
v 0.01969458 0.07333652 0.09798162
f 1 5 2
f 4 5 1
f 4 11 5
f 6 2 5
f 19 8 18
f 7 8 2
f 2 6 7
f 22 37 33
f 11 4 3
f 3 10 11
f 3 4 1
f 1 2 3
f 9 3 2
f 20 10 9
f 10 3 9
f 13 7 6
f 13 14 7
f 7 14 15
f 33 52 53
f 33 50 51
f 51 52 33
f 33 37 44
f 49 50 33
f 33 48 49
f 11 27 28
f 28 22 11
f 37 22 28
f 21 10 20
f 20 23 21
f 11 10 21
f 21 23 11
f 12 6 5
f 12 13 6
f 8 7 16
f 16 15 8
f 7 15 16
f 18 8 17
f 8 15 17
f 18 33 34
f 33 53 34
f 27 42 43
f 11 25 26
f 26 27 11
f 26 42 27
f 36 23 20
f 18 17 30
f 30 17 15
f 47 48 33
f 33 46 47
f 33 44 45
f 45 46 33
f 32 33 18
f 18 30 32
f 29 15 14
f 29 30 15
f 39 40 23
f 23 40 24
f 24 25 11
f 11 23 24
f 41 25 24
f 24 40 41
f 23 36 38
f 38 39 23
f 38 36 54
f 41 40 55
f 40 39 55
f 18 31 35
f 35 19 18
f 41 42 26
f 26 25 41
f 36 9 2
f 2 8 36
f 8 19 36
f 19 35 36
f 20 9 36
f 35 54 36
f 50 49 45
f 45 31 18
f 45 51 50
f 37 28 45
f 45 44 37
f 45 27 31
f 45 53 52
f 52 51 45
f 18 34 45
f 45 49 48
f 45 28 27
f 45 34 53
f 48 47 45
f 45 47 46
f 11 22 29
f 5 11 29
f 29 22 33
f 29 12 5
f 14 13 29
f 13 12 29
f 33 32 29
f 29 32 30
f 39 38 55
f 55 38 54
f 31 27 55
f 55 35 31
f 55 54 35
f 27 43 55
f 55 42 41
f 55 43 42

