# https://github.com/mikedh/trimesh
v 0.05577820 0.07634042 0.08698831
v 0.07260312 0.07633635 0.08698831
v 0.05577820 0.07634042 0.09072164
v 0.05577820 0.08371836 0.08698831
v 0.06534053 0.07634042 0.09597504
v 0.07364194 0.07645449 0.08698831
v 0.07260312 0.07634042 0.08760848
v 0.06748241 0.07634042 0.09597504
v 0.06437145 0.07634857 0.09597504
v 0.06430537 0.07635264 0.09597504
v 0.05577820 0.07662560 0.09155469
v 0.06223139 0.08498943 0.08698831
v 0.05577820 0.08348207 0.09072164
v 0.06011520 0.11685186 0.09597504
v 0.06011520 0.11685186 0.09383304
v 0.06036481 0.11685186 0.09279502
v 0.06065480 0.11739778 0.09224963
v 0.06162755 0.11745889 0.09116851
v 0.06296371 0.11685186 0.09029500
v 0.06358774 0.11746703 0.09013578
v 0.06430537 0.11685186 0.08990090
v 0.06534053 0.11685186 0.08977599
v 0.06637935 0.11685186 0.08974872
v 0.07437243 0.07673967 0.08698831
v 0.07364194 0.07649523 0.08760848
v 0.06845333 0.07636894 0.09597504
v 0.06357489 0.07661745 0.09597504
v 0.06352533 0.07663782 0.09597504
v 0.05577820 0.07743224 0.09188808
v 0.06426132 0.08517684 0.08698831
v 0.05577820 0.08330689 0.09148079
v 0.06039418 0.11765851 0.09597504
v 0.05577820 0.08315615 0.09155909
v 0.05577820 0.08261839 0.09181331
v 0.05577820 0.08239025 0.09183442
v 0.05577820 0.08157953 0.09190568
v 0.06011520 0.10855321 0.09597504
v 0.06039418 0.11765851 0.09383304
v 0.06051899 0.11753222 0.09279502
v 0.06124580 0.11755666 0.09184586
v 0.06223139 0.11787443 0.09175789
v 0.06223139 0.11758518 0.09097850
v 0.06325370 0.11766258 0.09065918
v 0.06430537 0.11756073 0.09005397
v 0.06534053 0.11761777 0.08999063
v 0.06637935 0.11762999 0.08997568
v 0.07156613 0.11685186 0.08974872
v 0.06534053 0.08521758 0.08698831
v 0.06466144 0.08520536 0.08698831
v 0.06453112 0.08520128 0.08698831
v 0.07447521 0.07716744 0.08698831
v 0.07431186 0.07678041 0.08760848
v 0.07422009 0.07685374 0.08818906
v 0.06920216 0.07665412 0.09597504
v 0.06350882 0.07668671 0.09597504
v 0.06326471 0.07743224 0.09597504
v 0.05577820 0.07846703 0.09190568
v 0.06114118 0.11793146 0.09597504
v 0.06119257 0.11794776 0.09383304
v 0.06119257 0.11782554 0.09279502
v 0.06430537 0.11784998 0.09072164
v 0.06223139 0.11795591 0.09279502
v 0.06326838 0.11795591 0.09175789
v 0.06534053 0.11790702 0.09072164
v 0.06637935 0.11791924 0.09072164
v 0.07156613 0.11762999 0.08997568
v 0.07260312 0.11760555 0.09000031
v 0.07260312 0.11685186 0.08979798
v 0.07398700 0.08216211 0.08698831
v 0.07337581 0.08243099 0.08698831
v 0.07262331 0.08273654 0.08698831
v 0.07214428 0.08291986 0.08698831
v 0.06738330 0.08465944 0.08698831
v 0.06598107 0.08516054 0.08698831
v 0.07452843 0.07743224 0.08698831
v 0.07444401 0.07743224 0.08760848
v 0.06943159 0.07743224 0.09597504
v 0.06941690 0.07737928 0.09597504
v 0.07425496 0.07743224 0.08822865
v 0.07205985 0.10232820 0.09597504
v 0.06119257 0.11794776 0.09597504
v 0.06223139 0.11795591 0.09597504
v 0.07156613 0.11795591 0.09175789
v 0.07156613 0.11791924 0.09072164
v 0.07260312 0.11789480 0.09072164
v 0.07326202 0.11751185 0.09008387
v 0.07333177 0.11685186 0.09002494
v 0.07419256 0.08201952 0.08698831
v 0.07440179 0.08054475 0.08698831
v 0.07363277 0.11685186 0.09072164
v 0.07354651 0.11685186 0.09175789
v 0.07355752 0.11581301 0.09175789
v 0.07356486 0.11477822 0.09175789
v 0.07357220 0.11373936 0.09175789
v 0.07357771 0.11270050 0.09175789
v 0.07358138 0.11166572 0.09175789
v 0.07358138 0.10855321 0.09175789
v 0.07312804 0.10800323 0.09332986
v 0.07250401 0.10232820 0.09487017
v 0.07221586 0.10232820 0.09567067
v 0.07207453 0.10336299 0.09597504
v 0.07046123 0.11795591 0.09597504
v 0.07156613 0.11795591 0.09279502
v 0.07337581 0.11762184 0.09072164
v 0.07156613 0.11794776 0.09383304
v 0.07260312 0.11788665 0.09175789
v 0.07428249 0.08157138 0.08698831
v 0.07333177 0.11759333 0.09175789
v 0.07320329 0.11747926 0.09251089
v 0.07324734 0.11685186 0.09263932
v 0.07326202 0.11477822 0.09268331
v 0.07326936 0.11373936 0.09270530
v 0.07312437 0.10920097 0.09331931
v 0.07312804 0.10855321 0.09332986
v 0.07328405 0.10855321 0.09279502
v 0.07294634 0.10855321 0.09384887
v 0.07252236 0.10336299 0.09487017
v 0.07256274 0.10751435 0.09487017
v 0.07221769 0.10336299 0.09567595
v 0.07207453 0.11270050 0.09597504
v 0.07052914 0.11795591 0.09590818
v 0.07052914 0.11794776 0.09597504
v 0.07156613 0.11787443 0.09487017
v 0.07228009 0.11758110 0.09487017
v 0.07215529 0.11746703 0.09556247
v 0.07248015 0.11685186 0.09487017
v 0.07249667 0.11581301 0.09487017
v 0.07285273 0.11581301 0.09383304
v 0.07291330 0.11166572 0.09383304
v 0.07297570 0.10956355 0.09373275
v 0.07292798 0.11062686 0.09383304
v 0.07256091 0.10855321 0.09487017
v 0.07251135 0.11477822 0.09487017
v 0.07253338 0.11270050 0.09487017
v 0.07254255 0.11166572 0.09487017
v 0.07255723 0.10958800 0.09487017
v 0.07221769 0.11166572 0.09567595
v 0.07207270 0.11373936 0.09597504
v 0.07154778 0.11767481 0.09597504
v 0.07161752 0.11766258 0.09590818
v 0.07202498 0.11705149 0.09597504
v 0.07219383 0.11685186 0.09565396
v 0.07159550 0.11765444 0.09597504
v 0.07221402 0.11373936 0.09567419
v 0.07221586 0.11270050 0.09567595
v 0.07220117 0.11581301 0.09566275
v 0.07220851 0.11477822 0.09566979
v 0.07206719 0.11477822 0.09597504
v 0.07205067 0.11685186 0.09597504
v 0.07205801 0.11622040 0.09597504
v 0.07206168 0.11581301 0.09597504
f 23 12 4
f 1 2 3
f 3 2 5
f 15 4 14
f 53 80 77
f 23 50 30
f 30 12 23
f 21 4 20
f 23 4 22
f 22 4 21
f 22 45 23
f 90 91 75
f 91 90 108
f 89 90 75
f 29 56 37
f 4 15 16
f 78 53 77
f 54 53 78
f 5 2 8
f 14 4 13
f 13 31 14
f 19 4 18
f 18 20 19
f 19 20 4
f 18 41 42
f 42 20 18
f 43 42 41
f 20 42 43
f 86 90 87
f 90 89 87
f 55 56 29
f 29 28 55
f 11 28 29
f 10 11 3
f 86 85 104
f 104 90 86
f 104 108 90
f 106 85 105
f 108 104 106
f 106 104 85
f 26 8 7
f 7 8 2
f 29 37 57
f 20 43 44
f 45 22 44
f 21 20 44
f 44 22 21
f 91 108 109
f 141 125 143
f 126 109 125
f 80 53 79
f 88 87 107
f 107 87 89
f 68 87 88
f 86 87 68
f 47 74 48
f 23 47 48
f 23 45 46
f 45 64 46
f 38 60 39
f 15 38 39
f 39 16 15
f 62 41 59
f 41 60 59
f 59 60 38
f 9 3 5
f 9 10 3
f 28 11 27
f 11 10 27
f 105 85 103
f 85 83 103
f 61 43 41
f 61 44 43
f 61 64 45
f 45 44 61
f 63 41 62
f 63 61 41
f 64 61 63
f 84 83 85
f 85 66 84
f 51 52 24
f 6 7 2
f 14 31 33
f 33 34 14
f 35 36 14
f 14 34 35
f 123 106 105
f 108 106 123
f 116 118 117
f 91 109 110
f 109 126 110
f 116 117 98
f 99 79 98
f 98 117 99
f 75 91 92
f 47 66 67
f 67 68 47
f 86 68 67
f 67 85 86
f 67 66 85
f 49 50 23
f 23 48 49
f 73 74 47
f 47 72 73
f 40 39 60
f 40 41 18
f 40 60 41
f 18 4 17
f 17 40 18
f 39 40 17
f 4 16 17
f 16 39 17
f 38 32 58
f 81 59 58
f 58 59 38
f 105 103 121
f 121 123 105
f 64 63 65
f 65 46 64
f 25 6 24
f 24 52 25
f 25 52 53
f 26 7 25
f 7 6 25
f 54 26 25
f 25 53 54
f 108 123 124
f 124 109 108
f 125 109 124
f 144 138 145
f 145 138 137
f 100 117 118
f 100 101 80
f 99 117 100
f 80 79 100
f 100 79 99
f 91 110 111
f 97 98 76
f 76 98 79
f 76 96 97
f 76 79 53
f 95 96 76
f 53 52 76
f 75 92 76
f 76 51 75
f 52 51 76
f 91 111 112
f 130 131 116
f 91 112 113
f 131 130 113
f 113 112 111
f 115 98 97
f 97 96 115
f 114 96 95
f 98 115 114
f 114 115 96
f 116 98 114
f 114 92 91
f 91 113 114
f 114 130 116
f 114 113 130
f 69 70 47
f 69 68 88
f 47 68 69
f 71 72 47
f 47 70 71
f 122 121 102
f 123 121 122
f 142 126 125
f 141 149 142
f 142 125 141
f 132 144 145
f 145 137 132
f 132 137 118
f 136 144 132
f 132 118 116
f 116 136 132
f 120 137 138
f 101 100 119
f 118 137 119
f 119 100 118
f 110 128 129
f 131 113 129
f 129 111 110
f 129 113 111
f 95 76 94
f 94 114 95
f 123 122 139
f 138 144 148
f 144 151 148
f 150 142 149
f 93 76 92
f 93 94 76
f 92 114 93
f 114 94 93
f 140 139 143
f 140 143 125
f 125 124 140
f 140 124 123
f 123 139 140
f 147 144 136
f 147 150 151
f 147 151 144
f 135 136 116
f 116 134 135
f 135 147 136
f 134 147 135
f 142 134 133
f 131 129 133
f 116 131 133
f 133 134 116
f 146 134 142
f 146 147 134
f 142 150 146
f 150 147 146
f 127 110 126
f 127 128 110
f 126 142 127
f 142 133 127
f 127 129 128
f 127 133 129
f 32 15 14
f 32 38 15
f 57 37 14
f 14 36 57
f 46 66 47
f 46 47 23
f 81 82 59
f 59 82 62
f 35 4 1
f 1 3 35
f 35 13 4
f 29 57 35
f 35 11 29
f 31 13 35
f 3 11 35
f 35 33 31
f 35 57 36
f 34 33 35
f 121 82 102
f 62 82 121
f 121 63 62
f 121 103 83
f 83 63 121
f 65 63 83
f 83 84 65
f 66 46 65
f 65 84 66
f 71 89 75
f 71 2 1
f 1 4 71
f 71 30 50
f 71 4 12
f 50 49 71
f 12 30 71
f 88 107 71
f 75 51 71
f 71 6 2
f 71 107 89
f 71 48 74
f 74 73 71
f 71 51 24
f 24 6 71
f 71 49 48
f 71 69 88
f 71 73 72
f 70 69 71
f 119 120 101
f 137 120 119
f 141 143 150
f 150 78 77
f 14 37 150
f 5 8 150
f 77 80 150
f 150 82 81
f 56 55 150
f 150 26 54
f 150 32 14
f 150 37 56
f 28 27 150
f 54 78 150
f 150 8 26
f 80 101 150
f 150 55 28
f 150 9 5
f 102 82 150
f 81 58 150
f 150 149 141
f 10 9 150
f 150 27 10
f 150 122 102
f 143 139 150
f 150 58 32
f 150 120 138
f 138 148 150
f 101 120 150
f 150 139 122
f 150 148 151

