# https://github.com/mikedh/trimesh
v -0.01191669 0.03392099 0.10420800
v -0.01191669 0.03398249 0.10524476
v -0.01191669 0.03425920 0.10361778
v 0.00854559 0.02280109 0.10442059
v 0.00853673 0.02280109 0.10524476
v -0.01191669 0.03415671 0.10553890
v 0.00870511 0.02291383 0.10580391
v -0.01191669 0.03490487 0.10354691
v 0.07688024 0.02288308 0.09597504
v 0.07693341 0.02285234 0.09597504
v 0.00932545 0.02348776 0.10376727
v 0.00932545 0.02264736 0.10425653
v 0.03050555 0.01668259 0.10456718
v 0.00932545 0.02253462 0.10524476
v -0.01191669 0.03432069 0.10579615
v 0.03068279 0.01681582 0.10569713
v 0.03136517 0.01669283 0.10579809
v 0.00932545 0.02286258 0.10582527
v 0.00932545 0.02348776 0.10588740
v -0.01191669 0.11695641 0.10333917
v 0.06011340 0.10854218 0.09597504
v 0.06325939 0.07741671 0.09597504
v 0.07643714 0.02346726 0.09597504
v 0.07644600 0.02344677 0.09597504
v 0.07778416 0.02279084 0.09597504
v 0.03214502 0.01648786 0.10427207
v 0.03214502 0.01725651 0.10378281
v 0.03110817 0.01725651 0.10389833
v 0.03110817 0.01659035 0.10438662
v 0.03214502 0.01640587 0.10524476
v 0.03050555 0.01668259 0.10500596
v 0.03105500 0.01659035 0.10530883
v -0.01191669 0.03462816 0.10581362
v 0.03214502 0.01666209 0.10582139
v 0.03214502 0.01725651 0.10588352
v 0.03318187 0.01725651 0.10588837
v 0.01036230 0.02348776 0.10588837
v 0.00828860 0.02453313 0.10588837
v -0.01191669 0.03490487 0.10582818
v -0.01191669 0.12105591 0.10333917
v 0.06011340 0.11684367 0.09597504
v 0.04744964 0.01663134 0.10447010
v 0.04666092 0.01651861 0.10429925
v 0.04562408 0.01645711 0.10425653
v 0.03318187 0.01645711 0.10425653
v 0.07837792 0.02290358 0.09597504
v 0.03318187 0.01635462 0.10524476
v 0.03318187 0.01664159 0.10582624
v 0.04562408 0.01725651 0.10588837
v 0.06845251 0.07223084 0.10589225
v -0.00312562 0.03490487 0.10588837
v -0.01191669 0.11994905 0.10582818
v -0.01191669 0.12105591 0.10420800
v 0.02177651 0.12105591 0.10333917
v 0.06216051 0.11795054 0.09597504
v 0.06118569 0.11794029 0.09597504
v 0.06038812 0.11765332 0.09597504
v 0.04666092 0.01644686 0.10524476
v 0.04562408 0.01635462 0.10524476
v 0.07852857 0.02342627 0.09597504
v 0.07833360 0.02294457 0.09649633
v 0.04562408 0.01664159 0.10582624
v 0.04666092 0.01725651 0.10587284
v 0.06845251 0.02453313 0.10588837
v 0.06845251 0.03490487 0.10588934
v 0.06940960 0.08053233 0.10582915
v 0.06845251 0.08986895 0.10589225
v 0.06940074 0.02453313 0.10582624
v 0.06940960 0.06291472 0.10582818
v -0.00312562 0.11994905 0.10588837
v -0.01191669 0.12052297 0.10579615
v 0.02177651 0.12105591 0.10420800
v -0.01191669 0.12082019 0.10524476
v -0.00312562 0.12085094 0.10524476
v 0.05577103 0.12086118 0.10524476
v 0.06741566 0.12086118 0.10524476
v 0.06741566 0.12076894 0.10425556
v 0.07045532 0.11795054 0.09597504
v 0.07650804 0.02288308 0.09902223
v 0.04743192 0.01664159 0.10524476
v 0.04724582 0.01672358 0.10578353
v 0.04666092 0.01667234 0.10580974
v 0.07741196 0.02289333 0.09777579
v 0.07860833 0.02442040 0.09597504
v 0.07838678 0.02348776 0.09659923
v 0.07723472 0.02304706 0.09846696
v 0.06898423 0.02297532 0.10576509
v 0.06845251 0.02348776 0.10582915
v 0.06919691 0.02348776 0.10579615
v 0.06992360 0.03801025 0.10574955
v 0.06940960 0.08779870 0.10582915
v 0.06845251 0.11995929 0.10588158
v 0.06741566 0.11995929 0.10588837
v 0.05577103 0.11995929 0.10588837
v 0.06992360 0.02453313 0.10574858
v -0.00312562 0.12056397 0.10582624
v 0.05577103 0.12057421 0.10582624
v 0.06845251 0.12083044 0.10524476
v 0.06741566 0.12057421 0.10582624
v 0.06845251 0.12056397 0.10582236
v 0.06847909 0.12070745 0.10412257
v 0.07052621 0.11794029 0.09597504
v 0.07628649 0.02293433 0.09960857
v 0.07529395 0.02290358 0.10069484
v 0.07429255 0.02289333 0.10177723
v 0.07328228 0.02289333 0.10279846
v 0.07220998 0.02290358 0.10378378
v 0.07108451 0.02294457 0.10475550
v 0.07861719 0.02453313 0.09597504
v 0.07729676 0.02374398 0.09855045
v 0.07842223 0.02453313 0.09666816
v 0.07815636 0.02453313 0.09718654
v 0.07693341 0.02343652 0.09894652
v 0.07635739 0.02348776 0.09969691
v 0.06971977 0.02348776 0.10566607
v 0.07052621 0.08156746 0.10540979
v 0.06992360 0.08467283 0.10574955
v 0.06904626 0.11995929 0.10581945
v 0.06901967 0.12053323 0.10580100
v 0.07052621 0.02453313 0.10535737
v 0.07052621 0.05876397 0.10539717
v 0.07052621 0.06291472 0.10540008
v 0.07052621 0.07223084 0.10540494
v 0.07052621 0.02348776 0.10523408
v 0.06911715 0.12064596 0.10524476
v 0.06909057 0.12061521 0.10420703
v 0.06898423 0.12049223 0.10367797
v 0.07154533 0.11767382 0.09597504
v 0.07591428 0.02348776 0.10021626
v 0.07539143 0.02348776 0.10081619
v 0.07396465 0.02348776 0.10245093
v 0.07345066 0.02348776 0.10294990
v 0.07286577 0.02348776 0.10346828
v 0.07234292 0.02348776 0.10388571
v 0.07115541 0.02348776 0.10481181
v 0.07861719 0.08053233 0.09597504
v 0.07768668 0.02453313 0.09798450
v 0.07731448 0.02453313 0.09857374
v 0.07692455 0.02453313 0.09909213
v 0.07640169 0.02453313 0.09975127
v 0.07842223 0.08156746 0.09666816
v 0.07815636 0.08156746 0.09718654
v 0.07596746 0.02453313 0.10026965
v 0.07545346 0.02453313 0.10087928
v 0.07129720 0.08156746 0.10490500
v 0.07052621 0.08363770 0.10540979
v 0.06992360 0.08572845 0.10574567
v 0.06992360 0.08779870 0.10572334
v 0.07129720 0.08363770 0.10490500
v 0.07182006 0.08363770 0.10452349
v 0.07245812 0.08363770 0.10400511
v 0.07298984 0.08260258 0.10357506
v 0.07353928 0.08260258 0.10305668
v 0.07405328 0.08260258 0.10255092
v 0.07454954 0.08260258 0.10203157
v 0.07506354 0.08260258 0.10146076
v 0.07548005 0.08260258 0.10094238
v 0.07600291 0.08260258 0.10028324
v 0.07692455 0.08260258 0.09909116
v 0.07729676 0.08317651 0.09854948
v 0.07838678 0.08222338 0.09658758
v 0.06927667 0.11995929 0.10524476
v 0.07202388 0.11704865 0.09597504
v 0.07120858 0.02453313 0.10485355
v 0.07127062 0.06291472 0.10489529
v 0.07158965 0.11765332 0.09597504
v 0.07404441 0.02453313 0.10252374
v 0.07352156 0.02453313 0.10302756
v 0.07292781 0.02453313 0.10354691
v 0.07241381 0.02453313 0.10394104
v 0.07857288 0.08156746 0.09597504
v 0.07768668 0.08156746 0.09798450
v 0.07731448 0.05668348 0.09857374
v 0.07692455 0.05772885 0.09909213
v 0.07506354 0.08156746 0.10145882
v 0.07731448 0.08260258 0.09857277
v 0.07406214 0.04319612 0.10254801
v 0.07247584 0.08260258 0.10400705
v 0.07354814 0.04216099 0.10303727
v 0.07354814 0.05046248 0.10304115
v 0.07406214 0.04527661 0.10255092
v 0.07406214 0.07119572 0.10255383
v 0.07406214 0.04424149 0.10254995
f 22 23 8
f 22 8 21
f 57 41 40
f 40 56 57
f 20 21 8
f 52 70 71
f 171 141 136
f 125 163 166
f 119 163 125
f 161 119 160
f 160 141 161
f 171 163 161
f 161 141 171
f 1 5 2
f 6 2 7
f 7 2 5
f 68 65 64
f 50 65 68
f 74 53 73
f 75 53 74
f 162 163 119
f 119 161 162
f 162 161 163
f 109 111 85
f 111 112 85
f 114 113 110
f 110 112 137
f 110 85 112
f 110 140 114
f 139 140 110
f 108 115 87
f 6 7 15
f 19 15 7
f 95 68 89
f 87 115 89
f 89 115 95
f 89 68 64
f 67 92 93
f 70 67 94
f 94 67 93
f 96 71 70
f 96 94 97
f 70 94 96
f 73 71 96
f 96 74 73
f 96 97 75
f 75 74 96
f 166 128 126
f 126 125 166
f 54 72 76
f 176 173 172
f 142 176 172
f 142 141 160
f 160 176 142
f 138 110 137
f 139 110 138
f 86 110 113
f 85 110 86
f 86 113 114
f 95 115 124
f 115 108 124
f 124 108 135
f 135 120 124
f 124 120 95
f 1 3 4
f 4 3 12
f 4 5 1
f 12 3 11
f 3 10 11
f 9 3 8
f 9 10 3
f 27 10 26
f 26 30 29
f 51 39 38
f 39 19 38
f 50 51 38
f 33 19 39
f 15 19 33
f 119 92 118
f 92 67 91
f 91 118 92
f 117 118 91
f 100 99 93
f 93 92 100
f 100 92 119
f 100 76 99
f 77 78 54
f 101 78 77
f 54 76 77
f 55 56 40
f 102 126 128
f 102 78 101
f 125 126 98
f 98 126 101
f 119 125 98
f 101 77 98
f 98 77 76
f 98 100 119
f 76 100 98
f 173 176 174
f 109 85 84
f 85 60 84
f 46 60 61
f 61 60 85
f 85 86 61
f 61 86 83
f 83 86 103
f 103 86 114
f 114 129 103
f 144 129 114
f 28 10 27
f 28 11 10
f 12 11 28
f 27 26 28
f 29 12 28
f 28 26 29
f 24 8 23
f 24 9 8
f 50 38 37
f 37 38 19
f 36 37 19
f 50 37 36
f 18 19 7
f 7 17 18
f 29 30 13
f 30 31 13
f 13 12 29
f 13 4 12
f 30 17 32
f 32 31 30
f 50 68 69
f 69 68 95
f 95 90 69
f 153 118 152
f 116 90 95
f 101 126 127
f 127 102 101
f 126 102 127
f 158 140 139
f 139 174 158
f 119 118 158
f 83 103 79
f 107 133 108
f 106 105 131
f 131 105 104
f 104 103 131
f 164 120 135
f 135 170 164
f 135 108 134
f 108 133 134
f 169 133 168
f 169 134 133
f 150 170 169
f 169 170 135
f 135 134 169
f 114 140 143
f 143 144 114
f 25 26 10
f 46 42 25
f 30 26 47
f 35 36 19
f 19 18 35
f 80 79 103
f 80 103 104
f 104 105 80
f 87 89 88
f 88 89 64
f 64 65 49
f 49 65 50
f 50 36 49
f 16 17 7
f 16 32 17
f 14 7 5
f 31 32 14
f 14 16 7
f 32 16 14
f 14 13 31
f 5 4 14
f 4 13 14
f 50 69 66
f 66 69 90
f 118 150 151
f 151 152 118
f 147 118 117
f 147 148 118
f 155 181 156
f 155 156 118
f 179 169 168
f 152 169 179
f 177 179 168
f 157 156 140
f 140 158 157
f 118 156 157
f 157 158 118
f 159 174 176
f 159 158 174
f 159 176 160
f 160 119 159
f 119 158 159
f 106 131 132
f 132 107 106
f 133 107 132
f 168 133 132
f 130 103 129
f 130 131 103
f 167 177 168
f 144 177 167
f 168 132 167
f 167 132 131
f 131 130 167
f 129 144 167
f 167 130 129
f 165 170 150
f 165 164 170
f 120 164 165
f 165 145 120
f 150 145 165
f 26 25 45
f 45 25 44
f 45 47 26
f 43 25 42
f 44 25 43
f 44 43 59
f 36 35 48
f 34 18 17
f 34 35 18
f 34 48 35
f 47 48 34
f 34 17 30
f 30 47 34
f 81 105 106
f 81 80 105
f 106 107 81
f 81 107 108
f 81 108 87
f 87 82 81
f 63 82 87
f 87 88 63
f 63 88 64
f 64 49 63
f 178 151 150
f 152 151 178
f 150 169 178
f 178 169 152
f 120 145 121
f 95 120 121
f 148 147 146
f 118 148 146
f 146 147 117
f 153 181 182
f 181 155 182
f 154 118 153
f 154 155 118
f 153 182 154
f 154 182 155
f 180 181 153
f 180 179 181
f 153 152 180
f 152 179 180
f 181 179 183
f 179 177 183
f 156 181 183
f 183 177 156
f 156 177 175
f 175 177 144
f 144 143 175
f 140 156 175
f 175 143 140
f 62 59 82
f 82 63 62
f 62 63 49
f 80 81 58
f 82 59 58
f 58 81 82
f 58 42 46
f 58 43 42
f 58 59 43
f 46 61 58
f 58 61 83
f 83 79 58
f 79 80 58
f 122 121 145
f 95 121 122
f 149 150 118
f 118 146 149
f 149 145 150
f 123 145 116
f 123 122 145
f 123 116 95
f 95 122 123
f 39 70 52
f 51 70 39
f 41 21 20
f 40 41 20
f 109 136 111
f 111 136 141
f 40 53 72
f 72 54 40
f 67 70 51
f 67 51 50
f 94 99 97
f 93 99 94
f 76 72 53
f 76 53 75
f 97 99 76
f 75 97 76
f 142 111 141
f 142 112 111
f 142 172 137
f 137 112 142
f 137 172 138
f 172 173 138
f 33 53 40
f 1 2 33
f 33 39 52
f 52 71 33
f 40 20 33
f 33 3 1
f 33 20 8
f 33 71 73
f 73 53 33
f 33 2 6
f 8 3 33
f 6 15 33
f 40 54 55
f 54 78 55
f 174 138 173
f 139 138 174
f 25 136 109
f 25 128 166
f 25 23 22
f 41 57 25
f 22 21 25
f 166 163 25
f 25 21 41
f 25 163 171
f 25 57 56
f 25 102 128
f 171 136 25
f 109 84 25
f 25 24 23
f 56 55 25
f 25 60 46
f 10 9 25
f 25 55 78
f 78 102 25
f 25 84 60
f 9 24 25
f 66 67 50
f 66 91 67
f 66 90 117
f 117 91 66
f 47 45 59
f 59 45 44
f 117 90 146
f 90 116 146
f 47 59 62
f 62 48 47
f 62 49 36
f 36 48 62
f 149 146 116
f 116 145 149

