# https://github.com/mikedh/trimesh
v 0.03047692 0.02099720 0.06893377
v 0.03063777 0.02090490 0.06893377
v 0.03047692 0.02103121 0.06997104
v 0.03047692 0.02105550 0.06864414
v 0.03066022 0.02092919 0.06997104
v 0.03080611 0.02104579 0.06789650
v 0.03132233 0.02078345 0.06789650
v 0.03364532 0.01983127 0.06829799
v 0.03115773 0.02071544 0.06893377
v 0.03363784 0.01982641 0.06997104
v 0.03117644 0.02073001 0.06997104
v 0.03134103 0.02078831 0.07058917
v 0.03047692 0.02149272 0.07068336
v 0.03047692 0.02122553 0.06789650
v 0.03367151 0.01984099 0.07050204
v 0.03153555 0.02086118 0.06735609
v 0.03667157 0.01876250 0.06814846
v 0.03660050 0.01873335 0.06893377
v 0.03662294 0.01874307 0.06997104
v 0.03669776 0.01877222 0.07053736
v 0.03421765 0.01974868 0.07058799
v 0.04914316 0.02490793 0.07679278
v 0.03047692 0.02244490 0.07087880
v 0.03047692 0.02137613 0.06764572
v 0.03214529 0.02080288 0.06732901
v 0.03457302 0.01980212 0.06734314
v 0.03691098 0.01889853 0.06745734
v 0.03047692 0.02165304 0.06732312
v 0.03728879 0.01866534 0.06783999
v 0.03836986 0.01828641 0.06893377
v 0.03732994 0.01851960 0.06893377
v 0.03732994 0.01853903 0.06997104
v 0.03836986 0.01833014 0.06997104
v 0.03732994 0.01868477 0.07061625
v 0.04977909 0.02484478 0.07683163
v 0.04977909 0.02555405 0.07694937
v 0.04908705 0.02555405 0.07683163
v 0.03047692 0.02351853 0.07104364
v 0.03115773 0.02142471 0.06731252
v 0.03214529 0.02140528 0.06726543
v 0.06845281 0.02763330 0.06500015
v 0.03525757 0.01974383 0.06731959
v 0.03760301 0.01876736 0.06734196
v 0.03047692 0.02206112 0.06728309
v 0.03836986 0.01846130 0.06789650
v 0.03940604 0.01822811 0.06893377
v 0.03940604 0.01828155 0.06997104
v 0.03836986 0.01859247 0.07068100
v 0.05081527 0.02485450 0.07682574
v 0.03940604 0.01857304 0.07068925
v 0.05081527 0.02555405 0.07693759
v 0.05058335 0.06785794 0.07694113
v 0.04977909 0.06785794 0.07694937
v 0.04962198 0.06785794 0.07692347
v 0.03047692 0.02555405 0.07114136
v 0.03047692 0.02451929 0.07112841
v 0.04908705 0.06785794 0.07683163
v 0.03047692 0.06785794 0.07114607
v 0.06869222 0.02866806 0.06492362
v 0.06869222 0.02761387 0.06500722
v 0.06845281 0.02694346 0.06516852
v 0.03940604 0.01871392 0.06731370
v 0.03836986 0.01872364 0.06731841
v 0.03047692 0.02244490 0.06725954
v 0.03940604 0.01842244 0.06789650
v 0.04044223 0.01851474 0.06789650
v 0.04044223 0.01835928 0.06893377
v 0.04044223 0.01839329 0.06997104
v 0.04044223 0.01861676 0.07067041
v 0.05141753 0.02492251 0.07678454
v 0.05145868 0.02555405 0.07681986
v 0.05131279 0.06785794 0.07684694
v 0.05081527 0.06785794 0.07693759
v 0.03047692 0.06785794 0.06735726
v 0.06869222 0.03154403 0.06492244
v 0.03047692 0.02307159 0.06724894
v 0.06869222 0.02696774 0.06517911
v 0.04108189 0.01877707 0.06735020
v 0.04044223 0.01873821 0.06732548
v 0.04144848 0.01871878 0.06799776
v 0.04200211 0.01881108 0.06841102
v 0.04148215 0.01863133 0.06893377
v 0.04156819 0.01867505 0.06988039
v 0.04128389 0.01870906 0.07059741
v 0.06403127 0.02494194 0.06853700
v 0.06608867 0.02597670 0.06848048
v 0.06869222 0.02684143 0.06768693
v 0.06869222 0.02763330 0.06805427
v 0.06869222 0.02786648 0.06808606
v 0.06869222 0.02866806 0.06811314
v 0.06869222 0.06785794 0.06904327
v 0.05145868 0.06785794 0.07681986
v 0.03047692 0.06775107 0.06731370
v 0.06868474 0.06785794 0.06492362
v 0.06869222 0.06785309 0.06492244
v 0.03047692 0.06664343 0.06724894
v 0.06869222 0.02673456 0.06584315
v 0.06393027 0.02498566 0.06627054
v 0.06326442 0.02472818 0.06685923
v 0.06404997 0.02494194 0.06685923
v 0.06326442 0.02466017 0.06789650
v 0.04197593 0.01883051 0.07016531
v 0.06412479 0.02490793 0.06789650
v 0.06703133 0.02602528 0.06757743
v 0.06869222 0.02662768 0.06701465
v 0.06869222 0.06785794 0.06594794
v 0.03047692 0.06705151 0.06725012
v 0.06869222 0.02660825 0.06685923
v 0.06697148 0.02604957 0.06624111
v 0.06845281 0.02652081 0.06685923
f 55 37 58
f 57 58 37
f 12 13 3
f 85 70 84
f 36 37 22
f 12 21 22
f 22 13 12
f 37 38 22
f 51 73 52
f 52 36 51
f 51 72 73
f 74 94 93
f 53 36 52
f 47 46 68
f 68 46 67
f 17 16 27
f 34 22 20
f 20 22 21
f 20 21 12
f 56 37 55
f 56 38 37
f 83 84 68
f 68 67 83
f 13 22 23
f 23 22 38
f 71 51 70
f 92 72 71
f 72 51 71
f 92 71 91
f 91 71 90
f 76 75 59
f 59 64 76
f 54 37 36
f 54 57 37
f 36 53 54
f 44 64 59
f 28 44 40
f 27 16 26
f 41 44 59
f 41 40 44
f 66 65 78
f 78 80 66
f 66 80 67
f 66 67 46
f 46 65 66
f 16 17 7
f 2 3 1
f 11 2 10
f 85 84 102
f 102 83 85
f 84 83 102
f 85 83 101
f 69 84 70
f 69 50 47
f 68 84 69
f 69 47 68
f 47 50 48
f 36 22 35
f 35 48 50
f 35 22 34
f 34 48 35
f 86 70 85
f 85 87 86
f 86 87 70
f 70 87 88
f 95 107 93
f 93 94 95
f 96 107 95
f 94 106 95
f 24 28 16
f 16 14 24
f 28 40 39
f 42 26 25
f 25 41 42
f 40 41 25
f 25 26 16
f 25 39 40
f 16 28 25
f 28 39 25
f 98 80 78
f 67 80 81
f 80 98 81
f 65 63 62
f 62 63 41
f 18 10 9
f 9 10 2
f 8 7 17
f 8 2 7
f 8 9 2
f 8 17 18
f 18 9 8
f 3 2 5
f 5 2 11
f 12 3 5
f 4 2 1
f 7 2 6
f 6 14 16
f 16 7 6
f 6 4 14
f 2 4 6
f 18 17 31
f 17 30 31
f 45 63 65
f 45 65 46
f 46 30 45
f 34 20 33
f 33 48 34
f 47 48 33
f 46 47 33
f 33 30 46
f 11 10 15
f 15 20 12
f 12 5 15
f 15 5 11
f 50 69 49
f 49 35 50
f 49 69 70
f 70 51 49
f 49 51 36
f 36 35 49
f 89 71 70
f 70 88 89
f 90 71 89
f 77 98 78
f 67 81 82
f 82 83 67
f 82 101 83
f 100 101 82
f 82 81 100
f 99 98 100
f 100 81 99
f 99 81 98
f 78 65 79
f 65 62 79
f 29 30 17
f 29 45 30
f 29 17 27
f 63 45 43
f 27 26 43
f 43 29 27
f 45 29 43
f 43 26 42
f 42 41 43
f 41 63 43
f 18 31 19
f 19 10 18
f 20 15 19
f 19 15 10
f 32 31 30
f 30 33 32
f 32 19 31
f 32 33 20
f 20 19 32
f 104 105 87
f 104 87 85
f 108 105 104
f 103 101 100
f 100 110 103
f 85 101 103
f 103 110 108
f 103 104 85
f 108 104 103
f 108 110 109
f 100 98 109
f 109 110 100
f 60 41 59
f 61 79 62
f 61 62 41
f 61 77 78
f 78 79 61
f 61 60 77
f 41 60 61
f 108 109 97
f 98 77 97
f 97 109 98
f 52 73 106
f 106 53 52
f 106 74 58
f 106 72 92
f 58 57 106
f 73 72 106
f 94 74 106
f 92 91 106
f 57 54 106
f 106 54 53
f 95 76 96
f 75 76 95
f 13 23 4
f 4 76 64
f 4 74 93
f 55 58 4
f 1 3 4
f 4 3 13
f 4 56 55
f 58 74 4
f 93 107 4
f 28 24 4
f 38 56 4
f 4 23 38
f 4 107 96
f 96 76 4
f 64 44 4
f 4 44 28
f 4 24 14
f 75 95 97
f 59 75 97
f 87 105 97
f 97 91 90
f 97 88 87
f 90 89 97
f 97 106 91
f 97 95 106
f 97 89 88
f 97 105 108
f 97 60 59
f 77 60 97

