# https://github.com/mikedh/trimesh
v 0.01733587 0.07535115 0.07396395
v 0.01733844 0.07499371 0.07396395
v 0.01831219 0.07535115 0.08698831
v 0.01831219 0.08454921 0.08698831
v 0.01733716 0.08261309 0.07396395
v 0.01735516 0.07431458 0.07396395
v 0.01736031 0.07413586 0.07396395
v 0.01834820 0.07473159 0.08698831
v 0.02452512 0.08454921 0.08698831
v 0.01831347 0.08454921 0.08657014
v 0.01781567 0.08428709 0.07396395
v 0.01766002 0.08419177 0.07396395
v 0.01740790 0.08369732 0.07396395
v 0.01739633 0.08359605 0.07396395
v 0.01837264 0.07431458 0.08698831
v 0.02675688 0.02451755 0.07396395
v 0.02675688 0.02451755 0.07723407
v 0.02513869 0.08454921 0.07930832
v 0.03047692 0.07847277 0.08698831
v 0.01832762 0.08454921 0.08553238
v 0.01865563 0.08443007 0.07396395
v 0.01834692 0.08454921 0.08449461
v 0.01837264 0.08454921 0.08345812
v 0.01845625 0.08454921 0.08242035
v 0.01899651 0.08454921 0.07696634
v 0.01880356 0.07356396 0.08698831
v 0.02697170 0.02451755 0.07827183
v 0.02740519 0.02396947 0.07881876
v 0.02681991 0.02441627 0.07396395
v 0.02718137 0.02385033 0.07723407
v 0.02727656 0.02390395 0.07827183
v 0.03047692 0.07847277 0.07827183
v 0.02489429 0.08454921 0.07827183
v 0.03047692 0.07333162 0.08698831
v 0.01969241 0.08447772 0.07396395
v 0.01969241 0.08454921 0.07633144
v 0.01916116 0.07346864 0.08698831
v 0.02799175 0.02380267 0.07827183
v 0.02799175 0.02395160 0.07883279
v 0.01969241 0.07333162 0.08698831
v 0.02718137 0.02385033 0.07396395
v 0.02799175 0.02369544 0.07723407
v 0.03047692 0.07837150 0.07791868
v 0.02452769 0.08454921 0.07774657
v 0.03047692 0.07821065 0.07737940
v 0.03047692 0.07190187 0.07396395
v 0.02875454 0.02396947 0.07881876
v 0.02944658 0.02418394 0.07871805
v 0.02955849 0.02487499 0.07880091
v 0.02962538 0.02452350 0.07833175
v 0.02967297 0.02555412 0.07827183
v 0.02976559 0.02555412 0.07723407
v 0.02073047 0.08447177 0.07396395
v 0.02073047 0.08454921 0.07630466
v 0.02907226 0.02389203 0.07833175
v 0.02799175 0.02369544 0.07396395
v 0.02902853 0.02377884 0.07723407
v 0.02447238 0.08454921 0.07766753
v 0.03047692 0.07804980 0.07717414
v 0.02976559 0.02555412 0.07396395
v 0.03047692 0.07504732 0.07396395
v 0.02959322 0.02395160 0.07802705
v 0.02972443 0.02451755 0.07723407
v 0.02973086 0.02467839 0.07396395
v 0.02147525 0.08432283 0.07396395
v 0.02902853 0.02377884 0.07396395
v 0.02952633 0.02390395 0.07396395
v 0.02961509 0.02392778 0.07723407
v 0.02312817 0.08277990 0.07396395
v 0.02253003 0.08337562 0.07396395
v 0.02207467 0.08381646 0.07396395
v 0.02199364 0.08389391 0.07396395
v 0.02191517 0.08395944 0.07396395
v 0.03047692 0.07779959 0.07686052
v 0.02616003 0.07974763 0.07396395
v 0.02520172 0.08070675 0.07396395
v 0.03047692 0.07523200 0.07414881
v 0.02719037 0.07866936 0.07396395
v 0.02963181 0.02401713 0.07396395
v 0.02972443 0.02451755 0.07396395
v 0.02961509 0.02392778 0.07396395
v 0.02667199 0.07922339 0.07396395
f 1 3 4
f 17 30 31
f 31 30 42
f 38 31 42
f 28 31 38
f 7 16 17
f 17 15 7
f 29 30 17
f 17 16 29
f 18 9 19
f 19 32 18
f 18 32 33
f 27 15 17
f 28 15 27
f 17 31 27
f 27 31 28
f 3 7 8
f 8 7 15
f 2 3 1
f 30 29 41
f 52 46 34
f 49 50 34
f 1 4 5
f 26 15 28
f 34 40 39
f 47 34 39
f 39 40 28
f 39 38 47
f 28 38 39
f 6 7 3
f 3 2 6
f 46 52 60
f 34 50 51
f 51 52 34
f 79 68 81
f 63 79 80
f 68 79 63
f 63 51 50
f 52 51 63
f 50 49 48
f 48 34 47
f 48 49 34
f 81 68 67
f 66 67 57
f 57 67 68
f 33 32 43
f 43 45 33
f 72 73 58
f 59 74 58
f 58 45 59
f 4 12 13
f 11 12 4
f 28 40 37
f 37 26 28
f 62 63 50
f 68 63 62
f 50 48 62
f 62 48 47
f 62 57 68
f 64 60 52
f 52 63 64
f 64 63 80
f 42 57 55
f 55 38 42
f 57 62 55
f 47 38 55
f 55 62 47
f 82 74 78
f 33 45 44
f 45 58 44
f 14 5 4
f 4 13 14
f 61 78 77
f 77 78 74
f 58 69 70
f 75 74 82
f 75 58 74
f 25 11 24
f 11 23 24
f 58 53 54
f 21 11 25
f 65 58 73
f 65 53 58
f 72 58 71
f 58 70 71
f 76 69 58
f 58 75 76
f 10 11 4
f 10 20 11
f 22 23 11
f 11 20 22
f 35 54 53
f 35 21 25
f 36 35 25
f 54 35 36
f 41 56 42
f 42 30 41
f 42 56 57
f 56 66 57
f 37 4 3
f 37 34 19
f 19 9 37
f 37 9 4
f 37 40 34
f 3 8 37
f 37 8 15
f 15 26 37
f 19 34 77
f 77 32 19
f 77 46 61
f 34 46 77
f 77 43 32
f 59 45 77
f 45 43 77
f 77 74 59
f 61 46 35
f 56 41 35
f 35 64 80
f 35 2 1
f 35 66 56
f 16 7 35
f 35 29 16
f 12 11 35
f 7 6 35
f 1 5 35
f 35 73 72
f 35 41 29
f 80 79 35
f 35 78 61
f 81 67 35
f 35 13 12
f 35 6 2
f 46 60 35
f 35 79 81
f 35 67 66
f 11 21 35
f 5 14 35
f 60 64 35
f 82 78 35
f 35 65 73
f 35 14 13
f 35 75 82
f 35 70 69
f 72 71 35
f 69 76 35
f 53 65 35
f 35 71 70
f 35 76 75
f 4 9 36
f 36 18 33
f 9 18 36
f 33 44 36
f 25 24 36
f 36 44 58
f 23 22 36
f 36 10 4
f 36 24 23
f 58 54 36
f 20 10 36
f 36 22 20

