# https://github.com/mikedh/trimesh
v 0.00430547 0.08455517 0.06771571
v 0.00551267 0.08455517 0.06812975
v 0.00430547 0.08455517 0.07102423
v 0.00430547 0.10630466 0.06767412
v 0.00516775 0.10544098 0.06782726
v 0.01243148 0.10544098 0.06910718
v 0.02176675 0.10544098 0.07075388
v 0.02280355 0.10544098 0.07093726
v 0.02384034 0.10544098 0.07113010
v 0.02384034 0.10440348 0.07115090
v 0.02445421 0.10375436 0.07143827
v 0.02447269 0.08455517 0.07766585
v 0.01831145 0.08455517 0.08698831
v 0.00430547 0.09343368 0.07679240
v 0.00430547 0.11045467 0.06767412
v 0.01243148 0.11230152 0.06910718
v 0.02176675 0.11230152 0.07075388
v 0.02280355 0.11230152 0.07093726
v 0.02451785 0.10544098 0.07137966
v 0.02450964 0.10440348 0.07138722
v 0.02384034 0.11230152 0.07113010
v 0.02410314 0.11230152 0.07122652
v 0.02489356 0.08455517 0.07826894
v 0.02452812 0.08455517 0.07774525
v 0.00430547 0.09403119 0.07701549
v 0.02452401 0.08455517 0.08698831
v 0.01831145 0.11230152 0.08698831
v 0.00430547 0.11230152 0.06767601
v 0.00453336 0.11230152 0.06771571
v 0.00516775 0.11230152 0.06782726
v 0.00660695 0.11230152 0.06808059
v 0.01075824 0.11230152 0.06881225
v 0.02465336 0.10544098 0.07204704
v 0.02464720 0.10440348 0.07204704
v 0.02451785 0.11230152 0.07137966
v 0.02513788 0.08455517 0.07930687
v 0.02492641 0.08455517 0.07840696
v 0.00430547 0.09422402 0.07701360
v 0.02496131 0.11230152 0.08698831
v 0.00430547 0.11230152 0.06955147
v 0.00430547 0.09481882 0.07695499
v 0.02465336 0.11230152 0.07204704
v 0.02527543 0.11230152 0.07930687
f 43 36 33
f 27 25 13
f 6 7 1
f 34 33 36
f 19 33 34
f 14 3 13
f 13 25 14
f 39 26 36
f 39 36 43
f 41 27 40
f 1 4 5
f 5 6 1
f 4 6 5
f 9 10 1
f 1 10 11
f 43 33 42
f 25 27 38
f 27 41 38
f 22 35 19
f 22 9 21
f 19 9 22
f 1 11 2
f 2 11 12
f 20 11 10
f 20 9 19
f 10 9 20
f 19 34 20
f 23 11 20
f 20 37 23
f 36 37 20
f 20 34 36
f 12 11 24
f 24 11 23
f 1 7 8
f 8 9 1
f 29 15 28
f 32 16 15
f 15 31 32
f 30 31 15
f 15 29 30
f 13 26 39
f 39 27 13
f 19 35 42
f 42 33 19
f 24 26 13
f 24 37 36
f 36 26 24
f 24 3 1
f 13 3 24
f 1 2 24
f 23 37 24
f 24 2 12
f 1 3 15
f 15 4 1
f 15 14 25
f 25 38 15
f 3 14 15
f 40 28 15
f 15 41 40
f 15 38 41
f 7 6 16
f 16 17 7
f 4 15 16
f 16 6 4
f 21 9 18
f 9 8 18
f 7 17 18
f 18 8 7
f 30 39 43
f 30 28 40
f 40 27 30
f 21 18 30
f 43 42 30
f 27 39 30
f 30 42 35
f 30 22 21
f 35 22 30
f 17 16 30
f 30 18 17
f 30 29 28
f 16 32 30
f 30 32 31

