# https://github.com/mikedh/trimesh
v -0.01919905 0.08537898 0.08698831
v -0.01959634 0.08537898 0.08698831
v -0.01899982 0.08535584 0.08698831
v -0.01869546 0.09282827 0.08353567
v -0.01984960 0.08524595 0.08698831
v -0.01852236 0.08472543 0.08698831
v -0.01781489 0.09282827 0.08329956
v -0.01795372 0.09282827 0.08333742
v -0.01941570 0.09282827 0.08317259
v -0.02015222 0.08508401 0.08698831
v -0.01817385 0.08372486 0.08698831
v -0.01743328 0.09282827 0.08255779
v -0.01953129 0.09282827 0.08241969
v -0.02030440 0.08451143 0.08698831
v -0.01816747 0.08364968 0.08698831
v -0.01736299 0.09282827 0.08241969
v -0.01935355 0.09282827 0.08138167
v -0.02034215 0.08364968 0.08698831
v -0.02032937 0.08396199 0.08698831
v -0.01468994 0.09282827 0.07204618
v -0.01816747 0.03592910 0.08698831
v -0.01933555 0.09282827 0.08127921
v -0.02021437 0.08261441 0.08626214
v -0.02034215 0.03489383 0.08698831
v -0.01440823 0.09282827 0.06804113
v -0.01816863 0.03489383 0.08698831
v -0.01440823 0.04008173 0.06803890
v -0.01914677 0.09282827 0.08020777
v -0.01895916 0.09282827 0.07914302
v -0.01679319 0.09282827 0.06685832
v -0.02021437 0.03592910 0.08626214
v -0.01697615 0.03592910 0.06789634
v -0.01935355 0.03489383 0.08138167
v -0.01922983 0.03434439 0.08077356
v -0.02028755 0.03430969 0.08688362
v -0.02031079 0.03439644 0.08698831
v -0.01440823 0.09282827 0.06437687
v -0.01864957 0.03403786 0.08698831
v -0.01811867 0.03427499 0.08638020
v -0.01712252 0.03434439 0.08096067
v -0.01440823 0.03823098 0.06766468
v -0.01440823 0.03891344 0.06792084
v -0.01661022 0.09282827 0.06582253
v -0.01679319 0.03697015 0.06685832
v -0.01658640 0.03697015 0.06582253
v -0.01719513 0.03489383 0.06915933
v -0.01734150 0.03489383 0.06997237
v -0.01843872 0.03489383 0.07619380
v -0.01717654 0.03430969 0.06926848
v -0.02029684 0.03429812 0.08698831
v -0.01823368 0.03428077 0.07535626
v -0.01724044 0.03421715 0.06997237
v -0.01830745 0.03417667 0.07619380
v -0.01453021 0.09282827 0.06435460
v -0.01440823 0.04099554 0.06437687
v -0.01978164 0.03398581 0.08698831
v -0.01869546 0.03383543 0.08553152
v -0.01795255 0.03409570 0.08449573
v -0.01804375 0.03417667 0.08553152
v -0.01600091 0.03421715 0.07412222
v -0.01606481 0.03430969 0.07485062
v -0.01440823 0.03776829 0.06717462
v -0.01507214 0.03489383 0.06940659
v -0.01503439 0.03433861 0.06872052
v -0.01656840 0.09282827 0.06565769
v -0.01661022 0.03800542 0.06582253
v -0.01634419 0.04008173 0.06478451
v -0.01628204 0.03906382 0.06471768
v -0.01612463 0.03942818 0.06424545
v -0.01631050 0.03800542 0.06494489
v -0.01628669 0.03697015 0.06507408
v -0.01620944 0.03631082 0.06519214
v -0.01675137 0.03592910 0.06685832
v -0.01616413 0.03435017 0.06732387
v -0.01635116 0.03426342 0.06789634
v -0.01667934 0.03414196 0.06892767
v -0.01662067 0.03388748 0.06997237
v -0.01637324 0.03595223 0.06583589
v -0.01624661 0.03526398 0.06619229
v -0.01638253 0.03491118 0.06692960
v -0.01937504 0.03414775 0.08241969
v -0.01946682 0.03407834 0.08345771
v -0.01955220 0.03404364 0.08449573
v -0.01733221 0.03411883 0.07101039
v -0.01496759 0.09282827 0.06427664
v -0.01453021 0.04111700 0.06435460
v -0.01440823 0.04008173 0.06438133
v -0.01505413 0.03954964 0.06426327
v -0.01869546 0.03380651 0.08241969
v -0.01869546 0.03374868 0.08345771
v -0.01869546 0.03376024 0.08449573
v -0.01662067 0.03377760 0.07308420
v -0.01581795 0.03406099 0.07204618
v -0.01786310 0.03404943 0.08345771
v -0.01590914 0.03411883 0.07308420
v -0.01440823 0.03761213 0.06689396
v -0.01573430 0.03403786 0.07101039
v -0.01564485 0.03404943 0.06997237
v -0.01503439 0.03433861 0.06811018
v -0.01469227 0.03592910 0.06685832
v -0.01634419 0.09282827 0.06478451
v -0.01613625 0.04008173 0.06423654
v -0.01631166 0.09282827 0.06469763
v -0.01558328 0.04008173 0.06423209
v -0.01558328 0.03945132 0.06424991
v -0.01558328 0.03893658 0.06437019
v -0.01558328 0.03800542 0.06459962
v -0.01558328 0.03697015 0.06487361
v -0.01558328 0.03627612 0.06516096
v -0.01558328 0.03575559 0.06564433
v -0.01579994 0.03435017 0.06732387
v -0.01558328 0.03523506 0.06616334
v -0.01550545 0.03426920 0.06781837
v -0.01662067 0.03377760 0.07101039
v -0.01839922 0.03409570 0.07723182
v -0.01742282 0.03406099 0.07204618
v -0.01504949 0.09282827 0.06426327
v -0.01504949 0.04008173 0.06426327
v -0.01440823 0.03912165 0.06460185
v -0.01495771 0.03635709 0.06522778
v -0.01662067 0.03374290 0.07204618
v -0.01765806 0.03374868 0.07826984
v -0.01440823 0.03749067 0.06628139
v -0.01548338 0.03415931 0.06901455
v -0.01510815 0.03438488 0.06741965
v -0.01491531 0.03509626 0.06685832
v -0.01440823 0.03740970 0.06582253
v -0.01613625 0.09282827 0.06423654
v -0.01558328 0.09282827 0.06423209
v -0.01550545 0.03465671 0.06692960
v -0.01498385 0.03532761 0.06625244
v -0.01440823 0.03812687 0.06503176
v -0.01482296 0.03697015 0.06510081
v -0.01484445 0.03598115 0.06587153
f 26 20 21
f 21 20 15
f 25 20 27
f 26 42 27
f 27 20 26
f 15 20 16
f 64 62 41
f 41 42 26
f 26 40 41
f 103 67 101
f 102 103 128
f 67 103 102
f 49 35 34
f 24 34 35
f 45 66 67
f 22 23 18
f 9 13 14
f 14 10 9
f 61 41 40
f 26 38 39
f 39 38 59
f 39 40 26
f 39 61 40
f 121 114 98
f 47 46 49
f 49 34 47
f 47 34 48
f 36 24 35
f 48 34 33
f 34 24 33
f 84 114 116
f 52 53 35
f 52 84 53
f 4 5 2
f 10 5 4
f 9 10 4
f 32 45 46
f 46 47 32
f 32 47 48
f 48 33 32
f 32 33 24
f 18 13 17
f 17 22 18
f 29 30 23
f 101 67 65
f 67 66 65
f 66 43 65
f 19 13 18
f 19 14 13
f 117 85 118
f 118 85 86
f 64 41 63
f 63 61 64
f 41 61 63
f 95 93 64
f 57 38 56
f 56 91 57
f 90 91 56
f 90 122 91
f 90 114 121
f 121 122 90
f 64 93 97
f 97 98 64
f 121 98 97
f 49 74 75
f 75 76 49
f 51 35 49
f 49 52 51
f 51 52 35
f 53 84 81
f 115 84 116
f 116 82 115
f 115 81 84
f 82 81 115
f 7 3 6
f 1 4 2
f 3 4 1
f 8 3 7
f 8 4 3
f 45 72 73
f 49 46 73
f 46 45 73
f 69 102 104
f 67 102 69
f 69 70 45
f 31 32 24
f 71 72 45
f 45 70 71
f 71 69 72
f 70 69 71
f 23 22 28
f 28 29 23
f 86 85 54
f 96 62 64
f 64 100 96
f 100 123 96
f 59 95 60
f 60 39 59
f 61 39 60
f 64 61 60
f 60 95 64
f 58 95 59
f 93 95 58
f 59 38 58
f 38 57 58
f 91 122 92
f 93 57 92
f 92 57 91
f 92 122 121
f 121 97 92
f 92 97 93
f 77 113 114
f 77 75 74
f 76 75 77
f 114 84 77
f 84 52 77
f 49 76 77
f 77 52 49
f 124 98 114
f 114 113 124
f 89 83 82
f 114 90 89
f 89 90 56
f 56 83 89
f 116 114 89
f 89 82 116
f 50 81 82
f 82 83 50
f 35 53 50
f 53 81 50
f 50 83 56
f 50 36 35
f 7 6 11
f 11 12 7
f 16 12 11
f 15 16 11
f 80 74 49
f 49 79 80
f 80 79 74
f 111 77 74
f 113 77 111
f 49 73 78
f 78 73 72
f 78 79 49
f 72 79 78
f 127 123 100
f 104 118 88
f 88 55 87
f 86 55 88
f 88 118 86
f 68 45 67
f 67 69 68
f 68 69 45
f 32 31 44
f 66 45 44
f 45 32 44
f 94 57 93
f 93 58 94
f 94 58 57
f 99 100 64
f 64 98 99
f 98 124 99
f 72 69 108
f 69 107 108
f 107 88 108
f 105 69 104
f 104 88 105
f 125 124 113
f 125 99 124
f 113 111 125
f 120 108 88
f 106 88 107
f 106 105 88
f 106 107 69
f 69 105 106
f 74 79 112
f 112 111 74
f 100 99 126
f 99 125 126
f 126 127 100
f 119 88 87
f 119 120 88
f 132 127 134
f 134 120 132
f 127 126 134
f 130 125 111
f 111 112 130
f 131 112 120
f 120 134 131
f 125 130 131
f 131 130 112
f 131 126 125
f 131 134 126
f 110 79 72
f 110 112 79
f 120 112 110
f 133 119 132
f 132 120 133
f 120 119 133
f 109 110 72
f 120 110 109
f 72 108 109
f 108 120 109
f 104 102 129
f 129 102 128
f 118 129 117
f 104 129 118
f 31 24 18
f 18 23 31
f 54 20 25
f 25 37 54
f 54 103 101
f 101 65 54
f 54 13 9
f 9 4 54
f 54 16 20
f 54 12 16
f 30 29 54
f 128 103 54
f 54 129 128
f 54 17 13
f 54 43 30
f 117 129 54
f 7 12 54
f 54 28 22
f 22 17 54
f 54 8 7
f 54 65 43
f 54 85 117
f 4 8 54
f 29 28 54
f 37 55 54
f 54 55 86
f 26 21 11
f 11 38 26
f 2 5 11
f 11 1 2
f 11 21 15
f 18 24 11
f 56 38 11
f 11 19 18
f 11 5 10
f 10 14 11
f 24 36 11
f 11 50 56
f 14 19 11
f 11 6 3
f 3 1 11
f 36 50 11
f 44 31 23
f 23 30 44
f 30 43 44
f 44 43 66
f 119 37 25
f 42 41 119
f 25 27 119
f 119 27 42
f 119 55 37
f 119 41 62
f 87 55 119
f 123 127 119
f 62 96 119
f 119 96 123
f 119 127 132

