# https://github.com/mikedh/trimesh
v 0.06869222 0.06809356 0.06492244
v 0.06869222 0.06889132 0.06492244
v 0.06869222 0.06785794 0.06595090
v 0.06868474 0.06785794 0.06492528
v 0.03047692 0.06785794 0.06736005
v 0.06869222 0.06913065 0.06492528
v 0.06869222 0.06785794 0.06904479
v 0.03047692 0.06785794 0.07115000
v 0.03047692 0.06806759 0.06744528
v 0.04085371 0.07072247 0.06735437
v 0.06139780 0.07384487 0.06630887
v 0.06741663 0.07082451 0.06523212
v 0.06869222 0.06993027 0.06499915
v 0.06869222 0.07634020 0.08698595
v 0.05145868 0.06785794 0.07682071
v 0.03616283 0.07356844 0.09156002
v 0.03047692 0.07333653 0.08698595
v 0.04908705 0.06785794 0.07683492
v 0.03047692 0.06827167 0.06753620
v 0.03047692 0.06883196 0.06785155
v 0.03047692 0.06910468 0.06804758
v 0.03986989 0.07176883 0.06837430
v 0.03980256 0.08322507 0.07766166
v 0.06186539 0.07384487 0.06630887
v 0.04044223 0.08326774 0.07761620
v 0.04771046 0.08648105 0.07962766
v 0.04874291 0.08652373 0.07957368
v 0.06845281 0.07078369 0.06523212
v 0.06869222 0.07064269 0.06519518
v 0.06845281 0.07016960 0.06506165
v 0.06869222 0.08417125 0.08698595
v 0.05224049 0.07846633 0.09325896
v 0.05172427 0.07742924 0.09345499
v 0.05159334 0.07678732 0.09340954
v 0.04231259 0.07365007 0.09142081
v 0.05081527 0.06785794 0.07694004
v 0.04148215 0.07357400 0.09151457
v 0.04044597 0.07356844 0.09151741
v 0.04874291 0.07662405 0.09361977
v 0.03616283 0.07431796 0.09192936
v 0.04961824 0.06785794 0.07692583
v 0.04977535 0.06785794 0.07695140
v 0.03047692 0.07847746 0.08698595
v 0.03616283 0.07535505 0.09197197
v 0.03047692 0.07006199 0.06881751
v 0.03047692 0.07111949 0.06986301
v 0.03047692 0.07121597 0.06995960
v 0.03047692 0.07432353 0.07309327
v 0.03047692 0.07780029 0.07686049
v 0.03047692 0.07820845 0.07738040
v 0.03047692 0.07836985 0.07791735
v 0.03047692 0.07847560 0.07826964
v 0.04353581 0.08651259 0.08351988
v 0.04389492 0.08642169 0.08241756
v 0.04459818 0.08671853 0.08241756
v 0.04465429 0.08642911 0.08145729
v 0.04563062 0.08674636 0.08138058
v 0.04563062 0.08644766 0.08061918
v 0.04696980 0.08638087 0.07972425
v 0.06255368 0.07371500 0.06641967
v 0.06869222 0.07075215 0.06525200
v 0.04977535 0.08649775 0.07960777
v 0.05911595 0.08320281 0.07768155
v 0.05963591 0.08313602 0.07775257
v 0.04771046 0.08677975 0.08034360
v 0.04664436 0.08657196 0.08028394
v 0.04874291 0.08681129 0.08034360
v 0.04977535 0.08679459 0.08034360
v 0.06869222 0.08416012 0.08696606
v 0.06738296 0.08465362 0.08698595
v 0.05154097 0.08320837 0.09338681
v 0.05168312 0.08261469 0.09344079
v 0.05172427 0.08157760 0.09345499
v 0.05224049 0.08157760 0.09325896
v 0.05081527 0.07742924 0.09369080
v 0.04977909 0.07742924 0.09386694
v 0.05081527 0.07668899 0.09350329
v 0.04977909 0.07663890 0.09358568
v 0.04874291 0.07742924 0.09393513
v 0.04770672 0.07664632 0.09356864
v 0.04770672 0.07742924 0.09383001
v 0.03047692 0.07847746 0.07930946
v 0.03616283 0.07639215 0.09196345
v 0.03616283 0.07729937 0.09193788
v 0.03616283 0.07742924 0.09193220
v 0.03616283 0.07826596 0.09161400
v 0.03616283 0.07842737 0.09152593
v 0.03977264 0.08324734 0.09139524
v 0.04373781 0.08651259 0.08760814
v 0.04357322 0.08651631 0.08698595
v 0.04301211 0.08629368 0.08625580
v 0.04299340 0.08631594 0.08553134
v 0.04770672 0.07846633 0.09383285
v 0.04770672 0.08157760 0.09383285
v 0.04299714 0.08631594 0.08449436
v 0.04301211 0.08628996 0.08391195
v 0.04355825 0.08662020 0.08449436
v 0.04459818 0.08676491 0.08345454
v 0.06494401 0.07280593 0.06628330
v 0.06869222 0.07102302 0.06560713
v 0.05089383 0.08657753 0.08025269
v 0.05060205 0.08639386 0.07971005
v 0.06598019 0.08516011 0.08698595
v 0.06869222 0.07360554 0.06978346
v 0.06869222 0.07158702 0.06649922
v 0.05185145 0.08648848 0.08054247
v 0.04459444 0.08676862 0.08760814
v 0.04666680 0.08677790 0.08968210
v 0.05081527 0.08678903 0.08968210
v 0.05392756 0.08676305 0.08449436
v 0.05289138 0.08676862 0.08241756
v 0.05185145 0.08676120 0.08138058
v 0.04943868 0.08629553 0.09126739
v 0.05081527 0.08327145 0.09346068
v 0.04977909 0.08261469 0.09380444
v 0.05081527 0.08261469 0.09364819
v 0.05081527 0.08157760 0.09369080
v 0.04977909 0.07846633 0.09387547
v 0.04874291 0.07846633 0.09394649
v 0.04666680 0.08261469 0.09361125
v 0.04600843 0.08319910 0.09337260
v 0.04812569 0.08627512 0.09125603
v 0.04666680 0.08650888 0.09051736
v 0.04594484 0.08639386 0.09033838
v 0.04482636 0.08644952 0.08941504
v 0.04452710 0.08658124 0.08869341
v 0.04393981 0.08639942 0.08838090
v 0.04347596 0.08651816 0.08658820
v 0.04355825 0.08662020 0.08553134
v 0.04770672 0.08261469 0.09377035
v 0.04874291 0.08157760 0.09394649
v 0.05287641 0.08651816 0.08138626
v 0.05392756 0.08675378 0.08553134
v 0.05392756 0.08670554 0.08656832
v 0.05289138 0.08672224 0.08864512
v 0.05191879 0.08659794 0.08975880
v 0.05081527 0.08653300 0.09057134
v 0.04774787 0.08650703 0.09078726
v 0.04874291 0.08660721 0.09071907
v 0.04561191 0.08657753 0.08973039
v 0.04874291 0.08330485 0.09354591
v 0.04977909 0.08330114 0.09352318
v 0.04977909 0.08651816 0.09079862
v 0.04874291 0.08630295 0.09127308
v 0.04874291 0.08261469 0.09386126
v 0.04977909 0.08157760 0.09387547
v 0.04666680 0.08325847 0.09344363
v 0.04770672 0.08329743 0.09350897
f 5 13 6
f 5 11 12
f 12 13 5
f 10 11 5
f 10 23 11
f 5 1 4
f 103 134 135
f 64 106 103
f 31 72 73
f 72 117 73
f 2 1 5
f 5 6 2
f 11 23 25
f 25 26 11
f 23 26 25
f 36 37 38
f 38 37 16
f 16 8 18
f 17 8 16
f 3 4 1
f 135 134 133
f 133 103 110
f 134 103 133
f 31 64 70
f 64 103 70
f 110 103 111
f 67 110 111
f 31 73 74
f 57 98 67
f 64 100 99
f 61 99 100
f 105 100 64
f 23 10 22
f 22 45 23
f 11 26 27
f 102 106 64
f 64 63 102
f 102 63 62
f 67 111 68
f 68 27 67
f 62 27 68
f 23 50 51
f 51 52 23
f 43 17 44
f 7 14 15
f 15 37 36
f 36 38 42
f 42 38 16
f 112 111 103
f 112 68 111
f 65 57 67
f 67 27 65
f 65 27 26
f 23 57 58
f 71 70 103
f 103 113 71
f 31 70 71
f 71 72 31
f 67 98 107
f 107 108 67
f 107 98 97
f 109 103 135
f 135 133 109
f 109 133 110
f 109 110 67
f 67 108 109
f 43 91 92
f 99 61 60
f 64 99 60
f 104 105 64
f 19 20 10
f 10 20 21
f 21 22 10
f 45 22 21
f 49 50 23
f 23 48 49
f 47 48 23
f 101 102 62
f 62 68 101
f 106 102 101
f 101 112 106
f 68 112 101
f 81 44 40
f 40 17 16
f 40 44 17
f 37 15 35
f 35 15 14
f 14 34 35
f 33 14 32
f 33 34 14
f 119 81 79
f 81 40 79
f 16 18 41
f 41 42 16
f 132 103 106
f 106 112 132
f 132 112 103
f 59 26 23
f 23 58 59
f 56 57 23
f 23 52 53
f 53 54 23
f 43 87 88
f 88 85 121
f 93 81 119
f 93 44 81
f 129 107 97
f 97 92 129
f 129 92 91
f 103 109 136
f 123 138 108
f 124 88 123
f 137 136 109
f 137 113 103
f 103 136 137
f 139 109 108
f 108 138 139
f 139 137 109
f 43 92 82
f 82 92 52
f 95 92 97
f 52 92 95
f 13 12 30
f 61 28 24
f 24 60 61
f 24 12 11
f 24 28 12
f 11 27 24
f 24 27 62
f 62 63 24
f 24 63 64
f 64 60 24
f 69 64 31
f 69 104 64
f 9 10 5
f 9 19 10
f 23 45 46
f 46 47 23
f 43 44 83
f 34 33 75
f 39 40 16
f 16 37 39
f 66 58 57
f 66 59 58
f 57 65 66
f 66 65 26
f 26 59 66
f 54 53 55
f 57 56 55
f 98 57 55
f 23 54 55
f 55 56 23
f 97 98 55
f 55 53 97
f 86 88 87
f 85 88 86
f 86 87 43
f 43 85 86
f 124 123 140
f 140 123 108
f 43 88 89
f 121 147 122
f 138 123 122
f 122 88 121
f 122 123 88
f 122 139 138
f 44 93 94
f 94 83 44
f 113 137 143
f 143 139 113
f 137 139 143
f 96 53 52
f 52 95 96
f 97 53 96
f 96 95 97
f 12 28 29
f 29 30 12
f 13 30 29
f 29 28 61
f 84 85 43
f 43 83 84
f 83 94 84
f 76 75 118
f 76 118 119
f 119 79 76
f 34 75 76
f 80 79 40
f 40 39 80
f 80 39 79
f 128 129 91
f 107 129 128
f 125 88 124
f 124 140 125
f 72 71 116
f 71 115 116
f 116 117 72
f 116 146 117
f 116 115 146
f 114 71 113
f 114 115 71
f 144 141 113
f 113 139 144
f 139 122 144
f 148 122 147
f 141 144 148
f 148 144 122
f 121 85 120
f 85 84 120
f 120 84 94
f 78 39 37
f 79 39 78
f 78 76 79
f 90 128 91
f 90 91 43
f 43 89 90
f 90 89 107
f 107 128 90
f 127 89 88
f 113 141 142
f 142 114 113
f 115 114 142
f 130 147 121
f 121 120 130
f 130 120 94
f 34 76 77
f 76 78 77
f 77 78 37
f 37 35 77
f 77 35 34
f 89 127 126
f 107 89 126
f 88 125 126
f 126 127 88
f 126 125 140
f 108 107 126
f 126 140 108
f 145 148 147
f 147 130 145
f 141 148 145
f 115 142 145
f 145 142 141
f 131 130 94
f 131 145 130
f 146 115 131
f 115 145 131
f 74 14 31
f 32 14 74
f 32 74 33
f 33 74 73
f 41 3 7
f 41 8 5
f 5 4 41
f 41 15 36
f 41 18 8
f 4 3 41
f 7 15 41
f 36 42 41
f 5 8 46
f 46 9 5
f 46 17 43
f 46 51 50
f 45 21 46
f 8 17 46
f 43 82 46
f 50 49 46
f 52 51 46
f 20 19 46
f 46 21 20
f 46 49 48
f 48 47 46
f 46 82 52
f 19 9 46
f 146 118 75
f 117 146 75
f 75 33 73
f 75 73 117
f 1 2 29
f 31 14 29
f 29 69 31
f 29 6 13
f 29 2 6
f 29 3 1
f 29 14 7
f 7 3 29
f 29 61 100
f 100 105 29
f 105 104 29
f 104 69 29
f 131 94 93
f 131 93 119
f 131 118 146
f 119 118 131

