# https://github.com/mikedh/trimesh
v -0.02189928 0.03489462 0.09694411
v -0.02185983 0.03489462 0.09590967
v -0.02157375 0.03405422 0.09590967
v -0.02159348 0.03405422 0.09694411
v -0.02189928 0.03489462 0.09798225
v -0.02189928 0.11892416 0.09694411
v -0.02173159 0.03489462 0.09487152
v -0.02141591 0.03418746 0.09383338
v -0.02150469 0.03409522 0.09487152
v -0.02185983 0.11892416 0.09590967
v -0.02076484 0.03376726 0.09487152
v -0.02076484 0.03373651 0.09590967
v -0.02159348 0.03405422 0.09798225
v -0.02151456 0.03410547 0.09902039
v -0.02175131 0.03489462 0.09902039
v -0.02189928 0.11892416 0.09798225
v -0.02188942 0.11995929 0.09694411
v -0.02034065 0.03489462 0.08698831
v -0.02031106 0.03439243 0.08698831
v -0.02133700 0.03427969 0.09299695
v -0.02173159 0.11995929 0.09487152
v -0.02035052 0.03421820 0.08761008
v -0.02043930 0.03412596 0.08864637
v -0.02052809 0.03406447 0.08968452
v -0.02076484 0.03383900 0.09383338
v -0.02184996 0.11995929 0.09590967
v -0.01972904 0.03378775 0.08864637
v 0.00854332 0.02279084 0.10442021
v 0.00853345 0.02279084 0.10524554
v -0.02076484 0.03377751 0.09902039
v -0.02062673 0.03406447 0.10109482
v -0.02139618 0.03422845 0.09983277
v -0.02144551 0.03489462 0.09998081
v -0.02175131 0.11892416 0.09902039
v -0.02188942 0.11995929 0.09798225
v -0.02158362 0.12076894 0.09694411
v -0.02156389 0.12075870 0.09590967
v -0.02034065 0.11995929 0.08698831
v -0.02029133 0.03430019 0.08698831
v -0.02141591 0.12064596 0.09383338
v -0.02133700 0.12056397 0.09299695
v -0.02029133 0.12054347 0.08698831
v -0.01977837 0.03399273 0.08698831
v -0.01972904 0.03387999 0.08761008
v -0.02150469 0.12072795 0.09487152
v 0.03050224 0.01668259 0.10456640
v 0.00932263 0.02253462 0.10524554
v 0.00870115 0.02290358 0.10580255
v -0.01976850 0.03400298 0.10216443
v -0.02042944 0.03418746 0.10184058
v -0.02100160 0.03489462 0.10109482
v -0.02124821 0.03489462 0.10049896
v -0.02125808 0.03592974 0.10049896
v -0.02144551 0.11995929 0.09998081
v -0.02174145 0.11995929 0.09902039
v -0.02151456 0.12071770 0.09902039
v -0.02158362 0.12076894 0.09798225
v -0.02076484 0.12105591 0.09694411
v -0.02076484 0.12104566 0.09590967
v -0.02076484 0.12101491 0.09487152
v -0.02043930 0.12070745 0.08864637
v -0.02035052 0.12061521 0.08761008
v -0.02003485 0.12068695 0.08698831
v 0.07674816 0.02276009 0.08698831
v 0.03213978 0.01648785 0.10427032
v 0.03110399 0.01659035 0.10438690
v -0.01972904 0.12098416 0.08864637
v 0.03213978 0.01640586 0.10524554
v 0.03050224 0.01668259 0.10500497
v 0.03105466 0.01659035 0.10530846
v 0.03066994 0.01681582 0.10569707
v 0.03137033 0.01669283 0.10579885
v 0.00932263 0.02285233 0.10582475
v 0.00932263 0.02348776 0.10588767
v -0.01322818 0.03434119 0.10578589
v -0.01661178 0.03414646 0.10492725
v -0.01722340 0.03430019 0.10477921
v -0.01846636 0.03417721 0.10388726
v -0.01876230 0.03399273 0.10324328
v -0.01945283 0.03416696 0.10294534
v -0.01912729 0.03489462 0.10360968
v -0.01958107 0.03489462 0.10309154
v -0.02009404 0.03489462 0.10247346
v -0.02051822 0.03489462 0.10195532
v -0.02101146 0.03592974 0.10109482
v -0.02125808 0.11892416 0.10049896
v -0.02124821 0.11995929 0.10049896
v -0.02139618 0.12061521 0.09983277
v -0.02061687 0.12074844 0.10109482
v -0.02076484 0.12100466 0.09902039
v -0.02076484 0.12105591 0.09798225
v -0.01972904 0.12105591 0.09072266
v -0.01972904 0.12103541 0.08968452
v -0.01977837 0.12080994 0.08698831
v -0.01972904 0.12090218 0.08761008
v 0.07702437 0.02280109 0.08698831
v 0.04666069 0.01651860 0.10429808
v 0.04562489 0.01645711 0.10425551
v 0.03317558 0.01645711 0.10425551
v 0.03317558 0.01635462 0.10524554
v -0.01869324 0.12105591 0.08698831
v -0.01910756 0.12099442 0.08698831
v 0.03213978 0.01666208 0.10582105
v 0.03213978 0.01725651 0.10588397
v 0.03317558 0.01725651 0.10588952
v 0.01035843 0.02348776 0.10588952
v 0.00828683 0.02452288 0.10588952
v -0.01246859 0.03489462 0.10582846
v -0.01334655 0.03489462 0.10579515
v -0.01385952 0.03489462 0.10574703
v -0.01454019 0.03489462 0.10563230
v -0.01557598 0.03489462 0.10545280
v -0.01661178 0.03489462 0.10512711
v -0.01727272 0.03489462 0.10480512
v -0.01778569 0.03489462 0.10450533
v -0.01860446 0.03489462 0.10398719
v -0.01912729 0.11995929 0.10360968
v -0.01958107 0.11995929 0.10309154
v -0.02009404 0.11995929 0.10247346
v -0.02051822 0.11995929 0.10195532
v -0.02101146 0.11892416 0.10109482
v -0.02100160 0.11995929 0.10109482
v -0.02042944 0.12064596 0.10184058
v -0.01976850 0.12080994 0.10216443
v -0.01972904 0.12103541 0.10109482
v -0.01972904 0.12105591 0.10005668
v 0.07741896 0.02285233 0.08761008
v 0.04666069 0.01644686 0.10524554
v 0.04744987 0.01663133 0.10447017
v 0.07738937 0.02287283 0.08698831
v 0.04562489 0.01635462 0.10524554
v 0.03317558 0.01664159 0.10582660
v 0.01761888 0.12105591 0.08698831
v 0.04562489 0.01725651 0.10588952
v 0.06845191 0.08986894 0.10589322
v -0.00312668 0.03489462 0.10588952
v -0.01246859 0.11995929 0.10582846
v -0.01385952 0.03592974 0.10574888
v -0.01334655 0.11995929 0.10579515
v -0.01454019 0.03592974 0.10564340
v -0.01557598 0.03592974 0.10546020
v -0.01661178 0.11892416 0.10512711
v -0.01727272 0.11995929 0.10480512
v -0.01778569 0.11995929 0.10450533
v -0.01860446 0.11995929 0.10398719
v -0.01846636 0.12066645 0.10388726
v -0.01945283 0.12066645 0.10294534
v -0.01876230 0.12082019 0.10324328
v -0.01869324 0.12104566 0.10213297
v -0.01765745 0.12105591 0.10213297
v 0.07842517 0.02287283 0.09279709
v 0.04744000 0.01664159 0.10524554
v 0.04725257 0.01671333 0.10578404
v 0.07846462 0.02285233 0.09383338
v 0.07844490 0.02286258 0.09487152
v 0.07838571 0.02289333 0.09590967
v 0.07833639 0.02293432 0.09649443
v 0.07740910 0.02289333 0.09777314
v 0.07762612 0.02348776 0.08698831
v 0.07831665 0.02295482 0.09114828
v 0.07836598 0.02291382 0.09175895
v 0.04666069 0.01667233 0.10580995
v 0.04562489 0.01664159 0.10582660
v 0.01865468 0.12105591 0.08968452
v 0.06741611 0.12086118 0.10524554
v 0.06845191 0.12084068 0.10524554
v 0.06848151 0.12070745 0.10412228
v 0.01865468 0.12100466 0.08698831
v 0.04666069 0.01725651 0.10587287
v 0.06845191 0.02452288 0.10588952
v 0.06845191 0.05564835 0.10589137
v 0.06940879 0.08364795 0.10583031
v 0.06940879 0.08779870 0.10583031
v 0.06845191 0.11995929 0.10588212
v 0.06741611 0.11995929 0.10588952
v -0.00312668 0.11995929 0.10588952
v 0.06940879 0.04941711 0.10582846
v -0.01246859 0.12053322 0.10579515
v -0.01322818 0.12051272 0.10578589
v -0.01385952 0.11892416 0.10574888
v -0.01385952 0.11995929 0.10574518
v -0.01454019 0.11892416 0.10564340
v -0.01557598 0.11892416 0.10546020
v -0.01661178 0.11995929 0.10511971
v -0.01722340 0.12054347 0.10477921
v -0.01661178 0.12067671 0.10491985
v -0.01760812 0.12074844 0.10422220
v -0.01661178 0.12096367 0.10420740
v -0.01765745 0.12104566 0.10316926
v -0.01557598 0.12105591 0.10420740
v 0.07874084 0.02348776 0.09383338
v 0.07628451 0.02292407 0.09960701
v 0.07528818 0.02290358 0.10069326
v 0.07429184 0.02289333 0.10177767
v 0.07328564 0.02289333 0.10279915
v 0.07221038 0.02290358 0.10378363
v 0.07108579 0.02294457 0.10475700
v 0.06898461 0.02296507 0.10576554
v 0.07870138 0.02348776 0.09487152
v 0.07855341 0.02348776 0.09590967
v 0.07838571 0.02348776 0.09659621
v 0.07723153 0.02304706 0.09846524
v 0.07835611 0.02348776 0.09092807
v 0.07772477 0.02452288 0.08698831
v 0.07849422 0.02348776 0.09175895
v 0.07864219 0.02348776 0.09279709
v 0.02177194 0.12105591 0.10005668
v -0.00312668 0.12086118 0.10524554
v 0.06741611 0.12057421 0.10582660
v 0.06845191 0.12057421 0.10582290
v 0.02177194 0.12105591 0.10420740
v 0.06901420 0.12053322 0.10580070
v 0.06912271 0.12064596 0.10524554
v 0.06909312 0.12062546 0.10420740
v 0.07259510 0.11788904 0.09072266
v 0.07259510 0.11760208 0.09000096
v 0.07259510 0.11685392 0.08979925
v 0.02902253 0.11768407 0.08698831
v 0.06845191 0.02348776 0.10583031
v 0.06920163 0.02348776 0.10579700
v 0.06940879 0.02452288 0.10582660
v 0.06992175 0.02452288 0.10574888
v 0.06992175 0.07119571 0.10575073
v 0.06992175 0.08468307 0.10575073
v 0.06904379 0.11995929 0.10581920
v -0.00312668 0.12057421 0.10582660
v -0.01246859 0.12082019 0.10524554
v -0.01557598 0.11995929 0.10543799
v -0.01354385 0.12072795 0.10533807
v -0.01557598 0.12076894 0.10506974
v 0.07886908 0.02452288 0.09383338
v 0.07636343 0.02348776 0.09969583
v 0.07539669 0.02348776 0.10081540
v 0.07442008 0.02348776 0.10193311
v 0.07396630 0.02348776 0.10245126
v 0.07344347 0.02348776 0.10295090
v 0.07286145 0.02348776 0.10346904
v 0.07234848 0.02348776 0.10388541
v 0.07115485 0.02348776 0.10481252
v 0.07052351 0.02348776 0.10523444
v 0.06971460 0.02348776 0.10566746
v 0.07881976 0.02452288 0.09487152
v 0.07863233 0.02452288 0.09590967
v 0.07842517 0.02452288 0.09666468
v 0.07814895 0.02452288 0.09718468
v 0.07730058 0.02373372 0.09854851
v 0.07693559 0.02342626 0.09894452
v 0.07802071 0.02452288 0.08864637
v 0.07839557 0.02452288 0.09075597
v 0.07857314 0.02452288 0.09175895
v 0.07875070 0.02452288 0.09279709
v 0.07772477 0.07534646 0.08698831
v 0.07730058 0.08317651 0.09854666
v 0.07838571 0.08223362 0.09658511
v 0.06927068 0.11995929 0.10524554
v 0.07354212 0.11685392 0.09175895
v 0.07319685 0.11747909 0.09251211
v 0.07337442 0.11762257 0.09072266
v 0.07332510 0.11759183 0.09175895
v 0.07325604 0.11750984 0.09008423
v 0.07419319 0.08200815 0.08698831
v 0.02956509 0.11739710 0.08698831
v 0.07332510 0.11685392 0.09002501
v 0.07751761 0.07733472 0.08698831
v 0.07052351 0.02452288 0.10535842
v 0.07052351 0.05668347 0.10539543
v 0.07052351 0.06290447 0.10540099
v 0.07052351 0.07016059 0.10540469
v 0.07052351 0.07742696 0.10540839
v 0.07052351 0.08157770 0.10541024
v 0.07052351 0.08364795 0.10541024
v 0.06992175 0.08572845 0.10574518
v 0.06992175 0.08779870 0.10572298
v 0.07129296 0.08364795 0.10490504
v 0.07181578 0.08364795 0.10452384
v 0.07245700 0.08364795 0.10400569
v 0.07298969 0.08261283 0.10357452
v 0.07353225 0.08261283 0.10305638
v 0.07405509 0.08261283 0.10255118
v 0.07454832 0.08261283 0.10203119
v 0.07507115 0.08261283 0.10146123
v 0.07548547 0.08261283 0.10094123
v 0.07599844 0.08261283 0.10028245
v 0.07640289 0.08261283 0.09976245
v 0.07692573 0.08261283 0.09908886
v -0.01454019 0.12076894 0.10516412
v 0.07887895 0.04526636 0.09383338
v 0.07640289 0.02452288 0.09974950
v 0.07596885 0.02452288 0.10026764
v 0.07501196 0.02452288 0.10139646
v 0.07404522 0.02452288 0.10252343
v 0.07352239 0.02452288 0.10302862
v 0.07293050 0.02452288 0.10354676
v 0.07241754 0.02452288 0.10394092
v 0.07121404 0.02452288 0.10485323
v 0.07881976 0.08053233 0.09487152
v 0.07863233 0.08053233 0.09590967
v 0.07842517 0.08157770 0.09666468
v 0.07768531 0.02452288 0.09798225
v 0.07814895 0.08157770 0.09718468
v 0.07732032 0.02452288 0.09857071
v 0.07692573 0.02452288 0.09909071
v 0.07802071 0.07638158 0.08864637
v 0.07839557 0.07846208 0.09075597
v 0.07857314 0.07846208 0.09175895
v 0.07875070 0.07949720 0.09279709
v 0.07771491 0.07638158 0.08698831
v 0.07783328 0.07638158 0.08761008
v 0.07732032 0.08261283 0.09857071
v 0.07858300 0.08157770 0.09590967
v 0.07363090 0.11685392 0.09072266
v 0.07126336 0.05979910 0.10489394
v 0.07127323 0.06602009 0.10489764
v 0.07129296 0.07742696 0.10490320
v 0.07129296 0.08053233 0.10490504
v 0.07181578 0.08261283 0.10452569
v 0.07246686 0.08261283 0.10400754
v 0.07298969 0.08053233 0.10357452
v 0.07354212 0.07846208 0.10305452
v 0.07454832 0.08157770 0.10203304
v 0.07406495 0.06602009 0.10255303
v 0.07454832 0.07846208 0.10203304
v 0.07406495 0.04526636 0.10255118
v 0.07406495 0.04319611 0.10254933
v 0.07507115 0.08157770 0.10145938
v 0.07692573 0.05771860 0.09909071
v 0.07887895 0.07949720 0.09383338
v 0.07406495 0.04008049 0.10254193
v 0.07294037 0.02970875 0.10355046
v 0.07353225 0.03074388 0.10303232
v 0.07181578 0.07949720 0.10452199
v 0.07880989 0.08053233 0.09383338
v 0.07768531 0.08157770 0.09798225
v 0.07829693 0.07846208 0.09023782
v 0.07836598 0.07931273 0.09091696
v 0.07181578 0.08053233 0.10452384
v 0.07181578 0.08157770 0.10452569
v 0.07128309 0.07119571 0.10489949
v 0.07355198 0.04526636 0.10303972
v 0.07406495 0.05771860 0.10255303
v 0.07355198 0.04423124 0.10303787
f 107 108 74
f 46 47 28
f 46 28 43
f 222 177 221
f 221 177 170
f 43 22 39
f 37 45 26
f 37 60 45
f 26 45 40
f 40 62 41
f 45 61 40
f 61 62 40
f 164 165 133
f 64 65 43
f 163 131 162
f 171 177 135
f 170 177 171
f 65 100 68
f 68 100 103
f 70 47 69
f 47 46 69
f 69 68 70
f 46 68 69
f 172 177 222
f 135 177 172
f 172 173 135
f 220 221 170
f 170 219 220
f 220 219 198
f 222 221 220
f 153 198 162
f 162 131 153
f 19 7 18
f 60 37 59
f 59 36 58
f 59 37 36
f 26 40 21
f 21 40 41
f 21 10 26
f 216 215 260
f 99 64 98
f 65 64 99
f 99 100 65
f 97 131 98
f 98 64 97
f 207 165 164
f 207 211 165
f 135 175 176
f 260 215 258
f 103 100 132
f 74 48 73
f 70 68 72
f 72 68 103
f 103 73 72
f 72 73 48
f 74 108 75
f 108 109 75
f 75 48 74
f 75 76 48
f 65 68 66
f 66 68 46
f 43 65 66
f 66 46 43
f 306 334 335
f 198 153 197
f 202 192 157
f 158 192 152
f 157 192 158
f 155 154 191
f 199 200 157
f 199 155 191
f 185 146 145
f 3 2 9
f 3 4 1
f 1 2 3
f 20 39 22
f 20 19 39
f 7 19 20
f 47 48 29
f 28 47 29
f 30 13 29
f 49 29 48
f 215 216 168
f 168 167 215
f 133 167 168
f 217 264 261
f 261 262 217
f 217 216 260
f 217 262 218
f 218 168 217
f 217 168 216
f 41 62 42
f 38 21 42
f 42 21 41
f 166 133 165
f 166 167 133
f 165 210 166
f 215 167 214
f 214 258 215
f 213 258 214
f 214 166 213
f 167 166 214
f 159 160 130
f 130 160 161
f 191 161 206
f 206 161 160
f 203 159 204
f 160 159 203
f 125 89 124
f 174 175 135
f 174 210 175
f 135 173 174
f 108 107 136
f 136 107 135
f 135 176 136
f 175 210 209
f 209 210 165
f 332 327 306
f 296 327 332
f 142 183 184
f 170 171 134
f 134 171 135
f 135 105 134
f 132 105 104
f 103 132 104
f 104 105 74
f 74 73 104
f 104 73 103
f 135 107 106
f 106 105 135
f 106 107 74
f 74 105 106
f 70 72 71
f 71 72 48
f 71 47 70
f 71 48 47
f 78 48 77
f 48 76 77
f 76 75 112
f 112 77 76
f 112 140 141
f 223 172 222
f 272 271 273
f 272 224 271
f 265 266 222
f 314 266 265
f 312 265 295
f 307 308 252
f 198 197 241
f 222 220 241
f 241 220 198
f 331 294 329
f 295 294 331
f 331 312 295
f 239 294 295
f 295 265 239
f 156 199 157
f 155 199 156
f 291 233 232
f 192 202 232
f 232 233 192
f 328 292 291
f 324 292 328
f 200 199 242
f 242 243 200
f 117 145 146
f 146 147 117
f 44 22 43
f 43 28 44
f 23 24 9
f 22 44 23
f 23 44 24
f 8 20 22
f 22 23 8
f 8 23 9
f 9 2 8
f 8 2 7
f 7 20 8
f 80 49 48
f 78 81 80
f 30 29 31
f 263 217 260
f 264 217 263
f 263 307 264
f 67 95 61
f 67 61 45
f 45 60 67
f 61 95 94
f 213 166 212
f 212 166 210
f 210 174 212
f 253 254 212
f 251 203 250
f 251 206 205
f 205 203 251
f 205 206 160
f 160 203 205
f 154 155 128
f 155 156 128
f 128 156 157
f 128 153 131
f 152 153 128
f 131 97 128
f 97 129 128
f 128 158 152
f 157 158 128
f 188 230 190
f 90 57 56
f 56 89 90
f 89 125 90
f 179 230 186
f 230 188 186
f 186 146 185
f 229 230 179
f 259 258 213
f 311 332 306
f 260 258 311
f 306 335 311
f 258 259 311
f 311 259 256
f 296 332 311
f 311 263 260
f 307 263 311
f 311 335 334
f 334 307 311
f 256 254 310
f 296 311 310
f 310 311 256
f 319 321 279
f 279 278 319
f 288 302 282
f 282 281 288
f 201 202 157
f 244 245 201
f 157 200 201
f 200 243 201
f 201 243 244
f 318 339 319
f 329 339 318
f 318 317 329
f 169 219 170
f 170 134 169
f 162 198 169
f 198 219 169
f 169 134 163
f 169 163 162
f 116 81 78
f 78 77 116
f 113 112 141
f 77 112 113
f 110 75 109
f 110 109 138
f 138 140 110
f 270 223 222
f 267 266 314
f 314 315 267
f 222 266 267
f 330 339 329
f 329 292 330
f 330 292 324
f 329 294 293
f 293 292 329
f 294 239 293
f 329 317 337
f 337 317 316
f 337 315 314
f 240 265 222
f 240 239 265
f 197 239 240
f 222 241 240
f 240 241 197
f 247 232 202
f 291 232 290
f 290 328 291
f 324 328 290
f 291 292 235
f 196 197 153
f 153 195 196
f 231 199 191
f 231 242 199
f 191 206 231
f 231 206 251
f 231 251 287
f 287 242 231
f 124 89 123
f 123 147 124
f 118 117 123
f 123 117 147
f 10 6 17
f 26 10 17
f 17 37 26
f 36 37 17
f 24 44 27
f 27 44 28
f 79 48 78
f 78 80 79
f 79 80 48
f 29 49 50
f 50 31 29
f 49 80 50
f 50 83 84
f 82 83 50
f 81 82 50
f 50 80 81
f 14 13 30
f 30 31 14
f 5 13 14
f 14 15 5
f 101 67 93
f 60 59 93
f 93 67 60
f 102 94 95
f 102 67 101
f 95 67 102
f 63 42 62
f 63 62 61
f 61 94 63
f 276 317 277
f 317 318 277
f 319 278 277
f 277 318 319
f 316 317 275
f 275 317 276
f 275 274 316
f 225 285 253
f 253 212 225
f 281 282 225
f 278 279 225
f 225 277 278
f 276 277 225
f 225 275 276
f 274 275 225
f 271 274 225
f 273 271 225
f 225 272 273
f 224 272 225
f 173 224 225
f 225 174 173
f 225 212 174
f 255 254 256
f 256 212 255
f 255 212 254
f 154 128 151
f 130 161 151
f 191 154 151
f 151 161 191
f 96 128 129
f 96 97 64
f 96 129 97
f 125 126 91
f 91 90 125
f 57 90 91
f 189 188 190
f 146 186 187
f 187 186 188
f 190 230 227
f 227 208 190
f 227 229 179
f 226 208 227
f 257 259 213
f 256 259 257
f 213 212 257
f 257 212 256
f 296 310 297
f 340 321 319
f 324 281 323
f 281 322 323
f 322 340 323
f 339 324 323
f 319 339 323
f 323 340 319
f 320 279 321
f 320 322 281
f 326 285 284
f 285 225 284
f 298 254 253
f 253 300 298
f 298 310 254
f 298 297 310
f 309 300 253
f 253 285 309
f 309 285 326
f 202 201 246
f 246 299 301
f 245 299 246
f 246 201 245
f 246 247 202
f 301 302 246
f 232 247 246
f 246 302 288
f 288 232 246
f 179 181 139
f 139 181 180
f 139 137 179
f 182 181 183
f 180 181 182
f 228 184 183
f 183 181 228
f 228 181 179
f 179 186 228
f 185 184 228
f 228 186 185
f 142 184 143
f 143 184 185
f 111 112 75
f 75 110 111
f 140 112 111
f 111 110 140
f 315 270 269
f 269 270 222
f 341 324 339
f 339 330 341
f 341 330 324
f 197 196 237
f 292 293 237
f 336 331 329
f 329 337 336
f 312 331 336
f 336 337 312
f 312 337 313
f 314 265 313
f 265 312 313
f 289 232 288
f 289 290 232
f 325 281 324
f 324 290 325
f 290 289 325
f 288 281 325
f 325 289 288
f 194 235 195
f 194 195 153
f 234 233 291
f 291 235 234
f 192 233 234
f 234 235 192
f 122 123 88
f 56 55 88
f 88 89 56
f 88 123 89
f 120 123 122
f 56 57 35
f 35 55 56
f 11 3 9
f 11 27 28
f 51 50 84
f 84 85 51
f 31 50 32
f 32 14 31
f 50 51 32
f 33 15 32
f 15 14 32
f 101 93 92
f 92 59 58
f 92 93 59
f 252 308 304
f 304 303 252
f 304 307 334
f 308 307 304
f 306 305 304
f 304 334 306
f 248 203 204
f 127 96 130
f 130 151 127
f 127 151 128
f 128 96 127
f 150 189 190
f 149 126 125
f 149 150 126
f 189 150 149
f 176 226 178
f 178 137 176
f 179 137 178
f 178 227 179
f 226 227 178
f 230 229 286
f 286 227 230
f 229 227 286
f 280 320 281
f 279 320 280
f 281 225 280
f 280 225 279
f 326 284 283
f 283 302 326
f 283 282 302
f 283 225 282
f 283 284 225
f 300 309 333
f 185 145 144
f 144 143 185
f 77 113 114
f 268 267 315
f 315 269 268
f 222 267 268
f 268 269 222
f 238 293 239
f 238 237 293
f 238 239 197
f 197 237 238
f 236 235 292
f 292 237 236
f 195 235 236
f 236 196 195
f 236 237 196
f 338 337 314
f 314 313 338
f 338 313 337
f 193 194 153
f 193 153 152
f 152 192 193
f 192 235 193
f 235 194 193
f 54 88 55
f 118 123 119
f 123 120 119
f 121 120 122
f 25 11 9
f 27 11 25
f 9 24 25
f 24 27 25
f 12 11 28
f 3 11 12
f 4 3 12
f 28 29 12
f 12 13 4
f 12 29 13
f 33 32 52
f 52 32 51
f 52 53 33
f 249 250 203
f 203 248 249
f 189 149 148
f 148 125 124
f 148 149 125
f 124 147 148
f 148 147 146
f 188 189 148
f 146 187 148
f 148 187 188
f 115 116 77
f 77 114 115
f 87 54 86
f 122 88 87
f 88 54 87
f 34 54 55
f 38 18 21
f 18 7 21
f 7 2 21
f 21 2 10
f 306 327 251
f 251 327 287
f 131 100 99
f 98 131 99
f 132 100 131
f 131 163 132
f 1 4 13
f 13 5 1
f 176 137 136
f 136 137 108
f 134 132 163
f 134 105 132
f 223 224 173
f 173 172 223
f 287 327 242
f 242 327 296
f 10 2 6
f 6 2 1
f 1 5 6
f 5 16 6
f 81 117 82
f 82 117 118
f 306 251 250
f 250 305 306
f 116 117 81
f 145 117 116
f 113 141 183
f 113 183 142
f 270 315 274
f 270 274 271
f 224 223 270
f 271 224 270
f 274 315 337
f 316 274 337
f 252 204 96
f 96 18 38
f 96 19 18
f 43 39 96
f 96 159 130
f 96 64 43
f 96 168 218
f 218 262 96
f 38 42 96
f 42 63 96
f 39 19 96
f 261 264 96
f 96 101 133
f 96 262 261
f 133 168 96
f 96 307 252
f 204 159 96
f 264 307 96
f 96 102 101
f 94 102 96
f 96 63 94
f 58 36 91
f 36 57 91
f 175 209 226
f 226 176 175
f 211 190 208
f 165 211 208
f 208 226 209
f 208 209 165
f 297 242 296
f 243 242 297
f 320 340 322
f 321 340 320
f 298 300 245
f 298 245 244
f 243 297 298
f 244 243 298
f 326 302 309
f 309 302 301
f 139 180 138
f 138 109 139
f 108 137 139
f 139 109 108
f 183 141 182
f 141 140 182
f 138 180 182
f 182 140 138
f 35 6 16
f 35 17 6
f 35 57 36
f 36 17 35
f 248 204 252
f 252 303 248
f 164 133 150
f 150 207 164
f 133 101 150
f 58 91 150
f 211 207 150
f 150 190 211
f 150 92 58
f 150 91 126
f 101 92 150
f 245 300 333
f 333 299 245
f 333 309 301
f 301 299 333
f 114 113 142
f 142 143 114
f 119 82 118
f 119 83 82
f 84 83 119
f 119 120 84
f 84 120 121
f 121 85 84
f 86 54 53
f 53 54 33
f 85 121 53
f 53 121 86
f 85 53 52
f 52 51 85
f 305 250 249
f 249 304 305
f 249 248 303
f 303 304 249
f 145 116 115
f 115 144 145
f 115 114 143
f 143 144 115
f 86 121 87
f 87 121 122
f 33 54 34
f 34 15 33
f 34 35 16
f 55 35 34
f 34 16 5
f 5 15 34

