# https://github.com/mikedh/trimesh
v -0.01557809 0.11565811 0.06423208
v -0.01613477 0.11565811 0.06423974
v -0.01557809 0.11996589 0.06423208
v -0.01504128 0.11565811 0.06426654
v 0.00430355 0.11230152 0.06767737
v -0.01630874 0.11565811 0.06470294
v -0.01613477 0.11996589 0.06423974
v -0.01611986 0.12051433 0.06424740
v -0.01557809 0.12050833 0.06425505
v -0.01505122 0.12048776 0.06426654
v -0.01504128 0.11996589 0.06426654
v -0.01437028 0.11565811 0.06438138
v 0.00430355 0.11230152 0.06955696
v -0.02033974 0.11565811 0.08698625
v -0.01861998 0.11565811 0.07723228
v -0.01679087 0.11565811 0.06686198
v -0.01660696 0.11565811 0.06582457
v -0.01633856 0.11565811 0.06478716
v 0.02176460 0.11230152 0.07075515
v -0.01633856 0.11996589 0.06478716
v -0.01557809 0.12103191 0.06582457
v -0.01557809 0.12077055 0.06478716
v -0.01660199 0.11996589 0.06582457
v -0.01621927 0.12062659 0.06478716
v -0.01463868 0.12071399 0.06473357
v -0.01246661 0.12075855 0.06502067
v -0.01143276 0.12071399 0.06510106
v -0.01038898 0.12063001 0.06519676
v -0.00962851 0.12054775 0.06526567
v 0.01412011 0.12052204 0.06943063
v 0.02022875 0.12049033 0.07049101
v 0.02023869 0.11996589 0.07048718
v 0.01242521 0.11996589 0.06910907
v -0.01038898 0.11996589 0.06508575
v 0.02176460 0.11892901 0.07075515
v 0.01831017 0.11230152 0.08698625
v -0.02033974 0.11996589 0.08698625
v -0.00935513 0.11609258 0.10333985
v -0.01191489 0.11697864 0.10333985
v -0.01861998 0.11996589 0.07723228
v -0.01719347 0.11996589 0.06914352
v -0.01679087 0.11892815 0.06686198
v -0.01660696 0.11892815 0.06582457
v 0.02280342 0.11230152 0.07094273
v -0.01634850 0.12074656 0.06582457
v -0.01661690 0.12099249 0.07101546
v -0.01765572 0.12101478 0.07723228
v -0.01868956 0.12103191 0.08345675
v -0.01765572 0.12104991 0.07827352
v -0.01557809 0.12105591 0.06686198
v -0.01453927 0.12105591 0.06582457
v -0.01350542 0.12105591 0.06582457
v -0.01246661 0.12104477 0.06582457
v -0.01350542 0.12076969 0.06494794
v -0.01717359 0.12054004 0.06924688
v -0.01143276 0.12100021 0.06582457
v -0.00624366 0.12074998 0.06608105
v 0.01242521 0.12069257 0.06928516
v 0.01865313 0.12066429 0.07034937
v -0.00520484 0.12069171 0.06617293
v -0.00001573 0.12073627 0.06714909
v 0.01761431 0.12073627 0.07025750
v 0.00101811 0.12066258 0.06723714
v 0.00724107 0.12063259 0.06830517
v 0.01346402 0.12059573 0.06937321
v 0.01968697 0.12055632 0.07044125
v 0.02383727 0.12071057 0.07132936
v 0.02446354 0.12060773 0.07143272
v 0.02383727 0.11996589 0.07113413
v 0.02280342 0.11892901 0.07094273
v 0.02495561 0.11230152 0.08698625
v 0.01768887 0.11598460 0.10333985
v -0.00831632 0.11601888 0.10333985
v -0.00852507 0.11603002 0.10333985
v -0.01191489 0.12105591 0.10333985
v -0.02029500 0.12055032 0.08698625
v -0.02028507 0.12053832 0.08688289
v -0.01922637 0.12051004 0.08077709
v 0.02383727 0.11230152 0.07113413
v -0.01723820 0.12062059 0.06997805
v -0.01732767 0.12070799 0.07101546
v -0.01839631 0.12073027 0.07723228
v -0.01945998 0.12074656 0.08345675
v -0.01868956 0.12096679 0.08242317
v -0.01977808 0.12081082 0.08698625
v -0.01868956 0.12105591 0.08449416
v -0.00728247 0.12105591 0.06686198
v -0.00105455 0.12105248 0.06789939
v 0.02280342 0.12104477 0.07204904
v 0.01139136 0.12103620 0.06997422
v -0.00624366 0.12103448 0.06686198
v -0.01823229 0.12056574 0.07535651
v -0.00001573 0.12102077 0.06789939
v 0.00619728 0.12100192 0.06893681
v 0.01139136 0.12074998 0.06919329
v 0.01761431 0.12102249 0.07101163
v 0.02280342 0.12076027 0.07124514
v 0.01242521 0.12097792 0.06997422
v 0.02383727 0.12094279 0.07204904
v 0.02450330 0.12066772 0.07204904
v 0.02996081 0.11762819 0.07826969
v 0.02976697 0.11751851 0.07763423
v 0.02987631 0.11685181 0.07757681
v 0.02451324 0.11996589 0.07138296
v 0.02527372 0.11230152 0.07930710
v 0.02902637 0.11283882 0.08034451
v 0.02847466 0.11292451 0.08698625
v 0.03027892 0.11598460 0.10333985
v -0.01868956 0.12105591 0.08698625
v -0.01910708 0.12099421 0.08698625
v -0.02003157 0.12069257 0.08698625
v 0.02176460 0.12105591 0.10333985
v -0.01937051 0.12068229 0.08242317
v -0.01928104 0.12058202 0.08138193
v 0.02451324 0.11230152 0.07138296
v -0.01830187 0.12065401 0.07619486
v 0.01035254 0.12105591 0.06997422
v 0.01658047 0.12105248 0.07101163
v 0.02280342 0.12105591 0.07308646
v 0.02176460 0.12105591 0.07204904
v 0.02280342 0.12105591 0.07516128
v 0.02280342 0.12105419 0.07619869
v 0.02279845 0.12092137 0.10333985
v 0.03027892 0.11861280 0.10333985
v 0.03041809 0.11685181 0.07930710
v 0.03037833 0.11685181 0.07826969
v 0.03038330 0.11581836 0.07826969
v 0.02987631 0.11477976 0.07757681
v 0.02902637 0.11283882 0.07930710
v 0.02465241 0.11230152 0.07204904
v 0.02992602 0.11302991 0.07930710
v 0.02905123 0.11303591 0.08698625
v 0.03036838 0.11374202 0.07930710
v 0.03043797 0.11477976 0.07930710
v 0.02985643 0.11374202 0.07758829
v 0.02973714 0.11312075 0.07765337
v 0.02992105 0.11304962 0.07826969
v 0.02902637 0.11287567 0.07826969
v 0.03043797 0.11581836 0.07930710
v 0.03038330 0.11477976 0.07826969
v 0.03033856 0.11374202 0.07826969
f 14 5 13
f 13 36 14
f 14 36 38
f 124 125 101
f 5 2 1
f 1 4 5
f 134 108 133
f 108 131 133
f 132 131 108
f 14 38 39
f 16 17 5
f 5 17 18
f 75 76 37
f 125 124 139
f 101 125 126
f 126 102 101
f 125 139 126
f 89 120 119
f 89 53 88
f 9 3 8
f 8 3 7
f 71 105 106
f 131 132 106
f 141 140 134
f 134 133 141
f 107 108 71
f 107 132 108
f 71 106 107
f 107 106 132
f 3 9 10
f 10 9 26
f 72 73 36
f 74 38 36
f 36 73 74
f 41 16 15
f 15 5 14
f 15 16 5
f 6 2 5
f 5 18 6
f 6 7 2
f 41 23 43
f 41 15 40
f 115 136 137
f 136 141 137
f 137 133 131
f 137 141 133
f 29 10 28
f 118 120 89
f 89 88 118
f 20 43 23
f 20 6 18
f 7 6 20
f 20 23 8
f 8 7 20
f 129 106 105
f 131 106 129
f 129 137 131
f 135 136 115
f 135 141 136
f 140 141 135
f 12 19 5
f 5 4 12
f 35 19 12
f 89 119 99
f 99 123 124
f 112 123 99
f 99 122 112
f 101 102 68
f 42 16 41
f 41 43 42
f 8 23 24
f 21 24 45
f 50 51 21
f 8 24 21
f 114 92 76
f 41 40 78
f 78 40 37
f 45 24 55
f 55 24 23
f 55 23 41
f 41 78 55
f 76 92 55
f 112 122 121
f 121 99 119
f 122 99 121
f 90 53 89
f 96 90 89
f 56 26 53
f 22 52 53
f 22 9 8
f 51 52 22
f 8 21 22
f 22 21 51
f 87 88 53
f 53 52 87
f 27 10 26
f 27 28 10
f 27 60 28
f 130 129 105
f 115 137 138
f 137 129 138
f 138 130 115
f 129 130 138
f 128 135 115
f 140 135 128
f 35 12 34
f 69 68 104
f 100 124 101
f 101 68 100
f 100 99 124
f 100 68 99
f 109 86 110
f 75 109 110
f 49 86 50
f 50 21 49
f 48 86 49
f 49 21 48
f 82 45 81
f 82 83 45
f 84 83 48
f 80 55 92
f 92 114 80
f 81 45 80
f 45 55 80
f 76 55 77
f 77 55 78
f 77 37 76
f 77 78 37
f 94 96 98
f 57 56 94
f 26 56 57
f 61 27 57
f 57 27 26
f 90 96 93
f 93 96 94
f 94 56 93
f 53 26 54
f 54 22 53
f 120 118 117
f 117 118 88
f 88 87 117
f 104 68 103
f 102 126 103
f 103 68 102
f 35 34 33
f 33 34 10
f 10 34 11
f 11 34 12
f 11 12 4
f 3 10 11
f 35 69 70
f 97 96 89
f 62 27 61
f 62 58 27
f 61 57 62
f 62 98 96
f 96 97 62
f 75 110 85
f 48 83 85
f 85 86 48
f 85 110 86
f 48 21 47
f 47 84 48
f 45 83 47
f 83 84 47
f 113 114 76
f 113 82 81
f 76 83 113
f 83 82 113
f 53 90 91
f 90 93 91
f 91 56 53
f 91 93 56
f 9 22 25
f 22 54 25
f 26 9 25
f 25 54 26
f 127 103 126
f 127 126 139
f 68 69 31
f 30 10 29
f 30 31 10
f 66 31 30
f 29 28 64
f 64 30 29
f 58 62 59
f 60 27 59
f 27 58 59
f 95 57 94
f 95 62 57
f 94 98 95
f 98 62 95
f 111 76 75
f 75 85 111
f 111 83 76
f 111 85 83
f 46 21 45
f 45 47 46
f 46 47 21
f 116 80 114
f 114 113 116
f 81 80 116
f 116 113 81
f 32 33 10
f 10 31 32
f 35 33 32
f 32 69 35
f 32 31 69
f 68 31 67
f 67 31 66
f 99 68 67
f 66 59 67
f 89 99 67
f 67 97 89
f 67 62 97
f 67 59 62
f 65 59 66
f 64 59 65
f 66 30 65
f 30 64 65
f 60 59 63
f 63 59 64
f 28 60 63
f 63 64 28
f 37 39 75
f 14 39 37
f 139 124 108
f 139 108 134
f 7 3 1
f 7 1 2
f 72 36 71
f 71 108 72
f 74 123 112
f 112 75 74
f 75 39 74
f 108 124 74
f 74 72 108
f 74 39 38
f 124 123 74
f 73 72 74
f 14 37 40
f 40 15 14
f 17 43 20
f 20 18 17
f 42 43 17
f 17 16 42
f 71 36 130
f 130 13 5
f 130 105 71
f 36 13 130
f 5 19 130
f 130 79 115
f 130 19 44
f 44 79 130
f 115 79 69
f 69 104 115
f 117 75 112
f 50 86 117
f 112 121 117
f 117 109 75
f 117 119 120
f 117 51 50
f 117 52 51
f 117 86 109
f 117 121 119
f 117 87 52
f 115 104 103
f 103 128 115
f 1 3 11
f 4 1 11
f 44 19 70
f 70 19 35
f 70 79 44
f 70 69 79
f 128 103 127
f 140 128 127
f 127 139 134
f 134 140 127

