# https://github.com/mikedh/trimesh
v 0.00430341 0.11565367 0.06955360
v 0.00430341 0.09481921 0.07695338
v 0.00430341 0.11565367 0.06767581
v -0.01816612 0.11565367 0.08698831
v 0.00430341 0.09422260 0.07701130
v 0.00430341 0.10543977 0.06767581
v 0.00415626 0.11565367 0.06764908
v -0.02033974 0.11565367 0.08698831
v -0.01816612 0.10336840 0.08698831
v -0.00666599 0.10129255 0.08203433
v 0.00430341 0.09403043 0.07701353
v 0.00430341 0.10440297 0.06768250
v 0.00412731 0.09282827 0.06770254
v 0.00327330 0.09282827 0.06750207
v 0.00311408 0.09282827 0.06746643
v 0.00213945 0.09282827 0.06729268
v 0.00213704 0.11565367 0.06729268
v -0.02031320 0.11565367 0.08682347
v -0.02033974 0.10336840 0.08698831
v -0.01849904 0.10228466 0.08698831
v 0.00430341 0.09343382 0.07679078
v -0.01868239 0.10191821 0.08698831
v -0.01895982 0.10162995 0.08698831
v 0.00430341 0.09282827 0.06780501
v 0.00424311 0.09282827 0.06776937
v 0.00415626 0.09282827 0.06771814
v -0.00002211 0.11565367 0.06691178
v -0.00831851 0.09282827 0.06544830
v -0.00831851 0.10232935 0.06544830
v -0.02021429 0.10336840 0.08626214
v -0.02021429 0.11565367 0.08626214
v -0.01935305 0.09282827 0.08138167
v -0.01950262 0.09282827 0.08225708
v -0.01952916 0.09282827 0.08241969
v -0.02029390 0.10232935 0.08698831
v 0.00430341 0.09314110 0.07637200
v -0.01781391 0.09282827 0.08329956
v -0.01869445 0.09282827 0.08353567
v -0.01795383 0.09282827 0.08333742
v -0.01973180 0.10163219 0.08698831
v 0.00430341 0.09282827 0.07076982
v -0.01437134 0.11565367 0.06438133
v -0.00943065 0.09282827 0.06525228
v -0.01862208 0.09282827 0.07723182
v -0.01862208 0.11565367 0.07723182
v -0.01941577 0.09282827 0.08317259
v -0.02026978 0.10211931 0.08698831
v 0.00412731 0.09301373 0.07619380
v 0.00430341 0.09307853 0.07619380
v 0.00101525 0.09287743 0.07516024
v 0.00205260 0.09289530 0.07516024
v -0.02003095 0.10177296 0.08698831
v -0.01496722 0.09282827 0.06427664
v -0.01496722 0.11565367 0.06427664
v -0.01708293 0.09282827 0.06850667
v -0.01752441 0.11565367 0.07101039
v -0.01504683 0.09282827 0.06426327
v -0.01504683 0.11565367 0.06426327
v -0.01708293 0.11565367 0.06850890
v -0.01679103 0.11565367 0.06685832
v -0.01660768 0.11565367 0.06582253
v -0.01660768 0.09282827 0.06582253
v -0.01558239 0.09282827 0.06423209
v -0.01558239 0.11565367 0.06423209
v -0.01656667 0.09282827 0.06565769
v -0.01634231 0.11565367 0.06478451
v -0.01613484 0.09282827 0.06423654
v -0.01613484 0.11565367 0.06423654
v -0.01634231 0.09282827 0.06478451
v -0.01631095 0.11565367 0.06469986
v -0.01631095 0.09282827 0.06469763
f 1 4 2
f 5 2 4
f 11 5 10
f 10 5 4
f 52 46 38
f 11 22 23
f 23 39 37
f 38 39 23
f 9 10 4
f 11 10 9
f 34 46 47
f 46 52 47
f 41 49 48
f 41 50 37
f 11 23 21
f 21 23 37
f 55 61 62
f 40 52 38
f 38 23 40
f 20 22 11
f 11 9 20
f 8 18 19
f 19 33 34
f 32 33 19
f 51 41 48
f 50 41 51
f 48 37 51
f 37 50 51
f 36 37 48
f 36 21 37
f 48 49 36
f 14 6 13
f 15 6 14
f 12 26 13
f 13 6 12
f 12 25 26
f 24 25 12
f 16 6 15
f 45 55 44
f 61 66 65
f 62 61 65
f 66 69 65
f 71 69 66
f 68 67 71
f 34 47 35
f 35 19 34
f 32 19 30
f 30 19 18
f 30 44 32
f 18 31 30
f 61 55 60
f 55 59 60
f 56 55 45
f 56 59 55
f 68 71 70
f 70 71 66
f 3 6 7
f 6 16 7
f 28 43 42
f 53 54 42
f 42 43 53
f 16 27 17
f 17 7 16
f 29 42 27
f 28 42 29
f 16 28 29
f 29 27 16
f 12 3 1
f 11 21 12
f 12 5 11
f 1 2 12
f 2 5 12
f 12 41 24
f 49 41 12
f 12 6 3
f 12 36 49
f 21 36 12
f 57 58 54
f 57 54 53
f 63 67 64
f 64 67 68
f 64 57 63
f 58 57 64
f 35 4 8
f 35 23 22
f 35 9 4
f 22 20 35
f 52 40 35
f 35 47 52
f 35 40 23
f 35 20 9
f 8 19 35
f 30 31 45
f 45 44 30
f 38 46 43
f 13 26 43
f 32 44 43
f 43 67 63
f 43 46 34
f 43 25 24
f 34 33 43
f 43 71 67
f 24 41 43
f 43 55 62
f 43 39 38
f 26 25 43
f 43 14 13
f 43 33 32
f 37 39 43
f 43 41 37
f 63 57 43
f 62 65 43
f 15 14 43
f 43 16 15
f 43 57 53
f 43 44 55
f 43 65 69
f 69 71 43
f 43 28 16
f 8 4 17
f 1 3 17
f 17 4 1
f 17 56 45
f 17 18 8
f 68 70 17
f 45 31 17
f 17 66 61
f 54 58 17
f 17 64 68
f 58 64 17
f 17 31 18
f 61 60 17
f 3 7 17
f 17 60 59
f 59 56 17
f 17 70 66
f 17 42 54
f 27 42 17

