# https://github.com/mikedh/trimesh
v 0.00842810 -0.00901235 0.00040974
v 0.00876191 -0.00901235 -0.00045129
v 0.00842810 -0.00901235 -0.00654385
v 0.00809429 -0.00904590 -0.00654385
v 0.00809429 -0.00904963 0.00040974
v 0.00876191 -0.00901608 0.00040974
v 0.00904937 -0.00910182 -0.00045129
v 0.00883512 -0.00903472 -0.00654385
v 0.00876191 -0.00901235 -0.00654385
v 0.00785116 -0.00912978 -0.00654385
v 0.00797205 -0.00909995 0.00040974
v 0.00903191 -0.00910368 0.00040974
v 0.00904064 -0.00910182 -0.00011709
v 0.00904937 -0.00910182 -0.00654385
v 0.00913601 -0.00935531 0.00040974
v 0.00915348 -0.00935531 -0.00045129
v 0.00788272 -0.00913723 0.00040974
v 0.00509136 -0.01071969 -0.00654385
v 0.00915348 -0.00935531 -0.00654385
v 0.00911855 -0.00954916 0.00040974
v 0.00910579 -0.00968895 0.00040974
v 0.00911788 -0.00960507 -0.00654385
v 0.00784780 -0.00922856 0.00040974
v 0.00488047 -0.01102351 -0.00654385
v 0.00229194 -0.01678299 -0.00651050
v 0.00229194 -0.01841764 -0.00416359
v 0.00904400 -0.01002259 0.00040974
v 0.00648368 -0.02470834 -0.00412207
v 0.00910579 -0.00968895 -0.00654385
v 0.00780078 -0.00935531 0.00040974
v 0.00229194 -0.01677181 -0.00654385
v 0.00229194 -0.01677553 -0.00653092
v 0.00229194 -0.01868791 -0.00399683
v 0.00863967 -0.01219032 0.00040974
v 0.00701496 -0.02089477 0.00040974
v 0.00694175 -0.02128620 0.00040974
v 0.00688331 -0.02159747 0.00040974
v 0.00686249 -0.02170371 0.00040974
v 0.00639368 -0.02504198 -0.00412207
v 0.00648368 -0.02470834 -0.00654385
v 0.00764160 -0.01753787 0.00040974
v 0.00777190 -0.00949697 0.00040974
v 0.00229194 -0.02137007 -0.00306774
v 0.00229194 -0.02805033 -0.00654385
v 0.00680742 -0.02189570 0.00040974
v 0.00628555 -0.02528615 -0.00387159
v 0.00629898 -0.02532529 -0.00412207
v 0.00639368 -0.02504198 -0.00654385
v 0.00676645 -0.02203735 0.00040974
v 0.00773295 -0.00968895 0.00040974
v 0.00229194 -0.02637653 -0.00306706
v 0.00549099 -0.02170371 0.00040974
v 0.00552659 -0.02151173 0.00040974
v 0.00583756 -0.01984167 0.00040974
v 0.00723123 -0.01237298 0.00040974
v 0.00748309 -0.01102351 0.00040974
v 0.00756839 -0.01056685 0.00040974
v 0.00764765 -0.01014374 0.00040974
v 0.00242090 -0.02805405 -0.00654385
v 0.00229194 -0.02805033 -0.00412207
v 0.00596652 -0.02594783 -0.00384709
v 0.00623988 -0.02549118 -0.00412207
v 0.00629898 -0.02532529 -0.00654385
v 0.00664757 -0.02224611 0.00040974
v 0.00229194 -0.02789748 -0.00360682
v 0.00555748 -0.02223493 0.00040974
v 0.00551920 -0.02212123 0.00040974
v 0.00549099 -0.02203735 0.00040974
v 0.00275471 -0.02803728 -0.00654385
v 0.00242090 -0.02805405 -0.00412207
v 0.00229194 -0.02800932 -0.00391652
v 0.00559711 -0.02654988 -0.00393830
v 0.00588592 -0.02614914 -0.00412207
v 0.00598734 -0.02598325 -0.00412207
v 0.00613577 -0.02570925 -0.00412207
v 0.00623988 -0.02549118 -0.00654385
v 0.00655354 -0.02226848 0.00040974
v 0.00296426 -0.02788444 -0.00361635
v 0.00397979 -0.02756571 -0.00360818
v 0.00420210 -0.02750047 -0.00366127
v 0.00461987 -0.02723021 -0.00360954
v 0.00519614 -0.02681642 -0.00370007
v 0.00552726 -0.02647159 -0.00371572
v 0.00229194 -0.02793103 -0.00367624
v 0.00242090 -0.02789935 -0.00360614
v 0.00609211 -0.02230203 0.00040974
v 0.00595107 -0.02229457 0.00040974
v 0.00575831 -0.02228339 0.00040974
v 0.00308851 -0.02799254 -0.00654385
v 0.00275471 -0.02803728 -0.00412207
v 0.00275471 -0.02797390 -0.00378855
v 0.00242090 -0.02798695 -0.00378855
v 0.00229194 -0.02798322 -0.00378855
v 0.00539830 -0.02668408 -0.00381918
v 0.00527002 -0.02688911 -0.00392264
v 0.00527606 -0.02689470 -0.00412207
v 0.00544263 -0.02671949 -0.00412207
v 0.00559980 -0.02655360 -0.00412207
v 0.00572741 -0.02637653 -0.00412207
v 0.00576771 -0.02631875 -0.00654385
v 0.00588592 -0.02614914 -0.00654385
v 0.00598734 -0.02598325 -0.00654385
v 0.00613577 -0.02570925 -0.00654385
v 0.00642592 -0.02229644 0.00040974
v 0.00275471 -0.02789376 -0.00360954
v 0.00308045 -0.02792731 -0.00376949
v 0.00342232 -0.02790121 -0.00388725
v 0.00318657 -0.02784530 -0.00364561
v 0.00359158 -0.02787884 -0.00395123
v 0.00409061 -0.02761417 -0.00377902
v 0.00429949 -0.02756944 -0.00388384
v 0.00468972 -0.02727867 -0.00378855
v 0.00485696 -0.02715192 -0.00378855
v 0.00508733 -0.02697112 -0.00380217
v 0.00342232 -0.02792358 -0.00654385
v 0.00308851 -0.02799254 -0.00412207
v 0.00491203 -0.02720225 -0.00412207
v 0.00509136 -0.02705313 -0.00412207
v 0.00522905 -0.02693571 -0.00654385
v 0.00527606 -0.02689470 -0.00654385
v 0.00544263 -0.02671949 -0.00654385
v 0.00555950 -0.02659648 -0.00654385
v 0.00559980 -0.02655360 -0.00654385
v 0.00563271 -0.02650887 -0.00654385
v 0.00572741 -0.02637653 -0.00654385
v 0.00342232 -0.02792358 -0.00412207
v 0.00359292 -0.02788071 -0.00412207
v 0.00376016 -0.02781920 -0.00412207
v 0.00408994 -0.02768873 -0.00412207
v 0.00432031 -0.02758062 -0.00412207
v 0.00448755 -0.02748556 -0.00412207
v 0.00474479 -0.02731781 -0.00412207
v 0.00354926 -0.02789189 -0.00654385
v 0.00491203 -0.02720225 -0.00654385
v 0.00509136 -0.02705313 -0.00654385
v 0.00359292 -0.02788071 -0.00654385
v 0.00376016 -0.02781920 -0.00654385
v 0.00400598 -0.02772228 -0.00654385
v 0.00408994 -0.02768873 -0.00654385
v 0.00426188 -0.02760858 -0.00654385
v 0.00432031 -0.02758062 -0.00654385
v 0.00448755 -0.02748556 -0.00654385
v 0.00467964 -0.02736068 -0.00654385
v 0.00474479 -0.02731781 -0.00654385
f 32 24 31
f 25 24 32
f 26 33 30
f 30 33 43
f 16 7 15
f 85 86 65
f 52 43 51
f 52 51 68
f 3 4 1
f 51 65 66
f 16 15 20
f 20 21 16
f 6 7 2
f 2 1 6
f 5 4 10
f 5 1 4
f 104 86 85
f 88 66 65
f 68 51 67
f 51 66 67
f 71 70 92
f 39 45 49
f 38 45 39
f 49 64 61
f 12 15 7
f 17 10 18
f 18 24 17
f 17 24 25
f 25 26 17
f 7 14 8
f 8 9 2
f 2 7 8
f 87 65 86
f 87 88 65
f 60 70 71
f 71 92 93
f 46 39 49
f 49 61 46
f 38 39 28
f 75 61 74
f 30 43 42
f 43 50 42
f 43 57 58
f 58 50 43
f 43 52 53
f 53 54 43
f 43 54 55
f 22 19 16
f 16 21 22
f 21 29 22
f 6 12 13
f 7 6 13
f 13 12 7
f 11 5 10
f 10 17 11
f 23 26 30
f 23 17 26
f 84 93 92
f 85 65 84
f 84 92 85
f 62 61 75
f 62 46 61
f 72 61 64
f 117 118 95
f 95 72 94
f 56 57 43
f 43 55 56
f 78 77 104
f 64 77 78
f 78 79 64
f 108 79 78
f 39 46 47
f 46 62 47
f 38 28 37
f 83 72 64
f 94 72 83
f 64 81 82
f 82 95 94
f 81 113 82
f 82 83 64
f 94 83 82
f 111 131 132
f 91 92 70
f 70 90 91
f 80 81 64
f 64 79 80
f 80 111 81
f 85 92 105
f 105 104 85
f 105 78 104
f 92 91 105
f 105 91 78
f 108 78 107
f 109 79 107
f 107 79 108
f 107 116 109
f 27 28 21
f 27 34 28
f 41 35 28
f 28 34 41
f 28 35 36
f 36 37 28
f 72 99 73
f 73 74 61
f 61 72 73
f 112 132 117
f 111 132 112
f 117 95 112
f 95 113 112
f 81 111 112
f 112 113 81
f 114 113 95
f 95 82 114
f 114 82 113
f 72 97 98
f 98 99 72
f 96 95 118
f 72 95 96
f 96 97 72
f 123 98 122
f 122 98 97
f 127 128 109
f 111 80 110
f 110 80 79
f 109 111 110
f 110 79 109
f 78 91 106
f 106 107 78
f 116 107 106
f 106 90 116
f 106 91 90
f 101 73 100
f 99 125 100
f 100 73 99
f 124 125 99
f 99 98 124
f 124 98 123
f 118 135 119
f 120 96 119
f 119 96 118
f 121 122 97
f 138 128 137
f 129 138 139
f 128 138 129
f 129 111 109
f 109 128 129
f 143 144 132
f 143 132 131
f 131 142 143
f 130 131 111
f 111 129 130
f 136 127 133
f 109 116 126
f 126 127 109
f 115 133 126
f 126 133 127
f 141 130 140
f 140 129 139
f 140 130 129
f 14 7 16
f 16 19 14
f 3 1 9
f 9 1 2
f 60 44 59
f 59 70 60
f 40 29 28
f 28 29 21
f 48 40 28
f 28 39 48
f 25 32 84
f 31 44 84
f 84 26 25
f 51 43 84
f 84 32 31
f 33 26 84
f 84 43 33
f 84 65 51
f 44 60 84
f 84 60 71
f 71 93 84
f 76 62 103
f 103 62 75
f 102 103 75
f 75 74 102
f 69 70 59
f 69 90 70
f 116 90 69
f 69 89 116
f 48 39 63
f 39 47 63
f 63 62 76
f 63 47 62
f 49 45 36
f 36 64 49
f 36 23 30
f 36 52 68
f 36 45 38
f 36 58 57
f 36 77 64
f 68 67 36
f 36 20 15
f 15 12 36
f 86 104 36
f 36 87 86
f 21 20 36
f 36 6 1
f 1 5 36
f 5 11 36
f 66 88 36
f 36 67 66
f 30 42 36
f 36 53 52
f 36 12 6
f 38 37 36
f 104 77 36
f 88 87 36
f 36 42 50
f 50 58 36
f 54 53 36
f 36 55 54
f 36 11 17
f 17 23 36
f 57 56 36
f 36 56 55
f 36 27 21
f 35 41 36
f 34 27 36
f 36 41 34
f 101 102 73
f 73 102 74
f 117 134 135
f 135 118 117
f 127 136 137
f 137 128 127
f 97 96 121
f 121 96 120
f 144 134 117
f 117 132 144
f 141 142 130
f 130 142 131
f 116 89 126
f 89 115 126
f 140 24 18
f 59 44 140
f 140 40 48
f 31 24 140
f 18 10 140
f 140 4 3
f 140 44 31
f 10 4 140
f 19 22 140
f 140 14 19
f 3 9 140
f 140 8 14
f 137 136 140
f 134 144 140
f 140 29 40
f 9 8 140
f 123 122 140
f 140 22 29
f 140 102 101
f 48 63 140
f 76 103 140
f 140 69 59
f 140 135 134
f 103 102 140
f 140 121 120
f 89 69 140
f 140 138 137
f 140 63 76
f 101 100 140
f 140 124 123
f 120 119 140
f 140 142 141
f 136 133 140
f 140 100 125
f 125 124 140
f 140 119 135
f 122 121 140
f 140 115 89
f 139 138 140
f 140 143 142
f 144 143 140
f 140 133 115

