# https://github.com/mikedh/trimesh
v -0.00799744 -0.01069112 -0.00946214
v -0.00792693 -0.01069112 -0.00979642
v -0.00790006 -0.01102458 -0.00979642
v -0.00787152 -0.01135473 -0.00979642
v -0.00796386 -0.01102458 -0.00946214
v -0.00799744 -0.01069112 -0.00045100
v -0.00708574 -0.00256926 -0.00946214
v -0.00709917 -0.00277396 -0.00965944
v -0.00779596 -0.01042369 -0.00998554
v -0.00780772 -0.01069112 -0.00999474
v -0.00779764 -0.01102458 -0.00999065
v -0.00778589 -0.01135473 -0.00998451
v -0.00777413 -0.01159575 -0.00997531
v -0.00697996 -0.00234806 -0.00979642
v -0.00781275 -0.01170140 -0.00981686
v -0.00793028 -0.01135473 -0.00946214
v -0.00796386 -0.01102458 -0.00045100
v -0.00793028 -0.01135473 0.00040974
v -0.00798233 -0.01083308 0.00040974
v -0.00799577 -0.01069112 0.00040974
v -0.00708574 -0.00257257 -0.00879461
v -0.00708574 -0.00256926 -0.00912889
v -0.00706055 -0.00234806 -0.00946214
v -0.00700011 -0.00201130 -0.00946214
v -0.00692959 -0.00201130 -0.00979642
v -0.00680870 -0.00201130 -0.00999371
v -0.00682885 -0.00234806 -0.00999780
v -0.00759280 -0.01069112 -0.01002949
v -0.00759280 -0.01102458 -0.01002540
v -0.00759280 -0.01135473 -0.01001927
v -0.00748366 -0.01235841 -0.00999576
v -0.00745176 -0.01269187 -0.00998145
v -0.00711092 -0.01394976 -0.00997838
v -0.00743161 -0.01288336 -0.00996816
v -0.00773720 -0.01181695 -0.00994158
v -0.00676001 -0.00150286 -0.00996509
v -0.00677847 -0.00167784 -0.00997838
v -0.00778421 -0.01194571 -0.00971873
v -0.00787320 -0.01168819 -0.00946214
v -0.00790678 -0.01149670 0.00040974
v -0.00795547 -0.01035766 0.00040974
v -0.00705887 -0.00234806 -0.00879461
v -0.00706055 -0.00234806 -0.00912889
v -0.00700011 -0.00201130 -0.00912889
v -0.00691783 -0.00167784 -0.00946214
v -0.00685907 -0.00167784 -0.00979642
v -0.00659042 -0.00167784 -0.01001314
v -0.00659042 -0.00201130 -0.01002847
v -0.00725868 -0.01069112 -0.01003358
v -0.00725868 -0.01202165 -0.01003358
v -0.00725868 -0.01235841 -0.01003052
v -0.00659042 -0.00234806 -0.01003256
v -0.00659042 -0.00268152 -0.01003358
v -0.00692455 -0.01369224 -0.01002643
v -0.00713611 -0.01369224 -0.00999167
v -0.00678687 -0.01502607 -0.00998349
v -0.00676672 -0.01521756 -0.00997122
v -0.00707734 -0.01417097 -0.00995078
v -0.00746184 -0.01300551 -0.00979029
v -0.00678855 -0.00142692 -0.00979642
v -0.00648297 -0.00067747 -0.00979437
v -0.00644603 -0.00078972 -0.00997838
v -0.00647961 -0.00101093 -0.00999167
v -0.00779596 -0.01198863 -0.00946214
v -0.00711932 -0.01429313 -0.00972895
v -0.00743665 -0.01323002 -0.00967375
v -0.00784130 -0.01181695 0.00040974
v -0.00787320 -0.01168819 0.00040974
v -0.00782954 -0.01014636 0.00040974
v -0.00509106 0.00249864 -0.00862390
v -0.00643763 -0.00048267 -0.00860652
v -0.00679527 -0.00141042 -0.00857381
v -0.00691783 -0.00167784 -0.00879461
v -0.00699843 -0.00201130 -0.00879461
v -0.00681541 -0.00135759 -0.00946214
v -0.00625798 -0.00101093 -0.01002745
v -0.00625798 -0.00134438 -0.01003358
v -0.00659042 -0.01435916 -0.01003358
v -0.00692455 -0.01335878 -0.01003256
v -0.00659042 -0.01469261 -0.01003052
v -0.00659042 -0.01502607 -0.01001825
v -0.00682045 -0.01469261 -0.00999576
v -0.00679862 -0.01529020 -0.00979642
v -0.00687922 -0.01502607 -0.00979642
v -0.00659042 -0.01526709 -0.00998656
v 0.00016428 -0.02726498 -0.00765889
v -0.00024876 -0.02695133 -0.00765991
v -0.00042841 -0.02688860 -0.00763538
v -0.00078437 -0.02657165 -0.00764662
v -0.00114200 -0.02625470 -0.00765480
v -0.00149963 -0.02593775 -0.00765991
v -0.00185894 -0.02562410 -0.00766196
v -0.00208057 -0.02553826 -0.00762005
v -0.00242645 -0.02490106 -0.00763538
v -0.00237776 -0.02512556 -0.00745955
v -0.00675329 -0.00118921 -0.00946214
v -0.00643763 -0.00047937 -0.00968091
v -0.00575595 0.00082144 -0.00996202
v -0.00543022 0.00151147 -0.00996918
v -0.00510617 0.00219820 -0.00997531
v -0.00612030 -0.00009639 -0.00998247
v -0.00616395 -0.00034401 -0.00999474
v -0.00779596 -0.01198863 0.00040974
v -0.00769354 -0.01235841 -0.00946214
v -0.00694302 -0.01502607 -0.00946214
v -0.00703704 -0.01469261 -0.00946214
v -0.00772880 -0.01010674 0.00040974
v -0.00191771 0.00524884 -0.00852678
v -0.00258596 0.00493850 -0.00851860
v -0.00282606 0.00487577 -0.00856972
v -0.00325253 0.00456872 -0.00855336
v -0.00343554 0.00450929 -0.00860959
v -0.00378646 0.00419234 -0.00859118
v -0.00411890 0.00386219 -0.00858914
v -0.00443960 0.00351552 -0.00860243
v -0.00480898 0.00291464 -0.00856256
v -0.00483753 0.00296086 -0.00879461
v -0.00500375 0.00266702 -0.00879461
v -0.00509274 0.00249864 -0.00879461
v -0.00517669 0.00232696 -0.00879461
v -0.00533284 0.00199350 -0.00879461
v -0.00573412 0.00110868 -0.00879461
v -0.00636879 -0.00029779 -0.00879461
v -0.00654005 -0.00067747 -0.00879461
v -0.00668109 -0.00101093 -0.00879461
v -0.00675329 -0.00118921 -0.00879461
v -0.00681541 -0.00135759 -0.00879461
v -0.00558973 0.00032291 -0.01003154
v -0.00525560 0.00132658 -0.01002029
v -0.00492148 0.00199350 -0.01002438
v -0.00492148 0.00166004 -0.01003358
v -0.00625798 -0.01502607 -0.01003358
v -0.00682717 -0.01534963 -0.00946214
v -0.00625798 -0.01529350 -0.00999780
v 0.00175263 -0.02771069 -0.00770387
v 0.00108438 -0.02764466 -0.00767729
v 0.00075026 -0.02737723 -0.00771000
v 0.00075026 -0.02758523 -0.00765685
v 0.00044132 -0.02737723 -0.00767116
v 0.00056892 -0.02755221 -0.00763436
v -0.00005735 -0.02718904 -0.00757405
v -0.00046199 -0.02691501 -0.00745955
v -0.00176156 -0.02588492 -0.00733382
v -0.00211079 -0.02556797 -0.00739720
v -0.00220146 -0.02540620 -0.00748920
v -0.00240462 -0.02517179 -0.00712630
v -0.00668277 -0.00101093 -0.00946214
v -0.00611526 0.00021065 -0.00971464
v -0.00654005 -0.00067747 -0.00946214
v -0.00623951 -0.00001055 -0.00946214
v -0.00563674 0.00132658 -0.00946214
v -0.00533452 0.00199350 -0.00946214
v -0.00509106 0.00249864 -0.00964001
v -0.00546380 0.00158411 -0.00979642
v -0.00513471 0.00231705 -0.00976882
v -0.00476869 0.00285191 -0.00997327
v -0.00480898 0.00266042 -0.00998860
v -0.00513975 0.00199350 -0.00998963
v -0.00769354 -0.01235841 0.00040974
v -0.00727882 -0.01383421 0.00040974
v -0.00682717 -0.01535293 -0.00245359
v -0.00689433 -0.01516474 0.00040974
v -0.00694302 -0.01502607 0.00040974
v -0.00703704 -0.01469261 -0.00045100
v -0.00759280 -0.01005722 0.00040974
v -0.00158358 0.00530497 -0.00850225
v -0.00091701 0.00554598 -0.00855438
v -0.00119237 0.00551957 -0.00859118
v -0.00217124 0.00520262 -0.00857381
v -0.00258596 0.00504745 -0.00879461
v -0.00286300 0.00489888 -0.00879461
v -0.00303090 0.00479323 -0.00879461
v -0.00325253 0.00464466 -0.00879461
v -0.00344394 0.00451590 -0.00879461
v -0.00361016 0.00437393 -0.00879461
v -0.00380493 0.00420555 -0.00879461
v -0.00397115 0.00404707 -0.00879461
v -0.00413569 0.00388200 -0.00879461
v -0.00444799 0.00352873 -0.00879461
v -0.00459239 0.00332733 -0.00879461
v -0.00473175 0.00312594 -0.00879461
v -0.00483753 0.00296086 -0.00946214
v -0.00500543 0.00266702 -0.00912889
v -0.00473343 0.00312594 -0.00912889
v -0.00509274 0.00250194 -0.00912889
v -0.00517837 0.00232696 -0.00912889
v -0.00533452 0.00199350 -0.00912889
v -0.00563674 0.00132658 -0.00912889
v -0.00623951 -0.00001055 -0.00912889
v -0.00668277 -0.00101093 -0.00912889
v -0.00492316 0.00231705 -0.00999883
v -0.00458903 0.00266042 -0.01002336
v -0.00458903 0.00232696 -0.01003358
v 0.00742605 -0.01502607 -0.01003358
v -0.00492148 -0.01535953 -0.01001620
v -0.00492148 -0.01558074 -0.00998145
v 0.00208508 -0.02771069 -0.00771716
v 0.00208508 -0.02792199 -0.00766400
v 0.00175263 -0.02790548 -0.00765071
v 0.00153772 -0.02788567 -0.00763538
v 0.00131609 -0.02785266 -0.00756382
v 0.00075026 -0.02767437 -0.00745955
v 0.00052191 -0.02757532 -0.00745955
v 0.00035569 -0.02748288 -0.00745955
v 0.00006690 -0.02730130 -0.00746160
v -0.00009933 -0.02722206 -0.00735119
v -0.00176659 -0.02588822 -0.00712630
v -0.00193282 -0.02574626 -0.00712630
v -0.00212423 -0.02558118 -0.00712630
v -0.00048718 -0.02693482 -0.00712630
v -0.00065508 -0.02679946 -0.00712630
v -0.00227702 -0.02537318 -0.00712630
v -0.00240462 -0.02517179 -0.00412292
v -0.00517837 0.00232696 -0.00946214
v -0.00509274 0.00250194 -0.00946214
v -0.00500543 0.00266702 -0.00946214
v -0.00480730 0.00291133 -0.00979642
v -0.00443960 0.00351882 -0.00968806
v -0.00438083 0.00344949 -0.00991091
v -0.00446310 0.00322829 -0.00998451
v -0.00458064 0.00297407 -0.00999576
v -0.00682717 -0.01535293 -0.00045100
v -0.00682717 -0.01534963 0.00040974
v -0.00686243 -0.00986573 0.00040974
v -0.00659042 -0.00979639 0.00040974
v -0.00058288 0.00556909 -0.00853087
v -0.00058288 0.00564173 -0.00879461
v -0.00058288 -0.00866065 0.00040974
v -0.00091701 0.00559551 -0.00879461
v -0.00124778 0.00553278 -0.00879461
v -0.00141568 0.00549646 -0.00879461
v -0.00158358 0.00544364 -0.00879461
v -0.00191771 0.00533468 -0.00879461
v -0.00221489 0.00522243 -0.00879461
v -0.00238112 0.00514650 -0.00879461
v -0.00238280 0.00514650 -0.00912889
v -0.00258596 0.00504745 -0.00946214
v -0.00286468 0.00489888 -0.00912889
v -0.00303090 0.00479323 -0.00946214
v -0.00325253 0.00464466 -0.00946214
v -0.00344394 0.00451590 -0.00946214
v -0.00361016 0.00437393 -0.00946214
v -0.00380493 0.00420555 -0.00946214
v -0.00397115 0.00404707 -0.00946214
v -0.00413569 0.00388200 -0.00946214
v -0.00444799 0.00352873 -0.00946214
v -0.00459239 0.00332733 -0.00946214
v -0.00473343 0.00312594 -0.00946214
v -0.00426330 0.00333393 -0.01000394
v -0.00425491 0.00299387 -0.01003154
v -0.00392078 0.00332733 -0.01003358
v 0.00776018 -0.01502607 -0.01003154
v 0.00742605 -0.01535953 -0.01001211
v 0.00776018 -0.01469261 -0.01003358
v 0.00742605 -0.01558074 -0.00997634
v 0.00241921 -0.02771069 -0.00771920
v 0.00241921 -0.02792529 -0.00766605
v 0.00241921 -0.02801113 -0.00745955
v 0.00208508 -0.02800453 -0.00745955
v 0.00175263 -0.02796821 -0.00745955
v 0.00142355 -0.02790878 -0.00745546
v 0.00122710 -0.02788567 -0.00734097
v 0.00110285 -0.02780643 -0.00745546
v 0.00075026 -0.02771729 -0.00712630
v 0.00031875 -0.02750929 -0.00712630
v 0.00048497 -0.02759513 -0.00712630
v 0.00008537 -0.02736072 -0.00712630
v -0.00010772 -0.02722866 -0.00712630
v -0.00027394 -0.02710320 -0.00712630
v -0.00176659 -0.02588822 -0.00412292
v -0.00193282 -0.02574626 -0.00412292
v -0.00212423 -0.02558118 -0.00412292
v -0.00048718 -0.02693482 -0.00412292
v -0.00065508 -0.02679946 -0.00412292
v -0.00227702 -0.02537318 -0.00412292
v -0.00211079 -0.02556797 -0.00388985
v -0.00673146 -0.01551801 0.00040974
v -0.00411890 0.00386219 -0.00971566
v -0.00406182 0.00380276 -0.00993749
v -0.00415752 0.00358155 -0.00998656
v -0.00024876 0.00558230 -0.00852065
v -0.00024876 0.00566814 -0.00879461
v -0.00024876 -0.00860453 0.00040974
v -0.00058288 0.00564173 -0.00946214
v -0.00091701 0.00559881 -0.00912889
v -0.00124946 0.00553278 -0.00912889
v -0.00141736 0.00549646 -0.00912889
v -0.00158358 0.00544694 -0.00912889
v -0.00191771 0.00533799 -0.00912889
v -0.00221657 0.00522243 -0.00912889
v -0.00238280 0.00514650 -0.00946214
v -0.00215613 0.00519602 -0.00979642
v -0.00281766 0.00486916 -0.00979642
v -0.00286468 0.00489888 -0.00946214
v -0.00343554 0.00450929 -0.00967273
v -0.00378814 0.00419234 -0.00971259
v -0.00393925 0.00368060 -0.01000496
v -0.00325253 0.00399425 -0.01003358
v 0.00797509 -0.01502607 -0.00999678
v 0.00794823 -0.01535953 -0.00998042
v 0.00776018 -0.01535953 -0.01000394
v 0.00809430 -0.01302532 -0.01003358
v 0.00809430 -0.01335878 -0.01003052
v 0.00776018 -0.01555763 -0.00997020
v 0.00275333 -0.02771069 -0.00771512
v 0.00275333 -0.02791869 -0.00766094
v 0.00241921 -0.02805405 -0.00712630
v 0.00275333 -0.02799793 -0.00745955
v 0.00208508 -0.02804415 -0.00712630
v 0.00175263 -0.02800783 -0.00712630
v 0.00141851 -0.02793850 -0.00712630
v 0.00121367 -0.02789227 -0.00712630
v 0.00104745 -0.02783285 -0.00712630
v 0.00075026 -0.02771729 -0.00412292
v 0.00031875 -0.02750929 -0.00412292
v 0.00048497 -0.02759513 -0.00412292
v 0.00008537 -0.02736072 -0.00412292
v -0.00010772 -0.02722866 -0.00412292
v -0.00027394 -0.02710320 -0.00412292
v -0.00176156 -0.02588492 -0.00393074
v -0.00009933 -0.02722206 -0.00391950
v -0.00075918 -0.02654854 -0.00361793
v -0.00203860 -0.02549534 -0.00366802
v -0.00218635 -0.02537978 -0.00378354
v -0.00111010 -0.02623159 -0.00361078
v 0.00020458 -0.02723857 -0.00360771
v 0.00555562 -0.02223339 0.00040974
v -0.00372601 0.00413291 -0.00993442
v -0.00383851 0.00391171 -0.00998656
v 0.00008537 0.00558230 -0.00851963
v 0.00008537 0.00567144 -0.00879461
v 0.00008537 0.00567475 -0.00912889
v -0.00024876 0.00566814 -0.00946214
v -0.00010772 -0.00860783 0.00040974
v -0.00058288 0.00558891 -0.00979642
v -0.00091701 0.00559881 -0.00946214
v -0.00124946 0.00553278 -0.00946214
v -0.00141736 0.00549646 -0.00946214
v -0.00158358 0.00544694 -0.00946214
v -0.00191771 0.00533799 -0.00946214
v -0.00221657 0.00522243 -0.00946214
v -0.00191771 0.00527526 -0.00979642
v -0.00209233 0.00516630 -0.00996509
v -0.00276393 0.00483615 -0.00996816
v -0.00336838 0.00444986 -0.00989456
v -0.00358162 0.00432110 -0.00980358
v -0.00360344 0.00401076 -0.01000496
v -0.00292008 0.00432771 -0.01003052
v -0.00225183 0.00466447 -0.01003256
v -0.00191771 0.00466447 -0.01003358
v 0.00830418 -0.01335878 -0.00999474
v 0.00828403 -0.01369224 -0.00998349
v 0.00792808 -0.01553121 -0.00996407
v 0.00826892 -0.01390354 -0.00997020
v 0.00842843 -0.01102458 -0.01003358
v 0.00842843 -0.01135473 -0.01003256
v 0.00876087 -0.00969074 -0.01003154
v 0.00842843 -0.01168819 -0.01002745
v 0.00375403 -0.02763145 -0.00767525
v 0.00308746 -0.02771069 -0.00769876
v 0.00308746 -0.02789888 -0.00764560
v 0.00241921 -0.02805405 -0.00412292
v 0.00275333 -0.02803755 -0.00712630
v 0.00308746 -0.02795500 -0.00745955
v 0.00327719 -0.02788237 -0.00763129
v 0.00208508 -0.02804415 -0.00412292
v 0.00175263 -0.02800783 -0.00412292
v 0.00141851 -0.02793850 -0.00412292
v 0.00121367 -0.02789227 -0.00412292
v 0.00104745 -0.02783285 -0.00412292
v 0.00051855 -0.02757863 -0.00386225
v 0.00122710 -0.02788567 -0.00392563
v -0.00046367 -0.02691501 -0.00386327
v 0.00009040 -0.02728809 -0.00380092
v -0.00001705 -0.02715272 -0.00369665
v -0.00038812 -0.02684898 -0.00364042
v 0.00061426 -0.02751920 -0.00363940
v 0.00083589 -0.02757202 -0.00360669
v 0.00184834 -0.02788898 -0.00361384
v 0.00567315 -0.02226311 0.00040974
v -0.00314507 0.00453240 -0.00998247
v -0.00350270 0.00422866 -0.00998656
v 0.00041781 0.00557570 -0.00852474
v 0.00041781 0.00565824 -0.00879461
v 0.00008537 0.00567475 -0.00946214
v -0.00024876 0.00560871 -0.00979642
v 0.00876087 -0.00901722 0.00040974
v -0.00091365 0.00554268 -0.00981278
v -0.00058288 0.00551627 -0.00997838
v -0.00080116 0.00550636 -0.00997020
v -0.00119405 0.00551957 -0.00971259
v -0.00102447 0.00547005 -0.00993442
v -0.00191771 0.00518942 -0.00997940
v -0.00258596 0.00486916 -0.00998451
v -0.00289322 0.00465126 -0.00999167
v -0.00325589 0.00433431 -0.01000291
v -0.00258596 0.00466447 -0.01001927
v -0.00158358 0.00499792 -0.01003052
v -0.00125114 0.00499792 -0.01003358
v 0.00863159 -0.01168819 -0.00999269
v 0.00895732 -0.01002420 -0.00998758
v 0.00894053 -0.01026521 -0.00997429
v 0.00793647 -0.01589769 -0.00965330
v 0.00626249 -0.02522131 -0.00763027
v 0.00593844 -0.02590143 -0.00763947
v 0.00564125 -0.02628771 -0.00765787
v 0.00533735 -0.02662778 -0.00766094
v 0.00500826 -0.02694473 -0.00765991
v 0.00475976 -0.02705038 -0.00768547
v 0.00465231 -0.02725177 -0.00765480
v 0.00442228 -0.02732441 -0.00767423
v 0.00412173 -0.02741025 -0.00768751
v 0.00827899 -0.01401910 -0.00976984
v 0.00859633 -0.01219663 -0.00996407
v 0.00842843 -0.00969074 -0.01003358
v 0.00876087 -0.00935728 -0.01002847
v 0.00897579 -0.00969074 -0.00999678
v 0.00876087 -0.01002420 -0.01002234
v 0.00776018 -0.00268152 -0.01003256
v 0.00776018 -0.00234806 -0.01003052
v 0.00403275 -0.02758523 -0.00765685
v 0.00275333 -0.02803755 -0.00412292
v 0.00275333 -0.02797151 -0.00378865
v 0.00241921 -0.02798472 -0.00378865
v 0.00208508 -0.02797811 -0.00378865
v 0.00308746 -0.02799132 -0.00712630
v 0.00340143 -0.02789888 -0.00742991
v 0.00359116 -0.02787907 -0.00729906
v 0.00350050 -0.02784275 -0.00752089
v 0.00425438 -0.02754561 -0.00762618
v 0.00174256 -0.02793520 -0.00376411
v 0.00141851 -0.02790878 -0.00386021
v 0.00073515 -0.02762815 -0.00376616
v 0.00162671 -0.02785596 -0.00363633
v 0.00208508 -0.02789558 -0.00360873
v 0.00609123 -0.02230272 0.00040974
v 0.00575710 -0.02228292 0.00040974
v 0.00075026 0.00555919 -0.00854007
v 0.00041781 0.00565824 -0.00946214
v 0.00108438 0.00553278 -0.00857278
v 0.00075026 0.00562192 -0.00879461
v 0.00041781 0.00560211 -0.00979642
v 0.00008537 0.00561532 -0.00979642
v -0.00024876 0.00552618 -0.00998451
v 0.00903119 -0.00910306 0.00040974
v 0.00175263 0.00527856 -0.00850940
v -0.00058288 0.00533138 -0.01001314
v -0.00158358 0.00522573 -0.00999474
v -0.00191771 0.00499792 -0.01001416
v -0.00222329 0.00499132 -0.00999269
v -0.00024876 0.00533138 -0.01001927
v 0.00008537 0.00533138 -0.01002132
v 0.00108438 0.00499792 -0.01003358
v 0.00909332 -0.00935728 -0.00979642
v 0.00906477 -0.00969074 -0.00979642
v 0.00901440 -0.01002420 -0.00979642
v 0.00895732 -0.01037086 -0.00980153
v 0.00826220 -0.01420068 -0.00964206
v 0.00648244 -0.02470626 -0.00712630
v 0.00643878 -0.02470626 -0.00745955
v 0.00635483 -0.02503972 -0.00745955
v 0.00628096 -0.02527413 -0.00745955
v 0.00621212 -0.02544251 -0.00745955
v 0.00608787 -0.02570994 -0.00745955
v 0.00596698 -0.02594765 -0.00745955
v 0.00585952 -0.02611603 -0.00745955
v 0.00555898 -0.02650892 -0.00754236
v 0.00523157 -0.02685228 -0.00756689
v 0.00471275 -0.02729469 -0.00745955
v 0.00488065 -0.02717253 -0.00745955
v 0.00893549 -0.01056236 -0.00969419
v 0.00742605 -0.00134438 -0.01003358
v 0.00898082 -0.00935728 -0.00999269
v 0.00776018 -0.00201130 -0.01002540
v 0.00742605 -0.00101093 -0.01003052
v 0.00308746 -0.02799132 -0.00412292
v 0.00307906 -0.02792859 -0.00377025
v 0.00296321 -0.02788567 -0.00361691
v 0.00275333 -0.02789227 -0.00361078
v 0.00241921 -0.02789888 -0.00360669
v 0.00342158 -0.02792199 -0.00712630
v 0.00359116 -0.02787907 -0.00395221
v 0.00412173 -0.02762485 -0.00749329
v 0.00429803 -0.02756872 -0.00740333
v 0.00408815 -0.02768758 -0.00712630
v 0.00375907 -0.02781964 -0.00712630
v 0.00441388 -0.02747628 -0.00749329
v 0.00628431 -0.02229942 0.00040974
v 0.00075026 0.00562192 -0.00946214
v 0.00129930 0.00550967 -0.00860447
v 0.00108438 0.00556580 -0.00879461
v 0.00108438 0.00556909 -0.00912889
v 0.00077880 0.00555589 -0.00982811
v 0.00068814 0.00551297 -0.00997531
v 0.00041781 0.00552287 -0.00998247
v 0.00008537 0.00552618 -0.00998554
v 0.00909164 -0.00924833 0.00040974
v 0.00793479 -0.00115619 -0.00861367
v 0.00762417 -0.00044966 -0.00858403
v 0.00727494 0.00017764 -0.00860447
v 0.00696936 0.00054411 -0.00857483
v 0.00560599 0.00217839 -0.00860754
v 0.00496796 0.00288162 -0.00857483
v 0.00465063 0.00323159 -0.00856358
v 0.00433161 0.00358155 -0.00855438
v 0.00400924 0.00391831 -0.00855234
v 0.00367679 0.00423856 -0.00855438
v 0.00332084 0.00454561 -0.00856767
v 0.00293635 0.00483945 -0.00861265
v 0.00275333 0.00489227 -0.00855847
v 0.00208508 0.00521913 -0.00855745
v 0.00041781 0.00533138 -0.01001723
v 0.00141851 0.00499792 -0.01003256
v 0.00208508 0.00466447 -0.01003358
v 0.00915544 -0.00935728 -0.00946214
v 0.00792976 -0.00149956 -0.00996611
v 0.00807247 -0.00201130 -0.00979642
v 0.00813795 -0.00201130 -0.00946214
v 0.00910507 -0.00969074 -0.00946214
v 0.00648244 -0.02470626 -0.00412292
v 0.00639345 -0.02503972 -0.00712630
v 0.00629943 -0.02532366 -0.00712630
v 0.00623898 -0.02549204 -0.00712630
v 0.00613488 -0.02570994 -0.00712630
v 0.00598713 -0.02598067 -0.00712630
v 0.00588639 -0.02614905 -0.00712630
v 0.00559592 -0.02654854 -0.00731950
v 0.00567651 -0.02639006 -0.00744217
v 0.00541458 -0.02670041 -0.00744320
v 0.00526851 -0.02688860 -0.00734506
v 0.00510732 -0.02698765 -0.00745751
v 0.00491088 -0.02720225 -0.00712630
v 0.00474297 -0.02731780 -0.00712630
v 0.00675948 -0.00001055 -0.01003358
v 0.00796669 -0.00201130 -0.00999065
v 0.00794487 -0.00167784 -0.00997736
v 0.00776018 -0.00167784 -0.01001211
v 0.00709192 -0.00034401 -0.01003052
v 0.00735553 -0.00034401 -0.00999474
v 0.00744956 -0.00065766 -0.01000291
v 0.00766447 -0.00101093 -0.00999576
v 0.00342158 -0.02792199 -0.00412292
v 0.00342158 -0.02789888 -0.00388781
v 0.00318652 -0.02784605 -0.00364656
v 0.00397902 -0.02756542 -0.00360873
v 0.00664698 -0.02224660 0.00040974
v 0.00642535 -0.02229612 0.00040974
v 0.00375907 -0.02781964 -0.00412292
v 0.00408815 -0.02768758 -0.00412292
v 0.00429803 -0.02756872 -0.00388474
v 0.00408983 -0.02761494 -0.00377945
v 0.00448608 -0.02748288 -0.00712630
v 0.00431986 -0.02757863 -0.00712630
v 0.00108438 0.00556909 -0.00946214
v 0.00130098 0.00551297 -0.00968397
v 0.00108438 0.00553278 -0.00975144
v 0.00175263 0.00539411 -0.00879461
v 0.00149239 0.00547005 -0.00879461
v 0.00132616 0.00551627 -0.00879461
v 0.00228153 0.00517621 -0.00860652
v 0.00132616 0.00551957 -0.00912889
v 0.00090977 0.00549316 -0.00995998
v 0.00175263 0.00520922 -0.00999167
v 0.00141851 0.00524884 -0.00999780
v 0.00913529 -0.00935728 0.00040974
v 0.00799692 -0.00134438 -0.00879461
v 0.00793983 -0.00114299 -0.00879461
v 0.00787771 -0.00097461 -0.00879461
v 0.00775682 -0.00067747 -0.00879461
v 0.00763929 -0.00041995 -0.00879461
v 0.00755366 -0.00025157 -0.00879461
v 0.00741094 -0.00001055 -0.00879461
v 0.00728333 0.00019084 -0.00879461
v 0.00715909 0.00035592 -0.00879461
v 0.00699286 0.00057383 -0.00879461
v 0.00685518 0.00073890 -0.00879461
v 0.00668728 0.00093700 -0.00879461
v 0.00623394 0.00146525 -0.00879461
v 0.00546999 0.00235337 -0.00879461
v 0.00453813 0.00343628 -0.00879461
v 0.00437191 0.00362447 -0.00879461
v 0.00422080 0.00379285 -0.00879461
v 0.00405457 0.00396453 -0.00879461
v 0.00388835 0.00412961 -0.00879461
v 0.00372213 0.00427818 -0.00879461
v 0.00352232 0.00444326 -0.00879461
v 0.00335442 0.00457202 -0.00879461
v 0.00311264 0.00474040 -0.00879461
v 0.00294474 0.00484605 -0.00879461
v 0.00275333 0.00495500 -0.00879461
v 0.00246454 0.00510688 -0.00879461
v 0.00175263 0.00499792 -0.01002643
v 0.00241921 0.00466447 -0.01002949
v 0.00275333 0.00432771 -0.01003358
v 0.00915544 -0.00935728 -0.00912889
v 0.00793647 -0.00115289 -0.00966557
v 0.00795662 -0.00137080 -0.00978415
v 0.00802042 -0.00167784 -0.00979642
v 0.00762417 -0.00075340 -0.00998349
v 0.00757548 -0.00053220 -0.00994771
v 0.00807583 -0.00167784 -0.00946214
v 0.00813795 -0.00201130 -0.00912889
v 0.00910507 -0.00969074 0.00040974
v 0.00798516 -0.01569629 0.00040974
v 0.00736225 -0.01903417 0.00040974
v 0.00691059 -0.02145092 0.00040974
v 0.00686190 -0.02170184 0.00040974
v 0.00639345 -0.02503972 -0.00412292
v 0.00906981 -0.00988223 0.00040974
v 0.00895732 -0.01048642 0.00040974
v 0.00629943 -0.02532366 -0.00412292
v 0.00623898 -0.02549204 -0.00412292
v 0.00613488 -0.02570994 -0.00412292
v 0.00598713 -0.02598067 -0.00412292
v 0.00588639 -0.02614905 -0.00412292
v 0.00572688 -0.02637686 -0.00712630
v 0.00559927 -0.02655184 -0.00712630
v 0.00544145 -0.02672022 -0.00712630
v 0.00527522 -0.02689520 -0.00712630
v 0.00491088 -0.02720225 -0.00412292
v 0.00474297 -0.02731780 -0.00412292
v 0.00509053 0.00199350 -0.01003358
v 0.00542298 0.00166004 -0.01003256
v 0.00575710 0.00132658 -0.01003052
v 0.00609123 0.00098982 -0.01002745
v 0.00642535 0.00065637 -0.01002336
v 0.00675948 0.00032291 -0.01001723
v 0.00710032 -0.00000395 -0.01000291
v 0.00729341 -0.00011290 -0.00998247
v 0.00420065 -0.02749939 -0.00366189
v 0.00461873 -0.02722866 -0.00361078
v 0.00669735 -0.02215746 0.00040974
v 0.00519463 -0.02681597 -0.00370073
v 0.00552540 -0.02647260 -0.00371709
v 0.00559592 -0.02654854 -0.00393892
v 0.00596698 -0.02594765 -0.00384794
v 0.00431986 -0.02757863 -0.00412292
v 0.00448608 -0.02748288 -0.00412292
v 0.00468924 -0.02727818 -0.00378865
v 0.00132616 0.00551957 -0.00946214
v 0.00108438 0.00546344 -0.00991909
v 0.00175263 0.00539411 -0.00946214
v 0.00228321 0.00517621 -0.00967988
v 0.00208508 0.00521913 -0.00979335
v 0.00175263 0.00532478 -0.00979642
v 0.00197259 0.00518281 -0.00997838
v 0.00208508 0.00527195 -0.00879461
v 0.00208508 0.00527526 -0.00912889
v 0.00229832 0.00518281 -0.00879461
v 0.00241921 0.00490218 -0.00999371
v 0.00915208 -0.00935728 -0.00045100
v 0.00813628 -0.00201130 -0.00879461
v 0.00807583 -0.00167784 -0.00879461
v 0.00911850 -0.00954878 0.00040974
v 0.00799692 -0.00134438 -0.00946214
v 0.00793983 -0.00114299 -0.00946214
v 0.00787939 -0.00097461 -0.00912889
v 0.00775850 -0.00067747 -0.00912889
v 0.00763929 -0.00041664 -0.00912889
v 0.00755533 -0.00025157 -0.00912889
v 0.00741262 -0.00001055 -0.00912889
v 0.00728333 0.00019084 -0.00946214
v 0.00715909 0.00035922 -0.00912889
v 0.00699286 0.00057383 -0.00946214
v 0.00685518 0.00074221 -0.00912889
v 0.00668896 0.00093700 -0.00912889
v 0.00654456 0.00110538 -0.00912889
v 0.00606772 0.00166004 -0.00912889
v 0.00530377 0.00254816 -0.00912889
v 0.00484875 0.00307641 -0.00912889
v 0.00453813 0.00343628 -0.00946214
v 0.00437191 0.00362447 -0.00946214
v 0.00422080 0.00379285 -0.00946214
v 0.00405457 0.00396453 -0.00946214
v 0.00389003 0.00413291 -0.00912889
v 0.00372213 0.00427818 -0.00946214
v 0.00352232 0.00444326 -0.00946214
v 0.00335610 0.00457202 -0.00912889
v 0.00311264 0.00474040 -0.00946214
v 0.00294642 0.00484605 -0.00912889
v 0.00275333 0.00495831 -0.00912889
v 0.00246622 0.00510688 -0.00912889
v 0.00275333 0.00466777 -0.01000189
v 0.00308746 0.00432771 -0.01002029
v 0.00342158 0.00399425 -0.01002745
v 0.00375403 0.00366079 -0.01002847
v 0.00342158 0.00366079 -0.01003358
v 0.00767790 -0.00065766 -0.00982095
v 0.00762417 -0.00044966 -0.00972588
v 0.00775850 -0.00067747 -0.00946214
v 0.00787939 -0.00097461 -0.00946214
v 0.00721785 0.00010831 -0.00990682
v 0.00734042 -0.00000395 -0.00979540
v 0.00752175 -0.00034071 -0.00982095
v 0.00680649 -0.02189663 0.00040974
v 0.00676619 -0.02203530 0.00040974
v 0.00628599 -0.02528404 -0.00387247
v 0.00572688 -0.02637686 -0.00412292
v 0.00559927 -0.02655184 -0.00412292
v 0.00544145 -0.02672022 -0.00412292
v 0.00527522 -0.02689520 -0.00412292
v 0.00526851 -0.02688860 -0.00392359
v 0.00408815 0.00332733 -0.01002745
v 0.00575542 0.00165674 -0.01000291
v 0.00608283 0.00131338 -0.00999883
v 0.00640856 0.00097001 -0.00999269
v 0.00673597 0.00062665 -0.00998451
v 0.00697943 0.00032291 -0.00998247
v 0.00692906 0.00049459 -0.00996509
v 0.00485547 -0.02715272 -0.00378865
v 0.00508549 -0.02697114 -0.00380296
v 0.00539779 -0.02668390 -0.00382034
v 0.00208508 0.00527526 -0.00946214
v 0.00229832 0.00518281 -0.00946214
v 0.00246622 0.00510688 -0.00946214
v 0.00293802 0.00483945 -0.00966659
v 0.00275333 0.00489888 -0.00978518
v 0.00240410 0.00506726 -0.00979335
v 0.00219590 0.00512008 -0.00990273
v 0.00264252 0.00485926 -0.00998145
v 0.00763929 -0.00041664 -0.00946214
v 0.00755533 -0.00025157 -0.00946214
v 0.00741262 -0.00001055 -0.00946214
v 0.00727494 0.00018094 -0.00968397
v 0.00715909 0.00035922 -0.00946214
v 0.00685518 0.00074221 -0.00946214
v 0.00668896 0.00093700 -0.00946214
v 0.00654456 0.00110538 -0.00946214
v 0.00606772 0.00166004 -0.00946214
v 0.00530377 0.00254816 -0.00946214
v 0.00484875 0.00307641 -0.00946214
v 0.00560599 0.00217839 -0.00967886
v 0.00528865 0.00252835 -0.00971771
v 0.00433497 0.00358485 -0.00979642
v 0.00418050 0.00374993 -0.00979642
v 0.00401428 0.00392492 -0.00979642
v 0.00389003 0.00413291 -0.00946214
v 0.00368015 0.00424187 -0.00979642
v 0.00348035 0.00440694 -0.00979642
v 0.00331413 0.00454231 -0.00979642
v 0.00335610 0.00457202 -0.00946214
v 0.00294642 0.00484605 -0.00946214
v 0.00275333 0.00495831 -0.00946214
v 0.00308746 0.00455221 -0.00998554
v 0.00339472 0.00431120 -0.00999065
v 0.00374060 0.00398434 -0.00999678
v 0.00407640 0.00364758 -0.00999678
v 0.00440549 0.00330422 -0.00999167
v 0.00628767 0.00119452 -0.00997940
v 0.00661004 0.00084455 -0.00997327
v 0.00492599 0.00283210 -0.00996509
v 0.00665370 0.00089738 -0.00979642
v 0.00681992 0.00070259 -0.00979642
v 0.00696096 0.00053421 -0.00979642
v 0.00326711 0.00450599 -0.00996918
v 0.00286415 0.00478332 -0.00988944
v 0.00495957 0.00287172 -0.00979642
v 0.00450119 0.00339667 -0.00979642
v 0.00460529 0.00317876 -0.00997225
v 0.00428292 0.00352543 -0.00997838
v 0.00395551 0.00386549 -0.00998042
v 0.00384805 0.00408999 -0.00979642
v 0.00362139 0.00418904 -0.00997940
f 146 161 133
f 253 194 252
f 478 546 547
f 255 196 253
f 256 196 255
f 41 69 70
f 70 71 41
f 515 519 456
f 387 383 334
f 326 327 277
f 326 277 322
f 105 83 133
f 105 133 161
f 323 276 322
f 547 480 479
f 479 478 547
f 196 134 195
f 195 194 253
f 253 196 195
f 69 114 115
f 72 41 71
f 19 6 18
f 20 6 19
f 455 456 402
f 455 454 515
f 515 456 455
f 354 402 414
f 457 456 519
f 402 456 457
f 457 414 402
f 354 403 353
f 254 252 194
f 511 445 510
f 502 445 501
f 501 445 500
f 501 576 502
f 500 445 499
f 603 651 654
f 162 105 161
f 163 105 162
f 277 223 213
f 213 276 277
f 322 277 325
f 325 323 322
f 277 323 325
f 277 276 324
f 324 323 277
f 276 323 324
f 85 134 135
f 135 136 85
f 85 86 57
f 146 133 95
f 133 83 95
f 83 57 95
f 424 479 480
f 546 631 633
f 702 712 633
f 633 634 546
f 633 712 634
f 546 478 545
f 545 631 546
f 38 64 39
f 70 69 116
f 116 115 70
f 69 115 116
f 178 115 114
f 69 110 111
f 111 112 69
f 110 112 111
f 113 114 69
f 69 112 113
f 9 14 26
f 13 12 31
f 194 195 132
f 132 195 134
f 132 134 85
f 36 14 25
f 14 8 25
f 18 6 17
f 16 5 4
f 4 5 1
f 695 608 607
f 696 608 695
f 520 606 607
f 607 608 520
f 605 606 520
f 520 604 605
f 610 604 520
f 634 712 635
f 546 634 635
f 635 712 702
f 697 608 696
f 485 428 484
f 710 633 631
f 406 353 405
f 307 258 308
f 258 306 308
f 484 428 483
f 413 403 354
f 354 414 413
f 301 255 253
f 253 252 301
f 357 356 355
f 474 473 416
f 355 356 302
f 252 254 302
f 417 473 454
f 418 357 417
f 416 473 417
f 417 357 416
f 438 383 387
f 387 440 438
f 446 440 387
f 387 445 446
f 446 445 511
f 167 225 228
f 330 281 283
f 283 334 330
f 330 334 383
f 283 281 226
f 226 228 283
f 167 228 226
f 226 281 282
f 109 110 69
f 69 108 109
f 166 225 167
f 167 108 166
f 108 165 166
f 503 445 502
f 511 510 560
f 572 500 571
f 500 499 571
f 651 603 595
f 327 326 377
f 377 378 327
f 327 378 379
f 379 436 437
f 488 480 547
f 488 436 480
f 223 162 222
f 222 162 161
f 222 213 223
f 426 364 428
f 376 326 322
f 373 376 322
f 321 376 373
f 88 86 141
f 197 134 196
f 197 135 134
f 197 196 256
f 136 135 199
f 262 310 311
f 262 261 310
f 87 86 88
f 88 57 87
f 87 57 86
f 94 57 93
f 93 95 94
f 94 95 57
f 145 95 93
f 93 144 145
f 146 95 145
f 143 144 93
f 362 422 423
f 423 424 362
f 478 479 423
f 479 424 423
f 259 258 307
f 307 309 259
f 83 105 65
f 38 59 65
f 65 59 58
f 58 57 65
f 105 106 66
f 66 65 105
f 38 65 66
f 66 106 104
f 104 64 66
f 64 38 66
f 18 16 40
f 40 16 39
f 39 68 40
f 67 68 39
f 39 64 67
f 64 103 67
f 160 159 104
f 104 106 160
f 171 112 110
f 495 494 512
f 126 72 71
f 24 8 23
f 24 25 8
f 37 14 36
f 37 26 14
f 9 26 10
f 85 57 81
f 81 132 85
f 453 399 452
f 452 399 451
f 495 512 452
f 349 397 398
f 398 399 349
f 451 399 398
f 7 8 1
f 23 8 7
f 21 22 6
f 21 6 20
f 16 4 15
f 39 16 15
f 15 38 39
f 15 4 13
f 13 35 15
f 15 35 38
f 516 517 454
f 454 473 516
f 516 473 536
f 575 501 500
f 576 501 575
f 515 454 518
f 454 517 518
f 610 520 609
f 609 520 603
f 701 635 702
f 702 620 701
f 636 632 546
f 546 635 636
f 696 632 636
f 636 635 615
f 615 614 636
f 636 697 696
f 697 636 612
f 615 635 698
f 702 633 711
f 711 710 702
f 633 710 711
f 411 410 421
f 353 410 411
f 409 410 353
f 487 469 484
f 430 483 428
f 428 429 430
f 421 410 430
f 484 483 430
f 430 487 484
f 410 469 430
f 469 487 430
f 414 457 471
f 519 459 471
f 471 457 519
f 305 360 306
f 256 255 305
f 415 357 355
f 358 357 418
f 418 417 358
f 356 357 303
f 252 302 303
f 303 302 356
f 357 358 303
f 303 299 252
f 351 299 303
f 303 358 351
f 536 473 535
f 473 474 535
f 416 357 420
f 420 474 416
f 599 516 541
f 541 516 536
f 536 535 541
f 252 299 300
f 300 301 252
f 353 301 300
f 354 353 300
f 352 299 351
f 352 402 354
f 354 300 352
f 352 300 299
f 110 109 169
f 169 109 108
f 107 108 69
f 107 165 108
f 225 166 224
f 224 166 165
f 227 226 282
f 167 226 227
f 504 505 445
f 445 503 504
f 507 585 508
f 508 445 507
f 647 560 649
f 557 560 647
f 647 649 648
f 648 557 647
f 490 560 557
f 511 560 490
f 490 446 511
f 440 446 490
f 653 566 565
f 565 652 653
f 651 652 565
f 654 651 565
f 649 560 591
f 591 682 649
f 591 681 682
f 509 560 510
f 509 591 560
f 509 445 508
f 509 510 445
f 508 587 509
f 747 686 746
f 746 761 747
f 371 321 315
f 327 379 380
f 380 379 437
f 480 436 435
f 436 379 435
f 435 424 480
f 372 371 314
f 365 429 428
f 365 364 308
f 365 359 421
f 421 430 365
f 365 430 429
f 481 426 428
f 542 482 476
f 307 308 363
f 308 364 363
f 364 426 363
f 326 376 375
f 375 376 321
f 85 136 137
f 137 138 85
f 136 138 137
f 139 86 85
f 85 138 139
f 139 138 86
f 206 267 268
f 265 267 206
f 205 206 141
f 257 197 256
f 257 306 258
f 256 305 257
f 257 305 306
f 135 197 198
f 198 199 135
f 197 257 198
f 198 259 199
f 258 259 198
f 198 257 258
f 200 138 136
f 136 199 200
f 88 93 89
f 93 90 89
f 89 57 88
f 89 90 57
f 93 57 92
f 276 213 275
f 275 272 276
f 144 143 209
f 276 272 320
f 321 373 320
f 322 276 320
f 320 373 322
f 544 545 478
f 544 482 545
f 478 423 477
f 477 544 478
f 422 476 477
f 477 423 422
f 38 35 34
f 58 59 34
f 34 59 38
f 34 35 13
f 34 57 58
f 13 33 34
f 34 33 57
f 84 57 83
f 83 65 84
f 84 65 57
f 163 160 164
f 164 160 106
f 115 178 179
f 293 295 294
f 331 330 383
f 282 281 331
f 281 330 331
f 74 41 73
f 41 72 73
f 153 148 97
f 97 152 153
f 97 60 96
f 74 73 44
f 98 97 148
f 348 397 349
f 349 298 348
f 349 399 350
f 350 298 349
f 26 48 27
f 27 10 26
f 9 10 2
f 10 11 2
f 1 8 2
f 2 11 12
f 2 14 9
f 2 8 14
f 2 12 13
f 13 31 32
f 32 33 13
f 28 48 52
f 28 27 48
f 10 27 28
f 20 41 42
f 42 21 20
f 42 41 74
f 517 516 598
f 598 518 517
f 724 723 722
f 572 571 661
f 572 661 573
f 573 500 572
f 596 688 689
f 689 722 721
f 724 722 689
f 689 693 724
f 653 652 602
f 602 652 651
f 651 595 602
f 403 459 460
f 608 697 611
f 697 612 611
f 613 636 614
f 613 612 636
f 619 532 530
f 530 527 619
f 619 527 618
f 699 698 635
f 553 485 484
f 484 552 553
f 405 464 465
f 464 524 465
f 616 527 526
f 530 532 470
f 532 469 470
f 470 469 410
f 410 468 470
f 406 468 407
f 353 406 407
f 529 527 530
f 530 468 529
f 412 411 421
f 353 411 412
f 421 359 412
f 412 359 353
f 403 413 458
f 458 459 403
f 458 471 459
f 458 413 414
f 414 471 458
f 360 305 304
f 353 359 304
f 304 359 360
f 304 305 255
f 255 301 304
f 304 301 353
f 351 358 400
f 400 358 417
f 400 352 351
f 472 420 419
f 419 420 357
f 419 415 472
f 357 415 419
f 537 535 474
f 537 541 535
f 475 420 472
f 474 420 475
f 540 541 475
f 475 537 474
f 541 537 475
f 229 227 285
f 451 398 447
f 398 448 447
f 448 389 447
f 444 452 451
f 451 447 444
f 444 447 389
f 336 284 335
f 284 333 335
f 505 504 582
f 498 497 565
f 498 569 499
f 568 569 498
f 498 565 566
f 445 497 498
f 498 499 445
f 589 509 588
f 588 509 587
f 508 585 586
f 586 587 508
f 590 509 589
f 591 509 590
f 589 681 590
f 681 591 590
f 502 576 577
f 579 668 669
f 703 622 686
f 686 747 703
f 746 684 745
f 745 684 744
f 680 681 589
f 589 588 680
f 762 736 761
f 678 588 587
f 587 586 678
f 716 742 679
f 716 743 742
f 741 716 679
f 740 716 741
f 755 716 740
f 755 745 744
f 740 739 755
f 755 739 738
f 321 371 374
f 374 371 377
f 374 375 321
f 374 377 326
f 326 375 374
f 314 371 316
f 316 371 315
f 424 435 425
f 425 435 379
f 379 431 425
f 425 366 362
f 362 424 425
f 367 366 425
f 425 431 367
f 434 379 378
f 378 377 434
f 377 372 434
f 434 431 379
f 377 371 433
f 433 372 377
f 371 372 433
f 367 372 368
f 428 364 427
f 427 365 428
f 364 365 427
f 361 308 306
f 361 365 308
f 359 365 361
f 306 360 361
f 360 359 361
f 315 321 317
f 321 318 317
f 88 141 142
f 141 206 142
f 142 206 143
f 142 93 88
f 142 143 93
f 143 206 210
f 261 262 201
f 201 200 261
f 199 259 260
f 260 200 199
f 261 200 260
f 310 261 260
f 369 368 372
f 57 90 91
f 91 92 57
f 91 90 93
f 93 92 91
f 144 209 212
f 146 145 212
f 212 145 144
f 321 320 273
f 482 544 543
f 544 477 543
f 543 476 482
f 543 477 476
f 639 620 702
f 702 710 639
f 639 710 631
f 533 469 532
f 533 552 484
f 484 469 533
f 428 485 486
f 115 179 180
f 112 171 172
f 391 392 343
f 167 227 168
f 168 227 229
f 168 108 167
f 168 169 108
f 344 292 343
f 344 293 292
f 295 293 344
f 282 331 332
f 440 490 441
f 442 443 385
f 442 494 495
f 495 443 442
f 72 126 127
f 127 73 72
f 36 25 46
f 46 60 36
f 25 24 46
f 24 45 46
f 46 45 60
f 147 97 96
f 149 97 147
f 153 152 214
f 152 97 151
f 97 98 61
f 36 60 61
f 60 97 61
f 153 156 155
f 155 156 100
f 217 156 153
f 153 182 217
f 217 182 248
f 100 156 157
f 156 221 157
f 158 157 191
f 100 157 158
f 191 130 158
f 26 37 47
f 37 63 47
f 47 48 26
f 62 37 36
f 62 63 37
f 36 61 62
f 62 61 98
f 53 28 52
f 3 4 1
f 1 2 3
f 13 4 3
f 3 2 13
f 57 33 56
f 56 81 57
f 56 82 81
f 132 81 80
f 21 42 43
f 22 21 43
f 597 516 596
f 596 598 597
f 597 598 516
f 601 598 596
f 518 598 601
f 596 655 601
f 660 661 571
f 459 521 461
f 461 460 459
f 521 462 461
f 522 462 521
f 635 701 700
f 700 699 635
f 618 527 617
f 527 616 617
f 526 527 466
f 466 465 526
f 405 465 466
f 526 465 525
f 525 465 524
f 531 468 530
f 530 470 531
f 531 470 468
f 408 468 410
f 408 407 468
f 410 409 408
f 408 409 353
f 353 407 408
f 467 468 406
f 467 529 468
f 527 529 467
f 467 406 405
f 405 466 467
f 401 400 417
f 401 417 454
f 402 352 401
f 352 400 401
f 401 455 402
f 454 455 401
f 534 475 472
f 593 684 685
f 686 594 685
f 685 594 593
f 746 686 685
f 685 684 746
f 453 452 513
f 513 452 512
f 686 622 687
f 687 594 686
f 564 512 494
f 683 684 593
f 593 650 683
f 744 684 683
f 237 293 294
f 292 293 237
f 292 341 340
f 229 285 230
f 230 168 229
f 449 448 398
f 449 393 448
f 449 398 397
f 390 335 389
f 343 392 390
f 390 393 343
f 390 389 448
f 448 393 390
f 392 391 390
f 495 452 496
f 452 444 496
f 496 443 495
f 496 444 443
f 389 335 386
f 386 444 389
f 443 444 386
f 386 335 333
f 386 333 385
f 385 443 386
f 581 504 503
f 581 582 504
f 581 503 502
f 558 490 557
f 557 561 558
f 570 571 499
f 499 569 570
f 567 498 566
f 568 498 567
f 567 657 568
f 578 668 579
f 578 579 502
f 502 577 578
f 574 663 575
f 573 663 574
f 574 575 500
f 500 573 574
f 665 577 576
f 576 575 665
f 539 629 599
f 599 541 539
f 539 541 540
f 540 475 539
f 599 629 600
f 600 516 599
f 600 689 688
f 596 516 600
f 600 688 596
f 644 555 643
f 749 750 707
f 724 693 692
f 693 600 692
f 692 600 629
f 673 672 734
f 672 733 734
f 677 739 740
f 740 741 677
f 745 755 763
f 763 761 746
f 746 745 763
f 763 762 761
f 738 762 763
f 763 755 738
f 432 434 372
f 431 434 432
f 432 372 367
f 367 431 432
f 269 206 268
f 269 210 206
f 262 264 202
f 138 200 140
f 200 201 140
f 201 202 140
f 86 138 140
f 140 141 86
f 370 372 314
f 370 369 372
f 312 262 311
f 208 209 143
f 143 207 208
f 143 210 211
f 211 207 143
f 620 639 621
f 631 545 630
f 70 118 119
f 119 118 185
f 119 120 70
f 216 182 153
f 117 118 70
f 70 115 117
f 238 172 171
f 294 295 239
f 343 292 342
f 342 391 343
f 292 340 342
f 336 335 388
f 388 391 336
f 335 390 388
f 388 390 391
f 343 393 394
f 394 344 343
f 491 441 490
f 384 332 331
f 383 438 384
f 384 331 383
f 384 438 440
f 440 441 384
f 96 60 75
f 60 45 75
f 125 126 71
f 71 124 125
f 120 119 186
f 186 119 185
f 153 214 215
f 215 216 153
f 122 71 70
f 124 188 189
f 218 217 248
f 245 278 218
f 219 156 218
f 156 217 218
f 154 148 153
f 153 155 154
f 154 98 148
f 154 155 98
f 220 156 219
f 220 221 156
f 220 280 249
f 249 221 220
f 347 348 298
f 192 157 221
f 192 130 191
f 191 157 192
f 249 250 192
f 192 221 249
f 48 47 76
f 76 47 63
f 130 128 76
f 76 63 102
f 250 251 193
f 193 192 250
f 130 192 193
f 129 158 130
f 102 158 129
f 130 76 129
f 129 76 102
f 100 62 99
f 99 62 98
f 99 155 100
f 98 155 99
f 63 62 101
f 102 63 101
f 101 158 102
f 100 158 101
f 101 62 100
f 82 56 55
f 81 82 55
f 55 32 31
f 33 32 55
f 55 56 33
f 54 80 81
f 54 55 31
f 81 55 54
f 460 461 404
f 404 353 403
f 403 460 404
f 404 461 462
f 405 353 404
f 404 462 463
f 404 464 405
f 463 464 404
f 523 464 463
f 523 524 464
f 463 462 523
f 462 522 523
f 528 466 527
f 527 467 528
f 528 467 466
f 453 513 514
f 593 594 514
f 514 513 593
f 593 513 592
f 592 513 512
f 512 564 592
f 592 650 593
f 556 555 562
f 640 555 554
f 562 555 641
f 641 646 562
f 555 646 641
f 645 555 644
f 644 646 645
f 645 646 555
f 756 755 720
f 650 646 720
f 720 755 744
f 744 683 720
f 720 683 650
f 563 494 562
f 562 646 563
f 563 564 494
f 563 592 564
f 563 646 650
f 650 592 563
f 336 391 337
f 337 391 338
f 169 168 232
f 502 579 580
f 580 581 502
f 579 669 580
f 445 505 506
f 506 507 445
f 505 582 506
f 582 583 506
f 585 507 584
f 507 506 584
f 584 506 583
f 659 660 571
f 571 570 659
f 658 569 568
f 568 657 658
f 658 570 569
f 658 659 570
f 596 691 656
f 656 655 596
f 726 753 732
f 731 730 732
f 732 671 731
f 732 672 671
f 732 733 672
f 668 578 667
f 667 578 577
f 724 726 664
f 664 725 724
f 662 723 724
f 724 725 662
f 693 689 694
f 694 600 693
f 689 600 694
f 743 716 715
f 716 643 715
f 717 643 716
f 717 755 756
f 716 755 717
f 756 720 717
f 724 692 709
f 707 750 709
f 709 708 707
f 709 692 629
f 629 708 709
f 735 736 673
f 673 734 735
f 319 318 321
f 321 273 319
f 263 201 262
f 262 202 263
f 263 202 201
f 264 266 203
f 203 202 264
f 203 140 202
f 203 266 265
f 204 205 141
f 141 140 204
f 140 203 204
f 206 205 204
f 265 206 204
f 204 203 265
f 313 264 262
f 262 312 313
f 274 273 320
f 320 270 274
f 271 320 272
f 271 270 320
f 545 482 551
f 551 630 545
f 115 180 181
f 181 117 115
f 118 117 183
f 185 118 183
f 295 241 240
f 240 239 295
f 177 178 114
f 114 113 177
f 242 241 295
f 295 243 242
f 296 243 295
f 338 391 339
f 391 342 339
f 339 342 340
f 393 449 450
f 450 394 393
f 450 449 397
f 397 394 450
f 441 491 492
f 559 491 490
f 490 558 559
f 559 558 561
f 439 442 385
f 190 125 124
f 126 125 190
f 123 188 124
f 123 122 188
f 123 124 71
f 71 122 123
f 70 120 121
f 121 122 70
f 150 97 149
f 150 151 97
f 245 218 246
f 249 280 297
f 297 250 249
f 297 251 250
f 298 251 297
f 297 347 298
f 395 394 397
f 344 394 395
f 219 218 279
f 279 218 278
f 278 296 279
f 279 296 328
f 279 220 219
f 280 220 279
f 295 344 345
f 131 128 130
f 130 193 131
f 28 53 49
f 49 50 28
f 132 80 78
f 30 31 12
f 12 11 30
f 623 534 622
f 623 624 534
f 622 703 623
f 703 624 623
f 493 556 562
f 562 494 493
f 494 442 493
f 719 646 644
f 719 720 646
f 719 717 720
f 644 643 719
f 291 341 292
f 292 237 291
f 234 289 290
f 170 238 171
f 170 171 110
f 110 169 170
f 286 230 285
f 168 230 231
f 231 232 168
f 233 234 169
f 169 232 233
f 233 289 234
f 670 580 669
f 736 762 737
f 738 676 737
f 737 762 738
f 690 691 596
f 690 689 721
f 596 689 690
f 726 732 727
f 727 732 728
f 728 732 729
f 729 732 730
f 629 539 628
f 628 708 629
f 707 708 628
f 628 627 707
f 705 747 748
f 627 626 705
f 748 749 705
f 555 640 642
f 642 643 555
f 642 713 643
f 643 713 714
f 714 715 643
f 752 732 753
f 753 709 752
f 752 709 732
f 751 709 750
f 751 757 733
f 733 732 751
f 732 709 751
f 724 709 754
f 754 709 753
f 754 726 724
f 754 753 726
f 760 735 734
f 761 736 760
f 736 735 760
f 760 747 761
f 748 747 760
f 760 749 748
f 630 551 550
f 550 639 631
f 631 630 550
f 550 637 638
f 550 551 482
f 638 621 550
f 550 621 639
f 117 181 184
f 184 181 180
f 173 174 112
f 112 172 173
f 176 113 112
f 176 177 113
f 243 296 244
f 244 278 245
f 244 296 278
f 346 296 295
f 328 296 346
f 295 345 346
f 346 345 328
f 232 231 288
f 554 555 489
f 555 556 489
f 556 493 489
f 442 439 489
f 489 493 442
f 188 122 187
f 122 121 187
f 247 218 248
f 247 246 218
f 329 297 280
f 280 279 329
f 347 297 329
f 329 382 347
f 329 279 328
f 328 382 329
f 381 382 328
f 381 345 344
f 328 345 381
f 344 395 381
f 128 131 77
f 77 76 128
f 77 53 52
f 52 48 77
f 48 76 77
f 50 78 79
f 79 78 80
f 28 50 51
f 50 79 51
f 51 54 31
f 31 30 51
f 80 54 51
f 51 79 80
f 643 717 718
f 718 719 643
f 717 719 718
f 236 170 235
f 235 290 236
f 234 290 235
f 169 234 235
f 235 170 169
f 287 288 231
f 585 584 675
f 675 584 583
f 673 736 674
f 736 737 674
f 577 665 666
f 666 667 577
f 538 626 627
f 475 534 538
f 534 624 538
f 627 628 538
f 538 539 475
f 538 628 539
f 625 624 703
f 703 626 625
f 625 538 624
f 626 538 625
f 707 627 706
f 627 705 706
f 706 749 707
f 706 705 749
f 704 703 747
f 747 705 704
f 704 626 703
f 704 705 626
f 758 751 734
f 757 751 758
f 758 734 733
f 733 757 758
f 734 751 759
f 759 760 734
f 749 760 759
f 750 749 759
f 759 751 750
f 549 550 482
f 637 550 549
f 482 548 549
f 112 174 175
f 175 176 112
f 347 382 396
f 382 381 396
f 396 381 395
f 348 347 396
f 397 348 396
f 396 395 397
f 28 51 29
f 29 51 30
f 10 28 29
f 29 11 10
f 29 30 11
f 159 103 64
f 159 64 104
f 17 16 18
f 17 5 16
f 17 6 1
f 1 5 17
f 595 603 519
f 595 519 515
f 146 213 222
f 222 161 146
f 366 309 307
f 307 362 366
f 310 309 366
f 366 367 310
f 1 6 7
f 6 22 7
f 519 603 459
f 603 520 459
f 428 482 481
f 481 482 542
f 476 481 542
f 426 481 476
f 363 362 307
f 363 422 362
f 426 476 363
f 363 476 422
f 164 106 105
f 164 105 163
f 284 227 333
f 333 227 282
f 602 595 515
f 515 518 602
f 521 459 520
f 521 520 608
f 620 532 619
f 619 701 620
f 615 698 616
f 616 526 615
f 285 227 284
f 285 284 336
f 607 606 497
f 163 162 497
f 547 546 497
f 497 445 387
f 546 632 497
f 497 67 103
f 497 695 607
f 69 41 497
f 497 223 277
f 497 334 283
f 277 327 497
f 497 160 163
f 497 604 610
f 497 41 20
f 497 19 18
f 387 334 497
f 225 224 497
f 654 565 497
f 610 609 497
f 605 604 497
f 497 606 605
f 497 488 547
f 20 19 497
f 497 632 696
f 283 228 497
f 497 603 654
f 437 436 497
f 497 162 223
f 18 40 497
f 103 159 497
f 696 695 497
f 497 228 225
f 497 107 69
f 436 488 497
f 497 40 68
f 68 67 497
f 159 160 497
f 497 609 603
f 165 107 497
f 497 224 165
f 327 380 497
f 497 380 437
f 742 743 680
f 680 743 681
f 679 742 680
f 680 588 679
f 679 588 741
f 588 678 741
f 310 367 368
f 311 310 368
f 317 267 265
f 265 315 317
f 317 318 268
f 268 267 317
f 260 309 310
f 260 259 309
f 266 315 265
f 266 316 315
f 266 264 314
f 314 316 266
f 212 213 146
f 212 275 213
f 212 209 272
f 272 275 212
f 486 482 428
f 486 548 482
f 332 333 282
f 385 333 332
f 45 44 73
f 24 44 45
f 43 7 22
f 23 7 43
f 43 44 24
f 43 24 23
f 74 44 43
f 43 42 74
f 601 602 518
f 653 602 601
f 601 566 653
f 601 655 566
f 723 661 660
f 660 722 723
f 522 521 608
f 608 611 522
f 701 619 700
f 700 619 618
f 617 700 618
f 699 700 617
f 617 616 698
f 698 699 617
f 615 526 525
f 525 614 615
f 525 613 614
f 525 524 613
f 673 582 581
f 581 672 673
f 738 739 677
f 677 676 738
f 585 676 677
f 677 586 585
f 677 741 678
f 677 678 586
f 311 368 312
f 368 369 312
f 621 532 620
f 621 533 532
f 621 638 552
f 552 533 621
f 172 238 239
f 239 238 294
f 75 127 126
f 75 126 96
f 75 45 73
f 73 127 75
f 214 186 215
f 215 186 185
f 613 524 523
f 612 613 523
f 523 522 611
f 523 611 612
f 672 581 580
f 671 672 580
f 722 660 659
f 721 722 659
f 656 691 657
f 657 567 656
f 566 655 656
f 656 567 566
f 726 665 664
f 664 665 575
f 575 663 664
f 663 725 664
f 662 661 723
f 662 573 661
f 662 725 663
f 662 663 573
f 681 743 715
f 682 681 715
f 268 318 319
f 319 269 268
f 319 273 210
f 210 269 319
f 314 264 313
f 313 370 314
f 313 312 369
f 369 370 313
f 210 273 274
f 274 211 210
f 207 211 274
f 274 270 207
f 272 209 271
f 209 208 271
f 207 270 271
f 271 208 207
f 183 117 182
f 182 216 183
f 183 215 185
f 216 215 183
f 561 640 492
f 492 640 554
f 561 492 559
f 559 492 491
f 385 332 439
f 332 384 439
f 149 147 190
f 190 124 149
f 96 126 190
f 190 147 96
f 149 124 150
f 124 189 150
f 188 151 150
f 150 189 188
f 178 245 246
f 246 179 178
f 290 291 236
f 341 291 290
f 290 340 341
f 290 289 340
f 236 291 170
f 170 291 237
f 294 238 170
f 170 237 294
f 286 285 336
f 336 337 286
f 669 730 670
f 670 730 731
f 671 580 670
f 731 671 670
f 721 659 690
f 659 658 690
f 657 691 690
f 690 658 657
f 729 667 728
f 668 667 729
f 729 730 669
f 729 669 668
f 642 640 561
f 642 561 557
f 642 557 648
f 648 713 642
f 714 713 648
f 648 649 714
f 682 715 714
f 649 682 714
f 552 638 637
f 637 553 552
f 182 117 184
f 248 182 184
f 173 240 241
f 173 241 174
f 172 239 173
f 239 240 173
f 244 245 178
f 178 177 244
f 244 176 243
f 177 176 244
f 288 233 232
f 289 233 288
f 340 289 288
f 288 339 340
f 489 492 554
f 441 492 489
f 489 439 384
f 489 384 441
f 187 186 214
f 187 214 152
f 120 186 187
f 187 121 120
f 187 151 188
f 152 151 187
f 248 184 247
f 247 184 180
f 179 246 247
f 247 180 179
f 77 254 194
f 77 415 355
f 77 399 453
f 77 350 399
f 194 132 77
f 355 302 77
f 77 302 254
f 77 49 53
f 472 415 77
f 77 193 251
f 298 350 77
f 77 251 298
f 77 534 472
f 77 687 622
f 622 534 77
f 594 687 77
f 453 514 77
f 132 78 77
f 77 514 594
f 77 131 193
f 50 49 77
f 77 78 50
f 287 286 337
f 287 337 338
f 230 286 287
f 287 231 230
f 339 288 287
f 338 339 287
f 675 676 585
f 675 737 676
f 674 582 673
f 674 583 582
f 737 675 674
f 674 675 583
f 666 665 726
f 726 727 666
f 728 667 666
f 666 727 728
f 548 486 549
f 549 486 485
f 553 637 549
f 485 553 549
f 174 241 175
f 241 242 175
f 243 176 175
f 175 242 243

