# https://github.com/mikedh/trimesh
v 0.00021043 0.00839733 0.00939021
v 0.00019399 0.00772166 0.01073972
v 0.00139901 0.00759672 0.01073972
v 0.00152230 0.00825924 0.00939021
v 0.00021043 0.00839733 0.00863597
v -0.00110310 0.00832664 0.00939021
v -0.00101432 0.00765755 0.01073972
v 0.00257115 0.00728437 0.01073972
v 0.00279473 0.00792058 0.00939021
v 0.00152230 0.00825924 0.00863597
v 0.00116885 0.00634896 0.00784028
v 0.00016111 0.00645253 0.00784028
v -0.00084828 0.00639992 0.00784028
v -0.00110310 0.00832664 0.00863597
v -0.00239196 0.00805046 0.00939021
v -0.00219961 0.00740438 0.01073972
v 0.00367918 0.00679119 0.01073972
v 0.00399975 0.00738465 0.00939021
v 0.00279473 0.00792058 0.00863597
v 0.00214865 0.00608757 0.00784028
v -0.00183959 0.00618785 0.00784028
v -0.00239196 0.00805046 0.00863597
v -0.00362328 0.00757700 0.00939021
v -0.00333230 0.00696873 0.01073972
v 0.00469678 0.00613196 0.01073972
v 0.00510613 0.00666789 0.00939021
v 0.00399975 0.00738465 0.00863597
v 0.00307420 0.00567658 0.00784028
v -0.00278486 0.00582289 0.00784028
v -0.00362328 0.00757700 0.00863597
v -0.00476419 0.00691777 0.00939021
v -0.00438114 0.00636211 0.01073972
v 0.00559767 0.00532149 0.01073972
v 0.00608593 0.00578673 0.00939021
v 0.00510613 0.00666789 0.00863597
v 0.00392412 0.00512421 0.00784028
v -0.00366109 0.00531656 0.00784028
v -0.00476419 0.00691777 0.00863597
v -0.00578673 0.00608593 0.00939021
v -0.00532149 0.00559767 0.01073972
v 0.00636211 0.00438114 0.01073972
v 0.00691777 0.00476419 0.00939021
v 0.00608593 0.00578673 0.00863597
v 0.00467870 0.00444855 0.00784028
v -0.00444855 0.00467870 0.00784028
v -0.00578673 0.00608593 0.00863597
v -0.00666789 0.00510613 0.00939021
v -0.00613196 0.00469678 0.01073972
v 0.00696873 0.00333230 0.01073972
v 0.00691777 0.00476419 0.00863597
v 0.00757700 0.00362328 0.00939021
v 0.00531656 0.00366109 0.00784028
v -0.00512421 0.00392412 0.00784028
v -0.00666789 0.00510613 0.00863597
v -0.00738465 0.00399975 0.00939021
v -0.00679119 0.00367918 0.01073972
v 0.00740438 0.00219961 0.01073972
v 0.00757700 0.00362328 0.00863597
v 0.00582289 0.00278486 0.00784028
v 0.00805046 0.00239196 0.00939021
v -0.00567658 0.00307420 0.00784028
v -0.00738465 0.00399975 0.00863597
v -0.00728437 0.00257115 0.01073972
v -0.00792058 0.00279473 0.00939021
v 0.00765755 0.00101432 0.01073972
v 0.00832664 0.00110310 0.00939021
v 0.00805046 0.00239196 0.00863597
v 0.00618785 0.00183959 0.00784028
v -0.00608757 0.00214865 0.00784028
v -0.00792058 0.00279473 0.00863597
v -0.00759672 0.00139901 0.01073972
v -0.00825924 0.00152230 0.00939021
v 0.00772166 -0.00019399 0.01073972
v 0.00839733 -0.00021043 0.00939021
v 0.00832664 0.00110310 0.00863597
v 0.00639992 0.00084828 0.00784028
v -0.00634896 0.00116885 0.00784028
v -0.00825924 0.00152230 0.00863597
v -0.00839733 0.00021043 0.00939021
v -0.00772166 0.00019399 0.01073972
v 0.00759672 -0.00139901 0.01073972
v 0.00839733 -0.00021043 0.00863597
v 0.00825924 -0.00152230 0.00939021
v 0.00645253 -0.00016111 0.00784028
v -0.00645253 0.00016111 0.00784028
v -0.00839733 0.00021043 0.00863597
v -0.00832664 -0.00110310 0.00939021
v -0.00765755 -0.00101432 0.01073972
v 0.00728437 -0.00257115 0.01073972
v 0.00792058 -0.00279473 0.00939021
v 0.00825924 -0.00152230 0.00863597
v 0.00634896 -0.00116885 0.00784028
v -0.00639992 -0.00084828 0.00784028
v -0.00832664 -0.00110310 0.00863597
v -0.00805046 -0.00239196 0.00939021
v -0.00740438 -0.00219961 0.01073972
v 0.00738465 -0.00399975 0.00939021
v 0.00679119 -0.00367918 0.01073972
v 0.00792058 -0.00279473 0.00863597
v 0.00608757 -0.00214865 0.00784028
v -0.00618785 -0.00183959 0.00784028
v -0.00805046 -0.00239196 0.00863597
v -0.00757700 -0.00362328 0.00939021
v -0.00696873 -0.00333230 0.01073972
v 0.00613196 -0.00469678 0.01073972
v 0.00666789 -0.00510613 0.00939021
v 0.00738465 -0.00399975 0.00863597
v 0.00567658 -0.00307420 0.00784028
v -0.00582289 -0.00278486 0.00784028
v -0.00757700 -0.00362328 0.00863597
v -0.00691777 -0.00476419 0.00939021
v -0.00636211 -0.00438114 0.01073972
v 0.00532149 -0.00559767 0.01073972
v 0.00578673 -0.00608593 0.00939021
v 0.00666789 -0.00510613 0.00863597
v 0.00512421 -0.00392412 0.00784028
v -0.00531656 -0.00366109 0.00784028
v -0.00691777 -0.00476419 0.00863597
v -0.00608593 -0.00578673 0.00939021
v -0.00559767 -0.00532149 0.01073972
v 0.00438114 -0.00636211 0.01073972
v 0.00476419 -0.00691777 0.00939021
v 0.00578673 -0.00608593 0.00863597
v 0.00444855 -0.00467870 0.00784028
v -0.00467870 -0.00444855 0.00784028
v -0.00608593 -0.00578673 0.00863597
v -0.00510613 -0.00666789 0.00939021
v -0.00469678 -0.00613196 0.01073972
v 0.00333230 -0.00696873 0.01073972
v 0.00362328 -0.00757700 0.00939021
v 0.00476419 -0.00691777 0.00863597
v 0.00366109 -0.00531656 0.00784028
v -0.00392412 -0.00512421 0.00784028
v -0.00510613 -0.00666789 0.00863597
v -0.00399975 -0.00738465 0.00939021
v -0.00367918 -0.00679119 0.01073972
v 0.00219961 -0.00740438 0.01073972
v 0.00239196 -0.00805046 0.00939021
v 0.00362328 -0.00757700 0.00863597
v 0.00278486 -0.00582289 0.00784028
v -0.00307420 -0.00567658 0.00784028
v -0.00399975 -0.00738465 0.00863597
v -0.00279473 -0.00792058 0.00939021
v -0.00257115 -0.00728437 0.01073972
v 0.00101432 -0.00765755 0.01073972
v 0.00110310 -0.00832664 0.00939021
v 0.00239196 -0.00805046 0.00863597
v 0.00183959 -0.00618785 0.00784028
v -0.00214865 -0.00608757 0.00784028
v -0.00279473 -0.00792058 0.00863597
v -0.00152230 -0.00825924 0.00939021
v -0.00139901 -0.00759672 0.01073972
v -0.00019399 -0.00772166 0.01073972
v -0.00021043 -0.00839733 0.00939021
v 0.00110310 -0.00832664 0.00863597
v 0.00084828 -0.00639992 0.00784028
v -0.00116885 -0.00634896 0.00784028
v -0.00152230 -0.00825924 0.00863597
v -0.00021043 -0.00839733 0.00863597
v -0.00016111 -0.00645253 0.00784028
f 49 51 42
f 88 80 79
f 61 62 54
f 144 135 143
f 115 123 124
f 50 44 43
f 66 65 74
f 107 115 108
f 99 108 100
f 107 108 99
f 73 81 74
f 74 65 73
f 74 81 83
f 81 90 83
f 49 42 41
f 145 153 154
f 152 151 154
f 154 153 152
f 144 143 152
f 152 143 151
f 137 145 146
f 146 145 154
f 113 121 122
f 13 21 14
f 55 64 63
f 110 109 118
f 127 128 119
f 135 128 127
f 87 88 79
f 86 93 94
f 94 93 101
f 101 102 94
f 101 109 110
f 110 102 101
f 150 149 157
f 124 123 131
f 159 157 160
f 136 135 144
f 136 128 135
f 119 128 120
f 68 67 75
f 44 50 52
f 58 67 68
f 116 115 124
f 116 108 115
f 89 90 81
f 3 8 9
f 11 19 20
f 20 19 28
f 11 12 5
f 12 13 5
f 5 13 14
f 34 26 25
f 9 8 18
f 25 26 18
f 35 36 28
f 44 36 35
f 43 44 35
f 138 130 137
f 137 146 138
f 137 130 129
f 130 122 129
f 129 122 121
f 37 45 38
f 61 54 53
f 54 45 53
f 14 21 22
f 21 30 22
f 16 15 23
f 23 24 16
f 6 15 16
f 79 80 71
f 71 72 79
f 64 72 71
f 71 63 64
f 40 39 48
f 125 134 126
f 126 118 125
f 111 120 112
f 119 120 111
f 112 104 111
f 111 104 103
f 125 118 117
f 117 118 109
f 141 142 134
f 150 142 141
f 141 149 150
f 93 86 85
f 85 86 77
f 61 69 70
f 70 62 61
f 70 69 77
f 55 48 47
f 47 48 39
f 38 45 46
f 46 45 54
f 31 39 40
f 31 24 23
f 124 131 132
f 150 157 158
f 157 159 158
f 97 89 98
f 90 89 97
f 106 97 105
f 105 97 98
f 113 122 114
f 114 105 113
f 106 105 114
f 76 75 82
f 82 84 76
f 68 75 76
f 92 82 91
f 92 84 82
f 91 99 92
f 92 99 100
f 59 58 68
f 50 58 59
f 59 52 50
f 57 60 51
f 57 51 49
f 66 60 57
f 65 66 57
f 2 3 1
f 33 34 25
f 42 34 33
f 33 41 42
f 25 18 17
f 17 18 8
f 28 19 27
f 27 35 28
f 38 30 29
f 29 37 38
f 29 30 21
f 6 16 7
f 7 1 6
f 2 1 7
f 55 63 56
f 56 48 55
f 133 134 125
f 133 141 134
f 87 95 96
f 88 87 96
f 96 95 103
f 103 104 96
f 77 86 78
f 78 70 77
f 32 31 40
f 24 31 32
f 140 131 139
f 140 132 131
f 139 148 140
f 148 155 156
f 156 155 159
f 156 159 160
f 147 148 139
f 147 155 148
f 4 3 9
f 4 1 3
f 10 19 11
f 11 5 10
f 91 82 83
f 83 82 74
f 83 99 91
f 90 99 83
f 142 143 135
f 150 143 142
f 135 127 142
f 142 127 134
f 94 87 86
f 86 87 79
f 131 122 130
f 130 139 131
f 74 82 75
f 75 66 74
f 58 50 42
f 58 42 51
f 60 58 51
f 67 58 60
f 66 75 60
f 60 75 67
f 42 50 34
f 34 50 43
f 35 34 43
f 26 34 35
f 22 15 6
f 22 6 14
f 22 30 23
f 23 15 22
f 134 127 126
f 126 127 119
f 111 126 119
f 118 126 111
f 111 103 110
f 110 118 111
f 110 103 95
f 95 102 110
f 95 87 94
f 94 102 95
f 55 62 70
f 70 64 55
f 47 62 55
f 47 54 62
f 54 47 46
f 46 47 39
f 23 30 31
f 31 30 38
f 31 46 39
f 38 46 31
f 158 143 150
f 151 143 158
f 154 151 158
f 158 159 154
f 154 159 155
f 155 146 154
f 97 99 90
f 107 99 97
f 97 115 107
f 97 106 115
f 122 131 114
f 114 131 123
f 115 106 114
f 123 115 114
f 14 6 1
f 1 5 14
f 27 19 9
f 9 18 27
f 26 35 27
f 27 18 26
f 78 86 79
f 79 72 78
f 64 70 78
f 78 72 64
f 81 73 32
f 80 88 32
f 144 152 32
f 40 48 32
f 32 145 137
f 32 89 81
f 113 105 32
f 32 121 113
f 32 104 112
f 49 41 32
f 25 17 32
f 137 129 32
f 32 136 144
f 32 73 65
f 112 120 32
f 32 33 25
f 32 57 49
f 153 145 32
f 32 152 153
f 32 3 2
f 88 96 32
f 32 71 80
f 32 56 63
f 128 136 32
f 32 120 128
f 98 89 32
f 8 3 32
f 32 129 121
f 32 16 24
f 63 71 32
f 2 7 32
f 32 105 98
f 65 57 32
f 41 33 32
f 32 17 8
f 32 7 16
f 48 56 32
f 32 96 104
f 156 59 68
f 61 53 156
f 156 12 11
f 125 117 156
f 156 116 124
f 156 13 12
f 160 157 156
f 124 132 156
f 156 36 44
f 156 92 100
f 156 29 21
f 156 69 61
f 156 101 93
f 93 85 156
f 100 108 156
f 21 13 156
f 11 20 156
f 77 69 156
f 109 101 156
f 156 157 149
f 156 140 148
f 28 36 156
f 68 76 156
f 44 52 156
f 108 116 156
f 156 20 28
f 45 37 156
f 156 53 45
f 156 117 109
f 149 141 156
f 156 85 77
f 156 133 125
f 156 76 84
f 84 92 156
f 52 59 156
f 37 29 156
f 141 133 156
f 132 140 156
f 147 139 130
f 130 138 147
f 146 155 147
f 147 138 146
f 9 19 10
f 10 4 9
f 5 1 10
f 1 4 10

