# https://github.com/mikedh/trimesh
v -0.00006595 -0.00753106 0.00688603
v -0.00006595 -0.00779967 0.00688603
v -0.00006595 -0.00699700 0.00686211
v -0.00008107 -0.00538377 0.00743155
v -0.00006595 -0.00830693 0.00686660
v -0.00006595 -0.00672629 0.00675301
v -0.00007906 -0.00511516 0.00716252
v -0.00008511 -0.00592046 0.00743155
v -0.00007906 -0.00990071 0.00716252
v -0.00006595 -0.00856502 0.00685464
v -0.00008511 -0.00511516 0.00743155
v -0.00012544 -0.00511516 0.00760641
v -0.00012241 -0.00538377 0.00760940
v -0.00006595 -0.00453115 0.00554837
v -0.00011939 -0.00990071 0.00735084
v -0.00011233 -0.00990071 0.00731796
v -0.00012342 -0.00565185 0.00760492
v -0.00012544 -0.00592046 0.00760193
v -0.00007805 -0.00990071 0.00501481
v -0.00006595 -0.00964787 0.00501481
v -0.00006595 -0.00963157 0.00550503
v -0.00006595 -0.00959530 0.00573669
v -0.00006595 -0.00930777 0.00625531
v -0.00006595 -0.00903969 0.00652434
v -0.00012443 -0.00489438 0.00743155
v -0.00013955 -0.00495115 0.00758998
v -0.00029380 -0.00511516 0.00766022
v -0.00029380 -0.00538377 0.00766769
v -0.00021617 -0.00453115 0.00558723
v -0.00036236 -0.00470883 0.00730600
v -0.00019500 -0.00471881 0.00716252
v -0.00006595 -0.00453115 -0.00318447
v -0.00029380 -0.00990071 0.00742856
v -0.00012947 -0.00618907 0.00759745
v -0.00013451 -0.00645768 0.00758998
v -0.00014056 -0.00672629 0.00758400
v -0.00014661 -0.00699437 0.00757652
v -0.00015467 -0.00726245 0.00757054
v -0.00015871 -0.00740911 0.00756606
v -0.00007805 -0.00990071 -0.00491669
v -0.00006595 -0.00964787 -0.00491669
v -0.00029380 -0.00492802 0.00760791
v -0.00028171 -0.00478031 0.00740913
v -0.00056299 -0.00511516 0.00767517
v -0.00056299 -0.00538377 0.00768413
v -0.00029380 -0.00565185 0.00766022
v -0.00027566 -0.00453115 0.00558723
v -0.00056299 -0.00470672 0.00731049
v -0.00056299 -0.00478610 0.00744500
v -0.00006595 -0.00515511 -0.00487783
v -0.00007906 -0.00511516 -0.00706590
v -0.00008511 -0.00511516 -0.00733343
v -0.00011939 -0.00485286 -0.00706590
v -0.00019500 -0.00471881 -0.00706590
v -0.00036236 -0.00470883 -0.00720789
v -0.00056299 -0.00470672 -0.00721237
v -0.00619983 -0.00470672 -0.00721237
v -0.00646801 -0.00470672 -0.00721087
v -0.00969021 -0.00453115 -0.00287659
v -0.00056299 -0.00990071 0.00745397
v -0.00029380 -0.00592046 0.00765125
v -0.00029380 -0.00618907 0.00764079
v -0.00029380 -0.00672629 0.00761239
v -0.00031296 -0.00751161 0.00757054
v -0.00007906 -0.00990071 -0.00706590
v -0.00006595 -0.00963473 -0.00518572
v -0.00056299 -0.00492066 0.00761389
v -0.00271046 -0.00511516 0.00767517
v -0.00244228 -0.00538377 0.00768264
v -0.00083117 -0.00592046 0.00766470
v -0.00056299 -0.00592046 0.00766470
v -0.00832310 -0.00453115 0.00558574
v -0.00512711 -0.00470672 0.00731049
v -0.00109936 -0.00478610 0.00744500
v -0.00006595 -0.00600667 -0.00617364
v -0.00006595 -0.00626529 -0.00645163
v -0.00006595 -0.00676466 -0.00675802
v -0.00008208 -0.00538377 -0.00733343
v -0.00012443 -0.00489438 -0.00733343
v -0.00012241 -0.00538377 -0.00750979
v -0.00012544 -0.00511516 -0.00750830
v -0.00013955 -0.00495115 -0.00749186
v -0.00028171 -0.00478031 -0.00731251
v -0.00056299 -0.00478610 -0.00734688
v -0.00136854 -0.00478610 -0.00734688
v -0.00324783 -0.00478662 -0.00734688
v -0.00485893 -0.00478978 -0.00734688
v -0.00539428 -0.00479135 -0.00734688
v -0.00593165 -0.00479346 -0.00734688
v -0.00673720 -0.00470725 -0.00720789
v -0.00996041 -0.00453115 -0.00285118
v -0.00056299 -0.00618907 0.00765125
v -0.00105298 -0.00990071 0.00745546
v -0.00011939 -0.00990071 -0.00725422
v -0.00008914 -0.00618907 -0.00733343
v -0.00008612 -0.00592046 -0.00733343
v -0.00006595 -0.00806775 -0.00677446
v -0.00006595 -0.00833321 -0.00676101
v -0.00006595 -0.00860497 -0.00662201
v -0.00006595 -0.00887358 -0.00643070
v -0.00006595 -0.00914167 -0.00617065
v -0.00006595 -0.00931723 -0.00599130
v -0.00006595 -0.00958742 -0.00545474
v -0.00190491 -0.00492066 0.00761389
v -0.00432156 -0.00538377 0.00767815
v -0.00297864 -0.00492119 0.00761389
v -0.00324783 -0.00492172 0.00761389
v -0.00351601 -0.00492224 0.00761389
v -0.00432156 -0.00492329 0.00761239
v -0.00512711 -0.00492487 0.00761090
v -0.00324783 -0.00511516 0.00767367
v -0.00163672 -0.00592046 0.00766321
v -0.00271046 -0.00618907 0.00764976
v -0.00163672 -0.00618907 0.00765125
v -0.00859128 -0.00453115 0.00557229
v -0.00673720 -0.00470725 0.00730600
v -0.00646801 -0.00470672 0.00730899
v -0.00244228 -0.00478662 0.00744500
v -0.00006595 -0.00702328 -0.00677147
v -0.00006595 -0.00753106 -0.00678492
v -0.00006595 -0.00779967 -0.00678492
v -0.00012443 -0.00565185 -0.00750680
v -0.00029380 -0.00538377 -0.00756808
v -0.00029380 -0.00511516 -0.00756210
v -0.00029380 -0.00492802 -0.00750979
v -0.00056299 -0.00492066 -0.00751726
v -0.00297864 -0.00492066 -0.00751726
v -0.00405338 -0.00492277 -0.00751577
v -0.00485893 -0.00492434 -0.00751428
v -0.00566246 -0.00492697 -0.00751129
v -0.00593165 -0.00492802 -0.00750979
v -0.00619983 -0.00492960 -0.00750830
v -0.00619983 -0.00479556 -0.00734539
v -0.00691464 -0.00470935 -0.00720490
v -0.01023162 -0.00453115 -0.00274506
v -0.00770507 -0.00470883 -0.00693886
v -0.00217409 -0.00990071 0.00745546
v -0.00014963 -0.00990071 -0.00726916
v -0.00015971 -0.00740333 -0.00746794
v -0.00014762 -0.00699437 -0.00747841
v -0.00014056 -0.00672629 -0.00748588
v -0.00013451 -0.00645768 -0.00749335
v -0.00012644 -0.00592046 -0.00750232
v -0.00485893 -0.00511516 0.00766919
v -0.00485893 -0.00538377 0.00767517
v -0.00324783 -0.00618907 0.00764826
v -0.00351601 -0.00592046 0.00765873
v -0.00351601 -0.00478767 0.00744500
v -0.00512711 -0.00479030 0.00744351
v -0.00566246 -0.00492645 0.00760940
v -0.00593165 -0.00479346 0.00744351
v -0.00297864 -0.00645768 0.00763631
v -0.00969223 -0.00453115 0.00551250
v -0.00691061 -0.00470935 0.00730152
v -0.00619983 -0.00479661 0.00744351
v -0.00995840 -0.00453115 0.00549756
v -0.00056299 -0.00538377 -0.00758452
v -0.00029380 -0.00618907 -0.00754118
v -0.00056299 -0.00511516 -0.00757705
v -0.00297864 -0.00511516 -0.00757705
v -0.00405338 -0.00511516 -0.00757406
v -0.00458974 -0.00511516 -0.00757256
v -0.00593165 -0.00511516 -0.00756210
v -0.00619983 -0.00511516 -0.00755911
v -0.00646801 -0.00493749 -0.00750232
v -0.00646801 -0.00480292 -0.00734539
v -0.00673720 -0.00495378 -0.00748887
v -0.00700841 -0.00484339 -0.00733194
v -0.00727356 -0.00487125 -0.00730055
v -0.00709310 -0.00471671 -0.00716006
v -0.01025783 -0.00453115 -0.00270321
v -0.00822732 -0.00470883 -0.00666984
v -0.00878889 -0.00470883 -0.00615719
v -0.00904396 -0.00470883 -0.00589564
v -0.00929903 -0.00470883 -0.00561466
v -0.00955814 -0.00471093 -0.00532471
v -0.00754275 -0.00491488 -0.00725721
v -0.00781093 -0.00483919 -0.00706291
v -0.00807911 -0.00489859 -0.00701060
v -0.00788453 -0.00472407 -0.00687011
v -0.00266408 -0.00990071 0.00745098
v -0.00324783 -0.00645768 0.00763481
v -0.00029380 -0.00990071 -0.00733493
v -0.00056299 -0.00990071 -0.00736033
v -0.00029380 -0.00645768 -0.00752922
v -0.00034018 -0.00990071 -0.00733941
v -0.00512711 -0.00511516 0.00766769
v -0.00566246 -0.00511516 0.00766470
v -0.00566246 -0.00538377 0.00766919
v -0.00405338 -0.00592046 0.00765574
v -0.00351601 -0.00618907 0.00764677
v -0.00593165 -0.00492750 0.00760791
v -0.00770205 -0.00470883 0.00703548
v -0.00708906 -0.00471776 0.00725369
v -0.00727356 -0.00487388 0.00739568
v -0.00700337 -0.00484392 0.00742856
v -0.00673720 -0.00495483 0.00758549
v -0.00646801 -0.00493854 0.00759894
v -0.00646801 -0.00480449 0.00744201
v -0.01020540 -0.00453115 0.00545721
v -0.00619983 -0.00493065 0.00760492
v -0.00297864 -0.00592046 -0.00756210
v -0.00297864 -0.00538377 -0.00758303
v -0.00056299 -0.00618907 -0.00755164
v -0.00244228 -0.00618907 -0.00755164
v -0.00432156 -0.00538377 -0.00757705
v -0.00458974 -0.00538377 -0.00757555
v -0.00485893 -0.00538377 -0.00757256
v -0.00619983 -0.00538377 -0.00755762
v -0.00646801 -0.00511516 -0.00754566
v -0.00692372 -0.00496955 -0.00747691
v -0.01036067 -0.00453115 -0.00250145
v -0.00833520 -0.00484550 -0.00678791
v -0.00861648 -0.00493433 -0.00671318
v -0.00860741 -0.00478873 -0.00650992
v -0.00869210 -0.00472302 -0.00633505
v -0.00896734 -0.00471986 -0.00607499
v -0.00922342 -0.00472670 -0.00579252
v -0.00942506 -0.00482710 -0.00573273
v -0.00960855 -0.00492802 -0.00567295
v -0.00967308 -0.00485548 -0.00542784
v -0.00984044 -0.00496167 -0.00535161
v -0.00988076 -0.00492014 -0.00518572
v -0.00981321 -0.00471303 -0.00477172
v -0.00773733 -0.00495431 -0.00722134
v -0.00826462 -0.00494905 -0.00695979
v -0.00297864 -0.00990071 0.00744649
v -0.00083117 -0.00990071 -0.00736183
v -0.00056299 -0.00645768 -0.00753968
v -0.00040571 -0.00769086 -0.00746944
v -0.00593165 -0.00511516 0.00766171
v -0.00593165 -0.00538377 0.00766470
v -0.00822933 -0.00470883 0.00676795
v -0.00807911 -0.00490121 0.00710573
v -0.00780892 -0.00484024 0.00715953
v -0.00754275 -0.00491646 0.00735234
v -0.00691666 -0.00497060 0.00757353
v -0.00646801 -0.00511516 0.00764229
v -0.00619983 -0.00511516 0.00765574
v -0.01034252 -0.00453115 0.00527188
v -0.01020641 -0.00457794 0.00545721
v -0.00904396 -0.00511516 0.00651537
v -0.00889172 -0.00511516 0.00664988
v -0.00875259 -0.00497901 0.00676198
v -0.00826462 -0.00495063 0.00705491
v -0.00297864 -0.00645768 -0.00753819
v -0.00324783 -0.00592046 -0.00756061
v -0.00109936 -0.00645768 -0.00753968
v -0.00324783 -0.00645768 -0.00753669
v -0.00646801 -0.00538377 -0.00754267
v -0.00271046 -0.00990071 -0.00735286
v -0.00297864 -0.00990071 -0.00734838
v -0.00324783 -0.00990071 -0.00734090
v -0.00378419 -0.00990071 -0.00732446
v -0.00383056 -0.00990071 -0.00732297
v -0.00405338 -0.00990071 -0.00731400
v -0.00673720 -0.00511516 -0.00751726
v -0.00696102 -0.00511516 -0.00748438
v -0.00709511 -0.00511516 -0.00745898
v -0.00727356 -0.00511516 -0.00741115
v -0.01009954 -0.00497270 -0.00480161
v -0.01012072 -0.00494800 -0.00464916
v -0.01027900 -0.00511516 -0.00411261
v -0.01031631 -0.00511516 -0.00384358
v -0.01034454 -0.00511516 -0.00357456
v -0.01036268 -0.00465889 -0.00263745
v -0.01036369 -0.00463208 -0.00250145
v -0.01036067 -0.00453115 0.00504769
v -0.00875360 -0.00497796 -0.00666535
v -0.00885946 -0.00492382 -0.00650992
v -0.00888063 -0.00476875 -0.00625135
v -0.00914175 -0.00477190 -0.00598681
v -0.00936053 -0.00491541 -0.00599130
v -0.00929903 -0.00496902 -0.00613926
v -0.00955209 -0.00506837 -0.00585081
v -0.00977591 -0.00511516 -0.00550855
v -0.00985354 -0.00511516 -0.00537403
v -0.00994630 -0.00511516 -0.00518572
v -0.00996646 -0.00488545 -0.00490175
v -0.00754275 -0.00511516 -0.00732297
v -0.00777464 -0.00511516 -0.00723778
v -0.00790873 -0.00511516 -0.00718397
v -0.00807911 -0.00511516 -0.00709729
v -0.00829688 -0.00511516 -0.00697922
v -0.00843097 -0.00511516 -0.00689851
v -0.00324783 -0.00990071 0.00743753
v -0.00141492 -0.00990071 -0.00736183
v -0.00619983 -0.00538377 0.00765574
v -0.00773532 -0.00495378 0.00731946
v -0.00727356 -0.00511516 0.00750329
v -0.00708604 -0.00511516 0.00755410
v -0.00695195 -0.00511516 0.00758101
v -0.00673720 -0.00511516 0.00761389
v -0.00646801 -0.00538377 0.00763930
v -0.01036268 -0.00465889 0.00517025
v -0.01034454 -0.00457268 0.00526889
v -0.00927383 -0.00990071 0.00540041
v -0.00925770 -0.00990071 0.00541984
v -0.00920628 -0.00941027 0.00558873
v -0.00925467 -0.00887358 0.00564702
v -0.00928996 -0.00848250 0.00568887
v -0.00920830 -0.00806775 0.00586672
v -0.00923249 -0.00779967 0.00589213
v -0.00907421 -0.00806775 0.00601170
v -0.00920023 -0.00672629 0.00612977
v -0.00922342 -0.00645768 0.00615518
v -0.00924560 -0.00618907 0.00617759
v -0.00926677 -0.00592046 0.00620001
v -0.00928089 -0.00573963 0.00621496
v -0.00929298 -0.00556039 0.00622990
v -0.00917099 -0.00538377 0.00637637
v -0.00903690 -0.00538377 0.00650790
v -0.00875763 -0.00528652 0.00676497
v -0.00875763 -0.00511516 0.00676497
v -0.00861648 -0.00511516 0.00686809
v -0.00843097 -0.00511516 0.00699662
v -0.00829688 -0.00511516 0.00707434
v -0.00807911 -0.00511516 0.00719242
v -0.00790570 -0.00511516 0.00728060
v -0.00222047 -0.00990071 -0.00735734
v -0.00244228 -0.00990071 -0.00735585
v -0.00646801 -0.00565185 -0.00751876
v -0.00673720 -0.00538377 -0.00751278
v -0.00458974 -0.00990071 -0.00728112
v -0.00463612 -0.00990071 -0.00727813
v -0.00485893 -0.00990071 -0.00726169
v -0.00693481 -0.00538377 -0.00747990
v -0.00706991 -0.00538377 -0.00745449
v -0.00727356 -0.00538377 -0.00740218
v -0.00754275 -0.00538377 -0.00731699
v -0.01005216 -0.00511516 -0.00495256
v -0.01010559 -0.00511516 -0.00481805
v -0.01015701 -0.00511516 -0.00464916
v -0.01022859 -0.00511516 -0.00438014
v -0.01028505 -0.00538377 -0.00411261
v -0.01032135 -0.00538377 -0.00384358
v -0.01034756 -0.00538377 -0.00357456
v -0.01036168 -0.00524026 -0.00325920
v -0.01035663 -0.00513671 -0.00333094
v -0.01036268 -0.00521818 -0.00303800
v -0.01036369 -0.00518875 -0.00276898
v -0.01036470 -0.00517561 -0.00250145
v -0.01036571 -0.00538377 -0.00062126
v -0.01036369 -0.00463208 0.00501481
v -0.00861648 -0.00511516 -0.00677147
v -0.00875965 -0.00511516 -0.00666984
v -0.00889374 -0.00511516 -0.00655475
v -0.00904698 -0.00511516 -0.00642024
v -0.00903388 -0.00496692 -0.00640828
v -0.00913571 -0.00491646 -0.00624089
v -0.00918107 -0.00511516 -0.00628423
v -0.00931012 -0.00511516 -0.00615122
v -0.00955612 -0.00524762 -0.00585678
v -0.00962468 -0.00514091 -0.00574618
v -0.00946337 -0.00514091 -0.00596439
v -0.00955612 -0.00524972 -0.00585678
v -0.00977390 -0.00538377 -0.00550406
v -0.00985254 -0.00538377 -0.00536955
v -0.00994529 -0.00538377 -0.00518572
v -0.00776153 -0.00538377 -0.00723479
v -0.00789562 -0.00538377 -0.00717800
v -0.00807911 -0.00538377 -0.00708832
v -0.00828781 -0.00538377 -0.00697473
v -0.00842190 -0.00538377 -0.00689402
v -0.00875864 -0.00529546 -0.00666984
v -0.00432156 -0.00990071 0.00738970
v -0.00619983 -0.00565185 0.00763332
v -0.00777161 -0.00511516 0.00733440
v -0.00754275 -0.00511516 0.00741810
v -0.00727356 -0.00538377 0.00749731
v -0.00706487 -0.00538377 0.00754962
v -0.00693078 -0.00538377 0.00757802
v -0.00673720 -0.00538377 0.00760940
v -0.00646801 -0.00565185 0.00761538
v -0.00633291 -0.00632258 0.00756606
v -0.00458974 -0.00990071 0.00737326
v -0.00454336 -0.00990071 0.00737625
v -0.01036268 -0.00471618 0.00517025
v -0.00936759 -0.00990071 0.00526889
v -0.00934138 -0.00990071 0.00530625
v -0.00978902 -0.00990071 0.00448274
v -0.00967408 -0.00990071 0.00474578
v -0.00965594 -0.00990071 0.00478315
v -0.00958335 -0.00990071 0.00492812
v -0.00956923 -0.00990071 0.00495204
v -0.00950370 -0.00990071 0.00506264
v -0.00913470 -0.00990071 0.00556631
v -0.00906513 -0.00990071 0.00564702
v -0.00904698 -0.00967888 0.00571577
v -0.00909639 -0.00914167 0.00577107
v -0.00902984 -0.00852875 0.00596686
v -0.00893608 -0.00806775 0.00614621
v -0.00898952 -0.00753106 0.00619553
v -0.00902480 -0.00716258 0.00622990
v -0.00904093 -0.00699437 0.00624485
v -0.00906513 -0.00672629 0.00626876
v -0.00908933 -0.00645768 0.00629268
v -0.00911151 -0.00618907 0.00631360
v -0.00896935 -0.00618907 0.00644811
v -0.00886248 -0.00537903 0.00666184
v -0.00883526 -0.00618907 0.00656469
v -0.00881207 -0.00645768 0.00654377
v -0.00869512 -0.00592046 0.00671863
v -0.00863665 -0.00537903 0.00684119
v -0.00842089 -0.00538377 0.00699065
v -0.00828680 -0.00538377 0.00706986
v -0.00807911 -0.00538377 0.00718345
v -0.00789159 -0.00538377 0.00727462
v -0.00775750 -0.00538377 0.00732992
v -0.00632989 -0.00632101 -0.00746794
v -0.00660009 -0.00605292 -0.00746794
v -0.00665655 -0.00587367 -0.00747691
v -0.00674224 -0.00564502 -0.00748588
v -0.00517349 -0.00990071 -0.00723329
v -0.00688843 -0.00555092 -0.00747093
v -0.00683500 -0.00572965 -0.00746196
v -0.00673720 -0.00618907 -0.00743058
v -0.00673720 -0.00645768 -0.00740069
v -0.00700538 -0.00618907 -0.00737528
v -0.00700538 -0.00645768 -0.00734389
v -0.00727356 -0.00565185 -0.00737080
v -0.00727356 -0.00618907 -0.00730503
v -0.00754275 -0.00565185 -0.00728411
v -0.00769197 -0.00583740 -0.00720639
v -0.00772019 -0.00565185 -0.00721835
v -0.01005115 -0.00538377 -0.00494658
v -0.01010358 -0.00538377 -0.00481207
v -0.01015701 -0.00538377 -0.00464916
v -0.01023263 -0.00538377 -0.00438014
v -0.01025884 -0.00592046 -0.00411261
v -0.01028707 -0.00618907 -0.00384358
v -0.01031127 -0.00565185 -0.00384358
v -0.01032639 -0.00592046 -0.00357456
v -0.01032639 -0.00618907 -0.00330703
v -0.01035764 -0.00536169 -0.00333094
v -0.01036168 -0.00525761 -0.00325920
v -0.01036268 -0.00528862 -0.00303800
v -0.01036369 -0.00534066 -0.00276898
v -0.01036470 -0.00538377 -0.00223242
v -0.01035361 -0.00592046 -0.00196340
v -0.01034756 -0.00618907 -0.00169587
v -0.01034756 -0.00618907 0.00179249
v -0.01035361 -0.00592046 0.00179249
v -0.01036168 -0.00553147 0.00179249
v -0.01036470 -0.00538377 0.00179249
v -0.01036470 -0.00516352 0.00206151
v -0.01036369 -0.00471776 0.00501481
v -0.00904093 -0.00538377 -0.00641426
v -0.00917503 -0.00538377 -0.00627975
v -0.00930508 -0.00538377 -0.00614524
v -0.00953092 -0.00565185 -0.00582390
v -0.00957931 -0.00645768 -0.00562213
v -0.00959544 -0.00618907 -0.00564455
v -0.00962569 -0.00565185 -0.00568939
v -0.00962267 -0.00535696 -0.00574021
v -0.00945631 -0.00535696 -0.00596439
v -0.00975978 -0.00565185 -0.00548164
v -0.00982229 -0.00602822 -0.00531575
v -0.00992109 -0.00565185 -0.00518572
v -0.00988177 -0.00618907 -0.00516629
v -0.00999671 -0.00618907 -0.00491669
v -0.00785429 -0.00565185 -0.00716006
v -0.00781093 -0.00618907 -0.00710625
v -0.00801862 -0.00645768 -0.00697025
v -0.00810331 -0.00593728 -0.00699864
v -0.00823135 -0.00585896 -0.00694185
v -0.00825555 -0.00565185 -0.00695680
v -0.00839065 -0.00565185 -0.00687459
v -0.00853482 -0.00618907 -0.00669973
v -0.00856305 -0.00592046 -0.00672065
v -0.00859027 -0.00565185 -0.00674008
v -0.00863766 -0.00538429 -0.00674457
v -0.00874150 -0.00547470 -0.00665639
v -0.00883829 -0.00618907 -0.00646807
v -0.00886248 -0.00592046 -0.00648899
v -0.00886349 -0.00538429 -0.00656820
v -0.00754275 -0.00538377 0.00741062
v -0.00700538 -0.00618907 0.00747190
v -0.00749436 -0.00618907 0.00732992
v -0.00727356 -0.00592046 0.00743304
v -0.00700538 -0.00645768 0.00744052
v -0.00688843 -0.00555303 0.00756905
v -0.00683399 -0.00573227 0.00756008
v -0.00659605 -0.00604767 0.00756457
v -0.00649120 -0.00594306 0.00758549
v -0.00528237 -0.00990071 0.00731198
v -0.00512711 -0.00990071 0.00732693
v -0.00987673 -0.00990071 0.00422866
v -0.00983842 -0.00990071 0.00435271
v -0.00983439 -0.00989125 0.00436915
v -0.00982834 -0.00990071 0.00438260
v -0.01036268 -0.00528074 0.00340365
v -0.01034252 -0.00618907 0.00259807
v -0.01033950 -0.00618907 0.00286709
v -0.01033345 -0.00645768 0.00259807
v -0.01032941 -0.00645768 0.00286709
v -0.01030925 -0.00672629 0.00313612
v -0.01029413 -0.00699437 0.00313612
v -0.01027094 -0.00753106 0.00286709
v -0.01025481 -0.00779967 0.00286709
v -0.01024372 -0.00779967 0.00313612
v -0.01023061 -0.00779967 0.00340365
v -0.01020944 -0.00806775 0.00340365
v -0.01016205 -0.00860497 0.00340365
v -0.01009954 -0.00934457 0.00333639
v -0.01006123 -0.00967888 0.00340365
v -0.01004006 -0.00990071 0.00340365
v -0.01003401 -0.00990071 0.00344998
v -0.01000477 -0.00990071 0.00367267
v -0.00999671 -0.00990071 0.00371901
v -0.00995335 -0.00990071 0.00394170
v -0.00994126 -0.00990071 0.00398803
v -0.00897137 -0.00990071 0.00574715
v -0.00902884 -0.00986602 0.00569634
v -0.00901271 -0.00870748 0.00594892
v -0.00875561 -0.00849564 0.00622841
v -0.00880199 -0.00806775 0.00626727
v -0.00880703 -0.00941027 0.00600721
v -0.00885543 -0.00753106 0.00631659
v -0.00892096 -0.00672629 0.00640328
v -0.00894616 -0.00645768 0.00642719
v -0.00878586 -0.00672629 0.00652135
v -0.00863967 -0.00645768 0.00667828
v -0.00850558 -0.00645768 0.00677692
v -0.00856002 -0.00592046 0.00681728
v -0.00858725 -0.00565185 0.00683670
v -0.00838863 -0.00565185 0.00697122
v -0.00833116 -0.00593518 0.00696524
v -0.00823034 -0.00585528 0.00703847
v -0.00807911 -0.00565185 0.00714758
v -0.00801862 -0.00645768 0.00706687
v -0.00781093 -0.00645768 0.00716701
v -0.00781093 -0.00618907 0.00720288
v -0.00784723 -0.00565185 0.00725818
v -0.00762845 -0.00618907 0.00727910
v -0.00754275 -0.00565185 0.00737774
v -0.00545074 -0.00990071 -0.00720639
v -0.00552434 -0.00990071 -0.00719892
v -0.00554954 -0.00984289 -0.00720191
v -0.00561004 -0.00990071 -0.00718846
v -0.00566246 -0.00990071 -0.00718098
v -0.00593165 -0.00990071 -0.00714212
v -0.00597803 -0.00990071 -0.00713465
v -0.00619983 -0.00990071 -0.00709430
v -0.00700538 -0.00672629 -0.00731101
v -0.00727356 -0.00645768 -0.00727066
v -0.00741874 -0.00661853 -0.00720340
v -0.00745000 -0.00645768 -0.00721386
v -0.00749940 -0.00618907 -0.00723180
v -0.00756090 -0.00592414 -0.00724376
v -0.00763349 -0.00618907 -0.00718397
v -0.00766374 -0.00601613 -0.00719444
v -0.01004913 -0.00565553 -0.00489726
v -0.01008341 -0.00592046 -0.00475528
v -0.01011971 -0.00618907 -0.00459237
v -0.01018222 -0.00618907 -0.00438014
v -0.01021649 -0.00565185 -0.00438014
v -0.01024372 -0.00618907 -0.00411261
v -0.01027094 -0.00645768 -0.00384358
v -0.01030118 -0.00645768 -0.00357456
v -0.01031429 -0.00618907 -0.00357456
v -0.01031530 -0.00645768 -0.00330703
v -0.01032236 -0.00645768 -0.00303800
v -0.01032840 -0.00645768 -0.00276898
v -0.01033849 -0.00618907 -0.00276898
v -0.01034353 -0.00618907 -0.00250145
v -0.01035865 -0.00562609 -0.00247903
v -0.01036168 -0.00551886 -0.00237441
v -0.01036369 -0.00540321 -0.00247903
v -0.01035260 -0.00592046 -0.00223242
v -0.01034554 -0.00618907 -0.00223242
v -0.01033950 -0.00645768 -0.00169587
v -0.01033950 -0.00645768 0.00179249
v -0.01035966 -0.00545105 0.00313612
v -0.01036369 -0.00532910 0.00286709
v -0.01036168 -0.00552149 0.00194045
v -0.00902682 -0.00556406 -0.00640081
v -0.00911151 -0.00618907 -0.00621847
v -0.00929298 -0.00555565 -0.00613179
v -0.00936255 -0.00618907 -0.00594646
v -0.00937868 -0.00564817 -0.00601372
v -0.00949664 -0.00618907 -0.00577907
v -0.00947849 -0.00645768 -0.00575665
v -0.00956621 -0.00666584 -0.00560270
v -0.00968921 -0.00645768 -0.00545474
v -0.00971945 -0.00618907 -0.00545474
v -0.00981422 -0.00618907 -0.00530080
v -0.00988379 -0.00593150 -0.00520963
v -0.00986867 -0.00645768 -0.00513938
v -0.00997150 -0.00645768 -0.00491669
v -0.01006123 -0.00645768 -0.00469699
v -0.01007232 -0.00618907 -0.00472688
v -0.00781093 -0.00645768 -0.00706889
v -0.00781093 -0.00672629 -0.00703003
v -0.00797930 -0.00672629 -0.00694932
v -0.00815271 -0.00645768 -0.00689701
v -0.00818901 -0.00618907 -0.00691794
v -0.00834729 -0.00645768 -0.00678044
v -0.00833116 -0.00593728 -0.00686862
v -0.00834729 -0.00618907 -0.00682079
v -0.00848743 -0.00661432 -0.00666685
v -0.00850558 -0.00645768 -0.00667880
v -0.00866992 -0.00618907 -0.00660258
v -0.00872436 -0.00565185 -0.00664293
v -0.00881308 -0.00645768 -0.00644565
v -0.00894717 -0.00645768 -0.00633057
v -0.00899657 -0.00592046 -0.00637391
v -0.00901170 -0.00574279 -0.00638736
v -0.00673720 -0.00645768 0.00749731
v -0.00758308 -0.00645768 0.00726266
v -0.00744899 -0.00645768 0.00731198
v -0.00727356 -0.00645768 0.00736728
v -0.00700538 -0.00672629 0.00740763
v -0.00673720 -0.00618907 0.00752720
v -0.00674123 -0.00594306 0.00755261
v -0.00593165 -0.00990071 0.00723576
v -0.00593165 -0.00967888 0.00725967
v -0.01033546 -0.00645768 0.00233054
v -0.01032336 -0.00672629 0.00233054
v -0.01032034 -0.00672629 0.00259807
v -0.01031530 -0.00672629 0.00286709
v -0.01030118 -0.00699437 0.00286709
v -0.01026287 -0.00779967 0.00259807
v -0.01024573 -0.00806775 0.00259807
v -0.01023666 -0.00806775 0.00286709
v -0.01022456 -0.00806775 0.00313612
v -0.01018020 -0.00860497 0.00313612
v -0.01009047 -0.00978401 0.00295229
v -0.01008442 -0.00968835 0.00314808
v -0.01006123 -0.00990071 0.00318245
v -0.00881711 -0.00990071 0.00589960
v -0.00891289 -0.00967888 0.00585028
v -0.00894112 -0.00941027 0.00587718
v -0.00875965 -0.00985866 0.00596387
v -0.00871327 -0.00887358 0.00619254
v -0.00857918 -0.00887358 0.00629866
v -0.00863564 -0.00806775 0.00640178
v -0.00866689 -0.00779967 0.00642569
v -0.00869815 -0.00753106 0.00644961
v -0.00874553 -0.00710896 0.00648847
v -0.00859329 -0.00671367 0.00666931
v -0.00864068 -0.00700961 0.00658412
v -0.00856406 -0.00753106 0.00655273
v -0.00848743 -0.00661642 0.00676347
v -0.00836443 -0.00671367 0.00682624
v -0.00834729 -0.00645768 0.00687706
v -0.00834729 -0.00618907 0.00691741
v -0.00818800 -0.00618907 0.00701456
v -0.00805391 -0.00618907 0.00708630
v -0.00810331 -0.00593518 0.00709527
v -0.00815271 -0.00645768 0.00699513
v -0.00797930 -0.00672629 0.00704744
v -0.00795510 -0.00689449 0.00703399
v -0.00782706 -0.00698859 0.00708032
v -0.00776153 -0.00726245 0.00706837
v -0.00771717 -0.00753106 0.00704744
v -0.00646801 -0.00990071 -0.00703601
v -0.00702151 -0.00726823 -0.00723479
v -0.00712233 -0.00736180 -0.00719444
v -0.00651439 -0.00990071 -0.00702405
v -0.00673720 -0.00941027 -0.00703003
v -0.00720299 -0.00699437 -0.00721984
v -0.00752158 -0.00671525 -0.00715109
v -0.00758409 -0.00645768 -0.00716454
v -0.00687532 -0.00982449 -0.00693288
v -0.00696102 -0.00941027 -0.00696277
v -0.00727356 -0.00833636 -0.00700761
v -0.00737942 -0.00866700 -0.00692093
v -0.00754275 -0.00753106 -0.00702256
v -0.01010962 -0.00645768 -0.00456248
v -0.01016306 -0.00645768 -0.00438014
v -0.01022658 -0.00645768 -0.00411261
v -0.01025279 -0.00672629 -0.00384358
v -0.01028404 -0.00672629 -0.00357456
v -0.01028404 -0.00699437 -0.00330703
v -0.01030017 -0.00672629 -0.00330703
v -0.01030925 -0.00672629 -0.00303800
v -0.01032135 -0.00672629 -0.00250145
v -0.01033345 -0.00645768 -0.00250145
v -0.01033647 -0.00645768 -0.00223242
v -0.01033849 -0.00645768 -0.00196340
v -0.01032740 -0.00672629 -0.00169587
v -0.01032740 -0.00672629 0.00179249
v -0.00908933 -0.00645768 -0.00619605
v -0.00922443 -0.00645768 -0.00605706
v -0.00924560 -0.00618907 -0.00607948
v -0.00926576 -0.00592046 -0.00610190
v -0.00927988 -0.00573490 -0.00611684
v -0.00934339 -0.00645768 -0.00592255
v -0.00932323 -0.00672629 -0.00589863
v -0.00930206 -0.00699437 -0.00587472
v -0.00947648 -0.00674363 -0.00570434
v -0.00955310 -0.00684456 -0.00558477
v -0.00957730 -0.00779967 -0.00535161
v -0.00959544 -0.00753106 -0.00538001
v -0.00978297 -0.00672629 -0.00524400
v -0.00979910 -0.00645768 -0.00527390
v -0.00985455 -0.00672629 -0.00510949
v -0.00994428 -0.00672629 -0.00491669
v -0.01002695 -0.00699437 -0.00464916
v -0.01005720 -0.00674889 -0.00463571
v -0.01010055 -0.00667425 -0.00453707
v -0.00762341 -0.00806775 -0.00690897
v -0.00768894 -0.00770085 -0.00693587
v -0.00776153 -0.00726245 -0.00697025
v -0.00782706 -0.00698806 -0.00698220
v -0.00792688 -0.00707322 -0.00692242
v -0.00795510 -0.00689449 -0.00693587
v -0.00811339 -0.00672629 -0.00687609
v -0.00819203 -0.00785644 -0.00665041
v -0.00863967 -0.00645768 -0.00658016
v -0.00832310 -0.00778022 -0.00657717
v -0.00848441 -0.00821021 -0.00639633
v -0.00850155 -0.00806775 -0.00640828
v -0.00878485 -0.00672629 -0.00642323
v -0.00880199 -0.00806775 -0.00616915
v -0.00900867 -0.00734603 -0.00611684
v -0.00902581 -0.00716783 -0.00613328
v -0.00906614 -0.00672629 -0.00617214
v -0.00673720 -0.00672629 0.00746443
v -0.00619983 -0.00990071 0.00718943
v -0.00768894 -0.00770137 0.00703399
v -0.00754275 -0.00699437 0.00719989
v -0.00741874 -0.00661800 0.00730152
v -0.00728364 -0.00671472 0.00732992
v -0.00716165 -0.00717992 0.00730451
v -0.00712032 -0.00735812 0.00729255
v -0.00674224 -0.00990071 0.00706089
v -0.00673720 -0.00941027 0.00712665
v -0.00646801 -0.00990071 0.00713114
v -0.01027295 -0.00779967 0.00179249
v -0.01026993 -0.00779967 0.00206151
v -0.01030622 -0.00699437 0.00259807
v -0.01025077 -0.00806775 0.00233054
v -0.01022456 -0.00833636 0.00259807
v -0.01021549 -0.00833636 0.00286709
v -0.01019331 -0.00860497 0.00286709
v -0.01008644 -0.00990071 0.00283272
v -0.01008240 -0.00990071 0.00290296
v -0.01006526 -0.00990071 0.00313761
v -0.00870218 -0.00990071 0.00600422
v -0.00868202 -0.00914167 0.00616713
v -0.00849449 -0.00959478 0.00623289
v -0.00850155 -0.00806775 0.00650640
v -0.00846525 -0.00679515 0.00674852
v -0.00827067 -0.00726245 0.00679635
v -0.00844005 -0.00699437 0.00673208
v -0.00811440 -0.00672629 0.00697421
v -0.00821724 -0.00767930 0.00676198
v -0.00802770 -0.00806775 0.00680681
v -0.00792688 -0.00707374 0.00702054
v -0.00676039 -0.00990071 -0.00695829
v -0.00673720 -0.00967888 -0.00699416
v -0.00744092 -0.00833636 -0.00694484
v -0.00685919 -0.00990071 -0.00692691
v -0.00695396 -0.00990071 -0.00689402
v -0.00716468 -0.00907018 -0.00694036
v -0.00728364 -0.00858868 -0.00696726
v -0.00733809 -0.00887358 -0.00690598
v -0.00727356 -0.00967888 -0.00681033
v -0.00747218 -0.00990071 -0.00669375
v -0.01013181 -0.00674889 -0.00440554
v -0.01010055 -0.00753106 -0.00427103
v -0.01016104 -0.00726245 -0.00411261
v -0.01020540 -0.00672629 -0.00411261
v -0.01023263 -0.00699437 -0.00384358
v -0.01020843 -0.00779967 -0.00357456
v -0.01023061 -0.00779967 -0.00330703
v -0.01024372 -0.00779967 -0.00303800
v -0.01025481 -0.00779967 -0.00276898
v -0.01027799 -0.00726245 -0.00303800
v -0.01029413 -0.00699437 -0.00303800
v -0.01026287 -0.00779967 -0.00250145
v -0.01030118 -0.00699437 -0.00276898
v -0.01028203 -0.00753106 -0.00223242
v -0.01027094 -0.00779967 -0.00196340
v -0.01032437 -0.00672629 -0.00223242
v -0.01032639 -0.00672629 -0.00196340
v -0.01031429 -0.00699437 -0.00169587
v -0.01031429 -0.00699437 0.00152496
v -0.00920124 -0.00672629 -0.00603314
v -0.00927484 -0.00732343 -0.00584333
v -0.00934743 -0.00779967 -0.00566249
v -0.00936961 -0.00724511 -0.00574170
v -0.00954201 -0.00699437 -0.00556982
v -0.00956419 -0.00798365 -0.00533219
v -0.00967812 -0.00779967 -0.00518572
v -0.00971340 -0.00753106 -0.00518572
v -0.00981926 -0.00734866 -0.00504074
v -0.00987673 -0.00726035 -0.00493762
v -0.00985758 -0.00779967 -0.00485093
v -0.00994529 -0.00779967 -0.00464916
v -0.01009249 -0.00685349 -0.00451315
v -0.00785126 -0.00753106 -0.00688655
v -0.00777262 -0.00887358 -0.00671169
v -0.00796115 -0.00852507 -0.00667133
v -0.00802770 -0.00806775 -0.00670870
v -0.00816179 -0.00806775 -0.00663247
v -0.00799140 -0.00990071 -0.00642323
v -0.00821119 -0.00926940 -0.00639334
v -0.00826361 -0.00887358 -0.00642771
v -0.00829789 -0.00860497 -0.00645163
v -0.00876368 -0.00692446 -0.00640530
v -0.00846122 -0.00838945 -0.00637989
v -0.00849449 -0.00959478 -0.00613478
v -0.00854793 -0.00914167 -0.00617662
v -0.00863564 -0.00806775 -0.00630366
v -0.00866588 -0.00779967 -0.00632758
v -0.00872638 -0.00726245 -0.00637540
v -0.00877275 -0.00833636 -0.00614524
v -0.00893608 -0.00806775 -0.00604809
v -0.00896330 -0.00779967 -0.00607350
v -0.00899052 -0.00753106 -0.00609891
v -0.00907421 -0.00806775 -0.00591358
v -0.00909941 -0.00779967 -0.00593899
v -0.00750847 -0.00967888 0.00680831
v -0.00747218 -0.00990071 0.00679037
v -0.00743185 -0.00990071 0.00680831
v -0.00751956 -0.00858868 0.00697122
v -0.00741370 -0.00848828 0.00703100
v -0.00716468 -0.00907018 0.00703847
v -0.00690557 -0.00967888 0.00704146
v -0.00687532 -0.00982449 0.00703100
v -0.00677652 -0.00990071 0.00705043
v -0.01025682 -0.00806775 0.00179249
v -0.01028707 -0.00753106 0.00152496
v -0.01027295 -0.00779967 -0.00169587
v -0.01022960 -0.00833636 0.00233054
v -0.01023363 -0.00833636 0.00206151
v -0.01010761 -0.00990071 0.00206301
v -0.01018020 -0.00887358 0.00259807
v -0.01011366 -0.00967888 0.00259807
v -0.01009450 -0.00983711 0.00277294
v -0.01009450 -0.00990071 0.00259807
v -0.00859229 -0.00990071 0.00609390
v -0.00845517 -0.00990071 0.00620450
v -0.00836847 -0.00968204 0.00630613
v -0.00839770 -0.00887358 0.00643317
v -0.00848441 -0.00821021 0.00649295
v -0.00826361 -0.00887358 0.00652583
v -0.00829789 -0.00860497 0.00654975
v -0.00832310 -0.00778075 0.00667529
v -0.00840476 -0.00726245 0.00670967
v -0.00823538 -0.00909015 0.00650640
v -0.00819203 -0.00785802 0.00674703
v -0.00796115 -0.00852507 0.00676945
v -0.00783110 -0.00861075 0.00682176
v -0.00773028 -0.00914167 0.00678738
v -0.00701244 -0.00990071 -0.00687310
v -0.00726247 -0.00915270 -0.00689253
v -0.00727356 -0.00990071 -0.00677595
v -0.00731389 -0.00990071 -0.00675951
v -0.00760627 -0.00990071 -0.00662649
v -0.00764256 -0.00967888 -0.00664592
v -0.00766878 -0.00952066 -0.00665937
v -0.01009349 -0.00767562 -0.00425011
v -0.01013785 -0.00753106 -0.00411261
v -0.01016911 -0.00779967 -0.00384358
v -0.01018625 -0.00806775 -0.00357456
v -0.01020843 -0.00806775 -0.00330703
v -0.01022254 -0.00806775 -0.00303800
v -0.01023565 -0.00806775 -0.00276898
v -0.01024573 -0.00806775 -0.00250145
v -0.01027094 -0.00753106 -0.00276898
v -0.01025077 -0.00806775 -0.00223242
v -0.01025481 -0.00806775 -0.00196340
v -0.01029917 -0.00726245 -0.00196340
v -0.01028707 -0.00753106 -0.00169587
v -0.00923350 -0.00779967 -0.00579551
v -0.00952285 -0.00726245 -0.00554143
v -0.00932525 -0.00806775 -0.00563409
v -0.00948152 -0.00779967 -0.00548613
v -0.00955007 -0.00816237 -0.00531126
v -0.00956520 -0.00906755 -0.00506615
v -0.00961964 -0.00833636 -0.00515433
v -0.00962670 -0.00807091 -0.00520664
v -0.00977289 -0.00806775 -0.00495256
v -0.00979103 -0.00779967 -0.00498544
v -0.00980817 -0.00753106 -0.00501832
v -0.00984144 -0.00806775 -0.00481805
v -0.00983035 -0.00824595 -0.00479563
v -0.00991403 -0.00806775 -0.00464916
v -0.01001284 -0.00806775 -0.00438014
v -0.01005115 -0.00777917 -0.00435622
v -0.00790671 -0.00887358 -0.00664293
v -0.00793393 -0.00870380 -0.00665639
v -0.00781093 -0.00990071 -0.00652187
v -0.00801459 -0.00990071 -0.00640828
v -0.00815574 -0.00967888 -0.00635597
v -0.00832411 -0.00990071 -0.00619904
v -0.00835637 -0.00990071 -0.00617662
v -0.00845517 -0.00990071 -0.00610638
v -0.00847534 -0.00990071 -0.00608994
v -0.00862959 -0.00990071 -0.00596290
v -0.00871327 -0.00887358 -0.00609442
v -0.00875561 -0.00849564 -0.00613029
v -0.00880401 -0.00941027 -0.00590760
v -0.00904799 -0.00833636 -0.00588668
v -0.00920830 -0.00806775 -0.00576860
v -0.00769801 -0.00934194 0.00677094
v -0.00758308 -0.00990071 0.00673657
v -0.00727356 -0.00990071 0.00687407
v -0.00737942 -0.00866700 0.00701755
v -0.00733809 -0.00887358 0.00700260
v -0.00727356 -0.00941027 0.00694730
v -0.00698723 -0.00990071 0.00698018
v -0.00695396 -0.00990071 0.00699214
v -0.01023767 -0.00833636 0.00152496
v -0.01023666 -0.00833636 0.00179249
v -0.01025682 -0.00806775 -0.00169587
v -0.01021246 -0.00860497 0.00206151
v -0.01011265 -0.00990071 0.00179249
v -0.01009753 -0.00986864 0.00259807
v -0.00832411 -0.00990071 0.00629716
v -0.00828781 -0.00990071 0.00632257
v -0.00819203 -0.00941027 0.00647801
v -0.00799140 -0.00990071 0.00651985
v -0.00802165 -0.00967888 0.00653928
v -0.00793393 -0.00870380 0.00675450
v -0.00795510 -0.00990071 0.00654078
v -0.00779682 -0.00942289 0.00670668
v -0.00786437 -0.00914167 -0.00662052
v -0.01008543 -0.00785486 -0.00421573
v -0.01011467 -0.00777917 -0.00412008
v -0.01010660 -0.00806775 -0.00403638
v -0.01014592 -0.00806775 -0.00384358
v -0.01016104 -0.00833636 -0.00357456
v -0.01009954 -0.00907386 -0.00349086
v -0.01009047 -0.00925258 -0.00340567
v -0.01009753 -0.00878002 -0.00372850
v -0.01009349 -0.00982449 -0.00264493
v -0.01009047 -0.00990071 -0.00258365
v -0.01011366 -0.00967888 -0.00250145
v -0.01022456 -0.00833636 -0.00250145
v -0.01018020 -0.00887358 -0.00250145
v -0.01023061 -0.00833636 -0.00223242
v -0.01023464 -0.00833636 -0.00196340
v -0.01023767 -0.00833636 -0.00169587
v -0.00930105 -0.00833636 -0.00560569
v -0.00927080 -0.00990071 -0.00529781
v -0.00929601 -0.00959741 -0.00533219
v -0.00928492 -0.00990071 -0.00527838
v -0.00936457 -0.00990071 -0.00516629
v -0.00938977 -0.00990071 -0.00512892
v -0.00950067 -0.00990071 -0.00496153
v -0.00953898 -0.00941027 -0.00502281
v -0.00951479 -0.00990071 -0.00493911
v -0.00958133 -0.00990071 -0.00482702
v -0.00959948 -0.00990071 -0.00479264
v -0.00967005 -0.00990071 -0.00464916
v -0.00981826 -0.00842467 -0.00476873
v -0.00983338 -0.00907386 -0.00453408
v -0.00987270 -0.00833584 -0.00466710
v -0.00983136 -0.00986864 -0.00426505
v -0.00984346 -0.00990071 -0.00421424
v -0.00987068 -0.00990071 -0.00412755
v -0.00990194 -0.00967888 -0.00411261
v -0.01007434 -0.00806775 -0.00417089
v -0.00812549 -0.00990071 -0.00633505
v -0.00816279 -0.00990071 -0.00630964
v -0.00875158 -0.00990071 -0.00585828
v -0.00875763 -0.00984657 -0.00586426
v -0.00877578 -0.00967888 -0.00588070
v -0.00899355 -0.00887358 -0.00583138
v -0.00902178 -0.00990071 -0.00559224
v -0.00760627 -0.00990071 0.00672461
v -0.01011366 -0.00990071 0.00152496
v -0.01015197 -0.00941027 0.00179249
v -0.01019431 -0.00887358 0.00179249
v -0.01019532 -0.00887358 -0.00169587
v -0.01017415 -0.00914167 -0.00169587
v -0.00812549 -0.00990071 0.00643317
v -0.00815574 -0.00967888 0.00645409
v -0.00781093 -0.00990071 0.00661850
v -0.01009753 -0.00824543 -0.00399752
v -0.01011769 -0.00833584 -0.00385554
v -0.01010660 -0.00860497 -0.00377334
v -0.01010862 -0.00887095 -0.00357755
v -0.01003603 -0.00990071 -0.00330703
v -0.01000477 -0.00990071 -0.00357456
v -0.01008039 -0.00990071 -0.00272264
v -0.00995033 -0.00990071 -0.00384358
v -0.01008744 -0.00895874 -0.00367021
v -0.01009652 -0.00990071 -0.00246259
v -0.01009753 -0.00986759 -0.00250145
v -0.01010559 -0.00990071 -0.00221598
v -0.01014491 -0.00941027 -0.00223242
v -0.01018826 -0.00887358 -0.00223242
v -0.01019230 -0.00887358 -0.00196340
v -0.00912764 -0.00990071 -0.00546819
v -0.00915688 -0.00990071 -0.00543382
v -0.00970030 -0.00967888 -0.00464916
v -0.00968618 -0.00990071 -0.00461180
v -0.00981120 -0.00941027 -0.00447878
v -0.00982128 -0.00925258 -0.00450568
v -0.00979507 -0.00990071 -0.00435174
v -0.00982935 -0.00990071 -0.00425908
v -0.00883224 -0.00990071 -0.00578056
v -0.00896532 -0.00914167 -0.00580447
v -0.00890987 -0.00967888 -0.00574917
v -0.01011366 -0.00990071 -0.00169587
v -0.01012878 -0.00967888 -0.00196340
v -0.01011164 -0.00990071 -0.00191706
v -0.00978499 -0.00990071 -0.00437715
v -0.00979406 -0.00967888 -0.00443095
f 14 11 7
f 25 11 14
f 94 143 95
f 95 65 94
f 14 7 6
f 4 7 11
f 14 29 30
f 343 267 342
f 233 193 200
f 200 193 154
f 80 52 78
f 176 171 135
f 212 171 176
f 142 143 94
f 142 123 143
f 78 65 96
f 65 95 96
f 96 80 78
f 3 4 1
f 3 6 7
f 7 4 3
f 11 25 26
f 31 25 14
f 14 30 31
f 31 26 25
f 439 440 343
f 343 342 439
f 234 193 233
f 233 200 234
f 156 200 154
f 78 52 51
f 51 32 50
f 52 32 51
f 55 32 54
f 135 136 172
f 59 90 91
f 91 136 135
f 59 32 58
f 58 90 59
f 20 21 9
f 19 20 9
f 24 10 9
f 9 10 4
f 1 4 2
f 41 40 65
f 141 142 94
f 139 123 141
f 123 142 141
f 139 184 185
f 80 96 122
f 143 123 122
f 123 80 122
f 122 95 143
f 122 96 95
f 11 26 12
f 12 4 11
f 12 13 4
f 43 31 30
f 26 31 43
f 42 26 43
f 212 263 264
f 264 265 212
f 262 263 212
f 212 261 262
f 223 176 222
f 222 261 223
f 286 232 288
f 859 858 926
f 571 567 566
f 568 439 569
f 440 439 568
f 680 571 566
f 616 617 484
f 154 193 194
f 194 195 154
f 193 195 194
f 236 195 193
f 289 237 236
f 236 237 195
f 235 234 289
f 193 234 235
f 289 236 235
f 235 236 193
f 245 200 244
f 245 234 200
f 289 234 245
f 314 315 244
f 635 742 743
f 302 241 301
f 296 241 240
f 240 241 200
f 344 267 343
f 75 51 50
f 125 159 126
f 53 54 32
f 53 32 52
f 81 80 123
f 52 80 81
f 81 82 52
f 202 203 157
f 136 91 134
f 134 91 90
f 56 32 55
f 24 9 23
f 4 10 5
f 5 2 4
f 94 139 140
f 140 141 94
f 139 141 140
f 138 139 94
f 138 183 139
f 186 184 139
f 139 183 186
f 158 123 139
f 139 185 158
f 157 123 158
f 73 47 72
f 49 43 30
f 49 67 42
f 42 43 49
f 338 339 265
f 176 223 224
f 212 176 224
f 224 261 212
f 278 261 222
f 783 872 870
f 871 872 783
f 952 883 882
f 926 858 857
f 930 859 926
f 930 982 980
f 770 773 864
f 567 571 570
f 440 568 570
f 570 568 567
f 441 571 572
f 343 440 441
f 440 570 441
f 441 570 571
f 572 571 681
f 571 680 681
f 937 989 938
f 868 867 776
f 775 776 678
f 678 773 775
f 775 773 776
f 776 773 865
f 288 232 239
f 154 195 196
f 195 237 196
f 196 197 154
f 237 197 196
f 609 721 616
f 616 484 609
f 741 743 742
f 741 635 634
f 741 742 635
f 297 241 296
f 289 245 319
f 290 237 289
f 635 743 636
f 636 743 744
f 845 846 750
f 921 901 900
f 747 744 843
f 843 842 747
f 744 842 843
f 524 403 523
f 522 640 523
f 404 403 525
f 525 403 524
f 524 405 525
f 305 241 304
f 745 744 747
f 745 644 744
f 304 241 303
f 303 302 304
f 241 302 303
f 301 389 390
f 390 302 301
f 967 971 1001
f 908 971 967
f 909 825 908
f 909 829 825
f 82 125 83
f 55 54 83
f 54 82 83
f 159 125 124
f 124 125 82
f 124 123 157
f 157 159 124
f 124 81 123
f 82 81 124
f 79 82 54
f 54 53 79
f 52 82 79
f 79 53 52
f 247 249 207
f 136 169 177
f 177 211 225
f 177 169 211
f 325 326 250
f 205 202 157
f 135 172 173
f 173 174 135
f 174 173 217
f 217 173 172
f 180 172 136
f 136 179 180
f 180 179 172
f 226 179 225
f 170 169 136
f 136 134 170
f 170 134 169
f 211 169 168
f 169 134 168
f 57 58 32
f 32 56 57
f 22 9 21
f 22 23 9
f 4 13 8
f 8 9 4
f 33 15 39
f 39 15 38
f 27 26 42
f 27 12 26
f 69 112 70
f 48 49 30
f 48 30 29
f 199 155 154
f 117 73 72
f 149 148 117
f 151 155 192
f 149 117 151
f 73 117 118
f 118 117 148
f 596 710 598
f 710 601 598
f 603 601 711
f 711 715 603
f 712 601 710
f 713 601 712
f 710 799 800
f 709 710 596
f 464 709 596
f 706 707 594
f 752 755 665
f 267 212 266
f 266 338 267
f 339 338 266
f 212 265 266
f 265 339 266
f 267 338 340
f 279 223 261
f 261 224 279
f 279 224 223
f 486 617 616
f 486 484 617
f 366 286 288
f 367 366 288
f 232 286 227
f 152 182 137
f 137 182 181
f 818 902 820
f 820 819 818
f 837 743 836
f 841 842 744
f 729 728 730
f 892 805 891
f 713 805 806
f 806 895 896
f 805 895 806
f 941 871 940
f 872 871 941
f 940 873 941
f 941 873 872
f 939 991 940
f 940 871 939
f 881 880 878
f 878 880 879
f 879 880 789
f 263 262 334
f 334 262 261
f 884 793 883
f 859 930 927
f 958 982 975
f 982 930 975
f 556 671 672
f 335 264 263
f 429 430 335
f 263 334 335
f 335 334 429
f 883 952 954
f 958 883 957
f 883 956 957
f 957 956 982
f 957 982 958
f 938 989 970
f 970 908 938
f 970 971 908
f 1001 971 1003
f 988 934 987
f 934 986 987
f 933 860 932
f 861 933 862
f 860 933 861
f 932 860 931
f 827 868 776
f 936 865 863
f 988 936 863
f 863 934 988
f 863 865 773
f 773 770 863
f 863 770 862
f 862 934 863
f 776 865 866
f 866 937 938
f 105 112 69
f 105 147 112
f 108 148 149
f 726 823 728
f 728 727 726
f 481 609 478
f 721 609 720
f 244 315 316
f 316 245 244
f 316 317 245
f 407 317 406
f 406 316 405
f 317 316 406
f 300 389 301
f 300 299 389
f 301 241 300
f 241 299 300
f 631 741 634
f 634 515 631
f 836 743 835
f 743 741 835
f 389 299 388
f 296 379 380
f 380 297 296
f 393 394 304
f 381 382 296
f 386 379 296
f 296 382 383
f 383 384 296
f 408 319 407
f 318 317 407
f 407 319 318
f 245 317 318
f 318 319 245
f 370 478 371
f 481 478 370
f 477 370 369
f 369 370 290
f 369 290 289
f 532 408 531
f 533 408 532
f 637 636 744
f 846 847 751
f 751 750 846
f 919 846 920
f 919 847 846
f 974 919 920
f 921 919 974
f 641 644 524
f 524 523 641
f 526 405 404
f 404 525 526
f 526 525 405
f 241 312 242
f 200 241 242
f 520 640 522
f 519 640 520
f 520 393 519
f 394 393 520
f 968 967 912
f 908 967 968
f 343 441 442
f 912 830 828
f 828 830 735
f 97 65 78
f 97 98 65
f 250 323 257
f 257 210 250
f 323 258 257
f 211 210 257
f 257 258 211
f 165 132 164
f 164 210 165
f 134 166 165
f 166 132 165
f 164 132 163
f 206 202 247
f 247 207 206
f 203 202 206
f 250 210 209
f 209 210 164
f 164 163 209
f 249 251 209
f 256 250 209
f 178 179 136
f 136 177 178
f 225 179 178
f 178 177 225
f 324 250 256
f 324 325 250
f 414 410 326
f 250 326 322
f 326 410 322
f 322 323 250
f 321 251 249
f 246 287 249
f 248 287 246
f 246 205 248
f 202 205 246
f 230 185 184
f 184 229 230
f 230 229 185
f 228 229 184
f 204 205 157
f 157 158 204
f 204 158 185
f 185 229 204
f 175 217 176
f 174 217 175
f 175 176 135
f 135 174 175
f 172 179 213
f 179 226 213
f 84 125 126
f 84 83 125
f 84 56 55
f 55 83 84
f 160 128 127
f 160 161 129
f 129 128 160
f 203 161 160
f 160 159 157
f 157 203 160
f 9 8 16
f 16 8 15
f 38 46 61
f 61 39 38
f 15 8 18
f 18 34 15
f 36 46 38
f 36 34 46
f 69 70 45
f 45 61 46
f 112 147 113
f 113 70 112
f 154 197 198
f 198 199 154
f 72 115 116
f 116 117 72
f 116 115 153
f 153 156 116
f 116 156 154
f 154 155 116
f 155 151 116
f 116 151 117
f 73 118 74
f 807 806 896
f 713 806 807
f 363 364 284
f 714 601 713
f 714 711 601
f 713 807 714
f 804 800 891
f 713 800 804
f 891 805 804
f 804 805 713
f 802 712 710
f 713 712 802
f 595 464 594
f 709 464 595
f 282 226 225
f 225 281 282
f 799 885 887
f 707 795 796
f 796 795 885
f 607 474 606
f 715 716 606
f 898 814 811
f 691 782 783
f 691 583 690
f 690 685 691
f 869 871 783
f 783 782 869
f 869 782 815
f 815 814 869
f 584 583 692
f 583 691 692
f 357 276 356
f 276 357 358
f 458 359 358
f 358 357 458
f 277 278 222
f 222 276 277
f 276 358 277
f 359 278 277
f 277 358 359
f 662 665 547
f 662 752 665
f 659 752 662
f 410 414 411
f 323 322 411
f 411 322 410
f 259 258 328
f 211 258 259
f 420 421 328
f 420 544 545
f 328 421 329
f 329 421 330
f 329 259 328
f 661 545 660
f 661 752 659
f 760 849 851
f 547 665 666
f 665 757 666
f 547 666 667
f 667 666 757
f 705 706 594
f 707 706 705
f 663 664 547
f 669 703 594
f 341 342 267
f 267 340 341
f 341 340 342
f 342 340 437
f 679 680 566
f 678 680 679
f 860 861 768
f 859 860 768
f 484 486 375
f 366 367 377
f 33 39 60
f 60 39 64
f 722 818 819
f 722 819 820
f 656 751 722
f 915 972 973
f 744 743 839
f 845 918 917
f 973 972 917
f 917 846 845
f 920 846 917
f 729 730 613
f 613 730 721
f 613 728 729
f 613 727 728
f 613 726 727
f 721 720 613
f 728 823 824
f 823 907 824
f 821 907 823
f 898 811 897
f 897 811 896
f 894 895 805
f 990 939 965
f 991 939 990
f 783 870 785
f 785 692 783
f 878 879 787
f 996 1005 1004
f 994 1005 996
f 996 954 994
f 459 359 458
f 882 883 792
f 883 793 792
f 792 881 882
f 880 881 792
f 789 880 791
f 880 792 791
f 950 881 949
f 877 881 878
f 948 949 877
f 877 949 881
f 877 874 948
f 875 874 877
f 878 787 877
f 877 787 875
f 951 881 950
f 952 881 951
f 953 952 882
f 882 881 953
f 953 881 952
f 261 278 331
f 331 332 261
f 331 278 359
f 429 334 333
f 333 334 261
f 261 332 333
f 923 883 958
f 923 884 883
f 983 930 980
f 980 979 928
f 859 927 928
f 926 975 976
f 925 975 926
f 926 857 925
f 857 924 925
f 924 923 925
f 958 975 925
f 925 923 958
f 765 672 671
f 558 430 429
f 556 672 558
f 431 335 430
f 430 558 431
f 997 954 996
f 777 680 678
f 678 776 777
f 776 867 777
f 986 1003 1002
f 1002 987 986
f 988 987 1002
f 1002 989 988
f 1002 1003 971
f 1002 970 989
f 971 970 1002
f 986 933 984
f 935 986 934
f 935 933 986
f 935 934 862
f 862 933 935
f 932 931 981
f 910 866 938
f 291 370 371
f 290 370 291
f 237 290 291
f 291 292 237
f 237 292 293
f 293 292 373
f 181 182 189
f 189 227 181
f 232 227 189
f 149 151 110
f 106 118 148
f 69 45 68
f 68 105 69
f 371 478 482
f 529 406 405
f 407 406 529
f 633 515 513
f 633 631 515
f 514 388 513
f 389 388 514
f 514 515 389
f 513 515 514
f 387 388 299
f 304 302 391
f 302 390 391
f 389 515 391
f 391 390 389
f 392 391 515
f 392 393 304
f 304 391 392
f 296 384 385
f 385 386 296
f 319 408 409
f 481 370 480
f 726 613 612
f 612 613 481
f 481 480 612
f 744 640 639
f 652 532 531
f 531 651 652
f 654 751 656
f 848 751 847
f 847 919 848
f 848 921 900
f 848 919 921
f 901 921 966
f 921 974 966
f 744 644 643
f 644 641 643
f 643 640 744
f 643 641 523
f 311 312 241
f 313 242 312
f 312 400 313
f 315 314 313
f 313 403 404
f 404 405 313
f 313 316 315
f 405 316 313
f 521 520 522
f 644 745 645
f 645 745 747
f 747 746 645
f 524 644 645
f 645 746 651
f 651 746 749
f 845 750 749
f 749 746 747
f 747 842 749
f 842 841 749
f 504 503 628
f 969 909 908
f 908 968 969
f 829 909 969
f 913 830 834
f 913 832 830
f 735 830 831
f 830 832 831
f 445 446 343
f 825 829 734
f 829 828 734
f 911 968 912
f 912 828 911
f 911 828 829
f 829 969 911
f 911 969 968
f 65 102 103
f 78 51 77
f 167 210 211
f 167 165 210
f 134 165 167
f 211 168 167
f 167 168 134
f 207 163 162
f 162 206 207
f 162 161 203
f 203 206 162
f 129 161 162
f 162 130 129
f 162 131 130
f 162 163 132
f 132 131 162
f 208 163 207
f 208 209 163
f 208 207 249
f 249 209 208
f 252 209 251
f 253 209 252
f 256 209 255
f 249 287 320
f 320 321 249
f 222 176 221
f 176 217 218
f 216 217 172
f 58 57 88
f 88 128 129
f 127 128 88
f 39 61 62
f 17 8 13
f 13 18 17
f 17 18 8
f 38 15 37
f 37 36 38
f 15 36 37
f 15 34 35
f 35 36 15
f 34 36 35
f 28 45 46
f 27 45 28
f 28 18 13
f 13 12 28
f 12 27 28
f 46 34 28
f 34 18 28
f 71 45 70
f 92 62 71
f 61 45 71
f 71 62 61
f 152 113 146
f 146 113 147
f 146 182 152
f 147 105 146
f 114 113 152
f 70 113 114
f 152 137 114
f 199 198 201
f 192 155 201
f 155 199 201
f 201 198 239
f 596 598 597
f 598 466 597
f 597 464 596
f 467 364 363
f 467 466 364
f 364 466 468
f 468 598 601
f 577 578 449
f 472 365 364
f 475 474 607
f 475 365 474
f 603 474 604
f 604 470 603
f 364 365 285
f 285 284 364
f 226 284 285
f 710 800 801
f 801 802 710
f 801 800 713
f 713 802 801
f 283 284 226
f 226 282 283
f 885 795 855
f 798 799 710
f 710 796 798
f 798 796 799
f 886 885 799
f 799 796 886
f 886 796 885
f 710 709 797
f 797 796 710
f 715 606 605
f 605 606 474
f 603 715 605
f 605 474 603
f 813 716 812
f 716 811 812
f 812 814 813
f 812 811 814
f 965 939 899
f 899 898 965
f 899 939 871
f 871 869 899
f 899 814 898
f 899 869 814
f 607 606 684
f 684 578 607
f 685 578 684
f 449 578 579
f 579 450 449
f 356 450 456
f 784 691 783
f 783 692 784
f 784 692 691
f 452 583 584
f 452 453 356
f 457 586 458
f 458 357 457
f 356 453 454
f 454 457 357
f 454 453 586
f 586 457 454
f 588 459 458
f 585 452 584
f 586 453 585
f 453 452 585
f 422 420 545
f 421 420 422
f 330 421 422
f 660 545 657
f 545 544 657
f 538 411 537
f 537 411 414
f 543 544 418
f 544 420 418
f 260 329 330
f 259 329 260
f 225 211 260
f 211 259 260
f 423 549 550
f 330 422 423
f 423 422 549
f 660 752 753
f 753 661 660
f 752 661 753
f 658 659 545
f 545 661 658
f 658 661 659
f 665 755 756
f 756 757 665
f 756 849 757
f 761 760 852
f 852 760 851
f 850 760 759
f 849 760 850
f 759 757 850
f 757 849 850
f 758 757 759
f 759 667 758
f 758 667 757
f 594 703 704
f 704 705 594
f 704 703 761
f 664 663 668
f 668 663 547
f 761 703 668
f 547 667 668
f 668 667 759
f 668 760 761
f 759 760 668
f 438 568 569
f 567 568 438
f 569 439 438
f 438 439 342
f 342 437 438
f 678 679 564
f 337 338 265
f 864 773 772
f 773 677 772
f 772 770 864
f 774 773 678
f 678 677 774
f 774 677 773
f 376 375 487
f 487 375 486
f 374 373 484
f 93 60 92
f 914 837 836
f 914 915 837
f 743 837 838
f 838 839 743
f 837 915 838
f 906 821 902
f 907 821 906
f 902 821 905
f 822 821 823
f 961 998 962
f 962 894 961
f 895 894 962
f 896 895 962
f 1000 998 965
f 965 999 1000
f 1000 999 998
f 965 898 964
f 964 999 965
f 898 897 964
f 998 999 964
f 805 892 893
f 893 894 805
f 942 873 940
f 942 943 873
f 944 945 873
f 873 943 944
f 948 874 947
f 584 692 693
f 692 785 693
f 693 694 584
f 693 785 694
f 873 874 786
f 786 874 875
f 786 787 694
f 872 873 786
f 786 870 872
f 786 785 870
f 694 785 786
f 993 1004 1005
f 993 994 950
f 1005 994 993
f 995 954 952
f 995 994 954
f 995 952 950
f 950 994 995
f 789 791 790
f 950 952 992
f 992 951 950
f 952 951 992
f 429 333 428
f 428 333 332
f 332 427 428
f 426 331 359
f 332 331 426
f 426 427 332
f 856 924 857
f 856 923 924
f 793 884 856
f 884 923 856
f 978 983 980
f 980 928 978
f 930 983 978
f 978 927 930
f 978 928 927
f 929 928 979
f 929 931 860
f 929 860 859
f 859 928 929
f 979 981 929
f 929 981 931
f 977 975 930
f 977 976 975
f 977 930 926
f 926 976 977
f 556 558 557
f 557 558 429
f 557 428 556
f 429 428 557
f 859 768 767
f 858 859 767
f 954 997 955
f 955 956 883
f 883 954 955
f 779 682 778
f 778 777 867
f 778 868 779
f 867 868 778
f 932 984 985
f 985 933 932
f 985 984 933
f 294 293 373
f 373 374 294
f 294 367 288
f 376 377 294
f 294 377 367
f 294 375 376
f 294 374 375
f 145 146 105
f 150 151 192
f 150 110 151
f 106 68 104
f 104 74 118
f 118 106 104
f 109 68 108
f 110 68 109
f 109 108 149
f 149 110 109
f 108 68 107
f 107 68 106
f 148 108 107
f 107 106 148
f 42 67 44
f 44 27 42
f 44 45 27
f 44 68 45
f 371 482 372
f 372 482 373
f 373 292 372
f 372 291 371
f 292 291 372
f 483 478 609
f 483 482 478
f 483 615 484
f 484 373 483
f 373 482 483
f 528 529 405
f 649 529 648
f 648 528 647
f 529 528 648
f 648 651 531
f 531 649 648
f 407 529 530
f 530 408 407
f 531 408 530
f 530 649 531
f 513 631 632
f 632 633 513
f 631 633 632
f 298 387 299
f 298 299 241
f 241 297 298
f 518 515 634
f 518 392 515
f 490 489 491
f 319 409 368
f 289 319 368
f 368 369 289
f 477 369 368
f 368 409 477
f 534 408 533
f 821 822 724
f 820 821 724
f 823 726 724
f 724 822 823
f 638 637 744
f 744 639 638
f 532 652 653
f 653 654 532
f 751 654 653
f 750 751 653
f 656 532 655
f 655 654 656
f 532 654 655
f 816 722 751
f 751 848 816
f 642 523 640
f 640 643 642
f 642 643 523
f 241 309 310
f 310 311 241
f 309 311 310
f 304 394 395
f 395 305 304
f 394 520 395
f 520 521 395
f 309 397 398
f 312 311 398
f 398 311 309
f 243 313 314
f 242 313 243
f 243 314 244
f 244 200 243
f 200 242 243
f 402 521 522
f 403 313 402
f 522 523 402
f 402 523 403
f 646 645 651
f 651 648 646
f 646 648 647
f 646 647 524
f 524 645 646
f 504 628 629
f 737 831 832
f 683 780 731
f 780 826 731
f 343 442 443
f 66 41 65
f 65 103 66
f 65 98 99
f 99 100 65
f 101 102 65
f 65 100 101
f 51 75 76
f 76 77 51
f 254 209 253
f 254 255 209
f 176 218 219
f 219 218 273
f 272 218 217
f 273 218 272
f 275 276 222
f 273 274 220
f 222 221 220
f 220 275 222
f 274 275 220
f 220 221 176
f 176 219 220
f 220 219 273
f 352 450 356
f 352 275 274
f 449 450 352
f 350 274 273
f 273 272 350
f 90 58 89
f 58 88 89
f 89 131 132
f 130 131 89
f 129 130 89
f 89 88 129
f 92 60 63
f 63 62 92
f 63 60 64
f 64 39 63
f 39 62 63
f 599 466 598
f 599 468 466
f 469 470 364
f 364 468 469
f 603 470 469
f 476 475 607
f 365 475 476
f 474 365 473
f 473 604 474
f 365 472 473
f 470 604 473
f 449 352 351
f 351 352 274
f 365 346 345
f 345 285 365
f 808 714 807
f 808 809 714
f 803 716 715
f 714 809 803
f 715 711 803
f 711 714 803
f 891 800 890
f 800 889 890
f 959 889 888
f 888 800 799
f 888 889 800
f 594 464 593
f 464 597 465
f 465 597 466
f 282 361 362
f 362 283 282
f 362 467 363
f 363 284 362
f 284 283 362
f 466 467 362
f 362 465 466
f 362 361 464
f 464 465 362
f 922 887 885
f 885 855 922
f 922 855 887
f 707 796 708
f 796 797 708
f 594 707 708
f 708 595 594
f 709 595 708
f 708 797 709
f 717 716 813
f 717 606 716
f 717 814 815
f 813 814 717
f 686 578 685
f 581 456 450
f 356 456 451
f 451 452 356
f 455 357 356
f 356 454 455
f 455 454 357
f 698 697 789
f 698 589 697
f 460 589 590
f 359 459 460
f 459 588 460
f 460 588 458
f 697 589 587
f 587 585 697
f 587 460 458
f 589 460 587
f 458 586 587
f 586 585 587
f 584 694 695
f 695 585 584
f 694 787 695
f 546 422 545
f 545 659 546
f 659 662 546
f 546 662 547
f 547 422 546
f 548 422 547
f 549 422 548
f 538 540 539
f 539 411 538
f 539 540 411
f 543 418 542
f 542 418 411
f 328 258 327
f 327 258 323
f 413 327 323
f 417 416 411
f 411 418 417
f 328 416 417
f 417 418 328
f 419 420 328
f 328 418 419
f 419 418 420
f 330 281 280
f 280 260 330
f 280 281 225
f 225 260 280
f 707 705 794
f 705 704 794
f 794 704 761
f 761 855 794
f 794 795 707
f 794 855 795
f 754 669 664
f 664 668 754
f 703 669 754
f 754 668 703
f 436 438 437
f 436 435 566
f 566 567 436
f 567 438 436
f 338 337 436
f 436 337 435
f 566 435 565
f 435 564 565
f 435 337 434
f 264 335 336
f 265 264 336
f 336 337 265
f 676 677 562
f 676 772 677
f 484 375 485
f 485 374 484
f 375 374 485
f 844 838 915
f 839 838 844
f 845 749 844
f 844 918 845
f 844 917 918
f 820 902 903
f 902 905 903
f 903 821 820
f 963 962 998
f 998 964 963
f 963 964 897
f 963 897 896
f 896 962 963
f 945 947 946
f 946 947 874
f 873 945 946
f 946 874 873
f 875 787 876
f 876 786 875
f 787 786 876
f 556 428 555
f 555 428 427
f 701 792 793
f 701 700 792
f 590 700 701
f 701 591 590
f 461 426 359
f 359 460 461
f 461 460 590
f 590 591 461
f 554 555 427
f 671 762 763
f 763 762 793
f 793 856 763
f 288 239 238
f 238 294 288
f 293 294 238
f 239 198 238
f 238 198 197
f 238 197 237
f 237 293 238
f 146 145 191
f 191 189 182
f 182 146 191
f 110 150 144
f 144 145 105
f 614 483 609
f 615 483 614
f 614 609 484
f 484 615 614
f 527 528 405
f 647 528 527
f 527 405 524
f 524 647 527
f 650 529 649
f 649 530 650
f 650 530 529
f 392 518 516
f 634 635 516
f 516 518 634
f 516 639 640
f 516 638 639
f 637 638 516
f 635 636 516
f 636 637 516
f 726 612 725
f 725 724 726
f 612 724 725
f 533 532 610
f 610 532 656
f 656 722 610
f 750 653 748
f 748 749 750
f 651 749 748
f 748 652 651
f 748 653 652
f 818 722 817
f 722 816 817
f 900 901 817
f 817 848 900
f 817 816 848
f 305 395 306
f 397 307 306
f 241 305 306
f 306 307 241
f 308 397 309
f 308 307 397
f 308 309 241
f 241 307 308
f 397 521 399
f 399 398 397
f 312 398 399
f 399 400 312
f 401 313 400
f 401 402 313
f 400 399 401
f 738 739 628
f 628 737 738
f 504 629 505
f 628 739 740
f 740 629 628
f 627 628 503
f 627 737 628
f 626 627 503
f 732 731 825
f 825 734 732
f 442 573 493
f 446 445 447
f 343 446 447
f 447 344 343
f 683 731 619
f 731 732 619
f 619 732 620
f 444 445 343
f 343 443 444
f 121 97 78
f 78 120 121
f 78 77 119
f 119 120 78
f 276 275 354
f 353 352 356
f 353 354 275
f 356 276 353
f 276 354 353
f 269 345 346
f 226 285 269
f 285 345 269
f 87 88 57
f 57 86 87
f 127 88 87
f 87 86 127
f 127 86 85
f 85 86 57
f 90 89 133
f 133 134 90
f 133 166 134
f 133 132 166
f 133 89 132
f 598 468 600
f 600 599 598
f 468 599 600
f 602 468 601
f 602 469 468
f 602 601 603
f 603 469 602
f 608 476 607
f 577 476 608
f 607 578 608
f 578 577 608
f 470 473 471
f 471 473 472
f 364 470 471
f 471 472 364
f 449 351 348
f 716 803 810
f 810 803 809
f 896 811 810
f 810 811 716
f 809 808 810
f 810 807 896
f 810 808 807
f 960 889 959
f 960 890 889
f 464 361 463
f 463 593 464
f 330 425 360
f 360 425 361
f 360 281 330
f 360 282 281
f 360 361 282
f 330 423 424
f 424 425 330
f 424 423 550
f 361 425 424
f 761 853 854
f 854 855 761
f 854 853 887
f 887 855 854
f 606 717 718
f 718 717 815
f 578 686 687
f 583 452 582
f 452 451 582
f 699 790 791
f 590 589 699
f 589 698 699
f 789 790 699
f 699 698 789
f 699 791 792
f 699 700 590
f 792 700 699
f 788 695 787
f 788 879 789
f 788 787 879
f 697 585 696
f 585 695 696
f 695 788 696
f 789 697 696
f 696 788 789
f 411 540 541
f 541 542 411
f 411 416 412
f 416 413 412
f 323 411 412
f 412 413 323
f 415 413 416
f 327 413 415
f 415 416 328
f 328 327 415
f 563 564 435
f 435 434 563
f 563 434 562
f 562 677 563
f 563 677 678
f 678 564 563
f 562 434 433
f 433 434 337
f 433 561 562
f 862 770 769
f 769 861 862
f 769 768 861
f 770 772 771
f 840 749 841
f 840 844 749
f 839 844 840
f 840 841 744
f 744 839 840
f 973 917 916
f 917 844 916
f 916 915 973
f 916 844 915
f 904 905 821
f 821 903 904
f 904 903 905
f 670 671 556
f 556 555 670
f 555 554 670
f 427 426 553
f 553 554 427
f 426 461 553
f 764 763 856
f 764 856 857
f 764 765 671
f 671 763 764
f 764 857 858
f 858 765 764
f 858 767 766
f 767 673 766
f 766 673 672
f 766 765 858
f 672 765 766
f 559 431 558
f 559 558 672
f 672 673 559
f 190 145 189
f 189 191 190
f 190 191 145
f 188 150 192
f 189 145 188
f 111 68 110
f 110 144 111
f 105 68 111
f 111 144 105
f 392 516 517
f 517 640 519
f 517 516 640
f 820 724 723
f 724 610 723
f 723 722 820
f 723 610 722
f 535 534 533
f 533 610 535
f 535 409 408
f 408 534 535
f 611 610 724
f 611 612 480
f 611 724 612
f 397 306 396
f 396 306 395
f 396 521 397
f 396 395 521
f 834 738 833
f 833 913 834
f 832 913 833
f 833 737 832
f 833 738 737
f 507 506 630
f 506 505 630
f 630 505 629
f 629 740 630
f 737 627 736
f 627 626 736
f 735 831 736
f 831 737 736
f 623 732 734
f 497 622 623
f 574 492 442
f 442 493 574
f 574 493 492
f 575 447 445
f 492 447 575
f 442 492 575
f 575 443 442
f 492 493 378
f 378 447 492
f 497 498 378
f 378 503 504
f 504 505 378
f 378 505 506
f 378 506 507
f 507 508 378
f 378 508 509
f 509 510 378
f 378 510 511
f 511 512 378
f 378 512 488
f 488 489 378
f 489 490 378
f 378 490 491
f 491 381 378
f 378 381 296
f 495 619 620
f 275 352 355
f 355 353 275
f 352 353 355
f 274 350 349
f 269 348 349
f 349 351 274
f 349 348 351
f 214 213 226
f 226 269 214
f 172 213 214
f 449 348 448
f 448 577 449
f 448 476 577
f 365 476 448
f 448 348 365
f 347 346 365
f 365 348 347
f 347 269 346
f 347 348 269
f 550 549 551
f 551 424 550
f 549 548 551
f 547 664 551
f 551 548 547
f 594 593 551
f 593 463 551
f 551 669 594
f 664 669 551
f 462 463 361
f 361 424 462
f 462 424 463
f 685 684 781
f 781 718 815
f 815 782 781
f 782 691 781
f 781 691 685
f 688 579 578
f 578 687 688
f 580 687 686
f 580 688 687
f 579 688 580
f 450 579 580
f 580 581 450
f 583 582 580
f 580 582 451
f 456 581 580
f 580 451 456
f 337 336 432
f 432 433 337
f 335 431 432
f 432 336 335
f 431 561 432
f 561 433 432
f 675 769 770
f 770 771 675
f 768 769 675
f 671 670 702
f 793 762 702
f 702 762 671
f 702 670 591
f 702 701 793
f 591 701 702
f 591 670 592
f 592 670 554
f 592 461 591
f 592 553 461
f 554 553 592
f 674 673 767
f 674 559 673
f 674 767 768
f 768 675 674
f 192 201 231
f 231 188 192
f 231 201 239
f 231 239 232
f 232 189 231
f 189 188 231
f 187 144 150
f 150 188 187
f 145 144 187
f 187 188 145
f 479 535 610
f 610 611 479
f 409 535 479
f 479 611 480
f 479 370 477
f 479 480 370
f 625 736 626
f 620 732 733
f 732 623 733
f 733 623 622
f 499 623 500
f 500 378 499
f 499 378 498
f 499 498 497
f 497 623 499
f 576 444 443
f 443 575 576
f 445 444 576
f 576 575 445
f 502 626 503
f 503 378 502
f 268 344 295
f 295 240 268
f 296 240 295
f 295 378 296
f 619 495 618
f 618 493 573
f 618 495 493
f 494 378 493
f 493 495 494
f 494 495 378
f 496 495 620
f 497 378 496
f 378 495 496
f 269 349 270
f 270 214 269
f 270 349 350
f 463 424 552
f 552 551 463
f 424 551 552
f 719 781 684
f 718 781 719
f 719 684 606
f 606 718 719
f 690 583 689
f 583 580 689
f 689 580 686
f 689 685 690
f 689 686 685
f 560 561 431
f 431 559 560
f 559 674 560
f 562 561 560
f 560 676 562
f 560 675 676
f 560 674 675
f 477 409 536
f 536 479 477
f 409 479 536
f 501 625 626
f 626 502 501
f 501 502 378
f 501 378 500
f 500 625 501
f 500 623 624
f 624 625 500
f 624 623 734
f 735 736 624
f 736 625 624
f 621 622 497
f 497 496 621
f 621 496 620
f 214 270 215
f 215 216 172
f 172 214 215
f 217 216 271
f 271 270 350
f 216 215 271
f 271 215 270
f 271 272 217
f 271 350 272
f 19 40 41
f 41 20 19
f 153 115 240
f 240 29 14
f 212 268 240
f 135 171 240
f 240 115 72
f 14 32 240
f 240 156 153
f 240 171 212
f 72 47 240
f 240 32 59
f 240 47 29
f 240 91 135
f 200 156 240
f 59 91 240
f 344 268 212
f 344 212 267
f 988 989 937
f 937 936 988
f 29 47 48
f 47 73 48
f 936 937 866
f 866 865 936
f 683 682 780
f 780 682 779
f 247 202 246
f 246 249 247
f 228 287 248
f 248 229 228
f 204 229 248
f 248 205 204
f 160 127 126
f 126 159 160
f 74 48 73
f 49 48 74
f 613 720 609
f 613 609 481
f 776 866 910
f 910 827 776
f 908 825 910
f 938 908 910
f 826 780 779
f 779 868 826
f 573 682 683
f 572 682 573
f 573 441 572
f 573 442 441
f 114 71 70
f 92 71 114
f 92 114 93
f 93 114 137
f 778 682 572
f 572 681 778
f 778 681 680
f 680 777 778
f 49 74 104
f 67 49 104
f 67 104 44
f 44 104 68
f 827 910 731
f 731 910 825
f 731 826 868
f 868 827 731
f 436 437 340
f 436 340 338
f 565 564 679
f 565 679 566
f 401 399 521
f 521 402 401
f 119 3 1
f 119 21 20
f 119 32 14
f 14 6 119
f 1 2 119
f 50 32 119
f 119 75 50
f 119 10 24
f 6 3 119
f 24 23 119
f 20 41 119
f 119 5 10
f 119 22 21
f 2 5 119
f 41 66 119
f 23 22 119
f 119 76 75
f 98 97 119
f 119 103 102
f 119 99 98
f 102 101 119
f 119 66 103
f 100 99 119
f 119 101 100
f 97 121 119
f 77 76 119
f 119 121 120
f 126 127 85
f 85 84 126
f 85 57 56
f 56 84 85
f 393 392 517
f 519 393 517
f 630 756 755
f 19 9 630
f 940 991 630
f 184 186 630
f 630 40 19
f 630 974 920
f 616 721 630
f 630 949 948
f 94 65 630
f 382 381 630
f 630 15 33
f 630 998 961
f 65 40 630
f 834 830 630
f 9 16 630
f 902 818 630
f 630 377 376
f 630 892 891
f 630 893 892
f 630 979 980
f 513 388 630
f 630 252 251
f 251 321 630
f 630 138 94
f 630 888 799
f 630 227 286
f 630 730 728
f 630 914 836
f 996 1004 630
f 980 982 630
f 630 990 965
f 630 631 513
f 630 380 379
f 630 298 297
f 630 967 1001
f 630 324 256
f 630 508 507
f 630 228 184
f 183 138 630
f 630 186 183
f 630 254 253
f 630 752 660
f 630 486 616
f 286 366 630
f 630 383 382
f 33 60 630
f 961 894 630
f 982 956 630
f 630 997 996
f 630 984 932
f 1001 1003 630
f 836 835 630
f 956 955 630
f 379 386 630
f 511 510 630
f 912 967 630
f 630 830 912
f 326 325 630
f 630 540 538
f 901 966 630
f 660 657 630
f 755 752 630
f 630 320 287
f 761 852 630
f 538 537 630
f 181 227 630
f 630 137 181
f 543 542 630
f 630 93 137
f 721 730 630
f 920 917 630
f 965 998 630
f 728 824 630
f 945 944 630
f 630 1003 986
f 741 631 630
f 630 835 741
f 932 981 630
f 297 380 630
f 630 512 511
f 630 381 491
f 491 489 630
f 384 383 630
f 630 385 384
f 630 510 509
f 509 508 630
f 325 324 630
f 630 414 326
f 256 255 630
f 287 228 630
f 630 16 15
f 891 890 630
f 799 887 630
f 630 544 543
f 851 849 630
f 366 377 630
f 376 487 630
f 972 915 630
f 630 917 972
f 630 824 907
f 630 906 902
f 991 990 630
f 630 942 940
f 948 947 630
f 950 949 630
f 630 993 950
f 986 984 630
f 630 981 979
f 388 387 630
f 488 512 630
f 630 489 488
f 386 385 630
f 630 966 974
f 253 252 630
f 630 817 901
f 321 320 630
f 630 657 544
f 630 853 761
f 630 537 414
f 849 756 630
f 630 852 851
f 630 487 486
f 60 93 630
f 915 914 630
f 907 906 630
f 894 893 630
f 943 942 630
f 630 944 943
f 630 947 945
f 1004 993 630
f 630 955 997
f 387 298 630
f 630 738 834
f 255 254 630
f 630 541 540
f 959 888 630
f 887 853 630
f 630 960 959
f 818 817 630
f 739 738 630
f 630 740 739
f 890 960 630
f 542 541 630
f 675 771 772
f 772 676 675
f 447 378 295
f 344 447 295
f 618 573 683
f 683 619 618
f 624 734 828
f 624 828 735
f 621 733 622
f 620 733 621

