# https://github.com/mikedh/trimesh
v 0.00842846 -0.00901235 0.00542840
v 0.00876231 -0.00901499 0.00542840
v 0.00842846 -0.00901235 0.00040974
v 0.00823564 -0.00903350 0.00040974
v 0.00822392 -0.00903482 0.00542840
v 0.00903188 -0.00910356 0.00542840
v 0.00887611 -0.00905201 0.00040974
v 0.00876231 -0.00901499 0.00040974
v 0.00809462 -0.00904936 0.00040974
v 0.00809462 -0.00904936 0.00542840
v 0.00913623 -0.00935470 0.00542840
v 0.00903188 -0.00910356 0.00040974
v 0.00797212 -0.00909959 0.00040974
v 0.00788289 -0.00913660 0.00542840
v 0.00911771 -0.00955958 0.00542840
v 0.00913623 -0.00935470 0.00055073
v 0.00913586 -0.00935470 0.00040974
v 0.00788289 -0.00913660 0.00040974
v 0.00780085 -0.00935470 0.00542840
v 0.00910599 -0.00968912 0.00542840
v 0.00910599 -0.00968912 0.00040974
v 0.00780085 -0.00935470 0.00040974
v 0.00565750 -0.01903429 0.00542840
v 0.00904398 -0.01002221 0.00542840
v 0.00907007 -0.00988210 0.00040974
v 0.00773279 -0.00968912 0.00040974
v 0.00623294 -0.01772570 0.00040974
v 0.00552668 -0.02151135 0.00040974
v 0.00549077 -0.02170433 0.00040974
v 0.00535730 -0.02070240 0.00542791
v 0.00535730 -0.02070240 0.00542840
v 0.00758534 -0.01047691 0.00040974
v 0.00900580 -0.01022709 0.00542840
v 0.00904398 -0.01002221 0.00040974
v 0.00549077 -0.02184445 0.00040974
v 0.00527413 -0.02203743 0.00542840
v 0.00527791 -0.02170433 0.00542840
v 0.00527904 -0.02167261 0.00542840
v 0.00530815 -0.02103153 0.00542840
v 0.00892791 -0.01064478 0.00542840
v 0.00854567 -0.01269358 0.00055073
v 0.00898160 -0.01035663 0.00040974
v 0.00549115 -0.02203743 0.00040974
v 0.00551874 -0.02212070 0.00040974
v 0.00555693 -0.02223570 0.00040974
v 0.00541402 -0.02238110 0.00542840
v 0.00854567 -0.01269358 0.00542840
v 0.00707531 -0.02057419 0.00542840
v 0.00711350 -0.02036931 0.00055073
v 0.00801144 -0.01555661 0.00040974
v 0.00869652 -0.01188464 0.00040974
v 0.00575845 -0.02228461 0.00040974
v 0.00575845 -0.02250799 0.00542840
v 0.00696037 -0.02119015 0.00542840
v 0.00691122 -0.02145319 0.00055073
v 0.00694222 -0.02128664 0.00040974
v 0.00609230 -0.02230311 0.00040974
v 0.00609230 -0.02251592 0.00542840
v 0.00686434 -0.02170433 0.00542840
v 0.00686434 -0.02170433 0.00055073
v 0.00688400 -0.02159859 0.00040974
v 0.00642614 -0.02229650 0.00040974
v 0.00642614 -0.02246702 0.00542840
v 0.00681746 -0.02190921 0.00542840
v 0.00678078 -0.02203743 0.00542840
v 0.00676793 -0.02203743 0.00055073
v 0.00676717 -0.02203743 0.00040974
v 0.00680763 -0.02189732 0.00040974
v 0.00686320 -0.02170433 0.00040974
v 0.00664808 -0.02224760 0.00040974
v 0.00666963 -0.02233087 0.00542840
v 0.00671462 -0.02224495 0.00542840
f 36 45 46
f 53 46 45
f 58 53 57
f 58 57 62
f 52 53 45
f 52 57 53
f 70 71 63
f 63 62 70
f 58 62 63
f 67 71 70
f 15 20 21
f 7 2 6
f 6 12 7
f 14 10 13
f 13 18 14
f 22 23 19
f 26 23 22
f 32 23 26
f 71 67 72
f 2 7 8
f 21 17 16
f 11 15 16
f 16 15 21
f 16 17 12
f 9 13 10
f 28 29 23
f 37 29 36
f 23 29 30
f 29 39 30
f 44 45 36
f 36 43 44
f 36 29 35
f 35 43 36
f 60 59 64
f 64 65 60
f 69 61 60
f 60 68 69
f 60 61 55
f 67 68 60
f 54 59 60
f 60 55 54
f 10 5 4
f 4 9 10
f 4 5 1
f 4 1 3
f 23 32 27
f 27 28 23
f 38 39 29
f 29 37 38
f 23 30 31
f 31 30 39
f 66 65 72
f 66 72 67
f 67 60 66
f 66 60 65
f 47 41 40
f 40 41 34
f 34 33 40
f 24 33 34
f 49 50 41
f 54 55 49
f 41 47 48
f 54 49 48
f 48 49 41
f 41 50 51
f 20 24 25
f 21 20 25
f 24 34 25
f 50 49 56
f 55 61 56
f 56 49 55
f 42 34 41
f 41 51 42
f 19 14 22
f 14 18 22
f 1 2 8
f 3 1 8
f 16 6 11
f 16 12 6
f 48 53 58
f 48 14 19
f 36 46 48
f 48 65 64
f 11 6 48
f 46 53 48
f 1 5 48
f 58 63 48
f 48 2 1
f 19 23 48
f 64 59 48
f 48 15 11
f 6 2 48
f 48 10 14
f 48 63 71
f 20 15 48
f 48 37 36
f 48 5 10
f 39 38 48
f 71 72 48
f 40 33 48
f 48 59 54
f 48 24 20
f 72 65 48
f 23 31 48
f 48 38 37
f 48 31 39
f 48 33 24
f 48 47 40
f 29 28 42
f 70 62 42
f 42 17 21
f 42 52 45
f 42 35 29
f 42 32 26
f 69 68 42
f 3 8 42
f 26 22 42
f 42 62 57
f 57 52 42
f 42 67 70
f 42 7 12
f 12 17 42
f 18 13 42
f 42 22 18
f 42 61 69
f 45 44 42
f 42 68 67
f 42 8 7
f 13 9 42
f 42 4 3
f 42 44 43
f 43 35 42
f 42 27 32
f 9 4 42
f 28 27 42
f 21 25 42
f 42 51 50
f 42 56 61
f 42 25 34
f 50 56 42

