# https://github.com/mikedh/trimesh
v -0.01041930 -0.02225589 -0.00900825
v -0.01041930 -0.02225589 -0.00472184
v -0.01041930 -0.01644496 -0.00900825
v -0.01041722 -0.02225589 -0.00958873
v -0.00881851 -0.04720970 -0.00784728
v -0.01041930 -0.01644496 -0.00472184
v -0.00881851 -0.04720970 -0.00472184
v -0.01039851 -0.01586730 -0.00958873
v -0.01041722 -0.01644496 -0.00958873
v -0.01033406 -0.02225589 -0.00998356
v -0.01031327 -0.02283355 -0.00996307
v -0.01037980 -0.02283355 -0.00958873
v -0.00866258 -0.04720970 -0.00830179
v -0.00861061 -0.04779308 -0.00825537
v -0.00871456 -0.04779308 -0.00784728
v -0.01039851 -0.01586730 -0.00472184
v -0.00871456 -0.04779308 -0.00472184
v -0.01036733 -0.01573003 -0.00472184
v -0.01031535 -0.01550698 -0.00958873
v -0.01029248 -0.01552985 -0.00993353
v -0.01032367 -0.01586730 -0.00997211
v -0.01033406 -0.01644496 -0.00998356
v -0.00995777 -0.02225589 -0.01013365
v -0.00995777 -0.02283355 -0.01011316
v -0.00866258 -0.03327720 -0.01002817
v -0.00861685 -0.03386058 -0.00999381
v -0.00821769 -0.04779308 -0.00842596
v -0.00823848 -0.04835930 -0.00830299
v -0.00805553 -0.04895412 -0.00825899
v -0.00854200 -0.04815340 -0.00818545
v -0.00855864 -0.04819344 -0.00784728
v -0.00861893 -0.04803901 -0.00472184
v -0.01031535 -0.01550698 -0.00472184
v -0.00401196 0.00154832 -0.01016922
v -0.00387475 0.00186289 -0.01048146
v -0.00393712 0.00154832 -0.01055802
v -0.00402652 0.00097066 -0.01064421
v -0.00357330 0.00097066 -0.01085398
v -0.00995777 -0.01586730 -0.01010472
v -0.00995777 -0.01644496 -0.01013365
v -0.00937774 -0.02457797 -0.01017886
v -0.00937774 -0.02514991 -0.01017404
v -0.00821769 -0.03327720 -0.01017826
v -0.00357330 -0.00019038 -0.01087809
v -0.00821769 -0.03386058 -0.01014390
v -0.00763558 -0.04895412 -0.00842958
v -0.00763558 -0.03502162 -0.01017525
v -0.00763558 -0.04950890 -0.00829033
v -0.00796405 -0.04929728 -0.00818545
v -0.00842143 -0.04847941 -0.00784728
v -0.00818442 -0.04895412 -0.00784728
v -0.00855864 -0.04819344 -0.00472184
v -0.00842350 -0.04847941 -0.00726740
v -0.01009498 -0.01544978 -0.00472184
v -0.00066900 0.00270936 -0.00779786
v -0.00183114 0.00213170 -0.00782558
v -0.00238414 0.00208594 -0.00802330
v -0.00336125 0.00252634 -0.00864959
v -0.00386644 0.00184573 -0.00871409
v -0.00399533 0.00154832 -0.00900825
v -0.00401196 0.00154832 -0.00958873
v -0.00388099 0.00187433 -0.01016922
v -0.00371259 0.00216601 -0.01016922
v -0.00342362 0.00260069 -0.01016922
v -0.00337580 0.00254350 -0.01056404
v -0.00357122 0.00208594 -0.01061950
v -0.00357330 0.00154832 -0.01076778
v -0.00299120 0.00213170 -0.01085278
v -0.00299120 0.00154832 -0.01087930
v -0.00357330 0.00038728 -0.01087629
v -0.00241117 -0.01063975 -0.01087930
v -0.00241117 -0.01122314 -0.01086905
v -0.00299120 -0.00193480 -0.01087930
v -0.00705555 -0.04953178 -0.00846333
v -0.00708466 -0.05013232 -0.00832831
v -0.00647552 -0.03559928 -0.01017886
v -0.00705555 -0.03559928 -0.01015837
v -0.00531339 -0.05127620 -0.00846454
v -0.00589550 -0.05069282 -0.00847539
v -0.00647552 -0.05011516 -0.00847659
v -0.00744016 -0.04995502 -0.00823066
v -0.00727384 -0.05030962 -0.00784728
v -0.00748590 -0.05002365 -0.00784728
v -0.00798277 -0.04932588 -0.00784728
v -0.00818858 -0.04895412 -0.00726740
v -0.00842350 -0.04847941 -0.00472184
v -0.00299120 -0.01363673 -0.00472184
v -0.00008897 0.00270936 -0.00776892
v -0.00008897 0.00315547 -0.00796664
v -0.00066900 0.00313260 -0.00799557
v -0.00128437 0.00275511 -0.00794373
v -0.00183114 0.00258353 -0.00801426
v -0.00217209 0.00246914 -0.00808719
v -0.00281241 0.00309828 -0.00864055
v -0.00317206 0.00288094 -0.00900825
v -0.00341114 0.00258925 -0.00900825
v -0.00370220 0.00215458 -0.00900825
v -0.00387475 0.00186289 -0.00900825
v -0.00388099 0.00187433 -0.00958873
v -0.00371259 0.00216601 -0.00958873
v -0.00342362 0.00260069 -0.00958873
v -0.00318662 0.00289238 -0.01016922
v -0.00283112 0.00311544 -0.01057610
v -0.00301199 0.00272652 -0.01067616
v -0.00241117 0.00270936 -0.01086122
v -0.00241117 0.00213170 -0.01087930
v 0.00223114 -0.01063975 -0.01087930
v 0.00048897 -0.01122314 -0.01086905
v 0.00165111 -0.03792137 -0.01017886
v -0.00650463 -0.05072714 -0.00833735
v -0.00691003 -0.05055555 -0.00824814
v -0.00299120 -0.05243724 -0.00847478
v -0.00415333 -0.05185386 -0.00847900
v -0.00473336 -0.05185386 -0.00842174
v -0.00591628 -0.05130480 -0.00832771
v -0.00727384 -0.05030962 -0.00472184
v -0.00698279 -0.05062991 -0.00784728
v -0.00748590 -0.05002365 -0.00472184
v -0.00798277 -0.04932588 -0.00472184
v -0.00818858 -0.04895412 -0.00472184
v -0.00263569 -0.01356238 -0.00472184
v 0.00048897 0.00270936 -0.00778339
v -0.00241117 -0.01353378 -0.00472184
v 0.00281117 -0.01353950 -0.00472184
v 0.00048897 0.00314404 -0.00798171
v -0.00008897 0.00421356 -0.00865442
v -0.00111182 0.00306968 -0.00806067
v -0.00066900 0.00419069 -0.00868455
v -0.00097045 0.00416209 -0.00871409
v -0.00183114 0.00371026 -0.00861222
v -0.00219080 0.00362447 -0.00867129
v -0.00288309 0.00316119 -0.00900825
v -0.00289556 0.00317835 -0.00958873
v -0.00318662 0.00289238 -0.00958873
v -0.00289556 0.00317835 -0.01016922
v -0.00220743 0.00363591 -0.01053631
v -0.00240493 0.00330418 -0.01065928
v -0.00183114 0.00329274 -0.01083108
v -0.00125111 0.00329274 -0.01087809
v -0.00183114 0.00270936 -0.01087930
v 0.00223114 -0.01122314 -0.01086664
v 0.00165111 -0.01122314 -0.01086785
v 0.00339120 -0.00077376 -0.01087930
v 0.00977774 -0.03386058 -0.01017826
v 0.00687552 -0.03792137 -0.01017886
v 0.00397330 -0.03850475 -0.01015294
v 0.00339120 -0.03850475 -0.01014691
v -0.00633208 -0.05112749 -0.00824633
v -0.00669589 -0.05091588 -0.00784728
v -0.00241117 -0.05243724 -0.00847900
v -0.00241117 -0.05290623 -0.00830842
v -0.00299120 -0.05290051 -0.00830359
v -0.00357330 -0.05243724 -0.00841812
v -0.00528220 -0.05185386 -0.00828491
v -0.00413254 -0.05246012 -0.00829757
v -0.00473336 -0.05226566 -0.00825115
v -0.00573542 -0.05165940 -0.00823186
v -0.00698279 -0.05062991 -0.00472184
v 0.00165111 0.00213170 -0.00777013
v 0.00106900 0.00270936 -0.00785874
v 0.01035777 -0.01540975 -0.00472184
v 0.01071535 -0.01550698 -0.00472184
v 0.00106900 0.00307540 -0.00805705
v 0.00084240 0.00417925 -0.00869782
v 0.00048897 0.00420213 -0.00866949
v -0.00008897 0.00428220 -0.00900825
v -0.00066900 0.00423072 -0.00900825
v -0.00099748 0.00417353 -0.00900825
v -0.00128853 0.00407630 -0.00900825
v -0.00183114 0.00385896 -0.00900825
v -0.00223861 0.00365878 -0.00900825
v -0.00252967 0.00345288 -0.00900825
v -0.00254214 0.00346432 -0.00958873
v -0.00254214 0.00346432 -0.01016922
v -0.00225109 0.00366450 -0.01016922
v -0.00183114 0.00388184 -0.01016922
v -0.00100164 0.00417353 -0.01048146
v -0.00183114 0.00373313 -0.01062131
v -0.00121785 0.00389900 -0.01063999
v -0.00066900 0.00387040 -0.01073765
v -0.00066900 0.00329274 -0.01087930
v -0.00008897 0.00387040 -0.01077683
v 0.00339120 0.00038728 -0.01087930
v 0.01035777 -0.03327720 -0.01013365
v 0.01035777 -0.03386058 -0.01013305
v 0.01035777 -0.03443824 -0.01010532
v 0.00687552 -0.03850475 -0.01015294
v -0.00640692 -0.05119613 -0.00784728
v -0.00609300 -0.05148782 -0.00784728
v -0.00651710 -0.05109318 -0.00472184
v -0.00669589 -0.05091588 -0.00472184
v 0.00455333 -0.05243724 -0.00847900
v 0.00455333 -0.05290623 -0.00830842
v -0.00241117 -0.05309497 -0.00784728
v -0.00357330 -0.05282616 -0.00824754
v -0.00299120 -0.05307210 -0.00784728
v -0.00392465 -0.05275181 -0.00817641
v -0.00506599 -0.05217415 -0.00817520
v 0.00223530 0.00213170 -0.00795036
v 0.00204403 0.00250918 -0.00804379
v 0.00160329 0.00270936 -0.00799316
v 0.01079851 -0.01586730 -0.00472184
v 0.01071535 -0.01550698 -0.00958873
v 0.00401280 0.00154832 -0.00958873
v 0.00398578 0.00154832 -0.00900825
v 0.00377996 0.00202303 -0.00900825
v 0.00374254 0.00194868 -0.00865803
v 0.00323735 0.00258925 -0.00862729
v 0.00206898 0.00365306 -0.00864899
v 0.00165111 0.00374457 -0.00859414
v 0.00165111 0.00393903 -0.00900825
v 0.00119166 0.00410490 -0.00900825
v 0.00090269 0.00419069 -0.00900825
v 0.00048897 0.00425360 -0.00900825
v -0.00008897 0.00429936 -0.00958873
v -0.00066900 0.00424216 -0.00958873
v -0.00102243 0.00417925 -0.00958873
v -0.00131140 0.00409346 -0.00958873
v -0.00183114 0.00388184 -0.00958873
v -0.00225109 0.00366450 -0.00958873
v -0.00131140 0.00409346 -0.01016922
v -0.00102243 0.00417925 -0.01016922
v -0.00066900 0.00424216 -0.01016922
v -0.00066900 0.00420213 -0.01052788
v -0.00008897 0.00423072 -0.01056706
v 0.00106900 0.00329274 -0.01087930
v 0.00048897 0.00387040 -0.01075754
v 0.00281117 0.00154832 -0.01087930
v 0.00339120 0.00097066 -0.01087870
v 0.01035777 -0.01644496 -0.01013365
v 0.01073406 -0.03327720 -0.00998356
v 0.01073198 -0.03386058 -0.00998356
v 0.01072783 -0.03443824 -0.00997271
v 0.01070704 -0.03502162 -0.00994016
v 0.01067585 -0.03538195 -0.00990520
v 0.01035777 -0.03502162 -0.01002997
v 0.00861769 -0.05069282 -0.00836990
v 0.00861769 -0.05011516 -0.00844223
v 0.00745555 -0.03850475 -0.01006132
v 0.00513336 -0.05243724 -0.00847780
v -0.00640692 -0.05119613 -0.00472184
v -0.00628426 -0.05131052 -0.00472184
v -0.00580194 -0.05170516 -0.00784728
v -0.00609300 -0.05148782 -0.00472184
v 0.00513336 -0.05290623 -0.00830721
v 0.00455333 -0.05309497 -0.00784728
v 0.00803558 -0.05387281 -0.00576948
v 0.00803558 -0.05397004 -0.00547954
v 0.00803558 -0.05409587 -0.00494487
v -0.00357330 -0.05292911 -0.00784728
v -0.00299120 -0.05307782 -0.00726740
v 0.00803558 -0.05413019 -0.00472184
v -0.00424688 -0.05263742 -0.00784728
v -0.00473336 -0.05239148 -0.00784728
v -0.00395583 -0.05276897 -0.00784728
v -0.00508886 -0.05218559 -0.00784728
v -0.00537784 -0.05199685 -0.00784728
v 0.00269267 0.00314404 -0.00862608
v 0.01079851 -0.01586730 -0.00958873
v 0.01080683 -0.01609036 -0.00472184
v 0.01069248 -0.01552985 -0.00993353
v 0.00401072 0.00154832 -0.01016922
v 0.00379036 0.00203447 -0.01016922
v 0.00379036 0.00203447 -0.00958873
v 0.00362404 0.00232616 -0.00958873
v 0.00360949 0.00230900 -0.00900825
v 0.00332051 0.00269220 -0.00900825
v 0.00308143 0.00297817 -0.00900825
v 0.00243696 0.00352152 -0.00900825
v 0.00214798 0.00370454 -0.00900825
v 0.00165111 0.00396763 -0.00958873
v 0.00122077 0.00412778 -0.00958873
v 0.00092971 0.00420213 -0.00958873
v 0.00048897 0.00427076 -0.00958873
v -0.00008897 0.00429936 -0.01016922
v 0.00048897 0.00421356 -0.01054777
v 0.00165111 0.00329274 -0.01085338
v 0.00223114 0.00270936 -0.01087689
v 0.00223114 0.00213170 -0.01087930
v 0.00107108 0.00391044 -0.01065326
v 0.00165111 0.00377317 -0.01064361
v 0.00281117 0.00213170 -0.01087508
v 0.00339120 0.00154832 -0.01084434
v 0.01035777 -0.01586730 -0.01010472
v 0.01072367 -0.01586730 -0.00997211
v 0.01073406 -0.01644496 -0.00998356
v 0.01081722 -0.03386058 -0.00958873
v 0.01081306 -0.03443824 -0.00958873
v 0.01079227 -0.03502162 -0.00958873
v 0.01073198 -0.03558784 -0.00960019
v 0.01071327 -0.03618266 -0.00941212
v 0.01008751 -0.04416125 -0.00816736
v 0.00949709 -0.04873678 -0.00815350
v 0.00905011 -0.05069282 -0.00825597
v 0.00898566 -0.05115609 -0.00820293
v 0.00559489 -0.05284332 -0.00824995
v -0.00563978 -0.05181954 -0.00472184
v -0.00580194 -0.05170516 -0.00472184
v 0.00851582 -0.05339238 -0.00652236
v 0.00803558 -0.05370695 -0.00610583
v 0.00513336 -0.05308926 -0.00784728
v 0.00845553 -0.05394717 -0.00540178
v -0.00357330 -0.05292911 -0.00472184
v -0.00380822 -0.05283188 -0.00472184
v -0.00299120 -0.05307782 -0.00472184
v 0.00853661 -0.05399292 -0.00494487
v 0.00854492 -0.05401008 -0.00472184
v -0.00424688 -0.05264314 -0.00726740
v -0.00473336 -0.05239720 -0.00726740
v -0.00395583 -0.05276897 -0.00472184
v -0.00508886 -0.05218559 -0.00472184
v -0.00537784 -0.05199685 -0.00472184
v 0.00279246 0.00322983 -0.00900825
v 0.01081930 -0.01644496 -0.00900825
v 0.01081722 -0.01644496 -0.00958873
v 0.01081930 -0.01644496 -0.00472184
v 0.00384649 0.00154832 -0.01063457
v 0.00375293 0.00197156 -0.01055380
v 0.00362404 0.00232616 -0.01016922
v 0.00333506 0.00270364 -0.00958873
v 0.00309598 0.00299533 -0.00958873
v 0.00245359 0.00353868 -0.00958873
v 0.00216253 0.00371598 -0.00958873
v 0.00165111 0.00396763 -0.01016922
v 0.00122077 0.00412206 -0.01016922
v 0.00092971 0.00420213 -0.01016922
v 0.00048897 0.00427076 -0.01016922
v 0.00087982 0.00418497 -0.01050256
v 0.00286730 0.00276655 -0.01070630
v 0.00226232 0.00333278 -0.01068882
v 0.00208769 0.00367022 -0.01056525
v 0.00342654 0.00214886 -0.01068038
v 0.01081930 -0.03502162 -0.00900825
v 0.01081722 -0.03559928 -0.00900825
v 0.01079435 -0.03618266 -0.00900825
v 0.01066754 -0.03897946 -0.00816736
v 0.01038480 -0.04198787 -0.00784728
v 0.01031412 -0.04256553 -0.00784728
v 0.00970706 -0.04720970 -0.00784728
v 0.00950124 -0.04877110 -0.00784728
v 0.00909585 -0.05185386 -0.00726740
v 0.00922058 -0.05069282 -0.00784728
v 0.00900022 -0.05185386 -0.00773758
v 0.00895448 -0.05223134 -0.00762184
v 0.00861769 -0.05153929 -0.00811974
v 0.00861769 -0.05259739 -0.00741870
v 0.00861769 -0.05287192 -0.00712816
v 0.00861769 -0.05185386 -0.00794494
v 0.00867382 -0.05318648 -0.00670440
v 0.00890458 -0.05329515 -0.00624508
v 0.00882558 -0.05360400 -0.00494487
v 0.00872164 -0.05376415 -0.00472184
v -0.00424688 -0.05264314 -0.00472184
v -0.00473336 -0.05239720 -0.00472184
v 0.00280493 0.00324698 -0.00958873
v 0.01081930 -0.03502162 -0.00472184
v 0.00325606 0.00260641 -0.01059418
v 0.00333506 0.00270364 -0.01016922
v 0.00309598 0.00299533 -0.01016922
v 0.00245359 0.00353868 -0.01016922
v 0.00216253 0.00371598 -0.01016922
v 0.00271138 0.00316691 -0.01059659
v 0.01081722 -0.03559928 -0.00472184
v 0.01081099 -0.03618266 -0.00842777
v 0.01079851 -0.03676032 -0.00842777
v 0.01072159 -0.03850475 -0.00784728
v 0.01067585 -0.03907097 -0.00784728
v 0.01050538 -0.04082683 -0.00726740
v 0.01044717 -0.04140449 -0.00726740
v 0.01042430 -0.04162755 -0.00472184
v 0.01038480 -0.04198787 -0.00472184
v 0.01035777 -0.04221093 -0.00472184
v 0.01031412 -0.04256553 -0.00472184
v 0.01013740 -0.04392103 -0.00472184
v 0.00890874 -0.05331231 -0.00552535
v 0.00902308 -0.05243724 -0.00668632
v 0.00917485 -0.05127620 -0.00726740
v 0.00894616 -0.05290623 -0.00668632
v 0.00893369 -0.05278041 -0.00703835
v 0.00898150 -0.05243152 -0.00724631
v 0.00890666 -0.05330659 -0.00585809
v 0.00883390 -0.05360400 -0.00472184
v 0.00280493 0.00324698 -0.01016922
v 0.01080891 -0.03618266 -0.00472184
v 0.01081099 -0.03618266 -0.00494487
v 0.01077980 -0.03734370 -0.00784728
v 0.01075485 -0.03792137 -0.00784728
v 0.01079851 -0.03676032 -0.00726740
v 0.01070496 -0.03872208 -0.00472184
v 0.01074238 -0.03814442 -0.00472184
v 0.01072159 -0.03850475 -0.00472184
v 0.01067585 -0.03907097 -0.00472184
v 0.01065922 -0.03924827 -0.00472184
v 0.01059685 -0.03988884 -0.00472184
v 0.01050538 -0.04082683 -0.00472184
v 0.01044717 -0.04140449 -0.00472184
v 0.00890874 -0.05331231 -0.00472184
v 0.01080475 -0.03640572 -0.00472184
v 0.01079643 -0.03676032 -0.00552535
v 0.01077980 -0.03734370 -0.00610583
v 0.01075485 -0.03792137 -0.00472184
v 0.01078812 -0.03698338 -0.00472184
v 0.01077772 -0.03734370 -0.00472184
v 0.01076941 -0.03756676 -0.00472184
f 12 11 5
f 5 11 13
f 305 251 252
f 252 251 196
f 196 249 252
f 56 33 55
f 260 316 314
f 187 144 186
f 186 239 187
f 40 21 39
f 4 5 1
f 4 12 5
f 11 12 4
f 4 10 11
f 5 13 14
f 14 15 5
f 30 15 14
f 26 13 11
f 26 14 13
f 30 14 29
f 365 334 364
f 234 289 290
f 289 291 290
f 335 291 289
f 335 334 365
f 289 334 335
f 287 333 334
f 198 189 157
f 250 196 251
f 252 306 307
f 252 249 302
f 302 306 252
f 58 59 33
f 204 205 162
f 55 33 54
f 203 204 162
f 262 204 203
f 284 230 229
f 185 186 144
f 145 144 187
f 145 107 144
f 144 107 143
f 143 185 144
f 129 128 167
f 167 128 166
f 214 166 165
f 199 159 162
f 162 159 122
f 30 50 31
f 31 15 30
f 22 21 40
f 47 76 77
f 74 46 47
f 117 111 149
f 75 46 74
f 75 111 81
f 28 29 14
f 30 29 49
f 234 290 235
f 235 290 291
f 235 186 234
f 235 236 186
f 384 385 363
f 384 398 385
f 288 334 289
f 288 287 334
f 156 198 157
f 109 146 147
f 248 302 249
f 33 56 57
f 57 58 33
f 91 56 55
f 127 131 91
f 90 91 55
f 127 91 90
f 90 128 129
f 162 207 208
f 208 199 162
f 258 199 208
f 162 205 206
f 206 207 162
f 205 204 206
f 206 204 264
f 206 264 265
f 258 208 268
f 214 165 164
f 202 260 259
f 259 260 314
f 203 259 261
f 262 203 261
f 261 318 262
f 107 145 141
f 229 230 183
f 183 228 229
f 185 143 184
f 184 231 185
f 129 167 168
f 166 128 126
f 126 165 166
f 128 90 126
f 200 199 258
f 159 199 200
f 162 122 161
f 161 122 124
f 123 124 88
f 124 122 88
f 88 121 123
f 87 121 88
f 88 54 87
f 55 54 88
f 53 31 50
f 50 85 53
f 17 15 32
f 15 31 32
f 32 31 52
f 8 16 18
f 19 18 33
f 8 18 19
f 9 3 8
f 9 8 21
f 21 22 9
f 14 26 27
f 27 47 46
f 27 28 14
f 46 29 27
f 29 28 27
f 41 44 42
f 25 26 11
f 45 43 47
f 45 27 26
f 47 27 45
f 26 25 45
f 45 25 43
f 149 188 190
f 157 189 148
f 189 188 148
f 149 111 148
f 148 188 149
f 82 49 81
f 81 111 82
f 111 117 82
f 80 75 74
f 74 47 80
f 80 47 79
f 48 75 81
f 81 49 48
f 48 49 29
f 48 29 46
f 46 75 48
f 84 85 51
f 51 85 50
f 51 49 84
f 51 50 30
f 30 49 51
f 304 250 303
f 404 400 403
f 401 400 404
f 403 400 399
f 385 398 399
f 374 339 338
f 366 390 391
f 292 235 291
f 172 131 171
f 171 173 172
f 220 173 171
f 129 131 130
f 130 131 127
f 130 90 129
f 127 90 130
f 94 95 58
f 56 91 92
f 92 91 131
f 131 94 92
f 266 206 265
f 207 206 266
f 217 168 216
f 216 168 167
f 276 275 327
f 258 269 209
f 209 269 270
f 209 200 258
f 227 277 226
f 281 277 227
f 43 42 71
f 71 42 44
f 38 39 21
f 21 37 38
f 40 39 38
f 315 259 314
f 318 332 357
f 362 359 357
f 362 357 329
f 329 357 332
f 285 261 259
f 285 315 286
f 259 315 285
f 285 286 230
f 230 284 285
f 318 357 319
f 362 331 360
f 234 186 233
f 186 185 233
f 233 289 234
f 233 288 289
f 165 126 89
f 89 126 90
f 89 88 122
f 89 90 55
f 55 88 89
f 60 61 33
f 33 59 60
f 21 8 20
f 8 19 20
f 20 37 21
f 20 36 37
f 11 10 24
f 24 25 11
f 43 25 24
f 242 189 244
f 242 188 189
f 149 190 191
f 157 148 115
f 84 49 83
f 49 82 83
f 250 304 255
f 308 253 255
f 189 198 243
f 403 399 402
f 402 399 398
f 388 399 400
f 385 399 388
f 338 372 373
f 373 374 338
f 365 386 387
f 387 366 365
f 401 390 387
f 390 366 387
f 336 335 365
f 365 366 336
f 336 366 367
f 291 335 336
f 336 292 291
f 337 372 338
f 337 336 367
f 338 292 337
f 292 336 337
f 254 309 256
f 254 256 198
f 154 156 157
f 154 114 156
f 157 115 154
f 154 115 114
f 113 114 78
f 77 113 78
f 114 115 78
f 78 47 77
f 79 47 78
f 306 302 350
f 59 58 96
f 58 95 96
f 172 173 133
f 104 66 65
f 170 131 129
f 170 171 131
f 58 57 93
f 93 94 58
f 93 92 94
f 93 57 56
f 56 92 93
f 258 268 313
f 313 269 258
f 215 167 166
f 215 216 167
f 274 166 214
f 274 215 166
f 210 209 164
f 281 227 280
f 280 227 276
f 225 275 276
f 276 227 225
f 68 66 104
f 68 69 38
f 362 329 330
f 330 329 277
f 330 331 362
f 281 331 330
f 330 277 281
f 283 284 229
f 283 285 284
f 229 282 283
f 283 329 332
f 283 282 329
f 263 204 262
f 264 204 263
f 262 318 263
f 318 319 263
f 321 313 268
f 267 268 208
f 267 321 268
f 320 321 267
f 267 266 265
f 265 320 267
f 267 208 207
f 207 266 267
f 358 357 359
f 358 319 357
f 383 359 362
f 362 360 383
f 185 231 232
f 232 233 185
f 288 233 232
f 232 231 287
f 287 288 232
f 125 164 165
f 165 89 125
f 125 89 122
f 35 19 34
f 35 20 19
f 36 20 35
f 34 62 35
f 66 36 35
f 35 65 66
f 23 24 10
f 40 44 23
f 23 44 41
f 41 42 23
f 23 42 43
f 43 24 23
f 241 190 188
f 188 242 241
f 75 80 110
f 111 75 110
f 110 80 79
f 110 148 111
f 110 115 148
f 79 78 110
f 110 78 115
f 310 255 304
f 198 256 257
f 257 243 198
f 367 392 393
f 389 366 391
f 367 366 389
f 389 392 367
f 368 337 367
f 367 393 368
f 397 382 375
f 375 374 397
f 339 374 375
f 338 339 293
f 293 292 338
f 235 292 293
f 382 352 351
f 351 350 382
f 306 350 351
f 351 352 307
f 351 307 306
f 186 236 237
f 236 235 237
f 102 65 64
f 65 35 64
f 95 133 134
f 134 96 95
f 172 133 132
f 132 133 95
f 95 94 132
f 132 131 172
f 132 94 131
f 98 60 59
f 98 99 61
f 61 60 98
f 129 168 169
f 169 170 129
f 269 313 322
f 270 269 322
f 322 323 270
f 276 327 328
f 328 331 281
f 281 280 328
f 328 280 276
f 361 360 331
f 211 209 270
f 164 209 211
f 275 225 224
f 224 223 275
f 177 223 224
f 224 225 180
f 224 180 179
f 179 177 224
f 222 223 177
f 136 176 177
f 136 135 174
f 73 71 44
f 44 69 73
f 70 69 44
f 38 69 70
f 70 44 40
f 40 38 70
f 107 141 142
f 142 108 107
f 142 141 145
f 145 108 142
f 109 76 72
f 76 47 72
f 47 43 72
f 43 71 72
f 66 68 67
f 67 68 38
f 67 38 37
f 37 36 67
f 67 36 66
f 277 329 278
f 329 282 278
f 226 277 278
f 278 279 226
f 228 279 278
f 229 228 278
f 278 282 229
f 317 332 318
f 317 283 332
f 318 261 317
f 261 285 317
f 285 283 317
f 160 122 159
f 160 125 122
f 298 243 297
f 297 257 312
f 243 257 297
f 372 337 371
f 337 370 371
f 395 368 394
f 394 368 393
f 382 350 381
f 381 375 382
f 299 350 302
f 249 196 194
f 194 248 249
f 152 194 196
f 240 192 187
f 187 237 240
f 239 186 238
f 186 237 238
f 187 239 238
f 238 237 187
f 99 98 100
f 220 171 219
f 171 170 219
f 313 321 355
f 355 322 313
f 326 328 327
f 325 328 326
f 325 326 272
f 177 176 221
f 221 222 177
f 178 177 179
f 178 136 177
f 175 136 174
f 176 136 175
f 104 65 103
f 135 136 103
f 102 135 103
f 103 65 102
f 69 68 105
f 105 68 104
f 125 160 163
f 163 210 164
f 164 125 163
f 209 210 163
f 200 209 201
f 159 200 201
f 201 160 159
f 209 163 201
f 201 163 160
f 369 396 370
f 369 370 337
f 337 368 369
f 293 342 295
f 295 240 237
f 344 345 295
f 302 248 247
f 247 299 302
f 248 194 247
f 350 299 349
f 196 250 195
f 195 152 196
f 194 152 151
f 153 114 113
f 152 195 153
f 348 345 344
f 63 35 62
f 63 64 35
f 96 134 101
f 97 100 98
f 59 96 97
f 97 98 59
f 97 101 100
f 96 101 97
f 164 211 212
f 211 272 212
f 273 272 326
f 271 272 211
f 270 323 271
f 271 211 270
f 218 168 217
f 218 169 168
f 170 169 218
f 218 219 170
f 180 139 138
f 179 180 138
f 138 178 179
f 139 105 138
f 139 181 140
f 140 105 139
f 226 181 182
f 182 227 226
f 182 181 139
f 182 139 180
f 182 225 227
f 180 225 182
f 375 381 376
f 339 375 376
f 376 377 339
f 376 381 350
f 340 293 339
f 339 377 340
f 235 293 294
f 293 295 294
f 294 237 235
f 294 295 237
f 343 342 344
f 344 295 343
f 343 295 342
f 245 299 300
f 300 247 245
f 299 247 300
f 246 247 194
f 347 349 299
f 198 156 197
f 156 195 197
f 197 255 253
f 250 255 197
f 197 195 250
f 253 254 197
f 197 254 198
f 245 246 193
f 112 147 146
f 112 153 113
f 112 151 152
f 152 153 112
f 109 147 112
f 112 76 109
f 77 76 112
f 112 113 77
f 156 114 155
f 114 153 155
f 155 195 156
f 155 153 195
f 164 212 213
f 213 212 272
f 272 273 213
f 214 164 213
f 213 273 274
f 213 274 214
f 324 361 331
f 325 272 324
f 272 271 324
f 331 328 324
f 324 328 325
f 137 105 104
f 137 138 105
f 104 103 137
f 178 138 137
f 136 178 137
f 137 103 136
f 69 105 106
f 105 140 106
f 341 376 350
f 344 342 341
f 377 376 341
f 341 342 293
f 293 340 341
f 341 340 377
f 245 247 301
f 301 246 245
f 247 246 301
f 296 348 344
f 296 299 245
f 296 347 299
f 345 348 296
f 296 295 345
f 245 240 296
f 240 295 296
f 150 112 146
f 151 112 150
f 350 349 379
f 379 347 344
f 349 347 379
f 344 347 346
f 346 296 344
f 347 296 346
f 344 341 380
f 380 379 344
f 341 379 380
f 378 341 350
f 350 379 378
f 378 379 341
f 5 7 2
f 5 2 1
f 316 356 333
f 314 316 333
f 333 356 363
f 363 334 333
f 7 5 15
f 15 17 7
f 364 334 363
f 363 385 364
f 250 305 303
f 251 305 250
f 145 146 109
f 187 146 145
f 1 2 3
f 2 6 3
f 6 16 3
f 3 16 8
f 119 120 85
f 85 84 119
f 162 202 259
f 259 203 162
f 143 183 184
f 184 183 230
f 230 286 184
f 286 231 184
f 53 86 52
f 52 31 53
f 120 86 53
f 53 85 120
f 19 61 34
f 33 61 19
f 1 3 9
f 9 4 1
f 10 4 9
f 9 22 10
f 82 158 116
f 82 117 158
f 309 353 354
f 308 353 309
f 311 309 354
f 256 309 311
f 314 333 315
f 333 287 315
f 315 231 286
f 287 231 315
f 158 117 191
f 191 117 149
f 119 84 83
f 83 118 119
f 116 118 83
f 83 82 116
f 243 298 244
f 244 189 243
f 388 400 386
f 388 386 365
f 388 364 385
f 365 364 388
f 386 400 387
f 387 400 401
f 308 309 254
f 254 253 308
f 34 61 99
f 99 62 34
f 275 215 274
f 274 327 275
f 223 215 275
f 216 215 223
f 263 319 265
f 265 264 263
f 358 321 320
f 359 321 358
f 265 319 358
f 358 320 265
f 10 22 23
f 23 22 40
f 310 353 308
f 308 255 310
f 257 311 312
f 256 311 257
f 323 322 361
f 361 322 360
f 216 223 222
f 217 216 222
f 135 134 133
f 102 134 135
f 135 133 173
f 173 174 135
f 72 145 109
f 72 108 145
f 72 71 107
f 107 108 72
f 396 356 316
f 396 382 397
f 119 118 396
f 2 7 396
f 396 6 2
f 7 17 396
f 363 356 396
f 397 374 396
f 396 120 119
f 316 260 396
f 396 305 252
f 396 304 303
f 391 390 396
f 52 86 396
f 396 202 162
f 252 307 396
f 162 161 396
f 303 305 396
f 33 18 396
f 396 260 202
f 396 54 33
f 396 124 123
f 123 121 396
f 396 32 52
f 307 352 396
f 244 298 396
f 158 191 396
f 396 384 363
f 87 54 396
f 396 121 87
f 396 86 120
f 396 16 6
f 116 158 396
f 396 118 116
f 354 353 396
f 396 373 372
f 396 390 401
f 396 404 403
f 398 384 396
f 396 311 354
f 396 161 124
f 17 32 396
f 396 18 16
f 396 242 244
f 190 241 396
f 396 297 312
f 401 404 396
f 403 402 396
f 396 389 391
f 312 311 396
f 396 352 382
f 372 371 396
f 396 191 190
f 396 402 398
f 374 373 396
f 353 310 396
f 396 241 242
f 396 310 304
f 396 393 392
f 392 389 396
f 395 394 396
f 298 297 396
f 396 371 370
f 396 394 393
f 355 321 359
f 359 383 355
f 360 322 355
f 355 383 360
f 175 174 173
f 175 173 220
f 220 219 175
f 175 219 176
f 395 396 369
f 369 368 395
f 62 99 63
f 99 100 63
f 101 63 100
f 64 63 101
f 101 134 102
f 102 64 101
f 327 274 273
f 273 326 327
f 217 222 218
f 222 221 218
f 176 219 218
f 218 221 176
f 193 240 245
f 192 240 193
f 193 246 194
f 194 151 193
f 323 361 324
f 324 271 323
f 106 143 107
f 106 183 143
f 107 71 106
f 228 183 106
f 226 279 106
f 106 279 228
f 71 73 106
f 106 73 69
f 106 181 226
f 106 140 181
f 150 146 187
f 187 192 150
f 192 193 150
f 150 193 151

