# https://github.com/mikedh/trimesh
v 0.00078241 -0.02328147 -0.00472124
v 0.00968062 -0.03331654 -0.00472124
v 0.00078241 -0.02328147 0.00047496
v 0.00078241 -0.01370535 -0.00472124
v 0.01081930 -0.03331654 -0.00472124
v 0.00968062 -0.03331654 0.00047496
v 0.00078241 -0.01385252 0.00047496
v 0.00223253 -0.01369373 0.00047496
v 0.00223253 -0.01355624 -0.00472124
v 0.01081930 -0.03331654 0.00047496
v 0.01081930 -0.01644553 -0.00472124
v 0.00261864 -0.01366662 0.00047496
v 0.00281317 -0.01365306 0.00047496
v 0.00281317 -0.01353687 -0.00472124
v 0.01081930 -0.01644553 0.00047496
v 0.01080751 -0.01608921 -0.00472124
v 0.01035951 -0.01540949 0.00047496
v 0.01035951 -0.01540949 -0.00472124
v 0.01080653 -0.01606016 0.00047496
v 0.01079965 -0.01586457 -0.00472124
v 0.01071516 -0.01550632 0.00047496
v 0.01071516 -0.01550632 -0.00472124
v 0.01079965 -0.01586457 0.00047496
v 0.01074365 -0.01562638 0.00047496
f 4 8 9
f 14 9 13
f 7 8 4
f 14 13 17
f 17 18 14
f 12 9 8
f 12 13 9
f 24 20 22
f 24 22 21
f 16 15 11
f 20 24 23
f 19 16 20
f 20 23 19
f 15 16 19
f 1 2 6
f 6 3 1
f 6 2 5
f 5 10 6
f 7 4 1
f 1 3 7
f 15 10 5
f 5 11 15
f 22 18 17
f 21 22 17
f 1 4 16
f 16 2 1
f 5 2 16
f 16 11 5
f 14 18 16
f 16 18 22
f 16 9 14
f 4 9 16
f 22 20 16
f 19 7 3
f 19 12 8
f 3 6 19
f 19 6 10
f 21 17 19
f 8 7 19
f 10 15 19
f 19 17 13
f 13 12 19
f 19 24 21
f 19 23 24

