# https://github.com/mikedh/trimesh
v -0.00766618 -0.04649199 -0.00320297
v -0.00766618 -0.04649199 -0.00392523
v -0.00766710 -0.04649199 0.00047496
v 0.00054497 -0.05200024 -0.00378332
v -0.00766710 -0.04649199 -0.00472124
v 0.00054497 -0.05200024 -0.00383825
v -0.00881930 -0.04649199 0.00047496
v 0.00054497 -0.05201707 0.00047496
v -0.00881930 -0.04649199 -0.00472124
v 0.00054497 -0.05200154 -0.00472124
v -0.00881930 -0.04721417 0.00047496
v 0.00054497 -0.05310228 0.00047496
v -0.00881930 -0.04721417 -0.00472124
v 0.00054497 -0.05310228 -0.00472124
v -0.00871755 -0.04779463 0.00047496
v -0.00241299 -0.05310228 0.00047496
v -0.00875514 -0.04757138 -0.00472124
v -0.00871755 -0.04779463 0.00028015
v -0.00241299 -0.05310228 -0.00472124
v -0.00861398 -0.04806448 0.00047496
v -0.00299321 -0.05307899 0.00047496
v -0.00871480 -0.04779463 -0.00472124
v -0.00856173 -0.04820038 0.00028015
v -0.00299321 -0.05307899 -0.00472124
v -0.00856173 -0.04820038 0.00047496
v -0.00357436 -0.05293209 0.00047496
v -0.00855898 -0.04819520 -0.00472124
v -0.00842423 -0.04848511 -0.00472124
v -0.00842607 -0.04849029 -0.00030071
v -0.00842607 -0.04849093 0.00047496
v -0.00357436 -0.05293209 -0.00472124
v -0.00395751 -0.05276902 0.00047496
v -0.00827941 -0.04877502 -0.00472124
v -0.00818866 -0.04895556 -0.00472124
v -0.00819049 -0.04895556 -0.00146141
v -0.00826932 -0.04880025 0.00047496
v -0.00395751 -0.05276902 -0.00472124
v -0.00405558 -0.05272695 0.00047496
v -0.00406933 -0.05272113 -0.00472124
v -0.00806217 -0.04918399 -0.00472124
v -0.00798242 -0.04932636 -0.00472124
v -0.00819049 -0.04895556 0.00047496
v -0.00424716 -0.05264477 0.00047496
v -0.00424716 -0.05264477 -0.00472124
v -0.00777801 -0.04961691 -0.00472124
v -0.00798242 -0.04932636 0.00047496
v -0.00457073 -0.05248040 0.00047496
v -0.00454690 -0.05249270 -0.00472124
v -0.00777801 -0.04961691 0.00047496
v -0.00748744 -0.05002395 -0.00472124
v -0.00473389 -0.05239693 0.00047496
v -0.00473389 -0.05239693 -0.00472124
v -0.00748744 -0.05002395 0.00047496
v -0.00741594 -0.05012102 0.00047496
v -0.00727387 -0.05031386 -0.00472124
v -0.00508862 -0.05219114 0.00047496
v -0.00508862 -0.05219114 -0.00472124
v -0.00727387 -0.05031386 0.00047496
v -0.00698329 -0.05062965 -0.00472124
v -0.00708137 -0.05052417 0.00047496
v -0.00537920 -0.05199766 0.00047496
v -0.00520045 -0.05211672 -0.00472124
v -0.00698329 -0.05062965 0.00047496
v -0.00687330 -0.05074160 -0.00472124
v -0.00580268 -0.05170775 0.00047496
v -0.00563952 -0.05181970 -0.00472124
v -0.00537920 -0.05199766 -0.00472124
v -0.00688705 -0.05072736 0.00047496
v -0.00669639 -0.05092021 -0.00472124
v -0.00669639 -0.05092021 0.00047496
v -0.00589984 -0.05163527 0.00047496
v -0.00580268 -0.05170775 -0.00472124
v -0.00651856 -0.05109299 -0.00472124
v -0.00640674 -0.05120105 0.00047496
v -0.00609233 -0.05149161 0.00047496
v -0.00609233 -0.05149161 -0.00472124
v -0.00640674 -0.05120105 -0.00472124
v -0.00628574 -0.05131301 -0.00472124
f 4 3 8
f 1 3 4
f 55 60 58
f 59 60 55
f 6 10 5
f 5 2 6
f 78 74 77
f 75 78 76
f 74 78 75
f 66 61 65
f 66 65 72
f 71 76 72
f 72 65 71
f 71 75 76
f 77 74 73
f 69 73 70
f 70 73 74
f 56 61 62
f 48 44 43
f 48 51 52
f 69 70 64
f 60 59 63
f 59 64 63
f 41 35 40
f 35 34 40
f 54 50 55
f 55 58 54
f 53 50 54
f 61 66 67
f 67 62 61
f 56 62 57
f 47 48 43
f 51 48 47
f 68 64 70
f 68 63 64
f 35 42 36
f 36 30 35
f 17 22 18
f 18 13 17
f 29 34 35
f 35 30 29
f 39 37 32
f 43 44 39
f 15 18 20
f 34 29 33
f 33 29 28
f 30 25 23
f 23 29 30
f 28 29 23
f 27 28 23
f 23 22 27
f 25 20 23
f 23 18 22
f 23 20 18
f 43 39 38
f 38 39 32
f 24 16 21
f 19 16 24
f 21 26 24
f 24 26 31
f 7 3 2
f 2 9 7
f 2 5 9
f 3 1 2
f 6 2 1
f 6 1 4
f 14 8 12
f 4 8 14
f 14 6 4
f 10 6 14
f 12 16 14
f 14 16 19
f 42 41 46
f 42 35 41
f 7 9 13
f 13 11 7
f 57 51 56
f 52 51 57
f 31 26 37
f 26 32 37
f 15 11 18
f 11 13 18
f 46 41 45
f 45 49 46
f 53 49 45
f 45 50 53
f 33 59 55
f 72 76 33
f 9 5 33
f 19 24 33
f 41 40 33
f 52 57 33
f 33 14 19
f 33 28 27
f 5 10 33
f 33 78 77
f 77 73 33
f 33 66 72
f 33 24 31
f 10 14 33
f 76 78 33
f 33 48 52
f 55 50 33
f 27 22 33
f 33 67 66
f 33 73 69
f 33 64 59
f 31 37 33
f 33 22 17
f 33 13 9
f 44 48 33
f 69 64 33
f 33 40 34
f 33 39 44
f 17 13 33
f 62 67 33
f 33 57 62
f 33 45 41
f 50 45 33
f 37 39 33
f 38 3 7
f 12 8 38
f 38 8 3
f 38 26 21
f 38 16 12
f 46 49 38
f 21 16 38
f 65 61 38
f 60 63 38
f 38 54 58
f 38 58 60
f 38 71 65
f 15 20 38
f 38 61 56
f 7 11 38
f 74 75 38
f 30 36 38
f 56 51 38
f 75 71 38
f 38 70 74
f 38 42 46
f 38 11 15
f 38 32 26
f 38 47 43
f 38 68 70
f 38 25 30
f 53 54 38
f 38 49 53
f 51 47 38
f 63 68 38
f 38 36 42
f 38 20 25

