# https://github.com/mikedh/trimesh
v -0.01041930 -0.02225131 0.00047496
v -0.01041930 -0.02225131 0.00898796
v -0.01041930 -0.01644958 0.00047496
v -0.00881851 -0.04721078 0.00047496
v -0.00881851 -0.04721078 0.00376428
v -0.01037980 -0.02283549 0.00956837
v -0.01041722 -0.02225131 0.00956837
v -0.01041930 -0.01644958 0.00898796
v -0.01039851 -0.01586540 0.00047496
v -0.00871664 -0.04778923 0.00047496
v -0.00871872 -0.04778923 0.00202204
v -0.00871872 -0.04778923 0.00376428
v -0.00870000 -0.04778923 0.00434469
v -0.00879356 -0.04721078 0.00434469
v -0.01031327 -0.02283549 0.00994244
v -0.00881851 -0.04430705 0.00840755
v -0.01033406 -0.02225131 0.00996378
v -0.01041722 -0.01644958 0.00956837
v -0.01039851 -0.01586540 0.00956837
v -0.01037149 -0.01574512 0.00047496
v -0.00856072 -0.04819587 0.00047496
v -0.00856279 -0.04819587 0.00144163
v -0.00856279 -0.04820160 0.00260346
v -0.00855864 -0.04819014 0.00434469
v -0.00856279 -0.04820160 0.00376428
v -0.00853785 -0.04815005 0.00466793
v -0.00857735 -0.04530932 0.00881516
v -0.00876861 -0.04489123 0.00840755
v -0.00995777 -0.02283549 0.01009287
v -0.00863764 -0.04489123 0.00889140
v -0.00862724 -0.03386050 0.00998411
v -0.00866258 -0.03327632 0.01000851
v -0.00995777 -0.02225131 0.01011320
v -0.01033406 -0.01644958 0.00996378
v -0.01032367 -0.01586540 0.00995158
v -0.01029248 -0.01553321 0.00991296
v -0.01031535 -0.01551030 0.00956837
v -0.01031535 -0.01551030 0.00047496
v -0.00842558 -0.04848796 0.00047496
v -0.00842558 -0.04848796 0.00376428
v -0.00819066 -0.04895187 0.00376428
v -0.00816571 -0.04895187 0.00434469
v -0.00795574 -0.04928978 0.00466590
v -0.00806592 -0.04586487 0.00883244
v -0.00824264 -0.04548687 0.00893104
v -0.00742976 -0.04994269 0.00470147
v -0.00821769 -0.03386050 0.01013455
v -0.00821769 -0.03327632 0.01015895
v -0.00821769 -0.04489123 0.00906318
v -0.00937774 -0.02514931 0.01015386
v -0.00937774 -0.02457658 0.01015895
v -0.00357330 -0.00018984 0.01085828
v -0.00995777 -0.01644958 0.01011320
v -0.00995777 -0.01586540 0.01008474
v -0.00357330 0.00096707 0.01083287
v -0.00402652 0.00096707 0.01062348
v -0.00393712 0.00155125 0.01053708
v -0.00387475 0.00186052 0.01045982
v -0.00445062 0.00127061 0.00642440
v -0.00445062 0.00127061 0.00635833
v -0.00415333 0.00141380 0.00624855
v -0.00158166 0.00420298 0.00630548
v -0.00125111 0.00387080 0.00607473
v -0.00299120 -0.01372339 0.00047496
v -0.00826966 -0.04879723 0.00047496
v -0.00819066 -0.04895187 0.00047496
v -0.00798277 -0.04932414 0.00376428
v -0.00797653 -0.04931842 0.00434469
v -0.00747966 -0.05001142 0.00434469
v -0.00725929 -0.05030351 0.00434469
v -0.00689339 -0.05053260 0.00470960
v -0.00631544 -0.05111105 0.00470960
v -0.00572294 -0.05164942 0.00470147
v -0.00505768 -0.05216487 0.00465776
v -0.00345064 -0.04877432 0.00883346
v -0.00296833 -0.04896332 0.00891173
v -0.00241117 -0.04895187 0.00908249
v -0.00125111 -0.04546969 0.01024941
v -0.00299120 -0.04837341 0.00914145
v -0.00763558 -0.03501741 0.01015488
v -0.00241117 -0.01122058 0.01084913
v -0.00241117 -0.01064212 0.01085930
v -0.00299120 -0.00193666 0.01085930
v -0.00299120 0.00155125 0.01085930
v -0.00357330 0.00038861 0.01085625
v -0.00299120 0.00212971 0.01083287
v -0.00357330 0.00155125 0.01074647
v -0.00357122 0.00208389 0.01059806
v -0.00337580 0.00254207 0.01054419
v -0.00342362 0.00259934 0.01014878
v -0.00371259 0.00216407 0.01014878
v -0.00342154 0.00259934 0.00956837
v -0.00318246 0.00289143 0.00956837
v -0.00316999 0.00287425 0.00898796
v -0.00287893 0.00316634 0.00898796
v -0.00289348 0.00317780 0.00956837
v -0.00254422 0.00346416 0.00956837
v -0.00158166 0.00420298 0.00655959
v -0.00130516 0.00426598 0.00671817
v -0.00125111 0.00424307 0.00625059
v -0.00087690 0.00423162 0.00627905
v 0.01071535 -0.01551030 0.00047496
v 0.01059477 -0.01547594 0.00047496
v 0.01035777 -0.01541294 0.00047496
v 0.00281117 -0.01365467 0.00047496
v -0.00241117 -0.01366612 0.00047496
v -0.00798277 -0.04932414 0.00047496
v -0.00777695 -0.04961623 0.00376428
v -0.00748590 -0.05002287 0.00376428
v -0.00727384 -0.05030923 0.00376428
v -0.00698279 -0.05062996 0.00376428
v -0.00697031 -0.05061278 0.00434469
v -0.00668342 -0.05090487 0.00434469
v -0.00639444 -0.05118551 0.00434469
v -0.00608260 -0.05147760 0.00434469
v -0.00579155 -0.05169524 0.00434469
v -0.00537160 -0.05198733 0.00434469
v -0.00508055 -0.05218205 0.00434469
v -0.00473336 -0.05237105 0.00434469
v -0.00391217 -0.05274905 0.00465878
v -0.00276043 -0.04927832 0.00876434
v -0.00241117 -0.04934705 0.00885175
v -0.00183114 -0.04943869 0.00891681
v -0.00183114 -0.04895187 0.00914247
v -0.00066900 -0.04604814 0.01015691
v -0.00066900 -0.04546969 0.01025856
v 0.00223114 -0.01064212 0.01085930
v -0.00183114 0.00270816 0.01085930
v -0.00241117 0.00270816 0.01084100
v -0.00301199 0.00272534 0.01065600
v -0.00283112 0.00312052 0.01055639
v -0.00318454 0.00289143 0.01014878
v -0.00289348 0.00317780 0.01014878
v -0.00254214 0.00346416 0.01014878
v -0.00225109 0.00366462 0.01014878
v -0.00183114 0.00388798 0.01014878
v -0.00131348 0.00409416 0.01014878
v -0.00100164 0.00417434 0.01046084
v -0.00066900 0.00424307 0.01014878
v -0.00008897 0.00429462 0.01014878
v -0.00008897 0.00429462 0.00956837
v -0.00083532 0.00426025 0.00666531
v 0.00083200 0.00417434 0.00868200
v 0.00165111 0.00393952 0.00898796
v 0.00206898 0.00365316 0.00862915
v 0.00268851 0.00314343 0.00860577
v -0.00029687 0.00366462 0.00627905
v 0.01071535 -0.01551030 0.00956837
v 0.01079851 -0.01586540 0.00047496
v 0.00314380 0.00013661 0.00631869
v 0.00323112 0.00258789 0.00860678
v 0.00374254 0.00194643 0.00863626
v 0.00378204 0.00200943 0.00898796
v 0.00398370 0.00155125 0.00898796
v 0.00401072 0.00155125 0.00956837
v -0.00777695 -0.04961623 0.00047496
v -0.00748590 -0.05002287 0.00047496
v -0.00741521 -0.05012023 0.00047496
v -0.00727384 -0.05030923 0.00047496
v -0.00698279 -0.05062996 0.00047496
v -0.00688716 -0.05072733 0.00047496
v -0.00669589 -0.05091633 0.00376428
v -0.00640692 -0.05119696 0.00376428
v -0.00609300 -0.05148905 0.00376428
v -0.00580194 -0.05170669 0.00376428
v -0.00537784 -0.05199305 0.00376428
v -0.00508886 -0.05218778 0.00376428
v -0.00473336 -0.05239396 0.00376428
v -0.00423649 -0.05262305 0.00434469
v -0.00394751 -0.05276051 0.00434469
v -0.00357330 -0.05291514 0.00434469
v -0.00357330 -0.05281205 0.00470859
v 0.00803558 -0.05327024 0.00748866
v 0.00803558 -0.05297815 0.00779767
v 0.00803558 -0.05269178 0.00808736
v 0.00803558 -0.05239969 0.00829676
v 0.00803558 -0.05194151 0.00858747
v 0.00766345 -0.05161505 0.00872469
v 0.00803558 -0.05164942 0.00874299
v 0.00397330 -0.05057842 0.00889241
v 0.00803558 -0.05127714 0.00889445
v -0.00008897 -0.04546969 0.01025856
v 0.00861769 -0.05127714 0.00889953
v 0.00861769 -0.05069296 0.00904387
v 0.00339120 -0.00077402 0.01085930
v 0.00223114 -0.01122058 0.01084913
v 0.00977774 -0.03501741 0.01015386
v 0.00977774 -0.03443895 0.01015895
v -0.00066900 0.00329234 0.01085930
v -0.00125111 0.00329234 0.01085828
v -0.00183114 0.00329234 0.01081051
v -0.00240493 0.00330380 0.01063872
v -0.00220743 0.00363598 0.01051573
v -0.00183114 0.00373334 0.01060111
v -0.00121577 0.00389943 0.01061941
v -0.00066900 0.00420298 0.01050760
v 0.00048897 0.00427171 0.01014878
v -0.00008897 0.00423162 0.01054724
v 0.00048897 0.00421443 0.01052793
v 0.00048897 0.00427171 0.00956837
v -0.00008897 0.00428316 0.00898796
v 0.00048897 0.00425452 0.00898796
v 0.00118127 0.00410562 0.00898796
v 0.00089229 0.00418580 0.00898796
v 0.00121869 0.00412280 0.00956837
v 0.00165111 0.00396816 0.00956837
v 0.00215006 0.00370471 0.00898796
v 0.00244111 0.00352143 0.00898796
v 0.00307727 0.00297734 0.00898796
v 0.00278622 0.00323507 0.00898796
v 0.01069248 -0.01553321 0.00991296
v 0.01079851 -0.01586540 0.00956837
v 0.00401072 0.00155125 0.01014878
v 0.01081930 -0.01644958 0.00047496
v 0.00331220 0.00268525 0.00898796
v 0.00360117 0.00230152 0.00898796
v 0.00361988 0.00231871 0.00956837
v 0.00379036 0.00202661 0.00956837
v 0.00379036 0.00203234 0.01014878
v -0.00669589 -0.05091633 0.00047496
v -0.00650255 -0.05110533 0.00047496
v -0.00640692 -0.05119696 0.00047496
v -0.00609300 -0.05148905 0.00047496
v -0.00580194 -0.05170669 0.00047496
v -0.00566057 -0.05180405 0.00047496
v -0.00518449 -0.05212478 0.00047496
v -0.00508886 -0.05218778 0.00047496
v -0.00473336 -0.05239396 0.00047496
v -0.00457120 -0.05247987 0.00047496
v -0.00424688 -0.05264023 0.00376428
v -0.00357330 -0.05293233 0.00376428
v -0.00299120 -0.05307551 0.00376428
v -0.00299120 -0.05304687 0.00434469
v 0.00773413 -0.05388878 0.00638171
v 0.00803558 -0.05345924 0.00719794
v 0.00861769 -0.05339051 0.00707902
v 0.00861769 -0.05319578 0.00736973
v 0.00861769 -0.05290369 0.00773871
v 0.00861769 -0.05266314 0.00802841
v 0.00861769 -0.05237105 0.00827541
v 0.00861769 -0.05194723 0.00856511
v 0.00861769 -0.05165514 0.00874502
v 0.00048897 -0.04489123 0.01025856
v 0.00861769 -0.05011451 0.00911604
v 0.00893993 -0.05162651 0.00872673
v 0.00900853 -0.05127714 0.00879686
v 0.00907922 -0.05069296 0.00887310
v 0.00339120 0.00038861 0.01085930
v 0.01035777 -0.03501741 0.01011015
v 0.01035777 -0.03443895 0.01011320
v 0.00106900 0.00329234 0.01085930
v -0.00008897 0.00387080 0.01075663
v -0.00066900 0.00387080 0.01071699
v 0.00087982 0.00418580 0.01048219
v 0.00093179 0.00419725 0.01014878
v 0.00048897 0.00387080 0.01073732
v 0.00107108 0.00391089 0.01063262
v 0.00092763 0.00419725 0.00956837
v 0.00122077 0.00412280 0.01014878
v 0.00165111 0.00396816 0.01014878
v 0.00216669 0.00371616 0.00956837
v 0.00245567 0.00353861 0.00956837
v 0.00309391 0.00299453 0.00956837
v 0.00333091 0.00270243 0.00956837
v 0.00280493 0.00324652 0.00956837
v 0.01072367 -0.01586540 0.00995158
v 0.00375293 0.00196934 0.01053301
v 0.00384649 0.00155125 0.01061433
v 0.01081722 -0.01644958 0.00956837
v 0.01081930 -0.01644958 0.00898796
v 0.01081930 -0.03501741 0.00047496
v 0.00362404 0.00232443 0.01014878
v -0.00424688 -0.05264023 0.00047496
v -0.00405354 -0.05272614 0.00047496
v -0.00382694 -0.05282351 0.00047496
v -0.00357330 -0.05293233 0.00047496
v -0.00299120 -0.05307551 0.00047496
v 0.00803558 -0.05420378 0.00434469
v 0.00803558 -0.05418087 0.00492510
v 0.00803558 -0.05411215 0.00550551
v 0.00803558 -0.05398042 0.00608490
v 0.00803558 -0.05389451 0.00638578
v 0.00803558 -0.05375133 0.00667547
v 0.00833703 -0.05388878 0.00638273
v 0.00890666 -0.05331033 0.00695805
v 0.00893369 -0.05279487 0.00762588
v 0.00895864 -0.05226796 0.00820731
v 0.01035777 -0.03560159 0.01007356
v 0.01068833 -0.03618004 0.00989974
v 0.00900437 -0.05183269 0.00840349
v 0.00914158 -0.05127714 0.00840755
v 0.00924969 -0.05069296 0.00840755
v 0.00949709 -0.04873423 0.00872063
v 0.00339120 0.00096707 0.01085828
v 0.00281117 0.00155125 0.01085930
v 0.01035777 -0.01644958 0.01011320
v 0.01073198 -0.03501741 0.00996175
v 0.01072575 -0.03560159 0.00994752
v 0.01073406 -0.03443895 0.00996378
v 0.00223114 0.00270816 0.01085625
v 0.00165111 0.00329234 0.01083287
v 0.00165111 0.00377343 0.01062348
v 0.00208977 0.00367034 0.01054521
v 0.00216461 0.00371616 0.01014878
v 0.00245359 0.00353861 0.01014878
v 0.00280493 0.00324652 0.01014878
v 0.00309598 0.00299453 0.01014878
v 0.00333299 0.00270243 0.01014878
v 0.00339120 0.00155125 0.01082372
v 0.01035777 -0.01586540 0.01008474
v 0.01073406 -0.01644958 0.00996378
v 0.00325606 0.00261080 0.01057367
v 0.00342654 0.00215261 0.01066007
v 0.01081722 -0.03501741 0.00956837
v 0.01081930 -0.03501741 0.00898796
v 0.01081514 -0.03560159 0.00047496
v 0.00803558 -0.05420378 0.00047496
v 0.00821229 -0.05415224 0.00047496
v 0.00856156 -0.05404915 0.00434469
v 0.00855740 -0.05403196 0.00492510
v 0.00854285 -0.05400333 0.00550551
v 0.00843682 -0.05394033 0.00608490
v 0.00883182 -0.05360242 0.00550551
v 0.00884845 -0.05360242 0.00492510
v 0.00885261 -0.05360242 0.00434469
v 0.00890874 -0.05331033 0.00666531
v 0.00909793 -0.05185560 0.00782714
v 0.00898358 -0.05245124 0.00782206
v 0.01066754 -0.03898068 0.00873994
v 0.01076733 -0.03618004 0.00956837
v 0.01008751 -0.04415814 0.00874096
v 0.00932661 -0.05011451 0.00840755
v 0.00970706 -0.04721078 0.00840755
v 0.01016235 -0.04372859 0.00840755
v 0.01031412 -0.04256596 0.00840755
v 0.00281117 0.00212971 0.01085523
v 0.01080891 -0.03560159 0.00956837
v 0.00286730 0.00276543 0.01068548
v 0.00226232 0.00333243 0.01066922
v 0.00270930 0.00316634 0.01057570
v 0.01081099 -0.03618004 0.00898796
v 0.01081514 -0.03560159 0.00898796
v 0.01081306 -0.03579632 0.00047496
v 0.00856156 -0.05404915 0.00047496
v 0.00885261 -0.05360242 0.00047496
v 0.00890874 -0.05331033 0.00047496
v 0.00930166 -0.05030923 0.00047496
v 0.00917485 -0.05127714 0.00782714
v 0.01044717 -0.04140332 0.00840755
v 0.01050538 -0.04082486 0.00840755
v 0.01067585 -0.03907232 0.00840755
v 0.01072159 -0.03850532 0.00840755
v 0.01079851 -0.03675850 0.00898796
v 0.01075693 -0.03734268 0.00898796
v 0.01038480 -0.04198750 0.00840755
v 0.01001059 -0.04489123 0.00782714
v 0.01028917 -0.04276068 0.00047496
v 0.01031412 -0.04256596 0.00047496
v 0.01036193 -0.04218223 0.00047496
v 0.01079851 -0.03675850 0.00666531
v 0.01079643 -0.03675850 0.00434469
v 0.01077980 -0.03734268 0.00047496
v 0.01001059 -0.04489123 0.00047496
v 0.01044717 -0.04140332 0.00047496
v 0.01050538 -0.04082486 0.00047496
v 0.01063843 -0.03946177 0.00047496
v 0.01067585 -0.03907232 0.00047496
v 0.01070704 -0.03869432 0.00047496
v 0.01072159 -0.03850532 0.00047496
v 0.01074446 -0.03811586 0.00047496
v 0.01075485 -0.03792114 0.00840755
v 0.01077980 -0.03734268 0.00840755
v 0.01038480 -0.04198750 0.00047496
v 0.01077149 -0.03753741 0.00047496
v 0.01075485 -0.03792114 0.00047496
f 63 38 62
f 64 38 63
f 104 105 63
f 101 102 63
f 45 49 30
f 38 60 61
f 61 62 38
f 60 62 61
f 99 139 140
f 278 317 318
f 63 105 106
f 106 64 63
f 63 102 103
f 103 104 63
f 337 354 353
f 94 62 60
f 92 60 90
f 90 132 92
f 141 99 140
f 62 99 100
f 63 62 100
f 100 101 63
f 27 45 30
f 28 27 30
f 36 37 19
f 36 19 35
f 58 37 36
f 35 56 36
f 20 9 19
f 19 37 20
f 20 37 38
f 19 8 18
f 35 19 18
f 145 146 101
f 152 102 151
f 102 150 151
f 209 151 146
f 139 99 138
f 198 252 256
f 247 244 184
f 309 266 268
f 311 266 296
f 206 261 207
f 154 155 102
f 15 17 7
f 16 28 15
f 15 28 30
f 29 17 15
f 34 53 35
f 35 18 34
f 33 17 29
f 192 131 130
f 88 86 130
f 62 94 95
f 58 90 91
f 88 58 57
f 58 36 57
f 57 36 56
f 87 86 88
f 88 57 87
f 87 57 56
f 319 320 278
f 319 318 344
f 278 318 319
f 278 320 279
f 279 232 278
f 171 231 232
f 353 354 329
f 14 28 16
f 10 11 4
f 144 145 101
f 207 145 144
f 144 206 207
f 101 146 147
f 146 151 147
f 147 151 150
f 147 150 102
f 102 101 147
f 210 209 146
f 152 151 215
f 151 209 215
f 215 216 152
f 217 216 215
f 253 252 198
f 253 190 252
f 191 190 253
f 184 244 182
f 286 285 328
f 269 270 212
f 269 266 311
f 212 266 269
f 294 309 336
f 266 309 310
f 310 296 266
f 310 309 294
f 294 296 310
f 338 336 309
f 204 202 258
f 272 218 217
f 268 266 211
f 148 213 211
f 212 148 211
f 211 266 212
f 362 343 361
f 361 360 362
f 343 360 361
f 6 15 7
f 16 15 6
f 6 14 16
f 5 14 6
f 2 5 6
f 7 2 6
f 129 190 191
f 129 130 86
f 129 191 192
f 192 130 129
f 77 79 45
f 88 130 89
f 89 130 131
f 89 58 88
f 89 90 58
f 89 131 132
f 132 90 89
f 136 138 137
f 93 95 94
f 92 132 93
f 93 60 92
f 93 94 60
f 132 131 133
f 58 91 59
f 59 37 58
f 59 90 60
f 59 91 90
f 35 53 54
f 101 100 142
f 142 100 99
f 99 141 142
f 326 285 325
f 232 279 233
f 233 279 280
f 233 171 232
f 358 359 335
f 335 357 358
f 347 326 346
f 348 326 347
f 334 357 335
f 353 329 352
f 352 329 351
f 369 370 352
f 42 41 68
f 72 115 73
f 28 14 13
f 5 12 13
f 13 14 5
f 26 27 13
f 27 28 13
f 11 10 23
f 21 39 23
f 143 144 101
f 143 202 204
f 101 142 143
f 143 142 202
f 207 261 262
f 210 262 265
f 146 145 208
f 208 210 146
f 208 145 207
f 207 262 208
f 208 262 210
f 264 215 209
f 217 215 264
f 264 272 217
f 196 253 198
f 196 198 140
f 140 139 196
f 139 138 196
f 192 191 194
f 48 33 29
f 184 182 125
f 125 77 124
f 353 360 341
f 341 360 343
f 341 337 353
f 341 314 337
f 300 338 301
f 336 338 300
f 204 258 205
f 206 144 205
f 200 258 202
f 202 142 200
f 301 338 339
f 153 216 217
f 217 218 153
f 152 216 153
f 155 154 153
f 153 218 155
f 153 102 152
f 153 154 102
f 313 338 309
f 313 312 338
f 313 309 268
f 218 272 219
f 219 213 155
f 155 218 219
f 123 173 174
f 124 77 123
f 237 285 286
f 181 125 124
f 135 136 98
f 98 136 137
f 137 138 98
f 98 99 62
f 98 138 99
f 134 133 131
f 135 98 134
f 96 93 132
f 132 133 96
f 95 93 96
f 62 95 96
f 335 331 293
f 293 334 335
f 285 322 321
f 320 323 321
f 321 323 285
f 321 279 320
f 280 279 321
f 321 322 280
f 325 285 324
f 285 323 324
f 324 319 325
f 320 319 324
f 324 323 320
f 285 326 327
f 327 328 285
f 327 326 348
f 291 328 327
f 327 292 291
f 332 293 292
f 357 334 356
f 351 329 350
f 329 349 350
f 355 331 335
f 335 359 355
f 355 329 331
f 355 349 329
f 371 370 375
f 371 352 370
f 353 352 371
f 375 374 371
f 369 352 368
f 368 352 351
f 351 367 368
f 40 39 65
f 66 41 65
f 65 41 40
f 113 72 71
f 43 46 27
f 43 27 26
f 43 42 68
f 68 41 67
f 113 163 114
f 114 163 115
f 114 72 113
f 114 115 72
f 115 163 164
f 74 73 115
f 24 13 12
f 26 13 24
f 24 43 26
f 42 43 24
f 40 41 24
f 41 42 24
f 22 10 21
f 21 23 22
f 22 23 10
f 203 143 204
f 144 143 203
f 204 205 203
f 203 205 144
f 263 264 209
f 263 265 307
f 209 210 263
f 210 265 263
f 272 264 308
f 307 312 308
f 312 272 308
f 191 253 195
f 195 194 191
f 253 196 195
f 195 196 138
f 138 194 195
f 193 136 135
f 138 136 193
f 193 194 138
f 193 134 131
f 135 134 193
f 193 131 192
f 192 194 193
f 243 182 244
f 247 293 289
f 244 247 289
f 289 293 331
f 331 329 289
f 30 49 31
f 31 15 30
f 49 45 78
f 45 79 78
f 79 77 78
f 77 125 78
f 33 48 50
f 48 82 50
f 316 341 343
f 251 300 301
f 301 256 251
f 251 256 252
f 294 336 295
f 336 300 295
f 300 251 295
f 201 142 141
f 141 200 201
f 201 200 142
f 303 254 302
f 302 256 301
f 301 339 302
f 302 339 303
f 255 205 258
f 258 200 255
f 260 254 303
f 261 206 260
f 140 198 199
f 198 256 199
f 338 312 340
f 340 339 338
f 303 339 340
f 340 312 307
f 340 305 303
f 213 219 267
f 268 211 267
f 267 211 213
f 267 219 272
f 267 272 312
f 267 313 268
f 312 313 267
f 173 123 172
f 172 235 173
f 120 171 172
f 171 233 172
f 173 235 236
f 236 237 173
f 285 237 236
f 175 123 174
f 174 173 239
f 239 175 174
f 240 175 239
f 133 134 97
f 97 96 133
f 62 96 97
f 97 98 62
f 97 134 98
f 280 322 284
f 283 282 284
f 284 235 283
f 284 236 235
f 284 322 285
f 285 236 284
f 234 233 280
f 234 172 233
f 234 282 283
f 283 235 234
f 235 172 234
f 357 356 363
f 363 356 347
f 348 347 333
f 347 356 333
f 333 332 348
f 333 356 334
f 334 293 333
f 293 332 333
f 366 367 351
f 366 350 365
f 351 350 366
f 373 355 359
f 372 374 362
f 372 371 374
f 353 371 372
f 108 109 68
f 68 67 108
f 70 71 46
f 46 43 70
f 111 70 110
f 111 160 161
f 109 157 158
f 158 110 109
f 159 110 158
f 276 231 275
f 231 274 275
f 163 221 222
f 120 172 122
f 122 172 123
f 122 123 77
f 167 226 227
f 229 168 228
f 273 274 230
f 230 274 231
f 230 229 273
f 168 229 230
f 167 168 118
f 44 74 75
f 44 77 45
f 73 74 44
f 45 27 44
f 72 73 44
f 44 71 72
f 27 46 44
f 46 71 44
f 40 24 25
f 25 24 12
f 288 243 244
f 249 243 288
f 244 289 288
f 337 314 297
f 297 250 249
f 330 289 329
f 354 337 330
f 330 329 354
f 29 15 32
f 15 31 32
f 53 33 52
f 82 83 52
f 52 50 82
f 49 78 80
f 126 125 182
f 126 78 125
f 341 316 342
f 342 315 314
f 314 341 342
f 252 190 189
f 189 251 252
f 303 305 304
f 304 260 303
f 261 260 304
f 205 255 259
f 206 205 259
f 259 260 206
f 259 255 254
f 254 260 259
f 140 199 197
f 197 199 254
f 197 255 200
f 254 255 197
f 257 302 254
f 254 199 257
f 256 302 257
f 257 199 256
f 306 340 307
f 305 340 306
f 307 265 306
f 262 305 306
f 306 265 262
f 178 123 177
f 177 179 178
f 178 179 123
f 180 181 124
f 180 179 181
f 124 123 180
f 123 179 180
f 176 175 240
f 177 123 176
f 123 175 176
f 173 237 238
f 238 239 173
f 238 237 286
f 286 239 238
f 240 239 287
f 287 245 240
f 287 239 286
f 287 290 245
f 286 328 287
f 287 328 291
f 291 290 287
f 291 292 246
f 246 290 291
f 245 290 246
f 246 247 184
f 246 293 247
f 292 293 246
f 184 125 183
f 125 181 183
f 183 246 184
f 245 246 183
f 181 179 183
f 280 284 281
f 281 284 282
f 281 234 280
f 282 234 281
f 69 43 68
f 69 70 43
f 68 109 69
f 109 110 69
f 110 70 69
f 162 163 113
f 113 111 162
f 162 220 221
f 162 221 163
f 161 220 162
f 162 111 161
f 112 111 113
f 70 111 112
f 113 71 112
f 71 70 112
f 75 74 121
f 121 74 120
f 120 122 121
f 76 122 77
f 77 44 76
f 76 44 75
f 75 121 76
f 76 121 122
f 120 74 119
f 74 118 119
f 119 118 168
f 167 118 117
f 117 118 74
f 187 243 249
f 337 297 298
f 298 330 337
f 289 330 298
f 298 288 289
f 249 288 298
f 298 297 249
f 299 297 314
f 250 297 299
f 84 129 86
f 84 52 83
f 86 87 55
f 55 84 86
f 35 54 55
f 55 54 53
f 55 56 35
f 55 87 56
f 33 50 51
f 51 52 33
f 50 52 51
f 81 80 78
f 81 126 82
f 78 126 81
f 81 82 48
f 48 80 81
f 49 80 47
f 47 80 48
f 47 31 49
f 47 32 31
f 47 48 29
f 29 32 47
f 240 245 241
f 241 176 240
f 177 176 241
f 242 183 179
f 245 183 242
f 242 179 177
f 177 241 242
f 242 241 245
f 165 224 225
f 225 226 167
f 120 119 169
f 168 230 169
f 169 119 168
f 167 117 166
f 166 117 165
f 166 225 167
f 165 225 166
f 165 117 116
f 116 74 115
f 116 117 74
f 243 187 186
f 186 187 127
f 186 127 182
f 182 243 186
f 188 187 249
f 127 187 188
f 128 189 190
f 190 129 128
f 129 84 128
f 52 84 85
f 84 55 85
f 53 52 85
f 85 55 53
f 170 171 120
f 120 169 170
f 170 169 230
f 231 171 170
f 170 230 231
f 185 188 249
f 249 250 185
f 127 188 185
f 248 296 294
f 294 295 248
f 1 4 5
f 5 2 1
f 8 3 1
f 1 2 8
f 8 9 3
f 19 9 8
f 214 149 270
f 270 149 212
f 277 317 278
f 278 232 277
f 276 277 231
f 231 277 232
f 18 8 2
f 18 2 7
f 148 149 102
f 212 149 148
f 213 148 102
f 102 155 213
f 34 18 7
f 7 17 34
f 33 34 17
f 53 34 33
f 344 345 319
f 319 345 325
f 12 5 4
f 4 11 12
f 315 271 214
f 214 270 315
f 270 269 315
f 315 269 314
f 38 37 59
f 59 60 38
f 326 345 346
f 325 345 326
f 292 327 332
f 332 327 348
f 365 350 364
f 364 350 349
f 67 66 107
f 67 41 66
f 264 263 308
f 308 263 307
f 373 364 349
f 349 355 373
f 362 360 372
f 372 360 353
f 159 160 111
f 111 110 159
f 223 164 222
f 222 164 163
f 228 168 227
f 227 168 167
f 25 23 39
f 25 39 40
f 25 12 11
f 11 23 25
f 126 127 82
f 182 127 126
f 271 315 342
f 342 316 271
f 304 305 262
f 304 262 261
f 197 200 141
f 197 141 140
f 156 67 107
f 156 108 67
f 156 157 109
f 109 108 156
f 224 164 223
f 224 165 164
f 314 269 299
f 299 269 311
f 311 296 299
f 296 250 299
f 225 103 102
f 214 271 225
f 1 3 225
f 225 149 214
f 225 4 1
f 225 156 107
f 105 104 225
f 225 318 317
f 107 66 225
f 225 106 105
f 38 64 225
f 362 374 225
f 359 358 225
f 225 370 369
f 317 277 225
f 225 347 346
f 344 318 225
f 159 158 225
f 64 106 225
f 3 9 225
f 104 103 225
f 102 149 225
f 225 20 38
f 225 343 362
f 346 345 225
f 225 160 159
f 225 277 276
f 9 20 225
f 225 374 375
f 225 345 344
f 225 10 4
f 225 229 228
f 375 370 225
f 225 366 365
f 225 39 21
f 276 275 225
f 21 10 225
f 225 358 357
f 271 316 225
f 357 363 225
f 369 368 225
f 66 65 225
f 228 227 225
f 365 364 225
f 225 368 367
f 225 65 39
f 161 160 225
f 225 373 359
f 225 274 273
f 223 222 225
f 225 220 161
f 225 316 343
f 225 363 347
f 367 366 225
f 364 373 225
f 225 158 157
f 225 275 274
f 225 222 221
f 221 220 225
f 225 227 226
f 273 229 225
f 157 156 225
f 225 224 223
f 164 165 116
f 115 164 116
f 248 250 296
f 248 185 250
f 82 127 248
f 248 83 82
f 248 295 251
f 189 128 248
f 251 189 248
f 248 84 83
f 248 128 84
f 127 185 248

