# https://github.com/mikedh/trimesh
v 0.01081930 -0.03331848 0.00047496
v 0.01081930 -0.03502241 0.00047496
v 0.01081930 -0.03331848 -0.00472124
v 0.00967983 -0.03331848 0.00047496
v 0.01081829 -0.03521747 0.00047496
v 0.01081729 -0.03560322 -0.00146141
v 0.01081930 -0.03502241 -0.00472124
v 0.00967983 -0.03331848 -0.00472124
v 0.00054497 -0.03581928 0.00047496
v 0.01081628 -0.03560322 0.00047496
v 0.01081729 -0.03560322 -0.00472124
v 0.01081025 -0.03618403 -0.00378332
v 0.00054497 -0.03592687 -0.00472124
v 0.00054497 -0.03736839 0.00047496
v 0.01081327 -0.03579828 0.00047496
v 0.01081025 -0.03618403 -0.00472124
v 0.01079516 -0.03676484 -0.00436367
v 0.01080924 -0.03618403 -0.00262211
v 0.01080220 -0.03637822 0.00047496
v 0.01078913 -0.03695902 0.00047496
v 0.01077907 -0.03734477 0.00047496
v 0.00054497 -0.03738588 -0.00472124
v 0.00054497 -0.03738326 -0.00372839
v 0.00647061 -0.04225452 0.00047496
v 0.01080623 -0.03618403 0.00047496
v 0.01080723 -0.03618403 -0.00030071
v 0.01079516 -0.03676484 -0.00472124
v 0.01078913 -0.03698789 -0.00472124
v 0.01077907 -0.03734477 -0.00146141
v 0.01077103 -0.03753983 0.00047496
v 0.01075594 -0.03792470 -0.00436367
v 0.00054497 -0.03738588 -0.00468716
v 0.00646558 -0.04225452 -0.00472124
v 0.00646458 -0.04225452 -0.00378332
v 0.01035366 -0.04225452 0.00047496
v 0.01077807 -0.03734477 -0.00472124
v 0.01075594 -0.03792470 -0.00472124
v 0.01075494 -0.03792470 0.00047496
v 0.01074387 -0.03811977 0.00047496
v 0.01072275 -0.03850551 -0.00378332
v 0.01035366 -0.04225452 -0.00472124
v 0.01038584 -0.04198861 0.00047496
v 0.01072275 -0.03850551 -0.00472124
v 0.01072175 -0.03850551 0.00047496
v 0.01070666 -0.03869620 0.00047496
v 0.01067649 -0.03907495 0.00047496
v 0.01038584 -0.04198861 -0.00472124
v 0.01044819 -0.04140780 0.00047496
v 0.01067649 -0.03907495 -0.00472124
v 0.01061916 -0.03966625 0.00047496
v 0.01065939 -0.03925339 -0.00472124
v 0.01044819 -0.04140780 -0.00472124
v 0.01048641 -0.04102206 0.00047496
v 0.01050552 -0.04082700 0.00047496
v 0.01061916 -0.03966625 -0.00472124
v 0.01063727 -0.03948082 -0.00472124
v 0.01050552 -0.04082700 -0.00472124
f 24 14 23
f 9 4 8
f 8 13 9
f 24 23 32
f 34 32 22
f 22 33 34
f 24 32 34
f 30 38 31
f 31 21 30
f 6 10 12
f 39 44 40
f 31 38 39
f 39 40 31
f 46 40 45
f 40 44 45
f 20 21 12
f 12 19 20
f 12 21 17
f 21 28 17
f 36 28 29
f 29 28 21
f 37 36 29
f 5 6 2
f 10 6 5
f 12 10 15
f 27 17 28
f 19 26 25
f 26 15 25
f 12 15 18
f 18 15 26
f 18 19 12
f 18 26 19
f 51 49 46
f 46 50 51
f 48 52 53
f 57 53 52
f 53 57 54
f 50 55 56
f 56 51 50
f 8 4 1
f 1 3 8
f 32 14 9
f 9 13 32
f 32 13 22
f 32 23 14
f 2 3 1
f 2 7 3
f 34 35 24
f 33 41 34
f 34 41 35
f 7 2 6
f 6 11 7
f 29 21 31
f 31 37 29
f 11 6 16
f 16 6 12
f 43 37 31
f 31 40 43
f 46 49 43
f 43 40 46
f 27 16 12
f 12 17 27
f 35 41 47
f 47 42 35
f 48 42 47
f 47 52 48
f 54 4 9
f 9 14 54
f 1 4 54
f 24 35 54
f 54 14 24
f 10 5 54
f 54 2 1
f 54 15 10
f 38 30 54
f 21 20 54
f 54 39 38
f 46 45 54
f 54 30 21
f 44 39 54
f 54 45 44
f 54 20 19
f 54 5 2
f 19 25 54
f 35 42 54
f 54 42 48
f 54 25 15
f 54 50 46
f 48 53 54
f 50 54 55
f 55 54 57
f 22 13 56
f 56 8 3
f 13 8 56
f 56 36 37
f 3 7 56
f 56 33 22
f 7 11 56
f 56 28 36
f 56 41 33
f 11 16 56
f 56 27 28
f 37 43 56
f 56 43 49
f 16 27 56
f 56 47 41
f 52 47 56
f 49 51 56
f 56 57 52
f 56 55 57

