# https://github.com/mikedh/trimesh
v 0.00054497 -0.05310131 -0.00472124
v 0.00803695 -0.05412993 -0.00472124
v 0.00803695 -0.05417674 -0.00436367
v 0.00803695 -0.05420951 -0.00378332
v 0.00054497 -0.05310131 0.00047496
v 0.00054497 -0.05200130 -0.00472124
v 0.00854487 -0.05401174 -0.00472124
v 0.00855735 -0.05403398 -0.00436367
v 0.00856311 -0.05404919 -0.00378332
v 0.00803695 -0.05420951 0.00047496
v 0.00054497 -0.05201651 0.00047496
v 0.00054497 -0.05200013 -0.00383825
v 0.00646520 -0.04225452 -0.00472124
v 0.00872346 -0.05376951 -0.00472124
v 0.00884731 -0.05360333 -0.00436367
v 0.00875610 -0.05375312 0.00047496
v 0.00856311 -0.05404919 0.00047496
v 0.00885308 -0.05360333 -0.00378332
v 0.00054497 -0.05200013 -0.00378332
v 0.00647096 -0.04225452 0.00047496
v 0.00646520 -0.04225452 -0.00378332
v 0.01035378 -0.04225452 -0.00472124
v 0.00883483 -0.05360333 -0.00472124
v 0.00890876 -0.05331312 -0.00472124
v 0.00885308 -0.05360333 0.00047496
v 0.01035378 -0.04225452 0.00047496
v 0.01031441 -0.04257048 -0.00472124
v 0.00890876 -0.05331312 0.00047496
v 0.00907007 -0.05208087 -0.00472124
v 0.00914976 -0.05147236 0.00047496
v 0.01031441 -0.04257048 0.00047496
v 0.01028561 -0.04279400 -0.00472124
v 0.00975753 -0.04682892 0.00047496
v 0.01016271 -0.04373134 0.00047496
v 0.01005901 -0.04452476 0.00047496
f 1 2 3
f 3 4 1
f 3 2 7
f 8 9 4
f 4 3 8
f 8 3 7
f 6 12 13
f 9 8 15
f 19 11 20
f 20 21 19
f 32 27 31
f 14 8 7
f 14 15 8
f 17 9 16
f 9 15 18
f 25 16 18
f 18 16 9
f 24 18 15
f 35 33 32
f 15 14 23
f 23 24 15
f 28 24 30
f 32 31 34
f 34 35 32
f 29 30 24
f 33 30 29
f 32 33 29
f 10 5 1
f 1 4 10
f 9 10 4
f 17 10 9
f 22 13 21
f 21 26 22
f 21 20 26
f 1 5 19
f 19 6 1
f 12 6 19
f 5 11 19
f 19 21 13
f 13 12 19
f 22 26 31
f 31 27 22
f 28 25 24
f 25 18 24
f 5 10 34
f 34 10 17
f 34 11 5
f 26 20 34
f 34 31 26
f 20 11 34
f 28 30 34
f 34 25 28
f 17 16 34
f 34 16 25
f 33 35 34
f 34 30 33
f 1 6 29
f 29 2 1
f 29 13 22
f 7 2 29
f 29 6 13
f 22 27 29
f 29 27 32
f 29 14 7
f 29 23 14
f 24 23 29

