# https://github.com/mikedh/trimesh
v 0.00131665 -0.00453115 -0.00322340
v 0.00051039 0.00106015 -0.00299734
v 0.00319605 -0.00453115 -0.00322252
v 0.00024211 -0.00453115 -0.00322252
v 0.00078009 0.00106015 -0.00297968
v -0.00056274 0.00106015 -0.00299646
v -0.00002618 0.00132811 -0.00297350
v 0.00024211 0.00132811 -0.00296644
v 0.00373261 0.00025431 -0.00279071
v 0.00346149 -0.00453115 -0.00319161
v -0.00002618 -0.00453115 -0.00321987
v 0.00048910 0.00132876 -0.00294348
v 0.00078009 0.00123879 -0.00293377
v -0.00029446 0.00132811 -0.00296379
v -0.00942173 -0.00108809 -0.00279690
v -0.00915345 -0.00081948 -0.00279425
v -0.00002618 0.00149893 -0.00292670
v 0.00024211 0.00148784 -0.00291964
v 0.00373261 0.00048316 -0.00271036
v 0.00391431 0.00043426 -0.00268122
v 0.00396541 0.00025431 -0.00271036
v 0.00104837 0.00159672 -0.00277217
v 0.00402502 -0.00002603 -0.00270153
v 0.00413716 -0.00012383 -0.00263795
v 0.00350407 -0.00453115 -0.00316335
v -0.00969001 -0.00453115 -0.00287637
v -0.00969001 -0.00135605 -0.00279690
v 0.00051039 0.00186534 -0.00276069
v -0.00942173 -0.00081948 -0.00277570
v -0.00054145 0.00132746 -0.00294348
v -0.00029446 0.00148524 -0.00291699
v -0.00969001 -0.00108809 -0.00278365
v -0.00002618 0.00186534 -0.00279071
v 0.00024211 0.00186534 -0.00278277
v -0.00029446 0.00186534 -0.00278188
v 0.00104837 0.00178840 -0.00269181
v 0.00067931 0.00201529 -0.00265914
v 0.00393844 0.00045708 -0.00250108
v 0.00406619 0.00025431 -0.00250108
v 0.00373261 0.00058030 -0.00250108
v 0.00077299 0.00187316 -0.00271036
v 0.00413007 0.00002221 -0.00250108
v 0.00413149 0.00002221 -0.00223264
v 0.00413716 -0.00011209 -0.00250108
v 0.00414000 -0.00012383 0.00367309
v 0.00413716 -0.00017012 -0.00263795
v 0.00364318 -0.00453115 -0.00302913
v -0.00995829 -0.00453115 -0.00285164
v -0.00995829 -0.00189263 -0.00279336
v -0.00995829 -0.00162401 -0.00278188
v 0.00051039 0.00203420 -0.00268298
v 0.00024211 0.00205636 -0.00270241
v -0.00754233 -0.00028226 -0.00278542
v -0.00043783 0.00147155 -0.00290904
v -0.00969143 -0.00081361 -0.00270683
v -0.00960342 -0.00066496 -0.00266444
v -0.00942173 -0.00063497 -0.00269446
v -0.00915345 -0.00059716 -0.00271389
v -0.00834718 -0.00034159 -0.00270947
v -0.00754233 -0.00008471 -0.00270418
v -0.00217385 0.00152631 -0.00270418
v -0.00136901 0.00159672 -0.00277570
v -0.00056274 0.00186534 -0.00275892
v -0.00990151 -0.00108809 -0.00270329
v -0.00985325 -0.00089902 -0.00267150
v -0.00002618 0.00206419 -0.00270859
v -0.00029446 0.00205245 -0.00269976
v 0.00024211 0.00211309 -0.00250108
v 0.00051039 0.00206875 -0.00250108
v 0.00069634 0.00202246 -0.00250108
v 0.00373261 0.00058226 -0.00223264
v 0.00393844 0.00045708 -0.00169575
v 0.00406761 0.00025431 -0.00223264
v 0.00413149 0.00002221 -0.00169575
v 0.00414000 -0.00012383 0.00501530
v 0.00414000 -0.00020467 0.00367309
v 0.00413716 -0.00018120 -0.00250108
v 0.00413007 -0.00031551 -0.00223264
v 0.00412865 -0.00031551 -0.00250108
v 0.00410594 -0.00055087 -0.00250108
v 0.00402502 -0.00135605 -0.00250108
v 0.00399806 -0.00162401 -0.00250108
v 0.00386746 -0.00283798 -0.00263707
v 0.00368009 -0.00453115 -0.00277394
v -0.01023083 -0.00453115 -0.00274568
v -0.01018683 -0.00216124 -0.00271654
v -0.01016980 -0.00189263 -0.00271301
v -0.01014708 -0.00162401 -0.00270064
v -0.00997533 -0.00134432 -0.00272272
v -0.00002618 0.00212938 -0.00250108
v -0.00485667 0.00052293 -0.00278542
v -0.00976098 -0.00073799 -0.00250108
v -0.00962755 -0.00065519 -0.00250108
v -0.00942173 -0.00058412 -0.00250108
v -0.00878722 -0.00040548 -0.00265296
v -0.00861546 -0.00038005 -0.00268210
v -0.00593122 0.00042578 -0.00268210
v -0.00673607 0.00017086 -0.00269446
v -0.00136901 0.00178123 -0.00269446
v -0.00109931 0.00181905 -0.00271301
v -0.00056274 0.00202963 -0.00267769
v -0.01012153 -0.00142647 -0.00267327
v -0.00986886 -0.00087229 -0.00250108
v -0.01007185 -0.00126021 -0.00250108
v -0.00029446 0.00210461 -0.00250108
v 0.00024211 0.00211309 -0.00169575
v 0.00051039 0.00206875 -0.00169575
v 0.00069634 0.00202246 -0.00169575
v 0.00083119 0.00195922 -0.00223264
v 0.00373261 0.00058226 -0.00169575
v 0.00389443 0.00041209 0.00501530
v 0.00401083 0.00025431 0.00501530
v 0.00406761 0.00025431 -0.00169575
v 0.00411729 0.00001048 0.00501530
v 0.00414000 -0.00020467 0.00501530
v 0.00413858 -0.00013230 0.00519190
v 0.00413007 -0.00033898 0.00367309
v 0.00411161 -0.00055087 -0.00223264
v 0.00405483 -0.00108809 -0.00223264
v 0.00399806 -0.00162401 0.00501530
v 0.00376952 -0.00377226 -0.00223264
v 0.00368861 -0.00453115 -0.00250108
v -0.01025780 -0.00453115 -0.00270329
v -0.01019677 -0.00242985 -0.00271654
v -0.01030606 -0.00242985 -0.00250108
v -0.01028903 -0.00216124 -0.00250108
v -0.01025213 -0.00189263 -0.00250108
v -0.00002618 0.00212938 -0.00169575
v -0.00976098 -0.00073799 0.00501530
v -0.00962755 -0.00065519 0.00501530
v -0.00942173 -0.00058412 0.00501530
v -0.00880709 -0.00039961 -0.00250108
v -0.00795256 -0.00014600 -0.00263972
v -0.00425339 0.00094606 -0.00266444
v -0.00693763 0.00014022 -0.00266444
v -0.00781062 -0.00012448 -0.00266709
v -0.00258408 0.00146503 -0.00263972
v -0.00073450 0.00201073 -0.00265296
v -0.00324698 0.00123097 -0.00268210
v -0.00156915 0.00175124 -0.00266444
v -0.01020386 -0.00162401 -0.00250108
v -0.01013573 -0.00139452 -0.00250108
v -0.00998384 -0.00108809 -0.00223264
v -0.00986886 -0.00087229 0.00501530
v -0.01007327 -0.00126021 -0.00223264
v -0.00029446 0.00210461 -0.00169575
v -0.00056274 0.00205897 -0.00250108
v 0.00024211 0.00159346 0.00528374
v 0.00067931 0.00201529 -0.00151385
v 0.00083119 0.00195922 -0.00169575
v 0.00373261 0.00047272 0.00528374
v 0.00373261 0.00049033 0.00501530
v 0.00388875 0.00040688 0.00528374
v 0.00398812 0.00025431 0.00528374
v 0.00410310 -0.00003125 0.00528197
v 0.00413858 -0.00018577 0.00519190
v 0.00413007 -0.00033898 0.00501530
v 0.00411587 -0.00027835 0.00528197
v 0.00411161 -0.00055087 0.00501530
v 0.00405483 -0.00108809 0.00501530
v 0.00386746 -0.00283798 0.00516012
v 0.00376952 -0.00377226 0.00501530
v 0.00368861 -0.00453115 0.00501530
v -0.01036001 -0.00453115 -0.00250108
v -0.01036001 -0.00449725 -0.00250108
v -0.01031316 -0.00269846 -0.00250108
v -0.01031316 -0.00242985 -0.00223264
v -0.01029755 -0.00216124 -0.00223264
v -0.01025922 -0.00189263 -0.00223264
v -0.00029446 0.00158368 0.00528374
v -0.00002618 0.00160585 0.00528374
v -0.00974963 -0.00074842 0.00528374
v -0.00961620 -0.00066040 0.00528374
v -0.00986177 -0.00088272 0.00528374
v -0.00942173 -0.00059977 0.00528374
v -0.00879148 -0.00040483 0.00528374
v -0.00795256 -0.00014600 0.00518661
v -0.00880709 -0.00039961 0.00501530
v -0.00075295 0.00201659 -0.00250108
v -0.01026490 -0.00189263 -0.00196420
v -0.01020812 -0.00162401 -0.00223264
v -0.01013715 -0.00139452 -0.00223264
v -0.01021380 -0.00162401 -0.00169575
v -0.00998384 -0.00108809 0.00501530
v -0.01007327 -0.00126021 -0.00169575
v -0.00056274 0.00205897 -0.00169575
v -0.00002618 0.00155109 0.00555218
v 0.00024211 0.00153805 0.00555218
v 0.00048910 0.00148393 0.00552657
v 0.00064666 0.00146307 0.00541884
v 0.00051039 0.00152175 0.00528374
v 0.00387740 0.00039710 0.00542679
v 0.00391714 0.00025431 0.00544445
v 0.00396966 -0.00001430 0.00545770
v 0.00387172 -0.00260588 0.00542238
v 0.00390153 -0.00242985 0.00528374
v 0.00387598 -0.00269651 0.00526343
v 0.00397960 -0.00028226 0.00545770
v 0.00390295 -0.00189263 0.00545152
v 0.00389159 -0.00216124 0.00544269
v 0.00388024 -0.00242985 0.00543121
v 0.00367441 -0.00453115 0.00528374
v 0.00367725 -0.00453115 0.00523694
v -0.01036143 -0.00453115 -0.00223264
v -0.01032594 -0.00296642 -0.00223264
v -0.01031316 -0.00242985 0.00501530
v -0.01029897 -0.00216124 -0.00196420
v -0.00049603 0.00149045 0.00555218
v -0.00029446 0.00153022 0.00555218
v -0.00073450 0.00201073 -0.00152533
v -0.00695609 0.00014478 0.00528374
v -0.00691634 0.00013305 0.00543121
v -0.00958781 -0.00067214 0.00543121
v -0.00984473 -0.00091337 0.00543650
v -0.00876735 -0.00041200 0.00542326
v -0.01007327 -0.00126087 0.00501530
v -0.01012863 -0.00140626 0.00528374
v -0.00697170 0.00015065 0.00501530
v -0.00727405 0.00006003 0.00501530
v -0.00075295 0.00201659 -0.00169575
v -0.01026632 -0.00189263 -0.00169575
v -0.01013715 -0.00139452 -0.00169575
v -0.01021096 -0.00162401 0.00313620
v -0.01013573 -0.00139452 0.00501530
v -0.01026490 -0.00189263 0.00313620
v -0.00044209 0.00146894 0.00569435
v -0.00029446 0.00147676 0.00570406
v -0.00002618 0.00148589 0.00571378
v 0.00024211 0.00147872 0.00570583
v 0.00038547 0.00146633 0.00569082
v 0.00078009 0.00123944 0.00572261
v 0.00078009 0.00106015 0.00577824
v 0.00373261 0.00025431 0.00548419
v 0.00373261 -0.00001430 0.00549743
v 0.00363041 -0.00453115 0.00544798
v 0.00364035 -0.00453115 0.00541884
v 0.00373261 -0.00135605 0.00549743
v 0.00373261 -0.00162401 0.00549567
v 0.00392140 -0.00135605 0.00545770
v 0.00391289 -0.00162401 0.00545593
v 0.00363893 -0.00430883 0.00545417
v -0.01036143 -0.00453115 0.00501530
v -0.01032594 -0.00296642 0.00501530
v -0.01027910 -0.00242985 0.00528374
v -0.01026064 -0.00216124 0.00528374
v -0.01029187 -0.00216124 0.00501530
v -0.01029755 -0.00216124 0.00420997
v -0.01029897 -0.00216124 0.00394153
v -0.01034155 -0.00453115 0.00527138
v -0.00775242 -0.00012774 0.00543739
v -0.00968291 -0.00082209 0.00545240
v -0.00942173 -0.00081948 0.00548684
v -0.00942173 -0.00065062 0.00544710
v -0.00861546 -0.00039244 0.00544004
v -0.00988164 -0.00108809 0.00545152
v -0.00969001 -0.00108809 0.00549125
v -0.01011302 -0.00144211 0.00543739
v -0.01020102 -0.00162401 0.00501530
v -0.01018541 -0.00162401 0.00528374
v -0.01024929 -0.00189263 0.00501530
v -0.00054429 0.00132876 0.00573497
v -0.00029446 0.00132811 0.00575881
v -0.00002618 0.00132811 0.00576941
v 0.00024211 0.00132811 0.00576058
v 0.00048910 0.00133137 0.00573320
v 0.00051039 0.00106015 0.00579767
v 0.00104837 0.00052293 0.00579767
v 0.00104837 0.00079154 0.00577294
v 0.00131665 -0.00001430 0.00577824
v 0.00349414 -0.00453115 0.00548066
v 0.00346433 -0.00404087 0.00549655
v 0.00346433 -0.00430883 0.00549302
v 0.00373261 -0.00189263 0.00549125
v 0.00346433 -0.00453115 0.00548772
v -0.01036001 -0.00453115 0.00504797
v -0.01016980 -0.00242985 0.00545770
v -0.01015986 -0.00216124 0.00545770
v -0.01014708 -0.00189263 0.00545681
v -0.01033162 -0.00430883 0.00528374
v -0.01013147 -0.00162401 0.00545152
v -0.01022515 -0.00189263 0.00528374
v -0.01032168 -0.00453115 0.00529875
v -0.00056274 0.00106015 0.00579678
v -0.00996539 -0.00135410 0.00546123
v -0.00995829 -0.00162401 0.00549125
v -0.00969001 -0.00135605 0.00549743
v -0.00109931 0.00052293 0.00579590
v -0.00109931 -0.00028226 0.00579767
v 0.00104837 -0.00055087 0.00579767
v 0.00051039 -0.00108809 0.00579678
v 0.00324289 -0.00453115 0.00549655
v -0.01020528 -0.00453115 0.00545770
v -0.00995829 -0.00216124 0.00549743
v -0.00995829 -0.00189263 0.00549655
v -0.00109931 0.00025431 0.00579678
v -0.00832305 -0.00453115 0.00558662
v -0.00109931 -0.00055087 0.00579678
v -0.00083102 -0.00081948 0.00579678
v -0.00029446 -0.00108809 0.00579678
v -0.00021639 -0.00453115 0.00558750
v -0.00995829 -0.00453115 0.00549743
v -0.00969143 -0.00453115 0.00551333
v -0.00859133 -0.00453115 0.00557338
v -0.00027601 -0.00453115 0.00558750
v -0.00056274 -0.00108809 0.00579590
f 21 20 24
f 9 20 21
f 40 70 71
f 24 20 39
f 2 3 1
f 4 11 6
f 4 2 1
f 6 2 4
f 6 11 15
f 56 94 95
f 179 138 137
f 138 95 137
f 19 20 9
f 70 40 37
f 37 40 20
f 37 69 70
f 20 19 37
f 10 3 9
f 9 21 10
f 9 3 5
f 3 2 5
f 93 94 56
f 188 148 187
f 189 148 188
f 27 11 26
f 27 15 11
f 6 15 16
f 299 296 304
f 305 296 299
f 289 290 274
f 299 290 289
f 291 290 300
f 274 290 291
f 71 70 109
f 110 150 152
f 152 150 108
f 108 151 152
f 179 137 132
f 133 95 94
f 133 137 95
f 94 132 133
f 133 132 137
f 36 37 19
f 69 37 68
f 25 10 24
f 23 21 24
f 24 10 23
f 23 10 21
f 45 24 44
f 44 43 45
f 24 43 44
f 24 39 42
f 42 43 24
f 38 39 20
f 20 40 38
f 38 40 71
f 22 19 9
f 22 36 19
f 7 2 6
f 28 22 13
f 9 5 13
f 13 22 9
f 111 112 72
f 72 110 111
f 111 110 152
f 72 112 113
f 147 138 179
f 105 138 147
f 170 128 146
f 170 212 208
f 208 212 226
f 170 210 211
f 211 212 170
f 211 220 218
f 210 220 211
f 215 212 211
f 253 226 254
f 171 187 148
f 171 128 170
f 148 128 171
f 230 231 192
f 192 189 230
f 230 189 188
f 86 48 85
f 85 124 86
f 123 124 85
f 165 164 204
f 165 167 166
f 165 123 164
f 166 124 165
f 124 123 165
f 243 249 206
f 301 293 292
f 292 293 276
f 206 249 244
f 244 276 277
f 206 244 245
f 26 48 49
f 49 27 26
f 49 86 87
f 48 86 49
f 56 95 57
f 298 297 296
f 296 305 298
f 298 305 299
f 227 187 226
f 296 297 288
f 297 298 288
f 299 289 288
f 288 298 299
f 272 271 269
f 269 289 272
f 272 289 274
f 106 128 148
f 90 68 52
f 28 34 52
f 41 22 28
f 36 22 41
f 37 36 41
f 8 5 2
f 2 7 8
f 8 7 17
f 53 62 91
f 31 35 17
f 14 7 6
f 6 16 14
f 30 31 14
f 17 7 14
f 14 31 17
f 192 155 154
f 114 113 112
f 112 154 114
f 114 154 155
f 114 116 75
f 155 116 114
f 114 75 74
f 74 113 114
f 112 111 153
f 192 154 153
f 153 154 112
f 153 111 152
f 153 151 192
f 152 151 153
f 39 38 73
f 158 195 156
f 156 116 158
f 158 116 155
f 237 234 269
f 166 167 125
f 125 124 166
f 125 86 124
f 186 220 210
f 186 210 170
f 170 146 186
f 170 208 209
f 209 208 226
f 226 187 209
f 209 171 170
f 187 171 209
f 176 175 215
f 215 211 176
f 131 175 176
f 250 212 215
f 226 212 250
f 250 254 226
f 269 234 267
f 267 289 269
f 234 233 267
f 267 233 268
f 205 165 204
f 167 165 205
f 275 243 242
f 249 243 275
f 277 276 294
f 294 276 293
f 296 287 294
f 294 303 296
f 293 303 294
f 292 276 279
f 279 244 249
f 276 244 279
f 257 245 280
f 56 57 29
f 29 14 16
f 30 14 29
f 29 62 53
f 29 61 62
f 27 49 50
f 50 49 87
f 295 287 296
f 296 288 295
f 273 272 274
f 107 106 148
f 151 108 149
f 149 191 151
f 148 191 149
f 108 107 149
f 149 107 148
f 151 191 190
f 190 189 192
f 192 151 190
f 148 189 190
f 190 191 148
f 101 99 138
f 101 138 105
f 35 31 63
f 61 57 98
f 98 99 61
f 51 68 37
f 51 52 68
f 28 52 51
f 51 41 28
f 37 41 51
f 33 34 17
f 17 35 33
f 28 13 12
f 12 13 5
f 5 8 12
f 17 34 18
f 18 8 17
f 18 34 28
f 28 12 18
f 18 12 8
f 236 195 235
f 236 202 195
f 163 161 203
f 203 161 202
f 195 202 197
f 202 161 197
f 197 159 156
f 197 161 159
f 194 158 155
f 194 233 234
f 255 214 257
f 256 214 255
f 213 252 253
f 253 254 213
f 213 250 215
f 254 250 213
f 257 214 217
f 221 225 183
f 219 220 178
f 218 220 219
f 177 211 218
f 177 176 211
f 218 219 177
f 177 219 178
f 178 131 177
f 131 176 177
f 293 301 302
f 302 303 293
f 287 256 286
f 286 294 287
f 292 279 282
f 282 279 249
f 278 245 244
f 278 280 245
f 278 244 277
f 277 294 278
f 285 286 256
f 294 286 285
f 256 255 285
f 285 278 294
f 280 278 285
f 257 280 285
f 251 214 256
f 256 252 251
f 251 213 214
f 252 213 251
f 88 50 87
f 56 29 55
f 60 57 61
f 61 29 60
f 32 50 64
f 32 55 29
f 27 50 32
f 15 27 32
f 32 16 15
f 32 29 16
f 92 93 56
f 104 102 142
f 232 266 267
f 232 267 268
f 268 233 232
f 192 231 232
f 232 233 192
f 288 266 283
f 283 295 288
f 287 295 283
f 266 263 283
f 283 256 287
f 283 252 256
f 241 270 235
f 274 270 241
f 241 273 274
f 271 272 238
f 272 273 238
f 269 271 238
f 238 237 269
f 90 52 66
f 66 33 35
f 66 52 34
f 34 33 66
f 100 63 62
f 62 61 100
f 61 99 100
f 99 101 100
f 101 63 100
f 62 63 54
f 54 63 31
f 54 91 62
f 53 91 54
f 54 31 30
f 54 29 53
f 30 29 54
f 134 95 138
f 157 115 156
f 156 159 157
f 76 117 78
f 83 122 84
f 82 122 83
f 159 161 160
f 161 120 160
f 121 122 82
f 156 195 196
f 196 197 156
f 195 197 196
f 193 155 192
f 193 194 155
f 192 233 193
f 233 194 193
f 158 194 198
f 237 238 198
f 234 237 198
f 198 194 234
f 214 213 172
f 222 183 224
f 184 185 216
f 224 217 216
f 185 222 216
f 216 222 224
f 103 104 143
f 174 217 214
f 214 172 174
f 174 144 184
f 129 144 174
f 174 172 129
f 184 216 174
f 174 216 217
f 168 125 167
f 167 207 168
f 221 207 248
f 248 225 221
f 224 183 223
f 223 183 225
f 284 255 257
f 257 285 284
f 284 285 255
f 64 50 89
f 50 88 89
f 89 102 64
f 89 88 102
f 64 102 65
f 65 32 64
f 55 32 65
f 56 55 65
f 102 104 65
f 65 104 103
f 103 92 65
f 65 92 56
f 57 60 59
f 59 60 29
f 187 227 228
f 262 227 226
f 262 283 263
f 262 228 227
f 263 228 262
f 253 252 262
f 252 283 262
f 264 263 266
f 266 232 264
f 264 228 263
f 67 63 101
f 90 66 67
f 35 63 67
f 67 66 35
f 67 105 90
f 67 101 105
f 97 98 57
f 99 98 97
f 138 99 140
f 140 134 138
f 76 78 77
f 162 161 163
f 162 120 161
f 199 241 235
f 158 198 199
f 173 130 129
f 129 172 173
f 173 172 213
f 131 130 173
f 173 175 131
f 215 175 173
f 173 213 215
f 142 183 182
f 183 222 182
f 145 143 104
f 102 88 127
f 257 217 259
f 206 245 246
f 246 260 225
f 246 259 260
f 58 29 57
f 57 59 58
f 58 59 29
f 188 187 229
f 187 228 229
f 229 230 188
f 228 264 229
f 261 226 253
f 253 262 261
f 261 262 226
f 96 97 57
f 96 57 95
f 95 136 96
f 134 97 96
f 139 97 134
f 134 140 139
f 99 97 139
f 139 140 99
f 82 83 46
f 76 77 46
f 46 77 78
f 46 83 84
f 46 84 47
f 47 25 46
f 46 25 24
f 200 199 235
f 158 199 200
f 273 241 240
f 241 199 240
f 240 238 273
f 240 199 198
f 142 102 141
f 102 127 141
f 125 168 126
f 168 127 126
f 87 86 126
f 86 125 126
f 126 88 87
f 126 127 88
f 260 259 258
f 225 260 258
f 258 223 225
f 224 223 258
f 258 217 224
f 258 259 217
f 247 248 206
f 206 246 247
f 225 248 247
f 247 246 225
f 281 246 245
f 259 246 281
f 281 245 257
f 257 259 281
f 265 229 264
f 265 232 231
f 265 264 232
f 231 230 265
f 230 229 265
f 134 96 135
f 135 96 136
f 95 134 135
f 135 136 95
f 118 119 82
f 118 78 117
f 195 158 201
f 158 200 201
f 235 195 201
f 201 200 235
f 239 198 238
f 238 240 239
f 239 240 198
f 181 183 142
f 142 141 181
f 180 181 141
f 221 183 180
f 183 181 180
f 79 46 78
f 78 118 79
f 79 80 46
f 118 80 79
f 169 141 127
f 169 180 141
f 168 180 169
f 169 127 168
f 82 46 81
f 46 80 81
f 81 118 82
f 81 80 118
f 304 290 299
f 300 290 304
f 110 109 150
f 71 109 110
f 150 109 108
f 108 109 70
f 178 220 132
f 132 220 179
f 94 131 132
f 132 131 178
f 71 110 38
f 38 110 72
f 43 74 75
f 45 43 75
f 146 128 90
f 90 105 146
f 90 128 106
f 106 68 90
f 45 75 115
f 115 76 45
f 116 115 75
f 156 115 116
f 73 38 72
f 72 113 73
f 43 42 73
f 73 42 39
f 73 74 43
f 73 113 74
f 130 131 94
f 94 93 130
f 179 220 186
f 186 147 179
f 186 146 105
f 105 147 186
f 204 242 205
f 242 243 205
f 206 167 205
f 205 243 206
f 289 267 266
f 266 288 289
f 107 108 70
f 70 69 107
f 68 106 107
f 69 68 107
f 282 48 26
f 274 291 282
f 282 301 292
f 282 242 204
f 1 3 282
f 282 304 296
f 282 4 1
f 47 84 282
f 26 11 282
f 282 123 85
f 296 303 282
f 85 48 282
f 204 164 282
f 11 4 282
f 282 302 301
f 3 10 282
f 282 270 274
f 282 25 47
f 282 236 235
f 300 304 282
f 282 291 300
f 10 25 282
f 164 123 282
f 282 275 242
f 235 270 282
f 282 122 163
f 249 275 282
f 163 203 282
f 84 122 282
f 202 236 282
f 282 203 202
f 303 302 282
f 92 130 93
f 129 130 92
f 92 144 129
f 92 103 144
f 76 115 157
f 157 117 76
f 144 103 143
f 184 144 143
f 248 167 206
f 248 207 167
f 119 160 120
f 119 120 82
f 163 122 162
f 122 121 162
f 82 120 162
f 162 121 82
f 184 143 145
f 145 185 184
f 145 222 185
f 145 182 222
f 145 104 142
f 142 182 145
f 45 76 46
f 46 24 45
f 160 119 118
f 159 160 118
f 117 157 118
f 118 157 159
f 180 168 207
f 180 207 221

