# https://github.com/mikedh/trimesh
v -0.00006595 -0.00753138 0.00688716
v -0.00006595 -0.00780072 0.00688582
v 0.00346478 -0.00753138 0.00655121
v -0.00006595 -0.00699782 0.00686173
v 0.00346478 -0.00780072 0.00654720
v -0.00006595 -0.00830701 0.00686708
v 0.00361511 -0.00780072 0.00650972
v 0.00361695 -0.00753138 0.00651106
v 0.00360592 -0.00736262 0.00649901
v 0.00346478 -0.00731148 0.00651106
v -0.00006595 -0.00672677 0.00675198
v 0.00346478 -0.00717681 0.00646823
v 0.00346478 -0.00453115 0.00548716
v -0.00006595 -0.00856612 0.00685370
v 0.00348757 -0.01909760 0.00544032
v 0.00359232 -0.01920158 0.00541489
v 0.00364525 -0.00780072 0.00635714
v 0.00360813 -0.01902259 0.00542693
v 0.00361585 -0.01880610 0.00543496
v 0.00364709 -0.00753138 0.00635714
v 0.00362834 -0.00699441 0.00629156
v 0.00364047 -0.00453115 0.00541756
v 0.00363055 -0.00453115 0.00544835
v 0.00324315 -0.00453115 0.00549653
v -0.00006595 -0.00453115 0.00554873
v 0.00349529 -0.00453115 0.00548047
v -0.00006595 -0.01902259 0.00496384
v 0.00144654 -0.01924249 0.00542158
v 0.00158584 -0.01928341 0.00542693
v 0.00185379 -0.01944364 0.00541355
v 0.00319647 -0.01944364 0.00541355
v 0.00319647 -0.01907543 0.00546173
v 0.00341332 -0.01927659 0.00542693
v 0.00348757 -0.01935671 0.00539615
v 0.00346478 -0.01961241 0.00533057
v 0.00360997 -0.02004710 0.00516192
v 0.00362246 -0.01988004 0.00518468
v 0.00364562 -0.01880610 0.00528372
v 0.00364893 -0.01853846 0.00528372
v 0.00362908 -0.01961241 0.00521948
v 0.00365922 -0.00726375 0.00608945
v 0.00365848 -0.00699441 0.00608945
v 0.00367539 -0.00453115 0.00528372
v 0.00365922 -0.01961241 0.00501470
v 0.00365922 -0.00806835 0.00608945
v -0.00006595 -0.00453115 -0.00318451
v -0.00006595 -0.01957149 0.00470552
v 0.00143331 -0.02006244 0.00516862
v 0.00158584 -0.01961241 0.00534930
v 0.00158584 -0.01941807 0.00540284
v 0.00185379 -0.01961241 0.00537206
v 0.00319647 -0.01961241 0.00537206
v 0.00346478 -0.01988004 0.00525026
v 0.00346478 -0.02008460 0.00517665
v 0.00346478 -0.02021927 0.00510839
v 0.00360409 -0.02056021 0.00488755
v 0.00361805 -0.02041701 0.00492101
v 0.00362981 -0.02014086 0.00501604
v 0.00365260 -0.01988004 0.00501470
v 0.00368862 -0.00453115 0.00501470
v 0.00367833 -0.00453115 0.00523688
v 0.00365922 -0.02014938 0.00474701
v -0.00002515 -0.00453115 -0.00322065
v -0.00006595 -0.00515677 -0.00487762
v -0.00006595 -0.01983913 0.00443783
v 0.00142779 -0.02086023 0.00464395
v 0.00143992 -0.02056873 0.00489424
v 0.00158584 -0.02022950 0.00511776
v 0.00158584 -0.02009653 0.00518200
v 0.00158584 -0.01988004 0.00526231
v 0.00185379 -0.01988004 0.00527971
v 0.00319647 -0.01988004 0.00527971
v 0.00319647 -0.02010506 0.00518735
v 0.00319647 -0.02023973 0.00513114
v 0.00346478 -0.02041701 0.00499328
v 0.00346478 -0.02057725 0.00489959
v 0.00346478 -0.02088068 0.00466001
v 0.00361511 -0.02085000 0.00463592
v 0.00362357 -0.02066419 0.00473363
v 0.00364819 -0.02041701 0.00474701
v 0.00365628 -0.02068635 0.00447799
v 0.00368899 -0.00453115 0.00474701
v 0.00365922 -0.02122332 0.00367225
v 0.00024353 -0.00453115 -0.00322332
v 0.00251943 -0.00453115 -0.00322332
v 0.00319647 -0.00453115 -0.00322199
v 0.00329240 -0.00453115 -0.00321128
v 0.00346258 -0.00453115 -0.00319120
v -0.00006595 -0.00600740 -0.00617456
v -0.00006595 -0.02009824 0.00389042
v 0.00143735 -0.02163926 0.00357321
v 0.00144176 -0.02136822 0.00408984
v 0.00142853 -0.02111763 0.00438296
v 0.00158584 -0.02088921 0.00466537
v 0.00158584 -0.02102217 0.00454491
v 0.00158584 -0.02058407 0.00490495
v 0.00158584 -0.02041701 0.00500800
v 0.00185379 -0.02023973 0.00513114
v 0.00185379 -0.02010506 0.00518735
v 0.00319647 -0.02041701 0.00502540
v 0.00319647 -0.02058918 0.00490896
v 0.00319647 -0.02072385 0.00480724
v 0.00319647 -0.02089603 0.00467206
v 0.00319647 -0.02103070 0.00455160
v 0.00346478 -0.02101535 0.00453688
v 0.00361401 -0.02111082 0.00437225
v 0.00362981 -0.02094546 0.00446862
v 0.00365554 -0.02095399 0.00420896
v 0.00368899 -0.00453115 -0.00250057
v 0.00365922 -0.02149096 0.00313554
v 0.00364709 -0.02122332 0.00394128
v 0.00364966 -0.02149096 0.00340457
v 0.00350521 -0.00453115 -0.00316309
v 0.00360960 -0.00496755 -0.00372791
v 0.00361585 -0.00630061 -0.00562714
v 0.00346478 -0.00627504 -0.00566462
v 0.00346478 -0.00637220 -0.00579846
v 0.00346478 -0.00650687 -0.00595104
v -0.00006595 -0.00626481 -0.00645295
v -0.00006595 -0.02011188 0.00363478
v 0.00143514 -0.02190860 0.00232981
v 0.00144286 -0.02190179 0.00252522
v 0.00141934 -0.02166824 0.00340457
v 0.00158584 -0.02180291 0.00313554
v 0.00158584 -0.02172450 0.00340457
v 0.00158584 -0.02165120 0.00359998
v 0.00158584 -0.02158642 0.00373382
v 0.00158584 -0.02147221 0.00394128
v 0.00158584 -0.02137845 0.00410323
v 0.00158584 -0.02127446 0.00423707
v 0.00158584 -0.02113979 0.00440973
v 0.00185379 -0.02089603 0.00467206
v 0.00185379 -0.02103070 0.00455160
v 0.00185379 -0.02058918 0.00490896
v 0.00185379 -0.02041701 0.00502540
v 0.00185379 -0.02072385 0.00480724
v 0.00319647 -0.02114491 0.00441776
v 0.00346478 -0.02113298 0.00440304
v 0.00360262 -0.02136140 0.00408047
v 0.00362246 -0.02120969 0.00418621
v 0.00365922 -0.00806835 -0.00599119
v 0.00365922 -0.00726375 -0.00599119
v 0.00365812 -0.00699441 -0.00599119
v 0.00365922 -0.00672677 -0.00572351
v 0.00368384 -0.00457888 -0.00276960
v 0.00368054 -0.00453115 -0.00277361
v 0.00365922 -0.02149096 -0.00303862
v 0.00365922 -0.02122332 -0.00357533
v 0.00365922 -0.02014938 -0.00464875
v 0.00365922 -0.01961241 -0.00491777
v 0.00362908 -0.02168529 0.00313554
v 0.00363606 -0.02176030 0.00232981
v 0.00363900 -0.02176030 0.00206213
v 0.00361695 -0.02139209 0.00394128
v 0.00362761 -0.02148925 0.00365753
v 0.00361952 -0.02165631 0.00340457
v 0.00364378 -0.00453115 -0.00302925
v 0.00363349 -0.00645914 -0.00571949
v 0.00361915 -0.00654949 -0.00590553
v 0.00346478 -0.00663813 -0.00608488
v 0.00346478 -0.00677280 -0.00617991
v -0.00006595 -0.00676428 -0.00675811
v -0.00006595 -0.02011188 -0.00330631
v 0.00143184 -0.02191201 0.00206213
v 0.00158584 -0.02193758 0.00206213
v 0.00158584 -0.02193076 0.00232981
v 0.00160495 -0.02190690 0.00260820
v 0.00152813 -0.02188474 0.00270323
v 0.00160495 -0.02186428 0.00284243
v 0.00185379 -0.02182848 0.00313554
v 0.00185379 -0.02173984 0.00340457
v 0.00185379 -0.02160006 0.00374319
v 0.00185379 -0.02149096 0.00394128
v 0.00185379 -0.02138356 0.00410858
v 0.00185379 -0.02114491 0.00441776
v 0.00319647 -0.02138356 0.00410858
v 0.00346478 -0.02137334 0.00409654
v 0.00346478 -0.02145857 0.00394128
v 0.00346478 -0.02157790 0.00372311
v 0.00360629 -0.02163415 0.00355849
v 0.00364525 -0.00780072 -0.00626022
v 0.00364562 -0.00753138 -0.00626022
v 0.00362798 -0.00699441 -0.00619865
v 0.00363422 -0.00672507 -0.00599387
v 0.00365701 -0.00645744 -0.00545448
v 0.00362908 -0.02168529 -0.00303862
v 0.00364966 -0.02149096 -0.00330631
v 0.00363900 -0.02176030 -0.00196386
v 0.00363606 -0.02176030 -0.00223289
v 0.00364672 -0.02122332 -0.00384302
v 0.00365518 -0.02095399 -0.00411204
v 0.00365591 -0.02068635 -0.00438106
v 0.00365224 -0.01988004 -0.00491777
v 0.00364488 -0.01880610 -0.00518546
v 0.00364819 -0.01853846 -0.00518546
v 0.00360151 -0.02189667 0.00248507
v 0.00360592 -0.02190008 0.00232981
v 0.00360886 -0.02190349 0.00206213
v 0.00361768 -0.00681371 -0.00615314
v 0.00345486 -0.00701827 -0.00631911
v 0.00335893 -0.00712396 -0.00639674
v 0.00345486 -0.00726375 -0.00641012
v 0.00346478 -0.00753138 -0.00644760
v -0.00006595 -0.00702339 -0.00677149
v -0.00006595 -0.02010165 -0.00357533
v 0.00143514 -0.02190860 -0.00223289
v 0.00143184 -0.02191201 -0.00196386
v 0.00158584 -0.02193758 -0.00196386
v 0.00185379 -0.02194611 0.00206213
v 0.00185379 -0.02193758 0.00232981
v 0.00185379 -0.02191372 0.00259884
v 0.00170713 -0.02189497 0.00273803
v 0.00185379 -0.02187792 0.00287321
v 0.00319647 -0.02182848 0.00313554
v 0.00319647 -0.02173984 0.00340457
v 0.00319647 -0.02160006 0.00374319
v 0.00319647 -0.02149096 0.00394128
v 0.00346478 -0.02164608 0.00358927
v 0.00346478 -0.02171257 0.00340457
v 0.00346478 -0.02178757 0.00313554
v 0.00361511 -0.00780072 -0.00641146
v 0.00361548 -0.00753138 -0.00641146
v 0.00360556 -0.00735410 -0.00640075
v 0.00361952 -0.02165631 -0.00330631
v 0.00360592 -0.02190008 -0.00223289
v 0.00360151 -0.02189667 -0.00238681
v 0.00362761 -0.02148925 -0.00355927
v 0.00360886 -0.02190349 -0.00196386
v 0.00361658 -0.02139209 -0.00384302
v 0.00362173 -0.02120798 -0.00408795
v 0.00362945 -0.02094546 -0.00437036
v 0.00362320 -0.02066419 -0.00463536
v 0.00364782 -0.02041701 -0.00464875
v 0.00362945 -0.02014086 -0.00491911
v 0.00362210 -0.01988004 -0.00508641
v 0.00362908 -0.01961241 -0.00512121
v 0.00361474 -0.01880610 -0.00533670
v 0.00333724 -0.02189497 0.00273803
v 0.00344199 -0.02190349 0.00258411
v 0.00346478 -0.02192224 0.00232981
v 0.00346478 -0.02192906 0.00206213
v 0.00353793 -0.00717510 -0.00637398
v 0.00346478 -0.00780072 -0.00644760
v -0.00006595 -0.00753138 -0.00678622
v -0.00006595 -0.02000960 -0.00384302
v 0.00143772 -0.02163926 -0.00347495
v 0.00141934 -0.02166654 -0.00330631
v 0.00144286 -0.02190179 -0.00242696
v 0.00158584 -0.02193076 -0.00223289
v 0.00185379 -0.02194611 -0.00196386
v 0.00319647 -0.02194611 0.00206213
v 0.00319647 -0.02193758 0.00232981
v 0.00319647 -0.02191372 0.00259884
v 0.00319647 -0.02187792 0.00287321
v 0.00360482 -0.00795925 -0.00639941
v 0.00360739 -0.01901748 -0.00532867
v 0.00360629 -0.02163415 -0.00346023
v 0.00346478 -0.02192906 -0.00196386
v 0.00346478 -0.02192224 -0.00223289
v 0.00344126 -0.02190349 -0.00248585
v 0.00333577 -0.02189497 -0.00263843
v 0.00346478 -0.02178587 -0.00303862
v 0.00360225 -0.02136140 -0.00398221
v 0.00361401 -0.02110911 -0.00427399
v 0.00361474 -0.02085000 -0.00453766
v 0.00360372 -0.02055850 -0.00478928
v 0.00361768 -0.02041701 -0.00482274
v 0.00360960 -0.02004539 -0.00506366
v -0.00006595 -0.00833428 -0.00676079
v -0.00006595 -0.00806835 -0.00677417
v -0.00006595 -0.00780072 -0.00678488
v 0.00348389 -0.01909419 -0.00534205
v -0.00006595 -0.01985277 -0.00411070
v 0.00144213 -0.02136822 -0.00399158
v 0.00158584 -0.02158472 -0.00363556
v 0.00158584 -0.02164949 -0.00350038
v 0.00158584 -0.02172450 -0.00330631
v 0.00158584 -0.02180291 -0.00303862
v 0.00153034 -0.02188474 -0.00260497
v 0.00160642 -0.02190690 -0.00250994
v 0.00185379 -0.02193758 -0.00223289
v 0.00319647 -0.02194611 -0.00196386
v 0.00358571 -0.01919647 -0.00531395
v 0.00346478 -0.02171257 -0.00330631
v 0.00346478 -0.02164608 -0.00348967
v 0.00346478 -0.02157619 -0.00362485
v 0.00319647 -0.02193758 -0.00223289
v 0.00319647 -0.02191372 -0.00250057
v 0.00319647 -0.02187792 -0.00277495
v 0.00319647 -0.02182678 -0.00303862
v 0.00346478 -0.02145686 -0.00384302
v 0.00346478 -0.02137163 -0.00399827
v 0.00346478 -0.02113298 -0.00430343
v 0.00346478 -0.02101365 -0.00443862
v 0.00346478 -0.02087898 -0.00456041
v 0.00346478 -0.02057555 -0.00480133
v 0.00346478 -0.02041701 -0.00489368
v 0.00346478 -0.02021586 -0.00501012
v 0.00346478 -0.02071022 -0.00469559
v 0.00346478 -0.02008119 -0.00507838
v 0.00346478 -0.01988004 -0.00515066
v 0.00346478 -0.01961241 -0.00523096
v 0.00340671 -0.01926977 -0.00532867
v 0.00319647 -0.01907543 -0.00536213
v 0.00185379 -0.01907543 -0.00536213
v 0.00185379 -0.01930045 -0.00533269
v 0.00158584 -0.01927488 -0.00532867
v 0.00144764 -0.01923567 -0.00532332
v -0.00006595 -0.01880610 -0.00486959
v 0.00142889 -0.02111763 -0.00428470
v -0.00006595 -0.01961070 -0.00436768
v 0.00158584 -0.02113809 -0.00431147
v 0.00158584 -0.02127276 -0.00413881
v 0.00158584 -0.02137674 -0.00400363
v 0.00158584 -0.02147050 -0.00384302
v 0.00185379 -0.02159835 -0.00364493
v 0.00185379 -0.02165461 -0.00350975
v 0.00185379 -0.02173814 -0.00330631
v 0.00185379 -0.02182678 -0.00303862
v 0.00160642 -0.02186428 -0.00274551
v 0.00170934 -0.02189497 -0.00263843
v 0.00185379 -0.02191372 -0.00250057
v 0.00348389 -0.01935330 -0.00529521
v 0.00319647 -0.02173814 -0.00330631
v 0.00319647 -0.02165461 -0.00350975
v 0.00319647 -0.02159835 -0.00364493
v 0.00185379 -0.02187792 -0.00277495
v 0.00319647 -0.02148925 -0.00384302
v 0.00319647 -0.02138186 -0.00401032
v 0.00319647 -0.02127958 -0.00414416
v 0.00319647 -0.02114491 -0.00431950
v 0.00319647 -0.02102899 -0.00445334
v 0.00319647 -0.02089432 -0.00457380
v 0.00319647 -0.02058748 -0.00481070
v 0.00319647 -0.02041701 -0.00492580
v 0.00319647 -0.02023632 -0.00503154
v 0.00319647 -0.02072215 -0.00470764
v 0.00319647 -0.02010165 -0.00508775
v 0.00319647 -0.01988004 -0.00518010
v 0.00319647 -0.01961241 -0.00527246
v 0.00319647 -0.01930045 -0.00533269
v 0.00319647 -0.01943342 -0.00531395
v 0.00185379 -0.01943342 -0.00531395
v 0.00158584 -0.01940955 -0.00530324
v 0.00158584 -0.01961241 -0.00524970
v 0.00143404 -0.02006074 -0.00507035
v -0.00006595 -0.01907543 -0.00477456
v 0.00158584 -0.02102217 -0.00444531
v 0.00142816 -0.02086023 -0.00454569
v -0.00006595 -0.01959877 -0.00437973
v 0.00185379 -0.02114491 -0.00431950
v 0.00185379 -0.02127958 -0.00414416
v 0.00185379 -0.02138186 -0.00401032
v 0.00185379 -0.02148925 -0.00384302
v 0.00185379 -0.02102899 -0.00445334
v 0.00185379 -0.02089432 -0.00457380
v 0.00185379 -0.02058748 -0.00481070
v 0.00185379 -0.02041701 -0.00492580
v 0.00185379 -0.02023632 -0.00503154
v 0.00185379 -0.02072215 -0.00470764
v 0.00185379 -0.02010165 -0.00508775
v 0.00185379 -0.01988004 -0.00518010
v 0.00185379 -0.01961241 -0.00527246
v 0.00158584 -0.01988004 -0.00516271
v 0.00158584 -0.02009313 -0.00508374
v 0.00158584 -0.02022779 -0.00501949
v 0.00144066 -0.02056702 -0.00479598
v -0.00006595 -0.01934136 -0.00461930
v 0.00158584 -0.02088750 -0.00456710
v 0.00158584 -0.02058237 -0.00480668
v 0.00158584 -0.02041701 -0.00490707
f 256 243 255
f 7 5 16
f 4 13 11
f 25 11 24
f 11 13 24
f 18 7 16
f 19 7 18
f 17 7 19
f 8 7 17
f 3 4 1
f 3 7 8
f 5 7 3
f 9 3 8
f 121 90 120
f 38 44 39
f 39 17 38
f 38 17 19
f 27 28 14
f 368 347 367
f 269 305 306
f 306 307 269
f 305 269 304
f 195 150 194
f 203 243 244
f 203 222 243
f 223 222 203
f 201 200 242
f 242 200 199
f 199 223 242
f 64 46 63
f 160 159 199
f 204 203 244
f 144 143 184
f 199 159 184
f 141 142 109
f 109 143 144
f 109 142 143
f 109 150 141
f 39 44 20
f 20 17 39
f 20 44 45
f 8 17 20
f 23 9 22
f 13 4 12
f 9 23 12
f 90 121 122
f 220 196 180
f 2 3 1
f 5 3 2
f 346 367 347
f 346 347 309
f 363 362 364
f 309 269 308
f 308 269 307
f 307 344 308
f 308 346 309
f 244 243 271
f 256 237 236
f 237 194 236
f 189 188 228
f 147 188 189
f 148 109 147
f 221 194 237
f 256 255 221
f 221 237 256
f 221 255 243
f 243 222 221
f 143 142 182
f 182 142 141
f 118 89 117
f 159 160 118
f 117 115 118
f 118 115 159
f 199 200 161
f 161 160 199
f 161 200 201
f 223 203 202
f 201 242 202
f 202 242 223
f 144 184 158
f 158 184 159
f 159 115 158
f 41 20 45
f 10 12 4
f 9 12 10
f 4 3 10
f 3 9 10
f 13 12 26
f 26 12 23
f 251 241 240
f 166 122 121
f 196 220 238
f 238 220 214
f 219 220 180
f 214 220 219
f 30 31 14
f 6 14 5
f 5 2 6
f 365 346 364
f 364 362 365
f 343 363 344
f 343 307 306
f 343 344 307
f 345 363 364
f 344 363 345
f 345 308 344
f 364 346 345
f 346 308 345
f 243 269 270
f 270 271 243
f 323 302 340
f 323 283 302
f 147 189 186
f 186 226 224
f 149 148 192
f 150 109 149
f 109 148 149
f 187 148 147
f 224 227 187
f 147 186 187
f 187 186 224
f 183 222 223
f 183 182 222
f 183 223 199
f 143 182 183
f 199 184 183
f 183 184 143
f 141 150 181
f 181 182 141
f 181 150 195
f 195 194 181
f 194 221 181
f 84 64 63
f 89 118 119
f 119 118 160
f 160 161 119
f 114 113 157
f 157 115 114
f 117 89 116
f 116 115 117
f 89 64 88
f 88 116 89
f 115 116 88
f 88 114 115
f 113 114 88
f 146 115 157
f 146 158 115
f 60 41 45
f 45 44 60
f 20 41 42
f 42 43 20
f 41 60 42
f 8 20 21
f 20 43 21
f 21 9 8
f 21 43 22
f 22 9 21
f 122 166 167
f 164 121 120
f 368 367 349
f 239 240 196
f 196 238 239
f 254 238 214
f 180 196 156
f 196 151 156
f 152 153 110
f 110 151 152
f 152 198 153
f 14 31 32
f 32 33 14
f 31 33 32
f 5 14 15
f 14 33 15
f 16 5 15
f 15 33 16
f 29 14 28
f 29 30 14
f 50 29 28
f 30 29 50
f 19 18 40
f 40 38 19
f 62 60 44
f 90 122 123
f 123 91 90
f 122 91 123
f 90 91 65
f 66 47 65
f 124 91 122
f 180 139 179
f 224 226 257
f 256 236 235
f 295 332 333
f 294 332 295
f 367 346 366
f 346 365 366
f 342 341 303
f 283 323 303
f 303 341 304
f 340 342 303
f 303 323 340
f 303 304 269
f 225 189 228
f 228 258 225
f 225 186 189
f 226 186 225
f 287 260 259
f 260 226 259
f 259 258 282
f 259 282 287
f 226 225 259
f 259 225 258
f 85 86 64
f 64 84 85
f 201 202 162
f 162 161 201
f 162 119 161
f 203 204 162
f 162 202 203
f 64 86 87
f 87 88 64
f 145 146 109
f 145 109 144
f 144 158 185
f 158 146 185
f 185 145 144
f 146 145 185
f 43 42 61
f 61 42 60
f 251 240 252
f 240 239 252
f 252 239 238
f 245 246 205
f 249 250 208
f 368 349 350
f 274 245 273
f 246 245 274
f 197 151 196
f 197 152 151
f 198 152 197
f 241 198 197
f 196 240 197
f 197 240 241
f 27 47 48
f 48 28 27
f 81 80 79
f 79 56 78
f 81 62 59
f 59 80 81
f 59 62 44
f 58 80 59
f 44 38 59
f 38 40 59
f 112 111 155
f 155 156 112
f 112 151 110
f 112 156 151
f 106 138 139
f 92 65 91
f 169 124 168
f 168 124 122
f 122 167 168
f 168 212 169
f 167 212 168
f 91 124 125
f 218 219 180
f 180 179 218
f 285 325 326
f 324 325 285
f 262 257 226
f 293 332 294
f 293 294 264
f 264 263 293
f 292 263 291
f 292 293 263
f 292 326 328
f 292 291 326
f 332 293 331
f 331 292 330
f 293 292 331
f 265 231 264
f 264 294 265
f 294 295 265
f 148 187 190
f 190 187 227
f 369 356 355
f 369 349 367
f 272 269 243
f 272 303 269
f 283 303 272
f 272 243 256
f 256 283 272
f 170 212 213
f 170 124 169
f 169 212 170
f 170 125 124
f 210 167 166
f 210 166 209
f 205 246 247
f 247 248 205
f 246 248 247
f 206 248 249
f 206 208 207
f 249 208 206
f 205 248 206
f 206 163 205
f 207 163 206
f 329 292 328
f 330 292 329
f 281 250 249
f 278 248 246
f 209 166 165
f 165 166 121
f 121 164 165
f 311 350 349
f 310 274 273
f 273 311 310
f 310 311 349
f 314 351 352
f 30 50 51
f 102 103 76
f 74 100 76
f 16 33 34
f 56 36 55
f 37 18 16
f 16 36 37
f 37 40 18
f 37 59 40
f 37 36 58
f 58 59 37
f 67 47 66
f 67 48 47
f 66 94 67
f 57 80 58
f 57 79 80
f 56 79 57
f 58 36 57
f 57 36 56
f 81 108 83
f 83 62 81
f 83 112 110
f 60 62 83
f 111 112 83
f 83 108 111
f 83 110 82
f 82 60 83
f 155 111 154
f 154 139 180
f 180 156 154
f 154 156 155
f 111 108 107
f 78 106 107
f 107 108 81
f 107 79 78
f 81 79 107
f 66 65 93
f 65 92 93
f 214 219 215
f 219 218 215
f 326 291 286
f 286 285 326
f 291 263 286
f 286 263 257
f 257 285 286
f 193 149 192
f 150 149 193
f 193 234 235
f 193 235 236
f 193 194 150
f 193 236 194
f 192 231 232
f 231 265 232
f 192 148 191
f 148 190 191
f 191 231 192
f 191 190 231
f 264 231 230
f 231 190 230
f 230 263 264
f 370 369 367
f 360 356 370
f 356 369 370
f 359 366 365
f 359 358 366
f 211 212 167
f 167 210 211
f 213 212 211
f 317 276 316
f 280 281 249
f 249 248 280
f 261 290 262
f 261 226 260
f 261 262 226
f 261 260 287
f 287 288 261
f 257 262 284
f 262 290 284
f 284 285 257
f 324 285 284
f 284 290 324
f 348 369 355
f 349 369 348
f 348 310 349
f 353 314 352
f 354 314 353
f 354 316 315
f 315 314 354
f 274 314 315
f 71 51 70
f 77 76 103
f 77 103 104
f 78 56 77
f 56 76 77
f 35 36 16
f 16 34 35
f 74 76 75
f 75 55 74
f 75 76 56
f 56 55 75
f 139 138 177
f 216 218 179
f 216 177 217
f 216 215 218
f 175 129 174
f 111 107 140
f 140 107 106
f 140 154 111
f 140 106 139
f 139 154 140
f 95 133 94
f 95 94 66
f 66 93 95
f 125 170 171
f 234 193 233
f 267 234 233
f 233 232 267
f 233 193 192
f 192 232 233
f 263 230 229
f 257 263 229
f 229 190 227
f 229 230 190
f 229 227 224
f 224 257 229
f 366 358 371
f 358 370 371
f 367 366 371
f 371 370 367
f 360 370 357
f 357 370 358
f 266 265 295
f 267 232 266
f 266 232 265
f 361 365 362
f 361 359 365
f 253 252 238
f 238 254 253
f 277 278 246
f 246 276 277
f 281 280 322
f 248 278 279
f 279 280 248
f 290 261 289
f 289 261 288
f 274 310 312
f 310 348 312
f 316 276 275
f 275 315 316
f 275 276 246
f 246 274 275
f 274 315 275
f 54 55 36
f 72 73 54
f 74 55 54
f 54 73 74
f 49 51 50
f 49 70 51
f 49 50 28
f 28 48 49
f 48 70 49
f 104 138 105
f 105 77 104
f 138 106 105
f 105 106 78
f 78 77 105
f 48 67 68
f 102 76 101
f 101 76 100
f 96 67 94
f 94 136 96
f 94 133 132
f 132 136 94
f 137 138 104
f 137 177 138
f 178 216 179
f 177 216 178
f 178 179 139
f 139 177 178
f 131 175 133
f 133 95 131
f 131 93 92
f 131 95 93
f 91 125 126
f 125 171 126
f 296 337 334
f 333 337 296
f 276 317 318
f 318 277 276
f 327 322 321
f 321 322 280
f 280 279 321
f 313 314 274
f 274 312 313
f 313 312 351
f 351 314 313
f 36 35 53
f 53 54 36
f 72 54 53
f 98 99 69
f 69 68 98
f 69 70 48
f 48 68 69
f 69 99 71
f 71 70 69
f 97 68 67
f 67 96 97
f 98 68 97
f 134 96 136
f 217 177 176
f 177 137 176
f 129 175 130
f 175 131 130
f 92 129 130
f 130 131 92
f 127 92 91
f 91 126 127
f 299 266 295
f 299 296 266
f 299 295 333
f 333 296 299
f 278 277 319
f 277 318 319
f 327 321 319
f 320 279 278
f 320 321 279
f 278 319 320
f 320 319 321
f 72 53 52
f 52 53 35
f 52 35 34
f 52 33 31
f 52 34 33
f 98 97 135
f 135 97 96
f 96 134 135
f 128 129 92
f 92 127 128
f 335 296 334
f 335 336 296
f 172 128 127
f 172 127 126
f 172 126 171
f 296 336 297
f 336 298 297
f 266 296 297
f 297 298 266
f 300 298 336
f 174 129 173
f 129 128 173
f 128 172 173
f 267 266 268
f 266 298 268
f 298 300 268
f 268 234 267
f 235 234 268
f 302 283 268
f 268 283 256
f 256 235 268
f 302 268 301
f 301 268 300
f 340 302 301
f 301 339 340
f 300 339 301
f 338 300 336
f 338 339 300
f 110 109 82
f 147 109 110
f 147 110 153
f 153 188 147
f 343 342 340
f 340 363 343
f 305 304 341
f 306 305 341
f 342 343 341
f 341 343 306
f 222 182 181
f 181 221 222
f 120 163 164
f 164 163 207
f 188 153 198
f 228 188 198
f 228 198 258
f 258 198 241
f 258 241 251
f 251 282 258
f 333 332 356
f 356 332 355
f 61 46 25
f 25 24 61
f 157 113 61
f 63 46 61
f 82 109 61
f 61 24 13
f 61 146 157
f 86 85 61
f 61 23 22
f 13 26 61
f 61 84 63
f 22 43 61
f 61 26 23
f 61 60 82
f 113 88 61
f 109 146 61
f 61 87 86
f 61 85 84
f 88 87 61
f 250 282 251
f 250 251 209
f 331 330 352
f 352 351 331
f 355 332 331
f 331 351 355
f 213 254 170
f 170 254 214
f 209 251 210
f 251 252 210
f 316 354 328
f 328 326 316
f 282 250 281
f 287 282 281
f 165 250 209
f 165 208 250
f 165 164 207
f 207 208 165
f 1 4 311
f 311 347 368
f 46 64 311
f 120 90 311
f 311 11 25
f 14 6 311
f 311 204 244
f 25 46 311
f 311 4 11
f 89 119 311
f 311 2 1
f 27 14 311
f 309 347 311
f 311 269 309
f 311 64 89
f 311 270 269
f 244 271 311
f 311 245 205
f 311 163 120
f 311 162 204
f 311 6 2
f 311 47 27
f 271 270 311
f 90 65 311
f 205 163 311
f 311 65 47
f 119 162 311
f 273 245 311
f 368 350 311
f 317 316 326
f 326 325 317
f 352 330 353
f 330 329 353
f 328 354 353
f 353 329 328
f 171 170 214
f 214 215 171
f 333 356 337
f 337 356 360
f 357 337 360
f 334 337 357
f 253 210 252
f 253 211 210
f 253 254 213
f 213 211 253
f 287 281 322
f 322 288 287
f 288 322 289
f 289 322 327
f 355 351 312
f 312 348 355
f 99 73 72
f 99 72 71
f 74 73 99
f 99 98 74
f 132 133 104
f 104 103 132
f 132 103 102
f 102 136 132
f 104 133 137
f 133 175 137
f 318 317 325
f 318 325 324
f 134 136 102
f 102 101 134
f 176 137 175
f 176 175 174
f 319 289 327
f 290 289 319
f 319 318 324
f 324 290 319
f 30 51 52
f 31 30 52
f 71 72 52
f 52 51 71
f 74 98 135
f 135 100 74
f 135 134 101
f 135 101 100
f 334 357 335
f 335 357 358
f 358 359 335
f 359 336 335
f 172 171 215
f 215 216 172
f 173 176 174
f 217 176 173
f 173 172 216
f 173 216 217
f 339 363 340
f 362 363 339
f 338 336 359
f 359 361 338
f 362 339 338
f 338 361 362

