# https://github.com/mikedh/trimesh
v -0.01041930 -0.02225185 -0.00900767
v -0.01041722 -0.02225185 -0.00958894
v -0.01037980 -0.02283602 -0.00958894
v -0.00881851 -0.04721090 -0.00784735
v -0.01041930 -0.02225185 0.00047496
v -0.01041930 -0.01645021 -0.00900767
v -0.01033406 -0.02225185 -0.00998350
v -0.01031327 -0.02283602 -0.00996238
v -0.01041722 -0.01645021 -0.00958894
v -0.00866258 -0.04721090 -0.00830081
v -0.00861061 -0.04778934 -0.00825524
v -0.00871456 -0.04778934 -0.00784735
v -0.00871664 -0.04778934 -0.00088098
v -0.00881851 -0.04721090 0.00047496
v -0.01041930 -0.01645021 0.00047496
v -0.01039851 -0.01586604 -0.00958894
v -0.00995777 -0.02225185 -0.01013354
v -0.00995777 -0.02283602 -0.01011242
v -0.01033406 -0.01645021 -0.00998350
v -0.00866258 -0.03327667 -0.01002795
v -0.00861685 -0.03386084 -0.00999350
v -0.01032367 -0.01586604 -0.00997238
v -0.00821769 -0.04778934 -0.00842640
v -0.00823848 -0.04835633 -0.00830303
v -0.00805553 -0.04895196 -0.00825858
v -0.00854200 -0.04815588 -0.00818522
v -0.00855864 -0.04819024 -0.00784735
v -0.00856072 -0.04819597 -0.00146225
v -0.00871664 -0.04778934 0.00047496
v -0.01039851 -0.01586604 0.00047496
v -0.01037149 -0.01574577 0.00047496
v -0.01031535 -0.01551096 -0.00958894
v -0.01029248 -0.01553387 -0.00993348
v -0.00937774 -0.02457708 -0.01017911
v -0.00937774 -0.02514980 -0.01017355
v -0.00821769 -0.03327667 -0.01017800
v -0.00995777 -0.01645021 -0.01013354
v -0.00357330 -0.00019075 -0.01087819
v -0.00821769 -0.03386084 -0.01014354
v -0.00402652 0.00096614 -0.01064368
v -0.00357330 0.00096614 -0.01085374
v -0.00995777 -0.01586604 -0.01010464
v -0.00763558 -0.04895196 -0.00842973
v -0.00763558 -0.03501773 -0.01017466
v -0.00763558 -0.04950750 -0.00829081
v -0.00796405 -0.04929559 -0.00818522
v -0.00818442 -0.04895196 -0.00784735
v -0.00842143 -0.04848233 -0.00784735
v -0.00842350 -0.04848233 -0.00726608
v -0.00842558 -0.04848806 -0.00088098
v -0.00856072 -0.04819597 0.00047496
v -0.01031535 -0.01551096 0.00047496
v -0.00401196 0.00155031 -0.01016911
v -0.00387475 0.00186531 -0.01048141
v -0.00393712 0.00155031 -0.01055810
v -0.00241117 -0.01064285 -0.01087930
v -0.00241117 -0.01122130 -0.01086930
v -0.00357330 0.00038769 -0.01087597
v -0.00299120 0.00155031 -0.01087930
v -0.00299120 -0.00193181 -0.01087930
v -0.00357330 0.00155031 -0.01076816
v -0.00299120 0.00212876 -0.01085263
v -0.00705555 -0.04953040 -0.00846308
v -0.00708466 -0.05013749 -0.00832748
v -0.00647552 -0.03560190 -0.01017800
v -0.00705555 -0.03560190 -0.01015799
v -0.00531339 -0.05127719 -0.00846419
v -0.00589550 -0.05069302 -0.00847530
v -0.00647552 -0.05011458 -0.00847641
v -0.00744016 -0.04995422 -0.00823079
v -0.00727384 -0.05030930 -0.00784735
v -0.00748590 -0.05002294 -0.00784735
v -0.00777695 -0.04961631 -0.00784735
v -0.00798277 -0.04932423 -0.00784735
v -0.00818858 -0.04895196 -0.00726608
v -0.00842558 -0.04848806 0.00047496
v -0.00826966 -0.04879732 0.00047496
v -0.00299120 -0.01372408 0.00047496
v -0.00066900 0.00313101 -0.00799517
v -0.00111182 0.00307374 -0.00806074
v -0.00183114 0.00370946 -0.00861201
v -0.00219080 0.00362355 -0.00867091
v -0.00281241 0.00310238 -0.00863979
v -0.00336125 0.00252393 -0.00864980
v -0.00386644 0.00184240 -0.00871426
v -0.00387475 0.00185958 -0.00900767
v -0.00399533 0.00155031 -0.00900767
v -0.00401196 0.00155031 -0.00958894
v -0.00388099 0.00187676 -0.01016911
v -0.00371259 0.00216885 -0.01016911
v -0.00342362 0.00260411 -0.01016911
v -0.00337580 0.00254111 -0.01056366
v -0.00357122 0.00208867 -0.01061923
v 0.00223114 -0.01064285 -0.01087930
v -0.00008897 -0.01122130 -0.01086930
v 0.00165111 -0.03792141 -0.01017911
v -0.00241117 0.00271293 -0.01086152
v -0.00183114 0.00271293 -0.01087930
v -0.00301199 0.00272438 -0.01067591
v -0.00650463 -0.05072739 -0.00833749
v -0.00691003 -0.05055557 -0.00824857
v -0.00299120 -0.05243409 -0.00847419
v -0.00415333 -0.05185564 -0.00847864
v -0.00473336 -0.05185564 -0.00842195
v -0.00591628 -0.05130010 -0.00832748
v -0.00727384 -0.05030930 0.00047496
v -0.00741521 -0.05012030 0.00047496
v -0.00698279 -0.05063002 -0.00784735
v -0.00748590 -0.05002294 0.00047496
v -0.00777695 -0.04961631 0.00047496
v -0.00798277 -0.04932423 0.00047496
v -0.00819066 -0.04895196 -0.00088098
v -0.00819066 -0.04895196 0.00047496
v -0.00260659 -0.01368399 0.00047496
v -0.00008897 0.00315392 -0.00796627
v -0.00008897 0.00421345 -0.00865424
v -0.00066900 0.00419054 -0.00868425
v -0.00097045 0.00416191 -0.00871426
v -0.00183114 0.00385837 -0.00900767
v -0.00223861 0.00365791 -0.00900767
v -0.00252967 0.00345174 -0.00900767
v -0.00288309 0.00316538 -0.00900767
v -0.00317206 0.00287902 -0.00900767
v -0.00341114 0.00258693 -0.00900767
v -0.00370220 0.00215167 -0.00900767
v -0.00388099 0.00187676 -0.00958894
v -0.00371259 0.00216885 -0.00958894
v -0.00342362 0.00260411 -0.00958894
v -0.00318662 0.00289047 -0.01016911
v -0.00283112 0.00311956 -0.01057588
v 0.00223114 -0.01122130 -0.01086708
v 0.00339120 -0.00077492 -0.01087930
v 0.00977774 -0.03386084 -0.01017800
v 0.00687552 -0.03792141 -0.01017911
v 0.00397330 -0.03850558 -0.01015243
v 0.00339120 -0.03850558 -0.01014688
v -0.00240493 0.00330283 -0.01065924
v -0.00183114 0.00329138 -0.01083040
v -0.00125111 0.00329138 -0.01087819
v -0.00066900 0.00329138 -0.01087930
v -0.00633208 -0.05112829 -0.00824635
v -0.00669589 -0.05091638 -0.00784735
v -0.00357330 -0.05243409 -0.00841862
v -0.00241117 -0.05243409 -0.00847864
v -0.00241117 -0.05290944 -0.00830748
v -0.00299120 -0.05289799 -0.00830303
v -0.00528220 -0.05185564 -0.00828525
v -0.00413254 -0.05245699 -0.00829747
v -0.00473336 -0.05226800 -0.00825080
v -0.00573542 -0.05166092 -0.00823190
v -0.00698279 -0.05063002 0.00047496
v -0.00688716 -0.05072739 0.00047496
v -0.00241117 -0.01366680 0.00047496
v 0.00048897 0.00314247 -0.00798183
v 0.00048897 0.00420200 -0.00866869
v 0.00281117 -0.01365535 0.00047496
v -0.00008897 0.00428218 -0.00900767
v -0.00066900 0.00423063 -0.00900767
v -0.00099748 0.00417336 -0.00900767
v -0.00128853 0.00407600 -0.00900767
v -0.00183114 0.00388700 -0.00958894
v -0.00254214 0.00346892 -0.00958894
v -0.00225109 0.00366364 -0.00958894
v -0.00289556 0.00317683 -0.00958894
v -0.00318662 0.00289047 -0.00958894
v -0.00289556 0.00317683 -0.01016911
v -0.00254214 0.00346892 -0.01016911
v -0.00220743 0.00363501 -0.01053587
v 0.00339120 0.00038769 -0.01087930
v 0.01035777 -0.03327667 -0.01013354
v 0.01035777 -0.03386084 -0.01013243
v 0.01035777 -0.03443929 -0.01010464
v 0.00687552 -0.03850558 -0.01015243
v -0.00183114 0.00373237 -0.01062145
v -0.00121785 0.00389846 -0.01063924
v -0.00066900 0.00386982 -0.01073704
v -0.00008897 0.00386982 -0.01077705
v 0.00106900 0.00329138 -0.01087930
v -0.00640692 -0.05119701 -0.00784735
v -0.00609300 -0.05148910 -0.00784735
v -0.00650255 -0.05110538 0.00047496
v -0.00669589 -0.05091638 0.00047496
v -0.00357330 -0.05282926 -0.00824746
v 0.00455333 -0.05243409 -0.00847864
v 0.00455333 -0.05290944 -0.00830748
v -0.00241117 -0.05309271 -0.00784735
v -0.00299120 -0.05307553 -0.00784735
v -0.00392465 -0.05275481 -0.00817633
v -0.00506599 -0.05217636 -0.00817522
v 0.00106900 0.00307374 -0.00805741
v 0.00084240 0.00417909 -0.00869759
v 0.01035777 -0.01541359 0.00047496
v 0.01059477 -0.01547659 0.00047496
v 0.01071535 -0.01551096 0.00047496
v 0.00048897 0.00425354 -0.00900767
v -0.00008897 0.00429936 -0.00958894
v -0.00066900 0.00424209 -0.00958894
v -0.00102243 0.00417909 -0.00958894
v -0.00131140 0.00409318 -0.00958894
v -0.00183114 0.00388700 -0.01016911
v -0.00225109 0.00366364 -0.01016911
v -0.00100164 0.00417336 -0.01048141
v 0.00281117 0.00155031 -0.01087930
v 0.00339120 0.00096614 -0.01087819
v 0.01035777 -0.01645021 -0.01013354
v 0.01073406 -0.03327667 -0.00998350
v 0.01073198 -0.03386084 -0.00998350
v 0.01072783 -0.03443929 -0.00997238
v 0.01070704 -0.03501773 -0.00994015
v 0.01067585 -0.03538427 -0.00990459
v 0.01035777 -0.03501773 -0.01003018
v 0.00861769 -0.05069302 -0.00836972
v 0.00861769 -0.05011458 -0.00844196
v 0.00745555 -0.03850558 -0.01006130
v 0.00513336 -0.05243409 -0.00847752
v -0.00066900 0.00420200 -0.01052809
v -0.00008897 0.00423063 -0.01056699
v 0.00048897 0.00386982 -0.01075705
v 0.00165111 0.00329138 -0.01085374
v 0.00223114 0.00271293 -0.01087597
v 0.00165111 0.00271293 -0.01087930
v -0.00640692 -0.05119701 0.00047496
v -0.00580194 -0.05170673 -0.00784735
v -0.00609300 -0.05148910 0.00047496
v -0.00357330 -0.05293235 -0.00784735
v 0.00513336 -0.05290371 -0.00830637
v 0.00513336 -0.05308698 -0.00784735
v 0.00455333 -0.05309271 -0.00784735
v 0.00803558 -0.05387161 -0.00576900
v 0.00803558 -0.05396897 -0.00547892
v 0.00803558 -0.05410069 -0.00494544
v -0.00299120 -0.05307553 0.00047496
v 0.00803558 -0.05417514 -0.00436416
v 0.00803558 -0.05420951 -0.00378400
v -0.00424688 -0.05264026 -0.00784735
v -0.00473336 -0.05239399 -0.00784735
v -0.00508886 -0.05218782 -0.00784735
v -0.00537784 -0.05199309 -0.00784735
v 0.00165111 0.00374382 -0.00859422
v 0.00165111 0.00393855 -0.00900767
v 0.00119166 0.00410463 -0.00900767
v 0.00090269 0.00419054 -0.00900767
v 0.00206898 0.00365791 -0.00864868
v 0.01079851 -0.01586604 0.00047496
v 0.01071535 -0.01551096 -0.00958894
v 0.00401280 0.00155031 -0.00958894
v 0.00398578 0.00155031 -0.00900767
v 0.00377996 0.00201994 -0.00900767
v 0.00374254 0.00195121 -0.00865757
v 0.00323735 0.00259266 -0.00862757
v 0.00269267 0.00314247 -0.00862534
v 0.00048897 0.00427073 -0.00958894
v -0.00008897 0.00429936 -0.01016911
v -0.00066900 0.00424209 -0.01016911
v -0.00102243 0.00417909 -0.01016911
v -0.00131140 0.00409318 -0.01016911
v 0.00281117 0.00212876 -0.01087486
v 0.00339120 0.00155031 -0.01084374
v 0.01035777 -0.01586604 -0.01010464
v 0.01072367 -0.01586604 -0.00997238
v 0.01073406 -0.01645021 -0.00998350
v 0.01081722 -0.03386084 -0.00958894
v 0.01081306 -0.03443929 -0.00958894
v 0.01079227 -0.03501773 -0.00958894
v 0.01073198 -0.03558472 -0.00960006
v 0.01071327 -0.03618035 -0.00941223
v 0.01008751 -0.04415831 -0.00816744
v 0.00949709 -0.04873433 -0.00815299
v 0.00905011 -0.05069302 -0.00825635
v 0.00898566 -0.05115692 -0.00820300
v 0.00559489 -0.05284644 -0.00824968
v 0.00048897 0.00421345 -0.01054810
v 0.00107108 0.00391564 -0.01065257
v 0.00165111 0.00377246 -0.01064368
v 0.00226232 0.00333147 -0.01068925
v 0.00286730 0.00276447 -0.01070592
v -0.00566057 -0.05180409 0.00047496
v -0.00580194 -0.05170673 0.00047496
v -0.00357330 -0.05293235 0.00047496
v -0.00382694 -0.05282353 0.00047496
v -0.00405354 -0.05272617 0.00047496
v 0.00851582 -0.05339625 -0.00652143
v 0.00803558 -0.05343634 -0.00658144
v 0.00803558 -0.05370552 -0.00610576
v 0.00845553 -0.05394606 -0.00540112
v 0.00853661 -0.05399761 -0.00494544
v 0.00803558 -0.05420951 0.00047496
v 0.00855740 -0.05403197 -0.00436416
v 0.00856156 -0.05404915 -0.00378400
v -0.00424688 -0.05264026 0.00047496
v -0.00457120 -0.05247990 0.00047496
v -0.00473336 -0.05239399 0.00047496
v -0.00508886 -0.05218782 0.00047496
v -0.00518449 -0.05212482 0.00047496
v 0.00214798 0.00370373 -0.00900767
v 0.00165111 0.00396718 -0.00958894
v 0.00122077 0.00412754 -0.00958894
v 0.00092971 0.00420200 -0.00958894
v 0.00243696 0.00352046 -0.00900767
v 0.01079851 -0.01586604 -0.00958894
v 0.01081930 -0.01645021 0.00047496
v 0.01069248 -0.01553387 -0.00993348
v 0.00401072 0.00155031 -0.01016911
v 0.00379036 0.00203712 -0.01016911
v 0.00379036 0.00203712 -0.00958894
v 0.00362404 0.00232921 -0.00958894
v 0.00360949 0.00231203 -0.00900767
v 0.00332051 0.00269002 -0.00900767
v 0.00308143 0.00298211 -0.00900767
v 0.00279246 0.00322837 -0.00900767
v 0.00048897 0.00427073 -0.01016911
v 0.00342654 0.00215167 -0.01068036
v 0.00384649 0.00155031 -0.01063479
v 0.01081722 -0.01645021 -0.00958894
v 0.01081930 -0.03501773 -0.00900767
v 0.01081722 -0.03560190 -0.00900767
v 0.01079435 -0.03618035 -0.00900767
v 0.01066754 -0.03898094 -0.00816744
v 0.01038480 -0.04198771 -0.00784735
v 0.01031412 -0.04256615 -0.00784735
v 0.01016235 -0.04372877 -0.00784735
v 0.00970706 -0.04721090 -0.00784735
v 0.00950124 -0.04876869 -0.00784735
v 0.00909585 -0.05185564 -0.00726608
v 0.00922058 -0.05069302 -0.00784735
v 0.00900022 -0.05185564 -0.00773621
v 0.00895448 -0.05223363 -0.00762062
v 0.00861769 -0.05154064 -0.00811965
v 0.00861769 -0.05286935 -0.00712715
v 0.00861769 -0.05185564 -0.00794516
v 0.00861769 -0.05230809 -0.00767286
v 0.00861769 -0.05260017 -0.00741723
v 0.00087982 0.00418481 -0.01050253
v 0.00208769 0.00366937 -0.01056477
v 0.00271138 0.00316538 -0.01059589
v 0.00325606 0.00260984 -0.01059367
v 0.00867382 -0.05318435 -0.00670370
v 0.00890458 -0.05329889 -0.00624468
v 0.00882558 -0.05360243 -0.00494544
v 0.00856156 -0.05404915 0.00047496
v 0.00884637 -0.05360243 -0.00436416
v 0.00885261 -0.05360243 -0.00378400
v 0.00216253 0.00371519 -0.00958894
v 0.00245359 0.00353764 -0.00958894
v 0.00165111 0.00396718 -0.01016911
v 0.00122077 0.00412182 -0.01016911
v 0.00092971 0.00420200 -0.01016911
v 0.01081930 -0.01645021 -0.00900767
v 0.01081930 -0.03501773 0.00047496
v 0.00375293 0.00196840 -0.01055366
v 0.00362404 0.00232921 -0.01016911
v 0.00333506 0.00270147 -0.00958894
v 0.00309598 0.00299356 -0.00958894
v 0.00280493 0.00324556 -0.00958894
v 0.01081099 -0.03618035 -0.00842751
v 0.01079851 -0.03675879 -0.00842751
v 0.01081722 -0.03560190 -0.00088098
v 0.01072159 -0.03850558 -0.00784735
v 0.01067585 -0.03907257 -0.00784735
v 0.01064675 -0.03936466 -0.00784735
v 0.01044717 -0.04140354 -0.00726608
v 0.01038480 -0.04198771 0.00047496
v 0.01036193 -0.04218243 0.00047496
v 0.01050538 -0.04082509 -0.00726608
v 0.01028917 -0.04276088 0.00047496
v 0.01031412 -0.04256615 0.00047496
v 0.01001059 -0.04489139 -0.00726608
v 0.00930166 -0.05030930 0.00047496
v 0.00917485 -0.05127719 -0.00726608
v 0.00902308 -0.05243409 -0.00668592
v 0.00894616 -0.05290371 -0.00668592
v 0.00893369 -0.05277772 -0.00703713
v 0.00898150 -0.05242836 -0.00724496
v 0.00216253 0.00371519 -0.01016911
v 0.00245359 0.00353764 -0.01016911
v 0.00309598 0.00299356 -0.01016911
v 0.00280493 0.00324556 -0.01016911
v 0.00333506 0.00270147 -0.01016911
v 0.00890666 -0.05331034 -0.00585791
v 0.00885261 -0.05360243 0.00047496
v 0.00890874 -0.05331034 -0.00552448
v 0.01081514 -0.03560190 0.00047496
v 0.01081099 -0.03618035 -0.00494544
v 0.01077980 -0.03734297 -0.00784735
v 0.01075485 -0.03792141 -0.00784735
v 0.01079851 -0.03675879 -0.00726608
v 0.01081306 -0.03579663 0.00047496
v 0.01080891 -0.03618035 -0.00204241
v 0.01072159 -0.03850558 0.00047496
v 0.01070704 -0.03869458 0.00047496
v 0.01074446 -0.03811613 0.00047496
v 0.01067585 -0.03907257 0.00047496
v 0.01063843 -0.03946202 0.00047496
v 0.01044717 -0.04140354 0.00047496
v 0.01050538 -0.04082509 0.00047496
v 0.01001059 -0.04489139 0.00047496
v 0.00890874 -0.05331034 0.00047496
v 0.01077980 -0.03734297 0.00047496
v 0.01077149 -0.03753769 0.00047496
v 0.01075485 -0.03792141 0.00047496
v 0.01080683 -0.03618035 -0.00030082
f 3 4 1
f 260 314 261
f 300 314 260
f 17 34 35
f 56 35 34
f 45 70 46
f 52 78 79
f 33 16 32
f 2 3 1
f 302 303 245
f 302 300 260
f 245 300 302
f 314 300 348
f 18 7 17
f 71 46 70
f 44 65 66
f 57 65 44
f 74 75 47
f 47 46 74
f 26 46 47
f 45 46 25
f 25 46 26
f 207 206 262
f 207 170 206
f 263 207 262
f 208 207 263
f 356 317 316
f 316 355 356
f 262 315 316
f 316 263 262
f 115 79 78
f 52 84 85
f 52 32 31
f 31 32 16
f 16 30 31
f 9 6 16
f 250 194 249
f 246 247 194
f 246 194 245
f 245 303 246
f 22 16 33
f 19 9 22
f 22 9 16
f 7 18 8
f 21 10 8
f 8 10 4
f 4 3 8
f 8 2 7
f 3 2 8
f 17 35 36
f 36 18 17
f 35 56 36
f 36 57 44
f 56 57 36
f 4 10 11
f 11 25 26
f 21 23 11
f 11 10 21
f 38 56 34
f 38 34 17
f 313 302 260
f 107 71 106
f 46 71 72
f 72 107 109
f 71 107 72
f 260 261 205
f 102 66 65
f 12 13 4
f 26 27 12
f 4 11 12
f 12 11 26
f 391 389 358
f 358 356 385
f 400 391 385
f 385 391 358
f 264 316 317
f 263 316 264
f 208 263 264
f 388 357 387
f 368 397 381
f 233 288 234
f 285 338 286
f 288 233 286
f 286 231 285
f 286 233 231
f 282 338 285
f 156 115 153
f 154 115 156
f 124 85 84
f 81 82 52
f 83 84 52
f 52 82 83
f 120 82 119
f 87 88 52
f 40 22 33
f 41 22 40
f 248 307 249
f 249 194 248
f 194 247 248
f 247 246 248
f 306 307 248
f 251 250 309
f 251 299 243
f 243 194 251
f 194 250 251
f 309 250 308
f 308 307 306
f 249 307 308
f 308 250 249
f 18 36 20
f 21 8 20
f 20 8 18
f 39 36 44
f 44 23 39
f 39 23 21
f 21 20 39
f 39 20 36
f 23 25 24
f 24 11 23
f 25 11 24
f 56 38 60
f 19 22 37
f 37 38 17
f 304 246 303
f 336 351 350
f 350 312 336
f 313 312 350
f 351 304 350
f 350 304 303
f 303 302 350
f 302 313 350
f 181 142 179
f 74 46 73
f 46 72 73
f 94 131 95
f 260 205 259
f 325 327 326
f 330 328 327
f 65 57 96
f 96 102 65
f 96 136 102
f 112 75 74
f 75 50 49
f 49 50 27
f 27 50 28
f 28 12 27
f 13 12 28
f 400 385 399
f 384 385 356
f 398 399 384
f 384 399 385
f 266 267 210
f 266 264 317
f 208 264 209
f 209 172 208
f 210 172 209
f 382 357 349
f 387 357 382
f 401 387 398
f 398 388 401
f 401 388 387
f 398 386 383
f 383 388 398
f 357 388 383
f 358 389 390
f 359 390 392
f 358 390 359
f 320 319 363
f 267 319 320
f 229 282 285
f 372 371 338
f 327 373 372
f 288 341 289
f 234 288 289
f 379 341 338
f 288 286 339
f 339 341 288
f 339 286 338
f 338 341 339
f 114 115 78
f 114 153 115
f 192 154 156
f 190 154 194
f 115 154 155
f 122 83 82
f 52 79 80
f 80 81 52
f 79 81 80
f 159 199 160
f 243 299 295
f 295 240 243
f 58 37 41
f 38 37 58
f 59 60 38
f 38 58 59
f 59 58 41
f 42 22 41
f 41 37 42
f 42 37 22
f 197 158 196
f 159 158 197
f 120 119 161
f 161 160 199
f 119 160 161
f 306 248 305
f 305 248 246
f 246 304 305
f 222 181 179
f 151 108 152
f 108 142 152
f 277 278 223
f 223 238 277
f 277 238 237
f 131 94 134
f 95 131 134
f 171 132 170
f 208 172 171
f 171 207 208
f 170 207 171
f 237 238 189
f 236 237 189
f 189 238 223
f 223 180 189
f 180 150 189
f 290 235 281
f 102 136 135
f 136 96 135
f 211 172 210
f 77 76 50
f 77 112 113
f 77 50 75
f 75 112 77
f 48 47 75
f 75 49 48
f 48 49 27
f 26 47 48
f 48 27 26
f 264 266 265
f 265 209 264
f 265 266 210
f 210 209 265
f 396 367 365
f 368 367 396
f 322 367 368
f 363 319 362
f 393 359 392
f 358 359 318
f 318 356 358
f 318 317 356
f 318 319 267
f 318 266 317
f 267 266 318
f 366 320 363
f 365 320 366
f 365 367 321
f 321 320 365
f 367 322 321
f 291 292 236
f 236 235 291
f 291 235 290
f 282 229 284
f 285 231 230
f 230 229 285
f 327 332 331
f 329 332 327
f 327 372 329
f 342 289 341
f 342 379 381
f 341 379 342
f 194 154 193
f 154 192 193
f 239 194 243
f 239 190 194
f 243 240 191
f 191 239 243
f 191 155 154
f 154 190 191
f 190 239 191
f 79 115 116
f 115 155 116
f 85 124 125
f 121 82 120
f 121 122 82
f 120 162 121
f 121 162 122
f 309 354 310
f 310 251 309
f 299 251 310
f 344 295 299
f 299 310 344
f 344 310 354
f 353 354 309
f 242 297 298
f 240 295 296
f 296 297 240
f 176 139 138
f 176 138 175
f 336 312 276
f 375 377 335
f 336 276 335
f 335 276 275
f 335 377 376
f 335 376 336
f 159 197 198
f 198 199 159
f 120 161 163
f 163 162 120
f 142 181 182
f 182 152 142
f 294 237 293
f 294 277 237
f 205 169 204
f 204 259 205
f 133 134 94
f 94 132 133
f 132 171 133
f 173 134 133
f 133 172 173
f 133 171 172
f 188 235 236
f 236 189 188
f 108 71 101
f 101 71 70
f 101 142 108
f 172 211 212
f 215 173 212
f 212 211 210
f 369 368 381
f 369 322 368
f 364 393 395
f 359 393 364
f 364 361 319
f 282 284 283
f 282 329 337
f 337 329 372
f 338 282 337
f 337 372 338
f 242 191 241
f 241 191 240
f 241 297 242
f 240 297 241
f 155 191 195
f 195 191 242
f 118 81 79
f 82 81 118
f 118 158 159
f 159 160 118
f 118 119 82
f 118 160 119
f 85 125 86
f 127 126 86
f 86 125 127
f 52 85 86
f 86 87 52
f 86 126 88
f 88 87 86
f 123 124 84
f 84 83 123
f 83 122 123
f 378 351 336
f 336 376 378
f 297 296 345
f 343 296 295
f 295 344 343
f 97 138 139
f 174 175 138
f 334 275 274
f 334 335 275
f 334 345 374
f 374 375 334
f 375 335 334
f 218 273 274
f 275 276 219
f 274 275 219
f 219 218 274
f 178 218 219
f 176 175 216
f 216 217 176
f 258 313 260
f 260 259 258
f 259 204 258
f 258 312 313
f 258 204 257
f 257 276 258
f 258 276 312
f 203 204 169
f 229 230 186
f 186 230 231
f 102 135 144
f 149 189 150
f 149 188 189
f 141 101 100
f 180 179 141
f 141 150 180
f 179 142 141
f 142 101 141
f 43 23 44
f 45 25 43
f 43 25 23
f 213 212 173
f 172 212 213
f 215 212 270
f 327 328 270
f 270 326 327
f 325 326 270
f 381 379 370
f 370 369 381
f 370 379 338
f 210 267 268
f 268 321 322
f 325 270 268
f 267 320 268
f 320 321 268
f 360 364 319
f 359 364 360
f 319 318 360
f 360 318 359
f 196 158 157
f 157 116 155
f 155 195 157
f 79 116 117
f 117 118 79
f 116 157 117
f 158 118 117
f 117 157 158
f 55 40 33
f 165 123 122
f 352 308 306
f 138 97 137
f 168 174 137
f 137 174 138
f 176 217 177
f 217 218 177
f 177 139 176
f 177 140 139
f 178 140 177
f 177 218 178
f 139 140 98
f 98 97 139
f 59 97 98
f 175 174 202
f 202 216 175
f 202 174 168
f 202 200 256
f 168 200 202
f 217 216 253
f 196 157 252
f 252 157 195
f 242 298 252
f 252 195 242
f 347 298 297
f 201 168 167
f 201 200 168
f 178 219 220
f 220 276 257
f 220 219 276
f 231 233 187
f 187 186 231
f 187 233 234
f 187 146 186
f 184 173 215
f 148 149 104
f 188 149 183
f 183 149 148
f 146 187 183
f 282 283 226
f 226 283 284
f 226 284 229
f 44 69 63
f 63 43 44
f 45 43 64
f 100 101 64
f 43 63 64
f 64 70 45
f 64 101 70
f 64 69 100
f 64 63 69
f 173 172 214
f 214 213 173
f 172 213 214
f 269 212 210
f 269 270 212
f 210 268 269
f 269 268 270
f 338 371 324
f 324 370 338
f 369 370 324
f 324 372 373
f 371 372 324
f 324 327 325
f 324 373 327
f 325 268 324
f 322 369 323
f 323 268 322
f 369 324 323
f 323 324 268
f 54 90 91
f 89 90 54
f 54 53 89
f 54 55 33
f 32 53 54
f 33 32 54
f 62 59 41
f 62 97 59
f 164 165 122
f 122 162 164
f 124 123 128
f 123 165 128
f 128 125 124
f 127 125 128
f 255 202 256
f 216 202 254
f 254 253 216
f 202 255 254
f 297 345 346
f 346 347 297
f 272 253 311
f 217 253 272
f 273 218 272
f 272 218 217
f 221 220 203
f 178 220 221
f 235 188 225
f 188 183 225
f 225 183 187
f 279 280 225
f 225 280 281
f 225 281 235
f 147 149 150
f 147 104 149
f 44 66 67
f 148 104 143
f 143 183 148
f 102 146 143
f 146 183 143
f 185 184 215
f 215 226 185
f 271 329 282
f 282 226 271
f 332 329 271
f 271 331 332
f 271 330 327
f 327 331 271
f 328 330 271
f 271 270 328
f 215 270 271
f 271 226 215
f 129 166 130
f 168 137 130
f 130 166 167
f 167 168 130
f 61 62 41
f 41 40 61
f 40 55 61
f 274 273 333
f 273 272 333
f 333 334 274
f 345 334 333
f 333 346 345
f 347 346 333
f 311 347 333
f 333 272 311
f 100 69 68
f 68 67 100
f 68 69 44
f 44 67 68
f 100 67 105
f 105 147 150
f 104 147 105
f 105 67 104
f 150 141 105
f 105 141 100
f 104 67 103
f 102 143 103
f 103 143 104
f 66 102 103
f 103 67 66
f 102 144 145
f 145 146 102
f 186 146 145
f 229 186 228
f 55 54 93
f 93 61 55
f 62 61 93
f 227 226 229
f 229 228 227
f 227 228 185
f 227 185 226
f 92 93 54
f 92 54 91
f 92 91 129
f 129 130 92
f 62 93 99
f 93 92 99
f 99 92 130
f 97 62 99
f 99 137 97
f 99 130 137
f 14 5 1
f 1 4 14
f 206 261 314
f 206 314 262
f 1 5 6
f 5 15 6
f 15 30 6
f 6 30 16
f 301 349 348
f 349 315 348
f 262 314 348
f 348 315 262
f 301 348 244
f 244 348 300
f 244 300 245
f 245 194 244
f 151 106 71
f 71 108 151
f 53 32 52
f 52 88 53
f 1 6 9
f 9 2 1
f 7 2 9
f 9 19 7
f 261 206 205
f 206 170 205
f 29 14 4
f 4 13 29
f 357 315 349
f 357 316 315
f 7 19 37
f 17 7 37
f 278 180 223
f 278 224 180
f 73 110 111
f 73 111 74
f 109 110 73
f 73 72 109
f 94 57 56
f 95 57 94
f 111 113 112
f 74 111 112
f 28 76 51
f 50 76 28
f 51 29 28
f 28 29 13
f 384 386 398
f 356 386 384
f 383 386 356
f 356 355 383
f 316 357 383
f 355 316 383
f 293 237 292
f 292 237 236
f 289 340 287
f 289 287 234
f 305 304 351
f 305 351 306
f 180 224 222
f 222 179 180
f 134 57 95
f 134 96 57
f 169 205 170
f 170 132 169
f 96 134 135
f 135 134 173
f 394 362 361
f 361 362 319
f 342 380 340
f 340 289 342
f 397 380 342
f 381 397 342
f 126 53 88
f 89 53 126
f 377 344 354
f 375 344 377
f 353 377 354
f 376 377 353
f 280 349 301
f 301 244 280
f 5 14 280
f 280 232 287
f 280 78 52
f 280 380 397
f 280 15 5
f 52 31 280
f 389 391 280
f 287 340 280
f 280 106 151
f 280 113 111
f 111 110 280
f 280 396 365
f 280 114 78
f 280 107 106
f 156 153 280
f 397 368 280
f 14 29 280
f 280 399 398
f 280 279 232
f 280 30 15
f 280 244 194
f 151 152 280
f 280 110 109
f 51 76 280
f 398 387 280
f 395 393 280
f 280 390 389
f 280 382 349
f 340 380 280
f 280 31 30
f 280 222 224
f 109 107 280
f 280 29 51
f 280 391 400
f 280 77 113
f 363 362 280
f 280 182 181
f 293 292 280
f 280 192 156
f 224 278 280
f 280 294 293
f 400 399 280
f 387 382 280
f 392 390 280
f 280 394 395
f 280 366 363
f 153 114 280
f 280 291 290
f 181 222 280
f 194 193 280
f 278 277 280
f 290 281 280
f 76 77 280
f 368 396 280
f 280 362 394
f 280 393 392
f 365 366 280
f 292 291 280
f 280 193 192
f 152 182 280
f 277 294 280
f 395 394 364
f 394 361 364
f 343 345 296
f 374 345 343
f 343 344 375
f 343 375 374
f 200 161 199
f 199 256 200
f 89 126 90
f 90 126 127
f 306 351 352
f 351 378 352
f 376 353 352
f 352 378 376
f 309 308 352
f 352 353 309
f 311 253 252
f 252 253 196
f 311 252 347
f 347 252 298
f 162 163 201
f 167 162 201
f 161 200 201
f 201 163 161
f 204 203 220
f 257 204 220
f 287 232 187
f 234 287 187
f 184 135 173
f 184 144 135
f 129 165 164
f 164 166 129
f 164 162 167
f 167 166 164
f 128 165 129
f 129 91 128
f 128 90 127
f 91 90 128
f 255 256 199
f 199 198 255
f 196 253 254
f 254 197 196
f 254 255 198
f 254 198 197
f 221 94 56
f 56 60 221
f 221 132 94
f 60 59 221
f 221 169 132
f 221 203 169
f 221 140 178
f 59 98 221
f 221 98 140
f 232 279 225
f 225 187 232
f 144 184 145
f 184 185 145
f 228 145 185
f 186 145 228

