# https://github.com/mikedh/trimesh
v -0.01081930 0.01644741 -0.00472123
v -0.01080723 0.01609107 -0.00472123
v -0.01080623 0.01605996 0.00047496
v -0.01081930 0.01644741 0.00047496
v -0.01081930 0.03502231 -0.00472123
v -0.01079919 0.01586482 -0.00472123
v -0.01079919 0.01586482 0.00047496
v -0.01081930 0.03502231 0.00047496
v -0.01081628 0.03560206 -0.00472123
v -0.01074790 0.01564705 -0.00472123
v -0.01071471 0.01550848 0.00047496
v -0.01081628 0.03560206 0.00047496
v -0.01080924 0.03618182 -0.00472123
v -0.01071471 0.01550848 -0.00472123
v -0.01035869 0.01541232 0.00047496
v -0.01081327 0.03579720 0.00047496
v -0.01080924 0.03618182 -0.00262211
v -0.01079516 0.03676441 -0.00472123
v -0.01035869 0.01541232 -0.00472123
v -0.00977839 0.01538687 -0.00472123
v -0.00803650 0.01539536 -0.00472123
v -0.00803650 0.01541515 -0.00436316
v -0.01021487 0.01543495 0.00047496
v -0.01080220 0.03637696 0.00047496
v -0.01080723 0.03618182 -0.00030071
v -0.01078913 0.03695955 0.00047496
v -0.01079516 0.03676441 -0.00436316
v -0.01078913 0.03698500 -0.00472123
v -0.00784441 0.01542646 -0.00472123
v -0.00753566 0.01549434 -0.00436316
v -0.00992824 0.01548020 0.00047496
v -0.01077907 0.03734417 0.00047496
v -0.01077907 0.03734417 -0.00146141
v -0.01077807 0.03734417 -0.00472123
v -0.00751554 0.01548585 -0.00472123
v -0.00513000 0.01688293 0.00047496
v -0.01077103 0.03753931 0.00047496
v -0.01075494 0.03792393 -0.00472123
v -0.00574550 0.01711483 -0.00472123
v -0.00513000 0.01688293 -0.00088106
v -0.00054497 0.03581700 0.00047496
v -0.01075494 0.03792393 0.00047496
v -0.01072275 0.03850369 -0.00472123
v -0.00513000 0.01701868 -0.00145683
v -0.00544680 0.01760975 -0.00472123
v -0.00054497 0.03592447 -0.00472123
v -0.00054497 0.03736679 0.00047496
v -0.01074387 0.03811907 0.00047496
v -0.01072275 0.03850369 -0.00378281
v -0.01067548 0.03907496 -0.00472123
v -0.00054497 0.03738376 -0.00472123
v -0.00054497 0.03738093 -0.00372838
v -0.00688396 0.04427865 0.00047496
v -0.01072175 0.03850369 0.00047496
v -0.01070666 0.03869600 0.00047496
v -0.01067548 0.03907496 0.00047496
v -0.01065939 0.03925313 -0.00472123
v -0.00054497 0.03738376 -0.00468716
v -0.00688094 0.04427865 -0.00472123
v -0.00688094 0.04427865 -0.00375076
v -0.01009117 0.04427865 0.00047496
v -0.01061916 0.03966603 0.00047496
v -0.01061916 0.03966603 -0.00472123
v -0.01009117 0.04427865 -0.00472123
v -0.01028929 0.04276279 0.00047496
v -0.01048641 0.04102069 0.00047496
v -0.01050552 0.04082555 -0.00472123
v -0.01031443 0.04256765 -0.00472123
v -0.01031443 0.04256765 0.00047496
v -0.01044819 0.04140531 -0.00472123
v -0.01044819 0.04140531 0.00047496
v -0.01035869 0.04221131 -0.00472123
v -0.01038584 0.04198789 0.00047496
v -0.01038584 0.04198789 -0.00472123
f 36 40 41
f 41 40 46
f 53 47 52
f 45 46 44
f 44 46 40
f 53 52 58
f 58 60 53
f 1 3 4
f 40 36 35
f 39 44 40
f 40 35 39
f 45 44 39
f 15 22 23
f 23 22 31
f 31 22 30
f 36 31 30
f 30 35 36
f 61 64 65
f 66 63 62
f 73 69 72
f 72 74 73
f 70 66 71
f 26 17 24
f 16 17 12
f 15 19 20
f 34 28 33
f 28 32 33
f 27 28 18
f 27 32 28
f 26 32 27
f 27 17 26
f 57 56 62
f 62 63 57
f 50 56 57
f 49 48 54
f 42 48 49
f 34 33 38
f 69 65 68
f 68 72 69
f 68 65 64
f 63 66 67
f 66 70 67
f 16 24 25
f 25 17 16
f 25 24 17
f 21 30 22
f 21 22 15
f 15 20 21
f 11 7 10
f 10 14 11
f 56 49 55
f 55 49 54
f 42 38 37
f 37 33 32
f 37 38 33
f 35 30 29
f 30 21 29
f 6 10 7
f 6 7 3
f 2 3 1
f 2 6 3
f 58 47 41
f 41 46 58
f 58 46 51
f 58 52 47
f 51 59 58
f 59 60 58
f 64 61 53
f 53 60 64
f 64 60 59
f 5 4 8
f 1 4 5
f 70 71 73
f 73 74 70
f 13 9 12
f 12 17 13
f 12 5 8
f 12 9 5
f 15 11 14
f 14 19 15
f 27 18 13
f 13 17 27
f 50 43 49
f 49 56 50
f 38 49 43
f 42 49 38
f 41 47 37
f 53 61 37
f 37 36 41
f 37 47 53
f 37 31 36
f 37 4 3
f 37 66 62
f 15 23 37
f 62 56 37
f 37 11 15
f 8 4 37
f 3 7 37
f 37 7 11
f 61 65 37
f 54 48 37
f 26 24 37
f 37 32 26
f 37 69 73
f 73 71 37
f 37 23 31
f 37 55 54
f 37 48 42
f 37 65 69
f 37 12 8
f 71 66 37
f 37 24 16
f 16 12 37
f 56 55 37
f 51 46 2
f 2 46 45
f 2 57 63
f 2 59 51
f 2 64 59
f 2 9 13
f 45 39 2
f 1 5 2
f 63 67 2
f 13 18 2
f 2 28 34
f 2 39 35
f 35 29 2
f 34 38 2
f 18 28 2
f 5 9 2
f 2 68 64
f 2 43 50
f 74 72 2
f 2 70 74
f 2 20 19
f 19 14 2
f 50 57 2
f 2 38 43
f 72 68 2
f 2 67 70
f 2 21 20
f 14 10 2
f 2 29 21
f 10 6 2

