# https://github.com/mikedh/trimesh
v -0.00054497 0.03581968 0.00047496
v -0.00054497 0.03592718 -0.00472123
v 0.00777598 0.03331848 -0.00472123
v 0.00777598 0.03331848 -0.00378332
v 0.00778057 0.03331848 0.00047496
v -0.00054497 0.03736895 0.00047496
v -0.00054497 0.03738557 -0.00472123
v 0.00882630 0.03331848 -0.00472123
v 0.00882630 0.03331848 0.00047496
v 0.00789340 0.04463985 0.00047496
v -0.00054497 0.03738335 -0.00372838
v -0.00054497 0.03738557 -0.00468716
v 0.00788973 0.04463985 -0.00472123
v 0.00881896 0.04463985 -0.00472123
v 0.00881896 0.04463985 0.00047496
v 0.00788973 0.04463985 -0.00461595
f 1 2 3
f 4 5 1
f 1 3 4
f 11 6 10
f 12 11 10
f 16 12 10
f 8 14 15
f 15 9 8
f 5 6 1
f 5 15 10
f 10 6 5
f 9 15 5
f 4 3 8
f 8 9 4
f 9 5 4
f 8 3 13
f 13 14 8
f 13 3 2
f 2 7 13
f 1 6 12
f 12 7 2
f 12 2 1
f 6 11 12
f 10 15 16
f 16 15 14
f 14 13 16
f 16 13 7
f 7 12 16

