# https://github.com/mikedh/trimesh
v 0.00241299 0.05310228 0.00047496
v 0.00279889 0.05308654 0.00047496
v 0.00241299 0.05310228 -0.00472123
v -0.00054497 0.05310228 0.00047496
v 0.00299321 0.05307826 0.00047496
v 0.00299321 0.05307826 -0.00472123
v -0.00054497 0.05310228 -0.00472123
v -0.00054497 0.05201714 0.00047496
v 0.00337911 0.05298134 0.00047496
v 0.00357436 0.05293164 -0.00472123
v -0.00054497 0.05200140 -0.00472123
v -0.00054497 0.05200058 -0.00378332
v 0.00789351 0.04463985 0.00047496
v 0.00357436 0.05293164 0.00047496
v 0.00406933 0.05272124 -0.00472123
v -0.00054497 0.05200058 -0.00383825
v 0.00788984 0.04463985 -0.00472123
v 0.00788984 0.04463985 -0.00451880
v 0.00881930 0.04463985 0.00047496
v 0.00405558 0.05272704 0.00047496
v 0.00424716 0.05264503 0.00047496
v 0.00424716 0.05264503 -0.00472123
v 0.00881930 0.04463985 -0.00472123
v 0.00881930 0.04721436 0.00047496
v 0.00473389 0.05239736 0.00047496
v 0.00454690 0.05249262 -0.00472123
v 0.00881930 0.04721436 -0.00472123
v 0.00871755 0.04779504 0.00047496
v 0.00508862 0.05219110 0.00047496
v 0.00473389 0.05239736 -0.00472123
v 0.00875514 0.04757138 -0.00472123
v 0.00871755 0.04779504 0.00028015
v 0.00856173 0.04820093 0.00047496
v 0.00508862 0.05219110 -0.00472123
v 0.00537920 0.05199809 0.00047496
v 0.00871480 0.04779504 -0.00472123
v 0.00855898 0.04819513 -0.00472123
v 0.00842423 0.04848588 -0.00472123
v 0.00842607 0.04849002 -0.00030071
v 0.00842607 0.04849085 0.00028015
v 0.00842607 0.04849085 0.00047496
v 0.00537920 0.05199809 -0.00472123
v 0.00566060 0.05180509 0.00047496
v 0.00827941 0.04877498 -0.00472123
v 0.00818866 0.04895473 -0.00472123
v 0.00819049 0.04895473 -0.00146141
v 0.00826932 0.04879983 0.00047496
v 0.00580268 0.05170734 -0.00472123
v 0.00580268 0.05170734 0.00047496
v 0.00806217 0.04918335 -0.00472123
v 0.00798242 0.04932583 -0.00472123
v 0.00819049 0.04895473 0.00047496
v 0.00591451 0.05162450 -0.00472123
v 0.00589984 0.05163527 0.00047496
v 0.00790359 0.04943766 -0.00472123
v 0.00791367 0.04942358 0.00047496
v 0.00798242 0.04932583 0.00047496
v 0.00609233 0.05149114 0.00047496
v 0.00609233 0.05149114 -0.00472123
v 0.00777801 0.04961575 -0.00472123
v 0.00777801 0.04961575 0.00047496
v 0.00640674 0.05120122 0.00047496
v 0.00628574 0.05131304 -0.00472123
v 0.00759927 0.04986674 -0.00472123
v 0.00748744 0.05002330 0.00047496
v 0.00650390 0.05110679 0.00047496
v 0.00651856 0.05109270 -0.00472123
v 0.00640674 0.05120122 -0.00472123
v 0.00748744 0.05002330 -0.00472123
v 0.00741594 0.05012105 0.00047496
v 0.00669639 0.05091958 0.00047496
v 0.00669639 0.05091958 -0.00472123
v 0.00727387 0.05031405 -0.00472123
v 0.00727387 0.05031405 0.00047496
v 0.00688705 0.05072740 0.00047496
v 0.00687330 0.05074148 -0.00472123
v 0.00708137 0.05052363 0.00047496
v 0.00698329 0.05062966 -0.00472123
v 0.00698329 0.05062966 0.00047496
f 11 17 16
f 18 13 12
f 12 13 8
f 10 6 9
f 9 14 10
f 73 74 70
f 33 28 32
f 5 9 6
f 26 21 25
f 25 30 26
f 33 38 39
f 36 33 32
f 2 3 1
f 2 6 3
f 2 5 6
f 73 78 77
f 77 74 73
f 78 79 77
f 43 49 48
f 21 26 22
f 51 56 57
f 41 33 40
f 33 39 40
f 44 39 38
f 45 40 44
f 44 40 39
f 32 27 31
f 31 36 32
f 37 38 33
f 33 36 37
f 71 75 76
f 76 72 71
f 76 75 79
f 76 79 78
f 68 62 67
f 71 72 67
f 48 49 53
f 58 59 53
f 58 62 63
f 63 62 68
f 63 59 58
f 15 20 21
f 21 22 15
f 14 20 15
f 10 14 15
f 35 43 42
f 42 43 48
f 46 40 45
f 61 56 60
f 71 67 66
f 66 67 62
f 58 53 54
f 54 53 49
f 51 46 50
f 50 46 45
f 47 46 52
f 41 40 47
f 40 46 47
f 56 51 55
f 55 60 56
f 65 61 64
f 61 60 64
f 65 64 69
f 69 70 65
f 73 70 69
f 4 1 7
f 1 3 7
f 19 13 23
f 23 13 18
f 23 18 17
f 24 23 27
f 19 23 24
f 32 28 24
f 24 27 32
f 17 18 12
f 12 16 17
f 12 8 4
f 4 7 12
f 12 7 11
f 11 16 12
f 25 29 34
f 34 30 25
f 42 29 35
f 42 34 29
f 57 52 46
f 46 51 57
f 4 8 47
f 47 1 4
f 25 21 47
f 19 24 47
f 57 56 47
f 47 13 19
f 47 20 14
f 8 13 47
f 71 66 47
f 47 24 28
f 47 29 25
f 74 77 47
f 47 70 74
f 47 43 35
f 28 33 47
f 14 9 47
f 47 75 71
f 65 70 47
f 47 61 65
f 47 33 41
f 21 20 47
f 9 5 47
f 47 2 1
f 47 62 58
f 35 29 47
f 47 56 61
f 5 2 47
f 79 75 47
f 47 77 79
f 47 52 57
f 49 43 47
f 58 54 47
f 47 66 62
f 47 54 49
f 11 7 69
f 38 37 69
f 69 7 3
f 69 17 11
f 69 23 17
f 3 6 69
f 27 23 69
f 69 6 10
f 69 78 73
f 68 67 69
f 69 63 68
f 10 15 69
f 69 44 38
f 69 26 30
f 69 42 48
f 69 31 27
f 69 76 78
f 48 53 69
f 69 22 26
f 30 34 69
f 69 55 51
f 45 44 69
f 36 31 69
f 69 37 36
f 72 76 69
f 69 67 72
f 69 53 59
f 59 63 69
f 69 15 22
f 34 42 69
f 69 50 45
f 51 50 69
f 60 55 69
f 69 64 60

