# https://github.com/mikedh/trimesh
v 0.00006767 0.01740302 -0.00278743
v 0.00344944 0.00990641 -0.00278743
v 0.00203537 0.01247862 -0.00237936
v 0.00207077 0.01233391 -0.00223311
v 0.00207077 0.01233391 0.00182314
v 0.00011979 0.01779137 0.00182314
v 0.00011487 0.01781351 0.00182314
v 0.00007848 0.01800104 0.00182314
v 0.00007750 0.01802467 0.00182314
v 0.00007553 0.01829931 0.00182314
v 0.00006767 0.01800252 -0.00198890
v 0.00006767 0.01997966 -0.00278743
v 0.00405912 0.00990493 -0.00278743
v 0.00349566 0.00990493 -0.00254232
v 0.00351041 0.00990493 0.00182314
v 0.00007553 0.01853852 0.00182314
v 0.00006767 0.01853852 -0.00180519
v 0.00006767 0.01981281 -0.00230172
v 0.00007848 0.02444485 0.00179380
v 0.00007848 0.02444485 -0.00169595
v 0.00007848 0.02417611 -0.00250169
v 0.00007848 0.02390738 -0.00278743
v 0.01007433 0.00990493 -0.00278743
v 0.01011170 0.00990493 0.00182314
v 0.00006767 0.01891800 -0.00185349
v 0.00006767 0.01869651 -0.00180564
v 0.00007848 0.02417611 0.00182314
v 0.00006767 0.01954998 -0.00202772
v 0.00007947 0.02444485 0.00182314
v 0.00008832 0.02471359 0.00098806
v 0.00008242 0.02471359 0.00071993
v 0.00008045 0.02471359 0.00045135
v 0.00007947 0.02471359 0.00018277
v 0.00007947 0.02471359 -0.00008581
v 0.00008045 0.02471359 -0.00035440
v 0.00008045 0.02444485 -0.00196453
v 0.00008438 0.02417611 -0.00277027
v 0.00008438 0.02415840 -0.00278743
v 0.01007236 0.00993151 -0.00278743
v 0.01007925 0.00990493 -0.00272649
v 0.01011268 0.00990493 0.00179380
v 0.01011071 0.00991822 0.00182314
v 0.00011979 0.02465748 0.00182314
v 0.00010110 0.02471359 0.00125664
v 0.00012864 0.02488044 0.00098806
v 0.00012274 0.02488930 0.00071993
v 0.00012077 0.02489373 0.00045135
v 0.00011979 0.02489816 0.00018277
v 0.00011979 0.02489816 -0.00008581
v 0.00008242 0.02471359 -0.00062207
v 0.00008930 0.02471359 -0.00089066
v 0.00012077 0.02463386 -0.00196453
v 0.00009717 0.02444485 -0.00223311
v 0.00008635 0.02417759 -0.00278743
v 0.00012470 0.02436069 -0.00277027
v 0.01006941 0.00996695 -0.00278743
v 0.01009006 0.00990493 -0.00258069
v 0.01004975 0.01021649 -0.00277027
v 0.00998189 0.01102270 -0.00277027
v 0.01011366 0.00990493 -0.00169595
v 0.01010973 0.00994775 0.00152522
v 0.01009596 0.01011608 0.00179380
v 0.01004483 0.01075397 0.00182314
v 0.01008515 0.01024454 0.00182314
v 0.00027516 0.02475494 0.00182314
v 0.00015420 0.02485239 0.00142230
v 0.00014240 0.02486420 0.00125664
v 0.00029384 0.02494689 0.00071993
v 0.00029384 0.02496018 0.00045135
v 0.00029384 0.02496904 0.00018277
v 0.00029384 0.02496904 -0.00008581
v 0.00012077 0.02489373 -0.00035440
v 0.00012274 0.02488930 -0.00062207
v 0.00012962 0.02487897 -0.00089066
v 0.00013749 0.02460432 -0.00223311
v 0.00014437 0.02486273 -0.00115924
v 0.00015617 0.02485091 -0.00131677
v 0.00012667 0.02435773 -0.00278743
v 0.00015519 0.02458365 -0.00237846
v 0.00997894 0.01104042 -0.00278743
v 0.01006843 0.01021649 -0.00250169
v 0.01008613 0.01000238 -0.00250169
v 0.01009400 0.00990493 -0.00250169
v 0.01000156 0.01102270 -0.00250169
v 0.00995829 0.01129144 -0.00277027
v 0.01011071 0.00990493 -0.00196453
v 0.01009498 0.01010427 -0.00196453
v 0.01006745 0.01048523 -0.00169595
v 0.01004581 0.01075397 0.00152522
v 0.01002418 0.01102270 0.00179380
v 0.01000156 0.01129144 0.00182314
v 0.00029384 0.02476232 0.00182314
v 0.00029384 0.02482581 0.00159203
v 0.00029384 0.02485977 0.00145796
v 0.00029384 0.02488930 0.00125664
v 0.00029384 0.02492474 0.00098806
v 0.00056230 0.02496461 0.00071993
v 0.00056230 0.02498085 0.00045135
v 0.00056230 0.02498971 0.00018277
v 0.00056230 0.02498971 -0.00008581
v 0.00029384 0.02496018 -0.00035440
v 0.00029384 0.02494689 -0.00062207
v 0.00029384 0.02492327 -0.00089066
v 0.00029384 0.02488635 -0.00115924
v 0.00029384 0.02485830 -0.00135379
v 0.00029384 0.02482581 -0.00148785
v 0.00029384 0.02470916 -0.00196453
v 0.00029384 0.02442713 -0.00278743
v 0.00029384 0.02464124 -0.00223311
v 0.00029384 0.02458956 -0.00239697
v 0.00029384 0.02443452 -0.00277027
v 0.00995633 0.01129144 -0.00278743
v 0.01009105 0.01005406 -0.00228863
v 0.01009596 0.00990493 -0.00245926
v 0.00997796 0.01129144 -0.00250169
v 0.00998878 0.01129144 -0.00223311
v 0.00993076 0.01155870 -0.00277027
v 0.00995141 0.01155870 -0.00250169
v 0.01010481 0.00990493 -0.00221641
v 0.01010088 0.00995809 -0.00221280
v 0.01009301 0.01008655 -0.00210943
v 0.01008416 0.01023716 -0.00196453
v 0.01002418 0.01102270 -0.00169595
v 0.01000255 0.01129144 0.00152522
v 0.00997796 0.01155870 0.00152522
v 0.00997894 0.01152917 0.00182314
v 0.00053280 0.02478742 0.00182314
v 0.00056230 0.02479037 0.00182314
v 0.00056230 0.02486420 0.00147918
v 0.00056230 0.02489964 0.00125664
v 0.00056230 0.02479776 0.00179380
v 0.00056230 0.02483910 0.00161324
v 0.00056230 0.02493656 0.00098806
v 0.00083075 0.02496313 0.00071993
v 0.00083075 0.02497938 0.00045135
v 0.00083075 0.02498381 0.00018277
v 0.00083075 0.02498381 -0.00008581
v 0.00083075 0.02497790 -0.00035440
v 0.00056230 0.02498085 -0.00035440
v 0.00056230 0.02496461 -0.00062207
v 0.00056230 0.02493656 -0.00089066
v 0.00056230 0.02489816 -0.00115924
v 0.00056230 0.02486273 -0.00137997
v 0.00056230 0.02483910 -0.00151403
v 0.00056230 0.02479776 -0.00169595
v 0.00056230 0.02473131 -0.00196453
v 0.00056230 0.02445076 -0.00278743
v 0.00056230 0.02465305 -0.00223311
v 0.00056230 0.02459399 -0.00240780
v 0.00056230 0.02454526 -0.00254232
v 0.00056230 0.02445814 -0.00277027
v 0.00992879 0.01155870 -0.00278743
v 0.01005663 0.01048523 -0.00223311
v 0.01004188 0.01075397 -0.00196453
v 0.01009891 0.00990493 -0.00238252
v 0.00996321 0.01155870 -0.00223311
v 0.00999665 0.01129144 -0.00196453
v 0.00990028 0.01182744 -0.00278743
v 0.00983046 0.01255097 -0.00269128
v 0.00982062 0.01272963 -0.00257437
v 0.00992289 0.01182744 -0.00250169
v 0.00987864 0.01236492 -0.00223311
v 0.01000156 0.01129144 -0.00169595
v 0.01000255 0.01129144 -0.00142782
v 0.00997599 0.01155870 0.00182314
v 0.00997796 0.01155870 -0.00142782
v 0.00986783 0.01263366 0.00152522
v 0.00083075 0.02479037 0.00182314
v 0.00083075 0.02486568 0.00147873
v 0.00083075 0.02490112 0.00125664
v 0.00083075 0.02479776 0.00179380
v 0.00109921 0.02479628 0.00179380
v 0.00083075 0.02483762 0.00161279
v 0.00083075 0.02493508 0.00098806
v 0.00109921 0.02493213 0.00098806
v 0.00136865 0.02492769 0.00098806
v 0.00136865 0.02495132 0.00071993
v 0.00136865 0.02496904 0.00018277
v 0.00136865 0.02496313 0.00045135
v 0.00163711 0.02496166 0.00018277
v 0.00136865 0.02496904 -0.00008581
v 0.00083075 0.02496313 -0.00062207
v 0.00136865 0.02496313 -0.00035440
v 0.00136865 0.02495132 -0.00062207
v 0.00083075 0.02493508 -0.00089066
v 0.00083075 0.02490112 -0.00115924
v 0.00083075 0.02486568 -0.00138042
v 0.00083075 0.02483762 -0.00151449
v 0.00083075 0.02479776 -0.00169595
v 0.00083075 0.02473279 -0.00196453
v 0.00085140 0.02445076 -0.00278743
v 0.00083075 0.02465305 -0.00223311
v 0.00083075 0.02459399 -0.00240825
v 0.00109921 0.02454821 -0.00254322
v 0.00083075 0.02445814 -0.00277027
v 0.00997108 0.01155870 -0.00196453
v 0.00985996 0.01263366 -0.00196453
v 0.00991601 0.01209618 -0.00196453
v 0.00997698 0.01155870 -0.00169595
v 0.00987078 0.01209618 -0.00278743
v 0.00987274 0.01209618 -0.00277027
v 0.00984127 0.01237378 -0.00277659
v 0.00981079 0.01263809 -0.00277659
v 0.00977637 0.01290092 -0.00277027
v 0.00976949 0.01316966 -0.00250169
v 0.00980686 0.01288468 -0.00249131
v 0.00982652 0.01278279 -0.00239516
v 0.00986487 0.01236492 -0.00250169
v 0.00983537 0.01286105 -0.00196453
v 0.00989634 0.01233539 0.00182314
v 0.00986783 0.01263366 -0.00142782
v 0.00984029 0.01290092 0.00152522
v 0.00986586 0.01263366 0.00179380
v 0.00109921 0.02478890 0.00182314
v 0.00109921 0.02483615 0.00160196
v 0.00109921 0.02486273 0.00146790
v 0.00109921 0.02489816 0.00125664
v 0.00136865 0.02479185 0.00179380
v 0.00136865 0.02489226 0.00125664
v 0.00163711 0.02491736 0.00098806
v 0.00163711 0.02495428 0.00045135
v 0.00163711 0.02494099 0.00071993
v 0.00163711 0.02496166 -0.00008581
v 0.00190557 0.02493951 0.00045135
v 0.00190557 0.02494541 0.00018277
v 0.00136865 0.02492769 -0.00089066
v 0.00109921 0.02493213 -0.00089066
v 0.00163711 0.02495428 -0.00035440
v 0.00163711 0.02494099 -0.00062207
v 0.00109921 0.02489816 -0.00115924
v 0.00109921 0.02486420 -0.00137275
v 0.00109921 0.02483615 -0.00150681
v 0.00109921 0.02479628 -0.00169595
v 0.00109921 0.02473131 -0.00196453
v 0.00112084 0.02444928 -0.00278743
v 0.00109921 0.02465157 -0.00223311
v 0.00136865 0.02459103 -0.00240419
v 0.00136865 0.02454526 -0.00253826
v 0.00136865 0.02445224 -0.00277027
v 0.00109921 0.02445667 -0.00277027
v 0.00986684 0.01263366 -0.00169595
v 0.00982357 0.01302495 -0.00176591
v 0.00986881 0.01211390 -0.00278743
v 0.00984029 0.01236787 -0.00278743
v 0.00981177 0.01261741 -0.00278743
v 0.00980784 0.01264842 -0.00278743
v 0.00977441 0.01290092 -0.00278743
v 0.00962297 0.01424461 -0.00250169
v 0.00973310 0.01343840 -0.00250169
v 0.00978719 0.01316966 -0.00223311
v 0.00968000 0.01397587 -0.00223311
v 0.00975179 0.01343840 -0.00223311
v 0.00981472 0.01294965 -0.00223311
v 0.00981964 0.01299542 -0.00196453
v 0.00982947 0.01297475 0.00182314
v 0.00984029 0.01290092 -0.00142782
v 0.00982456 0.01303972 0.00168321
v 0.00136865 0.02478447 0.00182314
v 0.00136865 0.02485830 0.00144939
v 0.00136865 0.02483319 0.00158345
v 0.00163711 0.02483024 0.00156224
v 0.00163711 0.02478299 0.00179380
v 0.00163711 0.02485387 0.00142817
v 0.00183771 0.02485091 0.00140786
v 0.00163711 0.02488192 0.00125664
v 0.00191835 0.02486568 0.00127921
v 0.00217402 0.02485977 0.00121240
v 0.00217402 0.02488487 0.00098806
v 0.00190557 0.02492474 0.00071993
v 0.00190557 0.02494541 -0.00008581
v 0.00190557 0.02493951 -0.00035440
v 0.00217402 0.02490555 0.00071993
v 0.00217402 0.02491884 0.00045135
v 0.00217402 0.02492327 0.00018277
v 0.00163711 0.02491736 -0.00089066
v 0.00136865 0.02489226 -0.00115924
v 0.00190557 0.02492622 -0.00062207
v 0.00136865 0.02485977 -0.00135469
v 0.00136865 0.02483467 -0.00148876
v 0.00136865 0.02479185 -0.00169595
v 0.00136865 0.02472688 -0.00196453
v 0.00136865 0.02444485 -0.00278743
v 0.00136865 0.02464714 -0.00223311
v 0.00163711 0.02458808 -0.00239381
v 0.00163711 0.02453935 -0.00252787
v 0.00163711 0.02444190 -0.00277027
v 0.00983636 0.01292159 -0.00168421
v 0.00982456 0.01303972 -0.00158716
v 0.00979801 0.01316966 -0.00196453
v 0.00973605 0.01370713 -0.00169595
v 0.00973704 0.01316966 -0.00278743
v 0.00962690 0.01397587 -0.00277027
v 0.00955413 0.01463295 -0.00261906
v 0.00958068 0.01453107 -0.00251839
v 0.00956397 0.01469497 -0.00243985
v 0.00960625 0.01451187 -0.00223311
v 0.00964362 0.01424461 -0.00223311
v 0.00965640 0.01424461 -0.00196453
v 0.00982357 0.01302790 0.00182314
v 0.00981669 0.01308254 0.00182314
v 0.00980784 0.01317409 -0.00142782
v 0.00980784 0.01317261 0.00152522
v 0.00970360 0.01397587 0.00152522
v 0.00966525 0.01424461 0.00179380
v 0.00163711 0.02477561 0.00182314
v 0.00191835 0.02482876 0.00150852
v 0.00190557 0.02476970 0.00179380
v 0.00201669 0.02484648 0.00138394
v 0.00236479 0.02485387 0.00116004
v 0.00244936 0.02486273 0.00099709
v 0.00244248 0.02488487 0.00071993
v 0.00217402 0.02492179 -0.00008581
v 0.00244248 0.02489521 -0.00035440
v 0.00217402 0.02490702 -0.00062207
v 0.00244248 0.02488635 -0.00062207
v 0.00244248 0.02489669 0.00045135
v 0.00244248 0.02489669 -0.00008581
v 0.00163711 0.02488044 -0.00115924
v 0.00190557 0.02490259 -0.00089066
v 0.00217402 0.02485977 -0.00111410
v 0.00201177 0.02484648 -0.00128473
v 0.00183280 0.02485091 -0.00130865
v 0.00217402 0.02488487 -0.00089066
v 0.00163711 0.02483024 -0.00146393
v 0.00163711 0.02478299 -0.00169595
v 0.00163711 0.02471654 -0.00196453
v 0.00163711 0.02463829 -0.00223311
v 0.00163711 0.02443452 -0.00278743
v 0.00184558 0.02458365 -0.00238027
v 0.00192327 0.02454083 -0.00248273
v 0.00190557 0.02442861 -0.00277027
v 0.00970360 0.01397587 -0.00142782
v 0.00966525 0.01424461 -0.00169595
v 0.00962198 0.01399359 -0.00278743
v 0.00958462 0.01426085 -0.00278743
v 0.00956692 0.01445428 -0.00271475
v 0.00953938 0.01478356 -0.00251839
v 0.00954627 0.01452811 -0.00278743
v 0.00950300 0.01478061 -0.00278743
v 0.00928961 0.01626753 -0.00238252
v 0.00937516 0.01585556 -0.00223311
v 0.00947055 0.01531809 -0.00223311
v 0.00951775 0.01504935 -0.00223311
v 0.00957183 0.01473779 -0.00223311
v 0.00961904 0.01451187 -0.00196453
v 0.00962985 0.01451187 -0.00169595
v 0.00966820 0.01421508 0.00182314
v 0.00966820 0.01424461 0.00152522
v 0.00962985 0.01451187 0.00179380
v 0.00190557 0.02476232 0.00182314
v 0.00217402 0.02480957 0.00152522
v 0.00217402 0.02475198 0.00179380
v 0.00217402 0.02484058 0.00134647
v 0.00244936 0.02483172 0.00125258
v 0.00254377 0.02484501 0.00109278
v 0.00262342 0.02485387 0.00091403
v 0.00267652 0.02486125 0.00071993
v 0.00271094 0.02486863 -0.00008581
v 0.00273552 0.02486273 -0.00037381
v 0.00284271 0.02484796 -0.00047627
v 0.00267947 0.02486125 -0.00062207
v 0.00262735 0.02485387 -0.00081211
v 0.00244740 0.02486273 -0.00089743
v 0.00273552 0.02486420 0.00047076
v 0.00271094 0.02487011 0.00018277
v 0.00236086 0.02485387 -0.00106309
v 0.00217402 0.02484058 -0.00124861
v 0.00217402 0.02480957 -0.00142782
v 0.00191540 0.02482876 -0.00140976
v 0.00190557 0.02476970 -0.00169595
v 0.00190557 0.02470178 -0.00196453
v 0.00192327 0.02461614 -0.00225794
v 0.00190557 0.02442123 -0.00278743
v 0.00202455 0.02457775 -0.00236402
v 0.00217402 0.02451573 -0.00250169
v 0.00217402 0.02441089 -0.00277027
v 0.00219762 0.02440203 -0.00278743
v 0.00966820 0.01424461 -0.00142782
v 0.00926503 0.01605195 -0.00278743
v 0.00927584 0.01619222 -0.00256173
v 0.00919914 0.01639156 -0.00277027
v 0.00913719 0.01666030 -0.00277027
v 0.00917849 0.01666030 -0.00250169
v 0.00902509 0.01735725 -0.00240780
v 0.00903492 0.01739859 -0.00223311
v 0.00904574 0.01744437 -0.00196453
v 0.00926404 0.01642552 -0.00223311
v 0.00929551 0.01629116 -0.00223311
v 0.00932698 0.01612283 -0.00223311
v 0.00934271 0.01612283 -0.00196453
v 0.00938991 0.01585556 -0.00196453
v 0.00953545 0.01502868 -0.00195731
v 0.00948432 0.01531809 -0.00196453
v 0.00957478 0.01479833 -0.00195731
v 0.00958855 0.01478061 -0.00169595
v 0.00963280 0.01451187 -0.00142782
v 0.00959248 0.01478061 -0.00142782
v 0.00966427 0.01424461 0.00182314
v 0.00963280 0.01451187 0.00152522
v 0.00962788 0.01451187 0.00182314
v 0.00959248 0.01478061 0.00152522
v 0.00958658 0.01478356 0.00182314
v 0.00217402 0.02474460 0.00182314
v 0.00244248 0.02473279 0.00179380
v 0.00244248 0.02478594 0.00152522
v 0.00271094 0.02480366 0.00125664
v 0.00271094 0.02476084 0.00152522
v 0.00297939 0.02477413 0.00125664
v 0.00271192 0.02483467 0.00099709
v 0.00297939 0.02480219 0.00098806
v 0.00281124 0.02484353 0.00071993
v 0.00284172 0.02484796 0.00057323
v 0.00287122 0.02485091 -0.00008581
v 0.00285844 0.02484944 -0.00029707
v 0.00324785 0.02479037 -0.00035440
v 0.00324785 0.02478151 -0.00062207
v 0.00297939 0.02482138 -0.00062207
v 0.00281419 0.02484353 -0.00062207
v 0.00297939 0.02480219 -0.00089066
v 0.00271389 0.02483467 -0.00089743
v 0.00253983 0.02484353 -0.00099132
v 0.00286237 0.02485091 0.00039402
v 0.00287417 0.02485091 0.00018277
v 0.00297939 0.02477265 -0.00115924
v 0.00271094 0.02480219 -0.00115924
v 0.00271094 0.02476084 -0.00142782
v 0.00244248 0.02478594 -0.00142782
v 0.00244248 0.02473131 -0.00169595
v 0.00217402 0.02475198 -0.00169595
v 0.00217402 0.02468554 -0.00196453
v 0.00217402 0.02461466 -0.00221054
v 0.00217402 0.02457184 -0.00234506
v 0.00244248 0.02449063 -0.00250169
v 0.00246411 0.02437398 -0.00278743
v 0.00925323 0.01611249 -0.00278743
v 0.00919619 0.01639156 -0.00278743
v 0.00913031 0.01667802 -0.00278743
v 0.00908704 0.01685816 -0.00278743
v 0.00901132 0.01730114 -0.00258701
v 0.00898673 0.01745323 -0.00249898
v 0.00891495 0.01773230 -0.00250169
v 0.00895330 0.01773230 -0.00223311
v 0.00897690 0.01773230 -0.00196453
v 0.00901427 0.01757726 -0.00196453
v 0.00901919 0.01759793 -0.00182640
v 0.00905065 0.01749014 -0.00172077
v 0.00911949 0.01719778 -0.00169595
v 0.00922667 0.01666030 -0.00196453
v 0.00931026 0.01635760 -0.00169595
v 0.00935648 0.01612283 -0.00169595
v 0.00940368 0.01585556 -0.00169595
v 0.00956102 0.01494303 -0.00169595
v 0.00956298 0.01495485 -0.00142782
v 0.00956298 0.01495485 0.00152522
v 0.00950103 0.01531809 0.00152522
v 0.00953742 0.01507445 0.00179380
v 0.00940171 0.01585556 0.00182314
v 0.00244248 0.02472540 0.00182314
v 0.00268045 0.02470325 0.00182314
v 0.00271094 0.02470768 0.00179380
v 0.00297939 0.02473131 0.00152522
v 0.00324785 0.02473426 0.00125664
v 0.00324785 0.02476379 0.00098806
v 0.00297939 0.02481990 0.00071993
v 0.00324785 0.02478151 0.00071993
v 0.00324785 0.02479185 0.00045135
v 0.00300791 0.02483319 0.00018277
v 0.00300496 0.02483172 -0.00008581
v 0.00324785 0.02479480 -0.00008581
v 0.00351631 0.02474165 -0.00035440
v 0.00351631 0.02473279 -0.00062207
v 0.00324785 0.02476379 -0.00089066
v 0.00324785 0.02473426 -0.00115924
v 0.00297939 0.02473131 -0.00142782
v 0.00271094 0.02470768 -0.00169595
v 0.00244248 0.02466486 -0.00196453
v 0.00244248 0.02460432 -0.00217217
v 0.00244248 0.02455855 -0.00230669
v 0.00271094 0.02446110 -0.00250169
v 0.00250443 0.02436955 -0.00278743
v 0.00271094 0.02454526 -0.00226155
v 0.00906540 0.01694676 -0.00278743
v 0.00903295 0.01712247 -0.00272423
v 0.00900444 0.01719630 -0.00278743
v 0.00893757 0.01746504 -0.00277027
v 0.00886677 0.01773230 -0.00277027
v 0.00883825 0.01800104 -0.00250169
v 0.00887955 0.01800104 -0.00223311
v 0.00890512 0.01800104 -0.00196453
v 0.00899559 0.01772049 -0.00172077
v 0.00892282 0.01800104 -0.00169595
v 0.00902410 0.01762156 -0.00164765
v 0.00912834 0.01719778 -0.00142782
v 0.00927978 0.01649197 -0.00169595
v 0.00906737 0.01746504 -0.00142782
v 0.00918931 0.01692904 -0.00142782
v 0.00928371 0.01650821 -0.00142782
v 0.00931321 0.01637384 -0.00142782
v 0.00936238 0.01612283 -0.00142782
v 0.00940860 0.01585556 -0.00142782
v 0.00950103 0.01531809 -0.00142782
v 0.00940860 0.01585556 0.00152522
v 0.00940270 0.01585556 0.00179380
v 0.00935451 0.01612283 0.00182314
v 0.00271094 0.02470030 0.00182314
v 0.00297939 0.02467520 0.00179380
v 0.00324785 0.02469144 0.00152522
v 0.00351631 0.02471359 0.00098806
v 0.00351631 0.02464272 0.00152522
v 0.00351631 0.02468258 0.00125664
v 0.00351631 0.02473279 0.00071993
v 0.00324785 0.02479628 0.00018277
v 0.00351631 0.02474165 0.00045135
v 0.00351631 0.02474755 0.00018277
v 0.00351631 0.02474608 -0.00008581
v 0.00378476 0.02468849 -0.00008581
v 0.00378476 0.02468258 -0.00035440
v 0.00378476 0.02467225 -0.00062207
v 0.00401684 0.02460285 -0.00089066
v 0.00378476 0.02465453 -0.00089066
v 0.00351631 0.02471359 -0.00089066
v 0.00351631 0.02468258 -0.00115924
v 0.00351631 0.02464272 -0.00142782
v 0.00324785 0.02469144 -0.00142782
v 0.00297939 0.02467520 -0.00169595
v 0.00271094 0.02463681 -0.00196453
v 0.00285156 0.02458070 -0.00210175
v 0.00295678 0.02453345 -0.00220783
v 0.00297939 0.02442566 -0.00250169
v 0.00271094 0.02436216 -0.00274635
v 0.00271094 0.02434297 -0.00278743
v 0.00897985 0.01729080 -0.00278743
v 0.00885791 0.01775002 -0.00278743
v 0.00878613 0.01800252 -0.00278743
v 0.00878711 0.01801138 -0.00276847
v 0.00875860 0.01816051 -0.00267774
v 0.00877433 0.01821219 -0.00250169
v 0.00874680 0.01839086 -0.00233874
v 0.00882645 0.01826978 -0.00196453
v 0.00875958 0.01843220 -0.00215998
v 0.00899559 0.01777069 -0.00142782
v 0.00893265 0.01800104 -0.00142782
v 0.00868681 0.01880726 -0.00169595
v 0.00862191 0.01907599 -0.00142782
v 0.00874483 0.01865221 -0.00142782
v 0.00902804 0.01763632 -0.00142782
v 0.00913031 0.01719778 -0.00115924
v 0.00902902 0.01764075 -0.00115924
v 0.00906934 0.01746504 -0.00115924
v 0.00925224 0.01666030 -0.00089066
v 0.00928469 0.01651264 -0.00089066
v 0.00931321 0.01637680 -0.00115924
v 0.00936238 0.01612283 0.00152522
v 0.00935549 0.01612283 0.00179380
v 0.00931026 0.01635613 0.00179380
v 0.00930928 0.01635317 0.00182314
v 0.00297644 0.02466782 0.00182314
v 0.00324785 0.02462795 0.00182314
v 0.00353106 0.02458070 0.00182314
v 0.00359203 0.02457036 0.00182314
v 0.00367660 0.02458365 0.00168457
v 0.00378476 0.02462647 0.00125664
v 0.00395980 0.02458956 0.00125664
v 0.00378476 0.02465453 0.00098806
v 0.00377296 0.02459546 0.00150401
v 0.00392440 0.02458070 0.00140019
v 0.00401684 0.02460285 0.00098806
v 0.00378476 0.02467225 0.00071993
v 0.00378476 0.02468258 0.00045135
v 0.00378476 0.02468849 0.00018277
v 0.00405322 0.02462500 -0.00008581
v 0.00405322 0.02461909 -0.00035440
v 0.00407486 0.02460580 -0.00061982
v 0.00417909 0.02457775 -0.00070784
v 0.00415057 0.02457036 -0.00089066
v 0.00396079 0.02458956 -0.00115924
v 0.00378476 0.02462795 -0.00115924
v 0.00392440 0.02458070 -0.00130278
v 0.00377296 0.02459546 -0.00140660
v 0.00367660 0.02458365 -0.00158671
v 0.00356744 0.02456593 -0.00176591
v 0.00324785 0.02463386 -0.00169595
v 0.00338847 0.02458070 -0.00183453
v 0.00324785 0.02459103 -0.00187335
v 0.00295678 0.02460432 -0.00196995
v 0.00303151 0.02456889 -0.00206293
v 0.00324785 0.02448472 -0.00223311
v 0.00326752 0.02436955 -0.00252562
v 0.00319180 0.02432377 -0.00266555
v 0.00297939 0.02434149 -0.00270302
v 0.00297939 0.02430310 -0.00278743
v 0.00877728 0.01803205 -0.00278743
v 0.00873303 0.01834656 -0.00250169
v 0.00859044 0.01880726 -0.00250169
v 0.00855209 0.01907599 -0.00223311
v 0.00863469 0.01880726 -0.00223311
v 0.00876843 0.01846469 -0.00196453
v 0.00858552 0.01907599 -0.00196453
v 0.00866616 0.01880726 -0.00196453
v 0.00899559 0.01777512 -0.00115924
v 0.00893462 0.01800104 -0.00115924
v 0.00862683 0.01907599 -0.00115924
v 0.00860617 0.01907599 -0.00169595
v 0.00854029 0.01934325 -0.00142782
v 0.00854717 0.01934325 -0.00115924
v 0.00913326 0.01719778 -0.00035440
v 0.00919422 0.01692904 -0.00035440
v 0.00919324 0.01692904 -0.00062207
v 0.00907130 0.01746504 -0.00062207
v 0.00899657 0.01777512 0.00125664
v 0.00902902 0.01764075 0.00125664
v 0.00928469 0.01651264 0.00098806
v 0.00931321 0.01637680 0.00125664
v 0.00931321 0.01637384 0.00152522
v 0.00928371 0.01650821 0.00152522
v 0.00918931 0.01692904 0.00152522
v 0.00912834 0.01719778 0.00152522
v 0.00902410 0.01762156 0.00173873
v 0.00927879 0.01648754 0.00182314
v 0.00377296 0.02454231 0.00178207
v 0.00377493 0.02453197 0.00182314
v 0.00385557 0.02456593 0.00157939
v 0.00409452 0.02455560 0.00125664
v 0.00415057 0.02457036 0.00098806
v 0.00402962 0.02453640 0.00150401
v 0.00417811 0.02457775 0.00080524
v 0.00407486 0.02460580 0.00071722
v 0.00405322 0.02461909 0.00045135
v 0.00405322 0.02462500 0.00018277
v 0.00420663 0.02458513 -0.00008581
v 0.00419876 0.02458365 -0.00035440
v 0.00419188 0.02458070 -0.00052863
v 0.00429808 0.02454083 -0.00061982
v 0.00459014 0.02444042 -0.00062207
v 0.00459014 0.02442713 -0.00089066
v 0.00432168 0.02451721 -0.00089066
v 0.00409452 0.02455560 -0.00115924
v 0.00432168 0.02448915 -0.00115924
v 0.00402962 0.02453492 -0.00140660
v 0.00385557 0.02456593 -0.00148199
v 0.00377296 0.02454231 -0.00168421
v 0.00378476 0.02446552 -0.00196453
v 0.00349271 0.02453345 -0.00194015
v 0.00324785 0.02455412 -0.00200786
v 0.00351631 0.02443599 -0.00223311
v 0.00351631 0.02434888 -0.00246242
v 0.00337077 0.02430901 -0.00263124
v 0.00326752 0.02426914 -0.00276079
v 0.00326752 0.02425585 -0.00278743
v 0.00871631 0.01822548 -0.00278743
v 0.00849604 0.01898149 -0.00269038
v 0.00850981 0.01907304 -0.00247912
v 0.00849604 0.01925318 -0.00223311
v 0.00851374 0.01930782 -0.00196453
v 0.00893658 0.01800104 0.00125664
v 0.00878711 0.01853704 0.00045135
v 0.00863076 0.01907599 -0.00062207
v 0.00863371 0.01907599 -0.00008581
v 0.00871041 0.01880726 -0.00008581
v 0.00871139 0.01880726 0.00018277
v 0.00874975 0.01866993 0.00018277
v 0.00851767 0.01936245 -0.00169143
v 0.00848522 0.01948648 -0.00159890
v 0.00849014 0.01949977 -0.00142782
v 0.00855012 0.01934325 -0.00035440
v 0.00849309 0.01951159 -0.00115924
v 0.00849407 0.01951306 -0.00089066
v 0.00913326 0.01719778 0.00045135
v 0.00919422 0.01692904 0.00045135
v 0.00907130 0.01746504 0.00071993
v 0.00899559 0.01777069 0.00152522
v 0.00902804 0.01763632 0.00152522
v 0.00906737 0.01746504 0.00152522
v 0.00906934 0.01746504 0.00125664
v 0.00925224 0.01666030 0.00098806
v 0.00919324 0.01692904 0.00071993
v 0.00913031 0.01719778 0.00125664
v 0.00904967 0.01749014 0.00181457
v 0.00899657 0.01771458 0.00182314
v 0.00918439 0.01689951 0.00182314
v 0.00405322 0.02446995 0.00179380
v 0.00402372 0.02446995 0.00182314
v 0.00432168 0.02444781 0.00152522
v 0.00432168 0.02448915 0.00125664
v 0.00432168 0.02451721 0.00098806
v 0.00432168 0.02439465 0.00179380
v 0.00419188 0.02458070 0.00062604
v 0.00459014 0.02442713 0.00098806
v 0.00459014 0.02444190 0.00071993
v 0.00419876 0.02458365 0.00045135
v 0.00420663 0.02458513 0.00018277
v 0.00434036 0.02454083 -0.00008581
v 0.00459014 0.02444633 -0.00035440
v 0.00484581 0.02435478 -0.00035440
v 0.00483499 0.02435183 -0.00062207
v 0.00481631 0.02434592 -0.00089066
v 0.00478287 0.02433411 -0.00115924
v 0.00459014 0.02440203 -0.00115924
v 0.00432168 0.02444781 -0.00142782
v 0.00471404 0.02430753 -0.00154112
v 0.00432168 0.02439465 -0.00169595
v 0.00405322 0.02446995 -0.00169595
v 0.00405322 0.02439908 -0.00196453
v 0.00420958 0.02431639 -0.00211755
v 0.00405322 0.02433559 -0.00217398
v 0.00380345 0.02436659 -0.00225523
v 0.00390572 0.02430753 -0.00235950
v 0.00372675 0.02432673 -0.00240916
v 0.00351631 0.02429572 -0.00259694
v 0.00351631 0.02421746 -0.00277027
v 0.00351631 0.02420860 -0.00278743
v 0.00852161 0.01882793 -0.00278743
v 0.00852849 0.01881611 -0.00277614
v 0.00843900 0.01907304 -0.00277614
v 0.00821873 0.01975965 -0.00265246
v 0.00846359 0.01916016 -0.00255360
v 0.00848326 0.01921332 -0.00237485
v 0.00844884 0.01938755 -0.00223311
v 0.00846949 0.01944219 -0.00196453
v 0.00847834 0.01946581 -0.00177810
v 0.00893265 0.01800104 0.00152522
v 0.00871139 0.01880726 0.00045135
v 0.00874975 0.01866846 0.00071993
v 0.00874778 0.01866255 0.00125664
v 0.00863469 0.01907599 0.00018277
v 0.00844392 0.01963414 -0.00142782
v 0.00833870 0.01988073 -0.00169595
v 0.00835837 0.01988073 -0.00142782
v 0.00836722 0.01988073 -0.00115924
v 0.00844785 0.01964595 -0.00115924
v 0.00855012 0.01934325 0.00045135
v 0.00849407 0.01951454 -0.00062207
v 0.00844982 0.01964891 -0.00062207
v 0.00913227 0.01719778 0.00071993
v 0.00892183 0.01800104 0.00179380
v 0.00904967 0.01748719 0.00182314
v 0.00891987 0.01800104 0.00182314
v 0.00405322 0.02446257 0.00182314
v 0.00452818 0.02433411 0.00179380
v 0.00471404 0.02430753 0.00163897
v 0.00459014 0.02440056 0.00125664
v 0.00475042 0.02432082 0.00145977
v 0.00431971 0.02438727 0.00182314
v 0.00450262 0.02433411 0.00182314
v 0.00433348 0.02453788 0.00045135
v 0.00478287 0.02433411 0.00125664
v 0.00481631 0.02434592 0.00098806
v 0.00483598 0.02435330 0.00071993
v 0.00459014 0.02444928 0.00045135
v 0.00434036 0.02454083 0.00018277
v 0.00459014 0.02445371 0.00018277
v 0.00459014 0.02445224 -0.00008581
v 0.00485368 0.02435773 -0.00008581
v 0.00497955 0.02430605 -0.00035440
v 0.00496971 0.02430162 -0.00062207
v 0.00495005 0.02429276 -0.00089066
v 0.00491661 0.02427800 -0.00115924
v 0.00475042 0.02432082 -0.00136237
v 0.00447312 0.02431639 -0.00185213
v 0.00452818 0.02433263 -0.00169595
v 0.00484778 0.02426914 -0.00144226
v 0.00485859 0.02421155 -0.00169595
v 0.00466192 0.02428834 -0.00169595
v 0.00430791 0.02433559 -0.00195099
v 0.00438855 0.02429129 -0.00203134
v 0.00430791 0.02425142 -0.00221776
v 0.00405322 0.02429129 -0.00230849
v 0.00405322 0.02421155 -0.00250169
v 0.00380345 0.02427505 -0.00249989
v 0.00354286 0.02420269 -0.00278743
v 0.00378476 0.02415692 -0.00277027
v 0.00844294 0.01905237 -0.00278743
v 0.00843114 0.01908485 -0.00278743
v 0.00833378 0.01934325 -0.00278743
v 0.00824233 0.01958541 -0.00278743
v 0.00822168 0.01964005 -0.00278743
v 0.00814695 0.01986154 -0.00275312
v 0.00796896 0.02033700 -0.00270211
v 0.00810368 0.02014947 -0.00250169
v 0.00818530 0.01994127 -0.00250169
v 0.00830822 0.01961199 -0.00250169
v 0.00842130 0.01931963 -0.00247912
v 0.00836624 0.01961199 -0.00223311
v 0.00822463 0.02004168 -0.00214870
v 0.00840950 0.01961199 -0.00196453
v 0.00862879 0.01907599 0.00125664
v 0.00874483 0.01865221 0.00152522
v 0.00863371 0.01907599 0.00045135
v 0.00863076 0.01907599 0.00098806
v 0.00831117 0.01988073 -0.00196453
v 0.00825217 0.02011698 -0.00169595
v 0.00825413 0.02016867 -0.00141834
v 0.00821578 0.02028827 -0.00132264
v 0.00837312 0.01988073 -0.00035440
v 0.00827085 0.02014947 -0.00115924
v 0.00854914 0.01934325 0.00071993
v 0.00849407 0.01951454 0.00071993
v 0.00849407 0.01951306 0.00098806
v 0.00844982 0.01964891 0.00071993
v 0.00869959 0.01880726 0.00152522
v 0.00862093 0.01907599 0.00152522
v 0.00860421 0.01907599 0.00179380
v 0.00860224 0.01907599 0.00182314
v 0.00451737 0.02432968 0.00182314
v 0.00465209 0.02428390 0.00182314
v 0.00466192 0.02428834 0.00179380
v 0.00485859 0.02421008 0.00179380
v 0.00527357 0.02404913 0.00168773
v 0.00484778 0.02426914 0.00153967
v 0.00491661 0.02427948 0.00125664
v 0.00495005 0.02429276 0.00098806
v 0.00497070 0.02430162 0.00071993
v 0.00484581 0.02435626 0.00045135
v 0.00498053 0.02430605 0.00045135
v 0.00498840 0.02430901 0.00018277
v 0.00498741 0.02430901 -0.00008581
v 0.00512607 0.02423813 -0.00008581
v 0.00550466 0.02402993 -0.00062207
v 0.00512607 0.02422337 -0.00062207
v 0.00536011 0.02409195 -0.00089066
v 0.00512607 0.02420860 -0.00089066
v 0.00512607 0.02418202 -0.00115924
v 0.00512607 0.02414658 -0.00142782
v 0.00457342 0.02425142 -0.00195099
v 0.00513492 0.02409195 -0.00168511
v 0.00523030 0.02402846 -0.00176727
v 0.00505232 0.02406832 -0.00191713
v 0.00488416 0.02411705 -0.00198981
v 0.00459014 0.02414806 -0.00223311
v 0.00472977 0.02404470 -0.00237259
v 0.00459014 0.02406980 -0.00242947
v 0.00433840 0.02411557 -0.00252110
v 0.00425973 0.02406537 -0.00268180
v 0.00403257 0.02408900 -0.00277072
v 0.00378476 0.02414658 -0.00278743
v 0.00404732 0.02407571 -0.00278743
v 0.00380247 0.02414215 -0.00278743
v 0.00816563 0.01978475 -0.00278743
v 0.00813318 0.01986597 -0.00278743
v 0.00801419 0.02016424 -0.00278291
v 0.00801321 0.02016276 -0.00278743
v 0.00789914 0.02042264 -0.00278291
v 0.00776147 0.02070614 -0.00278743
v 0.00792766 0.02051566 -0.00257527
v 0.00799158 0.02042264 -0.00249221
v 0.00805353 0.02041821 -0.00223311
v 0.00816760 0.02013913 -0.00223627
v 0.00820496 0.01999148 -0.00232745
v 0.00826102 0.01989402 -0.00223627
v 0.00810171 0.02041821 -0.00196453
v 0.00818530 0.02021296 -0.00196453
v 0.00823840 0.02007859 -0.00196453
v 0.00854717 0.01934325 0.00125664
v 0.00820103 0.02025135 -0.00169595
v 0.00820890 0.02027203 -0.00150140
v 0.00821676 0.02029270 -0.00115924
v 0.00816661 0.02039458 -0.00141834
v 0.00804959 0.02068547 -0.00142782
v 0.00806238 0.02068547 -0.00115924
v 0.00816465 0.02042707 -0.00115924
v 0.00837312 0.01988073 0.00045135
v 0.00827675 0.02014947 -0.00035440
v 0.00827872 0.02014947 -0.00008581
v 0.00817153 0.02043888 -0.00008581
v 0.00822168 0.02030451 -0.00008581
v 0.00849309 0.01951159 0.00125664
v 0.00844785 0.01964595 0.00125664
v 0.00853931 0.01934325 0.00152522
v 0.00851669 0.01935507 0.00182314
v 0.00486056 0.02420122 0.00182314
v 0.00511918 0.02408752 0.00182314
v 0.00513295 0.02409047 0.00178387
v 0.00530307 0.02406242 0.00152522
v 0.00512607 0.02414806 0.00152522
v 0.00517818 0.02406094 0.00182314
v 0.00523915 0.02403289 0.00182314
v 0.00530504 0.02399892 0.00182314
v 0.00537584 0.02397087 0.00178387
v 0.00543681 0.02399302 0.00152522
v 0.00512607 0.02418202 0.00125664
v 0.00512607 0.02420860 0.00098806
v 0.00512607 0.02422484 0.00071993
v 0.00512607 0.02423370 0.00045135
v 0.00512607 0.02423961 0.00018277
v 0.00538174 0.02410672 0.00018277
v 0.00537977 0.02410524 -0.00008581
v 0.00551449 0.02403436 -0.00008581
v 0.00566298 0.02394872 -0.00008581
v 0.00566298 0.02393248 -0.00062207
v 0.00549483 0.02402403 -0.00089066
v 0.00547319 0.02401369 -0.00115924
v 0.00533847 0.02408014 -0.00115924
v 0.00530110 0.02406242 -0.00142782
v 0.00527160 0.02404765 -0.00158806
v 0.00499036 0.02404175 -0.00209589
v 0.00537486 0.02397235 -0.00168511
v 0.00541616 0.02386456 -0.00198304
v 0.00513492 0.02400926 -0.00198981
v 0.00492841 0.02401812 -0.00223311
v 0.00483499 0.02395610 -0.00247777
v 0.00459014 0.02401221 -0.00256353
v 0.00443870 0.02403732 -0.00262357
v 0.00433840 0.02399597 -0.00277072
v 0.00429513 0.02400040 -0.00278743
v 0.00790012 0.02041526 -0.00278743
v 0.00763265 0.02096011 -0.00278743
v 0.00770640 0.02087595 -0.00271159
v 0.00773590 0.02096159 -0.00249718
v 0.00787947 0.02066923 -0.00249221
v 0.00795224 0.02056882 -0.00239652
v 0.00797092 0.02061164 -0.00223311
v 0.00793257 0.02079326 -0.00203088
v 0.00798764 0.02069581 -0.00195054
v 0.00794831 0.02082870 -0.00185213
v 0.00813416 0.02041821 -0.00169595
v 0.00848916 0.01949977 0.00152522
v 0.00802501 0.02068547 -0.00169595
v 0.00795716 0.02084789 -0.00169595
v 0.00796994 0.02087595 -0.00142782
v 0.00797781 0.02089219 -0.00115924
v 0.00807123 0.02068547 -0.00008581
v 0.00837115 0.01988073 0.00071993
v 0.00827872 0.02014947 0.00018277
v 0.00807221 0.02068547 0.00018277
v 0.00817153 0.02043888 0.00018277
v 0.00822168 0.02030451 0.00018277
v 0.00836722 0.01988073 0.00125664
v 0.00848424 0.01948501 0.00169224
v 0.00849997 0.01940675 0.00182314
v 0.00533847 0.02408014 0.00125664
v 0.00547221 0.02401369 0.00125664
v 0.00538076 0.02395758 0.00182314
v 0.00560988 0.02382616 0.00182314
v 0.00561578 0.02383059 0.00179380
v 0.00567871 0.02384388 0.00151213
v 0.00549483 0.02402550 0.00098806
v 0.00550663 0.02403141 0.00071993
v 0.00537781 0.02410376 0.00045135
v 0.00551548 0.02403584 0.00018277
v 0.00566298 0.02394872 0.00018277
v 0.00586162 0.02382173 -0.00008581
v 0.00566298 0.02391919 -0.00089066
v 0.00585572 0.02381730 -0.00035440
v 0.00584785 0.02381140 -0.00062207
v 0.00566298 0.02389556 -0.00115924
v 0.00568068 0.02384536 -0.00141879
v 0.00543583 0.02399449 -0.00142782
v 0.00512607 0.02392805 -0.00223311
v 0.00561775 0.02383059 -0.00169595
v 0.00557251 0.02379959 -0.00190585
v 0.00552039 0.02376858 -0.00208505
v 0.00533552 0.02381878 -0.00223311
v 0.00459014 0.02390885 -0.00277027
v 0.00511427 0.02382321 -0.00248770
v 0.00501691 0.02378630 -0.00265788
v 0.00483401 0.02381583 -0.00275628
v 0.00433741 0.02398711 -0.00278743
v 0.00765822 0.02105609 -0.00258385
v 0.00748416 0.02123033 -0.00278743
v 0.00741631 0.02163934 -0.00238794
v 0.00768870 0.02111220 -0.00240509
v 0.00781162 0.02095421 -0.00223311
v 0.00791192 0.02074601 -0.00223311
v 0.00768477 0.02137356 -0.00186477
v 0.00788144 0.02093206 -0.00195054
v 0.00778015 0.02122295 -0.00169595
v 0.00789521 0.02098226 -0.00169595
v 0.00844294 0.01963414 0.00152522
v 0.00790897 0.02101032 -0.00142782
v 0.00797978 0.02089957 0.00018277
v 0.00791586 0.02102656 -0.00115924
v 0.00766510 0.02160095 -0.00008581
v 0.00772607 0.02146658 -0.00008581
v 0.00783719 0.02122295 0.00018277
v 0.00792077 0.02103394 0.00018277
v 0.00827478 0.02014947 0.00071993
v 0.00797978 0.02089810 0.00045135
v 0.00797879 0.02089662 0.00098806
v 0.00797781 0.02089367 0.00125664
v 0.00806238 0.02068547 0.00125664
v 0.00816465 0.02042707 0.00125664
v 0.00821676 0.02029270 0.00125664
v 0.00827085 0.02014947 0.00125664
v 0.00835739 0.01988073 0.00152522
v 0.00821578 0.02028827 0.00141779
v 0.00845670 0.01953521 0.00182314
v 0.00847932 0.01947024 0.00182314
v 0.00566298 0.02389409 0.00125664
v 0.00574165 0.02374052 0.00182314
v 0.00575050 0.02374348 0.00179380
v 0.00580360 0.02377891 0.00141373
v 0.00566298 0.02391919 0.00098806
v 0.00566298 0.02393396 0.00071993
v 0.00586162 0.02382173 0.00018277
v 0.00599634 0.02371985 -0.00008581
v 0.00598946 0.02371690 -0.00035440
v 0.00583704 0.02380254 -0.00089066
v 0.00598257 0.02371247 -0.00062207
v 0.00597176 0.02370508 -0.00089066
v 0.00581934 0.02378925 -0.00115924
v 0.00580458 0.02377891 -0.00132309
v 0.00578295 0.02376415 -0.00150230
v 0.00575247 0.02374643 -0.00169595
v 0.00527849 0.02378482 -0.00238929
v 0.00566298 0.02371837 -0.00198304
v 0.00578983 0.02349984 -0.00235544
v 0.00560005 0.02354857 -0.00250169
v 0.00460784 0.02389261 -0.00278743
v 0.00519490 0.02374052 -0.00256805
v 0.00537486 0.02354857 -0.00275222
v 0.00514475 0.02364750 -0.00278743
v 0.00503461 0.02370065 -0.00278743
v 0.00486253 0.02378334 -0.00278743
v 0.00481238 0.02380697 -0.00278743
v 0.00747433 0.02124805 -0.00278743
v 0.00743008 0.02139718 -0.00269083
v 0.00714195 0.02189775 -0.00264027
v 0.00717047 0.02194057 -0.00250169
v 0.00711835 0.02213105 -0.00230217
v 0.00714687 0.02217387 -0.00212297
v 0.00716850 0.02220783 -0.00196453
v 0.00728159 0.02202916 -0.00196453
v 0.00743598 0.02167183 -0.00223311
v 0.00753530 0.02149168 -0.00223311
v 0.00737993 0.02157585 -0.00256669
v 0.00764150 0.02128939 -0.00223311
v 0.00771033 0.02115502 -0.00223311
v 0.00761003 0.02147397 -0.00195866
v 0.00746941 0.02172646 -0.00196453
v 0.00762773 0.02153155 -0.00169595
v 0.00769558 0.02139718 -0.00169595
v 0.00771033 0.02142672 -0.00142782
v 0.00780769 0.02122295 -0.00142782
v 0.00765428 0.02158028 -0.00115924
v 0.00771820 0.02144591 -0.00115924
v 0.00782342 0.02122295 -0.00115924
v 0.00765822 0.02158766 -0.00089066
v 0.00772705 0.02146658 0.00018277
v 0.00757856 0.02176042 -0.00008581
v 0.00766510 0.02160095 0.00018277
v 0.00791881 0.02103099 0.00098806
v 0.00791979 0.02103247 0.00071993
v 0.00796994 0.02087595 0.00152522
v 0.00804861 0.02068547 0.00152522
v 0.00791684 0.02102656 0.00125664
v 0.00833673 0.01988073 0.00179380
v 0.00825413 0.02016867 0.00151439
v 0.00825217 0.02011551 0.00179380
v 0.00820890 0.02027055 0.00159699
v 0.00834460 0.01985120 0.00182314
v 0.00581835 0.02378925 0.00125664
v 0.00583605 0.02380254 0.00098806
v 0.00596881 0.02358548 0.00182314
v 0.00595504 0.02359877 0.00180960
v 0.00590882 0.02368737 0.00151213
v 0.00611041 0.02354118 0.00152522
v 0.00595209 0.02369327 0.00125664
v 0.00584785 0.02381140 0.00071993
v 0.00585572 0.02381730 0.00045135
v 0.00598946 0.02371690 0.00045135
v 0.00599634 0.02371985 0.00018277
v 0.00616548 0.02358548 -0.00008581
v 0.00616154 0.02358253 -0.00035440
v 0.00615663 0.02357810 -0.00062207
v 0.00595307 0.02369327 -0.00115924
v 0.00614876 0.02357072 -0.00089066
v 0.00613401 0.02355890 -0.00115924
v 0.00611041 0.02354118 -0.00142782
v 0.00590882 0.02368884 -0.00141879
v 0.00608681 0.02352199 -0.00163366
v 0.00595504 0.02360025 -0.00171220
v 0.00606026 0.02350132 -0.00181241
v 0.00589112 0.02357367 -0.00196453
v 0.00554203 0.02351313 -0.00265065
v 0.00583900 0.02353528 -0.00217669
v 0.00592947 0.02343192 -0.00225297
v 0.00607894 0.02324734 -0.00238794
v 0.00593045 0.02331527 -0.00248725
v 0.00573378 0.02345997 -0.00250169
v 0.00535322 0.02353971 -0.00278743
v 0.00734649 0.02146954 -0.00278743
v 0.00734059 0.02148873 -0.00277614
v 0.00718915 0.02175009 -0.00274590
v 0.00718325 0.02172941 -0.00278743
v 0.00713605 0.02179734 -0.00278743
v 0.00690103 0.02220488 -0.00269038
v 0.00707902 0.02207493 -0.00250169
v 0.00687448 0.02243670 -0.00237575
v 0.00690201 0.02247066 -0.00223311
v 0.00704362 0.02227723 -0.00222092
v 0.00707803 0.02234072 -0.00196453
v 0.00740549 0.02189036 -0.00181421
v 0.00710852 0.02238650 -0.00169595
v 0.00719800 0.02225213 -0.00169595
v 0.00738681 0.02186083 -0.00196453
v 0.00764445 0.02156108 -0.00142782
v 0.00748318 0.02178405 -0.00171310
v 0.00753333 0.02176042 -0.00142782
v 0.00755496 0.02176042 -0.00115924
v 0.00756381 0.02176042 -0.00089066
v 0.00757365 0.02176042 -0.00035440
v 0.00772607 0.02146215 0.00045135
v 0.00757856 0.02176042 0.00018277
v 0.00745663 0.02197896 -0.00008581
v 0.00765822 0.02158914 0.00098806
v 0.00772214 0.02145477 0.00098806
v 0.00772410 0.02145920 0.00071993
v 0.00783030 0.02122295 0.00098806
v 0.00795716 0.02084642 0.00179380
v 0.00790799 0.02101032 0.00152522
v 0.00802304 0.02068547 0.00179380
v 0.00813220 0.02041821 0.00179380
v 0.00820005 0.02024988 0.00179380
v 0.00771919 0.02144739 0.00125664
v 0.00819906 0.02024545 0.00182314
v 0.00825020 0.02011108 0.00182314
v 0.00597077 0.02370508 0.00098806
v 0.00607304 0.02351165 0.00182314
v 0.00608681 0.02352199 0.00173106
v 0.00624415 0.02342306 0.00152522
v 0.00626775 0.02344373 0.00125664
v 0.00613303 0.02355890 0.00125664
v 0.00598257 0.02371247 0.00071993
v 0.00615663 0.02357810 0.00071993
v 0.00616154 0.02358253 0.00045135
v 0.00616548 0.02358548 0.00018277
v 0.00630020 0.02347621 -0.00008581
v 0.00629036 0.02346588 -0.00062207
v 0.00628348 0.02345850 -0.00089066
v 0.00626775 0.02344521 -0.00115924
v 0.00624415 0.02342306 -0.00142782
v 0.00635723 0.02325916 -0.00169595
v 0.00618514 0.02341272 -0.00171220
v 0.00602486 0.02347326 -0.00196453
v 0.00633757 0.02323996 -0.00184040
v 0.00630610 0.02321190 -0.00201915
v 0.00583999 0.02327097 -0.00268812
v 0.00565216 0.02336399 -0.00275854
v 0.00557055 0.02340091 -0.00278743
v 0.00541026 0.02350575 -0.00278743
v 0.00612123 0.02328278 -0.00223311
v 0.00601896 0.02319862 -0.00256669
v 0.00625496 0.02316908 -0.00223311
v 0.00635920 0.02299189 -0.00241322
v 0.00619301 0.02309526 -0.00248996
v 0.00732781 0.02150054 -0.00278743
v 0.00704755 0.02192285 -0.00278743
v 0.00695610 0.02204983 -0.00278743
v 0.00675943 0.02230971 -0.00278743
v 0.00675353 0.02231710 -0.00278743
v 0.00683219 0.02238354 -0.00255496
v 0.00693250 0.02229495 -0.00248003
v 0.00672501 0.02255187 -0.00247732
v 0.00661881 0.02271873 -0.00239968
v 0.00665617 0.02276302 -0.00223311
v 0.00679089 0.02260503 -0.00223311
v 0.00683810 0.02265966 -0.00196453
v 0.00694331 0.02252529 -0.00196453
v 0.00741926 0.02191251 -0.00163501
v 0.00734649 0.02201292 -0.00171310
v 0.00712917 0.02241603 -0.00142782
v 0.00721866 0.02228313 -0.00142782
v 0.00695905 0.02258436 -0.00169595
v 0.00688038 0.02271282 -0.00160657
v 0.00743204 0.02193466 -0.00142782
v 0.00744286 0.02195533 -0.00115924
v 0.00737108 0.02209856 -0.00089066
v 0.00744778 0.02196419 -0.00089066
v 0.00745368 0.02197453 -0.00035440
v 0.00756873 0.02176042 0.00071993
v 0.00745663 0.02197896 0.00018277
v 0.00737993 0.02211333 -0.00008581
v 0.00765428 0.02158176 0.00125664
v 0.00756381 0.02176042 0.00098806
v 0.00789422 0.02098079 0.00179380
v 0.00795519 0.02084346 0.00182314
v 0.00780670 0.02122295 0.00152522
v 0.00777917 0.02122295 0.00179380
v 0.00812925 0.02041821 0.00182314
v 0.00770935 0.02142524 0.00152522
v 0.00614876 0.02357072 0.00098806
v 0.00616843 0.02342601 0.00182314
v 0.00618613 0.02341420 0.00180960
v 0.00635822 0.02326063 0.00179380
v 0.00638575 0.02328869 0.00152522
v 0.00628348 0.02345850 0.00098806
v 0.00640640 0.02330936 0.00125664
v 0.00629036 0.02346588 0.00071993
v 0.00630020 0.02347621 0.00018277
v 0.00643688 0.02334184 -0.00008581
v 0.00643197 0.02333741 -0.00035440
v 0.00642705 0.02333151 -0.00062207
v 0.00642017 0.02332413 -0.00089066
v 0.00640738 0.02331084 -0.00115924
v 0.00638673 0.02328869 -0.00142782
v 0.00649097 0.02312922 -0.00169595
v 0.00660799 0.02297418 -0.00184762
v 0.00657947 0.02294464 -0.00202682
v 0.00640345 0.02303471 -0.00223311
v 0.00568166 0.02332265 -0.00278743
v 0.00612713 0.02301995 -0.00272288
v 0.00595406 0.02311888 -0.00278743
v 0.00589112 0.02316613 -0.00278743
v 0.00564233 0.02335070 -0.00278743
v 0.00653719 0.02289739 -0.00223311
v 0.00646540 0.02282947 -0.00249582
v 0.00630610 0.02294169 -0.00259242
v 0.00653522 0.02256664 -0.00278743
v 0.00665322 0.02248690 -0.00271746
v 0.00657161 0.02266557 -0.00257843
v 0.00686071 0.02268772 -0.00178532
v 0.00668666 0.02284571 -0.00194828
v 0.00735239 0.02206903 -0.00142782
v 0.00713802 0.02242932 -0.00127795
v 0.00701805 0.02256516 -0.00142782
v 0.00721669 0.02232300 -0.00117684
v 0.00736518 0.02208823 -0.00115924
v 0.00677713 0.02281470 -0.00169595
v 0.00662766 0.02299485 -0.00169595
v 0.00678794 0.02286491 -0.00142782
v 0.00689415 0.02273054 -0.00142782
v 0.00737698 0.02210890 -0.00035440
v 0.00724816 0.02229642 -0.00089066
v 0.00725504 0.02229642 -0.00062207
v 0.00737993 0.02211333 0.00018277
v 0.00745368 0.02197453 0.00045135
v 0.00726684 0.02229642 -0.00008581
v 0.00764347 0.02155961 0.00152522
v 0.00755496 0.02176042 0.00125664
v 0.00753235 0.02176042 0.00152522
v 0.00744778 0.02196419 0.00098806
v 0.00789324 0.02097488 0.00182314
v 0.00779097 0.02118898 0.00182314
v 0.00769362 0.02139275 0.00182314
v 0.00634150 0.02326802 0.00182314
v 0.00635428 0.02325620 0.00182314
v 0.00637100 0.02323996 0.00182314
v 0.00649294 0.02312922 0.00179380
v 0.00652047 0.02315579 0.00152522
v 0.00642017 0.02332413 0.00098806
v 0.00654112 0.02317499 0.00125664
v 0.00642705 0.02333151 0.00071993
v 0.00643197 0.02333741 0.00045135
v 0.00643688 0.02334184 0.00018277
v 0.00657062 0.02320157 -0.00008581
v 0.00656669 0.02319862 -0.00035440
v 0.00656079 0.02319419 -0.00062207
v 0.00655489 0.02318828 -0.00089066
v 0.00654210 0.02317499 -0.00115924
v 0.00652145 0.02315727 -0.00142782
v 0.00620088 0.02291216 -0.00278743
v 0.00637887 0.02274826 -0.00277027
v 0.00626283 0.02285162 -0.00278743
v 0.00621366 0.02290035 -0.00278743
v 0.00649785 0.02260798 -0.00278743
v 0.00714589 0.02243965 -0.00109920
v 0.00690988 0.02275269 -0.00115924
v 0.00706230 0.02254449 -0.00117684
v 0.00715179 0.02244851 -0.00089066
v 0.00665421 0.02302290 -0.00142782
v 0.00680564 0.02288706 -0.00115924
v 0.00726094 0.02229642 -0.00035440
v 0.00715572 0.02245294 -0.00062207
v 0.00737698 0.02210890 0.00045135
v 0.00726684 0.02229642 0.00018277
v 0.00715769 0.02245885 -0.00035440
v 0.00716064 0.02246180 -0.00008581
v 0.00762773 0.02153008 0.00179380
v 0.00737108 0.02209856 0.00098806
v 0.00736518 0.02208823 0.00125664
v 0.00743106 0.02193318 0.00152522
v 0.00748318 0.02178552 0.00181096
v 0.00762675 0.02152417 0.00182314
v 0.00648900 0.02312479 0.00182314
v 0.00662766 0.02299485 0.00179380
v 0.00665322 0.02302143 0.00152522
v 0.00655489 0.02318828 0.00098806
v 0.00667092 0.02304062 0.00125664
v 0.00656079 0.02319419 0.00071993
v 0.00656669 0.02319862 0.00045135
v 0.00657062 0.02320157 0.00018277
v 0.00669354 0.02306720 -0.00008581
v 0.00668961 0.02306425 -0.00035440
v 0.00668666 0.02305982 -0.00062207
v 0.00668272 0.02305391 -0.00089066
v 0.00667191 0.02304062 -0.00115924
v 0.00637297 0.02274087 -0.00278743
v 0.00691971 0.02276598 -0.00089066
v 0.00681646 0.02290035 -0.00089066
v 0.00706328 0.02259174 -0.00035440
v 0.00692463 0.02277188 -0.00062207
v 0.00706722 0.02259617 -0.00008581
v 0.00725504 0.02229642 0.00071993
v 0.00716064 0.02246180 0.00018277
v 0.00715769 0.02245885 0.00045135
v 0.00715572 0.02245294 0.00071993
v 0.00724816 0.02229642 0.00098806
v 0.00735141 0.02206755 0.00152522
v 0.00721571 0.02232300 0.00127154
v 0.00721767 0.02228166 0.00152522
v 0.00741828 0.02191103 0.00173287
v 0.00734649 0.02201144 0.00181096
v 0.00735338 0.02199668 0.00182314
v 0.00741139 0.02190070 0.00182314
v 0.00748220 0.02178257 0.00182314
v 0.00662372 0.02299042 0.00182314
v 0.00676434 0.02281913 0.00182314
v 0.00677614 0.02281470 0.00179019
v 0.00688038 0.02271134 0.00169811
v 0.00678794 0.02286343 0.00152522
v 0.00680564 0.02288706 0.00125664
v 0.00668272 0.02305391 0.00098806
v 0.00668666 0.02305982 0.00071993
v 0.00668961 0.02306425 0.00045135
v 0.00669354 0.02306720 0.00018277
v 0.00682728 0.02291511 -0.00008581
v 0.00682433 0.02291068 -0.00035440
v 0.00682039 0.02290625 -0.00062207
v 0.00693348 0.02278074 -0.00008581
v 0.00706722 0.02259617 0.00018277
v 0.00715179 0.02244851 0.00098806
v 0.00706328 0.02259174 0.00045135
v 0.00714589 0.02243965 0.00119209
v 0.00713802 0.02242932 0.00137084
v 0.00712819 0.02241603 0.00152522
v 0.00719800 0.02225213 0.00179380
v 0.00719505 0.02224770 0.00182314
v 0.00686563 0.02269215 0.00182314
v 0.00692070 0.02262127 0.00182314
v 0.00695610 0.02257550 0.00182314
v 0.00695807 0.02258288 0.00179019
v 0.00710459 0.02238207 0.00182314
v 0.00710754 0.02238650 0.00179380
v 0.00701707 0.02256516 0.00152522
v 0.00689316 0.02272906 0.00152522
v 0.00690988 0.02275269 0.00125664
v 0.00681646 0.02290035 0.00098806
v 0.00682039 0.02290625 0.00071993
v 0.00682433 0.02291068 0.00045135
v 0.00682728 0.02291511 0.00018277
v 0.00693348 0.02278074 0.00018277
v 0.00692463 0.02277188 0.00071993
v 0.00691971 0.02276598 0.00098806
v 0.00706230 0.02254449 0.00127154
v 0.00718522 0.02226246 0.00182314
f 4 5 1
f 4 2 5
f 1 5 6
f 5 2 15
f 1 2 3
f 3 4 1
f 2 4 3
f 7 8 1
f 1 6 7
f 14 15 2
f 13 14 2
f 20 12 19
f 35 36 20
f 20 34 35
f 300 299 257
f 53 37 36
f 73 51 50
f 50 72 73
f 50 36 35
f 50 51 36
f 9 10 1
f 1 8 9
f 17 10 16
f 19 16 27
f 27 29 19
f 22 12 21
f 12 20 21
f 21 20 36
f 21 37 22
f 36 37 21
f 74 51 73
f 73 101 74
f 60 61 41
f 89 61 60
f 124 89 164
f 934 935 879
f 879 935 931
f 52 76 77
f 52 74 76
f 52 53 36
f 36 51 52
f 51 74 52
f 78 79 108
f 220 269 222
f 135 136 99
f 135 178 136
f 279 325 280
f 280 231 279
f 279 231 278
f 102 74 101
f 76 74 102
f 185 141 182
f 513 466 511
f 511 564 567
f 759 700 763
f 700 699 638
f 638 699 637
f 22 37 38
f 37 54 38
f 37 53 55
f 78 54 55
f 55 54 37
f 55 79 78
f 1 10 11
f 10 17 11
f 97 96 133
f 133 134 97
f 29 44 30
f 30 31 19
f 19 29 30
f 30 46 31
f 43 44 29
f 67 96 68
f 96 97 68
f 958 906 960
f 210 165 167
f 167 165 125
f 165 126 125
f 125 91 124
f 125 126 91
f 1044 985 979
f 508 564 511
f 936 931 988
f 988 931 935
f 930 931 936
f 194 151 150
f 77 79 75
f 75 52 77
f 79 55 75
f 53 52 75
f 75 55 53
f 111 108 79
f 150 151 110
f 151 111 110
f 110 111 79
f 169 217 170
f 131 94 128
f 221 222 224
f 224 222 269
f 221 224 180
f 180 224 225
f 178 135 180
f 177 135 134
f 134 176 177
f 177 222 221
f 220 222 177
f 177 176 220
f 139 102 101
f 139 138 182
f 77 76 103
f 76 102 103
f 231 187 186
f 141 185 186
f 1031 966 964
f 1021 960 1020
f 1100 1034 1099
f 1099 1034 1096
f 1096 1098 1099
f 1140 1080 1074
f 1074 1080 1010
f 1010 1009 1074
f 1009 1010 955
f 954 1009 955
f 936 882 881
f 881 930 936
f 884 816 815
f 885 884 938
f 878 934 879
f 933 934 878
f 811 881 812
f 812 881 882
f 563 567 564
f 564 508 563
f 566 623 563
f 511 567 568
f 324 279 278
f 325 279 324
f 702 703 642
f 642 641 702
f 701 699 700
f 701 759 702
f 700 638 698
f 19 12 18
f 18 28 19
f 25 16 19
f 19 28 25
f 98 135 99
f 98 68 97
f 134 135 98
f 98 97 134
f 66 96 67
f 66 43 65
f 67 43 66
f 92 66 65
f 133 96 95
f 96 66 95
f 95 66 94
f 45 30 44
f 46 30 45
f 45 43 67
f 44 43 45
f 67 68 45
f 31 48 32
f 32 48 33
f 32 33 19
f 19 31 32
f 31 46 47
f 47 48 31
f 71 101 73
f 73 72 71
f 730 733 666
f 729 728 793
f 442 489 443
f 443 385 442
f 488 487 538
f 538 540 488
f 488 489 442
f 539 489 488
f 488 540 539
f 491 489 539
f 491 443 489
f 1037 1034 1100
f 1037 1035 1034
f 975 920 974
f 974 1042 975
f 1105 1173 1114
f 1048 1050 1046
f 781 716 715
f 962 964 912
f 780 781 715
f 969 971 920
f 1034 1035 969
f 975 1042 977
f 979 985 980
f 979 980 924
f 924 980 925
f 864 921 924
f 924 925 864
f 41 63 64
f 62 63 41
f 62 41 61
f 91 63 90
f 124 91 90
f 90 89 124
f 63 62 90
f 61 89 90
f 90 62 61
f 213 210 167
f 153 113 116
f 116 154 153
f 153 154 113
f 88 89 60
f 88 164 89
f 116 113 84
f 304 300 257
f 402 349 401
f 396 346 397
f 397 346 395
f 395 346 345
f 1302 1303 1272
f 1302 1272 1301
f 1327 1303 1302
f 1302 1326 1327
f 985 1044 1049
f 506 557 558
f 505 557 506
f 316 357 364
f 311 357 316
f 463 508 511
f 741 742 746
f 746 688 741
f 880 881 811
f 930 881 880
f 819 820 755
f 237 283 284
f 283 237 236
f 236 237 194
f 284 283 327
f 239 282 235
f 284 285 238
f 238 237 284
f 194 237 238
f 239 194 238
f 238 285 239
f 107 79 77
f 150 110 149
f 149 110 148
f 148 193 149
f 149 194 150
f 149 193 194
f 109 146 148
f 148 110 109
f 109 110 79
f 79 107 109
f 109 107 146
f 588 529 587
f 587 643 645
f 645 642 706
f 643 642 645
f 130 170 133
f 133 95 130
f 130 95 94
f 174 134 133
f 133 170 174
f 94 131 132
f 132 131 171
f 307 351 306
f 221 180 179
f 179 180 135
f 179 177 221
f 135 177 179
f 182 141 140
f 140 139 182
f 102 139 140
f 140 103 102
f 141 103 140
f 1030 1096 1031
f 1031 964 1030
f 1030 1098 1096
f 1030 1029 1092
f 964 1029 1030
f 914 964 966
f 1091 1021 1020
f 1022 1021 1092
f 960 1021 1022
f 1092 1021 1094
f 1006 1079 1074
f 1005 1075 1006
f 1271 1272 1230
f 1166 1099 1098
f 1073 1075 1005
f 1139 1140 1074
f 1074 1138 1139
f 1139 1138 1204
f 1204 1138 1200
f 1252 1207 1210
f 1210 1209 1252
f 1145 1142 1077
f 1077 1144 1145
f 1145 1144 1207
f 1074 1079 1137
f 1137 1138 1074
f 1137 1200 1138
f 1201 1251 1202
f 1202 1137 1201
f 1201 1137 1142
f 1207 1251 1201
f 1201 1145 1207
f 1142 1145 1201
f 1210 1207 1206
f 1207 1144 1206
f 954 948 1004
f 1004 948 952
f 1074 1009 1004
f 1004 1009 954
f 952 948 898
f 898 948 895
f 895 948 899
f 824 828 895
f 759 763 824
f 954 955 900
f 830 899 900
f 900 948 954
f 900 899 948
f 883 884 815
f 808 878 879
f 933 878 932
f 625 622 681
f 566 622 625
f 625 623 566
f 683 623 625
f 807 808 740
f 815 749 813
f 813 749 748
f 811 812 747
f 747 812 748
f 747 746 811
f 688 746 747
f 567 563 624
f 624 563 623
f 566 563 562
f 562 563 508
f 184 228 229
f 182 138 184
f 184 226 182
f 231 186 230
f 276 230 226
f 278 231 276
f 231 230 276
f 368 429 370
f 370 326 325
f 274 225 316
f 758 761 700
f 758 698 697
f 700 698 758
f 947 896 894
f 894 896 826
f 697 756 757
f 823 761 757
f 757 758 697
f 761 758 757
f 825 894 826
f 825 761 823
f 823 894 825
f 762 763 700
f 762 824 763
f 828 824 762
f 700 761 762
f 761 825 762
f 762 825 826
f 760 700 759
f 759 701 760
f 760 701 700
f 518 471 517
f 518 519 471
f 519 518 574
f 26 17 16
f 16 25 26
f 128 94 93
f 94 66 93
f 66 92 93
f 49 71 72
f 49 50 35
f 72 50 49
f 35 34 49
f 70 47 46
f 48 47 70
f 100 137 138
f 138 139 100
f 504 555 556
f 869 803 802
f 801 802 735
f 721 787 735
f 737 679 735
f 492 546 495
f 728 727 792
f 792 793 728
f 729 793 795
f 920 921 859
f 859 921 864
f 859 858 920
f 793 858 859
f 1208 1209 1150
f 1028 1029 964
f 542 491 545
f 545 491 544
f 443 491 490
f 492 445 490
f 490 445 443
f 540 595 598
f 663 727 728
f 544 491 543
f 543 603 544
f 543 491 539
f 786 787 721
f 1041 974 1038
f 1042 974 1041
f 979 1041 1045
f 1045 1041 1108
f 1180 1114 1173
f 985 1049 1047
f 1047 1049 1048
f 1116 1048 1115
f 1050 1048 1116
f 869 802 868
f 868 802 801
f 958 960 961
f 961 960 1024
f 1024 1028 1026
f 1026 1028 964
f 1026 961 1024
f 779 780 715
f 907 906 958
f 778 779 715
f 971 969 1036
f 1036 969 1035
f 1036 1037 971
f 1035 1037 1036
f 1096 1034 1032
f 1031 1096 1032
f 1032 966 1031
f 981 980 985
f 925 980 981
f 979 924 978
f 978 924 977
f 978 977 1042
f 978 1041 979
f 1042 1041 978
f 975 977 970
f 977 924 970
f 970 920 975
f 970 921 920
f 970 924 921
f 24 41 42
f 41 64 42
f 210 213 255
f 257 299 255
f 255 213 257
f 119 155 113
f 113 154 121
f 60 86 87
f 87 88 60
f 157 154 116
f 157 163 154
f 164 88 123
f 123 163 164
f 88 87 123
f 154 163 123
f 257 288 301
f 301 288 332
f 241 288 256
f 332 288 290
f 202 244 245
f 85 84 59
f 84 57 59
f 116 84 115
f 115 84 85
f 207 253 209
f 397 395 453
f 1273 1272 1305
f 1345 1327 1326
f 1115 1112 1179
f 1111 1112 1044
f 1176 1179 1111
f 1111 1179 1112
f 1115 1048 1113
f 1048 1049 1113
f 1113 1049 1044
f 1113 1112 1115
f 1044 1112 1113
f 404 458 459
f 460 505 506
f 506 461 460
f 460 459 505
f 404 459 460
f 506 558 507
f 507 461 506
f 316 364 365
f 412 364 357
f 357 311 356
f 272 224 269
f 273 311 316
f 316 225 273
f 225 224 273
f 511 466 465
f 465 463 511
f 466 412 465
f 990 934 933
f 935 934 990
f 751 749 815
f 751 750 749
f 823 892 893
f 947 894 893
f 893 894 823
f 755 820 821
f 821 756 755
f 754 819 755
f 816 884 817
f 817 754 816
f 817 885 886
f 817 884 885
f 283 236 234
f 239 285 286
f 240 194 239
f 239 235 240
f 329 285 284
f 284 327 329
f 433 377 375
f 649 710 711
f 647 710 648
f 648 710 649
f 529 590 530
f 530 479 529
f 647 588 646
f 646 645 708
f 646 588 587
f 587 645 646
f 175 176 134
f 134 174 175
f 217 176 175
f 306 351 308
f 129 132 169
f 169 170 129
f 170 130 129
f 129 130 94
f 94 132 129
f 172 132 171
f 306 261 262
f 262 307 306
f 280 234 233
f 233 234 189
f 144 143 187
f 144 105 143
f 1097 1030 1092
f 1098 1030 1097
f 967 914 966
f 918 914 967
f 967 969 918
f 966 1032 967
f 912 964 965
f 965 914 912
f 964 914 965
f 912 914 913
f 854 852 851
f 851 852 784
f 1092 1029 1095
f 1095 1022 1092
f 1143 1144 1077
f 1077 1141 1143
f 1199 1144 1143
f 1076 1006 1075
f 1076 1141 1077
f 1077 1006 1076
f 1089 1088 1156
f 1158 1091 1089
f 1020 960 1019
f 1088 1089 1019
f 1167 1166 1217
f 1099 1166 1167
f 971 1037 972
f 920 971 972
f 1230 1173 1229
f 885 938 937
f 937 882 936
f 937 883 882
f 937 938 884
f 884 883 937
f 886 885 887
f 820 819 890
f 1158 1089 1157
f 1156 1198 1157
f 1157 1089 1156
f 1199 1198 1205
f 1205 1144 1199
f 1003 1002 1071
f 1005 950 1003
f 1003 1073 1005
f 946 1002 1003
f 1075 1073 1134
f 1134 1076 1075
f 1141 1076 1134
f 1134 1143 1141
f 1253 1252 1287
f 1207 1252 1253
f 1079 1006 1078
f 1078 1137 1079
f 1142 1137 1078
f 1077 1142 1078
f 1078 1006 1077
f 1203 1137 1202
f 1200 1137 1203
f 952 1006 1007
f 1007 1004 952
f 1007 1006 1074
f 1074 1004 1007
f 897 898 826
f 826 896 897
f 896 950 897
f 952 898 897
f 895 899 829
f 829 824 895
f 829 899 830
f 769 771 710
f 1011 1010 1080
f 1011 955 1010
f 956 900 955
f 830 900 901
f 814 812 882
f 882 883 814
f 814 883 815
f 748 812 814
f 815 813 814
f 814 813 748
f 873 808 879
f 879 931 873
f 931 930 873
f 742 740 809
f 740 808 809
f 877 932 878
f 877 808 876
f 878 808 877
f 682 738 681
f 681 621 682
f 560 621 620
f 681 622 620
f 620 621 681
f 681 738 686
f 686 625 681
f 683 625 686
f 739 686 744
f 739 740 683
f 683 686 739
f 806 807 740
f 806 739 805
f 740 739 806
f 805 870 806
f 806 870 807
f 808 807 872
f 690 687 745
f 745 750 690
f 749 750 745
f 689 747 748
f 688 747 689
f 748 749 689
f 749 745 689
f 689 745 687
f 741 688 685
f 183 184 138
f 228 184 183
f 183 223 228
f 181 223 183
f 183 137 181
f 138 137 183
f 225 274 270
f 270 274 312
f 362 315 361
f 226 230 227
f 227 185 182
f 182 226 227
f 363 315 362
f 362 366 363
f 326 370 371
f 640 641 580
f 702 641 640
f 637 578 576
f 822 892 823
f 823 757 822
f 822 757 756
f 756 821 822
f 822 821 892
f 895 828 827
f 828 762 827
f 827 898 895
f 826 898 827
f 827 762 826
f 469 415 468
f 467 468 413
f 467 512 469
f 469 468 467
f 466 512 467
f 466 513 514
f 514 512 466
f 570 516 514
f 416 415 471
f 690 750 691
f 636 698 638
f 128 93 127
f 127 93 92
f 68 98 69
f 69 45 68
f 46 45 69
f 69 70 46
f 619 555 618
f 619 556 555
f 452 500 501
f 501 453 452
f 452 453 395
f 551 498 497
f 553 613 614
f 615 555 614
f 555 553 614
f 499 498 552
f 552 498 551
f 801 735 800
f 800 735 787
f 800 786 801
f 787 786 800
f 618 672 671
f 671 679 618
f 721 735 671
f 671 735 679
f 919 969 920
f 920 858 919
f 918 969 919
f 919 858 918
f 918 858 917
f 917 914 918
f 854 858 855
f 793 792 855
f 791 792 727
f 791 852 854
f 854 855 791
f 791 855 792
f 864 795 856
f 856 795 793
f 535 536 487
f 535 486 534
f 487 486 535
f 487 536 537
f 537 536 593
f 538 487 537
f 537 593 538
f 715 716 651
f 596 540 538
f 538 595 596
f 596 595 540
f 784 785 718
f 653 717 718
f 719 653 718
f 718 785 719
f 784 852 790
f 790 785 784
f 852 791 790
f 727 785 790
f 790 791 727
f 716 781 782
f 782 717 716
f 781 717 782
f 653 595 594
f 538 593 594
f 594 595 538
f 593 536 594
f 1287 1252 1255
f 1255 1252 1209
f 1209 1208 1255
f 534 486 533
f 441 486 487
f 441 488 442
f 487 488 441
f 436 437 381
f 386 340 385
f 540 598 599
f 727 663 720
f 719 785 720
f 720 785 727
f 544 603 604
f 603 663 604
f 604 605 544
f 602 545 544
f 544 605 602
f 542 545 602
f 602 601 542
f 667 605 666
f 666 733 667
f 1108 1107 1106
f 1105 1114 1106
f 1106 1045 1108
f 1114 1045 1106
f 1102 1041 1038
f 1108 1041 1102
f 1228 1180 1173
f 1228 1173 1230
f 1110 1045 1114
f 1046 1050 986
f 916 927 968
f 868 853 916
f 916 853 866
f 985 1047 984
f 984 927 985
f 968 927 984
f 1046 986 984
f 984 1048 1046
f 984 1047 1048
f 982 981 985
f 925 981 982
f 964 962 1027
f 1027 1026 964
f 962 961 1027
f 961 1026 1027
f 963 962 912
f 844 907 908
f 958 961 908
f 908 907 958
f 780 779 848
f 784 849 848
f 781 780 848
f 848 849 781
f 847 846 784
f 847 779 846
f 784 848 847
f 847 848 779
f 844 910 845
f 845 778 844
f 779 778 845
f 845 910 846
f 846 779 845
f 842 905 843
f 906 907 843
f 843 778 842
f 843 907 844
f 844 778 843
f 841 905 842
f 842 778 841
f 1034 969 1033
f 1033 1032 1034
f 969 967 1033
f 1033 967 1032
f 86 119 120
f 120 87 86
f 121 87 120
f 120 119 113
f 113 121 120
f 122 121 154
f 122 87 121
f 154 123 122
f 122 123 87
f 163 157 199
f 156 157 116
f 116 115 156
f 257 213 212
f 212 213 167
f 241 256 211
f 332 290 333
f 333 378 332
f 113 155 114
f 80 112 85
f 85 59 80
f 40 59 57
f 117 159 160
f 158 159 117
f 161 117 160
f 254 253 289
f 254 209 253
f 241 197 242
f 197 209 242
f 209 254 242
f 242 254 289
f 289 290 242
f 242 290 288
f 349 402 400
f 400 398 349
f 300 304 347
f 347 304 349
f 349 398 347
f 554 503 553
f 554 555 504
f 554 553 555
f 454 402 401
f 454 455 402
f 402 455 456
f 456 457 402
f 503 457 456
f 502 456 455
f 553 503 502
f 503 456 502
f 380 339 379
f 340 339 380
f 379 435 380
f 380 381 340
f 380 435 436
f 436 381 380
f 340 295 337
f 394 395 345
f 345 344 394
f 394 452 395
f 296 344 345
f 296 248 295
f 295 344 296
f 343 344 295
f 1304 1272 1303
f 1304 1305 1272
f 355 309 354
f 354 406 355
f 355 406 408
f 405 351 404
f 560 507 559
f 559 507 558
f 561 507 560
f 560 620 561
f 561 620 622
f 565 622 566
f 565 561 622
f 411 412 357
f 310 309 355
f 355 356 310
f 310 356 311
f 989 990 933
f 815 816 753
f 753 751 815
f 192 234 236
f 192 193 148
f 194 193 192
f 192 236 194
f 281 234 280
f 280 325 281
f 325 326 281
f 283 234 281
f 281 327 283
f 326 327 281
f 189 234 190
f 148 146 190
f 234 192 190
f 190 192 148
f 195 240 235
f 151 194 195
f 194 240 195
f 285 329 330
f 330 329 374
f 374 375 330
f 433 375 432
f 432 375 374
f 481 479 433
f 647 648 589
f 589 648 590
f 589 590 529
f 589 588 647
f 529 588 589
f 591 648 649
f 590 648 591
f 531 530 591
f 591 530 590
f 835 771 837
f 480 530 531
f 479 530 480
f 433 479 480
f 522 473 521
f 362 361 419
f 523 473 522
f 474 475 426
f 525 475 474
f 267 308 309
f 220 265 266
f 265 308 266
f 266 267 220
f 308 267 266
f 264 308 265
f 264 261 306
f 306 308 264
f 169 132 173
f 173 172 169
f 132 172 173
f 218 262 261
f 404 351 352
f 351 307 352
f 77 103 104
f 104 105 77
f 104 103 141
f 143 105 142
f 141 186 142
f 142 104 141
f 105 104 142
f 142 186 187
f 187 143 142
f 106 107 77
f 77 105 106
f 232 231 280
f 280 233 232
f 232 187 231
f 188 233 189
f 189 144 188
f 188 144 187
f 187 232 188
f 188 232 233
f 145 144 189
f 145 190 146
f 189 190 145
f 105 144 145
f 145 106 105
f 146 107 145
f 107 106 145
f 850 913 914
f 914 851 850
f 850 851 784
f 784 846 850
f 850 846 912
f 912 913 850
f 1023 1095 1029
f 1024 960 1023
f 960 1022 1023
f 1022 1095 1023
f 1023 1028 1024
f 1029 1028 1023
f 1092 1094 1160
f 1165 1213 1217
f 1217 1166 1165
f 1165 1166 1098
f 1148 1086 1147
f 1150 1209 1151
f 1151 1086 1150
f 1151 1153 1088
f 1151 1209 1210
f 1210 1153 1151
f 1020 1019 1090
f 1090 1019 1089
f 1090 1091 1020
f 1090 1089 1091
f 1088 1019 1087
f 1169 1104 1100
f 1101 1037 1100
f 1100 1104 1101
f 973 974 920
f 920 972 973
f 1038 974 973
f 973 972 1038
f 1270 1271 1230
f 1230 1229 1270
f 1174 1173 1105
f 1174 1229 1173
f 888 887 939
f 885 937 939
f 939 887 885
f 818 887 888
f 888 889 818
f 818 889 890
f 886 887 818
f 818 817 886
f 818 890 819
f 819 754 818
f 754 817 818
f 820 890 891
f 891 821 820
f 892 821 891
f 947 893 891
f 891 893 892
f 891 946 947
f 1155 1198 1156
f 1155 1205 1198
f 1156 1088 1155
f 1154 1206 1144
f 1144 1205 1154
f 1210 1206 1154
f 1154 1153 1210
f 1205 1155 1154
f 1088 1153 1154
f 1154 1155 1088
f 949 950 896
f 949 1003 950
f 949 896 947
f 947 946 949
f 946 1003 949
f 1072 1134 1073
f 1072 1003 1071
f 1073 1003 1072
f 1130 1195 1131
f 1254 1251 1207
f 1207 1253 1254
f 952 897 951
f 1005 1006 951
f 951 1006 952
f 951 950 1005
f 951 897 950
f 702 759 764
f 764 703 702
f 709 710 647
f 709 769 710
f 647 646 709
f 709 646 708
f 708 769 709
f 837 771 836
f 1008 956 1014
f 1014 956 1013
f 1013 956 1012
f 955 1011 1012
f 1012 956 955
f 953 901 900
f 953 956 1008
f 900 956 953
f 902 901 953
f 953 903 902
f 766 829 830
f 930 880 874
f 874 873 930
f 808 873 874
f 874 809 808
f 743 686 738
f 744 686 743
f 805 739 804
f 804 739 744
f 807 870 871
f 871 872 807
f 687 627 626
f 624 685 626
f 567 624 626
f 626 685 688
f 626 568 567
f 626 627 568
f 688 689 626
f 626 689 687
f 568 627 569
f 569 514 513
f 570 514 569
f 569 513 511
f 511 568 569
f 741 685 684
f 684 623 683
f 684 624 623
f 684 685 624
f 683 740 684
f 684 742 741
f 684 740 742
f 223 270 271
f 228 223 271
f 315 314 271
f 414 359 413
f 413 468 414
f 414 468 415
f 321 367 368
f 323 314 315
f 315 363 323
f 366 319 323
f 323 363 366
f 702 640 639
f 639 701 702
f 699 701 639
f 639 640 578
f 637 699 639
f 639 578 637
f 413 365 423
f 423 467 413
f 422 412 466
f 466 467 422
f 364 412 422
f 467 423 422
f 422 365 364
f 422 423 365
f 515 415 469
f 515 514 516
f 690 691 629
f 575 638 637
f 575 636 638
f 574 636 575
f 519 574 575
f 637 576 575
f 575 576 519
f 635 636 574
f 697 698 635
f 698 636 635
f 630 631 571
f 631 572 571
f 678 619 618
f 678 679 736
f 618 679 678
f 499 500 451
f 500 452 451
f 612 614 613
f 615 614 612
f 616 555 615
f 677 616 676
f 677 676 734
f 854 851 915
f 915 858 854
f 915 917 858
f 915 851 914
f 914 917 915
f 857 858 793
f 793 855 857
f 857 855 858
f 793 859 860
f 860 856 793
f 860 859 864
f 864 856 860
f 651 594 650
f 714 651 712
f 714 773 715
f 715 651 714
f 716 717 652
f 652 651 716
f 652 594 651
f 652 717 653
f 653 594 652
f 783 717 781
f 781 849 783
f 783 718 717
f 784 718 783
f 783 849 784
f 715 773 774
f 1147 1086 1085
f 1083 1084 1017
f 1086 1087 1017
f 1084 1085 1017
f 1017 1085 1086
f 959 960 906
f 1025 1017 960
f 1083 1017 1025
f 532 533 486
f 340 381 382
f 382 381 437
f 382 383 340
f 437 383 382
f 484 441 439
f 494 448 447
f 493 494 447
f 492 495 447
f 447 495 493
f 443 445 444
f 445 386 444
f 385 443 444
f 444 386 385
f 340 386 387
f 601 659 660
f 597 599 543
f 597 543 539
f 539 540 597
f 540 599 597
f 603 598 654
f 719 720 654
f 654 653 719
f 654 595 653
f 654 598 595
f 666 605 664
f 605 604 664
f 664 730 666
f 729 730 664
f 664 604 663
f 657 602 605
f 601 602 657
f 731 797 798
f 866 853 798
f 789 853 786
f 725 731 796
f 731 798 796
f 796 798 853
f 732 667 733
f 724 786 721
f 724 789 786
f 723 789 724
f 1038 972 1040
f 1040 1102 1038
f 1040 1103 1105
f 1105 1106 1040
f 1040 1106 1107
f 1040 1107 1108
f 1108 1102 1040
f 1234 1178 1180
f 1180 1228 1234
f 1268 1228 1230
f 1230 1272 1268
f 1268 1272 1273
f 1273 1234 1268
f 1268 1234 1228
f 979 1045 1043
f 1045 1110 1043
f 1043 1044 979
f 1175 1110 1178
f 1180 1178 1177
f 1178 1110 1177
f 1114 1180 1177
f 1177 1110 1114
f 867 916 866
f 927 916 867
f 922 927 867
f 867 861 922
f 869 868 928
f 868 916 928
f 928 916 968
f 968 984 928
f 928 986 987
f 928 984 986
f 923 976 922
f 922 861 923
f 925 982 983
f 985 927 983
f 983 982 985
f 846 910 911
f 910 963 911
f 912 846 911
f 911 963 912
f 909 963 910
f 909 910 844
f 844 908 909
f 909 908 961
f 909 961 962
f 962 963 909
f 777 776 838
f 715 776 777
f 777 778 715
f 863 862 865
f 865 795 864
f 865 862 795
f 241 199 198
f 198 197 241
f 198 156 197
f 160 159 203
f 245 246 203
f 202 245 203
f 203 159 202
f 203 246 247
f 81 84 113
f 81 57 84
f 56 80 59
f 158 117 152
f 208 160 207
f 207 161 208
f 208 161 160
f 162 161 207
f 197 156 162
f 207 209 162
f 162 209 197
f 243 244 202
f 202 200 243
f 202 159 201
f 201 200 202
f 158 200 201
f 201 159 158
f 287 288 241
f 241 242 287
f 287 242 288
f 247 248 204
f 248 249 204
f 204 203 247
f 160 203 204
f 160 204 205
f 205 204 249
f 401 349 399
f 303 348 304
f 303 304 257
f 303 301 332
f 345 346 298
f 346 333 298
f 298 290 289
f 298 333 290
f 392 394 344
f 344 343 392
f 452 394 392
f 392 451 452
f 353 308 351
f 351 405 353
f 353 405 354
f 309 308 353
f 353 354 309
f 409 356 355
f 355 408 409
f 463 408 462
f 508 463 462
f 404 460 407
f 407 405 404
f 407 460 461
f 354 405 407
f 406 354 407
f 507 561 509
f 561 565 509
f 509 462 507
f 356 409 410
f 463 465 410
f 357 356 410
f 410 411 357
f 410 408 463
f 410 409 408
f 311 272 268
f 268 310 311
f 268 272 269
f 309 310 268
f 268 269 220
f 220 267 268
f 268 267 309
f 990 989 1053
f 1183 1119 1118
f 935 990 991
f 991 988 935
f 991 1051 988
f 1326 1325 1333
f 1332 1345 1333
f 1333 1345 1326
f 1300 1325 1326
f 1300 1326 1302
f 1324 1325 1300
f 1217 1213 1162
f 1162 1160 1094
f 1213 1160 1162
f 692 631 630
f 750 751 692
f 191 195 235
f 331 377 373
f 285 330 331
f 331 286 285
f 433 432 478
f 478 432 477
f 478 481 433
f 477 481 478
f 771 835 770
f 770 711 710
f 710 771 770
f 434 377 433
f 433 480 434
f 519 576 520
f 576 521 520
f 471 519 520
f 520 521 471
f 577 576 578
f 577 521 576
f 577 578 522
f 522 521 577
f 362 419 420
f 417 416 472
f 472 419 417
f 472 416 471
f 471 521 472
f 472 521 473
f 524 525 474
f 474 473 524
f 473 523 524
f 524 523 580
f 578 640 579
f 522 578 579
f 579 523 522
f 579 640 580
f 580 523 579
f 368 367 427
f 427 426 475
f 427 367 366
f 366 426 427
f 475 476 428
f 428 429 368
f 430 370 429
f 430 371 370
f 479 481 528
f 587 529 528
f 529 479 528
f 219 264 265
f 219 176 217
f 220 176 219
f 219 265 220
f 261 259 216
f 259 219 216
f 216 217 169
f 216 219 217
f 169 172 215
f 172 218 215
f 215 216 169
f 218 216 215
f 1159 1097 1092
f 1092 1160 1159
f 1159 1160 1213
f 1213 1165 1159
f 1098 1097 1159
f 1159 1165 1098
f 1150 1086 1149
f 1086 1148 1149
f 1088 1087 1152
f 1152 1087 1086
f 1152 1151 1088
f 1086 1151 1152
f 1168 1169 1100
f 1100 1099 1168
f 1099 1167 1168
f 1039 1101 1104
f 1039 972 1037
f 1037 1101 1039
f 1324 1300 1299
f 1299 1300 1270
f 1299 1297 1321
f 1270 1297 1299
f 1105 1103 1170
f 1170 1174 1105
f 1170 1103 1171
f 1171 1174 1170
f 1226 1174 1171
f 1068 1130 1131
f 1212 1157 1198
f 1198 1197 1212
f 1212 1197 1157
f 1131 1195 1132
f 1136 1198 1199
f 1199 1143 1136
f 1143 1134 1136
f 1134 1072 1136
f 1194 1130 1129
f 1249 1250 1194
f 1195 1130 1194
f 1194 1250 1195
f 706 767 707
f 707 645 706
f 708 645 707
f 707 769 708
f 706 642 705
f 705 767 706
f 904 903 957
f 957 953 1008
f 903 953 957
f 904 836 834
f 834 903 904
f 834 836 771
f 832 901 902
f 810 874 880
f 811 746 810
f 810 880 811
f 809 874 810
f 810 746 742
f 742 809 810
f 876 808 875
f 808 872 875
f 872 871 875
f 628 627 687
f 628 569 627
f 628 687 690
f 690 629 628
f 229 228 277
f 228 271 277
f 277 271 314
f 314 323 277
f 277 323 319
f 315 271 313
f 313 270 312
f 313 271 270
f 313 361 315
f 313 317 365
f 417 419 418
f 418 419 361
f 359 414 360
f 360 313 359
f 361 313 360
f 360 418 361
f 417 418 360
f 360 414 415
f 360 416 417
f 415 416 360
f 322 324 278
f 278 276 322
f 276 321 322
f 318 321 276
f 320 319 366
f 366 367 320
f 367 321 320
f 471 415 470
f 415 515 470
f 517 471 470
f 470 516 517
f 470 515 516
f 755 756 696
f 696 756 697
f 697 635 696
f 632 572 631
f 632 633 574
f 680 678 736
f 619 678 680
f 670 734 668
f 668 676 669
f 668 734 676
f 617 616 677
f 618 555 617
f 555 616 617
f 675 612 669
f 669 676 675
f 615 612 675
f 675 616 615
f 675 676 616
f 671 610 655
f 721 671 655
f 655 724 721
f 723 724 655
f 601 656 655
f 601 655 600
f 600 655 610
f 713 650 712
f 712 651 713
f 651 650 713
f 592 535 534
f 536 535 592
f 592 594 536
f 592 650 594
f 772 714 712
f 773 714 772
f 775 776 715
f 715 774 775
f 960 1017 1018
f 1018 1017 1087
f 1018 1019 960
f 1018 1087 1019
f 1083 1025 1082
f 1146 1084 1082
f 1082 1084 1083
f 484 532 485
f 485 441 484
f 486 441 485
f 485 532 486
f 438 383 437
f 438 439 383
f 384 441 442
f 442 385 384
f 383 439 384
f 385 340 384
f 340 383 384
f 446 445 492
f 492 447 446
f 656 660 722
f 722 655 656
f 723 655 722
f 722 660 725
f 722 789 723
f 661 656 601
f 601 660 661
f 661 660 656
f 603 654 662
f 662 654 720
f 662 663 603
f 662 720 663
f 726 728 729
f 729 664 726
f 726 663 728
f 726 664 663
f 658 657 605
f 658 659 601
f 601 657 658
f 794 730 729
f 733 730 794
f 794 862 863
f 799 798 797
f 861 867 799
f 866 798 799
f 799 867 866
f 725 796 788
f 788 796 853
f 853 789 788
f 788 722 725
f 789 722 788
f 665 731 725
f 667 732 665
f 605 667 665
f 725 658 665
f 665 658 605
f 1176 1175 1232
f 1232 1175 1178
f 1109 1175 1176
f 1110 1175 1109
f 1109 1043 1110
f 1044 1043 1109
f 1176 1111 1109
f 1109 1111 1044
f 869 928 929
f 929 928 987
f 976 923 926
f 926 983 976
f 925 983 926
f 839 777 838
f 840 841 778
f 778 777 840
f 840 839 841
f 777 839 840
f 196 198 199
f 156 198 196
f 196 199 157
f 157 156 196
f 113 114 82
f 82 81 113
f 57 81 82
f 39 40 23
f 39 56 40
f 59 40 58
f 58 56 59
f 40 56 58
f 118 162 156
f 161 162 118
f 118 156 115
f 118 115 85
f 85 117 118
f 117 161 118
f 291 248 247
f 291 292 248
f 248 292 293
f 293 337 295
f 338 339 293
f 293 339 340
f 340 337 293
f 207 160 206
f 206 205 207
f 160 205 206
f 250 253 207
f 207 205 250
f 289 253 250
f 250 298 289
f 257 301 302
f 302 303 257
f 301 303 302
f 393 392 343
f 451 392 393
f 510 565 566
f 508 462 510
f 510 509 565
f 462 509 510
f 566 562 510
f 510 562 508
f 464 410 465
f 411 410 464
f 464 465 412
f 412 411 464
f 1054 1053 1118
f 1118 1119 1054
f 990 1053 1054
f 888 939 940
f 940 939 937
f 936 988 992
f 1182 1183 1118
f 1119 1183 1184
f 1275 1306 1307
f 1056 1119 1120
f 1119 1184 1120
f 1120 1184 1185
f 1302 1301 1298
f 1298 1300 1302
f 1298 1301 1272
f 1272 1271 1298
f 1271 1270 1298
f 1270 1300 1298
f 1158 1157 1211
f 1211 1163 1158
f 1157 1197 1211
f 1093 1162 1094
f 1161 1162 1093
f 1021 1091 1093
f 1093 1094 1021
f 1093 1091 1158
f 1158 1163 1093
f 751 753 752
f 752 692 751
f 377 331 376
f 376 331 330
f 376 375 377
f 376 330 375
f 421 366 362
f 362 420 421
f 424 420 419
f 424 421 420
f 424 473 474
f 366 421 424
f 583 525 582
f 525 524 582
f 581 524 580
f 580 641 581
f 583 582 581
f 581 582 524
f 643 583 581
f 581 642 643
f 641 642 581
f 374 329 372
f 372 329 327
f 372 327 326
f 326 371 372
f 644 643 587
f 644 583 643
f 526 476 475
f 475 525 526
f 477 476 526
f 261 264 263
f 264 219 263
f 263 259 261
f 263 219 259
f 260 218 261
f 261 216 260
f 260 216 218
f 1269 1297 1270
f 1269 1270 1229
f 1341 1322 1320
f 1319 1317 1316
f 1324 1299 1323
f 1323 1299 1321
f 1323 1344 1324
f 1321 1343 1323
f 1070 1068 1131
f 1131 1132 1070
f 1070 1072 1071
f 1071 1002 1070
f 1065 1068 1001
f 1001 1002 946
f 1067 1068 1065
f 1130 1068 1067
f 1065 999 1067
f 1129 1130 1067
f 943 996 998
f 997 999 1065
f 1135 1197 1198
f 1198 1136 1135
f 1135 1136 1072
f 1196 1132 1195
f 1195 1250 1196
f 1196 1250 1219
f 1219 1197 1196
f 1197 1135 1196
f 1196 1135 1132
f 1193 1248 1249
f 1249 1194 1193
f 1193 1194 1129
f 704 766 767
f 767 705 704
f 703 764 704
f 704 642 703
f 704 705 642
f 902 903 833
f 903 834 833
f 833 832 902
f 830 901 831
f 901 832 831
f 831 766 830
f 831 832 766
f 413 359 358
f 359 313 358
f 358 365 413
f 358 313 365
f 324 322 369
f 369 322 321
f 369 321 368
f 368 370 369
f 325 324 369
f 369 370 325
f 321 318 275
f 319 320 275
f 275 320 321
f 275 276 226
f 275 318 276
f 275 184 229
f 226 184 275
f 517 572 573
f 572 632 573
f 573 632 574
f 573 518 517
f 573 574 518
f 341 295 340
f 340 387 388
f 388 447 448
f 388 446 447
f 445 446 388
f 388 386 445
f 388 387 386
f 499 451 450
f 450 498 499
f 550 608 607
f 550 607 551
f 551 497 550
f 550 497 496
f 496 608 550
f 673 611 672
f 673 672 618
f 618 617 673
f 541 546 492
f 542 601 541
f 601 600 541
f 492 490 541
f 541 491 542
f 541 490 491
f 1146 1082 1081
f 1081 1082 1015
f 1015 1082 1016
f 1016 1082 1025
f 1016 1025 960
f 1016 959 1015
f 960 959 1016
f 484 439 483
f 439 438 483
f 440 439 441
f 441 384 440
f 440 384 439
f 1178 1234 1233
f 1233 1232 1178
f 57 82 83
f 83 82 114
f 334 335 292
f 292 291 334
f 336 335 338
f 338 293 336
f 292 335 336
f 336 293 292
f 295 248 294
f 294 293 295
f 248 293 294
f 1055 991 990
f 990 1054 1055
f 1055 1054 1119
f 1055 1119 1056
f 1056 991 1055
f 993 940 937
f 993 937 936
f 936 992 993
f 943 889 941
f 941 889 888
f 941 996 943
f 988 1051 1052
f 1052 992 988
f 1191 1128 1127
f 1183 1182 1235
f 1236 1184 1235
f 1235 1184 1183
f 1237 1184 1236
f 1312 1311 1337
f 1332 1331 1330
f 1332 1333 1309
f 1309 1331 1332
f 1309 1330 1331
f 1311 1335 1336
f 1324 1344 1336
f 1337 1311 1336
f 1336 1343 1337
f 1344 1323 1336
f 1336 1323 1343
f 634 632 631
f 633 632 634
f 631 692 634
f 634 696 635
f 634 635 574
f 574 633 634
f 425 426 366
f 366 424 425
f 371 430 431
f 431 372 371
f 374 372 431
f 431 432 374
f 477 432 431
f 431 430 476
f 431 476 477
f 584 525 583
f 583 644 584
f 585 526 525
f 525 584 585
f 1225 1265 1264
f 1297 1269 1293
f 1321 1297 1293
f 1293 1264 1265
f 1269 1264 1293
f 1174 1226 1231
f 1229 1174 1231
f 1231 1269 1229
f 1291 1259 1288
f 1294 1320 1295
f 1295 1265 1294
f 1296 1322 1321
f 1296 1320 1322
f 1296 1295 1320
f 1321 1293 1296
f 1296 1293 1265
f 1265 1295 1296
f 1342 1343 1321
f 1321 1322 1342
f 1342 1322 1341
f 1337 1343 1342
f 1340 1339 1341
f 1283 1317 1284
f 1283 1316 1317
f 1219 1220 1164
f 1163 1211 1164
f 1161 1093 1164
f 1164 1093 1163
f 1223 1167 1217
f 1214 1162 1161
f 1072 1070 1133
f 1133 1070 1132
f 1133 1135 1072
f 1132 1135 1133
f 1069 1070 1002
f 1068 1070 1069
f 1002 1001 1069
f 1069 1001 1068
f 1129 1067 1066
f 1066 1067 999
f 999 998 1066
f 1064 998 996
f 1064 1066 998
f 1063 1127 1064
f 1064 1127 1128
f 1064 1128 1129
f 1129 1066 1064
f 944 889 943
f 943 998 944
f 944 998 999
f 999 997 944
f 945 891 890
f 946 891 945
f 945 1001 946
f 1192 1128 1191
f 1248 1193 1192
f 1129 1128 1192
f 1192 1193 1129
f 1191 1247 1192
f 1192 1247 1248
f 765 764 759
f 765 704 764
f 759 824 765
f 766 704 765
f 824 829 765
f 829 766 765
f 832 833 768
f 767 766 768
f 766 832 768
f 768 833 834
f 769 707 768
f 768 707 767
f 771 769 768
f 768 834 771
f 342 393 343
f 390 391 342
f 342 341 390
f 342 343 295
f 295 341 342
f 390 341 389
f 389 388 390
f 389 341 340
f 340 388 389
f 498 450 449
f 449 497 498
f 496 497 449
f 449 448 494
f 449 388 448
f 449 450 390
f 390 388 449
f 449 493 496
f 449 494 493
f 547 606 607
f 607 608 547
f 496 493 547
f 547 608 496
f 611 673 674
f 670 611 674
f 484 483 482
f 482 483 438
f 252 250 205
f 205 251 252
f 298 250 252
f 252 251 298
f 297 205 249
f 297 251 205
f 297 249 248
f 248 296 297
f 298 251 297
f 1058 993 992
f 992 1052 1058
f 1059 993 1058
f 1058 1123 1059
f 1057 1052 1051
f 1056 1122 1057
f 1057 991 1056
f 1051 991 1057
f 1123 1058 1117
f 1117 1058 1052
f 1117 1057 1122
f 1052 1057 1117
f 996 941 995
f 1063 1064 995
f 995 1064 996
f 1238 1237 1274
f 1184 1237 1238
f 1185 1184 1238
f 1275 1239 1238
f 1238 1239 1185
f 1339 1340 1313
f 1278 1277 1241
f 1278 1312 1277
f 1311 1312 1278
f 1329 1309 1328
f 1330 1309 1329
f 1308 1307 1328
f 1328 1309 1308
f 1275 1307 1308
f 1308 1309 1275
f 1275 1309 1310
f 1310 1335 1311
f 1310 1309 1335
f 1324 1336 1334
f 1334 1336 1335
f 1334 1325 1324
f 1335 1309 1334
f 1334 1333 1325
f 1334 1309 1333
f 694 752 753
f 816 754 694
f 694 753 816
f 695 754 755
f 755 696 695
f 696 634 695
f 695 694 754
f 634 694 695
f 692 752 693
f 693 634 692
f 752 694 693
f 693 694 634
f 586 584 644
f 586 585 584
f 587 528 586
f 586 644 587
f 1318 1317 1319
f 1319 1291 1318
f 1284 1317 1318
f 1191 1127 1190
f 1316 1283 1282
f 1248 1247 1285
f 1260 1250 1249
f 1260 1261 1220
f 1219 1250 1260
f 1260 1220 1219
f 1219 1164 1218
f 1218 1164 1211
f 1218 1197 1219
f 1218 1211 1197
f 1221 1164 1220
f 1220 1261 1221
f 1172 1222 1227
f 1288 1259 1256
f 1319 1292 1290
f 1290 1291 1319
f 1259 1291 1290
f 889 944 942
f 942 944 997
f 890 889 942
f 942 945 890
f 997 945 942
f 1065 1001 1000
f 1001 945 1000
f 1000 997 1065
f 1000 945 997
f 548 495 546
f 546 541 548
f 548 541 600
f 548 600 610
f 548 610 611
f 1185 1239 1187
f 1187 1239 1241
f 1121 1186 1122
f 1056 1120 1121
f 1121 1122 1056
f 1121 1187 1186
f 1121 1120 1185
f 1185 1187 1121
f 1123 1117 1181
f 1122 1186 1181
f 1181 1117 1122
f 1062 1127 1063
f 1063 995 1062
f 1339 1313 1338
f 1337 1342 1338
f 1341 1339 1338
f 1338 1342 1341
f 1314 1340 1315
f 1314 1313 1340
f 1277 1312 1279
f 1279 1242 1277
f 1275 1310 1276
f 1276 1239 1275
f 1311 1278 1276
f 1276 1310 1311
f 1241 1239 1276
f 1276 1278 1241
f 526 585 527
f 585 586 527
f 527 586 528
f 477 526 527
f 527 481 477
f 527 528 481
f 1246 1190 1245
f 1246 1247 1191
f 1191 1190 1246
f 1284 1285 1246
f 1246 1285 1247
f 1246 1283 1284
f 1245 1282 1246
f 1246 1282 1283
f 1289 1291 1288
f 1289 1318 1291
f 1249 1248 1286
f 1248 1285 1286
f 1286 1260 1249
f 1261 1260 1286
f 1285 1289 1286
f 1286 1289 1261
f 1215 1214 1161
f 1215 1221 1214
f 1161 1164 1215
f 1164 1221 1215
f 1224 1223 1259
f 1167 1223 1224
f 1224 1222 1167
f 1258 1256 1214
f 1214 1256 1216
f 1217 1162 1216
f 1162 1214 1216
f 1216 1223 1217
f 1259 1223 1216
f 1216 1256 1259
f 495 548 549
f 606 547 549
f 1277 1242 1240
f 1240 1242 1186
f 1186 1187 1240
f 1241 1277 1240
f 1240 1187 1241
f 1124 1181 1186
f 1123 1181 1124
f 994 993 1059
f 940 993 994
f 1059 1123 1060
f 1061 994 1060
f 1060 994 1059
f 1123 1124 1060
f 1060 1124 1061
f 1315 1281 1280
f 1280 1314 1315
f 1313 1314 1280
f 1280 1281 1244
f 1312 1313 1280
f 1280 1279 1312
f 1263 1224 1259
f 1259 1290 1263
f 1263 1290 1292
f 1257 1221 1261
f 1214 1221 1257
f 1257 1258 1214
f 1257 1289 1288
f 1261 1289 1257
f 1288 1256 1257
f 1256 1258 1257
f 606 549 609
f 609 549 548
f 1188 1124 1186
f 1189 1124 1188
f 1186 1242 1188
f 1125 1124 1189
f 1061 1124 1125
f 1243 1280 1244
f 1244 1189 1243
f 1242 1279 1243
f 1279 1280 1243
f 1243 1188 1242
f 1189 1188 1243
f 1262 1263 1227
f 1224 1263 1262
f 1262 1227 1222
f 1222 1224 1262
f 1266 1267 1227
f 1227 1263 1266
f 1292 1267 1266
f 1266 1263 1292
f 1126 1125 1189
f 1061 1125 1126
f 34 20 33
f 33 20 19
f 147 108 111
f 111 151 147
f 136 178 137
f 137 178 181
f 181 178 223
f 178 180 223
f 26 12 1
f 1 11 26
f 26 11 17
f 26 18 12
f 28 18 26
f 26 25 28
f 34 33 49
f 33 48 49
f 70 49 48
f 71 49 70
f 71 70 100
f 100 70 99
f 100 139 101
f 101 71 100
f 136 137 100
f 99 136 100
f 735 803 737
f 735 802 803
f 166 125 124
f 124 164 166
f 273 272 311
f 224 272 273
f 286 328 282
f 286 282 239
f 175 174 170
f 175 170 217
f 168 131 128
f 171 131 168
f 172 168 214
f 171 168 172
f 305 350 262
f 262 350 307
f 270 223 180
f 270 180 225
f 227 230 186
f 227 186 185
f 99 70 69
f 69 98 99
f 552 613 553
f 552 553 499
f 603 543 599
f 599 598 603
f 853 868 801
f 801 786 853
f 199 166 164
f 164 163 199
f 212 256 288
f 212 288 257
f 125 166 211
f 167 125 211
f 256 212 211
f 211 212 167
f 166 199 211
f 211 199 241
f 396 378 333
f 346 396 333
f 504 457 554
f 554 457 503
f 397 453 454
f 454 401 397
f 501 455 454
f 454 453 501
f 499 553 502
f 502 500 499
f 502 455 501
f 501 500 502
f 316 365 317
f 317 274 316
f 512 514 515
f 469 512 515
f 570 629 571
f 571 516 570
f 571 691 630
f 571 629 691
f 517 516 571
f 571 572 517
f 613 552 612
f 612 552 551
f 607 612 551
f 669 612 607
f 672 611 610
f 610 671 672
f 922 976 983
f 983 927 922
f 85 112 152
f 152 117 85
f 304 348 399
f 349 304 399
f 397 401 399
f 399 396 397
f 399 378 396
f 399 348 378
f 378 348 303
f 332 378 303
f 462 408 461
f 461 507 462
f 461 408 407
f 407 408 406
f 630 691 692
f 692 691 750
f 147 151 191
f 151 195 191
f 373 328 331
f 328 286 331
f 428 427 475
f 368 427 428
f 430 428 476
f 429 428 430
f 305 262 258
f 262 218 258
f 258 172 214
f 258 218 172
f 403 458 404
f 404 352 403
f 307 350 403
f 403 352 307
f 1172 1225 1171
f 1171 1104 1172
f 1039 1104 1171
f 1171 1103 1039
f 1039 1040 972
f 1103 1040 1039
f 628 629 570
f 570 569 628
f 274 317 313
f 312 274 313
f 658 660 659
f 725 660 658
f 794 923 861
f 863 923 794
f 795 862 794
f 729 795 794
f 797 732 799
f 799 732 733
f 799 794 861
f 733 794 799
f 665 732 797
f 665 797 731
f 926 865 864
f 864 925 926
f 926 923 863
f 863 865 926
f 419 472 424
f 424 472 473
f 1169 1168 1222
f 1222 1168 1167
f 1222 1172 1104
f 1104 1169 1222
f 275 277 319
f 229 277 275
f 450 391 390
f 451 391 450
f 669 607 606
f 606 668 669
f 24 15 83
f 83 13 23
f 60 41 83
f 15 14 83
f 14 13 83
f 83 41 24
f 155 119 83
f 83 86 60
f 83 119 86
f 83 114 155
f 23 40 83
f 83 40 57
f 425 424 474
f 474 426 425
f 1171 1225 1264
f 1264 1226 1171
f 1226 1264 1231
f 1231 1264 1269
f 1319 1316 1340
f 1340 1341 1319
f 1319 1341 1292
f 1341 1320 1292
f 342 391 451
f 451 393 342
f 674 673 617
f 674 617 677
f 674 734 670
f 677 734 674
f 482 13 2
f 482 2 1
f 1 12 482
f 482 532 484
f 482 1011 1080
f 1080 1140 482
f 1013 1012 482
f 482 12 22
f 482 54 78
f 23 13 482
f 373 377 482
f 22 38 482
f 531 591 482
f 244 243 482
f 436 435 482
f 78 108 482
f 482 1203 1202
f 838 776 482
f 247 246 482
f 482 108 147
f 482 1139 1204
f 482 1253 1287
f 482 38 54
f 482 437 436
f 482 480 531
f 1147 1085 482
f 482 328 373
f 482 152 112
f 482 835 837
f 338 335 482
f 1202 1251 482
f 1251 1254 482
f 482 774 773
f 534 533 482
f 482 245 244
f 482 339 338
f 282 328 482
f 482 235 282
f 1140 1139 482
f 1204 1200 482
f 837 836 482
f 482 592 534
f 482 1208 1150
f 1287 1255 482
f 776 775 482
f 906 843 482
f 335 334 482
f 482 839 838
f 379 339 482
f 482 435 379
f 649 711 482
f 482 1148 1147
f 1200 1203 482
f 1150 1149 482
f 1008 1014 482
f 482 957 1008
f 482 1255 1208
f 482 1084 1146
f 482 291 247
f 482 959 906
f 482 843 905
f 905 841 482
f 482 246 245
f 112 80 482
f 482 200 158
f 482 591 649
f 147 191 482
f 711 770 482
f 377 434 482
f 482 1254 1253
f 482 836 904
f 482 1014 1013
f 482 1012 1011
f 712 650 482
f 482 772 712
f 482 1085 1084
f 1015 959 482
f 533 532 482
f 80 56 482
f 158 152 482
f 482 243 200
f 482 39 23
f 482 191 235
f 482 770 835
f 482 434 480
f 482 1149 1148
f 904 957 482
f 650 592 482
f 773 772 482
f 482 775 774
f 482 438 437
f 841 839 482
f 56 39 482
f 1146 1081 482
f 482 1081 1015
f 482 334 291
f 345 298 297
f 297 296 345
f 1238 1274 1306
f 1238 1306 1275
f 1329 27 16
f 1329 6 5
f 5 15 1329
f 8 7 1329
f 1329 15 24
f 1329 1345 1332
f 1329 1116 1115
f 1329 7 6
f 1329 743 738
f 1115 1179 1329
f 933 932 1329
f 1273 1305 1329
f 1176 1232 1329
f 16 10 1329
f 1329 9 8
f 1329 43 29
f 299 300 1329
f 737 803 1329
f 91 126 1329
f 560 559 1329
f 10 9 1329
f 29 27 1329
f 1329 459 458
f 1329 679 737
f 24 42 1329
f 458 403 1329
f 300 347 1329
f 738 682 1329
f 65 43 1329
f 1329 870 805
f 1329 63 91
f 165 210 1329
f 1329 126 165
f 1329 400 402
f 1329 1304 1303
f 1329 989 933
f 1329 168 128
f 1329 621 560
f 1329 92 65
f 736 679 1329
f 1329 803 869
f 504 556 1329
f 1329 64 63
f 1329 255 299
f 1303 1327 1329
f 1329 558 557
f 557 505 1329
f 869 929 1329
f 1236 1235 1329
f 305 258 1329
f 1329 877 876
f 1118 1053 1329
f 128 127 1329
f 876 875 1329
f 1050 1116 1329
f 1329 42 64
f 210 255 1329
f 1329 986 1050
f 1329 457 504
f 1327 1345 1329
f 1329 1179 1176
f 505 459 1329
f 214 168 1329
f 1329 350 305
f 932 877 1329
f 1329 682 621
f 805 804 1329
f 1329 127 92
f 556 619 1329
f 987 986 1329
f 398 400 1329
f 1329 347 398
f 402 457 1329
f 1305 1304 1329
f 1329 559 558
f 1329 1234 1273
f 1329 1237 1236
f 744 743 1329
f 1329 804 744
f 1329 871 870
f 1329 680 736
f 1329 1053 989
f 1329 1233 1234
f 1306 1274 1329
f 1329 258 214
f 1329 403 350
f 1329 875 871
f 619 680 1329
f 1329 1307 1306
f 1329 929 987
f 1329 1182 1118
f 1328 1307 1329
f 1232 1233 1329
f 1329 1235 1182
f 1274 1237 1329
f 1332 1330 1329
f 1281 1245 1190
f 1244 1281 1190
f 1282 1340 1316
f 1315 1340 1282
f 1282 1245 1281
f 1282 1281 1315
f 1225 1172 1227
f 1227 1265 1225
f 1244 1190 1189
f 1189 1190 1127
f 1338 1313 1312
f 1338 1312 1337
f 1289 1285 1284
f 1284 1318 1289
f 1267 1292 1320
f 1267 1320 1294
f 1265 1227 1267
f 1294 1265 1267
f 549 547 493
f 493 495 549
f 994 1061 995
f 994 995 941
f 888 940 994
f 994 941 888
f 668 606 609
f 670 668 609
f 609 611 670
f 609 548 611
f 1126 1189 1127
f 1127 1062 1126
f 995 1061 1126
f 1126 1062 995

