# https://github.com/mikedh/trimesh
v -0.01081930 0.01645021 -0.00900767
v -0.01081722 0.01645021 -0.00958894
v -0.01079851 0.01586604 -0.00958894
v -0.01081930 0.01645021 0.00047496
v -0.01081930 0.03501773 -0.00900767
v -0.01073406 0.01645021 -0.00998350
v -0.01072367 0.01586604 -0.00997238
v -0.01081722 0.03386084 -0.00958894
v -0.01079851 0.01586604 0.00047496
v -0.01069248 0.01553387 -0.00993348
v -0.01071535 0.01551096 -0.00958894
v -0.01081930 0.03501773 0.00047496
v -0.01081722 0.03560190 -0.00900767
v -0.01035777 0.01645021 -0.01013354
v -0.01073406 0.03327667 -0.00998350
v -0.01035777 0.01586604 -0.01010464
v -0.00339120 -0.00155031 -0.01084374
v -0.00384649 -0.00155031 -0.01063479
v -0.01081306 0.03443929 -0.00958894
v -0.01073198 0.03386084 -0.00998350
v -0.01071535 0.01551096 0.00047496
v -0.00375293 -0.00196840 -0.01055366
v -0.00401072 -0.00155031 -0.01016910
v -0.00401280 -0.00155031 -0.00958894
v -0.01081514 0.03560190 0.00047496
v -0.01081722 0.03560190 -0.00088098
v -0.01079227 0.03501773 -0.00958894
v -0.01081099 0.03618035 -0.00842751
v -0.01079851 0.03675879 -0.00842751
v -0.01079435 0.03618035 -0.00900767
v -0.00339120 -0.00038769 -0.01087930
v -0.00339120 -0.00096614 -0.01087819
v -0.01035777 0.03327667 -0.01013354
v -0.00281117 -0.00212876 -0.01087485
v -0.00286730 -0.00276447 -0.01070592
v -0.00342654 -0.00215167 -0.01068036
v -0.01072783 0.03443929 -0.00997238
v -0.01035777 0.03386084 -0.01013243
v -0.00398578 -0.00155031 -0.00900767
v -0.00377996 -0.00201994 -0.00900767
v -0.00374254 -0.00195121 -0.00865757
v -0.00323735 -0.00259266 -0.00862757
v -0.00269267 -0.00314247 -0.00862534
v -0.00206898 -0.00365791 -0.00864868
v -0.00165111 -0.00374382 -0.00859422
v -0.00106900 -0.00307374 -0.00805741
v -0.00048897 -0.00314247 -0.00798183
v -0.01059477 0.01547659 0.00047496
v -0.00325606 -0.00260984 -0.01059367
v -0.00362404 -0.00232921 -0.01016910
v -0.00379036 -0.00203712 -0.01016910
v -0.00379036 -0.00203712 -0.00958894
v -0.01081306 0.03579663 0.00047496
v -0.01080891 0.03618035 -0.00204241
v -0.01081099 0.03618035 -0.00494543
v -0.01070704 0.03501773 -0.00994015
v -0.01071327 0.03618035 -0.00941223
v -0.01073198 0.03558472 -0.00960006
v -0.01079851 0.03675879 -0.00726608
v -0.01077980 0.03734297 -0.00784735
v -0.01075485 0.03792141 -0.00784735
v -0.01072159 0.03850558 -0.00784735
v -0.01066754 0.03898094 -0.00816744
v -0.00339120 0.00077492 -0.01087930
v -0.00281117 -0.00155031 -0.01087930
v -0.00223114 -0.00271293 -0.01087597
v -0.00165111 -0.00329138 -0.01085374
v -0.00226232 -0.00333147 -0.01068925
v -0.00271138 -0.00316538 -0.01059589
v -0.01035777 0.03443929 -0.01010464
v -0.00977774 0.03386084 -0.01017800
v -0.00362404 -0.00232921 -0.00958894
v -0.00360949 -0.00231203 -0.00900767
v -0.00332051 -0.00269002 -0.00900767
v -0.00308143 -0.00298211 -0.00900767
v -0.00279246 -0.00322837 -0.00900767
v -0.00243696 -0.00352046 -0.00900767
v -0.00214798 -0.00370373 -0.00900767
v -0.00165111 -0.00393855 -0.00900767
v -0.00084240 -0.00417909 -0.00869758
v -0.00048897 -0.00420200 -0.00866869
v 0.00008897 -0.00315392 -0.00796627
v -0.00281117 0.01365535 0.00047496
v -0.01035777 0.01541359 0.00047496
v -0.00333506 -0.00270147 -0.01016910
v -0.00309598 -0.00299356 -0.01016910
v -0.01077980 0.03734297 0.00047496
v -0.01080683 0.03618035 -0.00030081
v -0.01067585 0.03538427 -0.00990459
v -0.01008751 0.04415831 -0.00816744
v -0.01077149 0.03753769 0.00047496
v -0.01075485 0.03792141 0.00047496
v -0.01074446 0.03811613 0.00047496
v -0.01072159 0.03850558 0.00047496
v -0.01070704 0.03869458 0.00047496
v -0.01067585 0.03907257 -0.00784735
v -0.01064675 0.03936466 -0.00784735
v -0.01038480 0.04198771 -0.00784735
v -0.00223114 0.01064285 -0.01087930
v -0.00165111 -0.00271293 -0.01087930
v -0.00106900 -0.00329138 -0.01087930
v -0.00048897 -0.00386982 -0.01075704
v -0.00165111 -0.00377246 -0.01064368
v -0.00208769 -0.00366937 -0.01056477
v -0.00280493 -0.00324556 -0.01016910
v -0.00245359 -0.00353764 -0.01016910
v -0.01035777 0.03501773 -0.01003018
v -0.00861769 0.05069302 -0.00836972
v -0.00861769 0.05011458 -0.00844196
v -0.00745555 0.03850558 -0.01006130
v -0.00687552 0.03850558 -0.01015243
v -0.00687552 0.03792141 -0.01017911
v -0.00333506 -0.00270147 -0.00958894
v -0.00309598 -0.00299356 -0.00958894
v -0.00280493 -0.00324556 -0.00958894
v -0.00245359 -0.00353764 -0.00958894
v -0.00216253 -0.00371519 -0.00958894
v -0.00165111 -0.00396718 -0.00958894
v -0.00122077 -0.00412754 -0.00958894
v -0.00119166 -0.00410463 -0.00900767
v -0.00090269 -0.00419054 -0.00900767
v -0.00048897 -0.00425354 -0.00900767
v 0.00008897 -0.00428218 -0.00900767
v 0.00008897 -0.00421345 -0.00865424
v 0.00066900 -0.00313101 -0.00799517
v 0.00299120 0.01372408 0.00047496
v 0.00260659 0.01368399 0.00047496
v 0.00241117 0.01366680 0.00047496
v -0.00949709 0.04873433 -0.00815299
v -0.00905011 0.05069302 -0.00825635
v -0.01031412 0.04256615 -0.00784735
v -0.01067585 0.03907257 0.00047496
v -0.01063843 0.03946202 0.00047496
v -0.01050538 0.04082509 -0.00726608
v -0.01044717 0.04140354 -0.00726608
v -0.01038480 0.04198771 0.00047496
v -0.01036193 0.04218243 0.00047496
v -0.00223114 0.01122130 -0.01086708
v 0.00008897 0.01122130 -0.01086930
v 0.00241117 0.01064285 -0.01087930
v 0.00066900 -0.00329138 -0.01087930
v 0.00008897 -0.00386982 -0.01077705
v 0.00008897 -0.00423063 -0.01056699
v -0.00048897 -0.00421345 -0.01054810
v -0.00107108 -0.00391564 -0.01065257
v -0.00087982 -0.00418481 -0.01050253
v -0.00165111 -0.00396718 -0.01016910
v -0.00216253 -0.00371519 -0.01016910
v -0.00898566 0.05115692 -0.00820300
v -0.00513336 0.05243409 -0.00847752
v -0.00397330 0.03850558 -0.01015243
v -0.00455333 0.05243409 -0.00847864
v -0.00165111 0.03792141 -0.01017911
v -0.00122077 -0.00412182 -0.01016910
v -0.00092971 -0.00420200 -0.01016910
v -0.00092971 -0.00420200 -0.00958894
v -0.00048897 -0.00427073 -0.00958894
v 0.00008897 -0.00429936 -0.00958894
v 0.00066900 -0.00423063 -0.00900767
v 0.00066900 -0.00419054 -0.00868425
v 0.00097045 -0.00416191 -0.00871426
v 0.00183114 -0.00370946 -0.00861201
v 0.00111182 -0.00307374 -0.00806074
v 0.01031535 0.01551096 0.00047496
v -0.01016235 0.04372877 -0.00784735
v -0.00970706 0.04721090 -0.00784735
v -0.00950124 0.04876869 -0.00784735
v -0.00909585 0.05185564 -0.00726608
v -0.00922058 0.05069302 -0.00784735
v -0.01031412 0.04256615 0.00047496
v -0.01028917 0.04276088 0.00047496
v -0.01050538 0.04082509 0.00047496
v -0.01044717 0.04140354 0.00047496
v 0.00241117 0.01122130 -0.01086930
v 0.00937774 0.02514980 -0.01017355
v 0.00937774 0.02457708 -0.01017911
v 0.00357330 0.00019075 -0.01087819
v 0.00299120 0.00193181 -0.01087930
v 0.00821769 0.03327667 -0.01017800
v 0.00125111 -0.00329138 -0.01087819
v 0.00183114 -0.00271293 -0.01087930
v 0.00066900 -0.00386982 -0.01073704
v 0.00008897 -0.00429936 -0.01016910
v 0.00066900 -0.00420200 -0.01052809
v -0.00048897 -0.00427073 -0.01016910
v -0.00900022 0.05185564 -0.00773621
v -0.00895448 0.05223363 -0.00762062
v -0.00861769 0.05154064 -0.00811965
v -0.00559489 0.05284644 -0.00824968
v -0.00513336 0.05290371 -0.00830637
v -0.00455333 0.05290944 -0.00830748
v -0.00339120 0.03850558 -0.01014687
v 0.00241117 0.05243409 -0.00847864
v 0.00299120 0.05243409 -0.00847419
v 0.00647552 0.03560190 -0.01017800
v 0.00066900 -0.00424209 -0.00958894
v 0.00099748 -0.00417336 -0.00900767
v 0.00128853 -0.00407600 -0.00900767
v 0.00183114 -0.00385837 -0.00900767
v 0.00219080 -0.00362355 -0.00867091
v 0.01031535 0.01551096 -0.00958894
v 0.01037149 0.01574577 0.00047496
v 0.00281241 -0.00310238 -0.00863979
v 0.00336125 -0.00252393 -0.00864979
v 0.00386644 -0.00184240 -0.00871426
v 0.00387475 -0.00185958 -0.00900767
v 0.00399533 -0.00155031 -0.00900767
v 0.00401196 -0.00155031 -0.00958894
v -0.01001059 0.04489139 -0.00726608
v -0.00930166 0.05030930 0.00047496
v -0.00917485 0.05127719 -0.00726608
v -0.00902308 0.05243409 -0.00668592
v -0.00890458 0.05329889 -0.00624468
v -0.00894616 0.05290371 -0.00668592
v -0.00893369 0.05277772 -0.00703713
v -0.00898150 0.05242836 -0.00724496
v -0.01001059 0.04489139 0.00047496
v 0.00763558 0.03501773 -0.01017466
v 0.00995777 0.02225185 -0.01013354
v 0.00995777 0.01645021 -0.01013354
v 0.00357330 -0.00038769 -0.01087597
v 0.00299120 -0.00155031 -0.01087930
v 0.00821769 0.03386084 -0.01014354
v 0.00866258 0.03327667 -0.01002795
v 0.00995777 0.02283602 -0.01011242
v 0.00183114 -0.00329138 -0.01083040
v 0.00241117 -0.00271293 -0.01086152
v 0.00121785 -0.00389846 -0.01063923
v 0.00066900 -0.00424209 -0.01016910
v 0.00100164 -0.00417336 -0.01048141
v -0.00861769 0.05286935 -0.00712715
v -0.00861769 0.05260017 -0.00741723
v -0.00861769 0.05230809 -0.00767286
v -0.00861769 0.05185564 -0.00794515
v -0.00851582 0.05339625 -0.00652143
v -0.00803558 0.05343634 -0.00658144
v -0.00803558 0.05370552 -0.00610576
v -0.00803558 0.05387161 -0.00576900
v -0.00513336 0.05308698 -0.00784735
v 0.00241117 0.05290944 -0.00830748
v -0.00455333 0.05309271 -0.00784735
v 0.00357330 0.05243409 -0.00841862
v 0.00415333 0.05185564 -0.00847864
v 0.00705555 0.03560190 -0.01015799
v 0.00299120 0.05289799 -0.00830303
v 0.00102243 -0.00417909 -0.00958894
v 0.00131140 -0.00409318 -0.00958894
v 0.00183114 -0.00388700 -0.00958894
v 0.00223861 -0.00365791 -0.00900767
v 0.00252967 -0.00345174 -0.00900767
v 0.00288309 -0.00316538 -0.00900767
v 0.00401196 -0.00155031 -0.01016910
v 0.00387475 -0.00186531 -0.01048141
v 0.01029248 0.01553387 -0.00993348
v 0.01039851 0.01586604 -0.00958894
v 0.01039851 0.01586604 0.00047496
v 0.00317206 -0.00287902 -0.00900767
v 0.00341114 -0.00258693 -0.00900767
v 0.00370220 -0.00215167 -0.00900767
v 0.00388099 -0.00187676 -0.00958894
v 0.00371259 -0.00216885 -0.00958894
v -0.00890874 0.05331034 0.00047496
v -0.00890874 0.05331034 -0.00552448
v -0.00890666 0.05331034 -0.00585791
v -0.00884637 0.05360243 -0.00436416
v -0.00882558 0.05360243 -0.00494543
v -0.00853661 0.05399761 -0.00494543
v -0.00845553 0.05394606 -0.00540112
v -0.00867382 0.05318435 -0.00670370
v 0.00531339 0.05127719 -0.00846419
v 0.00589550 0.05069302 -0.00847530
v 0.00647552 0.05011458 -0.00847641
v 0.00705555 0.04953040 -0.00846308
v 0.00763558 0.04895196 -0.00842973
v 0.00821769 0.04778934 -0.00842640
v 0.01033406 0.02225185 -0.00998350
v 0.01033406 0.01645021 -0.00998350
v 0.01032367 0.01586604 -0.00997238
v 0.00995777 0.01586604 -0.01010464
v 0.00357330 -0.00096614 -0.01085374
v 0.00299120 -0.00212876 -0.01085263
v 0.00861685 0.03386084 -0.00999350
v 0.01031327 0.02283602 -0.00996238
v 0.00240493 -0.00330283 -0.01065924
v 0.00183114 -0.00373237 -0.01062145
v 0.00301199 -0.00272438 -0.01067591
v 0.00102243 -0.00417909 -0.01016910
v 0.00220743 -0.00363501 -0.01053587
v 0.00183114 -0.00388700 -0.01016910
v 0.00131140 -0.00409318 -0.01016910
v -0.00803558 0.05396897 -0.00547892
v 0.00241117 0.05309271 -0.00784735
v 0.00413254 0.05245699 -0.00829747
v 0.00473336 0.05185564 -0.00842195
v 0.00357330 0.05282926 -0.00824746
v 0.00299120 0.05307553 -0.00784735
v 0.00225109 -0.00366364 -0.00958894
v 0.00254214 -0.00346892 -0.00958894
v 0.00289556 -0.00317683 -0.00958894
v 0.00318662 -0.00289047 -0.00958894
v 0.00388099 -0.00187676 -0.01016910
v 0.00371259 -0.00216885 -0.01016910
v 0.00342362 -0.00260411 -0.01016910
v 0.00337580 -0.00254111 -0.01056366
v 0.00357122 -0.00208867 -0.01061923
v 0.00393712 -0.00155031 -0.01055810
v 0.00402652 -0.00096614 -0.01064368
v 0.01041722 0.01645021 -0.00958894
v 0.01041930 0.01645021 -0.00900767
v 0.01041930 0.01645021 0.00047496
v 0.00342362 -0.00260411 -0.00958894
v -0.00885261 0.05360243 0.00047496
v -0.00885261 0.05360243 -0.00378400
v -0.00856156 0.05404915 -0.00378400
v -0.00855740 0.05403197 -0.00436416
v -0.00803558 0.05417514 -0.00436416
v -0.00803558 0.05410069 -0.00494543
v 0.00591628 0.05130010 -0.00832748
v 0.00650463 0.05072739 -0.00833748
v 0.00708466 0.05013749 -0.00832748
v 0.00763558 0.04950750 -0.00829081
v 0.00805553 0.04895196 -0.00825857
v 0.00823848 0.04835633 -0.00830303
v 0.00861061 0.04778934 -0.00825524
v 0.01041722 0.02225185 -0.00958894
v 0.00357330 -0.00155031 -0.01076816
v 0.00866258 0.04721090 -0.00830081
v 0.01037980 0.02283602 -0.00958894
v 0.00881851 0.04721090 -0.00784735
v 0.00283112 -0.00311956 -0.01057588
v 0.00254214 -0.00346892 -0.01016910
v 0.00225109 -0.00366364 -0.01016910
v 0.00473336 0.05226800 -0.00825079
v 0.00528220 0.05185564 -0.00828525
v 0.00357330 0.05293235 -0.00784735
v 0.00392465 0.05275481 -0.00817633
v -0.00803558 0.05420951 -0.00378400
v 0.00299120 0.05307553 0.00047496
v 0.00289556 -0.00317683 -0.01016910
v 0.00318662 -0.00289047 -0.01016910
v 0.01041930 0.02225185 -0.00900767
v 0.01041930 0.02225185 0.00047496
v -0.00856156 0.05404915 0.00047496
v 0.00573542 0.05166092 -0.00823190
v 0.00633208 0.05112829 -0.00824635
v 0.00691003 0.05055557 -0.00824857
v 0.00744016 0.04995422 -0.00823079
v 0.00796405 0.04929559 -0.00818522
v 0.00854200 0.04815588 -0.00818522
v 0.00871456 0.04778934 -0.00784735
v 0.00871664 0.04778934 -0.00088098
v 0.00881851 0.04721090 0.00047496
v 0.00506599 0.05217636 -0.00817522
v 0.00357330 0.05293235 0.00047496
v 0.00382694 0.05282353 0.00047496
v 0.00405354 0.05272617 0.00047496
v 0.00424688 0.05264026 -0.00784735
v 0.00473336 0.05239399 -0.00784735
v -0.00803558 0.05420951 0.00047496
v 0.00609300 0.05148910 -0.00784735
v 0.00640692 0.05119701 -0.00784735
v 0.00669589 0.05091638 -0.00784735
v 0.00727384 0.05030930 -0.00784735
v 0.00698279 0.05063002 -0.00784735
v 0.00818442 0.04895196 -0.00784735
v 0.00748590 0.05002294 -0.00784735
v 0.00777695 0.04961631 -0.00784735
v 0.00798277 0.04932423 -0.00784735
v 0.00842143 0.04848233 -0.00784735
v 0.00855864 0.04819024 -0.00784735
v 0.00856072 0.04819597 -0.00146225
v 0.00871664 0.04778934 0.00047496
v 0.00508886 0.05218782 -0.00784735
v 0.00537784 0.05199309 -0.00784735
v 0.00580194 0.05170673 -0.00784735
v 0.00424688 0.05264026 0.00047496
v 0.00457120 0.05247990 0.00047496
v 0.00473336 0.05239399 0.00047496
v 0.00609300 0.05148910 0.00047496
v 0.00640692 0.05119701 0.00047496
v 0.00650255 0.05110538 0.00047496
v 0.00688716 0.05072739 0.00047496
v 0.00669589 0.05091638 0.00047496
v 0.00727384 0.05030930 0.00047496
v 0.00741521 0.05012030 0.00047496
v 0.00698279 0.05063002 0.00047496
v 0.00818858 0.04895196 -0.00726608
v 0.00748590 0.05002294 0.00047496
v 0.00777695 0.04961631 0.00047496
v 0.00819066 0.04895196 -0.00088098
v 0.00798277 0.04932423 0.00047496
v 0.00842350 0.04848233 -0.00726608
v 0.00842558 0.04848806 -0.00088098
v 0.00856072 0.04819597 0.00047496
v 0.00518449 0.05212482 0.00047496
v 0.00566057 0.05180409 0.00047496
v 0.00508886 0.05218782 0.00047496
v 0.00580194 0.05170673 0.00047496
v 0.00826966 0.04879732 0.00047496
v 0.00819066 0.04895196 0.00047496
v 0.00842558 0.04848806 0.00047496
f 329 327 324
f 349 350 324
f 324 350 329
f 370 350 349
f 152 111 150
f 149 189 150
f 89 70 56
f 55 87 59
f 108 130 149
f 149 150 108
f 89 130 108
f 108 111 109
f 108 150 111
f 109 70 108
f 329 350 351
f 194 193 240
f 109 111 110
f 110 70 109
f 111 70 110
f 316 315 337
f 7 14 16
f 10 3 7
f 73 74 41
f 41 74 42
f 24 23 51
f 158 123 157
f 79 80 44
f 26 12 25
f 25 53 26
f 54 55 26
f 26 53 54
f 54 87 55
f 37 56 70
f 149 130 129
f 129 169 149
f 129 130 89
f 188 189 149
f 149 187 188
f 235 189 231
f 149 169 186
f 186 187 149
f 169 187 186
f 168 187 169
f 169 129 168
f 168 129 167
f 107 70 89
f 89 108 107
f 107 108 70
f 317 316 296
f 296 316 337
f 190 150 189
f 190 189 235
f 213 268 235
f 267 316 317
f 317 268 267
f 315 316 267
f 268 213 267
f 14 7 6
f 51 23 22
f 22 50 51
f 49 50 22
f 23 10 22
f 40 73 41
f 39 24 40
f 11 10 23
f 23 24 11
f 11 3 10
f 124 123 160
f 160 123 159
f 159 123 158
f 44 80 45
f 253 254 201
f 272 320 273
f 122 157 123
f 88 53 87
f 87 54 88
f 88 54 53
f 167 129 166
f 90 129 89
f 90 63 98
f 234 187 189
f 189 188 234
f 234 188 187
f 232 231 189
f 187 231 232
f 273 320 274
f 236 190 235
f 235 268 238
f 20 37 38
f 38 33 20
f 38 37 70
f 17 7 16
f 34 35 17
f 187 168 216
f 315 267 266
f 266 267 213
f 215 231 187
f 187 216 215
f 215 216 168
f 212 213 168
f 20 33 15
f 15 8 20
f 2 7 3
f 2 6 7
f 2 3 1
f 74 73 72
f 73 40 72
f 66 35 34
f 67 35 66
f 101 67 66
f 68 67 103
f 68 35 67
f 44 43 77
f 104 68 103
f 52 24 51
f 52 40 24
f 52 72 40
f 200 162 161
f 197 198 161
f 199 200 161
f 161 198 199
f 160 159 161
f 161 159 197
f 247 198 197
f 258 205 204
f 123 124 81
f 80 122 81
f 81 122 123
f 81 47 80
f 82 83 47
f 47 81 82
f 82 81 124
f 197 159 196
f 196 159 158
f 80 47 46
f 46 45 80
f 21 46 47
f 21 43 44
f 44 45 21
f 45 46 21
f 42 43 21
f 41 42 21
f 21 40 41
f 39 40 21
f 21 24 39
f 21 11 24
f 306 254 253
f 306 307 254
f 326 307 306
f 255 256 202
f 202 201 255
f 255 201 254
f 253 201 252
f 102 67 101
f 103 67 102
f 253 303 304
f 270 243 294
f 295 296 335
f 101 66 100
f 195 153 194
f 151 193 194
f 156 119 155
f 80 79 120
f 79 119 120
f 56 37 27
f 30 27 13
f 92 93 61
f 61 91 92
f 136 137 98
f 131 170 171
f 137 170 131
f 98 137 131
f 131 90 98
f 129 90 131
f 189 187 233
f 233 232 189
f 187 232 233
f 349 324 322
f 275 274 322
f 291 268 317
f 291 238 268
f 237 236 235
f 235 238 237
f 190 236 237
f 237 238 190
f 65 100 66
f 33 38 64
f 18 22 10
f 10 7 18
f 7 17 18
f 36 35 49
f 36 17 35
f 36 18 17
f 49 22 36
f 22 18 36
f 337 315 314
f 235 231 269
f 231 215 269
f 269 213 235
f 269 215 213
f 168 213 214
f 214 215 168
f 213 215 214
f 211 166 210
f 167 166 211
f 211 168 167
f 211 212 168
f 78 79 44
f 44 77 78
f 74 72 113
f 68 104 69
f 49 35 69
f 35 68 69
f 69 86 49
f 69 104 106
f 249 200 199
f 246 247 197
f 197 196 246
f 205 258 259
f 229 184 230
f 183 184 229
f 47 83 84
f 280 307 326
f 179 219 175
f 219 176 175
f 175 140 179
f 175 176 140
f 225 219 179
f 179 224 225
f 223 224 179
f 341 328 329
f 341 325 328
f 302 303 253
f 261 259 311
f 311 259 258
f 205 259 206
f 261 260 206
f 206 259 261
f 253 252 301
f 301 302 253
f 208 206 260
f 207 206 208
f 142 102 101
f 326 306 305
f 305 306 253
f 253 304 305
f 340 304 303
f 319 271 270
f 320 272 319
f 272 271 319
f 296 295 245
f 194 240 245
f 242 243 194
f 242 294 243
f 194 245 242
f 242 245 295
f 353 344 333
f 218 223 179
f 218 271 272
f 218 272 273
f 270 271 218
f 273 274 218
f 218 274 275
f 275 223 218
f 153 195 174
f 195 218 174
f 179 140 174
f 174 218 179
f 153 151 192
f 194 153 192
f 192 151 194
f 71 112 99
f 99 64 71
f 71 64 38
f 111 112 71
f 71 70 111
f 71 38 70
f 80 120 121
f 121 120 119
f 119 156 121
f 121 122 80
f 157 122 121
f 121 156 157
f 118 119 79
f 118 147 119
f 79 78 118
f 57 90 89
f 57 27 30
f 57 30 63
f 63 90 57
f 8 13 19
f 19 13 27
f 19 27 37
f 20 8 19
f 19 37 20
f 5 13 8
f 62 93 94
f 62 61 93
f 62 96 63
f 87 91 60
f 91 61 60
f 96 134 97
f 97 134 98
f 98 63 97
f 63 96 97
f 98 134 135
f 96 132 133
f 133 134 96
f 172 134 133
f 209 217 210
f 210 166 209
f 171 217 209
f 324 275 323
f 323 322 324
f 275 322 323
f 238 291 292
f 317 296 292
f 292 291 317
f 292 245 240
f 296 245 292
f 292 241 238
f 152 150 191
f 150 190 191
f 190 238 239
f 238 241 239
f 241 191 239
f 239 191 190
f 34 17 32
f 16 14 32
f 32 17 16
f 106 104 148
f 104 147 148
f 85 50 49
f 49 86 85
f 116 78 77
f 105 69 106
f 86 69 105
f 75 42 74
f 75 43 42
f 200 249 250
f 230 288 289
f 285 288 230
f 330 340 339
f 304 340 330
f 339 331 330
f 330 331 288
f 287 229 230
f 83 82 128
f 163 162 164
f 164 162 200
f 200 203 164
f 164 203 204
f 204 205 164
f 205 206 164
f 164 206 207
f 207 208 164
f 164 201 202
f 48 21 47
f 47 84 48
f 279 280 220
f 281 280 326
f 326 305 281
f 219 220 177
f 177 176 219
f 140 176 177
f 177 178 140
f 278 255 254
f 280 279 278
f 220 277 278
f 278 279 220
f 254 307 278
f 307 280 278
f 282 223 275
f 224 223 282
f 282 275 324
f 282 324 327
f 309 255 308
f 255 278 308
f 308 278 277
f 219 225 276
f 185 144 183
f 143 184 183
f 183 144 143
f 182 184 143
f 143 142 182
f 143 144 102
f 102 142 143
f 146 104 103
f 146 147 104
f 146 185 155
f 144 185 146
f 103 102 145
f 102 144 145
f 145 146 103
f 144 146 145
f 336 358 353
f 336 357 358
f 353 333 336
f 336 333 295
f 336 295 335
f 335 357 336
f 358 357 377
f 353 358 373
f 270 294 318
f 318 319 270
f 318 344 345
f 345 319 318
f 382 364 362
f 362 345 361
f 346 347 320
f 320 319 346
f 346 319 345
f 345 362 346
f 346 362 364
f 320 347 321
f 321 274 320
f 321 322 274
f 363 346 364
f 347 346 363
f 294 333 334
f 334 333 344
f 334 318 294
f 344 318 334
f 294 242 293
f 293 333 294
f 293 242 295
f 295 333 293
f 244 243 270
f 270 218 244
f 244 218 195
f 194 243 244
f 244 195 194
f 99 112 138
f 56 27 58
f 27 57 58
f 89 56 58
f 58 57 89
f 95 132 96
f 96 62 95
f 95 62 94
f 30 13 29
f 29 60 61
f 61 62 29
f 63 30 29
f 29 62 63
f 165 131 171
f 171 209 165
f 165 209 166
f 165 166 129
f 129 131 165
f 349 322 348
f 322 321 348
f 348 321 347
f 366 367 348
f 348 363 366
f 347 363 348
f 386 364 382
f 65 32 31
f 31 32 14
f 265 313 314
f 315 266 265
f 265 314 315
f 265 266 213
f 212 211 263
f 210 262 263
f 263 211 210
f 78 116 117
f 117 118 78
f 76 75 115
f 115 116 76
f 76 116 77
f 76 77 43
f 43 75 76
f 115 75 114
f 251 203 200
f 200 250 251
f 298 249 297
f 298 250 249
f 298 251 250
f 199 198 248
f 198 247 248
f 248 249 199
f 297 249 248
f 288 331 332
f 332 289 288
f 182 226 228
f 226 285 228
f 228 184 182
f 230 184 228
f 228 285 230
f 230 289 290
f 290 287 230
f 82 126 127
f 127 128 82
f 163 164 125
f 125 164 126
f 125 126 82
f 160 161 125
f 125 124 160
f 125 82 124
f 125 162 163
f 125 161 162
f 304 330 286
f 286 305 304
f 286 281 305
f 178 177 222
f 280 281 222
f 220 280 221
f 221 177 220
f 280 222 221
f 221 222 177
f 325 276 283
f 328 325 283
f 329 328 283
f 283 327 329
f 283 282 327
f 224 282 283
f 283 225 224
f 283 276 225
f 154 146 155
f 147 146 154
f 155 119 154
f 119 147 154
f 376 377 357
f 358 377 378
f 381 362 361
f 139 138 112
f 99 138 139
f 28 29 13
f 349 348 365
f 366 363 385
f 385 363 384
f 385 388 366
f 350 370 371
f 371 351 350
f 213 212 264
f 212 263 264
f 264 263 313
f 264 265 213
f 313 265 264
f 204 203 257
f 203 251 257
f 257 258 204
f 257 311 258
f 300 257 251
f 311 257 300
f 284 286 330
f 284 285 226
f 288 285 284
f 284 330 288
f 281 286 227
f 227 222 281
f 227 284 226
f 286 284 227
f 356 357 335
f 356 376 357
f 395 373 397
f 353 373 374
f 374 375 353
f 361 345 360
f 345 344 360
f 360 344 353
f 353 375 360
f 380 381 361
f 382 362 383
f 362 381 383
f 369 392 370
f 369 370 349
f 349 365 369
f 368 348 367
f 368 365 348
f 299 300 251
f 251 298 299
f 180 227 226
f 180 226 182
f 182 142 180
f 335 354 355
f 355 356 335
f 396 398 375
f 375 374 396
f 396 373 395
f 396 374 373
f 365 368 387
f 392 369 387
f 387 369 365
f 141 142 101
f 141 180 142
f 390 387 368
f 180 141 181
f 222 227 181
f 227 180 181
f 399 390 400
f 387 390 399
f 393 399 401
f 387 399 393
f 392 387 393
f 370 392 393
f 393 371 370
f 372 352 351
f 351 352 329
f 338 354 335
f 335 296 338
f 337 359 338
f 338 296 337
f 14 6 15
f 15 33 14
f 2 15 6
f 8 15 2
f 50 72 52
f 51 50 52
f 310 256 255
f 309 310 255
f 152 193 151
f 151 111 152
f 111 151 112
f 112 151 153
f 343 359 314
f 314 359 337
f 229 196 158
f 158 183 229
f 9 4 1
f 1 3 9
f 3 11 9
f 11 21 9
f 341 352 342
f 329 352 341
f 342 310 341
f 341 310 309
f 303 302 311
f 311 302 261
f 261 302 301
f 301 260 261
f 260 301 208
f 208 301 252
f 4 12 5
f 1 4 5
f 5 12 26
f 26 13 5
f 8 2 5
f 5 2 1
f 173 136 135
f 135 136 98
f 172 173 135
f 135 134 172
f 241 292 191
f 191 292 240
f 191 193 152
f 191 240 193
f 32 65 66
f 32 66 34
f 343 314 313
f 313 312 343
f 85 72 50
f 85 113 72
f 105 116 115
f 106 116 105
f 196 229 287
f 287 246 196
f 164 208 252
f 164 252 201
f 308 341 309
f 325 341 308
f 325 308 276
f 276 308 277
f 276 220 219
f 276 277 220
f 157 156 185
f 185 156 155
f 185 183 158
f 158 157 185
f 87 60 29
f 29 59 87
f 384 363 386
f 386 363 364
f 14 33 31
f 33 64 31
f 312 313 263
f 263 262 312
f 117 116 106
f 106 148 117
f 147 118 117
f 117 148 147
f 114 105 115
f 86 105 114
f 113 85 114
f 114 85 86
f 74 113 114
f 114 75 74
f 331 298 332
f 332 298 297
f 297 248 332
f 332 248 289
f 289 248 290
f 290 248 247
f 246 287 290
f 247 246 290
f 139 112 153
f 153 174 139
f 140 99 139
f 139 174 140
f 28 13 26
f 26 55 28
f 59 29 28
f 55 59 28
f 366 388 389
f 389 367 366
f 372 351 371
f 371 394 372
f 303 311 300
f 300 340 303
f 397 373 358
f 358 378 397
f 379 360 398
f 398 360 375
f 380 360 379
f 361 360 380
f 368 389 391
f 367 389 368
f 340 300 299
f 339 340 299
f 299 298 331
f 299 331 339
f 390 368 391
f 391 400 390
f 181 99 140
f 65 31 181
f 140 178 181
f 101 100 181
f 100 65 181
f 181 64 99
f 181 31 64
f 178 222 181
f 181 141 101
f 210 217 399
f 202 256 399
f 399 12 4
f 399 25 12
f 399 359 343
f 399 380 379
f 137 136 399
f 399 352 372
f 399 91 87
f 399 310 342
f 342 352 399
f 87 53 399
f 94 93 399
f 399 84 83
f 399 170 137
f 399 256 310
f 53 25 399
f 399 93 92
f 92 91 399
f 354 338 399
f 399 400 391
f 4 9 399
f 343 312 399
f 399 173 172
f 171 170 399
f 399 338 359
f 83 128 399
f 21 48 399
f 399 136 173
f 399 217 171
f 172 133 399
f 399 386 382
f 399 262 210
f 399 164 202
f 399 9 21
f 399 127 126
f 399 133 132
f 399 95 94
f 382 383 399
f 312 262 399
f 372 394 399
f 126 164 399
f 399 48 84
f 399 385 384
f 395 397 399
f 132 95 399
f 391 389 399
f 384 386 399
f 399 394 401
f 128 127 399
f 377 376 399
f 399 378 377
f 399 355 354
f 399 389 388
f 388 385 399
f 376 356 399
f 399 397 378
f 379 398 399
f 381 380 399
f 399 383 381
f 399 396 395
f 356 355 399
f 398 396 399
f 401 394 393
f 394 371 393

