# https://github.com/mikedh/trimesh
v 0.00179242 -0.01035639 0.00542840
v 0.00178955 -0.01056120 0.00542840
v 0.00178859 -0.01068997 -0.00045225
v 0.00179242 -0.01035639 0.00388734
v 0.00173972 -0.01002282 -0.00078390
v 0.00173876 -0.01002282 0.00542840
v 0.00178763 -0.01069065 0.00542840
v 0.00178859 -0.01068997 -0.00654385
v 0.00172534 -0.01102354 0.00542840
v 0.00178955 -0.01060572 -0.00654385
v 0.00179051 -0.01035708 -0.00654385
v 0.00173972 -0.01002282 -0.00654385
v 0.00164197 -0.00973308 0.00542840
v 0.00170139 -0.00991049 0.00542840
v 0.00172534 -0.01102354 0.00522332
v 0.00171193 -0.01102423 -0.00654385
v 0.00163335 -0.01128588 0.00542840
v 0.00164197 -0.00975089 -0.00654385
v 0.00159214 -0.00963103 0.00542840
v 0.00163335 -0.01128451 0.00488932
v 0.00163335 -0.01127561 0.00155172
v 0.00006559 -0.01558262 -0.00654385
v 0.00163335 -0.01127287 0.00088373
v 0.00159885 -0.01135095 0.00542840
v 0.00006367 -0.01558262 -0.00579031
v 0.00006559 -0.01558262 -0.00590399
v 0.00157010 -0.00962623 -0.00654385
v 0.00156052 -0.00956664 0.00542840
v -0.00557681 -0.01558262 -0.00654385
v 0.00154327 -0.01145233 0.00542840
v 0.00004259 -0.01558262 -0.00557117
v 0.00154518 -0.00958376 -0.00654385
v 0.00150398 -0.00948444 0.00542840
v 0.00150685 -0.00952554 -0.00654385
v 0.00139378 -0.00935499 -0.00654385
v -0.00656672 -0.01555317 -0.00045225
v -0.00656672 -0.01555317 -0.00478950
v -0.00656576 -0.01555317 -0.00654385
v -0.00557489 -0.01558262 -0.00581961
v -0.00656576 -0.01555317 0.00542840
v 0.00144265 -0.01159891 0.00542840
v 0.00001288 -0.01558262 -0.00545749
v 0.00137844 -0.01169138 0.00542840
v 0.00125291 -0.01186056 0.00542840
v 0.00141390 -0.00935499 0.00542840
v 0.00126632 -0.00917142 -0.00654385
v -0.00673346 -0.01551960 -0.00045225
v -0.00673346 -0.01551960 -0.00378752
v -0.00669034 -0.01552782 -0.00654385
v -0.00556148 -0.01558262 -0.00577039
v -0.00625719 -0.01556002 0.00542840
v -0.00625719 -0.01556070 0.00488932
v -0.00673250 -0.01551892 0.00542840
v -0.00003503 -0.01558262 -0.00531686
v 0.00108425 -0.01198796 0.00542840
v 0.00135928 -0.00928170 0.00542840
v 0.00108425 -0.00903374 -0.00654385
v 0.00108425 -0.00901525 0.00542840
v 0.00127016 -0.00916662 0.00188571
v 0.00127016 -0.00916731 0.00121772
v -0.00682737 -0.01535179 -0.00011826
v -0.00676892 -0.01545453 0.00542840
v -0.00682642 -0.01535247 0.00542840
v -0.00673346 -0.01551892 -0.00545632
v -0.00673250 -0.01551892 -0.00654385
v -0.00682737 -0.01535179 -0.00654385
v -0.00546852 -0.01558262 -0.00553484
v -0.00610962 -0.01554563 0.00542840
v -0.00526345 -0.01558262 -0.00525944
v -0.00520595 -0.01558262 -0.00518678
v -0.00492997 -0.01558262 -0.00513990
v -0.00058509 -0.01558262 -0.00519498
v -0.00040397 -0.01558262 -0.00520670
v -0.00025160 -0.01558262 -0.00521725
v -0.00014140 -0.01558262 -0.00523483
v -0.00006186 -0.01558262 -0.00526412
v 0.00084755 -0.01215167 0.00542840
v -0.00496926 -0.01531275 0.00542840
v 0.00127111 -0.00916662 0.00322052
v 0.00127111 -0.00916662 0.00542840
v 0.00086863 -0.00888442 -0.00654385
v 0.00089067 -0.00886935 0.00542840
v -0.00691362 -0.01511068 -0.00654385
v -0.00694237 -0.01502780 0.00542840
v -0.00568989 -0.01550385 0.00542840
v -0.00525578 -0.01545385 0.00542840
v -0.00558927 -0.01549357 0.00542840
v 0.00070189 -0.00878373 -0.00654385
v 0.00082647 -0.00883442 0.00542840
v -0.00694237 -0.01502780 -0.00654385
v -0.00703628 -0.01469491 0.00542840
v -0.00708803 -0.01451272 0.00040910
v -0.00699699 -0.01483533 0.00040910
v 0.00048915 -0.00870222 -0.00654385
v 0.00041632 -0.00866044 0.00542840
v 0.00053515 -0.00870633 0.00542840
v 0.00072393 -0.00877962 0.00542840
v -0.00708803 -0.01451272 -0.00654385
v -0.00779620 -0.01199139 0.00542840
v -0.00779716 -0.01199139 0.00040910
v 0.00041632 -0.00867483 -0.00654385
v 0.00008284 -0.00859742 0.00542840
v -0.00779716 -0.01199139 -0.00654385
v -0.00787287 -0.01169138 0.00542840
v -0.00787383 -0.01169206 0.00040910
v -0.00785466 -0.01176809 -0.00654385
v 0.00016717 -0.00863167 -0.00654385
v -0.00025065 -0.00858510 0.00542840
v 0.00008284 -0.00861797 -0.00654385
v -0.00016632 -0.00860633 -0.00654385
v -0.00025160 -0.00860290 -0.00654385
v -0.00792941 -0.01135780 0.00542840
v -0.00793036 -0.01135780 0.00040910
v -0.00787383 -0.01169206 -0.00654385
v -0.00058509 -0.00864126 0.00542840
v -0.00049980 -0.00864606 -0.00654385
v -0.00799649 -0.01069065 0.00542840
v -0.00799744 -0.01068997 -0.00045225
v -0.00796390 -0.01102423 -0.00045225
v -0.00793036 -0.01135780 -0.00654385
v -0.00659068 -0.00979473 0.00542840
v -0.00058509 -0.00866113 -0.00654385
v -0.00659164 -0.00979473 -0.00654385
v -0.00659164 -0.00979473 0.00040910
v -0.00797157 -0.01048585 0.00542840
v -0.00795720 -0.01035708 -0.00045225
v -0.00799744 -0.01068997 -0.00654385
v -0.00796390 -0.01102423 -0.00654385
v -0.00759209 -0.01005570 0.00542840
v -0.00679192 -0.00984679 0.00040910
v -0.00683408 -0.00985775 -0.00654385
v -0.00795528 -0.01035639 0.00542840
v -0.00782974 -0.01014406 0.00040910
v -0.00786233 -0.01019817 -0.00654385
v -0.00795720 -0.01035708 -0.00645830
v -0.00782879 -0.01014406 0.00542840
v -0.00796678 -0.01044133 -0.00654385
v -0.00759209 -0.01005570 0.00040910
v -0.00776937 -0.01012145 -0.00654385
v -0.00750776 -0.01003378 -0.00654385
v -0.00782974 -0.01014406 -0.00654385
v -0.00795624 -0.01035708 -0.00654385
v -0.00759305 -0.01005638 -0.00654385
f 22 16 23
f 23 21 22
f 23 16 21
f 118 117 126
f 22 21 20
f 20 17 22
f 111 108 102
f 115 108 111
f 124 115 123
f 29 37 38
f 133 126 136
f 136 126 132
f 2 3 1
f 2 7 3
f 3 7 9
f 76 78 86
f 53 47 40
f 113 112 117
f 113 117 118
f 101 102 95
f 121 115 124
f 122 123 115
f 124 123 130
f 130 121 124
f 125 126 117
f 125 132 126
f 15 16 8
f 21 16 15
f 15 20 21
f 15 9 17
f 17 20 15
f 87 76 86
f 72 51 71
f 77 78 54
f 78 76 54
f 54 55 77
f 39 40 29
f 71 51 70
f 36 40 47
f 36 37 29
f 29 40 36
f 8 10 4
f 4 10 11
f 4 11 12
f 119 113 118
f 104 112 105
f 112 113 105
f 104 105 99
f 99 105 100
f 111 102 110
f 102 109 110
f 107 102 101
f 107 109 102
f 79 58 80
f 46 45 33
f 5 6 1
f 19 18 28
f 81 88 82
f 101 95 94
f 94 95 88
f 129 133 136
f 121 130 129
f 116 115 111
f 116 122 115
f 138 143 139
f 141 133 139
f 133 129 139
f 139 129 138
f 131 130 123
f 138 129 131
f 131 129 130
f 62 47 53
f 62 63 47
f 65 49 48
f 48 49 38
f 48 38 37
f 51 76 68
f 44 55 42
f 55 54 42
f 50 67 51
f 51 39 50
f 51 40 52
f 52 39 51
f 40 39 52
f 51 67 69
f 69 70 51
f 134 142 135
f 126 133 134
f 134 133 141
f 134 135 126
f 127 135 137
f 135 142 137
f 91 99 100
f 106 105 114
f 100 105 106
f 106 103 100
f 35 33 28
f 46 33 35
f 28 18 27
f 27 32 28
f 56 79 80
f 56 45 46
f 12 18 13
f 13 5 12
f 18 19 13
f 57 81 82
f 82 58 57
f 57 58 46
f 82 88 89
f 88 97 89
f 88 95 96
f 96 97 88
f 140 143 138
f 138 131 140
f 47 63 61
f 61 63 84
f 64 66 65
f 64 48 66
f 65 48 64
f 76 87 85
f 85 68 76
f 75 76 51
f 51 74 75
f 51 72 73
f 73 74 51
f 44 42 31
f 28 32 34
f 34 35 28
f 60 56 46
f 6 5 14
f 5 13 14
f 66 61 83
f 84 90 83
f 83 61 84
f 44 31 43
f 25 24 30
f 30 31 25
f 17 24 25
f 84 91 92
f 92 91 100
f 79 56 59
f 56 60 59
f 58 79 59
f 46 58 59
f 59 60 46
f 41 31 30
f 41 43 31
f 22 17 26
f 17 25 26
f 93 98 90
f 93 90 84
f 93 92 98
f 84 92 93
f 118 126 135
f 135 127 118
f 3 9 15
f 8 3 15
f 4 3 8
f 1 3 4
f 105 120 114
f 113 120 105
f 1 4 5
f 5 4 12
f 48 36 47
f 37 36 48
f 118 127 128
f 128 119 118
f 128 120 113
f 113 119 128
f 61 48 47
f 66 48 61
f 83 16 22
f 114 120 83
f 22 29 83
f 83 10 8
f 8 16 83
f 83 106 114
f 83 131 123
f 127 137 83
f 83 116 111
f 83 107 101
f 12 11 83
f 83 49 65
f 101 94 83
f 29 38 83
f 11 10 83
f 83 128 127
f 111 110 83
f 83 18 12
f 83 27 18
f 123 122 83
f 141 139 83
f 38 49 83
f 65 66 83
f 83 134 141
f 143 140 83
f 83 110 109
f 109 107 83
f 46 35 83
f 88 81 83
f 83 94 88
f 122 116 83
f 83 139 143
f 83 57 46
f 83 34 32
f 120 128 83
f 142 134 83
f 83 137 142
f 103 106 83
f 90 98 83
f 32 27 83
f 81 57 83
f 83 140 131
f 83 98 103
f 35 34 83
f 103 98 92
f 100 103 92
f 41 95 102
f 41 112 104
f 136 132 41
f 41 125 117
f 1 6 41
f 41 102 108
f 17 9 41
f 41 78 77
f 41 85 87
f 77 55 41
f 41 2 1
f 41 24 17
f 86 78 41
f 117 112 41
f 41 87 86
f 41 91 84
f 53 40 41
f 80 58 41
f 108 115 41
f 41 129 136
f 41 55 44
f 6 14 41
f 7 2 41
f 41 9 7
f 41 40 51
f 104 99 41
f 28 33 41
f 41 58 82
f 41 19 28
f 115 121 41
f 84 63 41
f 132 125 41
f 30 24 41
f 41 62 53
f 51 68 41
f 41 33 45
f 41 56 80
f 82 89 41
f 121 129 41
f 63 62 41
f 41 96 95
f 99 91 41
f 45 56 41
f 41 13 19
f 41 89 97
f 97 96 41
f 68 85 41
f 41 14 13
f 44 43 41
f 26 29 22
f 26 72 71
f 26 69 67
f 26 39 29
f 71 70 26
f 26 54 76
f 26 73 72
f 67 50 26
f 76 75 26
f 26 42 54
f 26 50 39
f 70 69 26
f 26 75 74
f 74 73 26
f 26 31 42
f 26 25 31

