# https://github.com/mikedh/trimesh
v -0.01081930 0.01644496 -0.00900825
v -0.01081722 0.01644496 -0.00958873
v -0.01079851 0.01586730 -0.00958873
v -0.01080683 0.01609036 -0.00472184
v -0.01081930 0.01644496 -0.00472184
v -0.01081930 0.03502162 -0.00900825
v -0.01073406 0.01644496 -0.00998356
v -0.01072367 0.01586730 -0.00997211
v -0.01081722 0.03386058 -0.00958873
v -0.01079851 0.01586730 -0.00472184
v -0.01069248 0.01552985 -0.00993353
v -0.01071535 0.01550698 -0.00958873
v -0.01081930 0.03502162 -0.00472184
v -0.01081722 0.03559928 -0.00900825
v -0.01035777 0.01644496 -0.01013365
v -0.01073406 0.03327720 -0.00998356
v -0.01035777 0.01586730 -0.01010472
v -0.00339120 -0.00154832 -0.01084434
v -0.00384649 -0.00154832 -0.01063457
v -0.01081306 0.03443824 -0.00958873
v -0.01073198 0.03386058 -0.00998356
v -0.01071535 0.01550698 -0.00472184
v -0.00375293 -0.00197156 -0.01055380
v -0.00401072 -0.00154832 -0.01016922
v -0.00401280 -0.00154832 -0.00958873
v -0.01081722 0.03559928 -0.00472184
v -0.01081099 0.03618266 -0.00842777
v -0.01079851 0.03676032 -0.00842777
v -0.01079435 0.03618266 -0.00900825
v -0.01079227 0.03502162 -0.00958873
v -0.00339120 -0.00038728 -0.01087930
v -0.00339120 -0.00097066 -0.01087870
v -0.01035777 0.03327720 -0.01013365
v -0.01035777 0.03386058 -0.01013305
v -0.00281117 -0.00213170 -0.01087508
v -0.00286730 -0.00276655 -0.01070630
v -0.00342654 -0.00214886 -0.01068038
v -0.01072783 0.03443824 -0.00997271
v -0.01035777 0.01540975 -0.00472184
v -0.00398578 -0.00154832 -0.00900825
v -0.00377996 -0.00202303 -0.00900825
v -0.00374254 -0.00194868 -0.00865803
v -0.00323735 -0.00258925 -0.00862729
v -0.00223530 -0.00213170 -0.00795036
v -0.00165111 -0.00213170 -0.00777013
v -0.00048897 -0.00270936 -0.00778339
v -0.00325606 -0.00260641 -0.01059418
v -0.00362404 -0.00232616 -0.01016922
v -0.00379036 -0.00203447 -0.01016922
v -0.00379036 -0.00203447 -0.00958873
v -0.01080891 0.03618266 -0.00472184
v -0.01081099 0.03618266 -0.00494487
v -0.01079851 0.03676032 -0.00726740
v -0.01077980 0.03734370 -0.00784728
v -0.01075485 0.03792137 -0.00784728
v -0.01072159 0.03850475 -0.00784728
v -0.01066754 0.03897946 -0.00816736
v -0.01071327 0.03618266 -0.00941212
v -0.01070704 0.03502162 -0.00994016
v -0.01073198 0.03558784 -0.00960019
v -0.00339120 0.00077376 -0.01087930
v -0.00281117 -0.00154832 -0.01087930
v -0.00223114 -0.00270936 -0.01087689
v -0.01035777 0.03443824 -0.01010532
v -0.00977774 0.03386058 -0.01017826
v -0.00165111 -0.00329274 -0.01085338
v -0.00226232 -0.00333278 -0.01068882
v -0.00271138 -0.00316691 -0.01059659
v -0.00281117 0.01353950 -0.00472184
v -0.00362404 -0.00232616 -0.00958873
v -0.00360949 -0.00230900 -0.00900825
v -0.00332051 -0.00269220 -0.00900825
v -0.00308143 -0.00297817 -0.00900825
v -0.00269267 -0.00314404 -0.00862608
v -0.00204403 -0.00250918 -0.00804379
v -0.00160329 -0.00270936 -0.00799316
v -0.00106900 -0.00270936 -0.00785874
v -0.00048897 -0.00314404 -0.00798171
v 0.00008897 -0.00315547 -0.00796664
v 0.00008897 -0.00270936 -0.00776892
v -0.00309598 -0.00299533 -0.01016922
v -0.00333506 -0.00270364 -0.01016922
v -0.01080475 0.03640572 -0.00472184
v -0.01079643 0.03676032 -0.00552535
v -0.01077980 0.03734370 -0.00610583
v -0.01075485 0.03792137 -0.00472184
v -0.01074238 0.03814442 -0.00472184
v -0.01072159 0.03850475 -0.00472184
v -0.01070496 0.03872208 -0.00472184
v -0.01067585 0.03907097 -0.00784728
v -0.01038480 0.04198787 -0.00784728
v -0.01008751 0.04416125 -0.00816736
v -0.01067585 0.03538195 -0.00990520
v -0.00223114 0.01063975 -0.01087930
v -0.00223114 -0.00213170 -0.01087930
v -0.00106900 -0.00329274 -0.01087930
v -0.01035777 0.03502162 -0.01002997
v -0.00861769 0.05069282 -0.00836990
v -0.00861769 0.05011516 -0.00844223
v -0.00745555 0.03850475 -0.01006132
v -0.00687552 0.03850475 -0.01015294
v -0.00687552 0.03792137 -0.01017886
v -0.00048897 -0.00387040 -0.01075754
v -0.00165111 -0.00377317 -0.01064361
v -0.00208769 -0.00367022 -0.01056525
v -0.00280493 -0.00324698 -0.01016922
v -0.00245359 -0.00353868 -0.01016922
v 0.00241117 0.01353378 -0.00472184
v -0.00333506 -0.00270364 -0.00958873
v -0.00309598 -0.00299533 -0.00958873
v -0.00279246 -0.00322983 -0.00900825
v -0.00243696 -0.00352152 -0.00900825
v -0.00206898 -0.00365306 -0.00864899
v -0.00106900 -0.00307540 -0.00805705
v -0.00084240 -0.00417925 -0.00869782
v -0.00048897 -0.00420213 -0.00866949
v 0.00066900 -0.00313260 -0.00799557
v 0.00066900 -0.00270936 -0.00779786
v 0.00008897 -0.00421356 -0.00865442
v 0.01009498 0.01544978 -0.00472184
v 0.00299120 0.01363673 -0.00472184
v 0.00263569 0.01356238 -0.00472184
v -0.01078812 0.03698338 -0.00472184
v -0.01077772 0.03734370 -0.00472184
v -0.01076941 0.03756676 -0.00472184
v -0.01067585 0.03907097 -0.00472184
v -0.01065922 0.03924827 -0.00472184
v -0.01050538 0.04082683 -0.00726740
v -0.01044717 0.04140449 -0.00726740
v -0.01042430 0.04162755 -0.00472184
v -0.01038480 0.04198787 -0.00472184
v -0.01035777 0.04221093 -0.00472184
v -0.01031412 0.04256553 -0.00784728
v -0.00949709 0.04873678 -0.00815350
v -0.00905011 0.05069282 -0.00825597
v -0.00223114 0.01122314 -0.01086664
v -0.00165111 0.01122314 -0.01086785
v -0.00048897 0.01122314 -0.01086905
v 0.00241117 0.01063975 -0.01087930
v 0.00066900 -0.00329274 -0.01087930
v 0.00008897 -0.00387040 -0.01077683
v -0.00898566 0.05115609 -0.00820293
v -0.00513336 0.05243724 -0.00847780
v -0.00397330 0.03850475 -0.01015294
v -0.00455333 0.05243724 -0.00847900
v -0.00165111 0.03792137 -0.01017886
v 0.00008897 -0.00423072 -0.01056706
v -0.00048897 -0.00421356 -0.01054777
v -0.00107108 -0.00391044 -0.01065326
v -0.00087982 -0.00418497 -0.01050256
v -0.00165111 -0.00396763 -0.01016922
v -0.00216253 -0.00371598 -0.01016922
v -0.00280493 -0.00324698 -0.00958873
v -0.00245359 -0.00353868 -0.00958873
v -0.00214798 -0.00370454 -0.00900825
v -0.00165111 -0.00393903 -0.00900825
v -0.00165111 -0.00374457 -0.00859414
v -0.00119166 -0.00410490 -0.00900825
v -0.00090269 -0.00419069 -0.00900825
v -0.00048897 -0.00425360 -0.00900825
v 0.00008897 -0.00428220 -0.00900825
v 0.00111182 -0.00306968 -0.00806067
v 0.00128437 -0.00275511 -0.00794373
v 0.00066900 -0.00419069 -0.00868455
v 0.00097045 -0.00416209 -0.00871409
v 0.00183114 -0.00371026 -0.00861222
v 0.00183114 -0.00213170 -0.00782558
v 0.01031535 0.01550698 -0.00472184
v -0.01059685 0.03988884 -0.00472184
v -0.01050538 0.04082683 -0.00472184
v -0.01044717 0.04140449 -0.00472184
v -0.01031412 0.04256553 -0.00472184
v -0.01013740 0.04392103 -0.00472184
v -0.00970706 0.04720970 -0.00784728
v -0.00950124 0.04877110 -0.00784728
v -0.00909585 0.05185386 -0.00726740
v -0.00922058 0.05069282 -0.00784728
v 0.00241117 0.01122314 -0.01086905
v 0.00937774 0.02514991 -0.01017404
v 0.00357330 0.00019038 -0.01087809
v 0.00299120 0.00193480 -0.01087930
v 0.00821769 0.03327720 -0.01017826
v 0.00183114 -0.00270936 -0.01087930
v 0.00125111 -0.00329274 -0.01087809
v 0.00066900 -0.00387040 -0.01073765
v -0.00900022 0.05185386 -0.00773758
v -0.00895448 0.05223134 -0.00762184
v -0.00861769 0.05153929 -0.00811974
v -0.00559489 0.05284332 -0.00824995
v -0.00513336 0.05290623 -0.00830721
v -0.00339120 0.03850475 -0.01014691
v 0.00241117 0.05243724 -0.00847900
v 0.00299120 0.05243724 -0.00847478
v -0.00455333 0.05290623 -0.00830842
v 0.00647552 0.03559928 -0.01017886
v 0.00066900 -0.00420213 -0.01052788
v 0.00008897 -0.00429936 -0.01016922
v -0.00048897 -0.00427076 -0.01016922
v -0.00122077 -0.00412206 -0.01016922
v -0.00092971 -0.00420213 -0.01016922
v -0.00122077 -0.00412778 -0.00958873
v -0.00165111 -0.00396763 -0.00958873
v -0.00216253 -0.00371598 -0.00958873
v -0.00092971 -0.00420213 -0.00958873
v -0.00048897 -0.00427076 -0.00958873
v 0.00008897 -0.00429936 -0.00958873
v 0.00066900 -0.00423072 -0.00900825
v 0.00219080 -0.00362447 -0.00867129
v 0.00183114 -0.00258353 -0.00801426
v 0.00099748 -0.00417353 -0.00900825
v 0.00128853 -0.00407630 -0.00900825
v 0.00183114 -0.00385896 -0.00900825
v 0.00217209 -0.00246914 -0.00808719
v 0.00238414 -0.00208594 -0.00802330
v 0.01031535 0.01550698 -0.00958873
v 0.01036733 0.01573003 -0.00472184
v 0.00336125 -0.00252634 -0.00864959
v 0.00386644 -0.00184573 -0.00871409
v 0.00399533 -0.00154832 -0.00900825
v 0.00401196 -0.00154832 -0.00958873
v -0.00890874 0.05331231 -0.00472184
v -0.00890874 0.05331231 -0.00552535
v -0.00902308 0.05243724 -0.00668632
v -0.00917485 0.05127620 -0.00726740
v -0.00890458 0.05329515 -0.00624508
v -0.00894616 0.05290623 -0.00668632
v -0.00893369 0.05278041 -0.00703835
v -0.00898150 0.05243152 -0.00724631
v 0.00763558 0.03502162 -0.01017525
v 0.00995777 0.02225589 -0.01013365
v 0.00937774 0.02457797 -0.01017886
v 0.00995777 0.01644496 -0.01013365
v 0.00357330 -0.00038728 -0.01087629
v 0.00299120 -0.00154832 -0.01087930
v 0.00821769 0.03386058 -0.01014390
v 0.00866258 0.03327720 -0.01002817
v 0.00995777 0.02283355 -0.01011316
v 0.00241117 -0.00270936 -0.01086122
v 0.00241117 -0.00213170 -0.01087930
v 0.00183114 -0.00329274 -0.01083108
v 0.00121785 -0.00389900 -0.01063999
v -0.00861769 0.05185386 -0.00794494
v -0.00861769 0.05287192 -0.00712816
v -0.00861769 0.05259739 -0.00741870
v -0.00851582 0.05339238 -0.00652236
v -0.00513336 0.05308926 -0.00784728
v -0.00455333 0.05309497 -0.00784728
v -0.00803558 0.05370695 -0.00610583
v -0.00803558 0.05387281 -0.00576948
v 0.00241117 0.05290623 -0.00830842
v 0.00299120 0.05290051 -0.00830359
v 0.00357330 0.05243724 -0.00841812
v 0.00415333 0.05185386 -0.00847900
v 0.00705555 0.03559928 -0.01015837
v 0.00100164 -0.00417353 -0.01048146
v 0.00066900 -0.00424216 -0.01016922
v 0.00066900 -0.00424216 -0.00958873
v 0.00223861 -0.00365878 -0.00900825
v 0.00252967 -0.00345288 -0.00900825
v 0.00288309 -0.00316119 -0.00900825
v 0.00281241 -0.00309828 -0.00864055
v 0.00102243 -0.00417925 -0.00958873
v 0.00131140 -0.00409346 -0.00958873
v 0.00183114 -0.00388184 -0.00958873
v 0.00401196 -0.00154832 -0.01016922
v 0.00387475 -0.00186289 -0.01048146
v 0.01029248 0.01552985 -0.00993353
v 0.01039851 0.01586730 -0.00958873
v 0.01039851 0.01586730 -0.00472184
v 0.00317206 -0.00288094 -0.00900825
v 0.00341114 -0.00258925 -0.00900825
v 0.00370220 -0.00215458 -0.00900825
v 0.00387475 -0.00186289 -0.00900825
v 0.00388099 -0.00187433 -0.00958873
v -0.00883390 0.05360400 -0.00472184
v -0.00890666 0.05330659 -0.00585809
v -0.00882558 0.05360400 -0.00494487
v -0.00853661 0.05399292 -0.00494487
v -0.00845553 0.05394717 -0.00540178
v -0.00867382 0.05318648 -0.00670440
v 0.00531339 0.05127620 -0.00846454
v 0.00589550 0.05069282 -0.00847539
v 0.00647552 0.05011516 -0.00847659
v 0.00705555 0.04953178 -0.00846333
v 0.00763558 0.04895412 -0.00842958
v 0.00821769 0.04779308 -0.00842596
v 0.01033406 0.02225589 -0.00998356
v 0.01033406 0.01644496 -0.00998356
v 0.01032367 0.01586730 -0.00997211
v 0.00995777 0.01586730 -0.01010472
v 0.00357330 -0.00097066 -0.01085398
v 0.00299120 -0.00213170 -0.01085278
v 0.00861685 0.03386058 -0.00999381
v 0.01031327 0.02283355 -0.00996307
v 0.00301199 -0.00272652 -0.01067616
v 0.00240493 -0.00330418 -0.01065928
v 0.00183114 -0.00373313 -0.01062131
v 0.00241117 0.05309497 -0.00784728
v -0.00803558 0.05397004 -0.00547954
v 0.00357330 0.05282616 -0.00824754
v 0.00299120 0.05307210 -0.00784728
v 0.00413254 0.05246012 -0.00829757
v 0.00473336 0.05185386 -0.00842174
v 0.00131140 -0.00409346 -0.01016922
v 0.00102243 -0.00417925 -0.01016922
v 0.00220743 -0.00363591 -0.01053631
v 0.00183114 -0.00388184 -0.01016922
v 0.00225109 -0.00366450 -0.00958873
v 0.00254214 -0.00346432 -0.00958873
v 0.00289556 -0.00317835 -0.00958873
v 0.00388099 -0.00187433 -0.01016922
v 0.00371259 -0.00216601 -0.01016922
v 0.00342362 -0.00260069 -0.01016922
v 0.00337580 -0.00254350 -0.01056404
v 0.00357122 -0.00208594 -0.01061950
v 0.00393712 -0.00154832 -0.01055802
v 0.00402652 -0.00097066 -0.01064421
v 0.01041722 0.01644496 -0.00958873
v 0.01041930 0.01644496 -0.00900825
v 0.01041930 0.01644496 -0.00472184
v 0.00318662 -0.00289238 -0.00958873
v 0.00342362 -0.00260069 -0.00958873
v 0.00371259 -0.00216601 -0.00958873
v -0.00872164 0.05376415 -0.00472184
v -0.00854492 0.05401008 -0.00472184
v -0.00803558 0.05413019 -0.00472184
v -0.00803558 0.05409587 -0.00494487
v 0.00650463 0.05072714 -0.00833735
v 0.00591628 0.05130480 -0.00832771
v 0.00708466 0.05013232 -0.00832831
v 0.00763558 0.04950890 -0.00829033
v 0.00805553 0.04895412 -0.00825899
v 0.00823848 0.04835930 -0.00830299
v 0.00861061 0.04779308 -0.00825537
v 0.01041722 0.02225589 -0.00958873
v 0.00357330 -0.00154832 -0.01076778
v 0.00866258 0.04720970 -0.00830179
v 0.01037980 0.02283355 -0.00958873
v 0.00881851 0.04720970 -0.00784728
v 0.00283112 -0.00311544 -0.01057610
v 0.00357330 0.05292911 -0.00784728
v 0.00392465 0.05275181 -0.00817641
v 0.00473336 0.05226566 -0.00825115
v 0.00299120 0.05307782 -0.00726740
v 0.00528220 0.05185386 -0.00828491
v 0.00254214 -0.00346432 -0.01016922
v 0.00225109 -0.00366450 -0.01016922
v 0.00289556 -0.00317835 -0.01016922
v 0.00318662 -0.00289238 -0.01016922
v 0.01041930 0.02225589 -0.00900825
v 0.01041930 0.02225589 -0.00472184
v 0.00299120 0.05307782 -0.00472184
v 0.00691003 0.05055555 -0.00824814
v 0.00633208 0.05112749 -0.00824633
v 0.00573542 0.05165940 -0.00823186
v 0.00744016 0.04995502 -0.00823066
v 0.00796405 0.04929728 -0.00818545
v 0.00854200 0.04815340 -0.00818545
v 0.00871456 0.04779308 -0.00784728
v 0.00881851 0.04720970 -0.00472184
v 0.00380822 0.05283188 -0.00472184
v 0.00395583 0.05276897 -0.00784728
v 0.00357330 0.05292911 -0.00472184
v 0.00424688 0.05263742 -0.00784728
v 0.00473336 0.05239148 -0.00784728
v 0.00506599 0.05217415 -0.00817520
v 0.00669589 0.05091588 -0.00784728
v 0.00698279 0.05062991 -0.00784728
v 0.00727384 0.05030962 -0.00784728
v 0.00640692 0.05119613 -0.00784728
v 0.00609300 0.05148782 -0.00784728
v 0.00748590 0.05002365 -0.00784728
v 0.00798277 0.04932588 -0.00784728
v 0.00818442 0.04895412 -0.00784728
v 0.00842143 0.04847941 -0.00784728
v 0.00855864 0.04819344 -0.00784728
v 0.00871456 0.04779308 -0.00472184
v 0.00861893 0.04803901 -0.00472184
v 0.00395583 0.05276897 -0.00472184
v 0.00424688 0.05264314 -0.00726740
v 0.00473336 0.05239720 -0.00726740
v 0.00508886 0.05218559 -0.00784728
v 0.00537784 0.05199685 -0.00784728
v 0.00580194 0.05170516 -0.00784728
v 0.00651710 0.05109318 -0.00472184
v 0.00669589 0.05091588 -0.00472184
v 0.00698279 0.05062991 -0.00472184
v 0.00727384 0.05030962 -0.00472184
v 0.00640692 0.05119613 -0.00472184
v 0.00628426 0.05131052 -0.00472184
v 0.00609300 0.05148782 -0.00472184
v 0.00748590 0.05002365 -0.00472184
v 0.00798277 0.04932588 -0.00472184
v 0.00818858 0.04895412 -0.00726740
v 0.00842350 0.04847941 -0.00726740
v 0.00855864 0.04819344 -0.00472184
v 0.00424688 0.05264314 -0.00472184
v 0.00473336 0.05239720 -0.00472184
v 0.00508886 0.05218559 -0.00472184
v 0.00563978 0.05181954 -0.00472184
v 0.00537784 0.05199685 -0.00472184
v 0.00580194 0.05170516 -0.00472184
v 0.00818858 0.04895412 -0.00472184
v 0.00842350 0.04847941 -0.00472184
f 1 4 5
f 80 108 69
f 326 278 325
f 218 168 217
f 350 335 339
f 339 294 337
f 178 182 139
f 182 178 229
f 229 178 195
f 195 178 146
f 65 102 94
f 94 61 65
f 101 102 65
f 3 2 8
f 1 2 3
f 3 4 1
f 44 22 43
f 45 22 44
f 43 22 42
f 42 22 41
f 25 50 41
f 25 12 24
f 25 22 12
f 25 24 49
f 49 50 25
f 122 108 80
f 80 121 122
f 120 121 80
f 217 168 214
f 168 167 214
f 220 168 219
f 168 218 219
f 46 22 45
f 46 39 22
f 69 39 46
f 80 69 46
f 77 46 45
f 78 46 77
f 157 113 115
f 115 113 156
f 85 124 125
f 125 86 85
f 9 6 14
f 88 56 87
f 86 87 55
f 55 87 56
f 277 325 278
f 339 335 338
f 338 294 339
f 335 294 338
f 293 337 294
f 285 229 284
f 254 229 195
f 24 12 11
f 11 3 8
f 12 3 11
f 81 47 68
f 105 107 68
f 68 67 105
f 36 67 68
f 68 47 36
f 41 50 70
f 266 265 311
f 315 295 292
f 139 182 179
f 4 3 10
f 7 15 8
f 8 2 7
f 8 15 17
f 17 18 8
f 32 17 15
f 18 17 32
f 74 44 43
f 43 73 74
f 71 42 41
f 41 70 71
f 41 22 40
f 40 25 41
f 22 25 40
f 76 77 45
f 152 107 105
f 113 74 112
f 51 52 26
f 51 83 52
f 133 132 172
f 172 173 133
f 222 173 221
f 221 275 222
f 28 55 56
f 56 57 28
f 14 27 28
f 91 132 133
f 133 92 91
f 92 57 91
f 325 277 324
f 324 277 275
f 93 92 134
f 134 92 133
f 21 16 9
f 234 181 180
f 180 181 139
f 139 179 180
f 180 179 231
f 231 179 230
f 230 180 231
f 230 179 182
f 215 265 266
f 215 216 168
f 287 294 335
f 182 229 235
f 94 102 136
f 326 352 344
f 344 301 326
f 301 344 341
f 279 278 326
f 98 143 101
f 142 143 98
f 98 97 93
f 229 282 283
f 283 284 229
f 8 18 19
f 19 11 8
f 81 68 106
f 106 68 107
f 150 198 200
f 234 180 233
f 266 311 312
f 349 340 314
f 314 315 266
f 295 315 314
f 314 340 295
f 93 97 64
f 101 65 64
f 64 100 101
f 97 98 64
f 31 32 15
f 35 32 63
f 18 32 35
f 63 36 35
f 36 18 35
f 62 95 63
f 63 32 62
f 32 31 62
f 43 42 72
f 42 71 72
f 72 73 43
f 72 71 70
f 70 109 72
f 118 167 168
f 168 120 118
f 118 120 80
f 80 46 79
f 79 46 78
f 79 118 80
f 117 118 79
f 307 255 306
f 166 117 165
f 75 74 113
f 113 76 75
f 44 74 75
f 45 44 75
f 75 76 45
f 77 76 114
f 78 77 114
f 113 157 114
f 114 76 113
f 115 78 114
f 114 157 115
f 155 156 113
f 113 112 155
f 204 201 200
f 115 156 158
f 156 201 158
f 200 201 199
f 199 150 200
f 202 201 156
f 156 155 202
f 276 222 275
f 276 223 222
f 55 28 54
f 128 91 90
f 90 57 56
f 90 91 57
f 132 91 131
f 224 175 174
f 133 173 174
f 174 134 133
f 175 134 174
f 174 223 224
f 173 222 174
f 222 223 174
f 135 134 142
f 93 134 135
f 142 98 135
f 135 98 93
f 142 134 177
f 38 30 59
f 93 64 59
f 59 64 38
f 29 30 14
f 14 28 29
f 29 28 57
f 9 14 20
f 14 30 20
f 20 30 38
f 20 21 9
f 38 21 20
f 58 92 93
f 30 29 58
f 58 57 92
f 58 29 57
f 334 359 339
f 339 337 334
f 333 332 334
f 337 293 334
f 377 359 378
f 376 396 378
f 378 359 376
f 237 230 182
f 294 287 237
f 237 287 230
f 269 216 268
f 216 215 268
f 102 138 137
f 137 136 102
f 137 138 94
f 94 136 137
f 251 301 300
f 301 341 300
f 252 303 253
f 251 300 252
f 253 303 281
f 254 253 281
f 281 282 229
f 229 254 281
f 249 279 299
f 298 301 251
f 298 247 249
f 249 299 298
f 190 249 246
f 246 247 190
f 249 247 246
f 101 100 99
f 99 98 101
f 100 64 99
f 99 64 98
f 101 143 145
f 37 19 18
f 36 47 37
f 37 18 36
f 73 72 110
f 110 72 109
f 82 47 81
f 82 48 47
f 63 95 96
f 306 255 297
f 180 230 232
f 232 233 180
f 266 315 316
f 218 272 273
f 273 219 218
f 274 220 273
f 220 219 273
f 274 273 323
f 323 273 272
f 323 272 322
f 349 314 313
f 266 312 313
f 313 314 266
f 38 64 34
f 34 21 38
f 34 64 65
f 33 16 34
f 16 21 34
f 34 61 33
f 34 65 61
f 213 214 167
f 167 209 213
f 213 209 261
f 217 214 213
f 213 261 217
f 162 117 166
f 217 261 270
f 261 260 270
f 208 260 261
f 261 209 208
f 208 162 166
f 166 165 208
f 255 307 304
f 197 196 256
f 256 196 255
f 115 158 159
f 159 158 201
f 201 204 159
f 159 204 205
f 151 152 105
f 105 150 151
f 150 199 151
f 151 199 201
f 201 202 151
f 203 202 155
f 83 123 84
f 84 53 52
f 52 83 84
f 84 123 124
f 85 53 84
f 84 124 85
f 130 131 91
f 142 177 186
f 224 223 176
f 176 177 134
f 176 175 224
f 176 134 175
f 93 59 60
f 60 58 93
f 60 59 30
f 30 58 60
f 375 395 376
f 394 395 375
f 375 374 394
f 376 359 358
f 359 334 358
f 358 375 376
f 358 332 357
f 358 334 332
f 357 374 358
f 374 375 358
f 293 235 286
f 286 334 293
f 286 229 285
f 286 235 229
f 333 334 286
f 285 332 286
f 286 332 333
f 236 293 294
f 294 237 236
f 236 237 182
f 182 235 236
f 236 235 293
f 319 268 318
f 369 372 357
f 357 372 373
f 373 374 357
f 394 374 373
f 368 369 353
f 193 252 253
f 193 253 254
f 251 252 193
f 193 254 195
f 195 146 193
f 193 144 192
f 303 252 302
f 302 252 300
f 189 244 243
f 189 188 242
f 142 188 189
f 189 143 142
f 190 143 189
f 245 279 249
f 190 189 245
f 243 280 245
f 245 189 243
f 250 298 251
f 251 193 250
f 250 193 192
f 327 298 299
f 327 279 326
f 327 299 279
f 326 301 327
f 301 298 327
f 23 37 47
f 19 37 23
f 47 48 23
f 23 48 49
f 49 24 23
f 24 11 23
f 11 19 23
f 154 155 112
f 154 203 155
f 111 74 73
f 111 112 74
f 111 110 153
f 73 110 111
f 153 154 111
f 111 154 112
f 105 67 104
f 104 150 105
f 296 297 240
f 295 340 296
f 296 340 306
f 306 297 296
f 289 232 288
f 288 318 289
f 289 318 268
f 217 270 271
f 271 218 217
f 271 272 218
f 322 272 271
f 322 271 321
f 321 271 270
f 163 208 209
f 162 208 163
f 163 209 167
f 167 118 163
f 163 118 117
f 117 162 163
f 212 208 165
f 347 307 306
f 306 346 347
f 208 212 258
f 258 212 264
f 255 304 305
f 305 256 255
f 264 212 263
f 206 161 205
f 205 161 160
f 115 159 160
f 160 159 205
f 117 79 119
f 89 56 88
f 89 90 56
f 89 126 90
f 90 126 127
f 128 90 127
f 227 280 243
f 356 369 357
f 356 353 369
f 282 281 328
f 328 283 282
f 390 371 391
f 361 341 363
f 342 364 365
f 342 300 341
f 146 144 191
f 191 193 146
f 144 193 191
f 248 249 190
f 190 245 248
f 248 245 249
f 190 247 194
f 66 104 67
f 63 96 66
f 66 36 63
f 66 67 36
f 238 234 292
f 292 295 238
f 295 296 238
f 238 296 240
f 147 196 197
f 184 238 240
f 183 238 184
f 198 150 148
f 197 198 148
f 148 147 197
f 196 147 185
f 185 147 141
f 185 184 240
f 141 184 185
f 336 315 292
f 336 316 315
f 317 316 336
f 233 232 291
f 291 336 292
f 291 289 317
f 317 336 291
f 292 234 291
f 234 233 291
f 267 316 317
f 317 289 267
f 266 316 267
f 267 215 266
f 267 268 215
f 267 289 268
f 310 270 260
f 310 321 270
f 260 208 259
f 208 258 259
f 259 310 260
f 308 258 264
f 211 212 165
f 211 263 212
f 161 206 207
f 164 119 161
f 164 207 165
f 161 207 164
f 164 165 117
f 117 119 164
f 116 78 115
f 161 119 116
f 116 79 78
f 116 119 79
f 115 160 116
f 116 160 161
f 169 170 128
f 128 127 169
f 129 171 130
f 129 91 128
f 129 130 91
f 280 227 225
f 223 276 225
f 278 279 225
f 279 245 225
f 225 245 280
f 225 176 223
f 225 277 278
f 275 277 225
f 225 276 275
f 187 186 177
f 177 176 187
f 243 244 187
f 187 227 243
f 142 186 187
f 187 189 242
f 244 189 187
f 187 188 142
f 242 188 187
f 329 281 303
f 329 328 281
f 284 283 330
f 283 328 330
f 285 284 330
f 353 356 330
f 330 328 353
f 385 386 367
f 368 353 367
f 371 390 370
f 385 367 370
f 343 302 300
f 300 342 343
f 303 302 343
f 104 66 103
f 96 141 103
f 103 66 96
f 141 147 103
f 147 148 103
f 234 238 239
f 239 238 183
f 140 141 96
f 140 184 141
f 183 184 140
f 196 185 241
f 255 196 241
f 241 297 255
f 240 297 241
f 241 185 240
f 232 289 290
f 290 291 232
f 289 291 290
f 348 340 349
f 306 340 348
f 348 346 306
f 310 259 309
f 309 259 258
f 258 308 309
f 210 211 165
f 263 211 210
f 210 262 263
f 165 207 210
f 257 207 206
f 262 210 257
f 257 210 207
f 226 227 176
f 176 225 226
f 226 225 227
f 176 227 228
f 228 187 176
f 227 187 228
f 365 381 382
f 353 328 354
f 328 329 354
f 371 370 354
f 354 367 353
f 354 370 367
f 331 332 285
f 285 330 331
f 331 330 356
f 357 332 331
f 331 356 357
f 385 370 389
f 389 370 390
f 361 379 362
f 341 361 362
f 380 364 362
f 362 342 341
f 364 342 362
f 345 329 303
f 303 343 345
f 371 354 355
f 355 345 343
f 355 354 329
f 329 345 355
f 104 103 149
f 149 103 148
f 150 104 149
f 149 148 150
f 400 402 384
f 383 401 400
f 400 384 383
f 365 382 366
f 366 342 365
f 366 343 342
f 366 355 343
f 366 382 383
f 383 384 366
f 366 384 371
f 371 355 366
f 5 13 6
f 1 5 6
f 6 2 1
f 9 2 6
f 350 360 351
f 339 360 350
f 350 351 320
f 350 320 319
f 14 13 26
f 14 6 13
f 139 94 138
f 138 178 139
f 102 146 138
f 138 146 178
f 311 265 220
f 311 220 274
f 12 22 10
f 10 3 12
f 33 15 7
f 7 16 33
f 7 2 9
f 9 16 7
f 27 14 26
f 26 52 27
f 359 377 360
f 359 360 339
f 220 265 215
f 215 168 220
f 341 352 363
f 341 344 352
f 48 70 50
f 48 50 49
f 31 15 33
f 33 61 31
f 204 198 205
f 200 198 204
f 86 55 54
f 85 86 54
f 85 54 53
f 53 54 28
f 53 27 52
f 53 28 27
f 404 396 395
f 395 396 376
f 320 269 268
f 319 320 268
f 144 146 102
f 144 102 101
f 101 145 144
f 144 145 192
f 106 153 110
f 81 106 110
f 81 110 82
f 82 110 109
f 70 48 82
f 82 109 70
f 230 287 232
f 232 287 288
f 323 311 274
f 323 312 311
f 312 323 313
f 313 323 322
f 203 151 202
f 152 151 203
f 404 395 403
f 403 395 394
f 318 350 319
f 335 350 318
f 288 287 318
f 318 287 335
f 369 387 388
f 368 387 369
f 392 369 388
f 372 369 392
f 373 392 393
f 372 392 373
f 393 403 373
f 373 403 394
f 381 397 398
f 380 397 381
f 380 381 364
f 364 381 365
f 154 153 106
f 154 106 107
f 152 203 154
f 107 152 154
f 321 313 322
f 349 313 321
f 263 304 307
f 263 307 264
f 205 198 206
f 206 198 197
f 194 145 143
f 194 143 190
f 192 145 194
f 194 250 192
f 247 298 194
f 298 250 194
f 264 307 308
f 307 347 308
f 304 263 262
f 262 305 304
f 170 171 129
f 128 170 129
f 367 387 368
f 367 386 387
f 95 62 140
f 140 94 139
f 140 61 94
f 139 181 140
f 140 181 234
f 140 31 61
f 140 62 31
f 140 96 95
f 234 239 140
f 140 239 183
f 349 321 348
f 321 310 348
f 309 308 347
f 309 347 346
f 309 348 310
f 346 348 309
f 257 206 197
f 197 256 257
f 305 262 257
f 256 305 257
f 391 371 402
f 371 384 402
f 382 399 401
f 382 401 383
f 382 381 398
f 398 399 382
f 362 397 380
f 362 379 397
f 320 351 400
f 132 131 400
f 400 5 4
f 400 269 320
f 26 13 400
f 221 173 400
f 326 325 400
f 400 275 221
f 400 39 69
f 325 324 400
f 400 69 108
f 400 352 326
f 400 13 5
f 400 125 124
f 400 172 132
f 351 360 400
f 88 87 400
f 108 122 400
f 400 120 168
f 168 216 400
f 4 10 400
f 400 392 388
f 360 377 400
f 400 396 404
f 22 39 400
f 400 122 121
f 121 120 400
f 400 216 269
f 86 125 400
f 400 51 26
f 124 123 400
f 400 87 86
f 377 378 400
f 363 352 400
f 400 10 22
f 83 51 400
f 400 123 83
f 173 172 400
f 387 386 400
f 400 324 275
f 400 361 363
f 400 171 170
f 400 390 391
f 404 403 400
f 400 378 396
f 388 387 400
f 400 89 88
f 131 130 400
f 400 403 393
f 393 392 400
f 397 379 400
f 398 397 400
f 126 89 400
f 400 127 126
f 130 171 400
f 170 169 400
f 400 386 385
f 391 402 400
f 400 399 398
f 400 169 127
f 401 399 400
f 400 379 361
f 385 389 400
f 400 389 390

