# https://github.com/mikedh/trimesh
v -0.00512932 0.01688079 -0.00088106
v -0.00320249 0.01369667 -0.00472123
v -0.00512932 0.01688079 0.00047496
v -0.00512932 0.01701830 -0.00145632
v -0.00324510 0.01384968 -0.00472123
v -0.00281133 0.01353592 -0.00472123
v -0.00318422 0.01374703 0.00047496
v -0.00512932 0.01702024 -0.00146141
v -0.00512932 0.01723522 -0.00178795
v -0.00512932 0.01723716 -0.00179049
v -0.00512932 0.02190099 0.00047496
v -0.00512932 0.02157755 -0.00472123
v 0.00241365 0.01353204 -0.00472123
v -0.00281133 0.01365213 0.00047496
v -0.00474730 0.02333617 0.00047496
v -0.00512932 0.02339234 0.00047292
v -0.00512932 0.02340589 -0.00472123
v 0.00263738 0.01356303 -0.00472123
v 0.00299048 0.01372379 0.00047496
v 0.00260694 0.01368505 0.00047496
v 0.00241365 0.01366568 0.00047496
v 0.00778017 0.03331848 0.00047496
v -0.00512932 0.02340589 0.00028015
v 0.00777561 0.03331848 -0.00472123
v 0.00299200 0.01363663 -0.00472123
v 0.01031428 0.01550759 0.00047496
v 0.00882578 0.03331848 0.00047496
v 0.00777561 0.03331848 -0.00378332
v 0.00882578 0.03331848 -0.00472123
v 0.01009512 0.01544755 -0.00472123
v 0.01031428 0.01550759 -0.00472123
v 0.01036755 0.01572645 -0.00472123
v 0.01039951 0.01586590 0.00047496
v 0.01037973 0.02283260 0.00047496
v 0.01037973 0.02283260 -0.00472123
v 0.01039951 0.01586590 -0.00472123
v 0.01041930 0.01644500 0.00047496
v 0.01039343 0.02263698 0.00047496
v 0.01041930 0.02225156 -0.00472123
v 0.01041930 0.01644500 -0.00472123
v 0.01041930 0.02225156 0.00047496
f 2 3 1
f 13 14 6
f 3 2 7
f 2 6 7
f 7 6 14
f 22 16 15
f 23 16 22
f 5 10 12
f 2 10 5
f 21 14 13
f 11 15 16
f 4 2 1
f 4 8 2
f 9 10 2
f 2 8 9
f 13 19 20
f 20 21 13
f 25 26 19
f 32 26 31
f 33 32 36
f 26 32 33
f 28 23 22
f 38 35 34
f 39 38 41
f 35 38 39
f 31 26 30
f 26 25 30
f 18 19 13
f 18 25 19
f 27 34 35
f 35 29 27
f 9 23 17
f 1 3 9
f 17 12 9
f 3 11 9
f 12 10 9
f 16 23 9
f 9 4 1
f 9 11 16
f 8 4 9
f 33 36 40
f 33 40 37
f 22 27 28
f 29 24 28
f 27 29 28
f 17 23 28
f 28 24 17
f 3 7 38
f 22 15 38
f 14 21 38
f 38 27 22
f 38 11 3
f 38 7 14
f 38 20 19
f 38 34 27
f 37 41 38
f 19 26 38
f 15 11 38
f 38 33 37
f 21 20 38
f 26 33 38
f 39 41 37
f 37 40 39
f 18 12 17
f 18 32 31
f 13 6 18
f 40 36 18
f 18 5 12
f 18 6 2
f 17 24 18
f 31 30 18
f 2 5 18
f 18 24 29
f 29 35 18
f 18 39 40
f 36 32 18
f 35 39 18
f 18 30 25

