# https://github.com/mikedh/trimesh
v 0.00842847 -0.00901235 0.00542840
v 0.00876231 -0.00901499 0.00542840
v 0.00842847 -0.00901235 0.00040974
v 0.00823564 -0.00903350 0.00040974
v 0.00822392 -0.00903482 0.00542840
v 0.00903188 -0.00910356 0.00542840
v 0.00887611 -0.00905200 0.00040974
v 0.00876231 -0.00901499 0.00040974
v 0.00809462 -0.00904936 0.00040974
v 0.00809462 -0.00904936 0.00542840
v 0.00913586 -0.00935470 0.00542840
v 0.00903188 -0.00910356 0.00040974
v 0.00797212 -0.00909959 0.00040974
v 0.00788289 -0.00913660 0.00542840
v 0.00911771 -0.00955958 0.00542840
v 0.00913586 -0.00935470 0.00040974
v 0.00788289 -0.00913660 0.00040974
v 0.00780085 -0.00935470 0.00542840
v 0.00910599 -0.00968912 0.00542840
v 0.00910599 -0.00968912 0.00040974
v 0.00780085 -0.00935470 0.00040974
v 0.00565751 -0.01903428 0.00542840
v 0.00904398 -0.01002221 0.00542840
v 0.00907007 -0.00988210 0.00040974
v 0.00773280 -0.00968912 0.00040974
v 0.00623295 -0.01772569 0.00040974
v 0.00552669 -0.02151135 0.00040974
v 0.00549077 -0.02170433 0.00040974
v 0.00535731 -0.02070240 0.00542791
v 0.00535731 -0.02070240 0.00542840
v 0.00758534 -0.01047691 0.00040974
v 0.00900580 -0.01022709 0.00542840
v 0.00904398 -0.01002221 0.00040974
v 0.00549077 -0.02184444 0.00040974
v 0.00527375 -0.02203742 0.00542840
v 0.00527791 -0.02170433 0.00542840
v 0.00527905 -0.02167261 0.00542840
v 0.00530816 -0.02103153 0.00542840
v 0.00892791 -0.01064478 0.00542840
v 0.00854567 -0.01269358 0.00055073
v 0.00898160 -0.01035663 0.00040974
v 0.00549115 -0.02203742 0.00040974
v 0.00551875 -0.02212070 0.00040974
v 0.00555694 -0.02223570 0.00040974
v 0.00541402 -0.02238109 0.00542840
v 0.00854567 -0.01269358 0.00542840
v 0.00707531 -0.02057419 0.00542840
v 0.00711350 -0.02036931 0.00055073
v 0.00801144 -0.01555661 0.00040974
v 0.00869653 -0.01188463 0.00040974
v 0.00575845 -0.02228460 0.00040974
v 0.00575845 -0.02250799 0.00542840
v 0.00696038 -0.02119015 0.00542840
v 0.00691122 -0.02145319 0.00055073
v 0.00694223 -0.02128664 0.00040974
v 0.00609230 -0.02230311 0.00040974
v 0.00609230 -0.02251592 0.00542840
v 0.00686434 -0.02170433 0.00542840
v 0.00686434 -0.02170433 0.00055073
v 0.00688400 -0.02159859 0.00040974
v 0.00642615 -0.02229650 0.00040974
v 0.00642615 -0.02246701 0.00542840
v 0.00681746 -0.02190921 0.00542840
v 0.00678079 -0.02203742 0.00542840
v 0.00676793 -0.02203742 0.00055073
v 0.00676718 -0.02203742 0.00040974
v 0.00680763 -0.02189731 0.00040974
v 0.00686321 -0.02170433 0.00040974
v 0.00664808 -0.02224759 0.00040974
v 0.00666963 -0.02233087 0.00542840
v 0.00671462 -0.02224495 0.00542840
f 35 44 45
f 52 45 44
f 57 52 56
f 57 56 61
f 51 52 44
f 51 56 52
f 69 70 62
f 62 61 69
f 57 61 62
f 66 70 69
f 15 19 20
f 7 2 6
f 6 12 7
f 11 15 16
f 16 15 20
f 14 10 13
f 13 17 14
f 21 22 18
f 25 22 21
f 31 22 25
f 70 66 71
f 2 7 8
f 9 13 10
f 27 28 22
f 36 28 35
f 22 28 29
f 28 38 29
f 43 44 35
f 35 42 43
f 35 28 34
f 34 42 35
f 59 58 63
f 63 64 59
f 68 60 59
f 59 67 68
f 59 60 54
f 66 67 59
f 53 58 59
f 59 54 53
f 10 5 4
f 4 9 10
f 4 5 1
f 4 1 3
f 22 31 26
f 26 27 22
f 37 38 28
f 28 36 37
f 22 29 30
f 30 29 38
f 65 64 71
f 65 71 66
f 66 59 65
f 65 59 64
f 46 40 39
f 48 49 40
f 53 54 48
f 40 46 47
f 53 48 47
f 47 48 40
f 40 49 50
f 50 41 40
f 39 40 33
f 40 41 33
f 33 32 39
f 23 32 33
f 49 48 55
f 54 60 55
f 55 48 54
f 19 23 24
f 20 19 24
f 23 33 24
f 16 6 11
f 16 12 6
f 18 14 21
f 14 17 21
f 1 2 8
f 3 1 8
f 47 52 57
f 47 14 18
f 35 45 47
f 47 64 63
f 11 6 47
f 45 52 47
f 1 5 47
f 57 62 47
f 47 2 1
f 18 22 47
f 63 58 47
f 47 15 11
f 6 2 47
f 47 10 14
f 47 62 70
f 19 15 47
f 47 36 35
f 47 5 10
f 38 37 47
f 70 71 47
f 39 32 47
f 47 58 53
f 47 23 19
f 71 64 47
f 22 30 47
f 47 37 36
f 47 30 38
f 47 32 23
f 47 46 39
f 28 27 24
f 69 61 24
f 24 16 20
f 24 51 44
f 24 34 28
f 24 31 25
f 68 67 24
f 3 8 24
f 25 21 24
f 24 61 56
f 56 51 24
f 24 66 69
f 24 7 12
f 12 16 24
f 17 13 24
f 24 21 17
f 24 60 68
f 44 43 24
f 24 67 66
f 24 8 7
f 13 9 24
f 24 4 3
f 24 43 42
f 42 34 24
f 24 26 31
f 9 4 24
f 27 26 24
f 24 55 60
f 24 50 49
f 41 50 24
f 24 33 41
f 49 55 24

