# https://github.com/mikedh/trimesh
v -0.01009030 0.04427865 -0.00472123
v -0.01009030 0.04427865 0.00047496
v -0.01007348 0.04441280 -0.00472123
v -0.00688049 0.04427865 -0.00472123
v -0.00688422 0.04427865 0.00047496
v -0.01007161 0.04442641 0.00047496
v -0.01001087 0.04489204 0.00047496
v -0.01001087 0.04489204 -0.00472123
v -0.00688049 0.04427865 -0.00378332
v -0.00054590 0.05200092 -0.00472123
v -0.00054590 0.05199995 -0.00383825
v -0.00054590 0.05199995 -0.00378332
v -0.00054590 0.05201648 0.00047496
v -0.00893439 0.05311785 0.00047496
v -0.00893252 0.05313243 -0.00472123
v -0.00054590 0.05310133 -0.00472123
v -0.00054590 0.05310133 0.00047496
v -0.00890823 0.05331324 0.00047496
v -0.00890823 0.05331324 -0.00472123
v -0.00803733 0.05412980 -0.00472123
v -0.00803733 0.05417646 -0.00436367
v -0.00803733 0.05420951 -0.00378332
v -0.00803733 0.05420951 0.00047496
v -0.00887178 0.05350669 0.00047496
v -0.00885309 0.05360390 -0.00378332
v -0.00884749 0.05360390 -0.00436367
v -0.00883534 0.05360390 -0.00472123
v -0.00854473 0.05401120 -0.00472123
v -0.00855688 0.05403356 -0.00436367
v -0.00856248 0.05404912 -0.00378332
v -0.00856248 0.05404912 0.00047496
v -0.00885309 0.05360390 0.00047496
v -0.00875591 0.05375360 0.00047496
v -0.00872321 0.05376915 -0.00472123
f 22 16 21
f 16 20 21
f 21 20 28
f 1 2 3
f 11 4 10
f 9 12 5
f 5 12 13
f 6 3 2
f 19 15 18
f 18 15 14
f 19 26 27
f 8 3 7
f 3 6 7
f 7 15 8
f 14 15 7
f 19 18 24
f 29 30 22
f 22 21 29
f 29 21 28
f 29 27 26
f 26 30 29
f 31 30 33
f 25 30 26
f 25 26 19
f 32 33 25
f 25 33 30
f 25 24 32
f 19 24 25
f 34 29 28
f 27 29 34
f 16 23 17
f 22 23 16
f 1 4 9
f 9 5 2
f 9 2 1
f 9 11 12
f 4 11 9
f 10 16 13
f 13 16 17
f 13 11 10
f 12 11 13
f 30 23 22
f 30 31 23
f 17 23 33
f 2 5 33
f 23 31 33
f 33 13 17
f 33 6 2
f 32 24 33
f 5 13 33
f 14 7 33
f 33 18 14
f 33 7 6
f 33 24 18
f 34 4 1
f 34 16 10
f 10 4 34
f 28 20 34
f 34 15 19
f 34 20 16
f 1 3 34
f 34 3 8
f 8 15 34
f 19 27 34

