# https://github.com/mikedh/trimesh
v -0.01081930 0.01644958 0.00047496
v -0.01079851 0.01586540 0.00047496
v -0.01081930 0.01644958 0.00898796
v -0.01081930 0.03501741 0.00047496
v -0.01071535 0.01551030 0.00047496
v -0.01079851 0.01586540 0.00956837
v -0.01081722 0.01644958 0.00956837
v -0.01081930 0.03501741 0.00898796
v -0.01081514 0.03560159 0.00047496
v -0.01071535 0.01551030 0.00956837
v -0.01059477 0.01547594 0.00047496
v 0.00125111 -0.00387080 0.00607474
v 0.00087690 -0.00423162 0.00627905
v 0.00029687 -0.00366462 0.00627905
v -0.00314380 -0.00013661 0.00631869
v -0.00323112 -0.00258789 0.00860678
v -0.00374254 -0.00194643 0.00863626
v -0.00378204 -0.00200943 0.00898796
v -0.00398370 -0.00155125 0.00898796
v -0.00401072 -0.00155125 0.00956837
v -0.01069248 0.01553321 0.00991296
v -0.01072367 0.01586540 0.00995158
v -0.01073406 0.01644958 0.00996378
v -0.01081722 0.03501741 0.00956837
v -0.01081514 0.03560159 0.00898796
v -0.01081099 0.03618004 0.00898796
v -0.01081306 0.03579632 0.00047496
v -0.00401072 -0.00155125 0.01014878
v -0.01035777 0.01541294 0.00047496
v 0.00158166 -0.00420298 0.00630548
v 0.00125111 -0.00424307 0.00625059
v -0.00281117 0.01365467 0.00047496
v 0.00241117 0.01366612 0.00047496
v 0.00299120 0.01372339 0.00047496
v 0.01031535 0.01551030 0.00047496
v 0.00083532 -0.00426025 0.00666531
v -0.00083200 -0.00417434 0.00868200
v -0.00165111 -0.00393952 0.00898796
v -0.00206898 -0.00365316 0.00862915
v -0.00268851 -0.00314343 0.00860577
v -0.00307727 -0.00297734 0.00898796
v -0.00331220 -0.00268525 0.00898796
v -0.00360117 -0.00230152 0.00898796
v -0.00361988 -0.00231871 0.00956837
v -0.00379036 -0.00202661 0.00956837
v -0.00379036 -0.00203234 0.01014878
v -0.00375293 -0.00196934 0.01053301
v -0.00384649 -0.00155125 0.01061433
v -0.00339120 -0.00155125 0.01082372
v -0.01035777 0.01586540 0.01008474
v -0.01035777 0.01644958 0.01011320
v -0.01073406 0.03443895 0.00996378
v -0.01073198 0.03501741 0.00996175
v -0.01080891 0.03560159 0.00956837
v -0.01079851 0.03675850 0.00898796
v -0.01079851 0.03675850 0.00666531
v -0.01079643 0.03675850 0.00434469
v -0.01077980 0.03734268 0.00047496
v 0.00415333 -0.00141380 0.00624855
v 0.00445062 -0.00127061 0.00635833
v 0.00316999 -0.00287425 0.00898796
v 0.00287893 -0.00316634 0.00898796
v 0.00289348 -0.00317780 0.00956837
v 0.00254422 -0.00346416 0.00956837
v 0.00158166 -0.00420298 0.00655960
v 0.00130516 -0.00426598 0.00671817
v 0.01037149 0.01574512 0.00047496
v 0.01031535 0.01551030 0.00956837
v 0.00008897 -0.00429462 0.00956837
v 0.00008897 -0.00428316 0.00898796
v -0.00048897 -0.00427171 0.00956837
v -0.00048897 -0.00425452 0.00898796
v -0.00118127 -0.00410562 0.00898796
v -0.00089229 -0.00418580 0.00898796
v -0.00121869 -0.00412280 0.00956837
v -0.00165111 -0.00396816 0.00956837
v -0.00215006 -0.00370471 0.00898796
v -0.00244111 -0.00352143 0.00898796
v -0.00278622 -0.00323507 0.00898796
v -0.00309391 -0.00299453 0.00956837
v -0.00333091 -0.00270243 0.00956837
v -0.00362404 -0.00232443 0.01014878
v -0.00325606 -0.00261080 0.01057367
v -0.00342654 -0.00215261 0.01066007
v -0.00286730 -0.00276543 0.01068548
v -0.00281117 -0.00212971 0.01085523
v -0.00339120 -0.00096707 0.01085828
v -0.00339120 -0.00038861 0.01085930
v -0.01035777 0.03443895 0.01011320
v -0.01035777 0.03501741 0.01011016
v -0.01072575 0.03560159 0.00994752
v -0.01076733 0.03618004 0.00956837
v -0.01075693 0.03734268 0.00898796
v -0.01066754 0.03898068 0.00873994
v -0.01072159 0.03850532 0.00840755
v -0.01075485 0.03792114 0.00840755
v -0.01077980 0.03734268 0.00840755
v -0.01077149 0.03753741 0.00047496
v 0.00445062 -0.00127061 0.00642440
v 0.00342362 -0.00259934 0.01014878
v 0.00342154 -0.00259934 0.00956837
v 0.00318246 -0.00289143 0.00956837
v 0.00289348 -0.00317780 0.01014878
v 0.00318454 -0.00289143 0.01014878
v 0.00254214 -0.00346416 0.01014878
v 0.00225109 -0.00366462 0.01014878
v 0.00183114 -0.00388798 0.01014878
v 0.00131348 -0.00409416 0.01014878
v 0.00100164 -0.00417434 0.01046084
v 0.00066900 -0.00424307 0.01014878
v 0.00008897 -0.00429462 0.01014878
v 0.01039851 0.01586540 0.00047496
v 0.01039851 0.01586540 0.00956837
v 0.01029248 0.01553321 0.00991296
v 0.00387475 -0.00186052 0.01045982
v -0.00048897 -0.00427171 0.01014878
v -0.00093179 -0.00419725 0.01014878
v -0.00092763 -0.00419725 0.00956837
v -0.00122077 -0.00412280 0.01014878
v -0.00165111 -0.00396816 0.01014878
v -0.00216669 -0.00371616 0.00956837
v -0.00245567 -0.00353861 0.00956837
v -0.00280493 -0.00324652 0.00956837
v -0.00309598 -0.00299453 0.01014878
v -0.00333299 -0.00270243 0.01014878
v -0.00270930 -0.00316634 0.01057570
v -0.00226232 -0.00333243 0.01066922
v -0.00165111 -0.00329234 0.01083287
v -0.00223114 -0.00270816 0.01085625
v -0.00281117 -0.00155125 0.01085930
v -0.00339120 0.00077402 0.01085930
v -0.00977774 0.03443895 0.01015895
v -0.00977774 0.03501741 0.01015386
v -0.00048897 0.04489123 0.01025856
v -0.01035777 0.03560159 0.01007356
v -0.01068833 0.03618004 0.00989974
v -0.01044717 0.04140332 0.00840755
v -0.01050538 0.04082486 0.00840755
v -0.01067585 0.03907232 0.00840755
v -0.01008751 0.04415814 0.00874096
v -0.01038480 0.04198750 0.00840755
v -0.01072159 0.03850532 0.00047496
v -0.01074446 0.03811586 0.00047496
v -0.01070704 0.03869432 0.00047496
v -0.01075485 0.03792114 0.00047496
v 0.00371259 -0.00216407 0.01014878
v 0.00337580 -0.00254207 0.01054419
v 0.00283112 -0.00312052 0.01055639
v 0.00220743 -0.00363598 0.01051573
v 0.00183114 -0.00373334 0.01060111
v 0.00121577 -0.00389943 0.01061941
v 0.00066900 -0.00420298 0.01050760
v 0.00008897 -0.00423162 0.01054724
v -0.00048897 -0.00421443 0.01052793
v 0.01041930 0.01644958 0.00047496
v 0.01032367 0.01586540 0.00995158
v 0.01041930 0.01644958 0.00898796
v 0.01041722 0.01644958 0.00956837
v 0.00402652 -0.00096707 0.01062348
v 0.00393712 -0.00155125 0.01053708
v 0.00357122 -0.00208389 0.01059806
v -0.00087982 -0.00418580 0.01048219
v -0.00208977 -0.00367034 0.01054521
v -0.00216461 -0.00371616 0.01014878
v -0.00245359 -0.00353861 0.01014878
v -0.00280493 -0.00324652 0.01014878
v -0.00165111 -0.00377343 0.01062348
v -0.00048897 -0.00387080 0.01073732
v -0.00106900 -0.00329234 0.01085930
v -0.00223114 0.01064212 0.01085930
v -0.00223114 0.01122058 0.01084913
v 0.00008897 0.04546969 0.01025856
v -0.00861769 0.05011451 0.00911604
v -0.00907922 0.05069296 0.00887310
v -0.00949709 0.04873423 0.00872063
v -0.01044717 0.04140332 0.00047496
v -0.01050538 0.04082486 0.00047496
v -0.01063843 0.03946177 0.00047496
v -0.01067585 0.03907232 0.00047496
v -0.01031412 0.04256596 0.00840755
v -0.01036193 0.04218223 0.00047496
v -0.01038480 0.04198750 0.00047496
v 0.00301199 -0.00272534 0.01065600
v 0.00240493 -0.00330380 0.01063872
v 0.00183114 -0.00329234 0.01081051
v 0.00066900 -0.00387080 0.01071699
v 0.00008897 -0.00387080 0.01075663
v -0.00107108 -0.00391089 0.01063262
v 0.01041930 0.02225131 0.00047496
v 0.00995777 0.01586540 0.01008474
v 0.00357330 -0.00096707 0.01083287
v 0.01033406 0.01644958 0.00996378
v 0.00995777 0.01644958 0.01011320
v 0.01041930 0.02225131 0.00898796
v 0.01041722 0.02225131 0.00956837
v 0.00357330 -0.00155125 0.01074647
v 0.00299120 -0.00212971 0.01083287
v 0.00066900 -0.00329234 0.01085930
v 0.00241117 0.01064212 0.01085930
v 0.00066900 0.04546969 0.01025856
v 0.00066900 0.04604814 0.01015691
v -0.00861769 0.05069296 0.00904387
v -0.00900853 0.05127714 0.00879687
v -0.00924969 0.05069296 0.00840755
v -0.00932661 0.05011451 0.00840755
v -0.00970706 0.04721078 0.00840755
v -0.01016235 0.04372859 0.00840755
v -0.01031412 0.04256596 0.00047496
v -0.01028917 0.04276068 0.00047496
v 0.00241117 -0.00270816 0.01084100
v 0.00125111 -0.00329234 0.01085828
v 0.00881851 0.04721078 0.00047496
v 0.00357330 -0.00038861 0.01085625
v 0.00299120 -0.00155125 0.01085930
v 0.01033406 0.02225131 0.00996378
v 0.00357330 0.00018984 0.01085828
v 0.00995777 0.02225131 0.01011320
v 0.00881851 0.04721078 0.00376428
v 0.01037980 0.02283549 0.00956837
v 0.01031327 0.02283549 0.00994244
v 0.00183114 -0.00270816 0.01085930
v 0.00241117 0.01122058 0.01084913
v 0.00299120 0.00193666 0.01085930
v 0.00937774 0.02514931 0.01015386
v 0.00821769 0.03327632 0.01015895
v 0.00125111 0.04546969 0.01024941
v 0.00241117 0.04895187 0.00908250
v 0.00183114 0.04895187 0.00914247
v -0.00803558 0.05127714 0.00889445
v -0.00861769 0.05127714 0.00889953
v -0.00893993 0.05162651 0.00872673
v -0.00900437 0.05183269 0.00840349
v -0.00914158 0.05127714 0.00840755
v -0.00909793 0.05185560 0.00782714
v -0.00917485 0.05127714 0.00782714
v -0.00930166 0.05030923 0.00047496
v -0.01001059 0.04489123 0.00782714
v -0.01001059 0.04489123 0.00047496
v 0.00871664 0.04778923 0.00047496
v 0.00871872 0.04778923 0.00202204
v 0.00995777 0.02283549 0.01009287
v 0.00937774 0.02457658 0.01015895
v 0.00871872 0.04778923 0.00376428
v 0.00870000 0.04778923 0.00434469
v 0.00879356 0.04721078 0.00434469
v 0.00881851 0.04430705 0.00840755
v 0.00876861 0.04489123 0.00840755
v 0.00863764 0.04489123 0.00889140
v 0.00862724 0.03386050 0.00998411
v 0.00866258 0.03327632 0.01000851
v 0.00763558 0.03501741 0.01015488
v 0.00821769 0.03386050 0.01013455
v 0.00821769 0.04489123 0.00906318
v 0.00824264 0.04548687 0.00893104
v 0.00299120 0.04837341 0.00914145
v 0.00296833 0.04896332 0.00891173
v 0.00241117 0.04934705 0.00885175
v 0.00183114 0.04943869 0.00891681
v 0.00806592 0.04586487 0.00883244
v -0.00397330 0.05057842 0.00889241
v -0.00803558 0.05164942 0.00874299
v -0.00861769 0.05165514 0.00874502
v -0.00861769 0.05194723 0.00856511
v -0.00861769 0.05237105 0.00827541
v -0.00895864 0.05226796 0.00820731
v -0.00898358 0.05245124 0.00782206
v -0.00890666 0.05331033 0.00695806
v -0.00890874 0.05331033 0.00666531
v -0.00890874 0.05331033 0.00047496
v 0.00856072 0.04819587 0.00047496
v 0.00856279 0.04819587 0.00144163
v 0.00856279 0.04820160 0.00260346
v 0.00855864 0.04819014 0.00434469
v 0.00856279 0.04820160 0.00376428
v 0.00853785 0.04815005 0.00466793
v 0.00857735 0.04530932 0.00881516
v 0.00345064 0.04877432 0.00883346
v 0.00276043 0.04927832 0.00876434
v 0.00391217 0.05274905 0.00465878
v 0.00357330 0.05281205 0.00470859
v -0.00803558 0.05327024 0.00748866
v -0.00803558 0.05297815 0.00779767
v -0.00803558 0.05269178 0.00808736
v -0.00803558 0.05239969 0.00829676
v -0.00803558 0.05194151 0.00858747
v -0.00766345 0.05161505 0.00872469
v 0.00742976 0.04994269 0.00470147
v 0.00689339 0.05053260 0.00470961
v 0.00631544 0.05111105 0.00470961
v 0.00572294 0.05164942 0.00470147
v 0.00505768 0.05216487 0.00465776
v -0.00861769 0.05266314 0.00802841
v -0.00893369 0.05279487 0.00762588
v -0.00861769 0.05319578 0.00736973
v -0.00861769 0.05339051 0.00707902
v -0.00833703 0.05388878 0.00638273
v -0.00843682 0.05394033 0.00608490
v -0.00854285 0.05400333 0.00550551
v -0.00883182 0.05360242 0.00550551
v -0.00884845 0.05360242 0.00492510
v -0.00885261 0.05360242 0.00434469
v -0.00885261 0.05360242 0.00047496
v 0.00842558 0.04848796 0.00047496
v 0.00842558 0.04848796 0.00376428
v 0.00819066 0.04895187 0.00376428
v 0.00816571 0.04895187 0.00434469
v 0.00795574 0.04928978 0.00466590
v 0.00473336 0.05237105 0.00434469
v 0.00423649 0.05262305 0.00434469
v 0.00394751 0.05276051 0.00434469
v 0.00357330 0.05291514 0.00434469
v 0.00299120 0.05304687 0.00434469
v -0.00773413 0.05388878 0.00638171
v -0.00803558 0.05345924 0.00719794
v -0.00861769 0.05290369 0.00773871
v 0.00725929 0.05030351 0.00434469
v 0.00697031 0.05061278 0.00434469
v 0.00668342 0.05090487 0.00434469
v 0.00639444 0.05118551 0.00434469
v 0.00608260 0.05147760 0.00434469
v 0.00579155 0.05169524 0.00434469
v 0.00537160 0.05198733 0.00434469
v 0.00508055 0.05218205 0.00434469
v -0.00803558 0.05375133 0.00667547
v -0.00803558 0.05389451 0.00638578
v -0.00803558 0.05398042 0.00608490
v -0.00803558 0.05411215 0.00550551
v -0.00803558 0.05418087 0.00492510
v -0.00855740 0.05403196 0.00492510
v -0.00856156 0.05404915 0.00434469
v -0.00856156 0.05404915 0.00047496
v 0.00826966 0.04879723 0.00047496
v 0.00819066 0.04895187 0.00047496
v 0.00798277 0.04932414 0.00376428
v 0.00797653 0.04931842 0.00434469
v 0.00747966 0.05001142 0.00434469
v 0.00473336 0.05239396 0.00376428
v 0.00424688 0.05264023 0.00376428
v 0.00357330 0.05293233 0.00376428
v 0.00299120 0.05307551 0.00376428
v 0.00727384 0.05030923 0.00376428
v 0.00698279 0.05062996 0.00376428
v 0.00669589 0.05091633 0.00376428
v 0.00640692 0.05119696 0.00376428
v 0.00609300 0.05148905 0.00376428
v 0.00580194 0.05170669 0.00376428
v 0.00537784 0.05199305 0.00376428
v 0.00508886 0.05218778 0.00376428
v -0.00803558 0.05420378 0.00434469
v -0.00821229 0.05415224 0.00047496
v 0.00798277 0.04932414 0.00047496
v 0.00777695 0.04961623 0.00376428
v 0.00748590 0.05002287 0.00376428
v 0.00473336 0.05239396 0.00047496
v 0.00457120 0.05247987 0.00047496
v 0.00424688 0.05264023 0.00047496
v 0.00405354 0.05272614 0.00047496
v 0.00382694 0.05282351 0.00047496
v 0.00357330 0.05293233 0.00047496
v 0.00299120 0.05307551 0.00047496
v 0.00741521 0.05012023 0.00047496
v 0.00727384 0.05030923 0.00047496
v 0.00698279 0.05062996 0.00047496
v 0.00688716 0.05072733 0.00047496
v 0.00669589 0.05091633 0.00047496
v 0.00650255 0.05110533 0.00047496
v 0.00640692 0.05119696 0.00047496
v 0.00609300 0.05148905 0.00047496
v 0.00580194 0.05170669 0.00047496
v 0.00566057 0.05180405 0.00047496
v 0.00518449 0.05212478 0.00047496
v 0.00508886 0.05218778 0.00047496
v -0.00803558 0.05420378 0.00047496
v 0.00777695 0.04961623 0.00047496
v 0.00748590 0.05002287 0.00047496
f 31 12 30
f 15 5 14
f 32 12 29
f 88 51 87
f 51 50 87
f 12 34 35
f 35 30 12
f 35 59 30
f 33 12 32
f 33 34 12
f 13 14 5
f 13 12 31
f 13 5 12
f 30 59 60
f 59 35 60
f 22 23 7
f 51 23 22
f 22 50 51
f 12 5 11
f 11 29 12
f 49 87 50
f 50 22 49
f 24 25 8
f 248 254 253
f 253 254 226
f 248 253 249
f 249 253 252
f 31 30 66
f 18 5 17
f 18 19 5
f 48 22 21
f 48 49 22
f 21 10 28
f 7 3 6
f 6 10 21
f 21 22 6
f 6 22 7
f 57 58 27
f 349 373 350
f 132 131 170
f 132 170 133
f 133 170 171
f 171 134 133
f 170 172 171
f 171 172 134
f 226 254 255
f 328 340 349
f 340 311 339
f 312 311 340
f 340 328 312
f 312 328 327
f 327 313 312
f 261 230 229
f 226 255 227
f 254 259 227
f 227 255 254
f 258 227 257
f 228 227 258
f 251 253 226
f 252 253 251
f 250 249 252
f 194 219 195
f 218 219 194
f 156 158 192
f 30 60 61
f 60 102 61
f 101 102 60
f 109 107 149
f 149 107 106
f 137 94 141
f 187 153 186
f 211 187 186
f 186 185 211
f 49 48 84
f 5 19 20
f 19 18 20
f 28 20 46
f 47 48 21
f 21 28 47
f 28 46 47
f 47 46 82
f 47 82 83
f 83 84 47
f 47 84 48
f 168 153 187
f 162 163 120
f 83 82 125
f 125 124 83
f 165 163 126
f 83 124 126
f 87 49 86
f 88 87 130
f 87 86 130
f 130 86 129
f 169 130 129
f 169 168 187
f 57 27 56
f 56 58 57
f 138 94 137
f 53 24 52
f 52 89 53
f 174 136 173
f 134 172 173
f 204 203 233
f 233 203 232
f 232 203 231
f 231 203 230
f 276 254 248
f 276 259 254
f 244 276 247
f 247 276 248
f 287 276 307
f 287 288 259
f 259 276 287
f 204 233 234
f 338 356 357
f 357 339 338
f 280 258 257
f 281 258 280
f 311 312 280
f 280 312 313
f 290 291 259
f 283 258 282
f 282 258 281
f 324 313 325
f 257 227 256
f 256 227 259
f 256 278 257
f 284 258 283
f 285 258 284
f 283 264 284
f 285 261 286
f 286 258 285
f 261 258 286
f 228 258 260
f 260 258 261
f 229 228 260
f 260 261 229
f 37 13 36
f 36 72 37
f 36 13 31
f 31 66 36
f 71 72 36
f 152 186 153
f 222 251 226
f 222 200 199
f 226 200 222
f 113 158 156
f 156 114 113
f 113 157 158
f 241 250 252
f 30 61 62
f 62 61 102
f 108 107 109
f 184 149 148
f 185 186 151
f 151 152 109
f 186 152 151
f 102 101 104
f 148 103 104
f 105 149 106
f 148 149 105
f 105 103 148
f 140 94 136
f 140 141 94
f 148 104 147
f 159 114 156
f 156 192 193
f 216 224 199
f 216 193 217
f 225 224 217
f 225 241 252
f 217 241 225
f 199 224 225
f 252 251 225
f 225 222 199
f 251 222 225
f 82 46 45
f 45 20 18
f 45 46 20
f 118 72 71
f 164 163 165
f 164 120 163
f 39 77 78
f 76 77 38
f 38 75 76
f 38 73 75
f 38 77 39
f 37 73 38
f 39 13 38
f 38 13 37
f 165 126 166
f 166 126 124
f 127 126 163
f 198 187 211
f 198 169 187
f 26 25 24
f 27 9 26
f 26 9 25
f 26 56 27
f 26 55 56
f 136 94 92
f 92 91 136
f 145 98 96
f 90 53 89
f 91 53 90
f 90 132 133
f 133 134 90
f 89 131 90
f 131 132 90
f 202 203 174
f 174 173 202
f 230 203 202
f 202 173 172
f 265 233 232
f 232 231 265
f 265 231 264
f 181 141 180
f 141 140 180
f 218 244 245
f 244 247 245
f 245 247 246
f 246 219 245
f 245 219 218
f 215 241 217
f 220 219 246
f 246 247 220
f 220 215 195
f 195 219 220
f 220 247 248
f 248 249 220
f 249 250 220
f 250 241 220
f 241 215 220
f 305 273 304
f 361 353 375
f 355 356 338
f 337 323 348
f 354 355 337
f 337 355 338
f 338 309 337
f 267 301 268
f 269 236 268
f 268 236 235
f 235 234 268
f 268 234 267
f 329 328 349
f 359 339 358
f 339 357 358
f 281 280 314
f 314 280 313
f 314 313 324
f 314 295 281
f 259 288 289
f 289 290 259
f 310 309 338
f 338 339 310
f 310 339 311
f 326 313 327
f 326 325 313
f 277 256 259
f 278 256 277
f 259 291 277
f 291 278 277
f 264 231 263
f 263 284 264
f 285 284 263
f 162 116 154
f 153 168 154
f 111 152 153
f 153 154 111
f 111 154 116
f 112 113 67
f 68 113 114
f 35 67 68
f 68 67 113
f 68 115 99
f 68 114 115
f 63 62 102
f 102 104 63
f 63 104 103
f 30 62 63
f 65 108 109
f 65 66 30
f 109 66 65
f 107 108 65
f 106 107 65
f 65 105 106
f 150 184 185
f 149 184 150
f 185 151 150
f 109 149 150
f 150 151 109
f 185 184 210
f 211 185 210
f 100 104 101
f 115 147 100
f 100 147 104
f 100 60 99
f 100 101 60
f 182 141 181
f 115 114 160
f 114 159 160
f 217 224 242
f 242 216 217
f 224 216 242
f 191 159 156
f 75 73 74
f 74 118 75
f 74 73 37
f 37 72 74
f 72 118 74
f 71 116 117
f 117 118 71
f 117 116 162
f 75 118 117
f 121 77 76
f 76 120 121
f 120 164 121
f 82 45 44
f 44 45 18
f 128 169 129
f 168 169 128
f 129 86 85
f 85 128 129
f 127 128 85
f 49 84 85
f 85 86 49
f 85 84 83
f 83 126 85
f 126 127 85
f 223 216 199
f 94 55 93
f 93 92 94
f 91 92 54
f 24 53 54
f 54 53 91
f 54 26 24
f 55 26 54
f 54 93 55
f 92 93 54
f 145 96 143
f 97 98 58
f 97 96 98
f 55 96 97
f 178 138 177
f 94 138 139
f 139 178 179
f 138 178 139
f 91 90 135
f 136 91 135
f 135 173 136
f 134 173 135
f 135 90 134
f 172 200 201
f 201 202 172
f 230 202 201
f 229 230 201
f 201 200 226
f 201 228 229
f 226 227 201
f 201 227 228
f 267 234 266
f 266 234 233
f 233 265 266
f 181 180 208
f 208 180 209
f 307 276 275
f 275 273 307
f 275 276 244
f 244 273 275
f 243 273 244
f 243 244 218
f 307 273 306
f 273 305 306
f 361 362 341
f 341 353 361
f 341 336 353
f 342 363 364
f 364 343 342
f 364 365 343
f 343 365 366
f 366 344 343
f 367 344 366
f 291 290 320
f 320 321 291
f 320 289 319
f 290 289 320
f 320 344 345
f 319 344 320
f 322 323 291
f 291 321 322
f 321 346 322
f 348 323 322
f 323 337 308
f 308 337 309
f 291 323 308
f 330 329 349
f 330 350 331
f 349 350 330
f 327 328 298
f 328 329 298
f 298 299 267
f 329 299 298
f 281 295 294
f 294 315 281
f 294 295 267
f 292 265 264
f 292 264 283
f 283 282 292
f 292 282 281
f 281 315 292
f 311 280 279
f 279 310 311
f 279 278 291
f 309 310 279
f 279 280 257
f 257 278 279
f 291 308 279
f 279 308 309
f 285 263 262
f 262 263 231
f 262 261 285
f 230 261 262
f 262 231 230
f 110 66 109
f 110 111 66
f 109 152 110
f 152 111 110
f 69 36 66
f 66 111 69
f 103 105 64
f 64 63 103
f 30 63 64
f 64 65 30
f 105 65 64
f 197 210 183
f 148 147 183
f 183 184 148
f 183 210 184
f 211 210 221
f 221 198 211
f 214 210 197
f 197 191 214
f 214 221 210
f 216 223 214
f 99 115 146
f 146 100 99
f 115 100 146
f 196 160 159
f 159 191 196
f 196 191 197
f 156 193 190
f 190 191 156
f 193 191 190
f 162 120 119
f 119 117 162
f 75 117 119
f 76 75 119
f 119 120 76
f 122 78 77
f 77 121 122
f 165 166 122
f 39 78 40
f 14 13 40
f 40 13 39
f 16 42 17
f 16 41 42
f 16 40 41
f 17 5 16
f 16 5 15
f 15 14 16
f 14 40 16
f 43 44 18
f 42 44 43
f 43 18 17
f 17 42 43
f 81 125 82
f 82 44 81
f 81 44 42
f 42 41 81
f 162 154 188
f 188 154 168
f 167 127 163
f 167 128 127
f 167 163 162
f 162 188 167
f 168 128 167
f 167 188 168
f 94 139 95
f 95 55 94
f 95 96 55
f 142 143 95
f 95 143 96
f 267 266 293
f 293 266 265
f 293 294 267
f 315 294 293
f 265 292 293
f 293 292 315
f 209 237 238
f 238 237 236
f 235 236 206
f 236 237 206
f 206 205 235
f 272 270 303
f 332 304 303
f 332 305 304
f 332 333 305
f 307 306 335
f 335 336 307
f 305 334 335
f 335 306 305
f 335 334 352
f 335 352 353
f 353 336 335
f 318 344 319
f 343 344 318
f 319 289 318
f 342 343 318
f 318 317 342
f 318 289 288
f 288 317 318
f 316 341 342
f 342 317 316
f 336 341 316
f 316 287 307
f 307 336 316
f 288 287 316
f 316 317 288
f 348 322 347
f 347 322 346
f 300 330 301
f 300 301 267
f 267 299 300
f 329 330 300
f 300 299 329
f 327 298 297
f 297 298 267
f 70 69 71
f 71 36 70
f 36 69 70
f 216 214 213
f 213 214 191
f 193 216 213
f 213 191 193
f 160 196 161
f 161 147 115
f 115 160 161
f 161 183 147
f 197 183 161
f 161 196 197
f 80 81 41
f 144 139 179
f 144 95 139
f 142 95 144
f 207 206 237
f 209 180 207
f 207 237 209
f 304 273 274
f 273 243 274
f 239 270 271
f 271 272 239
f 270 272 271
f 239 272 240
f 212 239 240
f 346 369 370
f 370 347 346
f 348 347 370
f 325 326 296
f 324 325 296
f 296 326 327
f 327 297 296
f 296 314 324
f 295 314 296
f 267 295 296
f 296 297 267
f 124 80 123
f 123 166 124
f 123 122 166
f 206 207 175
f 205 206 175
f 175 180 140
f 175 207 180
f 204 205 175
f 175 203 204
f 174 203 175
f 175 136 174
f 175 140 136
f 372 348 371
f 348 370 371
f 78 122 79
f 122 123 79
f 79 40 78
f 41 40 79
f 79 80 41
f 79 123 80
f 23 24 7
f 52 24 23
f 52 23 89
f 89 23 51
f 7 24 8
f 8 3 7
f 8 4 1
f 1 3 8
f 131 89 51
f 131 51 88
f 360 373 349
f 349 340 360
f 1 2 6
f 6 3 1
f 6 2 5
f 5 10 6
f 359 360 339
f 339 360 340
f 155 189 194
f 194 157 155
f 158 157 194
f 194 195 158
f 189 212 194
f 212 218 194
f 20 10 5
f 20 28 10
f 4 8 9
f 9 8 25
f 170 199 200
f 200 172 170
f 113 112 155
f 155 157 113
f 176 138 137
f 177 138 176
f 158 195 215
f 215 192 158
f 217 193 215
f 215 193 192
f 374 375 352
f 352 375 353
f 367 368 344
f 344 368 345
f 372 354 337
f 337 348 372
f 268 302 269
f 301 302 268
f 68 60 35
f 99 60 68
f 182 176 137
f 137 141 182
f 56 55 97
f 58 56 97
f 205 234 235
f 204 234 205
f 341 362 363
f 341 363 342
f 334 333 351
f 305 333 334
f 351 374 334
f 374 352 334
f 320 346 321
f 345 346 320
f 331 302 330
f 330 302 301
f 69 111 116
f 69 116 71
f 214 131 88
f 170 131 214
f 214 199 170
f 88 130 214
f 130 169 214
f 169 198 214
f 214 223 199
f 198 221 214
f 122 121 164
f 122 164 165
f 345 368 369
f 369 346 345
f 125 81 80
f 124 125 80
f 274 272 303
f 303 304 274
f 272 274 240
f 240 274 243
f 240 218 212
f 240 243 218
f 371 11 5
f 371 189 155
f 32 29 371
f 303 270 371
f 155 112 371
f 58 98 371
f 1 4 371
f 142 144 371
f 371 354 372
f 371 33 32
f 371 2 1
f 373 360 371
f 371 212 189
f 371 350 373
f 371 35 34
f 34 33 371
f 29 11 371
f 5 2 371
f 371 182 181
f 356 355 371
f 371 364 363
f 361 375 371
f 371 360 359
f 4 9 371
f 371 67 35
f 371 27 58
f 331 350 371
f 181 208 371
f 371 362 361
f 359 358 371
f 269 302 371
f 371 98 145
f 371 9 27
f 371 178 177
f 371 239 212
f 371 374 351
f 371 236 269
f 371 368 367
f 371 357 356
f 177 176 371
f 371 143 142
f 367 366 371
f 363 362 371
f 209 238 371
f 371 375 374
f 371 332 303
f 371 355 354
f 371 302 331
f 371 358 357
f 112 67 371
f 176 182 371
f 145 143 371
f 179 178 371
f 371 208 209
f 371 270 239
f 351 333 371
f 365 364 371
f 371 366 365
f 371 238 236
f 333 332 371
f 371 369 368
f 371 144 179
f 371 370 369

