# https://github.com/mikedh/trimesh
v -0.00799745 -0.01069188 0.00055156
v -0.00798235 -0.01083382 0.00041069
v -0.00793035 -0.01135534 0.00041069
v -0.00796390 -0.01102526 0.00055156
v -0.00799745 -0.01069188 0.00956249
v -0.00705980 -0.00234748 0.00956249
v -0.00795551 -0.01035850 0.00041069
v -0.00797229 -0.01049713 0.00041069
v -0.00799577 -0.01069188 0.00041069
v -0.00790687 -0.01149727 0.00041069
v -0.00793035 -0.01135534 0.00956249
v -0.00796390 -0.01102526 0.00956249
v -0.00787164 -0.01135534 0.00989658
v -0.00790016 -0.01102526 0.00989658
v -0.00792700 -0.01069188 0.00989658
v -0.00709838 -0.00277658 0.00975856
v -0.00699941 -0.00201410 0.00956249
v -0.00704806 -0.00234748 0.00922840
v -0.00782971 -0.01014395 0.00041069
v -0.00698767 -0.00201410 0.00922840
v -0.00689542 -0.00167741 0.00922840
v -0.00678303 -0.00142655 0.00902566
v -0.00643750 -0.00047923 0.00904184
v -0.00611544 0.00021064 0.00902851
v -0.00579171 0.00090381 0.00901804
v -0.00546798 0.00159367 0.00900948
v -0.00514593 0.00226703 0.00900282
v -0.00479704 0.00289418 0.00901519
v -0.00787332 -0.01168872 0.00041069
v -0.00787332 -0.01168872 0.00956249
v -0.00781294 -0.01169862 0.00991466
v -0.00777268 -0.01158970 0.01007457
v -0.00778610 -0.01135534 0.01008409
v -0.00779784 -0.01102526 0.01009075
v -0.00780790 -0.01069188 0.01009456
v -0.00779448 -0.01042452 0.01008504
v -0.00697929 -0.00234748 0.00989658
v -0.00702457 -0.00267095 0.00988040
v -0.00693064 -0.00201410 0.00989658
v -0.00685852 -0.00167741 0.00989658
v -0.00691051 -0.00167741 0.00956249
v -0.00759320 -0.01005813 0.00041069
v -0.00443808 0.00351473 0.00903898
v -0.00410932 0.00384811 0.00903803
v -0.00377217 0.00418149 0.00904184
v -0.00343502 0.00450827 0.00904470
v -0.00325386 0.00456439 0.00899996
v -0.00280600 0.00486146 0.00902376
v -0.00216357 0.00520144 0.00901519
v -0.00191868 0.00524105 0.00897807
v -0.00680149 -0.00137044 0.00922840
v -0.00674781 -0.00120540 0.00922840
v -0.00667568 -0.00101065 0.00922840
v -0.00653982 -0.00067727 0.00922840
v -0.00636873 -0.00029768 0.00922840
v -0.00549146 0.00164648 0.00922840
v -0.00533379 0.00199307 0.00922840
v -0.00517444 0.00232315 0.00922840
v -0.00508722 0.00249149 0.00922840
v -0.00784145 -0.01181745 0.00041069
v -0.00779616 -0.01198909 0.00956249
v -0.00778442 -0.01194618 0.00981567
v -0.00773410 -0.01181415 0.01003840
v -0.00743217 -0.01288361 0.01006886
v -0.00745063 -0.01269216 0.01008123
v -0.00748417 -0.01235548 0.01009456
v -0.00759320 -0.01135534 0.01011931
v -0.00759320 -0.01102526 0.01012597
v -0.00759320 -0.01069188 0.01012978
v -0.00682832 -0.00234748 0.01009837
v -0.00680819 -0.00201410 0.01009361
v -0.00677800 -0.00167741 0.01007838
v -0.00676123 -0.00150577 0.01006505
v -0.00678807 -0.00142986 0.00989658
v -0.00680987 -0.00135724 0.00956249
v -0.00725941 -0.00996901 0.00041069
v -0.00481884 0.00293379 0.00922840
v -0.00471820 0.00309883 0.00922840
v -0.00457730 0.00332659 0.00922840
v -0.00444814 0.00352794 0.00922840
v -0.00429215 0.00369298 0.00922840
v -0.00412609 0.00386792 0.00922840
v -0.00395500 0.00403296 0.00922840
v -0.00378726 0.00419470 0.00922840
v -0.00360946 0.00436304 0.00922840
v -0.00344340 0.00451487 0.00922840
v -0.00325386 0.00463700 0.00922840
v -0.00300897 0.00478554 0.00922840
v -0.00284291 0.00488126 0.00922840
v -0.00258627 0.00502319 0.00922840
v -0.00237660 0.00513872 0.00922840
v -0.00220886 0.00522124 0.00922840
v -0.00191868 0.00532687 0.00922840
v -0.00114877 0.00551501 0.00903518
v -0.00091729 0.00554472 0.00900186
v -0.00675284 -0.00119220 0.00956249
v -0.00668239 -0.00101065 0.00956249
v -0.00653982 -0.00067727 0.00956249
v -0.00623957 -0.00001051 0.00956249
v -0.00573468 0.00110845 0.00956249
v -0.00533547 0.00199307 0.00956249
v -0.00517444 0.00232315 0.00956249
v -0.00508722 0.00249149 0.00956249
v -0.00482555 0.00294700 0.00956249
v -0.00472826 0.00311534 0.00956249
v -0.00779616 -0.01198909 0.00041069
v -0.00774920 -0.01215743 0.00956249
v -0.00743721 -0.01323019 0.00977284
v -0.00712018 -0.01429305 0.00982519
v -0.00746069 -0.01300574 0.00988896
v -0.00715709 -0.01404219 0.00992037
v -0.00676794 -0.01521727 0.01007076
v -0.00711180 -0.01394316 0.01007838
v -0.00713696 -0.01369230 0.01009170
v -0.00725941 -0.01269216 0.01011645
v -0.00725941 -0.01235548 0.01012978
v -0.00725941 -0.01202210 0.01013358
v -0.00725941 -0.01069188 0.01013358
v -0.00659181 -0.00268086 0.01013358
v -0.00659181 -0.00234748 0.01013263
v -0.00659181 -0.00201410 0.01012882
v -0.00659181 -0.00167741 0.01011360
v -0.00647943 -0.00101065 0.01009170
v -0.00644588 -0.00078950 0.01007838
v -0.00648279 -0.00067727 0.00989277
v -0.00643750 -0.00047923 0.00977950
v -0.00679142 -0.00984688 0.00041069
v -0.00458736 0.00332659 0.00956249
v -0.00444814 0.00352794 0.00956249
v -0.00430054 0.00369628 0.00956249
v -0.00413448 0.00387782 0.00956249
v -0.00396674 0.00404286 0.00956249
v -0.00379900 0.00420460 0.00956249
v -0.00361114 0.00436964 0.00956249
v -0.00344340 0.00451487 0.00956249
v -0.00325386 0.00464360 0.00956249
v -0.00302406 0.00479214 0.00956249
v -0.00285633 0.00489116 0.00956249
v -0.00258627 0.00503970 0.00956249
v -0.00238331 0.00514532 0.00956249
v -0.00221557 0.00522124 0.00956249
v -0.00191868 0.00533677 0.00956249
v -0.00158488 0.00543909 0.00956249
v -0.00139870 0.00549191 0.00956249
v -0.00119741 0.00552822 0.00922840
v -0.00091729 0.00559423 0.00922840
v -0.00058350 0.00563384 0.00922840
v -0.00058350 0.00556452 0.00898092
v -0.00024970 -0.00860248 0.00041069
v -0.00058350 -0.00866189 0.00041069
v -0.00659181 -0.00979737 0.00041069
v -0.00514425 0.00227033 0.00989658
v -0.00611544 0.00021064 0.00981092
v -0.00579171 0.00090381 0.00983661
v -0.00480374 0.00291069 0.00989658
v -0.00443976 0.00351803 0.00978807
v -0.00774920 -0.01215743 0.00041069
v -0.00759991 -0.01269216 0.00956249
v -0.00694238 -0.01502582 0.00956249
v -0.00679981 -0.01528989 0.00989658
v -0.00688032 -0.01502582 0.00989658
v -0.00659181 -0.01526678 0.01008599
v -0.00659181 -0.01502582 0.01011835
v -0.00678807 -0.01502582 0.01008409
v -0.00237828 -0.02512625 0.00755985
v -0.00208138 -0.02553885 0.00771975
v -0.00185829 -0.02562467 0.00776164
v -0.00149934 -0.02593824 0.00775973
v -0.00114206 -0.02625512 0.00775497
v -0.00078478 -0.02657200 0.00774641
v -0.00042750 -0.02688557 0.00773403
v -0.00024970 -0.02695159 0.00775878
v 0.00016461 -0.02726186 0.00775878
v -0.00692561 -0.01369230 0.01012597
v -0.00659181 -0.01469244 0.01013073
v -0.00692561 -0.01335892 0.01013263
v -0.00659181 -0.01435906 0.01013358
v -0.00625802 -0.00134403 0.01013358
v -0.00625802 -0.00101065 0.01012692
v -0.00525663 0.00132631 0.01012026
v -0.00616241 -0.00034389 0.01009456
v -0.00513922 0.00199307 0.01008980
v -0.00575146 0.00081798 0.01005934
v -0.00546127 0.00132631 0.01008504
v -0.00510567 0.00219772 0.01007552
v -0.00543108 0.00151115 0.01006981
v -0.00411938 0.00386462 0.00981567
v -0.00378726 0.00419140 0.00981187
v -0.00343669 0.00450827 0.00977284
v -0.00281607 0.00486806 0.00989658
v -0.00215519 0.00519484 0.00989658
v -0.00191868 0.00527406 0.00989658
v -0.00119406 0.00552161 0.00981282
v -0.00123096 0.00553152 0.00956249
v -0.00091729 0.00559753 0.00956249
v -0.00058350 0.00564044 0.00956249
v -0.00024970 0.00566025 0.00956249
v -0.00024970 0.00564374 0.00922840
v 0.00008409 0.00565035 0.00922840
v 0.00008409 0.00557113 0.00897712
v 0.00876110 -0.00901508 0.00041069
v 0.00041789 0.00557113 0.00897521
v -0.00546295 0.00158377 0.00989658
v -0.00477020 0.00285127 0.01007362
v -0.00469136 0.00307903 0.00989658
v -0.00451524 0.00333649 0.00989848
v -0.00438105 0.00345202 0.01001080
v -0.00406235 0.00380190 0.01003745
v -0.00759991 -0.01269216 0.00041069
v -0.00747914 -0.01312126 0.00041069
v -0.00694238 -0.01502582 0.00041069
v -0.00689374 -0.01516446 0.00041069
v -0.00682665 -0.01535260 0.00956249
v -0.00625802 -0.01529319 0.01009837
v 0.00044137 -0.02737409 0.00777115
v 0.00075001 -0.02758534 0.00775688
v 0.00075001 -0.02737739 0.00781018
v 0.00108380 -0.02764475 0.00777782
v 0.00175139 -0.02771077 0.00780447
v -0.00625802 -0.01502582 0.01013358
v -0.00240511 -0.02517246 0.00722576
v -0.00220215 -0.02540682 0.00758935
v -0.00211158 -0.02556856 0.00749703
v -0.00176101 -0.02588543 0.00743325
v -0.00062711 -0.02677665 0.00755985
v -0.00046105 -0.02691198 0.00755985
v -0.00022622 -0.02709352 0.00756175
v -0.00005680 -0.02718925 0.00767407
v 0.00056885 -0.02755233 0.00773403
v -0.00492284 0.00165969 0.01013358
v -0.00525663 0.00099293 0.01013263
v -0.00592422 -0.00034389 0.01012978
v -0.00492284 0.00199307 0.01012502
v -0.00480878 0.00265983 0.01008885
v -0.00392481 0.00399995 0.00992513
v -0.00372520 0.00413528 0.01003459
v -0.00336792 0.00444886 0.00999462
v -0.00276407 0.00483835 0.01006886
v -0.00209145 0.00516513 0.01006600
v -0.00102464 0.00546880 0.01003459
v -0.00080155 0.00550511 0.01007076
v -0.00091394 0.00554142 0.00991276
v -0.00058350 0.00558763 0.00989658
v 0.00008409 0.00566685 0.00956249
v -0.00024970 0.00560743 0.00989658
v 0.00041789 0.00565365 0.00922840
v 0.00903115 -0.00910420 0.00041069
v 0.00075001 0.00555462 0.00899044
v 0.00175139 0.00526745 0.00896665
v 0.00208519 0.00521464 0.00900757
v -0.00458066 0.00297670 0.01009551
v -0.00446324 0.00322756 0.01008409
v -0.00383926 0.00391083 0.01008694
v -0.00415796 0.00358075 0.01008694
v -0.00682665 -0.01534930 0.00041069
v -0.00682665 -0.01535260 0.00355552
v 0.00208519 -0.02771077 0.00781684
v -0.00492284 -0.01558696 0.01008409
v -0.00492284 -0.01536250 0.01011835
v 0.00153837 -0.02788571 0.00773594
v 0.00175139 -0.02790552 0.00775116
v 0.00208519 -0.02792202 0.00776354
v -0.00425525 -0.01536250 0.01011931
v 0.00742592 -0.01502582 0.01013358
v -0.00240511 -0.02517246 0.00622444
v -0.00227763 -0.02537381 0.00722576
v -0.00212332 -0.02558176 0.00722576
v -0.00176604 -0.02588873 0.00722576
v -0.00158488 -0.02603727 0.00722576
v -0.00065395 -0.02679975 0.00722576
v -0.00048789 -0.02693508 0.00722576
v -0.00009874 -0.02722225 0.00745134
v -0.00193377 -0.02574680 0.00722576
v 0.00006564 -0.02730147 0.00756175
v 0.00035583 -0.02748302 0.00755985
v 0.00052189 -0.02757544 0.00755985
v 0.00075001 -0.02767446 0.00755985
v 0.00131528 -0.02785270 0.00766360
v -0.00458904 0.00232645 0.01013358
v -0.00458904 0.00265983 0.01012311
v -0.00350379 0.00422770 0.01008694
v -0.00314651 0.00453138 0.01008314
v -0.00289323 0.00465021 0.01009170
v -0.00258627 0.00487136 0.01008409
v -0.00191868 0.00518823 0.01007933
v -0.00058350 0.00551501 0.01007838
v -0.00158488 0.00522784 0.01009551
v 0.00008409 0.00561404 0.00989658
v 0.00041789 0.00565695 0.00956249
v -0.00024970 0.00552492 0.01008504
v 0.00075001 0.00561404 0.00922840
v 0.00909154 -0.00924943 0.00041069
v 0.00275278 0.00487466 0.00901519
v 0.00292387 0.00483175 0.00905897
v 0.00331470 0.00454458 0.00901138
v 0.00366023 0.00422770 0.00900567
v 0.00400577 0.00390423 0.00900091
v 0.00433286 0.00358075 0.00899901
v 0.00465156 0.00323417 0.00900567
v 0.00497026 0.00288098 0.00901519
v 0.00528728 0.00253110 0.00902756
v 0.00560598 0.00217791 0.00904279
v 0.00696632 0.00054402 0.00901709
v 0.00726657 0.00016773 0.00905136
v 0.00761881 -0.00045282 0.00902756
v 0.00793583 -0.00115589 0.00904755
v 0.00108380 0.00551831 0.00903327
v 0.00125154 0.00549851 0.00906183
v 0.00226634 0.00517173 0.00905041
v -0.00426363 0.00333649 0.01010408
v -0.00393822 0.00367977 0.01010503
v -0.00360275 0.00401315 0.01010503
v -0.00677129 -0.01544832 0.00041069
v -0.00240344 -0.02517246 0.00589130
v 0.00241898 -0.02792532 0.00776639
v 0.00241898 -0.02771077 0.00781970
v -0.00458904 -0.01560016 0.01008409
v 0.00142431 -0.02790882 0.00755509
v 0.00175139 -0.02796823 0.00755985
v 0.00208519 -0.02800454 0.00755985
v 0.00241898 -0.02801114 0.00755985
v -0.00292006 -0.01536250 0.01011931
v -0.00158488 -0.01536250 0.01011835
v 0.00742592 -0.01536250 0.01011169
v 0.00775971 -0.01502582 0.01012026
v 0.00775971 -0.01469244 0.01012978
v 0.00775971 -0.01435906 0.01013263
v 0.00775971 -0.01402568 0.01013358
v -0.00227763 -0.02537381 0.00622444
v -0.00212332 -0.02558176 0.00622444
v -0.00176604 -0.02588873 0.00589130
v -0.00158488 -0.02603727 0.00589130
v -0.00065395 -0.02679975 0.00622444
v -0.00048789 -0.02693508 0.00622444
v -0.00027486 -0.02710342 0.00722576
v -0.00010713 -0.02722885 0.00722576
v 0.00008409 -0.02736089 0.00722576
v 0.00031725 -0.02750942 0.00722576
v -0.00193377 -0.02574680 0.00622444
v 0.00048498 -0.02759524 0.00722576
v 0.00075001 -0.02771737 0.00722576
v 0.00122638 -0.02788571 0.00744087
v 0.00110225 -0.02780649 0.00755509
v -0.00425525 0.00299321 0.01013168
v -0.00392145 0.00332659 0.01013358
v -0.00325554 0.00433663 0.01010312
v -0.00258627 0.00466341 0.01011931
v -0.00222228 0.00499019 0.01009265
v -0.00191868 0.00499679 0.01011455
v -0.00058350 0.00533017 0.01011264
v -0.00158488 0.00499679 0.01012978
v 0.00008409 0.00552822 0.01008599
v 0.00041789 0.00552161 0.01008218
v 0.00041789 0.00560083 0.00989658
v 0.00075001 0.00561734 0.00956249
v 0.00078020 0.00555462 0.00992799
v -0.00024970 0.00533017 0.01011931
v 0.00008409 0.00533017 0.01012121
v 0.00129180 0.00550841 0.00977475
v 0.00145115 0.00546880 0.00956249
v 0.00913515 -0.00935506 0.00041069
v 0.00293394 0.00483835 0.00922840
v 0.00309999 0.00473933 0.00922840
v 0.00334489 0.00457099 0.00922840
v 0.00351095 0.00442575 0.00922840
v 0.00369714 0.00426071 0.00922840
v 0.00386320 0.00411218 0.00922840
v 0.00405106 0.00394384 0.00922840
v 0.00421712 0.00379200 0.00922840
v 0.00437144 0.00362366 0.00922840
v 0.00453917 0.00343551 0.00922840
v 0.00468175 0.00327047 0.00922840
v 0.00515980 0.00271594 0.00922840
v 0.00561436 0.00218781 0.00922840
v 0.00654530 0.00110515 0.00922840
v 0.00685561 0.00073877 0.00922840
v 0.00698980 0.00057373 0.00922840
v 0.00715586 0.00034267 0.00922840
v 0.00727328 0.00017763 0.00922840
v 0.00740076 -0.00001051 0.00922840
v 0.00755340 -0.00025477 0.00922840
v 0.00763391 -0.00042311 0.00922840
v 0.00774629 -0.00067727 0.00922840
v 0.00787210 -0.00097765 0.00922840
v 0.00794087 -0.00114599 0.00922840
v 0.00799287 -0.00134403 0.00922840
v 0.00175139 0.00537968 0.00922840
v 0.00208519 0.00526415 0.00922840
v 0.00227473 0.00517503 0.00922840
v -0.00325386 0.00399665 0.01013358
v -0.00358766 0.00366327 0.01013358
v -0.00292006 0.00433003 0.01012978
v -0.00673104 -0.01551764 0.00041069
v -0.00210990 -0.02556525 0.00569237
v -0.00227596 -0.02537381 0.00589130
v 0.00275278 -0.02791872 0.00776164
v 0.00275278 -0.02771077 0.00781494
v 0.00742592 -0.01558036 0.01007647
v -0.00225247 -0.01560016 0.01008409
v 0.00175139 -0.02800784 0.00722576
v 0.00208519 -0.02804415 0.00722576
v 0.00241898 -0.02805405 0.00722576
v 0.00275278 -0.02799794 0.00755985
v 0.00764062 -0.01556385 0.01007267
v 0.00775468 -0.01535590 0.01008885
v 0.00795764 -0.01502582 0.01008504
v 0.00797777 -0.01469244 0.01009551
v 0.00842730 -0.01135534 0.01012406
v 0.00809351 -0.01302554 0.01012692
v 0.00793919 -0.01524367 0.01007362
v 0.00842730 -0.01102526 0.01013073
v 0.00842730 -0.01069188 0.01013358
v -0.00212332 -0.02557846 0.00589130
v -0.00193210 -0.02574680 0.00589130
v -0.00176101 -0.02588213 0.00571331
v -0.00139534 -0.02619241 0.00589130
v -0.00048621 -0.02693508 0.00589130
v -0.00027486 -0.02710342 0.00622444
v -0.00010713 -0.02722885 0.00589130
v 0.00008409 -0.02736089 0.00622444
v 0.00031725 -0.02750942 0.00622444
v 0.00048498 -0.02759524 0.00622444
v 0.00075001 -0.02771737 0.00589130
v 0.00104690 -0.02783290 0.00722576
v 0.00121464 -0.02788901 0.00722576
v 0.00141760 -0.02793853 0.00722576
v -0.00225247 0.00466341 0.01013263
v -0.00125109 0.00499679 0.01013358
v 0.00041789 0.00533017 0.01011740
v 0.00068795 0.00551171 0.01007457
v 0.00141760 0.00524765 0.01009837
v 0.00108380 0.00552822 0.00984423
v 0.00090936 0.00549521 0.01006029
v 0.00108380 0.00499679 0.01013358
v 0.00141760 0.00499679 0.01013263
v 0.00175139 0.00539288 0.00956249
v 0.00175139 0.00532687 0.00989658
v 0.00208519 0.00521794 0.00988706
v 0.00913851 -0.00935506 0.00922840
v 0.00911838 -0.00954981 0.00041069
v 0.00806499 -0.00167741 0.00922840
v 0.00812705 -0.00201410 0.00922840
v 0.00813544 -0.00201410 0.00956249
v 0.00294400 0.00484495 0.00956249
v 0.00311006 0.00473933 0.00956249
v 0.00334657 0.00457099 0.00956249
v 0.00351263 0.00443235 0.00956249
v 0.00387661 0.00412208 0.00956249
v 0.00405441 0.00395704 0.00956249
v 0.00422047 0.00379200 0.00956249
v 0.00437144 0.00362696 0.00956249
v 0.00453917 0.00343551 0.00956249
v 0.00468175 0.00327047 0.00956249
v 0.00515980 0.00271594 0.00956249
v 0.00561436 0.00218781 0.00956249
v 0.00654530 0.00110515 0.00956249
v 0.00685561 0.00074207 0.00956249
v 0.00699148 0.00057373 0.00956249
v 0.00715922 0.00035257 0.00956249
v 0.00727999 0.00018753 0.00956249
v 0.00740747 -0.00001051 0.00956249
v 0.00755507 -0.00025147 0.00956249
v 0.00763894 -0.00041981 0.00956249
v 0.00775468 -0.00067727 0.00956249
v 0.00787713 -0.00097435 0.00956249
v 0.00794087 -0.00114269 0.00956249
v 0.00799622 -0.00134403 0.00956249
v 0.00807338 -0.00167741 0.00956249
v 0.00208519 0.00526745 0.00956249
v 0.00227976 0.00517503 0.00956249
v 0.00275278 0.00494068 0.00956249
v 0.00555566 -0.02223475 0.00041069
v 0.00041286 -0.02739720 0.00559623
v 0.00008409 -0.02728497 0.00565144
v -0.00046273 -0.02691528 0.00567809
v -0.00082001 -0.02660170 0.00566191
v 0.00308658 -0.02789892 0.00774545
v 0.00308658 -0.02771077 0.00779876
v 0.00175139 -0.02800784 0.00622444
v 0.00208519 -0.02804415 0.00622444
v 0.00241898 -0.02805405 0.00622444
v 0.00275278 -0.02803755 0.00722576
v 0.00308658 -0.02795503 0.00755985
v 0.00327780 -0.02788241 0.00773213
v 0.00375417 -0.02737739 0.00782921
v 0.00375417 -0.02763155 0.00777591
v 0.00412151 -0.02741040 0.00778733
v 0.00442176 -0.02732458 0.00777401
v 0.00465156 -0.02725196 0.00775497
v 0.00476058 -0.02705061 0.00778543
v 0.00500884 -0.02694499 0.00776068
v 0.00533592 -0.02662811 0.00776068
v 0.00826795 -0.01357347 0.01006886
v 0.00828305 -0.01335892 0.01008028
v 0.00895735 -0.00968844 0.01008409
v 0.00863026 -0.01135534 0.01008885
v 0.00830486 -0.01302554 0.01009265
v 0.00865039 -0.01102526 0.01009646
v 0.00876110 -0.00968844 0.01011931
v 0.00793583 -0.01588733 0.00974714
v 0.00795596 -0.01569588 0.00980140
v 0.00798280 -0.01535590 0.00990990
v 0.00564120 -0.02628483 0.00775783
v 0.00593977 -0.02590194 0.00773974
v 0.00626183 -0.02521867 0.00773022
v 0.00876110 -0.00935506 0.01012311
v 0.00842730 -0.00968844 0.01013358
v -0.00009706 -0.02722225 0.00570760
v 0.00008409 -0.02735759 0.00589130
v 0.00031893 -0.02750942 0.00589130
v 0.00048666 -0.02759524 0.00589130
v 0.00122806 -0.02788571 0.00571045
v 0.00104858 -0.02783290 0.00589130
v 0.00104690 -0.02783290 0.00622444
v 0.00052021 -0.02757874 0.00567809
v 0.00121464 -0.02788901 0.00622444
v 0.00141760 -0.02793853 0.00589130
v 0.00175139 0.00499679 0.01012692
v 0.00175139 0.00521134 0.01009170
v 0.00197281 0.00518493 0.01007838
v 0.00208519 0.00466341 0.01013358
v 0.00241898 0.00466341 0.01012882
v 0.00227305 0.00517173 0.00976999
v 0.00219590 0.00511892 0.00999176
v 0.00275278 0.00489446 0.00988516
v 0.00913683 -0.00935506 0.00956249
v 0.00910496 -0.00968844 0.00956249
v 0.00910496 -0.00968844 0.00041069
v 0.00801970 -0.00167741 0.00989658
v 0.00807170 -0.00201410 0.00989658
v 0.00293729 0.00484165 0.00976713
v 0.00331134 0.00454128 0.00989658
v 0.00367869 0.00423761 0.00989658
v 0.00384642 0.00408907 0.00989658
v 0.00401416 0.00392403 0.00989658
v 0.00418022 0.00375239 0.00989658
v 0.00433453 0.00358405 0.00989658
v 0.00528728 0.00253110 0.00981472
v 0.00560598 0.00217791 0.00977760
v 0.00682039 0.00070246 0.00989658
v 0.00696129 0.00053412 0.00989658
v 0.00727495 0.00017763 0.00978331
v 0.00762385 -0.00044952 0.00982519
v 0.00793583 -0.00115259 0.00976523
v 0.00575694 -0.02228427 0.00041069
v 0.00175139 -0.02794183 0.00563716
v 0.00141760 -0.02790882 0.00567809
v 0.00110393 -0.02772727 0.00561527
v 0.00075001 -0.02762825 0.00562764
v 0.00175139 -0.02800454 0.00589130
v 0.00208519 -0.02804085 0.00589130
v 0.00241898 -0.02805075 0.00589130
v 0.00275278 -0.02803755 0.00622444
v 0.00308658 -0.02799134 0.00722576
v 0.00358978 -0.02787911 0.00739899
v 0.00340192 -0.02789892 0.00753034
v 0.00349921 -0.02784280 0.00762076
v 0.00425570 -0.02754573 0.00772642
v 0.00403261 -0.02758534 0.00775688
v 0.00471362 -0.02729487 0.00755985
v 0.00487968 -0.02717274 0.00755985
v 0.00523192 -0.02685256 0.00766740
v 0.00830318 -0.01368570 0.00991276
v 0.00859672 -0.01186696 0.01006505
v 0.00860846 -0.01168872 0.01007457
v 0.00894058 -0.00993600 0.01007267
v 0.00904457 -0.00968844 0.00989658
v 0.00907141 -0.00935506 0.00989658
v 0.00896574 -0.00935506 0.01008885
v 0.00826292 -0.01420062 0.00973477
v 0.00827802 -0.01402568 0.00979569
v 0.00643627 -0.02470705 0.00755985
v 0.00648324 -0.02470705 0.00722576
v 0.00555901 -0.02650928 0.00764266
v 0.00585926 -0.02611649 0.00755985
v 0.00596661 -0.02594815 0.00755985
v 0.00608738 -0.02570719 0.00755985
v 0.00621318 -0.02543983 0.00755985
v 0.00628028 -0.02527478 0.00755985
v 0.00635408 -0.02504043 0.00755985
v 0.00775971 -0.00201410 0.01012597
v 0.00775971 -0.00234748 0.01013073
v 0.00775971 -0.00268086 0.01013263
v 0.00742592 -0.00134403 0.01013358
v 0.00121631 -0.02788901 0.00589130
v 0.00241898 0.00490107 0.01009456
v 0.00264207 0.00485816 0.01008123
v 0.00275278 0.00433003 0.01013358
v 0.00342037 0.00399665 0.01012787
v 0.00308658 0.00433003 0.01012026
v 0.00275278 0.00466671 0.01010217
v 0.00286516 0.00478224 0.00998986
v 0.00893555 -0.01056315 0.00975952
v 0.00906973 -0.00988319 0.00041069
v 0.00648324 -0.02470705 0.00622444
v 0.00648156 -0.02470705 0.00589130
v 0.00795764 -0.00137044 0.00988421
v 0.00793080 -0.00149917 0.01006600
v 0.00326605 0.00450497 0.01006981
v 0.00362165 0.00419140 0.01007933
v 0.00395545 0.00386462 0.01008028
v 0.00428254 0.00352794 0.01007838
v 0.00460459 0.00317805 0.01007267
v 0.00492497 0.00282817 0.01006410
v 0.00450059 0.00339590 0.00989658
v 0.00496019 0.00287108 0.00989658
v 0.00692774 0.00049451 0.01006410
v 0.00464820 0.00322756 0.00989658
v 0.00721792 0.00010831 0.01000604
v 0.00734037 -0.00000391 0.00989563
v 0.00757520 -0.00053204 0.01004792
v 0.00767752 -0.00065747 0.00992037
v 0.00752153 -0.00034059 0.00992037
v 0.00594984 -0.02229417 0.00041069
v 0.00208519 -0.02795833 0.00562003
v 0.00241898 -0.02796493 0.00561717
v 0.00275278 -0.02795503 0.00562384
v 0.00275278 -0.02803425 0.00589130
v 0.00308658 -0.02799134 0.00589130
v 0.00342037 -0.02792202 0.00722576
v 0.00359146 -0.02787911 0.00722576
v 0.00375920 -0.02781970 0.00722576
v 0.00408796 -0.02768767 0.00722576
v 0.00429763 -0.02756884 0.00750369
v 0.00441505 -0.02747641 0.00759316
v 0.00474381 -0.02731798 0.00722576
v 0.00490987 -0.02720245 0.00722576
v 0.00526883 -0.02688887 0.00744468
v 0.00510780 -0.02698790 0.00755794
v 0.00541476 -0.02670073 0.00754367
v 0.00862523 -0.01199569 0.00989848
v 0.00895400 -0.01035850 0.00982614
v 0.00898083 -0.01003832 0.00992228
v 0.00891374 -0.01016045 0.01005077
v 0.00895232 -0.00917022 0.01007838
v 0.00794590 -0.00167741 0.01007743
v 0.00796603 -0.00201410 0.01009075
v 0.00639266 -0.02504043 0.00722576
v 0.00559591 -0.02654889 0.00741993
v 0.00567643 -0.02639045 0.00754272
v 0.00588610 -0.02614950 0.00722576
v 0.00598674 -0.02598115 0.00722576
v 0.00613435 -0.02570719 0.00722576
v 0.00624002 -0.02548934 0.00722576
v 0.00629873 -0.02532430 0.00722576
v 0.00775971 -0.00167741 0.01011169
v 0.00742592 -0.00101065 0.01013073
v 0.00675833 -0.00001051 0.01013358
v 0.00308658 0.00455118 0.01008504
v 0.00342037 0.00366327 0.01013358
v 0.00375417 0.00366327 0.01012882
v 0.00374075 0.00398345 0.01009646
v 0.00339521 0.00431353 0.01009075
v 0.00895735 -0.01048723 0.00041069
v 0.00639266 -0.02504043 0.00622444
v 0.00639098 -0.02504043 0.00589130
v 0.00686232 -0.02170333 0.00041069
v 0.00688245 -0.02159770 0.00041069
v 0.00698812 -0.02103657 0.00041069
v 0.00736218 -0.01903299 0.00041069
v 0.00887851 -0.01090973 0.00041069
v 0.00762552 -0.00075319 0.01008314
v 0.00766410 -0.00101065 0.01009551
v 0.00407622 0.00364676 0.01009646
v 0.00440498 0.00330678 0.01009170
v 0.00628699 0.00119428 0.01007933
v 0.00660904 0.00084439 0.01007362
v 0.00673652 0.00062654 0.01008409
v 0.00697974 0.00032287 0.01008123
v 0.00729340 -0.00011284 0.01008218
v 0.00609073 -0.02230077 0.00041069
v 0.00628363 -0.02229747 0.00041069
v 0.00642453 -0.02229417 0.00041069
v 0.00308658 -0.02793192 0.00564478
v 0.00342037 -0.02789892 0.00569141
v 0.00358811 -0.02787911 0.00572378
v 0.00342037 -0.02792202 0.00589130
v 0.00359146 -0.02787911 0.00622444
v 0.00375920 -0.02781970 0.00622444
v 0.00408796 -0.02768767 0.00622444
v 0.00431944 -0.02757874 0.00722576
v 0.00448550 -0.02748302 0.00722576
v 0.00474381 -0.02731798 0.00589130
v 0.00490987 -0.02720245 0.00622444
v 0.00527386 -0.02689547 0.00722576
v 0.00544159 -0.02672053 0.00722576
v 0.00559927 -0.02655219 0.00722576
v 0.00572675 -0.02637725 0.00722576
v 0.00588610 -0.02614950 0.00622444
v 0.00598674 -0.02598115 0.00589130
v 0.00613435 -0.02570719 0.00622444
v 0.00624002 -0.02548934 0.00622444
v 0.00629873 -0.02532430 0.00622444
v 0.00744940 -0.00065747 0.01010312
v 0.00735547 -0.00034389 0.01009551
v 0.00709212 -0.00034389 0.01012978
v 0.00609073 0.00099293 0.01012787
v 0.00542314 0.00165969 0.01013263
v 0.00508935 0.00199307 0.01013358
v 0.00408796 0.00332659 0.01012692
v 0.00629873 -0.02532100 0.00589130
v 0.00676671 -0.02203671 0.00041069
v 0.00442176 0.00299321 0.01012311
v 0.00575526 0.00165639 0.01010217
v 0.00608235 0.00131310 0.01009837
v 0.00640943 0.00096982 0.01009265
v 0.00675833 0.00032287 0.01011645
v 0.00710051 -0.00000391 0.01010312
v 0.00655369 -0.02226776 0.00041069
v 0.00664762 -0.02224466 0.00041069
v 0.00408796 -0.02761505 0.00564097
v 0.00429596 -0.02756884 0.00568951
v 0.00408796 -0.02768436 0.00589130
v 0.00375752 -0.02781640 0.00589130
v 0.00358978 -0.02787911 0.00589130
v 0.00431776 -0.02757874 0.00589130
v 0.00431944 -0.02757874 0.00622444
v 0.00448550 -0.02748302 0.00589130
v 0.00469181 -0.02728167 0.00564953
v 0.00526715 -0.02688887 0.00570950
v 0.00490987 -0.02719915 0.00589130
v 0.00508935 -0.02705061 0.00589130
v 0.00527386 -0.02689547 0.00622444
v 0.00544159 -0.02672053 0.00622444
v 0.00559927 -0.02655219 0.00622444
v 0.00572675 -0.02637725 0.00622444
v 0.00572507 -0.02637725 0.00589130
v 0.00588442 -0.02614620 0.00589130
v 0.00596493 -0.02594485 0.00567047
v 0.00613267 -0.02570719 0.00589130
v 0.00623834 -0.02548934 0.00589130
v 0.00642453 0.00065625 0.01012311
v 0.00559591 -0.02654889 0.00571711
v 0.00527386 -0.02689217 0.00589130
v 0.00544159 -0.02671723 0.00589130
v 0.00559759 -0.02655219 0.00589130
f 527 528 439
f 158 108 107
f 69 119 120
f 526 527 439
f 398 397 404
f 214 219 257
f 3 4 1
f 42 19 50
f 50 19 49
f 313 393 314
f 314 255 313
f 441 442 361
f 20 7 18
f 118 69 117
f 119 69 118
f 121 69 120
f 28 59 43
f 28 27 59
f 28 7 27
f 19 7 28
f 43 19 28
f 404 397 478
f 593 571 570
f 570 571 500
f 324 264 323
f 324 398 404
f 1 9 2
f 2 3 1
f 8 9 1
f 1 7 8
f 19 47 48
f 48 49 19
f 212 255 256
f 292 247 306
f 306 361 292
f 439 528 440
f 440 361 439
f 7 20 21
f 232 233 179
f 178 121 120
f 120 119 178
f 232 179 178
f 178 179 121
f 44 19 43
f 44 45 19
f 43 82 44
f 82 45 44
f 306 385 386
f 441 361 386
f 386 361 306
f 306 383 384
f 384 385 306
f 306 247 305
f 257 315 316
f 316 315 397
f 397 398 316
f 396 478 397
f 397 315 396
f 396 315 321
f 617 552 616
f 482 483 403
f 402 482 403
f 403 321 402
f 403 396 321
f 403 483 484
f 264 324 325
f 500 410 505
f 410 504 505
f 505 572 500
f 404 478 485
f 219 214 162
f 323 264 322
f 258 214 257
f 257 316 258
f 258 316 317
f 398 324 399
f 399 316 398
f 317 316 399
f 399 324 323
f 323 322 399
f 265 255 314
f 256 255 265
f 61 107 108
f 62 61 108
f 30 61 62
f 11 3 10
f 10 30 11
f 76 42 50
f 616 552 615
f 402 321 320
f 415 508 417
f 475 508 415
f 314 393 394
f 393 415 394
f 415 413 394
f 29 30 10
f 295 247 294
f 51 21 41
f 41 21 20
f 20 17 41
f 16 17 6
f 6 7 1
f 18 7 6
f 1 5 6
f 5 16 6
f 123 72 122
f 122 179 123
f 121 179 122
f 69 121 70
f 27 7 26
f 22 23 7
f 22 52 23
f 51 52 22
f 22 21 51
f 7 21 22
f 46 48 47
f 46 47 19
f 19 45 46
f 46 45 82
f 49 48 91
f 233 182 180
f 123 179 180
f 180 179 233
f 234 182 233
f 123 182 124
f 124 72 123
f 124 73 72
f 185 234 204
f 182 234 185
f 279 344 233
f 96 74 97
f 74 126 97
f 105 79 78
f 78 79 43
f 105 156 128
f 376 377 303
f 295 294 364
f 364 445 446
f 369 298 297
f 297 298 247
f 301 371 302
f 376 303 302
f 247 301 302
f 302 303 247
f 300 301 247
f 247 298 299
f 299 300 247
f 301 300 299
f 478 396 477
f 477 403 484
f 396 403 477
f 552 481 480
f 501 410 500
f 501 502 410
f 500 571 501
f 501 571 563
f 563 502 501
f 407 325 406
f 406 325 410
f 569 568 635
f 563 571 564
f 264 325 326
f 326 325 409
f 404 410 405
f 410 325 405
f 405 324 404
f 405 325 324
f 173 162 112
f 214 220 163
f 163 162 214
f 220 175 163
f 164 112 163
f 163 112 162
f 259 220 214
f 214 258 259
f 259 258 317
f 166 112 165
f 165 112 160
f 221 165 213
f 213 165 160
f 213 212 256
f 177 175 220
f 13 14 5
f 545 615 546
f 546 472 545
f 261 320 262
f 262 315 257
f 321 315 262
f 262 320 321
f 257 219 262
f 219 261 262
f 419 417 508
f 476 415 393
f 393 475 476
f 476 475 415
f 314 394 395
f 395 394 413
f 267 223 266
f 226 227 171
f 60 61 30
f 106 61 60
f 30 29 60
f 158 209 210
f 360 291 359
f 308 291 360
f 432 433 359
f 356 433 432
f 359 433 437
f 193 242 243
f 356 289 354
f 196 147 146
f 359 291 355
f 355 291 289
f 355 432 359
f 355 289 356
f 356 432 355
f 307 291 308
f 75 74 96
f 75 41 74
f 51 41 75
f 96 52 75
f 75 52 51
f 121 122 71
f 71 122 72
f 71 70 121
f 40 73 74
f 74 41 40
f 40 41 17
f 72 73 37
f 37 71 72
f 16 38 37
f 69 70 35
f 70 71 35
f 25 26 7
f 241 243 242
f 241 242 193
f 85 46 84
f 236 188 235
f 188 236 189
f 92 93 49
f 49 91 92
f 181 182 123
f 123 180 181
f 181 180 182
f 233 344 280
f 280 234 233
f 73 124 125
f 125 126 74
f 74 73 125
f 183 126 125
f 125 124 183
f 152 185 204
f 184 124 182
f 182 185 184
f 184 185 124
f 231 233 232
f 232 178 231
f 23 52 53
f 53 52 96
f 96 97 53
f 23 53 54
f 54 53 97
f 27 26 57
f 26 25 57
f 23 56 57
f 102 152 103
f 59 105 77
f 105 78 77
f 43 59 77
f 77 78 43
f 81 82 43
f 235 188 187
f 156 130 129
f 129 128 156
f 80 79 105
f 105 128 80
f 128 129 80
f 43 79 80
f 80 81 43
f 80 129 130
f 304 303 377
f 381 305 304
f 304 305 247
f 247 303 304
f 363 364 294
f 445 364 363
f 444 445 363
f 369 297 296
f 296 247 295
f 296 297 247
f 447 364 446
f 447 448 364
f 447 446 533
f 533 448 447
f 376 302 375
f 370 298 369
f 370 299 298
f 451 371 370
f 370 371 301
f 301 299 370
f 369 450 370
f 370 450 451
f 171 227 228
f 173 171 228
f 550 517 512
f 479 517 550
f 550 480 479
f 512 517 585
f 342 400 318
f 318 400 319
f 319 320 261
f 402 320 401
f 484 483 556
f 556 555 484
f 483 555 556
f 554 483 482
f 554 555 483
f 719 710 720
f 719 712 710
f 710 712 711
f 407 406 497
f 411 326 409
f 412 326 411
f 412 411 506
f 493 502 563
f 563 564 493
f 410 502 493
f 493 406 410
f 632 571 593
f 564 632 633
f 564 633 634
f 264 326 327
f 327 326 412
f 488 489 404
f 484 555 557
f 172 171 173
f 173 112 172
f 172 112 171
f 109 62 108
f 110 62 109
f 220 259 263
f 263 259 317
f 222 165 221
f 221 266 222
f 266 223 222
f 222 223 166
f 166 165 222
f 176 177 117
f 175 177 176
f 69 35 68
f 34 67 68
f 68 35 34
f 66 67 33
f 33 67 34
f 115 67 66
f 12 13 5
f 11 13 12
f 472 548 549
f 616 615 671
f 417 419 418
f 508 510 509
f 509 419 508
f 509 510 420
f 420 419 509
f 225 171 166
f 225 226 171
f 457 377 376
f 376 375 457
f 538 539 451
f 378 460 379
f 377 460 378
f 379 304 378
f 378 304 377
f 379 460 380
f 380 304 379
f 381 304 380
f 542 543 462
f 427 351 347
f 533 446 532
f 542 457 541
f 288 354 289
f 289 244 288
f 197 147 196
f 196 243 197
f 197 243 245
f 245 288 197
f 197 288 244
f 95 147 148
f 95 146 147
f 151 127 95
f 95 150 151
f 127 76 95
f 95 76 50
f 149 150 95
f 95 148 149
f 148 147 198
f 198 199 148
f 147 197 198
f 202 201 149
f 293 294 247
f 308 360 387
f 308 387 309
f 309 387 388
f 294 293 309
f 73 40 39
f 39 37 73
f 16 37 39
f 39 17 16
f 39 40 17
f 71 37 36
f 36 35 71
f 352 288 290
f 290 288 245
f 290 358 352
f 245 243 286
f 243 241 286
f 286 290 245
f 241 287 286
f 239 191 238
f 83 46 82
f 83 84 46
f 85 84 133
f 188 189 133
f 84 83 133
f 136 189 137
f 238 189 237
f 237 189 236
f 142 143 93
f 142 92 141
f 93 92 142
f 141 191 142
f 193 143 142
f 93 143 144
f 144 143 193
f 193 194 144
f 137 138 88
f 238 191 190
f 190 189 238
f 137 189 190
f 190 138 137
f 204 234 251
f 234 280 251
f 185 152 186
f 183 124 186
f 124 185 186
f 345 311 344
f 344 279 345
f 206 156 204
f 204 207 206
f 206 207 156
f 230 279 233
f 233 231 230
f 230 231 178
f 98 97 126
f 126 99 98
f 98 54 97
f 98 99 54
f 100 99 126
f 54 99 55
f 55 56 23
f 23 54 55
f 55 100 56
f 99 100 55
f 59 27 58
f 27 57 58
f 23 57 24
f 24 57 25
f 7 23 24
f 24 25 7
f 155 103 152
f 155 152 204
f 155 156 105
f 156 207 208
f 208 187 156
f 235 187 208
f 208 236 235
f 369 448 449
f 449 450 369
f 364 448 365
f 448 366 365
f 295 364 365
f 365 366 295
f 368 296 295
f 369 296 368
f 368 448 369
f 318 319 260
f 260 319 261
f 275 228 274
f 547 550 512
f 546 550 547
f 512 549 547
f 547 549 548
f 547 472 546
f 547 548 472
f 551 550 546
f 551 615 552
f 546 615 551
f 552 480 551
f 480 550 551
f 516 585 517
f 426 342 425
f 400 342 426
f 713 712 716
f 558 557 555
f 484 557 558
f 565 564 566
f 564 634 566
f 566 634 633
f 568 569 495
f 494 564 565
f 494 493 564
f 406 493 494
f 494 495 406
f 565 566 494
f 566 495 494
f 631 564 571
f 571 632 631
f 631 632 564
f 527 526 567
f 526 568 567
f 567 633 632
f 567 566 633
f 567 593 527
f 567 632 593
f 568 495 567
f 567 495 566
f 264 327 328
f 328 327 412
f 578 505 504
f 729 710 702
f 596 657 658
f 658 659 596
f 596 594 528
f 562 489 561
f 562 491 489
f 492 410 404
f 404 491 492
f 491 562 492
f 404 489 490
f 490 491 404
f 489 491 490
f 486 485 478
f 404 485 486
f 486 477 484
f 478 477 486
f 167 112 166
f 171 112 170
f 112 169 170
f 166 171 170
f 170 169 166
f 66 65 114
f 164 163 114
f 114 115 66
f 113 112 164
f 164 114 113
f 113 114 65
f 160 112 161
f 161 109 160
f 112 109 161
f 159 213 160
f 160 109 159
f 159 109 108
f 159 108 158
f 159 210 211
f 158 210 159
f 211 212 159
f 212 213 159
f 111 109 112
f 116 176 117
f 116 68 67
f 175 176 116
f 117 69 116
f 69 68 116
f 67 115 116
f 32 65 66
f 66 33 32
f 14 13 32
f 393 472 473
f 472 549 473
f 615 545 614
f 614 671 615
f 673 617 616
f 277 341 342
f 277 342 343
f 511 423 422
f 417 418 334
f 334 333 417
f 417 333 416
f 415 417 416
f 166 223 224
f 224 225 166
f 224 273 268
f 223 267 224
f 267 273 224
f 226 225 224
f 451 539 452
f 539 453 452
f 452 371 451
f 455 539 456
f 539 457 456
f 456 457 375
f 377 457 458
f 458 457 542
f 461 460 542
f 542 462 461
f 461 380 460
f 381 380 461
f 461 462 381
f 381 462 463
f 463 462 543
f 467 386 385
f 392 427 347
f 390 427 392
f 428 434 358
f 351 427 428
f 428 427 390
f 446 445 531
f 531 532 446
f 531 445 444
f 444 471 531
f 531 471 523
f 699 648 698
f 698 651 699
f 647 648 584
f 540 457 539
f 540 541 457
f 50 49 94
f 94 95 50
f 49 93 94
f 146 95 94
f 148 199 200
f 149 148 200
f 200 202 149
f 201 202 248
f 248 249 201
f 307 249 248
f 291 307 248
f 523 471 470
f 470 469 523
f 388 387 436
f 436 469 388
f 436 387 360
f 436 360 359
f 523 469 436
f 308 309 250
f 250 307 308
f 250 249 307
f 247 201 250
f 201 249 250
f 250 293 247
f 250 309 293
f 294 309 362
f 444 363 362
f 362 363 294
f 389 471 444
f 444 362 389
f 389 362 309
f 389 470 471
f 389 309 388
f 388 469 389
f 469 470 389
f 15 37 38
f 15 36 37
f 15 38 16
f 15 16 5
f 5 14 15
f 35 36 15
f 34 35 15
f 15 33 34
f 14 32 15
f 15 32 33
f 358 290 357
f 357 428 358
f 351 428 357
f 240 241 193
f 193 239 240
f 240 239 241
f 285 287 241
f 241 239 285
f 85 133 86
f 86 46 85
f 86 136 137
f 131 130 156
f 156 187 131
f 82 81 131
f 131 80 130
f 81 80 131
f 236 281 282
f 238 237 282
f 282 237 236
f 283 238 282
f 312 311 390
f 390 392 312
f 193 142 192
f 192 142 191
f 192 239 193
f 191 239 192
f 195 194 193
f 193 243 195
f 195 243 196
f 196 146 195
f 146 194 195
f 89 88 138
f 48 46 89
f 46 88 89
f 140 191 141
f 140 190 191
f 141 92 140
f 140 92 91
f 204 251 252
f 254 208 252
f 252 207 204
f 252 208 207
f 310 311 254
f 254 252 310
f 310 252 251
f 344 311 310
f 310 280 344
f 310 251 280
f 153 126 183
f 101 152 102
f 101 154 152
f 101 153 154
f 101 100 126
f 126 153 101
f 102 58 101
f 101 58 57
f 101 57 56
f 56 100 101
f 183 186 203
f 203 153 183
f 154 153 203
f 152 154 203
f 203 186 152
f 390 311 391
f 311 345 391
f 104 155 105
f 103 155 104
f 59 103 104
f 104 105 59
f 204 156 205
f 205 155 204
f 156 155 205
f 253 281 236
f 236 208 253
f 253 208 254
f 253 312 281
f 254 311 253
f 311 312 253
f 295 366 367
f 367 368 295
f 367 366 448
f 448 368 367
f 374 375 302
f 302 373 374
f 454 539 455
f 454 453 539
f 372 302 371
f 372 373 302
f 278 342 318
f 318 260 278
f 343 342 278
f 278 277 343
f 217 162 216
f 272 336 337
f 337 338 272
f 275 274 272
f 272 338 275
f 335 336 272
f 272 228 227
f 272 274 228
f 227 226 272
f 272 271 335
f 272 224 271
f 226 224 272
f 513 423 512
f 512 585 513
f 622 623 555
f 624 623 681
f 555 623 624
f 624 558 555
f 552 617 618
f 619 553 618
f 676 712 713
f 676 711 712
f 710 711 676
f 555 554 620
f 407 497 408
f 408 411 409
f 408 325 407
f 409 325 408
f 507 583 584
f 412 506 507
f 506 583 507
f 572 505 580
f 702 657 656
f 657 596 656
f 661 596 660
f 660 596 659
f 654 596 661
f 594 596 654
f 527 593 573
f 593 570 573
f 572 580 573
f 573 580 638
f 573 570 500
f 500 572 573
f 639 574 630
f 574 562 630
f 561 627 628
f 628 627 685
f 628 630 562
f 639 630 628
f 628 686 639
f 685 686 628
f 503 562 574
f 503 492 562
f 503 574 504
f 503 504 410
f 410 492 503
f 489 488 559
f 559 558 489
f 484 558 559
f 559 486 484
f 168 169 112
f 112 167 168
f 166 169 168
f 168 167 166
f 174 116 115
f 174 114 163
f 115 114 174
f 174 163 175
f 175 116 174
f 31 32 13
f 30 62 31
f 31 11 30
f 31 13 11
f 64 113 65
f 65 32 64
f 112 113 64
f 64 111 112
f 64 62 110
f 110 109 64
f 109 111 64
f 393 473 474
f 474 475 393
f 508 475 474
f 616 671 672
f 672 673 616
f 421 510 511
f 511 422 421
f 420 510 421
f 275 338 276
f 341 277 276
f 332 331 415
f 415 416 332
f 332 416 333
f 331 339 414
f 414 413 415
f 415 331 414
f 413 414 330
f 330 414 339
f 329 395 330
f 330 395 413
f 271 224 270
f 542 460 459
f 459 458 542
f 459 460 377
f 377 458 459
f 381 463 382
f 382 305 381
f 382 383 306
f 306 305 382
f 464 384 383
f 383 382 464
f 464 382 463
f 464 463 543
f 441 386 468
f 386 467 468
f 581 506 569
f 569 637 581
f 358 434 435
f 435 434 521
f 352 358 429
f 358 435 429
f 429 435 518
f 587 524 520
f 520 437 433
f 522 521 588
f 522 435 521
f 518 435 522
f 525 587 592
f 592 531 525
f 525 524 587
f 525 531 523
f 650 651 588
f 650 699 651
f 648 647 696
f 649 587 591
f 591 522 590
f 533 532 599
f 599 600 533
f 599 531 592
f 532 531 599
f 592 587 599
f 587 649 599
f 450 449 535
f 698 648 697
f 648 696 697
f 145 94 93
f 146 94 145
f 93 144 145
f 145 194 146
f 145 144 194
f 246 200 199
f 202 200 246
f 289 291 246
f 291 248 246
f 246 248 202
f 246 199 244
f 246 244 289
f 350 286 287
f 350 287 351
f 351 357 350
f 290 286 350
f 350 357 290
f 287 285 349
f 347 351 349
f 351 287 349
f 284 283 347
f 284 238 283
f 284 239 238
f 284 285 239
f 189 136 135
f 136 86 135
f 137 88 87
f 87 86 137
f 87 88 46
f 46 86 87
f 82 131 132
f 132 83 82
f 132 133 83
f 188 133 132
f 132 187 188
f 132 131 187
f 346 282 281
f 281 312 346
f 346 312 392
f 346 392 347
f 347 283 346
f 283 282 346
f 90 91 48
f 48 89 90
f 90 138 91
f 90 89 138
f 138 190 139
f 190 140 139
f 91 138 139
f 139 140 91
f 215 162 173
f 173 216 215
f 215 216 162
f 229 278 260
f 260 216 229
f 277 278 229
f 229 276 277
f 229 216 173
f 173 228 229
f 229 228 275
f 275 276 229
f 218 260 261
f 218 216 260
f 218 261 219
f 217 216 218
f 219 162 218
f 218 162 217
f 425 342 424
f 342 341 424
f 713 716 680
f 716 717 680
f 718 716 712
f 718 717 716
f 561 489 560
f 489 558 560
f 560 627 561
f 674 618 617
f 617 673 674
f 619 618 674
f 498 408 497
f 569 506 499
f 499 495 569
f 499 506 411
f 411 408 499
f 499 498 495
f 408 498 499
f 639 686 687
f 687 688 639
f 727 736 733
f 710 729 733
f 720 710 733
f 733 734 720
f 642 576 641
f 639 688 641
f 640 574 639
f 577 578 504
f 504 576 577
f 644 578 577
f 730 690 729
f 702 731 730
f 730 729 702
f 655 656 596
f 595 596 528
f 595 655 596
f 629 562 561
f 561 628 629
f 629 628 562
f 404 486 487
f 486 559 487
f 487 488 404
f 487 559 488
f 32 31 63
f 63 64 32
f 63 31 62
f 62 64 63
f 515 473 549
f 515 474 473
f 508 474 515
f 515 510 508
f 511 510 515
f 515 549 512
f 512 423 515
f 515 423 511
f 341 276 340
f 340 276 338
f 269 224 268
f 269 270 224
f 385 384 465
f 384 464 465
f 443 442 441
f 441 468 443
f 443 526 439
f 439 361 443
f 443 361 442
f 582 583 506
f 506 581 582
f 582 581 647
f 584 583 582
f 582 647 584
f 646 581 637
f 647 581 646
f 430 433 356
f 356 354 430
f 587 520 586
f 518 522 586
f 591 587 586
f 586 522 591
f 438 520 524
f 438 525 523
f 524 525 438
f 437 520 438
f 523 436 438
f 359 437 438
f 438 436 359
f 534 535 449
f 534 448 533
f 534 449 448
f 533 600 534
f 537 604 605
f 451 450 537
f 537 538 451
f 537 605 538
f 450 535 536
f 536 537 450
f 606 604 538
f 538 604 607
f 539 538 607
f 607 540 539
f 604 667 607
f 541 540 607
f 542 541 607
f 607 609 542
f 670 609 607
f 607 667 668
f 700 697 703
f 700 664 651
f 703 664 700
f 700 651 698
f 698 697 700
f 707 705 732
f 732 696 707
f 732 697 696
f 703 697 732
f 651 664 652
f 602 536 535
f 537 536 602
f 610 543 542
f 542 609 610
f 670 607 669
f 669 607 668
f 706 667 666
f 668 667 706
f 706 705 707
f 707 668 706
f 635 568 598
f 695 696 647
f 695 662 670
f 670 662 611
f 611 609 670
f 662 598 611
f 611 610 609
f 348 349 285
f 285 284 348
f 347 349 348
f 348 284 347
f 134 86 133
f 134 135 86
f 134 133 189
f 189 135 134
f 423 513 514
f 713 680 679
f 683 718 712
f 712 719 683
f 683 719 720
f 720 721 683
f 682 624 681
f 722 721 720
f 720 734 722
f 558 624 625
f 625 560 558
f 624 560 625
f 675 676 619
f 619 674 675
f 710 676 675
f 709 674 673
f 710 675 709
f 709 675 674
f 619 676 677
f 621 622 555
f 555 620 621
f 496 498 497
f 495 498 496
f 496 497 406
f 406 495 496
f 727 733 728
f 729 690 728
f 728 733 729
f 735 733 736
f 734 733 735
f 736 724 735
f 639 641 575
f 575 641 576
f 575 640 639
f 575 576 504
f 504 574 575
f 574 640 575
f 644 577 643
f 643 577 576
f 643 576 642
f 638 580 579
f 579 645 638
f 505 578 579
f 579 580 505
f 579 578 644
f 644 645 579
f 466 467 385
f 385 465 466
f 530 568 526
f 526 443 530
f 530 598 568
f 647 646 663
f 662 695 663
f 663 598 662
f 352 429 353
f 353 288 352
f 354 288 353
f 353 430 354
f 519 520 433
f 433 430 519
f 518 586 519
f 519 586 520
f 605 604 608
f 604 606 608
f 538 605 608
f 608 606 538
f 703 732 704
f 704 732 705
f 704 664 703
f 705 664 704
f 653 652 600
f 600 599 653
f 653 599 649
f 653 649 591
f 591 590 653
f 651 652 589
f 588 651 589
f 589 653 590
f 652 653 589
f 589 522 588
f 589 590 522
f 664 602 601
f 600 652 601
f 601 652 664
f 601 602 535
f 601 534 600
f 535 534 601
f 604 537 603
f 537 602 603
f 603 667 604
f 666 667 603
f 603 602 666
f 705 706 665
f 665 664 705
f 665 602 664
f 666 602 665
f 665 706 666
f 708 695 670
f 670 669 708
f 707 696 708
f 696 695 708
f 708 668 707
f 708 669 668
f 543 610 613
f 613 611 543
f 610 611 613
f 543 611 612
f 714 676 713
f 713 679 714
f 714 679 676
f 684 683 721
f 721 722 684
f 627 560 626
f 626 560 624
f 624 682 626
f 725 724 736
f 723 722 734
f 723 684 722
f 678 677 715
f 715 677 676
f 715 679 678
f 676 679 715
f 689 726 727
f 727 728 689
f 689 728 690
f 690 730 691
f 701 693 692
f 701 692 731
f 701 731 702
f 702 656 701
f 655 693 701
f 656 655 701
f 467 466 544
f 544 468 467
f 543 612 544
f 544 466 465
f 544 598 597
f 544 464 543
f 544 465 464
f 544 611 598
f 544 612 611
f 597 598 529
f 598 530 529
f 529 530 443
f 529 443 468
f 529 544 597
f 468 544 529
f 694 695 647
f 647 663 694
f 694 663 695
f 636 646 637
f 636 663 646
f 598 663 636
f 636 637 569
f 636 569 635
f 635 598 636
f 431 519 430
f 431 353 429
f 430 353 431
f 431 429 518
f 518 519 431
f 221 265 329
f 329 266 221
f 6 17 20
f 6 20 18
f 213 265 221
f 256 265 213
f 395 329 265
f 395 265 314
f 107 61 157
f 157 61 106
f 158 107 157
f 157 209 158
f 401 319 400
f 320 319 401
f 401 480 481
f 401 481 402
f 479 480 401
f 401 400 479
f 264 220 263
f 263 322 264
f 317 399 263
f 263 399 322
f 1 4 12
f 12 5 1
f 4 3 12
f 3 11 12
f 198 197 244
f 244 199 198
f 102 103 58
f 58 103 59
f 336 418 419
f 335 418 336
f 336 419 420
f 420 337 336
f 425 516 426
f 426 516 517
f 479 400 426
f 426 517 479
f 334 418 335
f 335 271 334
f 268 273 339
f 339 331 268
f 374 456 375
f 455 456 374
f 455 374 454
f 454 374 373
f 372 452 453
f 371 452 372
f 372 454 373
f 453 454 372
f 553 619 554
f 553 554 482
f 402 481 553
f 553 482 402
f 618 553 481
f 618 481 552
f 421 337 420
f 421 338 337
f 330 339 273
f 330 273 267
f 266 329 330
f 330 267 266
f 270 334 271
f 333 334 270
f 264 328 650
f 650 118 117
f 650 507 584
f 119 118 650
f 650 220 264
f 650 230 178
f 650 178 119
f 390 391 650
f 117 177 650
f 650 428 390
f 650 177 220
f 588 521 650
f 521 434 650
f 584 648 650
f 650 345 279
f 279 230 650
f 650 328 412
f 434 428 650
f 648 699 650
f 650 391 345
f 412 507 650
f 680 717 681
f 681 623 680
f 527 573 595
f 528 527 595
f 595 573 638
f 638 655 595
f 340 422 423
f 423 341 340
f 338 421 340
f 340 421 422
f 268 331 269
f 331 332 269
f 333 270 269
f 269 332 333
f 514 341 423
f 514 424 341
f 514 513 585
f 585 516 514
f 514 516 425
f 425 424 514
f 679 680 623
f 623 622 679
f 681 717 682
f 717 718 682
f 709 157 106
f 393 313 709
f 149 201 709
f 709 7 19
f 10 3 709
f 709 150 149
f 19 42 709
f 255 212 709
f 247 292 709
f 42 76 709
f 709 2 9
f 151 150 709
f 9 8 709
f 709 313 255
f 709 127 151
f 709 201 247
f 709 472 393
f 702 710 709
f 3 2 709
f 709 8 7
f 709 440 528
f 709 212 211
f 709 29 10
f 709 292 361
f 361 440 709
f 709 76 127
f 211 210 709
f 709 657 702
f 106 60 709
f 709 614 545
f 709 545 472
f 709 60 29
f 209 157 709
f 709 210 209
f 528 594 709
f 658 657 709
f 709 659 658
f 661 660 709
f 709 672 671
f 671 614 709
f 709 654 661
f 709 660 659
f 594 654 709
f 673 672 709
f 554 619 677
f 677 620 554
f 621 679 622
f 678 679 621
f 620 677 621
f 621 677 678
f 693 645 644
f 644 692 693
f 693 655 638
f 638 645 693
f 683 684 626
f 626 684 627
f 626 682 718
f 718 683 626
f 686 724 725
f 725 687 686
f 727 726 725
f 725 736 727
f 688 687 725
f 725 726 688
f 723 724 686
f 723 686 685
f 734 735 723
f 723 735 724
f 627 684 723
f 685 627 723
f 688 726 689
f 689 641 688
f 689 690 642
f 642 641 689
f 691 730 731
f 731 692 691
f 691 692 644
f 644 643 691
f 642 690 691
f 691 643 642

