# https://github.com/mikedh/trimesh
v -0.00319601 0.00455267 -0.00325026
v -0.00051168 -0.00105986 -0.00299694
v -0.00077997 -0.00105986 -0.00298011
v -0.00373260 -0.00025461 -0.00279144
v -0.00332661 0.00455267 -0.00323520
v -0.00024197 0.00455267 -0.00325026
v 0.00056290 -0.00105986 -0.00299694
v 0.00002632 -0.00132871 -0.00297302
v -0.00024197 -0.00132871 -0.00296593
v -0.00048897 -0.00132871 -0.00294379
v -0.00077997 -0.00123910 -0.00293316
v -0.00373260 -0.00048356 -0.00270995
v -0.00391430 -0.00043450 -0.00268161
v -0.00396682 -0.00025461 -0.00270995
v -0.00346147 0.00455267 -0.00321926
v -0.00104826 -0.00159691 -0.00277196
v 0.00002632 0.00455267 -0.00324849
v 0.00029461 -0.00132871 -0.00296416
v 0.00942078 0.00108768 -0.00279764
v 0.00915248 0.00081949 -0.00279410
v 0.00002632 -0.00149879 -0.00292696
v -0.00024197 -0.00148767 -0.00291988
v -0.00051168 -0.00186511 -0.00276044
v -0.00104826 -0.00178858 -0.00269224
v -0.00067919 -0.00201491 -0.00265858
v -0.00393843 -0.00045740 -0.00250180
v -0.00406619 -0.00025461 -0.00250180
v -0.00373260 -0.00058038 -0.00250180
v -0.00413716 0.00012413 -0.00263732
v -0.00402502 0.00002601 -0.00270110
v -0.00352535 0.00455267 -0.00317763
v -0.00077287 -0.00187296 -0.00270995
v 0.00969049 0.00455267 -0.00290925
v 0.00969049 0.00135588 -0.00279764
v 0.00029461 -0.00148505 -0.00291722
v 0.00942078 0.00081949 -0.00277550
v 0.00054161 -0.00132741 -0.00294379
v 0.00043798 -0.00147197 -0.00290925
v 0.00969049 0.00108768 -0.00278436
v 0.00029461 -0.00186511 -0.00278170
v 0.00002632 -0.00186511 -0.00279056
v -0.00024197 -0.00186511 -0.00278258
v -0.00051168 -0.00203453 -0.00268338
v -0.00024197 -0.00205612 -0.00270287
v -0.00024197 -0.00211303 -0.00250180
v -0.00051168 -0.00206855 -0.00250180
v -0.00069622 -0.00202276 -0.00250180
v -0.00373260 -0.00058234 -0.00223253
v -0.00393843 -0.00045740 -0.00169577
v -0.00406761 -0.00025461 -0.00223253
v -0.00413006 -0.00002239 -0.00250180
v -0.00413148 -0.00002239 -0.00223253
v -0.00413716 0.00011171 -0.00250180
v -0.00414000 0.00012413 0.00367275
v -0.00413716 0.00017058 -0.00263732
v -0.00364458 0.00455267 -0.00303768
v 0.00996020 0.00455267 -0.00288179
v 0.00995878 0.00189293 -0.00279410
v 0.00995878 0.00162408 -0.00278170
v 0.00056290 -0.00186511 -0.00275867
v 0.00969191 0.00081360 -0.00270730
v 0.00960390 0.00066511 -0.00266478
v 0.00942078 0.00063502 -0.00269490
v 0.00834761 0.00034131 -0.00270995
v 0.00754274 0.00008423 -0.00270464
v 0.00405211 -0.00079166 -0.00277550
v 0.00754274 0.00028244 -0.00278524
v 0.00217407 -0.00132871 -0.00278524
v 0.00136778 -0.00159691 -0.00277550
v 0.00997581 0.00134476 -0.00272324
v 0.00990200 0.00108768 -0.00270287
v 0.00985373 0.00089929 -0.00267187
v 0.00029461 -0.00205220 -0.00270021
v 0.00002632 -0.00206462 -0.00270818
v 0.00002632 -0.00212938 -0.00250180
v -0.00024197 -0.00211303 -0.00169577
v -0.00051168 -0.00206855 -0.00169577
v -0.00069622 -0.00202276 -0.00169577
v -0.00083108 -0.00195931 -0.00223253
v -0.00373260 -0.00058234 -0.00169577
v -0.00389442 -0.00041161 0.00501555
v -0.00401082 -0.00025461 0.00501555
v -0.00406761 -0.00025461 -0.00169577
v -0.00413148 -0.00002239 -0.00169577
v -0.00414000 0.00012413 0.00501555
v -0.00414000 0.00020525 0.00367275
v -0.00413716 0.00018104 -0.00250180
v -0.00413006 0.00031580 -0.00223253
v -0.00412865 0.00031580 -0.00250180
v -0.00410593 0.00055129 -0.00250180
v -0.00399805 0.00162408 -0.00250180
v -0.00386745 0.00283817 -0.00263644
v -0.00368149 0.00455267 -0.00277196
v 0.01023133 0.00455267 -0.00274893
v 0.01018732 0.00216113 -0.00271615
v 0.01017029 0.00189293 -0.00271261
v 0.01014758 0.00162408 -0.00270110
v 0.00109949 -0.00181867 -0.00271350
v 0.00976146 0.00073772 -0.00250180
v 0.00962803 0.00065464 -0.00250180
v 0.00942078 0.00058465 -0.00250180
v 0.00878767 0.00040541 -0.00265327
v 0.00861590 0.00037990 -0.00268250
v 0.00673644 -0.00017088 -0.00269490
v 0.00485698 -0.00072102 -0.00270464
v 0.00136778 -0.00178138 -0.00269490
v 0.00217407 -0.00152627 -0.00270375
v 0.01012060 0.00142653 -0.00267364
v 0.01007092 0.00126038 -0.00250180
v 0.00998149 0.00108768 -0.00250180
v 0.00986935 0.00087182 -0.00250180
v 0.00056290 -0.00202930 -0.00267718
v 0.00029461 -0.00210453 -0.00250180
v 0.00002632 -0.00212938 -0.00169577
v -0.00024197 -0.00159299 0.00528393
v -0.00067919 -0.00201491 -0.00151419
v -0.00083108 -0.00195931 -0.00169577
v -0.00373260 -0.00047244 0.00528393
v -0.00373260 -0.00049010 0.00501555
v -0.00388874 -0.00040638 0.00528393
v -0.00411729 -0.00001062 0.00501555
v -0.00398811 -0.00025461 0.00528393
v -0.00413858 0.00013198 0.00519181
v -0.00414000 0.00020525 0.00501555
v -0.00413006 0.00033935 0.00367275
v -0.00411161 0.00055129 -0.00223253
v -0.00399805 0.00162408 0.00501555
v -0.00376950 0.00377228 -0.00223253
v -0.00368575 0.00455267 -0.00250180
v 0.01024836 0.00455267 -0.00272324
v 0.01019584 0.00242998 -0.00271615
v 0.01030656 0.00242998 -0.00250180
v 0.01028811 0.00216113 -0.00250180
v 0.01025120 0.00189293 -0.00250180
v 0.01020436 0.00162408 -0.00250180
v 0.00976146 0.00073772 0.00501555
v 0.00962803 0.00065464 0.00501555
v 0.00942078 0.00058465 0.00501555
v 0.00915248 0.00050354 -0.00223253
v 0.00861590 0.00034262 -0.00250180
v 0.00795298 0.00014572 -0.00263998
v 0.00425368 -0.00094604 -0.00266478
v 0.00693802 -0.00014014 -0.00266478
v 0.00073467 -0.00201098 -0.00265327
v 0.00324582 -0.00123125 -0.00268250
v 0.00156935 -0.00175129 -0.00266389
v 0.01013622 0.00139448 -0.00250180
v 0.01007376 0.00126038 -0.00223253
v 0.00986935 0.00087182 0.00501555
v 0.00056290 -0.00205939 -0.00250180
v 0.00029461 -0.00210453 -0.00169577
v 0.00029461 -0.00158383 0.00528393
v 0.00002632 -0.00160607 0.00528393
v -0.00024197 -0.00153804 0.00555231
v -0.00048897 -0.00148440 0.00552574
v -0.00064654 -0.00146281 0.00541945
v -0.00051168 -0.00152234 0.00528393
v -0.00387739 -0.00039722 0.00542654
v -0.00410309 0.00003125 0.00528216
v -0.00413858 0.00018628 0.00519181
v -0.00411587 0.00027851 0.00528216
v -0.00413006 0.00033935 0.00501555
v -0.00411161 0.00055129 0.00501555
v -0.00386745 0.00283817 0.00515993
v -0.00376950 0.00377228 0.00501555
v -0.00368575 0.00455267 0.00501555
v 0.01036051 0.00455267 -0.00250180
v 0.01031366 0.00242998 -0.00223253
v 0.01029663 0.00216113 -0.00223253
v 0.01025972 0.00189293 -0.00223253
v 0.01026540 0.00189293 -0.00196415
v 0.01020862 0.00162408 -0.00223253
v 0.00975011 0.00074819 0.00528393
v 0.00961525 0.00066053 0.00528393
v 0.00986225 0.00088294 0.00528393
v 0.00942078 0.00059970 0.00528393
v 0.00879192 0.00040476 0.00528393
v 0.00795298 0.00014572 0.00518650
v 0.00915248 0.00050354 0.00501555
v 0.00190578 -0.00167083 -0.00223253
v 0.00697209 -0.00015061 -0.00250180
v 0.00527149 -0.00066084 -0.00250180
v 0.00258715 -0.00146608 -0.00250180
v 0.00258432 -0.00146478 -0.00263909
v 0.00075312 -0.00201622 -0.00250180
v 0.01013622 0.00139448 -0.00169577
v 0.01021145 0.00162408 -0.00196415
v 0.01021287 0.00162408 -0.00169577
v 0.01007376 0.00126038 0.00501555
v 0.00056290 -0.00205939 -0.00169577
v 0.00049619 -0.00149094 0.00555231
v 0.00029461 -0.00153019 0.00555231
v 0.00073467 -0.00201098 -0.00152571
v 0.00695647 -0.00014472 0.00528393
v 0.00691672 -0.00013294 0.00543097
v 0.00002632 -0.00155112 0.00555231
v -0.00024197 -0.00147917 0.00570555
v -0.00038534 -0.00146608 0.00569049
v -0.00077997 -0.00123975 0.00572238
v -0.00077997 -0.00105986 0.00577818
v -0.00373260 -0.00025461 0.00548411
v -0.00391713 -0.00025461 0.00544425
v -0.00396966 0.00001424 0.00545754
v -0.00387171 0.00260595 0.00542299
v -0.00390152 0.00242998 0.00528393
v -0.00387597 0.00269622 0.00526356
v -0.00397959 0.00028244 0.00545754
v -0.00390294 0.00189293 0.00545134
v -0.00389158 0.00216113 0.00544337
v -0.00388023 0.00242998 0.00543185
v -0.00367298 0.00455267 0.00528393
v -0.00367440 0.00455267 0.00525913
v 0.01036192 0.00455267 -0.00223253
v 0.01033211 0.00323523 -0.00223253
v 0.01031366 0.00242998 0.00501555
v 0.01029947 0.00216113 -0.00196415
v 0.01026682 0.00189293 -0.00169577
v 0.00958828 0.00067230 0.00543097
v 0.00984522 0.00091368 0.00543628
v 0.00876779 0.00041196 0.00542388
v 0.01012912 0.00140625 0.00528393
v 0.00809068 0.00018497 0.00501555
v 0.00697209 -0.00015061 0.00501555
v 0.00190578 -0.00167083 -0.00169577
v 0.00088656 -0.00197631 -0.00223253
v 0.00075312 -0.00201622 -0.00169577
v 0.01013622 0.00139513 0.00313599
v 0.01021003 0.00162408 0.00313599
v 0.01026540 0.00189293 0.00313599
v 0.01013480 0.00139513 0.00501555
v 0.00044082 -0.00146870 0.00569403
v 0.00775283 0.00012740 0.00543717
v 0.00002632 -0.00148571 0.00571352
v 0.00029461 -0.00147655 0.00570378
v -0.00024197 -0.00132871 0.00576135
v -0.00048897 -0.00133133 0.00573301
v -0.00051168 -0.00105986 0.00579678
v -0.00104826 -0.00052281 0.00579678
v -0.00104826 -0.00079166 0.00577286
v -0.00373260 0.00001424 0.00549740
v -0.00362897 0.00455267 0.00544779
v -0.00363465 0.00455267 0.00543185
v -0.00373260 0.00135588 0.00549740
v -0.00373260 0.00162408 0.00549563
v -0.00392139 0.00135588 0.00545754
v -0.00391288 0.00162408 0.00545577
v -0.00363891 0.00430933 0.00545400
v 0.01036192 0.00455267 0.00501555
v 0.01033211 0.00323523 0.00394114
v 0.01027959 0.00242998 0.00528393
v 0.01025972 0.00216113 0.00528393
v 0.01029237 0.00216113 0.00501555
v 0.01029805 0.00216113 0.00420952
v 0.01029947 0.00216113 0.00394114
v 0.01036051 0.00455267 0.00506869
v 0.01034347 0.00455267 0.00527065
v 0.00968197 0.00082210 0.00545311
v 0.00942078 0.00081949 0.00548677
v 0.00942078 0.00065006 0.00544779
v 0.00861590 0.00039233 0.00543982
v 0.00988212 0.00108768 0.00545134
v 0.00969049 0.00108768 0.00549120
v 0.01011209 0.00144223 0.00543717
v 0.01020152 0.00162408 0.00501555
v 0.01018590 0.00162408 0.00528393
v 0.00088656 -0.00197631 -0.00169577
v 0.01024978 0.00189293 0.00501555
v 0.00054303 -0.00132871 0.00573478
v 0.00029461 -0.00132871 0.00575958
v 0.00002632 -0.00132871 0.00576932
v 0.00056290 -0.00105986 0.00579678
v -0.00104826 0.00055129 0.00579678
v -0.00131656 0.00001424 0.00577818
v -0.00347992 0.00455267 0.00548322
v -0.00373260 0.00189293 0.00549120
v -0.00346431 0.00404048 0.00549651
v -0.00346431 0.00430933 0.00549297
v -0.00346431 0.00455267 0.00548677
v 0.01016887 0.00242998 0.00545754
v 0.01016035 0.00216113 0.00545754
v 0.01014616 0.00189293 0.00545754
v 0.01013196 0.00162408 0.00545222
v 0.01033070 0.00430933 0.00528393
v 0.01022423 0.00189293 0.00528393
v 0.01020578 0.00455267 0.00545754
v 0.00996588 0.00135392 0.00546108
v 0.00995878 0.00162408 0.00549120
v 0.00969049 0.00135588 0.00549740
v 0.00109949 -0.00052281 0.00579589
v 0.00109949 -0.00025461 0.00579678
v -0.00051168 0.00108768 0.00579678
v -0.00322015 0.00455267 0.00549651
v 0.00995878 0.00189293 0.00549651
v 0.00995878 0.00455267 0.00549828
v 0.00995878 0.00216113 0.00549740
v 0.00834761 0.00455267 0.00559483
v 0.00109949 0.00055129 0.00579678
v -0.00319601 0.00455267 0.00549740
v 0.00029461 0.00108768 0.00579678
v 0.00023499 0.00455267 0.00559660
v 0.00861306 0.00455267 0.00558331
v 0.00969049 0.00455267 0.00551777
v 0.00807932 0.00455267 0.00559572
v 0.00056290 0.00108768 0.00579589
v 0.00083120 0.00081949 0.00579678
v 0.00027474 0.00455267 0.00559660
f 14 4 13
f 13 4 12
f 27 14 13
f 26 27 13
f 50 27 26
f 56 55 93
f 56 31 55
f 4 14 15
f 153 196 115
f 115 196 154
f 115 114 153
f 165 164 166
f 164 165 127
f 153 114 152
f 114 151 152
f 232 259 231
f 231 195 232
f 43 45 25
f 13 12 25
f 12 24 25
f 3 11 4
f 1 2 3
f 3 4 1
f 7 6 17
f 7 8 2
f 14 27 29
f 31 15 29
f 55 31 29
f 28 25 47
f 28 26 13
f 13 25 28
f 1 4 5
f 4 15 5
f 199 158 198
f 78 116 118
f 156 158 118
f 114 115 76
f 157 115 156
f 116 115 157
f 156 118 157
f 157 118 116
f 166 164 212
f 164 211 212
f 241 208 247
f 159 158 202
f 92 129 93
f 91 129 92
f 93 55 92
f 55 91 92
f 128 129 91
f 90 91 55
f 164 127 163
f 194 152 193
f 195 152 194
f 144 112 106
f 226 194 193
f 113 112 144
f 34 17 33
f 214 167 213
f 214 168 167
f 167 168 132
f 132 130 167
f 299 303 306
f 298 291 300
f 193 152 190
f 190 152 151
f 190 226 193
f 191 195 231
f 191 152 195
f 192 196 153
f 153 152 192
f 231 196 192
f 192 191 231
f 152 191 192
f 218 259 260
f 259 232 260
f 16 24 12
f 16 12 4
f 4 11 16
f 46 25 45
f 47 25 46
f 2 8 9
f 9 3 2
f 30 15 14
f 14 29 30
f 30 29 15
f 52 29 51
f 51 29 27
f 54 29 53
f 53 52 54
f 53 29 52
f 26 28 48
f 48 28 47
f 47 79 48
f 234 196 231
f 234 233 196
f 200 158 199
f 155 158 156
f 155 198 158
f 154 198 155
f 156 115 155
f 155 115 154
f 197 198 154
f 154 196 197
f 196 233 197
f 78 118 119
f 77 116 78
f 77 115 116
f 77 76 115
f 274 247 278
f 241 247 274
f 276 244 273
f 84 121 85
f 242 204 241
f 211 204 242
f 209 208 241
f 206 211 164
f 206 204 211
f 164 163 206
f 55 88 89
f 89 90 55
f 55 86 87
f 87 88 55
f 87 86 88
f 88 86 125
f 91 90 126
f 88 125 126
f 126 89 88
f 90 89 126
f 208 209 161
f 75 74 73
f 73 113 75
f 112 113 73
f 75 45 44
f 44 74 75
f 44 45 43
f 194 226 223
f 226 266 223
f 33 57 58
f 58 34 33
f 59 34 58
f 58 96 59
f 17 34 19
f 19 7 17
f 20 7 19
f 95 57 94
f 95 58 57
f 96 58 95
f 133 96 95
f 95 132 133
f 168 216 169
f 133 132 169
f 169 132 168
f 249 248 215
f 258 259 218
f 215 248 255
f 255 256 215
f 215 256 250
f 257 258 218
f 262 258 257
f 215 250 251
f 262 261 287
f 219 263 261
f 219 257 218
f 219 261 262
f 262 257 219
f 278 291 292
f 291 298 292
f 305 304 299
f 150 113 144
f 24 16 32
f 43 25 32
f 32 25 24
f 11 3 10
f 3 9 10
f 22 10 9
f 233 234 269
f 269 234 231
f 259 258 269
f 271 258 262
f 271 269 258
f 239 200 238
f 273 240 238
f 235 197 233
f 78 119 117
f 117 119 80
f 80 119 81
f 81 49 80
f 81 82 49
f 158 159 122
f 122 159 121
f 121 82 122
f 49 82 83
f 83 82 121
f 83 121 84
f 277 276 273
f 278 247 277
f 247 275 277
f 244 276 277
f 277 275 244
f 244 275 246
f 246 247 208
f 246 275 247
f 273 244 243
f 243 240 273
f 201 200 239
f 239 238 201
f 201 238 240
f 202 158 201
f 158 200 201
f 241 204 210
f 210 209 241
f 204 161 210
f 210 161 209
f 204 206 205
f 144 106 146
f 146 142 144
f 103 142 145
f 145 146 106
f 142 146 145
f 176 177 138
f 220 232 195
f 177 176 220
f 195 194 220
f 194 177 220
f 218 260 220
f 220 260 232
f 21 9 8
f 21 22 9
f 106 65 104
f 103 145 104
f 104 145 106
f 178 177 194
f 194 223 178
f 138 177 178
f 178 179 138
f 39 34 59
f 39 19 34
f 20 19 39
f 70 39 59
f 63 65 64
f 103 104 63
f 63 104 65
f 94 130 131
f 131 95 94
f 130 132 131
f 132 95 131
f 283 250 256
f 283 256 285
f 282 251 250
f 279 283 285
f 280 250 279
f 250 283 279
f 149 189 175
f 175 136 149
f 185 150 144
f 144 184 185
f 185 180 225
f 23 44 43
f 43 32 23
f 10 22 23
f 23 32 16
f 23 16 11
f 11 10 23
f 231 259 268
f 268 269 231
f 259 269 268
f 289 271 262
f 273 238 272
f 272 291 278
f 278 277 272
f 272 277 273
f 237 238 200
f 200 235 237
f 236 200 199
f 236 235 200
f 197 235 236
f 199 198 236
f 198 197 236
f 120 81 119
f 120 118 158
f 120 119 118
f 82 81 120
f 158 122 120
f 120 122 82
f 240 243 207
f 207 243 244
f 208 161 207
f 207 246 208
f 163 162 160
f 160 206 163
f 160 205 206
f 160 161 204
f 204 205 160
f 160 162 124
f 141 184 144
f 40 73 74
f 40 60 73
f 22 21 42
f 44 23 42
f 42 23 22
f 74 44 42
f 60 38 69
f 222 178 223
f 179 178 222
f 224 223 266
f 224 222 223
f 179 222 224
f 72 39 71
f 39 70 71
f 71 108 72
f 70 108 71
f 97 96 133
f 59 96 97
f 97 70 59
f 97 108 70
f 108 97 135
f 61 39 72
f 229 267 264
f 215 251 252
f 252 253 215
f 252 267 229
f 229 253 252
f 284 282 263
f 251 282 284
f 284 252 251
f 174 137 136
f 218 220 174
f 174 220 176
f 174 176 138
f 138 137 174
f 287 282 281
f 281 250 280
f 281 282 250
f 286 287 261
f 286 282 287
f 261 263 286
f 263 282 286
f 293 279 285
f 280 279 293
f 293 281 280
f 287 281 293
f 271 289 290
f 271 237 270
f 270 237 235
f 269 271 270
f 233 269 270
f 270 235 233
f 244 246 245
f 245 207 244
f 246 207 245
f 202 201 203
f 203 159 202
f 203 201 240
f 240 207 203
f 203 161 159
f 203 207 161
f 159 161 123
f 161 160 123
f 121 159 123
f 123 85 121
f 103 63 102
f 144 142 102
f 102 141 144
f 101 141 102
f 183 185 184
f 184 141 183
f 180 185 183
f 41 40 74
f 21 40 41
f 74 42 41
f 41 42 21
f 18 21 8
f 8 7 18
f 18 7 20
f 60 69 98
f 98 106 112
f 98 107 106
f 69 107 98
f 112 73 98
f 73 60 98
f 65 69 66
f 134 97 133
f 134 135 97
f 108 135 147
f 20 39 36
f 39 61 36
f 36 63 64
f 64 65 36
f 65 66 36
f 36 18 20
f 215 253 254
f 254 217 216
f 254 253 229
f 229 217 254
f 229 264 228
f 228 264 230
f 265 284 263
f 265 264 267
f 267 252 265
f 252 284 265
f 136 175 173
f 173 174 136
f 218 174 173
f 173 219 218
f 173 175 219
f 99 100 62
f 62 102 63
f 62 72 99
f 62 61 72
f 63 36 62
f 62 36 61
f 62 100 101
f 101 102 62
f 302 301 295
f 301 293 295
f 295 294 302
f 285 294 295
f 295 293 285
f 296 293 301
f 289 293 296
f 296 290 289
f 297 290 296
f 296 305 297
f 304 305 296
f 262 287 288
f 287 293 288
f 288 289 262
f 288 293 289
f 143 142 103
f 103 102 143
f 143 102 142
f 101 139 140
f 140 141 101
f 140 139 180
f 21 18 35
f 35 18 38
f 35 40 21
f 60 40 35
f 35 38 60
f 105 69 65
f 105 107 69
f 105 65 106
f 106 107 105
f 68 69 38
f 68 66 69
f 68 36 66
f 171 169 216
f 216 217 171
f 72 108 109
f 108 147 109
f 109 147 148
f 38 18 37
f 37 36 38
f 18 36 37
f 188 217 229
f 229 228 188
f 186 147 188
f 221 265 263
f 221 189 230
f 230 264 221
f 264 265 221
f 221 175 189
f 263 219 221
f 219 175 221
f 182 183 141
f 180 183 182
f 38 36 67
f 67 68 38
f 36 68 67
f 169 171 170
f 133 169 170
f 170 134 133
f 135 134 170
f 170 171 135
f 99 72 111
f 187 188 147
f 186 188 227
f 189 186 227
f 230 189 227
f 227 228 230
f 227 188 228
f 141 140 181
f 181 182 141
f 181 140 180
f 180 182 181
f 72 109 110
f 110 111 72
f 148 111 110
f 110 109 148
f 171 187 172
f 135 171 172
f 172 147 135
f 172 187 147
f 1 6 7
f 7 2 1
f 75 114 76
f 76 45 75
f 128 127 165
f 91 127 128
f 166 129 128
f 128 165 166
f 55 29 86
f 86 29 54
f 113 114 75
f 113 151 114
f 306 291 299
f 300 291 306
f 51 27 50
f 50 52 51
f 48 49 26
f 80 49 48
f 47 46 77
f 78 47 77
f 45 76 77
f 77 46 45
f 85 86 54
f 124 86 85
f 54 52 85
f 52 84 85
f 126 127 91
f 126 163 127
f 168 214 249
f 215 168 249
f 213 248 249
f 249 214 213
f 151 113 150
f 150 190 151
f 117 47 78
f 117 79 47
f 80 48 117
f 117 48 79
f 26 49 83
f 50 26 83
f 83 52 50
f 83 84 52
f 162 86 124
f 162 125 86
f 163 126 162
f 162 126 125
f 185 266 226
f 225 266 185
f 190 150 185
f 226 190 185
f 224 266 225
f 225 180 224
f 138 179 139
f 139 101 138
f 139 224 180
f 179 224 139
f 136 137 100
f 99 136 100
f 138 101 100
f 100 137 138
f 299 291 290
f 290 305 299
f 297 305 290
f 290 237 271
f 291 272 290
f 290 272 238
f 238 237 290
f 124 85 123
f 123 160 124
f 147 186 189
f 189 148 147
f 254 168 215
f 254 216 168
f 296 255 248
f 296 248 213
f 296 56 93
f 213 167 296
f 93 129 296
f 1 5 296
f 33 17 296
f 296 6 1
f 296 306 303
f 296 130 94
f 296 242 241
f 17 6 296
f 31 56 296
f 296 15 31
f 296 274 278
f 296 129 166
f 166 212 296
f 296 57 33
f 285 256 296
f 296 5 15
f 296 212 211
f 167 130 296
f 94 57 296
f 278 292 296
f 300 306 296
f 296 298 300
f 241 274 296
f 211 242 296
f 296 294 285
f 256 255 296
f 296 292 298
f 302 294 296
f 296 301 302
f 296 303 299
f 299 304 296
f 111 136 99
f 149 136 111
f 111 148 189
f 111 189 149
f 217 188 187
f 187 171 217

