# https://github.com/mikedh/trimesh
v 0.00006767 0.00753271 0.00689121
v 0.00006767 0.00780000 0.00688987
v -0.00346468 0.00753271 0.00655105
v 0.00006767 0.00699642 0.00686711
v -0.00346468 0.00780000 0.00654703
v 0.00006767 0.00831245 0.00687113
v -0.00361536 0.00780000 0.00650953
v -0.00361683 0.00753271 0.00651087
v -0.00360617 0.00736246 0.00649882
v -0.00346468 0.00731138 0.00651087
v -0.00346468 0.00717688 0.00646802
v 0.00006767 0.00672742 0.00677336
v 0.00006767 0.00857124 0.00686041
v -0.00348784 0.01909782 0.00544083
v -0.00359220 0.01920167 0.00541539
v -0.00364549 0.00780000 0.00635686
v -0.00360801 0.01902291 0.00542744
v -0.00361572 0.01880669 0.00543548
v -0.00364586 0.01880669 0.00528414
v -0.00364696 0.00753271 0.00635686
v -0.00362859 0.00699472 0.00629124
v -0.00363483 0.00455333 0.00543146
v -0.00362969 0.00455333 0.00544753
v -0.00348085 0.00455333 0.00548369
v -0.00346468 0.00455333 0.00548637
v -0.00322103 0.00455333 0.00549708
v 0.00006767 0.00455333 0.00555333
v 0.00006767 0.01903142 0.00497077
v -0.00144677 0.01924253 0.00542208
v -0.00158569 0.01928339 0.00542744
v -0.00185396 0.01930893 0.00543146
v -0.00319641 0.01930893 0.00543146
v -0.00319641 0.01907568 0.00546226
v -0.00341323 0.01927658 0.00542610
v -0.00348784 0.01935660 0.00539530
v -0.00346468 0.01961197 0.00533102
v -0.00361021 0.02004781 0.00516094
v -0.00362234 0.01988097 0.00518504
v -0.00364880 0.01853769 0.00528414
v -0.00365945 0.01961197 0.00501496
v -0.00362932 0.01961197 0.00521986
v -0.00365247 0.01988097 0.00501496
v -0.00365945 0.00726371 0.00608902
v -0.00365872 0.00699472 0.00608902
v -0.00367342 0.00455333 0.00528414
v -0.00365945 0.00806900 0.00608902
v 0.00006767 0.00455333 -0.00321190
v 0.00006767 0.01921869 0.00489041
v -0.00143318 0.02006314 0.00516763
v -0.00158569 0.01961197 0.00534977
v -0.00158569 0.01941789 0.00540333
v -0.00185396 0.01944342 0.00541271
v -0.00319641 0.01944342 0.00541271
v -0.00319641 0.01961197 0.00537253
v -0.00346468 0.01988097 0.00525066
v -0.00346468 0.02008527 0.00517701
v -0.00346468 0.02021806 0.00510871
v -0.00360433 0.02056027 0.00488639
v -0.00361793 0.02041726 0.00492121
v -0.00362969 0.02014145 0.00501630
v -0.00365945 0.02014996 0.00474711
v -0.00368628 0.00455333 0.00501496
v -0.00364806 0.02041726 0.00474711
v -0.00365615 0.02068625 0.00447793
v -0.00367489 0.00455333 0.00525870
v 0.00002504 0.00455333 -0.00324806
v 0.00006767 0.00515090 -0.00488325
v 0.00006767 0.01957622 0.00471096
v -0.00144016 0.02056878 0.00489309
v -0.00158569 0.02022998 0.00511808
v -0.00158569 0.02009548 0.00518236
v -0.00158569 0.01988097 0.00526272
v -0.00185396 0.01961197 0.00537253
v -0.00319641 0.01988097 0.00528013
v -0.00319641 0.02024020 0.00513147
v -0.00346468 0.02041726 0.00499353
v -0.00346468 0.02057729 0.00489979
v -0.00346468 0.02071179 0.00479399
v -0.00346468 0.02088034 0.00466006
v -0.00361499 0.02084969 0.00463596
v -0.00362381 0.02066412 0.00473372
v -0.00365945 0.02095525 0.00394090
v -0.00368628 0.00455333 -0.00250077
v -0.00365945 0.02122254 0.00367306
v -0.00365945 0.02149154 0.00313603
v -0.00362969 0.02094503 0.00446856
v -0.00365541 0.02095525 0.00421009
v -0.00024323 0.00455333 -0.00325074
v 0.00006767 0.00599535 -0.00618632
v -0.00310233 0.00455333 -0.00325074
v -0.00319641 0.00455333 -0.00324940
v -0.00332687 0.00455333 -0.00323467
v -0.00346138 0.00455333 -0.00321860
v 0.00006767 0.01984522 0.00444311
v -0.00142767 0.02086161 0.00464399
v -0.00158569 0.02088885 0.00466542
v -0.00158569 0.02058410 0.00490514
v -0.00158569 0.02041726 0.00500826
v -0.00185396 0.02024020 0.00513147
v -0.00185396 0.01988097 0.00528013
v -0.00319641 0.02041726 0.00502567
v -0.00319641 0.02058921 0.00490916
v -0.00319641 0.02072371 0.00480604
v -0.00319641 0.02089566 0.00467212
v -0.00319641 0.02103016 0.00455159
v -0.00346468 0.02101484 0.00453686
v -0.00361425 0.02111018 0.00437213
v -0.00365945 0.00806900 -0.00599079
v -0.00365945 0.00726371 -0.00599079
v -0.00368371 0.00457886 -0.00276996
v -0.00368224 0.00455333 -0.00277129
v -0.00365945 0.02149154 -0.00303780
v -0.00365945 0.02122254 -0.00357483
v -0.00365945 0.02095525 -0.00384401
v -0.00365945 0.02014996 -0.00464889
v -0.00365945 0.01961197 -0.00491807
v -0.00364696 0.02122254 0.00394090
v -0.00364990 0.02149154 0.00340387
v -0.00362932 0.02168562 0.00313603
v -0.00363594 0.02176053 0.00232981
v -0.00363888 0.02176053 0.00206197
v -0.00362234 0.02120892 0.00418598
v -0.00346468 0.00627626 -0.00566402
v -0.00346468 0.00637160 -0.00579794
v -0.00346468 0.00650610 -0.00595061
v 0.00006767 0.00625583 -0.00646354
v -0.00352532 0.00455333 -0.00317708
v -0.00360984 0.00496703 -0.00372884
v -0.00361609 0.00630009 -0.00562786
v 0.00006767 0.02002738 0.00408822
v -0.00143759 0.02163965 0.00357261
v -0.00144163 0.02136896 0.00408955
v -0.00142877 0.02111869 0.00438285
v -0.00158569 0.02102335 0.00454489
v -0.00185396 0.02089566 0.00467212
v -0.00185396 0.02058921 0.00490916
v -0.00185396 0.02041726 0.00502567
v -0.00185396 0.02072371 0.00480604
v -0.00185396 0.02103016 0.00455159
v -0.00319641 0.02114593 0.00441767
v -0.00346468 0.02113401 0.00440293
v -0.00360286 0.02136215 0.00408152
v -0.00364512 0.00780000 -0.00625998
v -0.00364549 0.00753271 -0.00625998
v -0.00365799 0.00699472 -0.00599079
v -0.00365945 0.00672742 -0.00572295
v -0.00364549 0.00455333 -0.00303780
v -0.00365688 0.00645843 -0.00545510
v -0.00363336 0.00645843 -0.00571893
v -0.00363888 0.02176053 -0.00196374
v -0.00363594 0.02176053 -0.00223293
v -0.00362932 0.02168562 -0.00303780
v -0.00364953 0.02149154 -0.00330698
v -0.00364659 0.02122254 -0.00384401
v -0.00365541 0.02095525 -0.00411186
v -0.00365578 0.02068625 -0.00438104
v -0.00365210 0.01988097 -0.00491807
v -0.00364512 0.01880669 -0.00518592
v -0.00364806 0.01853769 -0.00518592
v -0.00361683 0.02139279 0.00394090
v -0.00362748 0.02148983 0.00365832
v -0.00361977 0.02165668 0.00340387
v -0.00360176 0.02189673 0.00248382
v -0.00360580 0.02190014 0.00232981
v -0.00360874 0.02190354 0.00206197
v -0.00361903 0.00654866 -0.00590642
v -0.00346468 0.00663889 -0.00608588
v 0.00006767 0.00675977 -0.00676352
v -0.00346468 0.00677339 -0.00618096
v -0.00362234 0.00466229 -0.00324538
v 0.00006767 0.02010570 0.00389805
v -0.00141921 0.02166689 0.00340387
v -0.00144310 0.02190184 0.00252534
v -0.00158569 0.02180310 0.00313603
v -0.00158569 0.02172478 0.00340387
v -0.00158569 0.02165157 0.00359940
v -0.00158569 0.02158517 0.00373332
v -0.00158569 0.02147281 0.00394090
v -0.00158569 0.02137747 0.00410295
v -0.00158569 0.02113912 0.00441097
v -0.00185396 0.02114593 0.00441767
v -0.00319641 0.02128043 0.00424223
v -0.00346468 0.02137406 0.00409625
v -0.00346468 0.02145919 0.00394090
v -0.00346468 0.02157666 0.00372261
v -0.00346468 0.02164646 0.00358868
v -0.00360654 0.02163284 0.00355922
v -0.00361499 0.00780000 -0.00641131
v -0.00361536 0.00753271 -0.00641131
v -0.00362785 0.00699472 -0.00619837
v -0.00363410 0.00672572 -0.00599347
v -0.00360874 0.02190354 -0.00196374
v -0.00360580 0.02190014 -0.00223293
v -0.00361940 0.02165498 -0.00330698
v -0.00360139 0.02189673 -0.00238560
v -0.00362748 0.02148983 -0.00356010
v -0.00361646 0.02139109 -0.00384401
v -0.00362197 0.02120892 -0.00408775
v -0.00362932 0.02094503 -0.00437033
v -0.00362307 0.02066412 -0.00463550
v -0.00364770 0.02041726 -0.00464889
v -0.00362932 0.02014145 -0.00491807
v -0.00362197 0.01988097 -0.00508681
v -0.00362932 0.01961197 -0.00512030
v -0.00361499 0.01880669 -0.00533591
v -0.00346468 0.02178607 0.00313603
v -0.00333716 0.02189503 0.00273694
v -0.00344190 0.02190354 0.00258427
v -0.00346468 0.02192227 0.00232981
v -0.00346468 0.02192908 0.00206197
v -0.00361756 0.00681425 -0.00615284
v -0.00335885 0.00712411 -0.00639658
v -0.00345513 0.00726371 -0.00640997
v -0.00346468 0.00753271 -0.00644881
v 0.00006767 0.00701855 -0.00677558
v -0.00345513 0.00701855 -0.00631890
v 0.00006767 0.02011762 0.00364091
v -0.00143538 0.02190865 0.00232981
v -0.00158569 0.02193078 0.00232981
v -0.00160480 0.02190695 0.00260837
v -0.00152799 0.02188482 0.00270346
v -0.00160480 0.02186439 0.00284274
v -0.00185396 0.02182863 0.00313603
v -0.00185396 0.02174010 0.00340387
v -0.00185396 0.02165498 0.00360877
v -0.00185396 0.02159879 0.00374270
v -0.00185396 0.02149154 0.00394090
v -0.00185396 0.02138258 0.00410830
v -0.00185396 0.02128043 0.00424223
v -0.00319641 0.02138258 0.00410830
v -0.00319641 0.02149154 0.00394090
v -0.00319641 0.02159879 0.00374270
v -0.00319641 0.02165498 0.00360877
v -0.00319641 0.02174010 0.00340387
v -0.00346468 0.02171286 0.00340387
v -0.00360507 0.00796004 -0.00640059
v -0.00346468 0.00780000 -0.00644747
v -0.00360764 0.01901610 -0.00532921
v -0.00360543 0.00735395 -0.00640059
v -0.00346468 0.02192908 -0.00196374
v -0.00346468 0.02192227 -0.00223293
v -0.00360617 0.02163284 -0.00345966
v -0.00344116 0.02190354 -0.00248604
v -0.00333606 0.02189503 -0.00263871
v -0.00346468 0.02178607 -0.00303780
v -0.00360213 0.02136044 -0.00398329
v -0.00361389 0.02111018 -0.00427391
v -0.00361462 0.02084969 -0.00453773
v -0.00360360 0.02055857 -0.00478817
v -0.00361756 0.02041726 -0.00482299
v -0.00360948 0.02004611 -0.00506405
v -0.00319641 0.02182863 0.00313603
v -0.00319641 0.02191376 0.00259900
v -0.00319641 0.02193759 0.00232981
v -0.00319641 0.02187801 0.00287354
v -0.00319641 0.02194611 0.00206197
v -0.00353781 0.00717518 -0.00637381
v 0.00006767 0.00781022 -0.00678897
v 0.00006767 0.00753271 -0.00679031
v 0.00006767 0.02011762 -0.00330698
v -0.00143171 0.02191206 0.00206197
v -0.00158569 0.02193759 0.00206197
v -0.00185396 0.02194611 0.00206197
v -0.00185396 0.02193759 0.00232981
v -0.00185396 0.02191376 0.00259900
v -0.00170696 0.02189503 0.00273694
v -0.00185396 0.02187801 0.00287354
v 0.00006767 0.00833459 -0.00676754
v -0.00348379 0.01909441 -0.00534127
v -0.00358596 0.01919656 -0.00531448
v -0.00319641 0.02194611 -0.00196374
v -0.00319641 0.02193759 -0.00223293
v -0.00346468 0.02171286 -0.00330698
v -0.00346468 0.02164646 -0.00349046
v -0.00346468 0.02157666 -0.00362438
v -0.00319641 0.02191376 -0.00250077
v -0.00319641 0.02187801 -0.00277531
v -0.00319641 0.02182693 -0.00303780
v -0.00346468 0.02145749 -0.00384401
v -0.00346468 0.02137236 -0.00399802
v -0.00346468 0.02113231 -0.00430337
v -0.00346468 0.02101313 -0.00443863
v -0.00346468 0.02088034 -0.00456050
v -0.00346468 0.02071009 -0.00469576
v -0.00346468 0.02057559 -0.00480156
v -0.00346468 0.02041726 -0.00489397
v -0.00346468 0.02021636 -0.00500914
v -0.00346468 0.02008186 -0.00507878
v -0.00346468 0.01988097 -0.00515110
v -0.00346468 0.01961197 -0.00523145
v 0.00006767 0.02010910 -0.00357483
v -0.00143538 0.02190865 -0.00223293
v -0.00143171 0.02191206 -0.00196374
v -0.00158569 0.02193759 -0.00196374
v -0.00185396 0.02194611 -0.00196374
v -0.00185396 0.01943491 -0.00531448
v -0.00158569 0.01927488 -0.00532921
v -0.00144751 0.01923572 -0.00532386
v 0.00006767 0.01880669 -0.00487790
v -0.00340699 0.01926977 -0.00532788
v -0.00319641 0.01907568 -0.00536136
v -0.00319641 0.01943491 -0.00531448
v -0.00348379 0.01935319 -0.00529573
v -0.00185396 0.02193759 -0.00223293
v -0.00319641 0.02173840 -0.00330698
v -0.00319641 0.02165498 -0.00351055
v -0.00319641 0.02159879 -0.00364447
v -0.00185396 0.02191376 -0.00250077
v -0.00185396 0.02187801 -0.00277531
v -0.00185396 0.02182693 -0.00303780
v -0.00319641 0.02148983 -0.00384401
v -0.00319641 0.02138258 -0.00401008
v -0.00319641 0.02114423 -0.00431944
v -0.00319641 0.02102846 -0.00445336
v -0.00319641 0.02089396 -0.00457389
v -0.00319641 0.02058751 -0.00481093
v -0.00319641 0.02041726 -0.00492477
v -0.00319641 0.02023679 -0.00503191
v -0.00319641 0.02072200 -0.00470781
v -0.00319641 0.02010229 -0.00508815
v -0.00319641 0.01988097 -0.00518056
v -0.00319641 0.01961197 -0.00527163
v 0.00006767 0.02003079 -0.00384401
v -0.00143795 0.02163965 -0.00347439
v -0.00141958 0.02166689 -0.00330698
v -0.00144310 0.02190184 -0.00242711
v -0.00158569 0.02193078 -0.00223293
v -0.00185396 0.01961197 -0.00527163
v -0.00158569 0.01940938 -0.00530377
v -0.00158569 0.01961197 -0.00524886
v -0.00143391 0.02005973 -0.00506940
v 0.00006767 0.01907568 -0.00479486
v -0.00160627 0.02190695 -0.00251015
v -0.00185396 0.02173840 -0.00330698
v -0.00185396 0.02165498 -0.00351055
v -0.00185396 0.02159879 -0.00364447
v -0.00170953 0.02189503 -0.00263871
v -0.00158569 0.02180310 -0.00303780
v -0.00158569 0.02172308 -0.00330698
v -0.00185396 0.02148983 -0.00384401
v -0.00185396 0.02138258 -0.00401008
v -0.00185396 0.02114423 -0.00431944
v -0.00185396 0.02102846 -0.00445336
v -0.00185396 0.02089396 -0.00457389
v -0.00185396 0.02058751 -0.00481093
v -0.00185396 0.02041726 -0.00492477
v -0.00185396 0.02023679 -0.00503191
v -0.00185396 0.02072200 -0.00470781
v -0.00185396 0.02010229 -0.00508815
v -0.00185396 0.01988097 -0.00518056
v 0.00006767 0.01985884 -0.00411052
v -0.00144236 0.02136725 -0.00399133
v -0.00158569 0.02158517 -0.00363509
v -0.00158569 0.02164987 -0.00350117
v -0.00153056 0.02188482 -0.00260523
v -0.00158569 0.01988097 -0.00516315
v -0.00158569 0.02009208 -0.00508280
v -0.00158569 0.02022658 -0.00501851
v -0.00144053 0.02056708 -0.00479486
v 0.00006767 0.01934298 -0.00462612
v -0.00158569 0.02147111 -0.00384401
v -0.00160627 0.02186439 -0.00274451
v -0.00158569 0.02137747 -0.00400338
v -0.00158569 0.02127362 -0.00413864
v -0.00158569 0.02113912 -0.00431140
v -0.00158569 0.02102165 -0.00444533
v -0.00158569 0.02088715 -0.00456720
v -0.00158569 0.02058240 -0.00480558
v -0.00158569 0.02041726 -0.00490736
v -0.00142914 0.02111869 -0.00428462
v 0.00006767 0.01961197 -0.00437435
v -0.00142803 0.02085991 -0.00454577
f 7 5 15
f 8 3 7
f 7 3 5
f 19 7 18
f 218 171 217
f 17 7 15
f 18 7 17
f 16 19 39
f 7 19 16
f 8 7 16
f 27 12 26
f 26 12 25
f 1 3 4
f 9 3 8
f 212 257 213
f 213 168 212
f 212 168 169
f 13 28 29
f 127 147 170
f 67 93 89
f 170 147 128
f 147 129 128
f 128 127 170
f 93 127 128
f 128 129 93
f 125 89 124
f 124 129 125
f 298 299 268
f 268 237 269
f 332 359 360
f 8 16 20
f 44 45 20
f 12 4 11
f 25 12 11
f 11 24 25
f 23 24 11
f 11 9 23
f 10 4 3
f 3 9 10
f 10 11 4
f 9 11 10
f 168 213 214
f 214 215 168
f 259 215 214
f 216 257 212
f 212 169 216
f 216 211 257
f 169 211 216
f 126 169 168
f 126 89 125
f 65 44 62
f 65 45 44
f 23 9 22
f 15 5 14
f 5 13 14
f 2 3 1
f 5 3 2
f 29 28 49
f 109 83 108
f 83 116 108
f 115 83 114
f 115 116 83
f 93 129 123
f 129 124 123
f 89 93 123
f 123 124 89
f 147 111 149
f 149 129 147
f 110 111 83
f 110 83 109
f 257 211 239
f 239 213 257
f 239 190 189
f 211 190 239
f 189 214 239
f 239 214 213
f 41 19 18
f 18 17 41
f 288 289 251
f 188 236 237
f 188 214 189
f 237 214 188
f 300 268 269
f 301 268 300
f 269 270 300
f 237 268 258
f 259 214 258
f 258 214 237
f 359 332 331
f 331 332 299
f 331 299 298
f 261 218 217
f 292 291 326
f 292 260 291
f 293 260 292
f 171 218 173
f 173 172 171
f 43 20 46
f 44 20 43
f 43 46 62
f 62 44 43
f 8 20 21
f 21 20 45
f 21 9 8
f 45 22 21
f 21 22 9
f 167 126 125
f 169 126 167
f 167 211 169
f 34 13 33
f 34 14 13
f 15 14 34
f 6 13 5
f 5 2 6
f 48 49 28
f 68 49 48
f 95 68 94
f 54 34 53
f 30 13 29
f 13 30 31
f 31 30 52
f 66 67 47
f 66 88 67
f 67 88 90
f 129 149 166
f 125 129 166
f 166 167 125
f 211 167 166
f 111 110 146
f 15 34 35
f 35 34 54
f 84 85 62
f 62 82 84
f 83 112 113
f 114 83 113
f 120 85 119
f 120 121 85
f 289 288 321
f 321 322 289
f 143 108 116
f 251 270 238
f 188 205 238
f 236 188 238
f 237 236 238
f 269 237 238
f 238 270 269
f 298 268 297
f 268 296 297
f 330 331 298
f 302 300 322
f 301 300 302
f 302 268 301
f 302 296 268
f 303 300 270
f 322 300 303
f 359 331 358
f 358 331 357
f 360 359 372
f 326 291 325
f 325 324 326
f 291 324 325
f 323 324 291
f 323 351 352
f 352 324 323
f 234 235 186
f 186 235 187
f 183 230 231
f 183 141 140
f 69 49 68
f 68 95 69
f 32 34 33
f 32 53 34
f 33 13 32
f 13 31 32
f 67 90 91
f 116 115 157
f 156 115 114
f 156 157 115
f 201 157 156
f 114 113 156
f 156 113 155
f 145 110 109
f 145 146 110
f 148 149 111
f 111 146 148
f 148 146 149
f 38 17 15
f 38 41 17
f 39 19 40
f 62 46 40
f 46 20 40
f 40 16 39
f 40 20 16
f 153 113 112
f 199 156 155
f 112 150 151
f 287 288 251
f 251 249 287
f 318 288 287
f 250 249 251
f 367 372 359
f 366 372 367
f 116 157 158
f 158 205 188
f 188 143 158
f 109 108 144
f 108 143 144
f 144 145 109
f 189 190 144
f 190 145 144
f 298 297 329
f 329 330 298
f 329 297 296
f 296 328 329
f 329 328 330
f 289 322 290
f 322 303 290
f 290 303 270
f 251 289 290
f 290 270 251
f 368 367 359
f 360 372 371
f 352 351 370
f 370 372 366
f 351 371 370
f 370 371 372
f 326 324 338
f 241 240 271
f 337 338 310
f 293 292 294
f 162 163 119
f 187 163 162
f 85 84 118
f 161 162 118
f 119 85 118
f 118 162 119
f 187 162 160
f 160 162 161
f 219 173 218
f 252 235 234
f 184 183 231
f 231 232 184
f 182 183 140
f 230 183 182
f 234 186 233
f 186 232 233
f 107 80 106
f 106 141 107
f 133 95 94
f 94 132 133
f 94 130 131
f 131 132 94
f 131 130 171
f 171 172 131
f 172 173 131
f 51 73 52
f 52 30 51
f 51 30 29
f 71 99 100
f 93 67 92
f 67 91 92
f 251 238 203
f 191 190 211
f 191 145 190
f 211 166 191
f 191 166 149
f 149 146 191
f 146 145 191
f 15 35 36
f 36 35 54
f 19 41 42
f 42 40 19
f 41 38 42
f 155 113 154
f 113 153 154
f 154 199 155
f 198 199 154
f 283 314 315
f 282 314 283
f 283 249 248
f 248 282 283
f 164 120 119
f 119 163 164
f 318 287 286
f 286 287 249
f 248 249 200
f 249 250 200
f 200 250 201
f 200 199 248
f 201 156 200
f 156 199 200
f 320 288 318
f 320 321 288
f 347 358 357
f 357 349 347
f 350 349 357
f 159 143 116
f 116 158 159
f 159 158 143
f 346 368 369
f 369 347 346
f 358 347 369
f 359 358 369
f 369 368 359
f 339 338 324
f 310 338 339
f 326 338 355
f 327 292 326
f 327 294 292
f 295 294 327
f 327 304 295
f 107 141 142
f 141 183 142
f 187 160 142
f 183 184 142
f 142 186 187
f 107 142 122
f 122 142 160
f 161 118 117
f 117 160 161
f 117 122 160
f 84 87 117
f 117 118 84
f 256 210 209
f 209 254 256
f 209 164 163
f 209 210 164
f 218 261 262
f 262 219 218
f 208 209 163
f 254 209 208
f 235 252 206
f 187 235 206
f 206 163 187
f 223 266 267
f 173 219 220
f 220 221 173
f 266 221 220
f 220 219 264
f 185 232 186
f 185 184 232
f 186 142 185
f 185 142 184
f 132 131 177
f 226 227 177
f 174 131 173
f 173 221 174
f 29 49 50
f 50 51 29
f 73 51 50
f 99 71 70
f 49 69 70
f 70 71 49
f 202 203 157
f 202 157 201
f 201 250 202
f 202 250 251
f 251 203 202
f 204 158 157
f 157 203 204
f 205 158 204
f 204 238 205
f 204 203 238
f 86 80 107
f 107 122 86
f 86 117 87
f 122 117 86
f 80 86 81
f 37 38 15
f 15 36 37
f 60 42 38
f 63 42 60
f 38 37 60
f 64 42 63
f 64 86 87
f 63 81 64
f 64 81 86
f 64 84 82
f 64 87 84
f 366 367 343
f 285 286 249
f 318 286 285
f 196 154 153
f 309 337 310
f 308 337 309
f 121 120 165
f 120 164 165
f 164 210 165
f 328 350 356
f 330 328 356
f 356 350 357
f 357 331 356
f 331 330 356
f 345 368 346
f 345 348 368
f 338 337 362
f 362 355 338
f 337 355 362
f 333 327 326
f 326 355 333
f 333 355 337
f 333 337 308
f 308 304 333
f 304 327 333
f 272 241 271
f 195 241 243
f 241 272 243
f 264 219 263
f 219 262 263
f 207 208 163
f 163 206 207
f 207 206 252
f 207 252 255
f 255 253 207
f 207 253 254
f 254 208 207
f 265 267 266
f 265 220 264
f 266 220 265
f 222 266 223
f 222 221 266
f 223 174 222
f 222 174 221
f 96 69 95
f 132 177 178
f 178 177 227
f 176 225 226
f 226 177 176
f 224 225 176
f 176 177 131
f 49 71 72
f 72 50 49
f 72 71 100
f 100 73 72
f 73 50 72
f 98 70 69
f 99 70 98
f 59 60 37
f 59 81 63
f 63 60 59
f 57 37 56
f 40 42 61
f 42 64 61
f 61 64 82
f 61 82 62
f 62 40 61
f 344 343 367
f 367 368 344
f 368 348 344
f 366 343 365
f 365 364 352
f 352 370 365
f 365 370 366
f 281 314 282
f 342 365 343
f 341 364 342
f 364 365 342
f 319 285 315
f 316 285 319
f 284 283 315
f 315 285 284
f 249 283 284
f 284 285 249
f 318 285 317
f 317 285 316
f 353 324 352
f 245 242 195
f 307 275 274
f 275 242 274
f 152 153 112
f 112 151 152
f 198 154 197
f 154 196 197
f 307 274 306
f 306 274 305
f 310 339 334
f 192 151 150
f 180 133 132
f 131 174 175
f 175 176 131
f 175 174 223
f 223 224 175
f 224 176 175
f 99 98 137
f 54 74 55
f 74 56 55
f 55 36 54
f 55 37 36
f 55 56 37
f 246 242 275
f 246 197 242
f 198 197 246
f 314 281 313
f 341 340 363
f 352 364 363
f 363 364 341
f 361 340 336
f 336 353 361
f 361 363 340
f 361 353 352
f 352 363 361
f 354 339 324
f 324 353 354
f 354 353 336
f 354 336 335
f 335 334 354
f 354 334 339
f 244 277 278
f 278 245 244
f 276 277 244
f 195 243 244
f 244 245 195
f 244 272 276
f 244 243 272
f 242 245 273
f 273 274 242
f 273 245 278
f 278 305 273
f 305 274 273
f 153 152 194
f 194 196 153
f 195 242 194
f 194 152 195
f 194 197 196
f 242 197 194
f 151 192 193
f 195 152 193
f 193 152 151
f 193 192 240
f 193 241 195
f 240 241 193
f 135 96 134
f 134 96 95
f 95 133 134
f 133 180 134
f 179 180 132
f 132 178 179
f 179 178 227
f 57 56 75
f 75 56 74
f 77 75 101
f 136 137 97
f 97 137 98
f 97 98 69
f 69 96 97
f 97 138 136
f 97 96 135
f 135 138 97
f 281 246 280
f 312 313 280
f 280 313 281
f 280 311 312
f 198 246 247
f 248 199 247
f 247 199 198
f 247 282 248
f 247 281 282
f 247 246 281
f 135 134 139
f 228 179 227
f 79 106 80
f 57 75 76
f 75 77 76
f 279 246 275
f 279 280 246
f 311 280 279
f 307 311 279
f 279 275 307
f 181 134 180
f 181 139 134
f 180 179 181
f 58 79 80
f 80 81 58
f 81 59 58
f 58 59 37
f 58 76 77
f 58 37 57
f 57 76 58
f 179 228 229
f 229 181 179
f 78 58 77
f 79 58 78
f 77 104 78
f 78 104 79
f 102 77 101
f 106 79 105
f 79 104 105
f 140 141 105
f 141 106 105
f 103 104 77
f 77 102 103
f 112 83 62
f 62 85 112
f 217 260 261
f 261 260 293
f 150 112 85
f 85 121 150
f 32 31 52
f 52 53 32
f 73 53 52
f 54 53 73
f 296 302 328
f 328 302 322
f 144 143 188
f 144 188 189
f 371 323 291
f 1 4 371
f 217 171 371
f 94 68 371
f 27 47 371
f 47 67 371
f 371 260 217
f 371 215 259
f 371 12 27
f 89 126 371
f 371 332 360
f 371 2 1
f 259 258 371
f 371 4 12
f 28 13 371
f 13 6 371
f 168 215 371
f 371 67 89
f 371 268 299
f 299 332 371
f 371 126 168
f 371 130 94
f 371 258 268
f 371 48 28
f 291 260 371
f 171 130 371
f 371 6 2
f 68 48 371
f 351 323 371
f 224 252 234
f 223 252 224
f 92 47 27
f 23 22 92
f 62 83 92
f 27 26 92
f 92 111 147
f 25 24 92
f 147 127 92
f 92 26 25
f 92 65 62
f 92 127 93
f 83 111 92
f 92 24 23
f 45 65 92
f 92 22 45
f 92 66 47
f 88 66 92
f 92 90 88
f 92 91 90
f 271 240 210
f 256 271 210
f 349 320 347
f 347 320 318
f 350 320 349
f 321 320 350
f 350 328 322
f 322 321 350
f 262 261 293
f 293 294 262
f 267 252 223
f 255 252 267
f 226 232 227
f 227 232 231
f 225 232 226
f 225 233 232
f 225 224 234
f 234 233 225
f 54 73 74
f 74 73 100
f 295 304 272
f 271 295 272
f 272 304 308
f 308 276 272
f 254 264 263
f 256 254 263
f 263 271 256
f 263 295 271
f 263 262 294
f 263 294 295
f 255 267 265
f 265 253 255
f 265 264 254
f 254 253 265
f 314 343 344
f 315 314 344
f 315 344 319
f 319 344 348
f 319 345 316
f 348 345 319
f 317 347 318
f 346 347 317
f 316 345 317
f 317 345 346
f 277 309 310
f 310 278 277
f 277 276 308
f 308 309 277
f 335 336 306
f 306 336 307
f 334 278 310
f 334 305 278
f 335 306 334
f 334 306 305
f 192 150 121
f 121 165 192
f 192 210 240
f 192 165 210
f 313 343 314
f 313 342 343
f 313 312 341
f 341 342 313
f 307 336 311
f 336 340 311
f 341 312 311
f 311 340 341
f 75 74 100
f 100 99 75
f 99 137 75
f 75 137 101
f 228 227 231
f 231 230 228
f 229 228 230
f 230 182 229
f 229 182 140
f 140 181 229
f 101 137 102
f 102 137 136
f 105 181 140
f 139 181 105
f 135 139 105
f 105 104 135
f 135 104 103
f 103 138 135
f 103 102 136
f 136 138 103

