# https://github.com/mikedh/trimesh
v 0.01036571 0.00538362 -0.00062126
v 0.01036369 0.00463190 -0.00250145
v 0.01036470 0.00517565 -0.00250145
v 0.01036470 0.00538362 -0.00223242
v 0.01035361 0.00592056 -0.00196340
v 0.01034756 0.00618929 -0.00169587
v 0.01034756 0.00618929 0.00179249
v 0.01035361 0.00592056 0.00179249
v 0.01036168 0.00553187 0.00179249
v 0.01036470 0.00538362 0.00179249
v 0.01036470 0.00516361 0.00206151
v 0.01036369 0.00471781 0.00501481
v 0.01036369 0.00463190 0.00501481
v 0.01036168 0.00455333 -0.00250145
v 0.01036268 0.00465862 -0.00263745
v 0.01036168 0.00524009 -0.00325920
v 0.01036268 0.00521809 -0.00303800
v 0.01036369 0.00518875 -0.00276898
v 0.01036268 0.00528880 -0.00303800
v 0.01036369 0.00534067 -0.00276898
v 0.01036369 0.00540353 -0.00247903
v 0.01036168 0.00551930 -0.00237441
v 0.01035260 0.00592056 -0.00223242
v 0.01034555 0.00618929 -0.00223242
v 0.01033950 0.00645750 -0.00169587
v 0.01033950 0.00645750 0.00179249
v 0.01034252 0.00618929 0.00259807
v 0.01035966 0.00545120 0.00313612
v 0.01036268 0.00528042 0.00340365
v 0.01036369 0.00532914 0.00286709
v 0.01036168 0.00552139 0.00194045
v 0.01036268 0.00471624 0.00517024
v 0.01036268 0.00465862 0.00517024
v 0.01036168 0.00455333 0.00501481
v 0.01028103 0.00455333 -0.00265838
v 0.00955827 0.00471100 -0.00532471
v 0.00981331 0.00471310 -0.00477172
v 0.01012076 0.00494778 -0.00464916
v 0.01027902 0.00511489 -0.00411261
v 0.01031631 0.00511489 -0.00384358
v 0.01034454 0.00511489 -0.00357456
v 0.01035663 0.00513637 -0.00333094
v 0.01036168 0.00525790 -0.00325920
v 0.01034756 0.00538362 -0.00357456
v 0.01035865 0.00562616 -0.00247903
v 0.01034353 0.00618929 -0.00250145
v 0.01033849 0.00645750 -0.00196340
v 0.01032740 0.00672624 -0.00169587
v 0.01032740 0.00672624 0.00179249
v 0.01033547 0.00645750 0.00233054
v 0.01033345 0.00645750 0.00259807
v 0.01033950 0.00618929 0.00286709
v 0.00987681 0.00990493 0.00422866
v 0.00983448 0.00989131 0.00436915
v 0.00978911 0.00990493 0.00448274
v 0.01034454 0.00457271 0.00526889
v 0.01032942 0.00645750 0.00286709
v 0.01030926 0.00672624 0.00313612
v 0.01029414 0.00699444 0.00313612
v 0.01025482 0.00779960 0.00286709
v 0.01024374 0.00779960 0.00313612
v 0.01023063 0.00779960 0.00340365
v 0.01020946 0.00806780 0.00340365
v 0.01016209 0.00860475 0.00340365
v 0.01009959 0.00934494 0.00333639
v 0.01006128 0.00967863 0.00340365
v 0.01003911 0.00990493 0.00340365
v 0.01003407 0.00990493 0.00344699
v 0.01000483 0.00990493 0.00367267
v 0.00999677 0.00990493 0.00371452
v 0.00995241 0.00990493 0.00394170
v 0.00994233 0.00990493 0.00398355
v 0.01036067 0.00455333 0.00506861
v 0.01034353 0.00455333 0.00527038
v 0.01024777 0.00455333 -0.00272265
v 0.00929921 0.00470838 -0.00561466
v 0.00896757 0.00471991 -0.00607499
v 0.00922361 0.00472672 -0.00579252
v 0.00942521 0.00482730 -0.00573273
v 0.00960868 0.00492787 -0.00567295
v 0.00967319 0.00485558 -0.00542784
v 0.00984052 0.00496193 -0.00535162
v 0.00988085 0.00492002 -0.00518572
v 0.01023265 0.00455333 -0.00274805
v 0.00996653 0.00488544 -0.00490175
v 0.01009959 0.00497293 -0.00480161
v 0.01022761 0.00511489 -0.00438014
v 0.01028507 0.00538362 -0.00411261
v 0.01032135 0.00538362 -0.00384358
v 0.01035764 0.00536162 -0.00333094
v 0.01031127 0.00565235 -0.00384358
v 0.01032639 0.00592056 -0.00357456
v 0.01032639 0.00618929 -0.00330703
v 0.01033345 0.00645750 -0.00250145
v 0.01033647 0.00645750 -0.00223242
v 0.01033849 0.00618929 -0.00276898
v 0.01032639 0.00672624 -0.00196340
v 0.01031430 0.00699444 -0.00169587
v 0.01031430 0.00699444 0.00152496
v 0.01027297 0.00779960 0.00179249
v 0.01032337 0.00672624 0.00233054
v 0.01032035 0.00672624 0.00259807
v 0.00983952 0.00990493 0.00434523
v 0.00982540 0.00990493 0.00438708
v 0.00967420 0.00990493 0.00474578
v 0.00936675 0.00990493 0.00526889
v 0.00934356 0.00990493 0.00530177
v 0.00927401 0.00990493 0.00539892
v 0.01020644 0.00457795 0.00545720
v 0.00965706 0.00990493 0.00478016
v 0.00958247 0.00990493 0.00492812
v 0.00957037 0.00990493 0.00494905
v 0.00950283 0.00990493 0.00506263
v 0.01031531 0.00672624 0.00286709
v 0.01030119 0.00699444 0.00286709
v 0.01026289 0.00779960 0.00259807
v 0.01027095 0.00753086 0.00286709
v 0.01024575 0.00806780 0.00259807
v 0.01023668 0.00806780 0.00286709
v 0.01022458 0.00806780 0.00313612
v 0.01020241 0.00833654 0.00313612
v 0.01018023 0.00860475 0.00313612
v 0.01009051 0.00978445 0.00295228
v 0.01008447 0.00968858 0.00314807
v 0.01006531 0.00990493 0.00313761
v 0.01020543 0.00455333 0.00545720
v 0.00904418 0.00470838 -0.00589564
v 0.00878915 0.00470838 -0.00615720
v 0.00851295 0.00470838 -0.00640829
v 0.00822667 0.00470891 -0.00666984
v 0.00869137 0.00472305 -0.00633505
v 0.00888088 0.00476863 -0.00625135
v 0.00914196 0.00477177 -0.00598681
v 0.00936070 0.00491530 -0.00599130
v 0.00929921 0.00496926 -0.00613926
v 0.00955122 0.00506879 -0.00585081
v 0.00977500 0.00511489 -0.00550855
v 0.00985363 0.00511489 -0.00537403
v 0.00994637 0.00511489 -0.00518572
v 0.00995947 0.00455333 -0.00288107
v 0.00770551 0.00470838 -0.00693886
v 0.01005221 0.00511489 -0.00495256
v 0.01010564 0.00511489 -0.00481805
v 0.01015705 0.00511489 -0.00464916
v 0.01023265 0.00538362 -0.00438014
v 0.01027196 0.00565235 -0.00411261
v 0.01028708 0.00618929 -0.00384358
v 0.01032236 0.00645750 -0.00303800
v 0.01032841 0.00645750 -0.00276898
v 0.01031430 0.00618929 -0.00357456
v 0.01031531 0.00645750 -0.00330703
v 0.01032135 0.00672624 -0.00250145
v 0.01032438 0.00672624 -0.00223242
v 0.01029918 0.00726265 -0.00196340
v 0.01028708 0.00753086 -0.00169587
v 0.01028708 0.00753086 0.00152496
v 0.01025684 0.00806780 0.00179249
v 0.01026994 0.00779960 0.00206151
v 0.01027297 0.00779960 -0.00169587
v 0.01030623 0.00699444 0.00259807
v 0.00925788 0.00990493 0.00541834
v 0.00906938 0.00990493 0.00564253
v 0.00925486 0.00887348 0.00564702
v 0.00927401 0.00866184 0.00566943
v 0.00920849 0.00806780 0.00586672
v 0.00923268 0.00779960 0.00589213
v 0.00907442 0.00806780 0.00601169
v 0.00922361 0.00645750 0.00615517
v 0.00924579 0.00618929 0.00617759
v 0.00926695 0.00592056 0.00620001
v 0.00928107 0.00573984 0.00621496
v 0.00929316 0.00556068 0.00622990
v 0.00917119 0.00538362 0.00637637
v 0.00903712 0.00538362 0.00650790
v 0.00904418 0.00511489 0.00651537
v 0.01025382 0.00806780 0.00206151
v 0.01024978 0.00806780 0.00233054
v 0.01022458 0.00833654 0.00259807
v 0.01022962 0.00833654 0.00233054
v 0.01021551 0.00833654 0.00286709
v 0.01019333 0.00860475 0.00286709
v 0.01009455 0.00983683 0.00277293
v 0.01008346 0.00990493 0.00288204
v 0.01008245 0.00990493 0.00289848
v 0.00995846 0.00455333 0.00549756
v 0.00889197 0.00511489 0.00664988
v 0.00875286 0.00497921 0.00676197
v 0.00826497 0.00495092 0.00705491
v 0.00807949 0.00490116 0.00710573
v 0.00822868 0.00470838 0.00676795
v 0.00770249 0.00470838 0.00703548
v 0.00691018 0.00470943 0.00730152
v 0.00788394 0.00472410 -0.00687011
v 0.00807949 0.00489854 -0.00701060
v 0.00833553 0.00484563 -0.00678791
v 0.00860770 0.00478853 -0.00650992
v 0.00913591 0.00491635 -0.00624089
v 0.00885971 0.00492368 -0.00650992
v 0.00903410 0.00496716 -0.00640829
v 0.00918127 0.00511489 -0.00628424
v 0.00930929 0.00511489 -0.00615122
v 0.00946352 0.00514108 -0.00596440
v 0.00955626 0.00524742 -0.00585678
v 0.00962380 0.00514108 -0.00574619
v 0.00977399 0.00538362 -0.00550406
v 0.00955626 0.00525004 -0.00585678
v 0.00985262 0.00538362 -0.00536955
v 0.00994536 0.00538362 -0.00518572
v 0.00990705 0.00455333 -0.00288705
v 0.00673680 0.00470157 -0.00706590
v 0.00673680 0.00470734 -0.00720789
v 0.00691421 0.00470943 -0.00720490
v 0.00709364 0.00471677 -0.00716006
v 0.00727408 0.00487130 -0.00730055
v 0.00754221 0.00491478 -0.00725721
v 0.00781035 0.00483935 -0.00706291
v 0.01005120 0.00538362 -0.00494658
v 0.01010362 0.00538362 -0.00481207
v 0.01015705 0.00538362 -0.00464916
v 0.01021652 0.00565235 -0.00438014
v 0.01024374 0.00618929 -0.00411261
v 0.01025886 0.00592056 -0.00411261
v 0.01027095 0.00645750 -0.00384358
v 0.01030119 0.00645750 -0.00357456
v 0.01030926 0.00672624 -0.00303800
v 0.01030019 0.00672624 -0.00330703
v 0.01030119 0.00699444 -0.00276898
v 0.01026289 0.00779960 -0.00250145
v 0.01028204 0.00753086 -0.00223242
v 0.01027095 0.00779960 -0.00196340
v 0.01023769 0.00833654 0.00152496
v 0.01023668 0.00833654 0.00179249
v 0.01025684 0.00806780 -0.00169587
v 0.00896455 0.00990493 0.00575313
v 0.00902906 0.00986616 0.00569634
v 0.00909660 0.00914169 0.00577107
v 0.00903007 0.00852879 0.00596686
v 0.00893632 0.00806780 0.00614621
v 0.00898975 0.00753086 0.00619553
v 0.00902503 0.00716260 0.00622990
v 0.00904115 0.00699444 0.00624485
v 0.00906535 0.00672624 0.00626876
v 0.00908954 0.00645750 0.00629268
v 0.00911172 0.00618929 0.00631360
v 0.00896959 0.00618929 0.00644811
v 0.00886173 0.00537891 0.00666184
v 0.00875790 0.00528671 0.00676496
v 0.01023366 0.00833654 0.00206151
v 0.01013588 0.00941042 0.00259807
v 0.01011269 0.00990493 0.00179249
v 0.01010564 0.00990493 0.00211831
v 0.01021249 0.00860475 0.00206151
v 0.01011370 0.00967863 0.00259807
v 0.01008951 0.00990493 0.00274304
v 0.01008547 0.00990493 0.00283720
v 0.01009455 0.00990493 0.00259807
v 0.00969133 0.00455333 0.00551848
v 0.00673680 0.00470734 0.00730600
v 0.00875790 0.00511489 0.00676496
v 0.00861577 0.00511489 0.00686809
v 0.00843130 0.00511489 0.00699662
v 0.00829723 0.00511489 0.00707434
v 0.00807949 0.00511489 0.00719241
v 0.00790611 0.00511489 0.00728059
v 0.00773576 0.00495407 0.00731945
v 0.00780833 0.00483987 0.00715953
v 0.00754221 0.00491687 0.00735233
v 0.00727408 0.00487340 0.00739568
v 0.00708961 0.00471781 0.00725369
v 0.00646866 0.00480425 0.00744201
v 0.00619952 0.00479639 0.00744350
v 0.00700292 0.00484406 0.00742856
v 0.00673680 0.00495459 0.00758549
v 0.00646866 0.00493888 0.00759894
v 0.00826497 0.00494883 -0.00695979
v 0.00773676 0.00495407 -0.00722134
v 0.00861577 0.00493416 -0.00671318
v 0.00875387 0.00497816 -0.00666535
v 0.00904720 0.00511489 -0.00642024
v 0.00917522 0.00538362 -0.00627975
v 0.00930526 0.00538362 -0.00614524
v 0.00975988 0.00565235 -0.00548164
v 0.00982137 0.00602795 -0.00531575
v 0.00983044 0.00584932 -0.00533069
v 0.00962279 0.00535690 -0.00574021
v 0.00962581 0.00565235 -0.00568939
v 0.00945546 0.00535690 -0.00596440
v 0.00953106 0.00565235 -0.00582390
v 0.00957944 0.00645750 -0.00562214
v 0.00959557 0.00618929 -0.00564455
v 0.00992117 0.00565235 -0.00518572
v 0.00988185 0.00618929 -0.00516629
v 0.00999677 0.00618929 -0.00491669
v 0.00969033 0.00455333 -0.00290797
v 0.00646866 0.00470105 -0.00706590
v 0.00646866 0.00470681 -0.00721088
v 0.00593138 0.00479377 -0.00734688
v 0.00619952 0.00479534 -0.00734539
v 0.00700796 0.00484301 -0.00733194
v 0.00646866 0.00480320 -0.00734539
v 0.00646866 0.00493730 -0.00750232
v 0.00673680 0.00495354 -0.00748887
v 0.00692328 0.00496978 -0.00747691
v 0.01004919 0.00565550 -0.00489726
v 0.01008951 0.00574769 -0.00477471
v 0.01008346 0.00592056 -0.00475528
v 0.01011975 0.00618929 -0.00459237
v 0.01018225 0.00618929 -0.00438014
v 0.01022660 0.00645750 -0.00411261
v 0.01025281 0.00672624 -0.00384358
v 0.01028406 0.00672624 -0.00357456
v 0.01028406 0.00699444 -0.00330703
v 0.01029414 0.00699444 -0.00303800
v 0.01027095 0.00753086 -0.00276898
v 0.01025482 0.00779960 -0.00276898
v 0.01024575 0.00806780 -0.00250145
v 0.01025079 0.00806780 -0.00223242
v 0.01025482 0.00806780 -0.00196340
v 0.01013084 0.00967863 0.00152496
v 0.01015201 0.00941042 0.00179249
v 0.01023769 0.00833654 -0.00169587
v 0.01019535 0.00887348 -0.00169587
v 0.00889096 0.00990493 0.00582637
v 0.00894136 0.00941042 0.00587718
v 0.00901293 0.00870794 0.00594892
v 0.00875588 0.00849526 0.00622841
v 0.00880124 0.00806780 0.00626727
v 0.00885568 0.00753086 0.00631659
v 0.00880729 0.00941042 0.00600721
v 0.00892019 0.00672624 0.00640327
v 0.00894640 0.00645750 0.00642719
v 0.00883552 0.00618929 0.00656469
v 0.00881233 0.00645750 0.00654377
v 0.00872161 0.00565235 0.00673806
v 0.00863693 0.00537891 0.00684119
v 0.00842122 0.00538362 0.00699065
v 0.01011269 0.00990493 -0.00169587
v 0.01010060 0.00990493 0.00233950
v 0.00861375 0.00455333 0.00558275
v 0.00593138 0.00479325 0.00744350
v 0.00646866 0.00470681 0.00730899
v 0.00834763 0.00455333 0.00559471
v 0.00828715 0.00538362 0.00706986
v 0.00807949 0.00538362 0.00718345
v 0.00789099 0.00538362 0.00727462
v 0.00775692 0.00538362 0.00732992
v 0.00777205 0.00511489 0.00733440
v 0.00754221 0.00511489 0.00741810
v 0.00727408 0.00511489 0.00750329
v 0.00691723 0.00497031 0.00757353
v 0.00619952 0.00493102 0.00760492
v 0.00593138 0.00492787 0.00760791
v 0.00646866 0.00511489 0.00764228
v 0.00619952 0.00511489 0.00765573
v 0.00790914 0.00511489 -0.00718397
v 0.00807949 0.00511489 -0.00709729
v 0.00829723 0.00511489 -0.00697922
v 0.00843130 0.00511489 -0.00689851
v 0.00727408 0.00511489 -0.00741115
v 0.00754221 0.00511489 -0.00732297
v 0.00777406 0.00511489 -0.00723778
v 0.00861577 0.00511489 -0.00677147
v 0.00875891 0.00511489 -0.00666984
v 0.00889398 0.00511489 -0.00655475
v 0.00904115 0.00538362 -0.00641426
v 0.00875891 0.00529561 -0.00666984
v 0.00911172 0.00618929 -0.00621847
v 0.00929316 0.00555597 -0.00613179
v 0.00936272 0.00618929 -0.00594646
v 0.00971956 0.00618929 -0.00545474
v 0.00981331 0.00618929 -0.00530080
v 0.00988387 0.00593156 -0.00520963
v 0.00949679 0.00618929 -0.00577907
v 0.00956634 0.00666547 -0.00560271
v 0.00968932 0.00645750 -0.00545474
v 0.00986875 0.00645750 -0.00513939
v 0.00997157 0.00645750 -0.00491669
v 0.01006128 0.00645750 -0.00469699
v 0.01007237 0.00618929 -0.00472688
v 0.00006767 0.00455333 -0.00321137
v 0.00056261 0.00470105 -0.00706590
v 0.00619952 0.00470681 -0.00721237
v 0.00512697 0.00479063 -0.00734688
v 0.00485884 0.00492421 -0.00751428
v 0.00566325 0.00492683 -0.00751129
v 0.00593138 0.00492787 -0.00750979
v 0.00619952 0.00492945 -0.00750830
v 0.00619952 0.00511489 -0.00755912
v 0.00646866 0.00511489 -0.00754566
v 0.00673680 0.00511489 -0.00751727
v 0.00696159 0.00511489 -0.00748438
v 0.00709566 0.00511489 -0.00745898
v 0.01010967 0.00645750 -0.00456248
v 0.01016309 0.00645750 -0.00438014
v 0.01020543 0.00672624 -0.00411261
v 0.01021148 0.00726265 -0.00384358
v 0.01020745 0.00779960 -0.00357456
v 0.01023063 0.00779960 -0.00330703
v 0.01024374 0.00779960 -0.00303800
v 0.01027801 0.00726265 -0.00303800
v 0.01023567 0.00806780 -0.00276898
v 0.01022458 0.00833654 -0.00250145
v 0.01023063 0.00833654 -0.00223242
v 0.01023466 0.00833654 -0.00196340
v 0.01013084 0.00967863 -0.00169587
v 0.01014999 0.00941042 -0.00196340
v 0.01012882 0.00967863 -0.00196340
v 0.00882241 0.00990493 0.00589362
v 0.00875991 0.00985883 0.00596387
v 0.00871355 0.00887348 0.00619254
v 0.00863593 0.00806780 0.00640178
v 0.00866718 0.00779960 0.00642569
v 0.00874580 0.00710864 0.00648847
v 0.00878612 0.00672624 0.00652135
v 0.00863996 0.00645750 0.00667828
v 0.00866818 0.00618929 0.00669771
v 0.00869439 0.00592056 0.00671863
v 0.00856032 0.00592056 0.00681727
v 0.00858754 0.00565235 0.00683670
v 0.00838896 0.00565235 0.00697122
v 0.00823070 0.00585561 0.00703847
v 0.00850589 0.00645750 0.00677692
v 0.01011068 0.00990493 -0.00196340
v 0.00566325 0.00492630 0.00760940
v 0.00512697 0.00492473 0.00761090
v 0.00566325 0.00479220 0.00744350
v 0.00539410 0.00479115 0.00744350
v 0.00351614 0.00478801 0.00744500
v 0.00324800 0.00478748 0.00744500
v 0.00297886 0.00478696 0.00744500
v 0.00512697 0.00470681 0.00731049
v 0.00027431 0.00455333 0.00559620
v 0.00807949 0.00565235 0.00714758
v 0.00781035 0.00645750 0.00716701
v 0.00784765 0.00565235 0.00725818
v 0.00749484 0.00618929 0.00732992
v 0.00754221 0.00538362 0.00741062
v 0.00762890 0.00618929 0.00727910
v 0.00727408 0.00538362 0.00749731
v 0.00708658 0.00511489 0.00755410
v 0.00695252 0.00511489 0.00758101
v 0.00673680 0.00511489 0.00761389
v 0.00593138 0.00511489 0.00766171
v 0.00566325 0.00511489 0.00766470
v 0.00646866 0.00538362 0.00763929
v 0.00619952 0.00538362 0.00765573
v 0.00593138 0.00538362 0.00766470
v 0.00789502 0.00538362 -0.00717800
v 0.00807949 0.00538362 -0.00708832
v 0.00776096 0.00538362 -0.00723479
v 0.00828715 0.00538362 -0.00697473
v 0.00842222 0.00538362 -0.00689403
v 0.00727408 0.00538362 -0.00740218
v 0.00754221 0.00538362 -0.00731699
v 0.00901192 0.00574298 -0.00638736
v 0.00886273 0.00538467 -0.00656821
v 0.00874177 0.00547425 -0.00665639
v 0.00883854 0.00618929 -0.00646807
v 0.00886173 0.00592056 -0.00648899
v 0.00890709 0.00565288 -0.00649049
v 0.00863794 0.00538467 -0.00674457
v 0.00908954 0.00645750 -0.00619606
v 0.00924579 0.00618929 -0.00607948
v 0.00926595 0.00592056 -0.00610190
v 0.00899680 0.00592056 -0.00637391
v 0.00934356 0.00645750 -0.00592255
v 0.00947763 0.00645750 -0.00575665
v 0.00979919 0.00645750 -0.00527390
v 0.00947562 0.00674352 -0.00570434
v 0.00955323 0.00684463 -0.00558477
v 0.00957743 0.00779960 -0.00535162
v 0.00959557 0.00753086 -0.00538001
v 0.00961372 0.00726265 -0.00540692
v 0.00978307 0.00672624 -0.00524401
v 0.00985464 0.00672624 -0.00510949
v 0.00994435 0.00672624 -0.00491669
v 0.01002701 0.00699444 -0.00464916
v 0.01005725 0.00674876 -0.00463571
v 0.01010060 0.00667438 -0.00453707
v 0.00006767 0.00514946 -0.00488381
v 0.00007876 0.00511489 -0.00706590
v 0.00008480 0.00511489 -0.00733343
v 0.00011908 0.00485297 -0.00706590
v 0.00019468 0.00471886 -0.00706590
v 0.00036201 0.00470838 -0.00720789
v 0.00056261 0.00470681 -0.00721237
v 0.00006767 0.00455333 0.00555286
v 0.00297886 0.00478644 -0.00734688
v 0.00324800 0.00478696 -0.00734688
v 0.00485884 0.00479010 -0.00734688
v 0.00297886 0.00492106 -0.00751727
v 0.00405342 0.00492264 -0.00751577
v 0.00297886 0.00511489 -0.00757705
v 0.00405342 0.00511489 -0.00757406
v 0.00458969 0.00511489 -0.00757257
v 0.00593138 0.00511489 -0.00756210
v 0.00619952 0.00538362 -0.00755762
v 0.00646866 0.00538362 -0.00754267
v 0.00673680 0.00538362 -0.00751278
v 0.00693538 0.00538362 -0.00747990
v 0.00706945 0.00538362 -0.00745449
v 0.01013184 0.00674876 -0.00440555
v 0.01010060 0.00753086 -0.00427103
v 0.01016108 0.00726265 -0.00411261
v 0.01016914 0.00779960 -0.00384358
v 0.01018628 0.00806780 -0.00357456
v 0.01020845 0.00806780 -0.00330703
v 0.01022257 0.00806780 -0.00303800
v 0.01011370 0.00967863 -0.00250145
v 0.01013588 0.00941042 -0.00250145
v 0.01009656 0.00990493 -0.00245810
v 0.01014495 0.00941042 -0.00223242
v 0.01018829 0.00887348 -0.00223242
v 0.00869742 0.00990493 0.00600721
v 0.00868230 0.00914169 0.00616713
v 0.00849379 0.00959481 0.00623289
v 0.00850085 0.00806780 0.00650640
v 0.00853311 0.00779960 0.00652882
v 0.00856335 0.00753086 0.00655273
v 0.00859460 0.00726265 0.00657515
v 0.00848775 0.00661623 0.00676347
v 0.00853412 0.00618929 0.00679635
v 0.00834763 0.00618929 0.00691741
v 0.00818836 0.00618929 0.00701456
v 0.00805429 0.00618929 0.00708630
v 0.00836477 0.00671366 0.00682624
v 0.00834763 0.00645750 0.00687706
v 0.01010463 0.00990493 -0.00221598
v 0.00485884 0.00511489 0.00766919
v 0.00324800 0.00511489 0.00767367
v 0.00271072 0.00511489 0.00767517
v 0.00432156 0.00492316 0.00761239
v 0.00351614 0.00492211 0.00761389
v 0.00324800 0.00492159 0.00761389
v 0.00190531 0.00478644 0.00744500
v 0.00271072 0.00492106 0.00761389
v 0.00056261 0.00470681 0.00731049
v 0.00023500 0.00455333 0.00559620
v 0.00758254 0.00645750 0.00726266
v 0.00781035 0.00618929 0.00720288
v 0.00801800 0.00645750 0.00706687
v 0.00797970 0.00672624 0.00704744
v 0.00795551 0.00689491 0.00703399
v 0.00792728 0.00707355 0.00702054
v 0.00782648 0.00698816 0.00708032
v 0.00776096 0.00726265 0.00706836
v 0.00771660 0.00753086 0.00704744
v 0.00727408 0.00592056 0.00743304
v 0.00744847 0.00645750 0.00731198
v 0.00700493 0.00618929 0.00747190
v 0.00706542 0.00538362 0.00754962
v 0.00700493 0.00645750 0.00744051
v 0.00693034 0.00538362 0.00757802
v 0.00673680 0.00538362 0.00760940
v 0.00566325 0.00538362 0.00766919
v 0.00485884 0.00538362 0.00767517
v 0.00619952 0.00565235 0.00763332
v 0.00646866 0.00565235 0.00761538
v 0.00633258 0.00632235 0.00756606
v 0.00458969 0.00990493 0.00737326
v 0.00432156 0.00990493 0.00738970
v 0.00324800 0.00990493 0.00743753
v 0.00320466 0.00990493 0.00743902
v 0.00293652 0.00990493 0.00744649
v 0.00771963 0.00565235 -0.00721835
v 0.00769140 0.00583727 -0.00720639
v 0.00785370 0.00565235 -0.00716006
v 0.00781035 0.00618929 -0.00710626
v 0.00801800 0.00645750 -0.00697025
v 0.00807949 0.00565235 -0.00705096
v 0.00810369 0.00593733 -0.00699865
v 0.00823070 0.00585875 -0.00694185
v 0.00825590 0.00565235 -0.00695680
v 0.00838997 0.00565235 -0.00687460
v 0.00850589 0.00645750 -0.00667881
v 0.00853512 0.00618929 -0.00669973
v 0.00856335 0.00592056 -0.00672065
v 0.00859057 0.00565235 -0.00674008
v 0.00727408 0.00565235 -0.00737080
v 0.00754221 0.00565235 -0.00728411
v 0.00872463 0.00565235 -0.00664294
v 0.00881233 0.00645750 -0.00644565
v 0.00894741 0.00645750 -0.00633057
v 0.00866919 0.00618929 -0.00660258
v 0.00906636 0.00672624 -0.00617214
v 0.00922361 0.00645750 -0.00605706
v 0.00932340 0.00672624 -0.00589863
v 0.00930223 0.00699444 -0.00587472
v 0.00936977 0.00724537 -0.00574170
v 0.00982943 0.00716993 -0.00506017
v 0.00983952 0.00699444 -0.00507960
v 0.00934760 0.00779960 -0.00566249
v 0.00954215 0.00699444 -0.00556983
v 0.00948166 0.00779960 -0.00548613
v 0.00956331 0.00798347 -0.00533219
v 0.00967823 0.00779960 -0.00518572
v 0.00971351 0.00753086 -0.00518572
v 0.00975988 0.00726056 -0.00516479
v 0.00981835 0.00734856 -0.00504074
v 0.00987681 0.00726056 -0.00493762
v 0.00985766 0.00779960 -0.00485093
v 0.00994435 0.00779960 -0.00464916
v 0.00997258 0.00753086 -0.00464916
v 0.01009253 0.00685353 -0.00451316
v 0.00006767 0.00599442 -0.00618559
v 0.00006767 0.00625478 -0.00646359
v 0.00006767 0.00675924 -0.00676400
v 0.00008178 0.00538362 -0.00733343
v 0.00012412 0.00489435 -0.00733343
v 0.00012210 0.00538362 -0.00750979
v 0.00012513 0.00511489 -0.00750830
v 0.00014025 0.00495092 -0.00749186
v 0.00028137 0.00478015 -0.00731251
v 0.00056261 0.00478644 -0.00734688
v 0.00036201 0.00470838 0.00730600
v 0.00019468 0.00471886 0.00716252
v 0.00012412 0.00489435 0.00743155
v 0.00008480 0.00511489 0.00743155
v 0.00007876 0.00511489 0.00716252
v 0.00006767 0.00672624 0.00677244
v 0.00271072 0.00492054 -0.00751727
v 0.00056261 0.00511489 -0.00757705
v 0.00056261 0.00538362 -0.00758452
v 0.00297886 0.00538362 -0.00758303
v 0.00432156 0.00538362 -0.00757705
v 0.00458969 0.00538362 -0.00757555
v 0.00485884 0.00538362 -0.00757257
v 0.00458969 0.00565235 -0.00756210
v 0.00324800 0.00645750 -0.00753670
v 0.00271072 0.00990493 -0.00735286
v 0.00297886 0.00990493 -0.00734838
v 0.00324800 0.00990493 -0.00734091
v 0.00378428 0.00990493 -0.00732446
v 0.00382762 0.00990493 -0.00732297
v 0.00405342 0.00990493 -0.00731400
v 0.00646866 0.00565235 -0.00751876
v 0.00458969 0.00990493 -0.00728112
v 0.00463304 0.00990493 -0.00727813
v 0.00485884 0.00990493 -0.00726169
v 0.00660071 0.00605257 -0.00746795
v 0.00665616 0.00587394 -0.00747691
v 0.00674184 0.00564502 -0.00748588
v 0.00683558 0.00572988 -0.00746197
v 0.00673680 0.00618929 -0.00743058
v 0.00673680 0.00645750 -0.00740069
v 0.00700493 0.00618929 -0.00737528
v 0.00700493 0.00645750 -0.00734390
v 0.01009354 0.00767597 -0.00425011
v 0.01011471 0.00777917 -0.00412008
v 0.01013789 0.00753086 -0.00411261
v 0.01014596 0.00806780 -0.00384358
v 0.01009757 0.00877971 -0.00372850
v 0.01016108 0.00833654 -0.00357456
v 0.01009959 0.00907359 -0.00349086
v 0.01009051 0.00925274 -0.00340567
v 0.01009354 0.00982478 -0.00264493
v 0.01009051 0.00990493 -0.00258066
v 0.01009455 0.00990493 -0.00250145
v 0.00863089 0.00990493 0.00606251
v 0.00847162 0.00977344 0.00621645
v 0.00848371 0.00821029 0.00649295
v 0.00829824 0.00860475 0.00654974
v 0.00834763 0.00806780 0.00660953
v 0.00840509 0.00726265 0.00670966
v 0.00844037 0.00699444 0.00673208
v 0.00846557 0.00679538 0.00674852
v 0.00815207 0.00645750 0.00699513
v 0.00827102 0.00726265 0.00679635
v 0.00432156 0.00538362 0.00767815
v 0.00056261 0.00511489 0.00767517
v 0.00163616 0.00492054 0.00761389
v 0.00244259 0.00538362 0.00768264
v 0.00056261 0.00538362 0.00768413
v 0.00056261 0.00478644 0.00744500
v 0.00765713 0.00788027 0.00702054
v 0.00754221 0.00699444 0.00719989
v 0.00741823 0.00661780 0.00730152
v 0.00811377 0.00672624 0.00697420
v 0.00802708 0.00806780 0.00680681
v 0.00798877 0.00833654 0.00678439
v 0.00796055 0.00852460 0.00676945
v 0.00789603 0.00726265 0.00700559
v 0.00793434 0.00870375 0.00675450
v 0.00772971 0.00914169 0.00678738
v 0.00768838 0.00770111 0.00703399
v 0.00727408 0.00618929 0.00740016
v 0.00727408 0.00645750 0.00736728
v 0.00673680 0.00645750 0.00749731
v 0.00683357 0.00573250 0.00756008
v 0.00688800 0.00555335 0.00756905
v 0.00700493 0.00672624 0.00740763
v 0.00619952 0.00990493 0.00718942
v 0.00659567 0.00604786 0.00756457
v 0.00324800 0.00645750 0.00763481
v 0.00351614 0.00618929 0.00764677
v 0.00405342 0.00592056 0.00765573
v 0.00271072 0.00990493 0.00744948
v 0.00244259 0.00990493 0.00745247
v 0.00217344 0.00990493 0.00745546
v 0.00432156 0.00565235 0.00766620
v 0.00405342 0.00565235 0.00766769
v 0.00649084 0.00594309 0.00758549
v 0.00528523 0.00990493 0.00731198
v 0.00508464 0.00990493 0.00732992
v 0.00766318 0.00601643 -0.00719444
v 0.00756137 0.00592423 -0.00724376
v 0.00781035 0.00645750 -0.00706889
v 0.00763294 0.00618929 -0.00718397
v 0.00781035 0.00672624 -0.00703003
v 0.00797970 0.00672624 -0.00694932
v 0.00815207 0.00645750 -0.00689701
v 0.00818937 0.00618929 -0.00691794
v 0.00833150 0.00593733 -0.00686862
v 0.00834763 0.00618929 -0.00682079
v 0.00834763 0.00645750 -0.00678044
v 0.00848775 0.00661413 -0.00666685
v 0.00700493 0.00672624 -0.00731101
v 0.00727408 0.00618929 -0.00730504
v 0.00749887 0.00618929 -0.00723180
v 0.00878512 0.00672624 -0.00642323
v 0.00882947 0.00779960 -0.00619307
v 0.00900890 0.00734647 -0.00611684
v 0.00902603 0.00716784 -0.00613328
v 0.00863996 0.00645750 -0.00658016
v 0.00920042 0.00672624 -0.00603315
v 0.00927502 0.00732342 -0.00584333
v 0.00932542 0.00806780 -0.00563409
v 0.00923369 0.00779960 -0.00579551
v 0.00929619 0.00959743 -0.00533219
v 0.00954920 0.00816262 -0.00531126
v 0.00956533 0.00906730 -0.00506615
v 0.00961977 0.00833654 -0.00515433
v 0.00962682 0.00807095 -0.00520664
v 0.00977299 0.00806780 -0.00495256
v 0.00979113 0.00779960 -0.00498544
v 0.00984153 0.00806780 -0.00481805
v 0.00991411 0.00806780 -0.00464916
v 0.01001290 0.00806780 -0.00438014
v 0.01005120 0.00777917 -0.00435622
v 0.00006767 0.00701854 -0.00677446
v 0.00006767 0.00753086 -0.00678940
v 0.00006767 0.00779960 -0.00678940
v 0.00007876 0.00990493 -0.00706590
v 0.00008380 0.00565235 -0.00733343
v 0.00012412 0.00565235 -0.00750680
v 0.00029447 0.00538362 -0.00756808
v 0.00029447 0.00511489 -0.00756210
v 0.00029447 0.00492840 -0.00750979
v 0.00056261 0.00492054 -0.00751727
v 0.00028137 0.00478015 0.00740913
v 0.00014025 0.00495092 0.00758997
v 0.00012513 0.00511489 0.00760641
v 0.00012210 0.00538362 0.00760940
v 0.00008178 0.00538362 0.00743155
v 0.00006767 0.00699654 0.00686660
v 0.00297886 0.00565235 -0.00757257
v 0.00029447 0.00565235 -0.00755912
v 0.00029447 0.00618929 -0.00754118
v 0.00056261 0.00618929 -0.00755164
v 0.00244259 0.00618929 -0.00755164
v 0.00297886 0.00592056 -0.00756210
v 0.00324800 0.00592056 -0.00756061
v 0.00324800 0.00618929 -0.00754865
v 0.00297886 0.00645750 -0.00753819
v 0.00167951 0.00990493 -0.00736034
v 0.00221578 0.00990493 -0.00735735
v 0.00633056 0.00632078 -0.00746795
v 0.00516931 0.00990493 -0.00723330
v 0.00544450 0.00990493 -0.00720789
v 0.00552313 0.00990493 -0.00719892
v 0.00566123 0.00990493 -0.00718098
v 0.00593138 0.00990493 -0.00714213
v 0.00597372 0.00990493 -0.00713465
v 0.00619952 0.00990493 -0.00709430
v 0.00624286 0.00990493 -0.00708533
v 0.01008547 0.00785460 -0.00421573
v 0.01010664 0.00806780 -0.00403638
v 0.01010664 0.00860475 -0.00377334
v 0.01009757 0.00824591 -0.00399752
v 0.01011773 0.00833549 -0.00385554
v 0.01000483 0.00990493 -0.00357456
v 0.01008749 0.00895886 -0.00367021
v 0.01013487 0.00860475 -0.00357456
v 0.00995040 0.00990493 -0.00384358
v 0.01003507 0.00990493 -0.00330703
v 0.00845448 0.00990493 0.00620300
v 0.00843634 0.00990493 0.00621645
v 0.00832344 0.00990493 0.00629716
v 0.00836880 0.00968177 0.00630613
v 0.00839702 0.00887348 0.00643317
v 0.00819239 0.00941042 0.00647800
v 0.00823473 0.00909035 0.00650640
v 0.00821759 0.00767911 0.00676197
v 0.00832344 0.00778074 0.00667529
v 0.00351614 0.00592056 0.00765872
v 0.00297886 0.00565235 0.00767068
v 0.00029447 0.00511489 0.00766022
v 0.00029447 0.00492840 0.00760791
v 0.00056261 0.00492054 0.00761389
v 0.00163616 0.00592056 0.00766321
v 0.00163616 0.00565235 0.00767367
v 0.00083075 0.00592056 0.00766470
v 0.00056261 0.00592056 0.00766470
v 0.00029447 0.00592056 0.00765125
v 0.00029447 0.00565235 0.00766022
v 0.00029447 0.00538362 0.00766769
v 0.00747165 0.00990493 0.00679037
v 0.00743435 0.00990493 0.00680681
v 0.00741419 0.00848793 0.00703100
v 0.00716118 0.00717989 0.00730451
v 0.00728315 0.00671471 0.00732992
v 0.00716521 0.00907044 0.00703847
v 0.00690615 0.00967863 0.00704146
v 0.00687591 0.00982426 0.00703100
v 0.00809361 0.00778074 0.00681578
v 0.00819239 0.00785827 0.00674703
v 0.00795752 0.00990493 0.00653928
v 0.00779624 0.00942299 0.00670667
v 0.00769745 0.00934180 0.00677094
v 0.00781035 0.00990493 0.00661849
v 0.00712086 0.00735799 0.00729255
v 0.00673680 0.00618929 0.00752720
v 0.00593138 0.00990493 0.00723576
v 0.00674083 0.00594309 0.00755261
v 0.00673680 0.00941042 0.00712665
v 0.00646866 0.00990493 0.00713114
v 0.00593138 0.00967863 0.00725967
v 0.00297886 0.00645750 0.00763631
v 0.00324800 0.00618929 0.00764826
v 0.00105655 0.00990493 0.00745546
v 0.00163616 0.00618929 0.00765125
v 0.00741923 0.00661885 -0.00720340
v 0.00758354 0.00645750 -0.00716454
v 0.00754221 0.00753086 -0.00702256
v 0.00762286 0.00806780 -0.00690897
v 0.00765713 0.00788027 -0.00692242
v 0.00771660 0.00753086 -0.00694932
v 0.00776096 0.00726265 -0.00697025
v 0.00782648 0.00698816 -0.00698221
v 0.00792627 0.00707355 -0.00692242
v 0.00811377 0.00672624 -0.00687609
v 0.00796055 0.00852460 -0.00667133
v 0.00798877 0.00833654 -0.00668628
v 0.00802708 0.00806780 -0.00670870
v 0.00819139 0.00785669 -0.00665041
v 0.00827001 0.00726265 -0.00669823
v 0.00832243 0.00778021 -0.00657717
v 0.00834763 0.00806780 -0.00651141
v 0.00848371 0.00821029 -0.00639633
v 0.00850085 0.00806780 -0.00640829
v 0.00702207 0.00726842 -0.00723479
v 0.00716319 0.00718303 -0.00720639
v 0.00727408 0.00645750 -0.00727066
v 0.00646866 0.00967863 -0.00706291
v 0.00646866 0.00990493 -0.00703452
v 0.00651100 0.00990493 -0.00702405
v 0.00673680 0.00941042 -0.00703003
v 0.00876395 0.00692425 -0.00640530
v 0.00877302 0.00833654 -0.00614524
v 0.00896354 0.00779960 -0.00607350
v 0.00899075 0.00753086 -0.00609891
v 0.00907442 0.00806780 -0.00591358
v 0.00909962 0.00779960 -0.00593899
v 0.00915103 0.00724537 -0.00598831
v 0.00872665 0.00726265 -0.00637541
v 0.00920849 0.00806780 -0.00576860
v 0.00930123 0.00833654 -0.00560570
v 0.00926998 0.00990493 -0.00529781
v 0.00936473 0.00990493 -0.00516629
v 0.00938792 0.00990493 -0.00513191
v 0.00950082 0.00990493 -0.00496153
v 0.00958146 0.00990493 -0.00482702
v 0.00983044 0.00824591 -0.00479563
v 0.00982137 0.00925274 -0.00450568
v 0.00987278 0.00833549 -0.00466710
v 0.00983145 0.00986878 -0.00426505
v 0.00987076 0.00990493 -0.00412755
v 0.00990201 0.00967863 -0.00411261
v 0.01007439 0.00806780 -0.00417090
v 0.00006767 0.00806780 -0.00677894
v 0.00008480 0.00990493 -0.00709579
v 0.00008984 0.00618929 -0.00733343
v 0.00006767 0.00833392 -0.00676699
v 0.00006767 0.00860475 -0.00664742
v 0.00006767 0.00887348 -0.00644565
v 0.00006767 0.00914169 -0.00618410
v 0.00006767 0.00933080 -0.00599130
v 0.00006767 0.00959848 -0.00545474
v 0.00006767 0.00964039 -0.00518572
v 0.00006767 0.00965296 -0.00491669
v 0.00007876 0.00990493 0.00716252
v 0.00013017 0.00618929 -0.00749784
v 0.00011908 0.00990493 -0.00725422
v 0.00013420 0.00645750 -0.00749335
v 0.00014025 0.00672624 -0.00748588
v 0.00015940 0.00740304 -0.00746795
v 0.00012613 0.00592056 0.00760193
v 0.00012311 0.00565235 0.00760492
v 0.00008480 0.00592056 0.00743155
v 0.00008279 0.00565235 0.00743155
v 0.00006767 0.00831139 0.00687108
v 0.00006767 0.00779960 0.00689051
v 0.00006767 0.00752615 0.00689051
v 0.00029447 0.00645750 -0.00752922
v 0.00056261 0.00645750 -0.00753968
v 0.00297886 0.00618929 -0.00755015
v 0.00109989 0.00645750 -0.00753968
v 0.00141036 0.00990493 -0.00736183
v 0.00812486 0.00990493 0.00643317
v 0.00815610 0.00967863 0.00645409
v 0.00799079 0.00990493 0.00651985
v 0.00271072 0.00618929 0.00764976
v 0.00056261 0.00618929 0.00765125
v 0.00029447 0.00618929 0.00764079
v 0.00015940 0.00740933 0.00756606
v 0.00015436 0.00726265 0.00757054
v 0.00014025 0.00672624 0.00758399
v 0.00012916 0.00618929 0.00759745
v 0.00758455 0.00990493 0.00673507
v 0.00727408 0.00990493 0.00687407
v 0.00733859 0.00887348 0.00700260
v 0.00727408 0.00941042 0.00694730
v 0.00698679 0.00990493 0.00698018
v 0.00677208 0.00990493 0.00705043
v 0.00674184 0.00990493 0.00705940
v 0.00760572 0.00990493 0.00672461
v 0.00056261 0.00990493 0.00745397
v 0.00752205 0.00671524 -0.00715109
v 0.00720352 0.00699444 -0.00721984
v 0.00687591 0.00982426 -0.00693289
v 0.00696159 0.00941042 -0.00696278
v 0.00716521 0.00907044 -0.00694036
v 0.00727408 0.00833654 -0.00700761
v 0.00733859 0.00887348 -0.00690598
v 0.00737891 0.00866708 -0.00692093
v 0.00744040 0.00833654 -0.00694484
v 0.00747165 0.00990493 -0.00669375
v 0.00768838 0.00770111 -0.00693587
v 0.00785067 0.00753086 -0.00688655
v 0.00777305 0.00887348 -0.00671169
v 0.00793434 0.00870375 -0.00665639
v 0.00809361 0.00778021 -0.00671766
v 0.00799079 0.00990493 -0.00642323
v 0.00821155 0.00926951 -0.00639334
v 0.00829824 0.00860475 -0.00645163
v 0.00863492 0.00806780 -0.00630367
v 0.00866617 0.00779960 -0.00632758
v 0.00846053 0.00838945 -0.00637989
v 0.00835368 0.00990493 -0.00617812
v 0.00847162 0.00977344 -0.00611834
v 0.00849379 0.00959481 -0.00613478
v 0.00854823 0.00914169 -0.00617663
v 0.00712187 0.00736166 -0.00719444
v 0.00675797 0.00990493 -0.00695829
v 0.00674184 0.00990493 -0.00696278
v 0.00875588 0.00849526 -0.00613029
v 0.00893632 0.00806780 -0.00604809
v 0.00904821 0.00833654 -0.00588668
v 0.00904317 0.00967863 -0.00561466
v 0.00907644 0.00990493 -0.00552648
v 0.00915305 0.00990493 -0.00543681
v 0.00967017 0.00990493 -0.00464916
v 0.00981835 0.00842454 -0.00476873
v 0.00981129 0.00941042 -0.00447878
v 0.00979415 0.00990493 -0.00435324
v 0.00981129 0.00990493 -0.00430690
v 0.00982843 0.00990493 -0.00425908
v 0.00006767 0.00965296 0.00501481
v 0.00006767 0.00963724 0.00551101
v 0.00006767 0.00960686 0.00574865
v 0.00006767 0.00932189 0.00626876
v 0.00006767 0.00905420 0.00653779
v 0.00006767 0.00857070 0.00686062
v 0.00011908 0.00990493 0.00735084
v 0.00014730 0.00990493 -0.00726767
v 0.00056261 0.00990493 -0.00736034
v 0.00029447 0.00990493 -0.00733493
v 0.00033681 0.00990493 -0.00733941
v 0.00040536 0.00769116 -0.00746944
v 0.00109989 0.00990493 -0.00736183
v 0.00029447 0.00672624 0.00761239
v 0.00031262 0.00751148 0.00757054
v 0.00029447 0.00990493 0.00742856
v 0.00013420 0.00645750 0.00758997
v 0.00685776 0.00990493 -0.00692691
v 0.00695756 0.00990493 -0.00689253
v 0.00700796 0.00990493 -0.00687460
v 0.00727408 0.00967863 -0.00681033
v 0.00727408 0.00990493 -0.00677595
v 0.00749282 0.00990493 -0.00668329
v 0.00766822 0.00952095 -0.00665938
v 0.00790712 0.00887348 -0.00664294
v 0.00784462 0.00990493 -0.00650244
v 0.00812486 0.00990493 -0.00633505
v 0.00815610 0.00967863 -0.00635598
v 0.00832344 0.00990493 -0.00619904
v 0.00845448 0.00990493 -0.00610638
v 0.00871355 0.00887348 -0.00609442
v 0.00863089 0.00990493 -0.00596141
v 0.00875790 0.00984678 -0.00586426
v 0.00896555 0.00914169 -0.00580447
v 0.00902603 0.00985202 -0.00559673
v 0.00902099 0.00990493 -0.00559075
v 0.00978508 0.00990493 -0.00437715
v 0.00760572 0.00990493 -0.00662650
v 0.00763193 0.00990493 -0.00661304
v 0.00781035 0.00990493 -0.00652038
v 0.00779725 0.00942299 -0.00660856
v 0.00786478 0.00914169 -0.00662052
v 0.00875185 0.00990493 -0.00585828
v 0.00891011 0.00967863 -0.00574918
v 0.00893934 0.00990493 -0.00567295
v 0.00888693 0.00990493 -0.00572526
f 213 212 214
f 214 141 213
f 213 141 212
f 538 615 487
f 886 887 743
f 743 885 886
f 743 887 888
f 236 163 162
f 164 163 236
f 904 896 976
f 258 340 341
f 257 185 258
f 258 339 257
f 342 339 258
f 341 342 258
f 889 890 743
f 743 888 889
f 126 74 109
f 109 74 56
f 109 162 163
f 163 164 109
f 675 808 809
f 30 8 7
f 26 27 7
f 7 8 1
f 1 10 11
f 31 8 30
f 30 10 31
f 38 37 86
f 14 37 38
f 2 18 3
f 2 3 1
f 1 13 2
f 14 15 2
f 212 141 140
f 141 84 140
f 216 194 141
f 215 141 214
f 215 216 141
f 194 216 276
f 216 215 276
f 729 868 730
f 484 485 380
f 904 905 759
f 979 904 976
f 976 905 979
f 979 905 904
f 764 907 908
f 629 630 497
f 497 628 629
f 628 626 629
f 493 622 623
f 214 212 299
f 212 298 300
f 298 387 300
f 212 140 211
f 211 140 210
f 211 298 212
f 295 294 380
f 210 294 295
f 381 295 380
f 485 484 613
f 484 612 613
f 382 490 383
f 485 613 614
f 537 674 615
f 615 538 537
f 615 674 750
f 618 751 752
f 487 618 619
f 754 619 618
f 755 619 754
f 555 694 695
f 695 694 829
f 190 191 126
f 187 188 126
f 340 258 271
f 445 442 554
f 353 442 445
f 891 968 969
f 969 970 891
f 119 61 60
f 60 32 59
f 61 32 60
f 33 73 34
f 34 13 33
f 74 73 33
f 56 74 33
f 33 32 56
f 52 32 27
f 12 10 30
f 12 11 10
f 12 13 1
f 1 11 12
f 27 32 29
f 30 7 29
f 32 12 29
f 29 12 30
f 108 109 56
f 56 32 55
f 165 164 236
f 165 109 164
f 26 101 50
f 50 27 26
f 6 7 1
f 59 32 58
f 58 32 57
f 8 31 9
f 9 31 10
f 1 8 9
f 9 10 1
f 1 3 4
f 14 38 39
f 209 294 210
f 210 140 209
f 845 943 944
f 130 84 141
f 36 75 84
f 36 37 14
f 772 645 640
f 962 873 872
f 976 896 978
f 896 977 978
f 896 893 975
f 975 977 896
f 881 882 743
f 893 882 881
f 745 882 893
f 623 622 747
f 483 484 380
f 380 482 483
f 774 775 645
f 760 907 764
f 623 759 760
f 623 756 624
f 624 493 623
f 761 756 623
f 623 760 761
f 980 905 976
f 497 632 633
f 497 630 631
f 631 632 497
f 630 629 766
f 496 387 495
f 496 388 387
f 495 626 496
f 497 388 496
f 389 388 497
f 296 211 210
f 210 295 296
f 296 295 382
f 382 383 296
f 485 614 486
f 380 485 486
f 486 381 380
f 748 613 612
f 612 747 748
f 749 614 748
f 748 614 613
f 748 622 749
f 748 747 622
f 431 432 342
f 431 342 341
f 616 750 751
f 487 615 616
f 615 750 616
f 798 674 799
f 798 750 674
f 751 750 798
f 799 670 798
f 487 619 620
f 620 619 755
f 753 806 897
f 752 806 753
f 618 752 753
f 753 754 618
f 891 970 971
f 971 972 891
f 669 556 701
f 701 695 829
f 446 353 445
f 696 556 555
f 555 695 696
f 696 695 556
f 126 109 175
f 175 174 247
f 109 174 175
f 188 187 261
f 191 190 189
f 126 188 189
f 189 190 126
f 126 191 192
f 192 185 126
f 192 258 185
f 192 271 258
f 340 271 352
f 249 180 178
f 117 60 59
f 53 32 72
f 32 71 72
f 70 32 69
f 70 71 32
f 28 7 27
f 27 29 28
f 28 29 7
f 162 109 161
f 109 108 161
f 54 32 53
f 54 55 32
f 56 55 105
f 247 174 246
f 236 162 235
f 167 168 109
f 336 261 247
f 343 261 336
f 51 102 57
f 101 102 51
f 51 50 101
f 57 32 51
f 32 52 51
f 51 52 27
f 27 50 51
f 57 102 114
f 114 58 57
f 115 58 114
f 25 24 47
f 6 24 25
f 5 6 1
f 1 4 5
f 92 150 151
f 41 15 14
f 89 44 41
f 150 92 91
f 91 44 89
f 91 92 44
f 845 944 945
f 937 935 989
f 835 935 937
f 141 194 193
f 193 130 141
f 194 130 193
f 77 132 133
f 35 36 14
f 75 36 35
f 644 640 645
f 497 635 498
f 498 389 497
f 727 868 729
f 727 867 868
f 866 867 727
f 959 867 866
f 138 82 137
f 468 474 590
f 869 730 868
f 731 871 872
f 730 871 731
f 77 130 131
f 131 132 77
f 81 36 80
f 80 82 81
f 81 82 36
f 83 82 86
f 37 36 83
f 36 82 83
f 884 885 743
f 743 883 884
f 743 882 744
f 744 608 743
f 882 745 744
f 742 608 741
f 743 608 742
f 623 747 746
f 611 747 612
f 611 612 482
f 611 746 747
f 609 612 484
f 484 483 609
f 482 612 609
f 609 483 482
f 639 768 767
f 639 498 638
f 773 645 772
f 773 774 645
f 989 935 988
f 834 709 708
f 835 709 834
f 756 761 625
f 625 624 756
f 625 626 495
f 495 624 625
f 906 760 764
f 906 761 760
f 626 625 762
f 762 625 761
f 634 635 497
f 497 633 634
f 765 766 629
f 495 384 494
f 494 384 493
f 494 624 495
f 493 624 494
f 491 383 490
f 385 384 495
f 383 384 297
f 297 296 383
f 384 385 297
f 298 211 297
f 211 296 297
f 297 387 298
f 497 496 627
f 627 496 626
f 627 628 497
f 627 626 628
f 387 388 301
f 388 389 301
f 212 300 301
f 301 300 387
f 382 488 489
f 489 490 382
f 669 672 531
f 673 670 531
f 531 672 673
f 430 431 341
f 899 974 891
f 487 616 617
f 617 616 751
f 617 618 487
f 617 751 618
f 797 670 673
f 673 806 797
f 797 798 670
f 751 798 797
f 797 752 751
f 797 806 752
f 755 754 903
f 754 902 903
f 891 972 973
f 805 806 673
f 829 694 828
f 673 802 803
f 803 913 914
f 556 695 700
f 700 701 556
f 695 701 700
f 801 800 802
f 672 800 801
f 801 802 673
f 673 672 801
f 795 701 829
f 669 701 795
f 557 446 445
f 561 446 557
f 186 187 126
f 126 175 186
f 186 175 247
f 264 188 263
f 247 261 260
f 260 261 187
f 548 439 436
f 436 439 437
f 266 267 191
f 191 189 266
f 265 189 188
f 265 188 264
f 267 266 265
f 265 266 189
f 264 347 265
f 191 267 268
f 270 192 274
f 271 192 270
f 441 554 442
f 551 440 439
f 443 447 555
f 925 826 825
f 560 557 445
f 561 557 560
f 559 560 445
f 253 249 251
f 251 178 250
f 251 249 178
f 322 405 319
f 250 252 320
f 250 178 179
f 179 252 250
f 101 100 158
f 160 102 158
f 158 102 101
f 49 101 26
f 49 100 101
f 321 322 231
f 231 320 232
f 322 319 231
f 231 319 250
f 250 320 231
f 69 32 68
f 32 67 68
f 125 67 66
f 66 67 32
f 32 63 64
f 62 32 61
f 62 63 32
f 56 111 112
f 112 113 56
f 56 113 106
f 55 54 104
f 110 111 56
f 56 105 110
f 244 171 243
f 173 174 109
f 173 244 174
f 171 244 173
f 169 168 243
f 109 168 169
f 676 675 809
f 676 539 675
f 435 434 540
f 544 545 434
f 544 684 682
f 434 545 546
f 545 544 546
f 345 434 435
f 345 433 434
f 408 514 409
f 109 165 166
f 166 167 109
f 165 167 166
f 684 544 683
f 44 90 43
f 22 4 21
f 22 5 4
f 23 24 6
f 6 5 23
f 5 22 23
f 46 43 90
f 47 24 46
f 46 95 47
f 14 39 40
f 40 41 14
f 89 41 40
f 87 38 86
f 87 39 38
f 710 709 840
f 569 709 710
f 448 566 567
f 707 709 569
f 708 709 707
f 129 130 77
f 77 128 129
f 84 130 129
f 129 128 84
f 84 128 127
f 127 128 77
f 78 36 77
f 77 133 78
f 133 134 78
f 640 644 643
f 767 640 636
f 636 639 767
f 498 639 636
f 499 643 500
f 500 391 499
f 499 636 640
f 498 636 499
f 637 498 635
f 638 498 637
f 772 640 771
f 640 770 771
f 769 770 640
f 767 768 769
f 769 640 767
f 868 867 961
f 1012 1003 1002
f 1012 1011 1013
f 1002 1011 1012
f 729 730 594
f 594 727 729
f 194 276 275
f 275 355 356
f 275 276 355
f 569 710 711
f 82 138 139
f 139 142 86
f 86 82 139
f 604 738 739
f 739 738 776
f 652 779 784
f 151 150 224
f 649 776 777
f 309 395 396
f 873 962 963
f 963 874 873
f 962 874 963
f 737 874 738
f 217 304 218
f 378 393 379
f 872 873 734
f 734 731 872
f 282 370 283
f 283 205 282
f 870 871 730
f 730 869 870
f 86 37 85
f 85 83 86
f 37 83 85
f 608 744 610
f 610 744 745
f 482 608 610
f 610 611 482
f 745 746 610
f 746 611 610
f 880 883 743
f 743 742 880
f 758 759 623
f 904 759 758
f 896 904 758
f 989 988 987
f 932 986 987
f 934 988 935
f 932 987 934
f 934 987 988
f 928 934 935
f 832 934 928
f 719 832 708
f 718 832 719
f 930 832 929
f 936 935 835
f 835 834 936
f 359 453 454
f 645 775 647
f 775 717 647
f 647 646 645
f 718 717 853
f 853 832 718
f 929 832 853
f 763 629 626
f 626 762 763
f 493 384 492
f 492 491 493
f 492 384 383
f 383 491 492
f 493 491 621
f 621 489 488
f 621 491 490
f 490 489 621
f 495 387 386
f 386 385 495
f 387 297 386
f 386 297 385
f 500 643 501
f 646 647 501
f 645 646 501
f 501 644 645
f 501 643 644
f 302 301 389
f 302 299 212
f 212 301 302
f 425 531 532
f 532 531 533
f 532 427 425
f 533 427 532
f 431 430 535
f 430 536 535
f 428 427 533
f 341 427 428
f 341 340 426
f 426 427 341
f 340 425 426
f 425 427 426
f 918 974 897
f 897 806 918
f 806 805 918
f 918 805 917
f 983 974 915
f 915 927 983
f 555 447 564
f 915 914 981
f 914 913 981
f 913 927 981
f 891 754 900
f 900 899 891
f 754 753 900
f 753 899 900
f 897 974 898
f 974 899 898
f 898 753 897
f 898 899 753
f 891 973 901
f 901 754 891
f 901 902 754
f 804 914 915
f 804 803 914
f 804 805 673
f 673 803 804
f 912 795 829
f 800 795 912
f 802 800 912
f 912 831 802
f 829 828 912
f 828 831 912
f 796 672 669
f 669 795 796
f 796 800 672
f 796 795 800
f 809 808 920
f 259 186 247
f 187 186 259
f 247 260 259
f 259 260 187
f 188 261 262
f 262 263 188
f 262 261 343
f 348 265 347
f 347 437 348
f 348 437 439
f 269 192 191
f 191 268 269
f 269 268 192
f 440 441 350
f 350 268 267
f 350 441 442
f 267 265 350
f 442 353 350
f 351 352 271
f 271 270 351
f 351 270 274
f 351 443 352
f 690 554 553
f 553 551 690
f 554 441 553
f 553 441 440
f 440 551 553
f 691 825 826
f 691 686 687
f 352 443 444
f 555 556 444
f 444 443 555
f 810 687 811
f 703 559 693
f 704 559 703
f 560 559 704
f 338 256 253
f 253 251 338
f 337 405 423
f 252 179 248
f 232 320 248
f 248 320 252
f 160 158 116
f 116 115 160
f 60 117 116
f 116 117 59
f 59 58 116
f 116 58 115
f 157 231 232
f 100 49 99
f 32 64 65
f 65 66 32
f 125 66 65
f 63 62 120
f 119 180 120
f 120 61 119
f 120 62 61
f 123 122 181
f 123 64 63
f 63 122 123
f 107 108 56
f 56 106 107
f 103 54 53
f 103 104 54
f 109 171 172
f 172 173 109
f 171 173 172
f 243 171 170
f 170 169 243
f 170 171 109
f 109 169 170
f 547 546 544
f 547 544 682
f 434 546 547
f 675 539 547
f 547 539 434
f 433 345 344
f 344 262 343
f 263 262 344
f 264 263 344
f 344 345 264
f 435 540 438
f 438 539 436
f 434 539 438
f 438 540 434
f 421 344 343
f 433 344 421
f 343 336 421
f 678 793 815
f 667 793 678
f 682 684 807
f 808 675 807
f 234 235 162
f 325 408 409
f 235 234 325
f 236 235 325
f 335 336 247
f 335 419 336
f 909 910 788
f 788 910 791
f 820 683 817
f 662 793 794
f 668 793 667
f 657 656 785
f 507 656 657
f 657 508 507
f 16 2 15
f 16 41 44
f 44 43 16
f 228 225 313
f 228 230 229
f 229 152 228
f 230 152 229
f 227 225 228
f 228 152 227
f 227 152 225
f 151 225 148
f 225 152 148
f 153 152 230
f 507 508 398
f 398 311 397
f 144 87 86
f 943 994 995
f 995 944 943
f 840 709 839
f 836 709 835
f 836 837 709
f 835 937 836
f 840 837 939
f 939 837 937
f 840 939 940
f 940 939 937
f 842 943 845
f 450 448 355
f 356 355 449
f 355 448 449
f 449 448 569
f 569 448 568
f 568 707 569
f 568 448 567
f 567 566 568
f 566 705 568
f 708 707 568
f 568 705 708
f 76 36 84
f 84 127 76
f 77 36 76
f 76 127 77
f 36 78 79
f 79 78 134
f 80 36 79
f 79 134 80
f 643 499 642
f 1002 1003 960
f 960 959 1002
f 867 959 960
f 960 961 867
f 1013 1011 1010
f 132 131 196
f 196 131 130
f 195 130 194
f 194 275 195
f 195 196 130
f 841 942 845
f 845 711 841
f 841 711 710
f 137 82 136
f 136 82 80
f 279 199 278
f 845 945 848
f 866 727 728
f 728 726 863
f 727 594 592
f 592 728 727
f 726 728 592
f 604 739 648
f 648 739 776
f 776 649 648
f 649 504 648
f 784 779 879
f 776 738 879
f 777 776 879
f 879 779 777
f 781 652 784
f 650 649 777
f 650 504 649
f 145 144 219
f 87 144 145
f 150 91 147
f 147 224 150
f 738 874 876
f 967 877 876
f 876 877 738
f 873 874 875
f 875 737 873
f 874 737 875
f 476 477 377
f 377 376 476
f 393 378 479
f 305 218 304
f 604 479 478
f 478 479 378
f 377 477 478
f 478 378 377
f 873 737 736
f 732 734 596
f 731 734 732
f 596 733 732
f 474 597 598
f 596 734 735
f 735 597 596
f 735 734 873
f 873 736 735
f 372 291 284
f 207 205 284
f 205 283 284
f 468 376 371
f 371 283 370
f 292 291 372
f 372 284 292
f 292 284 283
f 292 371 376
f 283 371 292
f 292 376 377
f 293 304 217
f 293 292 377
f 377 378 293
f 379 304 293
f 293 378 379
f 741 608 740
f 608 607 740
f 481 607 608
f 481 480 605
f 481 608 482
f 380 480 481
f 481 482 380
f 892 746 745
f 892 894 746
f 892 745 893
f 893 894 892
f 895 893 896
f 895 894 893
f 896 746 895
f 746 894 895
f 623 746 757
f 757 758 623
f 757 746 896
f 896 758 757
f 933 832 932
f 932 934 933
f 933 934 832
f 708 832 833
f 832 928 833
f 833 928 935
f 935 936 833
f 833 834 708
f 833 936 834
f 706 719 708
f 708 705 706
f 706 705 566
f 986 930 985
f 931 986 932
f 931 930 986
f 932 832 931
f 832 930 931
f 276 359 360
f 360 359 454
f 857 851 717
f 775 855 854
f 854 717 775
f 854 855 717
f 851 857 953
f 717 851 852
f 929 853 852
f 852 853 717
f 851 953 852
f 579 717 718
f 579 647 717
f 454 453 579
f 453 501 579
f 579 501 647
f 390 499 391
f 389 498 390
f 498 499 390
f 303 359 276
f 303 276 215
f 303 215 214
f 303 390 391
f 214 299 303
f 299 302 303
f 303 302 389
f 389 390 303
f 534 536 430
f 534 428 533
f 533 531 534
f 531 536 534
f 671 536 531
f 671 535 536
f 429 430 341
f 341 428 429
f 429 534 430
f 428 534 429
f 984 917 974
f 974 918 984
f 984 918 917
f 555 564 697
f 562 446 561
f 982 927 915
f 915 981 982
f 982 981 927
f 916 804 915
f 915 974 916
f 974 917 916
f 917 805 916
f 805 804 916
f 699 831 828
f 699 828 694
f 699 694 555
f 677 810 811
f 814 810 677
f 539 676 677
f 811 687 677
f 677 676 809
f 809 812 677
f 814 812 923
f 812 920 923
f 921 812 809
f 809 920 921
f 192 268 272
f 268 350 272
f 273 353 274
f 273 350 353
f 274 192 273
f 192 272 273
f 273 272 350
f 265 348 349
f 349 350 265
f 440 350 349
f 439 440 349
f 349 348 439
f 354 351 274
f 443 351 354
f 274 353 354
f 353 446 354
f 446 447 354
f 447 443 354
f 439 548 552
f 548 686 552
f 686 691 552
f 352 444 424
f 424 425 340
f 340 352 424
f 425 424 529
f 529 424 444
f 529 556 669
f 529 444 556
f 825 691 821
f 925 825 821
f 821 691 687
f 687 810 821
f 821 814 925
f 821 810 814
f 558 559 445
f 445 554 558
f 554 693 558
f 689 554 690
f 689 693 554
f 703 693 827
f 407 405 322
f 407 423 405
f 513 423 407
f 401 402 316
f 118 179 178
f 119 60 118
f 60 116 118
f 100 99 156
f 121 122 63
f 63 120 121
f 121 120 180
f 124 123 125
f 64 123 124
f 125 65 124
f 124 65 64
f 434 541 542
f 542 541 667
f 667 678 542
f 346 437 347
f 436 437 346
f 346 438 436
f 346 345 435
f 435 438 346
f 346 347 264
f 264 345 346
f 667 541 524
f 420 421 336
f 819 807 684
f 684 683 819
f 685 547 682
f 682 807 685
f 675 547 685
f 685 807 675
f 329 325 409
f 325 329 238
f 336 419 418
f 419 335 418
f 910 909 911
f 911 791 910
f 792 793 662
f 792 791 793
f 662 661 792
f 792 661 791
f 818 820 926
f 683 820 818
f 926 819 818
f 818 819 683
f 817 683 681
f 681 683 544
f 679 678 815
f 815 793 679
f 20 19 43
f 20 22 21
f 21 4 20
f 20 4 3
f 3 19 20
f 18 2 17
f 2 16 17
f 3 18 17
f 17 19 3
f 15 41 42
f 42 16 15
f 41 16 42
f 95 46 94
f 151 148 93
f 93 148 90
f 93 92 151
f 93 90 44
f 44 92 93
f 154 153 230
f 154 159 155
f 230 159 154
f 312 224 311
f 311 398 312
f 143 218 219
f 219 144 143
f 143 142 217
f 217 218 143
f 86 142 143
f 143 144 86
f 996 995 994
f 996 949 944
f 944 995 996
f 709 837 838
f 838 839 709
f 838 837 840
f 840 839 838
f 937 837 938
f 938 836 937
f 837 836 938
f 943 992 993
f 991 940 937
f 992 940 991
f 941 992 943
f 943 842 941
f 941 842 840
f 840 940 941
f 941 940 992
f 845 942 844
f 942 841 844
f 844 841 710
f 566 448 565
f 448 450 565
f 454 566 565
f 565 450 454
f 569 711 712
f 712 711 845
f 845 715 712
f 640 643 641
f 643 642 641
f 641 499 640
f 641 642 499
f 999 1010 998
f 1001 1011 1002
f 723 722 863
f 583 722 723
f 137 136 204
f 197 133 132
f 197 134 133
f 358 278 275
f 277 195 275
f 275 278 277
f 196 195 277
f 198 278 199
f 198 197 132
f 199 197 198
f 132 196 198
f 196 277 198
f 198 277 278
f 366 358 452
f 279 366 365
f 365 366 456
f 944 949 948
f 847 716 845
f 845 848 847
f 847 848 716
f 845 716 846
f 846 715 845
f 716 715 846
f 595 732 733
f 595 594 730
f 595 471 594
f 595 733 596
f 596 471 595
f 730 731 595
f 731 732 595
f 286 205 285
f 282 205 286
f 286 370 282
f 286 290 370
f 502 479 604
f 394 504 395
f 395 309 394
f 393 479 394
f 479 502 394
f 878 877 784
f 784 879 878
f 738 877 878
f 878 879 738
f 506 398 397
f 507 398 506
f 652 653 506
f 785 656 655
f 655 656 507
f 507 506 655
f 652 781 782
f 310 309 396
f 310 396 397
f 397 311 310
f 967 876 966
f 477 476 603
f 604 478 603
f 603 478 477
f 603 738 604
f 600 476 475
f 475 476 376
f 475 376 468
f 219 218 307
f 601 476 600
f 601 600 590
f 601 736 737
f 208 293 217
f 291 292 208
f 292 293 208
f 207 284 208
f 208 284 291
f 217 142 208
f 142 139 208
f 208 138 207
f 208 139 138
f 606 481 605
f 607 481 606
f 719 706 580
f 718 719 580
f 580 566 454
f 580 706 566
f 580 579 718
f 454 579 580
f 954 985 930
f 954 852 953
f 954 930 929
f 929 852 954
f 954 857 955
f 954 953 857
f 361 450 355
f 355 276 361
f 276 360 361
f 454 450 361
f 361 360 454
f 955 857 856
f 717 855 856
f 856 857 717
f 392 303 391
f 359 303 392
f 392 391 500
f 500 501 392
f 453 359 392
f 392 501 453
f 563 447 446
f 446 562 563
f 563 564 447
f 830 927 913
f 555 697 698
f 698 699 555
f 813 812 814
f 814 677 813
f 813 677 812
f 436 539 549
f 539 677 549
f 549 677 687
f 687 686 549
f 549 548 436
f 549 686 548
f 925 814 924
f 814 923 924
f 922 920 812
f 812 921 922
f 922 921 920
f 690 551 550
f 550 689 690
f 550 551 439
f 439 552 550
f 530 531 425
f 425 529 530
f 669 531 530
f 530 529 669
f 702 693 559
f 559 558 702
f 702 558 693
f 688 550 552
f 689 550 688
f 692 691 826
f 692 552 691
f 692 688 552
f 404 322 321
f 513 402 512
f 512 528 423
f 512 423 513
f 512 511 528
f 402 511 512
f 176 116 158
f 232 248 176
f 176 157 232
f 176 248 179
f 125 123 184
f 123 183 184
f 181 253 182
f 182 123 181
f 182 183 123
f 182 256 254
f 253 256 182
f 543 542 678
f 678 679 543
f 543 544 434
f 434 542 543
f 543 679 680
f 543 681 544
f 680 681 543
f 525 524 541
f 434 433 525
f 525 541 434
f 433 421 525
f 421 524 525
f 523 524 421
f 421 420 523
f 919 819 926
f 807 819 919
f 237 238 167
f 325 238 237
f 236 325 237
f 237 165 236
f 237 167 165
f 328 238 327
f 324 323 408
f 408 325 324
f 234 323 324
f 324 325 234
f 247 246 332
f 332 333 247
f 660 661 516
f 516 410 515
f 409 514 515
f 515 410 409
f 791 661 790
f 517 661 662
f 516 661 517
f 816 911 817
f 817 681 816
f 793 791 816
f 791 911 816
f 816 681 680
f 816 679 793
f 680 679 816
f 24 23 45
f 45 46 24
f 45 23 22
f 22 20 45
f 43 46 45
f 45 20 43
f 90 148 149
f 152 94 149
f 149 148 152
f 153 154 97
f 97 98 48
f 226 225 151
f 226 313 225
f 151 224 226
f 224 312 226
f 399 312 398
f 399 508 401
f 399 398 508
f 1007 993 1008
f 1008 991 1007
f 843 842 845
f 845 844 843
f 843 844 710
f 843 710 840
f 840 842 843
f 569 712 571
f 573 451 449
f 452 451 573
f 573 574 452
f 1000 1010 1011
f 1011 1001 1000
f 998 1010 1000
f 135 201 136
f 80 134 135
f 135 136 80
f 134 197 135
f 135 197 199
f 285 205 206
f 206 205 137
f 206 286 285
f 290 286 206
f 206 289 290
f 288 289 206
f 356 449 357
f 449 451 357
f 357 275 356
f 357 358 275
f 357 451 452
f 452 358 357
f 583 458 582
f 456 366 460
f 201 135 200
f 200 199 279
f 200 135 199
f 281 206 201
f 201 200 281
f 281 368 369
f 998 952 951
f 849 951 952
f 849 850 716
f 716 848 849
f 849 848 945
f 849 945 944
f 944 948 849
f 849 948 949
f 713 712 715
f 574 573 713
f 726 592 588
f 370 290 375
f 290 289 375
f 468 371 375
f 375 371 370
f 375 474 468
f 373 288 369
f 373 289 288
f 503 648 504
f 504 394 503
f 503 394 502
f 604 648 503
f 503 502 604
f 219 307 308
f 308 394 309
f 393 394 308
f 308 307 393
f 397 396 505
f 505 506 397
f 396 395 505
f 395 504 505
f 654 781 785
f 785 655 654
f 654 782 781
f 654 506 653
f 654 655 506
f 652 782 654
f 147 222 221
f 221 222 145
f 221 308 309
f 88 147 91
f 88 91 89
f 89 40 88
f 88 40 39
f 39 87 88
f 87 145 88
f 962 1004 964
f 964 874 962
f 964 876 874
f 468 590 591
f 591 475 468
f 590 600 591
f 600 475 591
f 218 305 306
f 306 307 218
f 393 307 306
f 379 393 306
f 306 304 379
f 306 305 304
f 602 603 476
f 476 601 602
f 602 601 737
f 602 737 738
f 738 603 602
f 599 735 736
f 736 601 599
f 599 601 590
f 599 590 474
f 474 598 599
f 599 598 597
f 597 735 599
f 822 688 693
f 689 688 822
f 703 827 823
f 688 692 823
f 823 827 693
f 693 688 823
f 406 407 322
f 322 404 406
f 513 407 406
f 406 404 513
f 513 404 403
f 403 402 513
f 403 316 402
f 318 321 233
f 318 404 321
f 658 511 509
f 401 508 509
f 509 657 658
f 508 657 509
f 177 118 116
f 116 176 177
f 179 118 177
f 177 176 179
f 255 182 254
f 183 182 255
f 524 523 527
f 667 524 527
f 526 668 527
f 527 668 667
f 168 167 241
f 167 240 241
f 238 328 239
f 167 238 239
f 239 240 167
f 239 328 330
f 330 240 239
f 245 246 174
f 245 332 246
f 245 244 243
f 174 244 245
f 333 416 417
f 417 418 335
f 522 418 417
f 417 416 522
f 788 660 787
f 787 660 786
f 789 660 788
f 661 660 789
f 789 790 661
f 788 791 789
f 791 790 789
f 786 660 659
f 659 515 514
f 659 660 516
f 516 515 659
f 662 794 663
f 663 517 662
f 96 46 90
f 90 149 96
f 401 316 315
f 315 399 401
f 315 316 228
f 312 399 315
f 990 991 937
f 990 1005 991
f 1007 991 1006
f 991 1005 1006
f 1009 993 992
f 1009 1008 993
f 992 991 1009
f 991 1008 1009
f 570 449 569
f 569 571 570
f 570 571 449
f 572 573 449
f 449 571 572
f 572 571 712
f 712 713 572
f 572 713 573
f 369 463 466
f 466 463 587
f 136 201 202
f 461 366 452
f 584 582 458
f 358 366 362
f 366 363 362
f 278 358 362
f 362 363 278
f 364 366 279
f 364 363 366
f 279 278 364
f 278 363 364
f 459 366 458
f 459 460 366
f 368 281 280
f 280 281 200
f 279 365 280
f 280 200 279
f 287 281 369
f 206 281 287
f 369 288 287
f 288 206 287
f 997 999 950
f 951 849 950
f 950 999 998
f 998 951 950
f 950 949 997
f 950 849 949
f 715 574 714
f 714 713 715
f 574 713 714
f 220 145 219
f 219 308 220
f 220 221 145
f 308 221 220
f 652 506 651
f 506 505 651
f 777 779 651
f 651 650 777
f 783 653 652
f 652 654 783
f 783 654 653
f 147 221 223
f 223 310 311
f 309 310 223
f 223 221 309
f 311 224 223
f 224 147 223
f 146 222 147
f 147 88 146
f 145 222 146
f 146 88 145
f 965 964 1004
f 965 966 876
f 876 964 965
f 693 689 824
f 824 822 693
f 689 822 824
f 316 403 317
f 228 316 317
f 317 318 230
f 317 230 228
f 510 402 401
f 401 509 510
f 510 511 402
f 510 509 511
f 243 168 242
f 168 241 242
f 331 245 243
f 243 242 331
f 331 242 241
f 331 240 330
f 331 241 240
f 334 335 247
f 334 417 335
f 247 333 334
f 333 417 334
f 665 666 517
f 665 794 793
f 793 668 665
f 665 668 526
f 526 666 665
f 526 527 422
f 422 527 523
f 336 418 422
f 422 418 522
f 422 420 336
f 422 523 420
f 327 238 326
f 326 238 329
f 326 329 409
f 409 410 326
f 411 410 516
f 516 517 411
f 517 412 411
f 411 326 410
f 412 326 411
f 228 313 314
f 314 315 228
f 313 315 314
f 400 315 313
f 312 315 400
f 958 1000 1001
f 958 957 1000
f 958 959 866
f 1002 959 958
f 958 1001 1002
f 583 723 585
f 585 462 583
f 583 462 465
f 465 458 583
f 465 459 458
f 460 459 465
f 201 206 203
f 203 202 201
f 136 202 203
f 203 204 136
f 137 204 203
f 203 206 137
f 850 849 947
f 947 865 850
f 583 582 720
f 582 584 720
f 452 577 578
f 578 461 452
f 576 584 577
f 576 577 452
f 716 850 724
f 724 584 716
f 724 720 584
f 850 865 724
f 581 584 458
f 577 584 581
f 581 578 577
f 368 280 367
f 367 280 365
f 367 465 462
f 474 375 472
f 472 597 474
f 596 597 472
f 472 471 596
f 594 471 593
f 471 470 593
f 593 592 594
f 467 466 587
f 587 588 467
f 467 373 369
f 369 466 467
f 780 651 779
f 794 665 664
f 664 665 517
f 664 663 794
f 517 663 664
f 521 666 526
f 526 422 521
f 517 666 521
f 413 412 517
f 413 328 327
f 327 326 413
f 413 326 412
f 957 958 862
f 863 722 862
f 862 728 863
f 866 728 862
f 862 958 866
f 587 463 586
f 586 588 587
f 865 947 859
f 575 576 452
f 452 574 575
f 716 584 575
f 584 576 575
f 575 715 716
f 575 574 715
f 578 581 457
f 366 461 457
f 461 578 457
f 458 366 457
f 457 581 458
f 464 367 463
f 368 367 464
f 369 368 464
f 464 463 369
f 455 367 365
f 465 367 455
f 455 365 456
f 456 460 455
f 460 465 455
f 473 472 375
f 289 373 374
f 373 467 374
f 374 375 289
f 374 473 375
f 472 473 374
f 374 470 471
f 471 472 374
f 589 588 592
f 589 467 588
f 652 651 778
f 651 780 778
f 779 652 778
f 778 780 779
f 415 416 333
f 522 416 415
f 415 422 522
f 415 521 422
f 957 862 860
f 722 859 860
f 860 859 957
f 863 726 864
f 864 723 863
f 725 586 462
f 462 585 725
f 725 585 723
f 723 864 725
f 725 864 726
f 726 588 725
f 588 586 725
f 865 859 858
f 858 859 720
f 858 724 865
f 720 724 858
f 956 952 998
f 998 1000 956
f 956 859 947
f 1000 957 956
f 957 859 956
f 583 720 721
f 720 859 721
f 721 722 583
f 721 859 722
f 469 589 592
f 467 589 469
f 592 593 469
f 469 593 470
f 470 374 469
f 469 374 467
f 414 415 333
f 413 415 414
f 333 331 414
f 414 331 330
f 330 328 414
f 328 413 414
f 521 415 519
f 861 862 722
f 722 860 861
f 861 860 862
f 952 956 946
f 946 956 947
f 946 849 952
f 946 947 849
f 517 521 518
f 521 519 518
f 518 413 517
f 518 519 413
f 520 415 413
f 413 519 520
f 520 519 415
f 968 891 743
f 743 890 968
f 34 14 2
f 2 13 34
f 32 33 12
f 12 33 13
f 760 759 905
f 905 907 760
f 980 907 905
f 980 908 907
f 295 381 486
f 382 295 486
f 382 486 488
f 488 486 614
f 538 432 431
f 431 537 538
f 181 180 249
f 249 253 181
f 114 102 160
f 160 115 114
f 7 6 25
f 26 7 25
f 35 74 126
f 35 487 380
f 34 73 35
f 380 294 35
f 35 538 487
f 35 14 34
f 126 185 35
f 35 339 342
f 35 73 74
f 342 432 35
f 35 185 257
f 257 339 35
f 35 432 538
f 294 209 35
f 35 140 84
f 84 75 35
f 35 209 140
f 764 908 765
f 765 629 764
f 337 250 319
f 319 405 337
f 26 25 49
f 49 25 48
f 207 138 205
f 205 138 137
f 764 629 763
f 763 906 764
f 761 906 763
f 763 762 761
f 621 488 614
f 621 614 749
f 749 622 621
f 622 493 621
f 537 431 535
f 674 537 535
f 913 803 831
f 831 803 802
f 100 159 157
f 157 159 233
f 233 321 157
f 321 231 157
f 99 49 48
f 48 98 99
f 671 531 670
f 671 670 799
f 674 535 671
f 799 674 671
f 178 180 118
f 118 180 119
f 156 159 100
f 155 159 156
f 156 99 98
f 156 98 155
f 121 180 181
f 181 122 121
f 17 16 43
f 43 19 17
f 152 153 94
f 94 153 95
f 380 487 606
f 606 968 890
f 606 888 887
f 887 886 606
f 606 886 885
f 606 971 970
f 890 889 606
f 606 742 741
f 606 889 888
f 902 901 606
f 970 969 606
f 487 620 606
f 606 969 968
f 885 884 606
f 606 620 755
f 755 903 606
f 972 971 606
f 606 884 883
f 606 973 972
f 883 880 606
f 606 903 902
f 606 480 380
f 606 880 742
f 741 740 606
f 605 480 606
f 606 901 973
f 606 740 607
f 913 831 830
f 831 699 830
f 100 157 176
f 176 158 100
f 155 98 97
f 97 154 155
f 48 25 97
f 97 25 47
f 95 153 97
f 47 95 97
f 233 159 318
f 318 159 230
f 96 149 94
f 96 94 46
f 651 505 504
f 504 650 651
f 630 766 965
f 965 250 337
f 965 960 1003
f 965 975 893
f 743 891 965
f 337 423 965
f 965 1012 1013
f 965 769 768
f 965 980 976
f 256 338 965
f 997 949 965
f 965 937 989
f 974 983 965
f 254 256 965
f 69 68 965
f 965 637 635
f 965 877 967
f 965 103 53
f 768 639 965
f 871 870 965
f 965 692 826
f 108 107 965
f 111 110 965
f 808 807 965
f 976 978 965
f 965 881 743
f 989 987 965
f 965 631 630
f 965 773 772
f 891 974 965
f 53 72 965
f 965 70 69
f 965 251 250
f 162 161 965
f 965 234 162
f 965 820 817
f 943 993 965
f 965 962 872
f 872 871 965
f 965 978 977
f 977 975 965
f 893 881 965
f 965 869 868
f 775 774 965
f 785 781 965
f 908 980 965
f 965 633 632
f 632 631 965
f 635 634 965
f 965 765 908
f 965 562 561
f 965 826 925
f 925 924 965
f 561 560 965
f 965 72 71
f 71 70 965
f 965 67 125
f 965 112 111
f 965 161 108
f 965 105 55
f 408 323 965
f 965 994 943
f 965 657 785
f 772 771 965
f 868 961 965
f 965 999 997
f 965 639 638
f 774 773 965
f 965 634 633
f 766 765 965
f 965 954 955
f 965 920 808
f 965 704 703
f 965 68 67
f 113 112 965
f 965 106 113
f 55 104 965
f 965 110 105
f 965 909 788
f 514 408 965
f 817 911 965
f 638 637 965
f 965 771 770
f 770 769 965
f 965 996 994
f 1003 1012 965
f 784 877 965
f 965 1004 962
f 965 870 869
f 965 987 986
f 965 855 775
f 965 983 927
f 967 966 965
f 564 563 965
f 560 704 965
f 965 338 251
f 965 698 697
f 965 107 106
f 104 103 965
f 125 184 965
f 703 823 965
f 965 255 254
f 926 820 965
f 658 657 965
f 965 919 926
f 961 960 965
f 1013 1010 965
f 965 781 784
f 986 985 965
f 965 697 564
f 955 856 965
f 927 830 965
f 965 923 920
f 423 528 965
f 965 511 658
f 965 323 234
f 788 787 965
f 965 911 909
f 949 996 965
f 965 993 1007
f 1010 999 965
f 1007 1006 965
f 985 954 965
f 965 856 855
f 965 563 562
f 965 830 699
f 699 698 965
f 965 924 923
f 965 659 514
f 528 511 965
f 965 184 183
f 807 919 965
f 965 990 937
f 965 823 692
f 183 255 965
f 965 787 786
f 786 659 965
f 1005 990 965
f 965 1006 1005
f 404 318 317
f 317 403 404
f 332 245 331
f 333 332 331
f 400 226 312
f 313 226 400
f 586 367 462
f 463 367 586

