# https://github.com/mikedh/trimesh
v -0.00882630 -0.03331848 -0.00472123
v -0.00882630 -0.03331848 0.00047496
v -0.00777598 -0.03331848 -0.00472123
v -0.00881896 -0.04649134 -0.00472123
v -0.00778057 -0.03331848 0.00047496
v -0.00881896 -0.04649134 0.00047496
v 0.00054497 -0.03581998 0.00047496
v 0.00054497 -0.03592700 -0.00472123
v -0.00777598 -0.03331848 -0.00378332
v -0.00766774 -0.04649134 -0.00472123
v -0.00766682 -0.04649134 0.00047496
v 0.00054497 -0.03736859 0.00047496
v 0.00054497 -0.03738536 -0.00472123
v -0.00766682 -0.04649134 -0.00450608
v -0.00766590 -0.04649134 -0.00320297
v 0.00054497 -0.03738536 -0.00468716
v 0.00054497 -0.03738407 -0.00372838
v -0.00766590 -0.04649134 -0.00392522
f 7 9 5
f 7 8 3
f 3 9 7
f 12 11 17
f 16 17 11
f 16 11 15
f 14 10 13
f 13 18 14
f 6 2 1
f 1 4 6
f 1 2 3
f 2 5 3
f 3 5 9
f 2 6 11
f 7 5 11
f 11 5 2
f 11 12 7
f 10 4 1
f 1 3 10
f 10 3 8
f 8 13 10
f 7 12 16
f 16 13 8
f 16 8 7
f 12 17 16
f 15 18 16
f 16 18 13
f 14 6 4
f 14 11 6
f 15 11 14
f 4 10 14
f 14 18 15

