# https://github.com/mikedh/trimesh
v -0.00915348 0.00935531 -0.00654385
v -0.00912685 0.00929007 -0.00654385
v -0.00915348 0.00935531 -0.00045129
v -0.00911821 0.00960507 -0.00654385
v -0.00904912 0.00910182 -0.00654385
v -0.00904912 0.00910182 -0.00045129
v -0.00913548 0.00935531 0.00040974
v -0.00910598 0.00968895 0.00040974
v -0.00909230 0.00924907 0.00040974
v -0.00910598 0.00968895 -0.00654385
v -0.00883538 0.00903472 -0.00654385
v -0.00876197 0.00901235 -0.00045129
v -0.00876197 0.00901608 0.00040974
v -0.00904049 0.00910182 -0.00011709
v -0.00903185 0.00910368 0.00040974
v -0.00906999 0.00988280 0.00040974
v -0.00648344 0.02470834 -0.00412208
v -0.00648344 0.02470834 -0.00654385
v -0.00876197 0.00901235 -0.00654385
v -0.00842803 0.00901235 0.00040974
v -0.00873246 0.01169265 0.00040974
v -0.00694188 0.02128620 0.00040974
v -0.00688359 0.02159747 0.00040974
v -0.00686271 0.02170371 0.00040974
v -0.00639348 0.02504198 -0.00412208
v -0.00863962 0.01219032 0.00040974
v -0.00761839 0.01766276 0.00040974
v -0.00639348 0.02504198 -0.00654385
v -0.00842803 0.00901235 -0.00654385
v -0.00809482 0.00904590 -0.00654385
v -0.00809482 0.00904963 0.00040974
v -0.00680730 0.02189570 0.00040974
v -0.00628553 0.02528615 -0.00387159
v -0.00629920 0.02532529 -0.00412208
v -0.00676628 0.02203735 0.00040974
v -0.00629920 0.02532529 -0.00654385
v -0.00785084 0.00912978 -0.00654385
v -0.00797175 0.00909995 0.00040974
v -0.00596671 0.02594783 -0.00384709
v -0.00623947 0.02549118 -0.00412208
v -0.00664753 0.02224611 0.00040974
v -0.00623947 0.02549118 -0.00654385
v -0.00788251 0.00913723 0.00040974
v -0.00509085 0.01071969 -0.00654385
v -0.00559679 0.02654988 -0.00393830
v -0.00588610 0.02614914 -0.00412208
v -0.00598758 0.02598325 -0.00412208
v -0.00613583 0.02570925 -0.00412208
v -0.00655397 0.02226848 0.00040974
v -0.00296417 0.02788444 -0.00361635
v -0.00397965 0.02756571 -0.00360818
v -0.00462017 0.02723021 -0.00360954
v -0.00519592 0.02681642 -0.00370007
v -0.00552626 0.02647159 -0.00371572
v -0.00613583 0.02570925 -0.00654385
v -0.00784797 0.00922856 0.00040974
v -0.00487998 0.01102351 -0.00654385
v -0.00180116 0.01678299 -0.00651050
v -0.00180116 0.01841764 -0.00416360
v -0.00539815 0.02668408 -0.00381918
v -0.00527005 0.02688911 -0.00392264
v -0.00527581 0.02689470 -0.00412208
v -0.00544277 0.02671949 -0.00412208
v -0.00559895 0.02655360 -0.00412208
v -0.00572705 0.02637653 -0.00412208
v -0.00588610 0.02614914 -0.00654385
v -0.00598758 0.02598325 -0.00654385
v -0.00642587 0.02229644 0.00040974
v -0.00275474 0.02789376 -0.00360954
v -0.00275474 0.02797390 -0.00378855
v -0.00308076 0.02792731 -0.00376950
v -0.00342189 0.02790121 -0.00388725
v -0.00318656 0.02784530 -0.00364562
v -0.00359174 0.02787884 -0.00395123
v -0.00409048 0.02761417 -0.00377902
v -0.00420203 0.02750047 -0.00366127
v -0.00429919 0.02756944 -0.00388385
v -0.00468998 0.02727867 -0.00378855
v -0.00485695 0.02715192 -0.00378855
v -0.00508725 0.02697112 -0.00380217
v -0.00780047 0.00935531 0.00040974
v -0.00180116 0.01677181 -0.00654385
v -0.00180116 0.01678113 -0.00651527
v -0.00180116 0.01868791 -0.00399684
v -0.00491164 0.02720225 -0.00412208
v -0.00509085 0.02705313 -0.00412208
v -0.00522903 0.02693571 -0.00654385
v -0.00527581 0.02689470 -0.00654385
v -0.00544277 0.02671949 -0.00654385
v -0.00555936 0.02659648 -0.00654385
v -0.00559895 0.02655360 -0.00654385
v -0.00563205 0.02650887 -0.00654385
v -0.00572705 0.02637653 -0.00654385
v -0.00609193 0.02230203 0.00040974
v -0.00242081 0.02789935 -0.00360614
v -0.00242081 0.02798695 -0.00378855
v -0.00242081 0.02805405 -0.00412208
v -0.00275474 0.02803728 -0.00412208
v -0.00308868 0.02799254 -0.00412208
v -0.00342189 0.02792358 -0.00412208
v -0.00359318 0.02788071 -0.00412208
v -0.00376015 0.02781920 -0.00412208
v -0.00408976 0.02768873 -0.00412208
v -0.00432078 0.02758062 -0.00412208
v -0.00448703 0.02748556 -0.00412208
v -0.00474468 0.02731781 -0.00412208
v -0.00773282 0.00968895 0.00040974
v -0.00180116 0.02137007 -0.00308476
v -0.00180116 0.02801305 -0.00654385
v -0.00491164 0.02720225 -0.00654385
v -0.00509085 0.02705313 -0.00654385
v -0.00595087 0.02229457 0.00040974
v -0.00208687 0.02789748 -0.00360750
v -0.00208687 0.02797950 -0.00378855
v -0.00208687 0.02804473 -0.00412208
v -0.00242081 0.02805405 -0.00654385
v -0.00275474 0.02803728 -0.00654385
v -0.00308868 0.02799254 -0.00654385
v -0.00342189 0.02792358 -0.00654385
v -0.00354928 0.02789189 -0.00654385
v -0.00359318 0.02788071 -0.00654385
v -0.00376015 0.02781920 -0.00654385
v -0.00400556 0.02772228 -0.00654385
v -0.00408976 0.02768873 -0.00654385
v -0.00426177 0.02760858 -0.00654385
v -0.00432078 0.02758062 -0.00654385
v -0.00436324 0.02755639 -0.00654385
v -0.00448703 0.02748556 -0.00654385
v -0.00467919 0.02736068 -0.00654385
v -0.00474468 0.02731781 -0.00654385
v -0.00748308 0.01102351 0.00040974
v -0.00180116 0.02165525 -0.00306706
v -0.00549027 0.02170371 0.00040974
v -0.00555217 0.02137007 0.00040974
v -0.00557232 0.02126197 0.00040974
v -0.00723119 0.01237298 0.00040974
v -0.00200195 0.02803541 -0.00654385
v -0.00180116 0.02801305 -0.00412208
v -0.00575800 0.02228339 0.00040974
v -0.00185010 0.02788817 -0.00361294
v -0.00180116 0.02794408 -0.00376745
v -0.00180116 0.02800373 -0.00407375
v -0.00208687 0.02804473 -0.00654385
v -0.00180116 0.02604289 -0.00306706
v -0.00549027 0.02203735 0.00040974
v -0.00555648 0.02223493 0.00040974
v -0.00180116 0.02781734 -0.00360478
v -0.00180116 0.02791053 -0.00368237
v -0.00180116 0.02637653 -0.00307659
v -0.00551834 0.02212123 0.00040974
f 58 43 57
f 57 43 44
f 59 43 58
f 44 43 37
f 7 8 3
f 83 57 82
f 58 57 83
f 1 3 4
f 4 3 8
f 8 10 4
f 30 20 29
f 31 20 30
f 30 37 31
f 81 84 108
f 59 84 81
f 61 62 45
f 2 3 1
f 6 2 5
f 3 2 6
f 17 23 24
f 132 133 108
f 38 37 43
f 38 31 37
f 43 59 56
f 59 81 56
f 61 85 86
f 86 62 61
f 90 91 64
f 64 45 63
f 63 45 62
f 63 90 64
f 7 3 9
f 3 6 9
f 11 6 5
f 12 11 19
f 6 11 12
f 99 100 74
f 41 54 45
f 26 27 17
f 22 23 17
f 17 27 22
f 147 146 149
f 145 144 149
f 107 81 108
f 108 131 107
f 137 138 109
f 97 114 115
f 115 137 143
f 138 137 115
f 114 141 115
f 25 32 35
f 24 32 25
f 17 24 25
f 34 25 33
f 33 25 35
f 90 63 89
f 15 9 6
f 127 128 105
f 126 127 104
f 104 127 105
f 101 102 74
f 74 100 101
f 105 128 129
f 129 106 105
f 129 130 106
f 72 99 74
f 78 106 85
f 78 79 52
f 78 85 61
f 61 79 78
f 53 41 52
f 52 79 53
f 54 41 53
f 17 8 16
f 149 146 150
f 150 145 149
f 108 133 134
f 134 135 108
f 136 131 108
f 108 135 136
f 140 147 148
f 114 113 140
f 146 147 140
f 148 141 140
f 140 141 114
f 138 115 142
f 142 115 141
f 34 33 40
f 39 33 35
f 48 40 39
f 39 40 33
f 35 41 39
f 39 41 45
f 45 46 39
f 64 91 92
f 88 62 87
f 62 86 87
f 86 111 87
f 13 12 20
f 6 12 13
f 126 104 125
f 74 102 103
f 124 125 103
f 103 125 104
f 100 119 120
f 121 101 120
f 120 101 100
f 96 114 97
f 96 113 114
f 96 95 113
f 75 76 51
f 74 75 51
f 51 72 74
f 51 41 50
f 52 41 51
f 51 76 52
f 71 98 99
f 99 72 71
f 71 72 50
f 77 104 105
f 105 106 77
f 106 78 77
f 77 103 104
f 77 76 75
f 77 75 74
f 74 103 77
f 77 78 52
f 52 76 77
f 80 79 61
f 61 53 80
f 80 53 79
f 61 45 60
f 60 53 61
f 45 54 60
f 54 53 60
f 21 26 17
f 17 16 21
f 95 96 69
f 113 95 94
f 65 45 64
f 65 46 45
f 65 92 93
f 64 92 65
f 48 39 47
f 47 39 46
f 14 13 15
f 14 15 6
f 6 13 14
f 102 122 123
f 123 103 102
f 124 103 123
f 50 72 73
f 73 51 50
f 72 51 73
f 70 71 50
f 50 69 70
f 70 69 96
f 98 71 70
f 97 98 70
f 70 96 97
f 95 69 68
f 68 94 95
f 68 69 50
f 146 140 139
f 139 140 113
f 50 41 49
f 49 68 50
f 113 94 112
f 112 139 113
f 17 18 10
f 10 8 17
f 19 29 12
f 12 29 20
f 85 106 130
f 130 110 85
f 118 119 99
f 99 119 100
f 132 144 145
f 133 132 145
f 115 143 116
f 115 116 97
f 25 18 17
f 25 28 18
f 25 36 28
f 34 36 25
f 85 110 111
f 111 86 85
f 89 62 88
f 89 63 62
f 121 122 101
f 101 122 102
f 98 116 117
f 97 116 98
f 117 118 98
f 118 99 98
f 142 82 109
f 109 138 142
f 142 59 58
f 58 83 142
f 108 84 142
f 142 83 82
f 142 84 59
f 149 144 142
f 142 147 149
f 142 132 108
f 142 144 132
f 148 147 142
f 142 141 148
f 42 36 40
f 40 36 34
f 40 55 42
f 48 55 40
f 65 93 66
f 66 46 65
f 67 55 47
f 47 55 48
f 47 66 67
f 47 46 66
f 18 28 123
f 30 29 123
f 1 4 123
f 123 57 44
f 44 37 123
f 109 82 123
f 67 66 123
f 128 127 123
f 82 57 123
f 123 37 30
f 123 55 67
f 123 122 121
f 123 10 18
f 117 116 123
f 123 118 117
f 123 129 128
f 123 92 91
f 123 4 10
f 123 2 1
f 123 29 19
f 123 137 109
f 123 125 124
f 5 2 123
f 19 11 123
f 123 89 88
f 116 143 123
f 123 36 42
f 91 90 123
f 123 11 5
f 88 87 123
f 110 130 123
f 123 119 118
f 143 137 123
f 28 36 123
f 66 93 123
f 123 111 110
f 90 89 123
f 123 127 126
f 121 120 123
f 130 129 123
f 42 55 123
f 93 92 123
f 123 87 111
f 126 125 123
f 123 120 119
f 112 8 7
f 133 145 112
f 43 56 112
f 7 9 112
f 112 41 35
f 23 22 112
f 20 31 112
f 112 38 43
f 131 136 112
f 112 24 23
f 35 32 112
f 31 38 112
f 112 150 146
f 112 56 81
f 81 107 112
f 26 21 112
f 27 26 112
f 112 22 27
f 112 32 24
f 112 16 8
f 112 134 133
f 112 107 131
f 9 15 112
f 112 13 20
f 145 150 112
f 135 134 112
f 112 136 135
f 15 13 112
f 112 21 16
f 146 139 112
f 94 68 112
f 112 49 41
f 68 49 112

