# https://github.com/mikedh/trimesh
v -0.00915544 0.00935728 -0.00946215
v -0.00915544 0.00935728 -0.00912889
v -0.00910507 0.00969074 -0.00946215
v -0.00906477 0.00969074 -0.00979642
v -0.00909332 0.00935728 -0.00979642
v -0.00813795 0.00201130 -0.00946215
v -0.00915208 0.00935728 -0.00045100
v -0.00910507 0.00969074 0.00040974
v -0.00813795 0.00201130 -0.00912889
v -0.00893549 0.01056236 -0.00969420
v -0.00895732 0.01037086 -0.00980153
v -0.00901440 0.01002420 -0.00979642
v -0.00648244 0.02470626 -0.00712630
v -0.00894053 0.01026521 -0.00997429
v -0.00895732 0.01002420 -0.00998758
v -0.00897579 0.00969074 -0.00999678
v -0.00898082 0.00935728 -0.00999269
v -0.00792976 0.00149956 -0.00996612
v -0.00807247 0.00201130 -0.00979642
v -0.00802042 0.00167784 -0.00979642
v -0.00807583 0.00167784 -0.00946215
v -0.00913529 0.00935728 0.00040974
v -0.00911850 0.00954878 0.00040974
v -0.00813628 0.00201130 -0.00879462
v -0.00906981 0.00988223 0.00040974
v -0.00648244 0.02470626 -0.00412293
v -0.00807583 0.00167784 -0.00879462
v -0.00859633 0.01219663 -0.00996407
v -0.00826220 0.01420068 -0.00964206
v -0.00639345 0.02503972 -0.00712630
v -0.00635483 0.02503972 -0.00745955
v -0.00643878 0.02470626 -0.00745955
v -0.00793647 0.01589769 -0.00965331
v -0.00826892 0.01390354 -0.00997020
v -0.00828403 0.01369224 -0.00998349
v -0.00863159 0.01168819 -0.00999269
v -0.00876087 0.00969074 -0.01003154
v -0.00876087 0.00935728 -0.01002847
v -0.00842843 0.01168819 -0.01002745
v -0.00876087 0.01002420 -0.01002234
v -0.00776018 0.00201130 -0.01002541
v -0.00796669 0.00201130 -0.00999065
v -0.00794487 0.00167784 -0.00997736
v -0.00793647 0.00115289 -0.00966557
v -0.00795662 0.00137080 -0.00978415
v -0.00766447 0.00101093 -0.00999576
v -0.00762417 0.00075340 -0.00998349
v -0.00757548 0.00053220 -0.00994771
v -0.00799692 0.00134438 -0.00946215
v -0.00799692 0.00134438 -0.00879462
v -0.00793479 0.00115619 -0.00861368
v -0.00909164 0.00924833 0.00040974
v -0.00895732 0.01048642 0.00040974
v -0.00798516 0.01569629 0.00040974
v -0.00736225 0.01903417 0.00040974
v -0.00691059 0.02145092 0.00040974
v -0.00686190 0.02170184 0.00040974
v -0.00639345 0.02503972 -0.00412293
v -0.00827899 0.01401910 -0.00976984
v -0.00629943 0.02532366 -0.00712630
v -0.00628096 0.02527413 -0.00745955
v -0.00626249 0.02522131 -0.00763027
v -0.00792808 0.01553121 -0.00996407
v -0.00794823 0.01535953 -0.00998043
v -0.00797509 0.01502607 -0.00999678
v -0.00830418 0.01335878 -0.00999474
v -0.00809430 0.01335878 -0.01003052
v -0.00842843 0.01135473 -0.01003256
v -0.00842843 0.01102458 -0.01003358
v -0.00842843 0.00969074 -0.01003358
v -0.00776018 0.00268152 -0.01003256
v -0.00776018 0.00234806 -0.01003052
v -0.00742605 0.00101093 -0.01003052
v -0.00776018 0.00167784 -0.01001212
v -0.00793983 0.00114299 -0.00946215
v -0.00767790 0.00065766 -0.00982095
v -0.00762417 0.00044966 -0.00972589
v -0.00775850 0.00067747 -0.00946215
v -0.00787939 0.00097461 -0.00946215
v -0.00744956 0.00065766 -0.01000292
v -0.00735553 0.00034401 -0.00999474
v -0.00729341 0.00011290 -0.00998247
v -0.00721785 -0.00010831 -0.00990682
v -0.00734042 0.00000395 -0.00979540
v -0.00752175 0.00034071 -0.00982095
v -0.00793983 0.00114299 -0.00879462
v -0.00787771 0.00097461 -0.00879462
v -0.00775682 0.00067747 -0.00879462
v -0.00762417 0.00044966 -0.00858403
v -0.00903119 0.00910306 0.00040974
v -0.00680649 0.02189663 0.00040974
v -0.00676619 0.02203530 0.00040974
v -0.00628599 0.02528404 -0.00387247
v -0.00629943 0.02532366 -0.00412293
v -0.00623898 0.02549204 -0.00712630
v -0.00621212 0.02544251 -0.00745955
v -0.00608787 0.02570994 -0.00745955
v -0.00593844 0.02590143 -0.00763947
v -0.00776018 0.01555763 -0.00997020
v -0.00776018 0.01535953 -0.01000394
v -0.00564125 0.02628771 -0.00765787
v -0.00533735 0.02662778 -0.00766094
v -0.00500826 0.02694473 -0.00765992
v -0.00475976 0.02705038 -0.00768547
v -0.00465231 0.02725177 -0.00765480
v -0.00442228 0.02732441 -0.00767423
v -0.00412173 0.02741025 -0.00768752
v -0.00375403 0.02763145 -0.00767525
v -0.00776018 0.01502607 -0.01003154
v -0.00809430 0.01302532 -0.01003358
v -0.00742605 0.00134438 -0.01003358
v -0.00675948 0.00001055 -0.01003358
v -0.00709192 0.00034401 -0.01003052
v -0.00727494 -0.00018094 -0.00968397
v -0.00755533 0.00025157 -0.00946215
v -0.00763929 0.00041664 -0.00946215
v -0.00775850 0.00067747 -0.00912889
v -0.00787939 0.00097461 -0.00912889
v -0.00710032 0.00000395 -0.01000292
v -0.00697943 -0.00032291 -0.00998247
v -0.00692906 -0.00049459 -0.00996509
v -0.00763929 0.00041995 -0.00879462
v -0.00755366 0.00025157 -0.00879462
v -0.00727494 -0.00017764 -0.00860448
v -0.00876087 0.00901722 0.00040974
v -0.00696936 -0.00054411 -0.00857483
v -0.00560599 -0.00217839 -0.00860754
v -0.00496796 -0.00288162 -0.00857483
v -0.00465063 -0.00323159 -0.00856359
v -0.00433161 -0.00358155 -0.00855439
v -0.00400924 -0.00391831 -0.00855234
v -0.00367679 -0.00423856 -0.00855439
v -0.00332084 -0.00454561 -0.00856768
v -0.00293635 -0.00483945 -0.00861265
v -0.00275333 -0.00489227 -0.00855847
v -0.00208508 -0.00521913 -0.00855745
v -0.00175263 -0.00527856 -0.00850941
v -0.00669735 0.02215746 0.00040974
v -0.00596698 0.02594765 -0.00384794
v -0.00623898 0.02549204 -0.00412293
v -0.00613488 0.02570994 -0.00712630
v -0.00596698 0.02594765 -0.00745955
v -0.00585952 0.02611603 -0.00745955
v -0.00555898 0.02650892 -0.00754236
v -0.00742605 0.01558074 -0.00997634
v -0.00308746 0.02771069 -0.00769876
v -0.00275333 0.02771069 -0.00771512
v -0.00742605 0.01535953 -0.01001212
v -0.00523157 0.02685228 -0.00756689
v -0.00471275 0.02729469 -0.00745955
v -0.00425438 0.02754561 -0.00762618
v -0.00403275 0.02758523 -0.00765685
v -0.00488065 0.02717253 -0.00745955
v -0.00327719 0.02788237 -0.00763129
v -0.00308746 0.02789888 -0.00764560
v -0.00742605 0.01502607 -0.01003358
v -0.00776018 0.01469261 -0.01003358
v -0.00509053 -0.00199350 -0.01003358
v -0.00542298 -0.00166004 -0.01003256
v -0.00575710 -0.00132658 -0.01003052
v -0.00609123 -0.00098982 -0.01002745
v -0.00642535 -0.00065637 -0.01002336
v -0.00675948 -0.00032291 -0.01001723
v -0.00728333 -0.00019084 -0.00946215
v -0.00741262 0.00001055 -0.00946215
v -0.00696096 -0.00053421 -0.00979642
v -0.00685518 -0.00074221 -0.00946215
v -0.00699286 -0.00057383 -0.00946215
v -0.00715909 -0.00035922 -0.00946215
v -0.00755533 0.00025157 -0.00912889
v -0.00763929 0.00041664 -0.00912889
v -0.00673597 -0.00062665 -0.00998452
v -0.00661004 -0.00084455 -0.00997327
v -0.00492599 -0.00283210 -0.00996509
v -0.00560599 -0.00217839 -0.00967886
v -0.00665370 -0.00089738 -0.00979642
v -0.00681992 -0.00070259 -0.00979642
v -0.00741094 0.00001055 -0.00879462
v -0.00728333 -0.00019084 -0.00879462
v -0.00715909 -0.00035592 -0.00879462
v -0.00699286 -0.00057383 -0.00879462
v -0.00108438 -0.00553278 -0.00857279
v -0.00075026 -0.00555919 -0.00854007
v -0.00041781 -0.00557570 -0.00852474
v 0.00010772 0.00860783 0.00040974
v -0.00685518 -0.00073890 -0.00879462
v -0.00668728 -0.00093700 -0.00879462
v -0.00623394 -0.00146525 -0.00879462
v -0.00546999 -0.00235337 -0.00879462
v -0.00453813 -0.00343628 -0.00879462
v -0.00437191 -0.00362447 -0.00879462
v -0.00422080 -0.00379285 -0.00879462
v -0.00405457 -0.00396453 -0.00879462
v -0.00388835 -0.00412961 -0.00879462
v -0.00372213 -0.00427818 -0.00879462
v -0.00352232 -0.00444326 -0.00879462
v -0.00335442 -0.00457202 -0.00879462
v -0.00311264 -0.00474040 -0.00879462
v -0.00294474 -0.00484605 -0.00879462
v -0.00275333 -0.00495500 -0.00879462
v -0.00246454 -0.00510688 -0.00879462
v -0.00228153 -0.00517621 -0.00860652
v -0.00129930 -0.00550967 -0.00860448
v -0.00664698 0.02224660 0.00040974
v -0.00559592 0.02654854 -0.00393892
v -0.00588639 0.02614905 -0.00412293
v -0.00598713 0.02598067 -0.00412293
v -0.00613488 0.02570994 -0.00412293
v -0.00598713 0.02598067 -0.00712630
v -0.00588639 0.02614905 -0.00712630
v -0.00559592 0.02654854 -0.00731951
v -0.00567651 0.02639006 -0.00744218
v -0.00541458 0.02670041 -0.00744320
v 0.00492148 0.01558074 -0.00998145
v -0.00241921 0.02771069 -0.00771921
v -0.00275333 0.02791869 -0.00766094
v -0.00241921 0.02792529 -0.00766605
v 0.00492148 0.01535953 -0.01001621
v -0.00526851 0.02688860 -0.00734506
v -0.00510732 0.02698765 -0.00745751
v -0.00491088 0.02720225 -0.00712630
v -0.00474297 0.02731780 -0.00712630
v -0.00429803 0.02756872 -0.00740333
v -0.00441388 0.02747628 -0.00749329
v -0.00412173 0.02762485 -0.00749329
v -0.00359116 0.02787907 -0.00729906
v -0.00350050 0.02784275 -0.00752089
v -0.00340143 0.02789888 -0.00742991
v -0.00308746 0.02795500 -0.00745955
v -0.00275333 0.02799793 -0.00745955
v 0.00625798 0.01502607 -0.01003358
v -0.00342158 -0.00366079 -0.01003358
v -0.00375403 -0.00366079 -0.01002847
v -0.00408815 -0.00332733 -0.01002745
v -0.00575542 -0.00165674 -0.01000292
v -0.00608283 -0.00131338 -0.00999883
v -0.00640856 -0.00097001 -0.00999269
v -0.00741262 0.00001055 -0.00912889
v -0.00668896 -0.00093700 -0.00946215
v -0.00685518 -0.00074221 -0.00912889
v -0.00715909 -0.00035922 -0.00912889
v -0.00628767 -0.00119452 -0.00997940
v -0.00460529 -0.00317876 -0.00997225
v -0.00433497 -0.00358485 -0.00979642
v -0.00450119 -0.00339667 -0.00979642
v -0.00495957 -0.00287172 -0.00979642
v -0.00528865 -0.00252835 -0.00971771
v -0.00437191 -0.00362447 -0.00946215
v -0.00453813 -0.00343628 -0.00946215
v -0.00484875 -0.00307641 -0.00946215
v -0.00530377 -0.00254816 -0.00946215
v -0.00606772 -0.00166004 -0.00946215
v -0.00654456 -0.00110538 -0.00946215
v -0.00075026 -0.00562192 -0.00879462
v -0.00041781 -0.00565824 -0.00879462
v -0.00008537 -0.00567144 -0.00879462
v -0.00008537 -0.00558230 -0.00851963
v 0.00024876 0.00860453 0.00040974
v -0.00668896 -0.00093700 -0.00912889
v -0.00654456 -0.00110538 -0.00912889
v -0.00606772 -0.00166004 -0.00912889
v -0.00530377 -0.00254816 -0.00912889
v -0.00484875 -0.00307641 -0.00912889
v -0.00422080 -0.00379285 -0.00946215
v -0.00405457 -0.00396453 -0.00946215
v -0.00389003 -0.00413291 -0.00912889
v -0.00372213 -0.00427818 -0.00946215
v -0.00352232 -0.00444326 -0.00946215
v -0.00335610 -0.00457202 -0.00912889
v -0.00311264 -0.00474040 -0.00946215
v -0.00294642 -0.00484605 -0.00912889
v -0.00275333 -0.00495831 -0.00912889
v -0.00246622 -0.00510688 -0.00912889
v -0.00229832 -0.00518281 -0.00879462
v -0.00208508 -0.00527195 -0.00879462
v -0.00175263 -0.00539411 -0.00879462
v -0.00149239 -0.00547005 -0.00879462
v -0.00132616 -0.00551627 -0.00879462
v -0.00108438 -0.00556580 -0.00879462
v -0.00642535 0.02229612 0.00040974
v -0.00296321 0.02788567 -0.00361691
v -0.00397902 0.02756542 -0.00360873
v -0.00461873 0.02722866 -0.00361078
v -0.00519463 0.02681597 -0.00370074
v -0.00552540 0.02647260 -0.00371709
v -0.00539779 0.02668390 -0.00382034
v -0.00526851 0.02688860 -0.00392359
v -0.00527522 0.02689520 -0.00412293
v -0.00544145 0.02672022 -0.00412293
v -0.00559927 0.02655184 -0.00412293
v -0.00572688 0.02637686 -0.00412293
v -0.00572688 0.02637686 -0.00712630
v -0.00559927 0.02655184 -0.00712630
v -0.00544145 0.02672022 -0.00712630
v -0.00527522 0.02689520 -0.00712630
v 0.00625798 0.01529350 -0.00999780
v -0.00208508 0.02771069 -0.00771716
v -0.00241921 0.02801113 -0.00745955
v -0.00208508 0.02792199 -0.00766400
v -0.00491088 0.02720225 -0.00412293
v -0.00474297 0.02731780 -0.00412293
v -0.00448608 0.02748288 -0.00712630
v -0.00431986 0.02757863 -0.00712630
v -0.00408815 0.02768758 -0.00712630
v -0.00359116 0.02787907 -0.00395221
v -0.00342158 0.02792199 -0.00712630
v -0.00308746 0.02799132 -0.00712630
v -0.00375907 0.02781964 -0.00712630
v -0.00275333 0.02803755 -0.00712630
v -0.00241921 0.02805405 -0.00712630
v 0.00659042 0.01526709 -0.00998656
v 0.00659042 0.01502607 -0.01001825
v 0.00659042 0.01469261 -0.01003052
v 0.00659042 0.01435916 -0.01003358
v -0.00275333 -0.00432771 -0.01003358
v -0.00342158 -0.00399425 -0.01002745
v -0.00374060 -0.00398434 -0.00999678
v -0.00407640 -0.00364758 -0.00999678
v -0.00440549 -0.00330422 -0.00999167
v -0.00428292 -0.00352543 -0.00997838
v -0.00418050 -0.00374993 -0.00979642
v -0.00108438 -0.00556909 -0.00912889
v -0.00075026 -0.00562192 -0.00946215
v -0.00041781 -0.00565824 -0.00946215
v -0.00008537 -0.00567475 -0.00912889
v 0.00024876 -0.00566814 -0.00879462
v 0.00024876 -0.00558230 -0.00852065
v 0.00058288 0.00866065 0.00040974
v 0.00058288 -0.00556909 -0.00853087
v -0.00401428 -0.00392492 -0.00979642
v -0.00389003 -0.00413291 -0.00946215
v -0.00368015 -0.00424187 -0.00979642
v -0.00348035 -0.00440694 -0.00979642
v -0.00331413 -0.00454231 -0.00979642
v -0.00335610 -0.00457202 -0.00946215
v -0.00293802 -0.00483945 -0.00966660
v -0.00294642 -0.00484605 -0.00946215
v -0.00275333 -0.00495831 -0.00946215
v -0.00246622 -0.00510688 -0.00946215
v -0.00229832 -0.00518281 -0.00946215
v -0.00208508 -0.00527526 -0.00912889
v -0.00175263 -0.00539411 -0.00946215
v -0.00132616 -0.00551957 -0.00912889
v -0.00628431 0.02229942 0.00040974
v -0.00241921 0.02789888 -0.00360669
v -0.00275333 0.02789227 -0.00361078
v -0.00275333 0.02797151 -0.00378865
v -0.00307906 0.02792859 -0.00377025
v -0.00318652 0.02784605 -0.00364656
v -0.00408983 0.02761494 -0.00377945
v -0.00420065 0.02749939 -0.00366189
v -0.00429803 0.02756872 -0.00388474
v -0.00468924 0.02727818 -0.00378865
v -0.00485547 0.02715272 -0.00378865
v -0.00508549 0.02697114 -0.00380296
v -0.00175263 0.02771069 -0.00770387
v -0.00208508 0.02800453 -0.00745955
v -0.00175263 0.02790548 -0.00765072
v -0.00448608 0.02748288 -0.00412293
v -0.00431986 0.02757863 -0.00412293
v -0.00408815 0.02768758 -0.00412293
v -0.00375907 0.02781964 -0.00412293
v -0.00342158 0.02789888 -0.00388781
v -0.00308746 0.02799132 -0.00412293
v -0.00342158 0.02792199 -0.00412293
v -0.00275333 0.02803755 -0.00412293
v -0.00208508 0.02804415 -0.00712630
v -0.00241921 0.02805405 -0.00412293
v 0.00676672 0.01521756 -0.00997123
v -0.00108438 0.02764466 -0.00767729
v -0.00075026 0.02737723 -0.00771001
v -0.00075026 0.02758523 -0.00765685
v -0.00044132 0.02737723 -0.00767116
v -0.00016428 0.02726498 -0.00765889
v 0.00678687 0.01502607 -0.00998349
v 0.00682045 0.01469261 -0.00999576
v 0.00713611 0.01369224 -0.00999167
v 0.00692455 0.01369224 -0.01002643
v 0.00725868 0.01235841 -0.01003052
v 0.00692455 0.01335878 -0.01003256
v 0.00725868 0.01202165 -0.01003358
v -0.00208508 -0.00466447 -0.01003358
v -0.00241921 -0.00466447 -0.01002949
v -0.00308746 -0.00432771 -0.01002029
v -0.00395551 -0.00386549 -0.00998043
v -0.00339472 -0.00431120 -0.00999065
v -0.00362139 -0.00418904 -0.00997940
v -0.00108438 -0.00556909 -0.00946215
v -0.00130098 -0.00551297 -0.00968397
v -0.00108438 -0.00553278 -0.00975144
v -0.00077880 -0.00555589 -0.00982811
v -0.00041781 -0.00560211 -0.00979642
v -0.00008537 -0.00567475 -0.00946215
v 0.00024876 -0.00566814 -0.00946215
v 0.00058288 -0.00564173 -0.00879462
v 0.00091701 -0.00554598 -0.00855439
v 0.00659042 0.00979639 0.00040974
v -0.00384805 -0.00408999 -0.00979642
v -0.00326711 -0.00450599 -0.00996918
v -0.00275333 -0.00489888 -0.00978518
v -0.00228321 -0.00517621 -0.00967988
v -0.00208508 -0.00527526 -0.00946215
v -0.00132616 -0.00551957 -0.00946215
v -0.00609123 0.02230272 0.00040974
v -0.00208508 0.02789558 -0.00360873
v -0.00241921 0.02798472 -0.00378865
v -0.00175263 0.02796821 -0.00745955
v -0.00153772 0.02788567 -0.00763538
v -0.00175263 0.02800783 -0.00712630
v -0.00208508 0.02804415 -0.00412293
v -0.00208508 0.02797811 -0.00378865
v 0.00679862 0.01529020 -0.00979642
v 0.00687922 0.01502607 -0.00979642
v 0.00711932 0.01429313 -0.00972895
v 0.00707734 0.01417097 -0.00995078
v 0.00743161 0.01288336 -0.00996816
v 0.00711092 0.01394976 -0.00997838
v 0.00024876 0.02695133 -0.00765992
v 0.00042841 0.02688860 -0.00763538
v 0.00078437 0.02657165 -0.00764663
v 0.00114200 0.02625470 -0.00765480
v 0.00149963 0.02593775 -0.00765992
v 0.00185894 0.02562410 -0.00766196
v 0.00208057 0.02553826 -0.00762005
v 0.00242645 0.02490106 -0.00763538
v 0.00237776 0.02512556 -0.00745955
v -0.00056892 0.02755221 -0.00763436
v 0.00005735 0.02718904 -0.00757405
v 0.00745176 0.01269187 -0.00998145
v 0.00748366 0.01235841 -0.00999576
v 0.00759280 0.01135473 -0.01001927
v 0.00759280 0.01102458 -0.01002541
v 0.00759280 0.01069112 -0.01002949
v 0.00725868 0.01069112 -0.01003358
v -0.00108438 -0.00499792 -0.01003358
v -0.00141851 -0.00499792 -0.01003256
v -0.00241921 -0.00490218 -0.00999372
v -0.00275333 -0.00466777 -0.01000189
v -0.00175263 -0.00499792 -0.01002643
v -0.00308746 -0.00455221 -0.00998554
v -0.00108438 -0.00546344 -0.00991909
v -0.00090977 -0.00549316 -0.00995998
v -0.00208508 -0.00521913 -0.00979335
v -0.00175263 -0.00532478 -0.00979642
v -0.00197259 -0.00518281 -0.00997838
v -0.00068814 -0.00551297 -0.00997532
v -0.00041781 -0.00552287 -0.00998247
v -0.00008537 -0.00561532 -0.00979642
v 0.00024876 -0.00560871 -0.00979642
v 0.00058288 -0.00558891 -0.00979642
v 0.00058288 -0.00564173 -0.00946215
v 0.00091701 -0.00559881 -0.00912889
v 0.00091701 -0.00559551 -0.00879462
v 0.00119237 -0.00551957 -0.00859119
v 0.00191771 -0.00524884 -0.00852679
v 0.00158358 -0.00530497 -0.00850225
v 0.00686243 0.00986573 0.00040974
v -0.00264252 -0.00485926 -0.00998145
v -0.00286415 -0.00478332 -0.00988945
v -0.00219590 -0.00512008 -0.00990273
v -0.00240410 -0.00506726 -0.00979335
v -0.00184834 0.02788898 -0.00361385
v -0.00575710 0.02228292 0.00040974
v -0.00142355 0.02790878 -0.00745547
v -0.00131609 0.02785266 -0.00756382
v -0.00141851 0.02793850 -0.00712630
v -0.00122710 0.02788567 -0.00734097
v -0.00175263 0.02800783 -0.00412293
v -0.00174256 0.02793520 -0.00376412
v 0.00682717 0.01534963 -0.00946215
v 0.00694302 0.01502607 -0.00946215
v 0.00743665 0.01323002 -0.00967375
v 0.00778421 0.01194571 -0.00971873
v 0.00746184 0.01300551 -0.00979029
v 0.00773720 0.01181695 -0.00994158
v 0.00777413 0.01159575 -0.00997532
v 0.00046199 0.02691501 -0.00745955
v 0.00176156 0.02588492 -0.00733382
v 0.00211079 0.02556797 -0.00739720
v 0.00220146 0.02540620 -0.00748920
v 0.00240462 0.02517179 -0.00712630
v -0.00075026 0.02767437 -0.00745955
v -0.00052191 0.02757532 -0.00745955
v -0.00035569 0.02748288 -0.00745955
v -0.00006690 0.02730130 -0.00746160
v 0.00009933 0.02722206 -0.00735120
v 0.00778589 0.01135473 -0.00998452
v 0.00779764 0.01102458 -0.00999065
v 0.00780772 0.01069112 -0.00999474
v 0.00682885 0.00234806 -0.00999780
v 0.00659042 0.00201130 -0.01002847
v 0.00659042 0.00234806 -0.01003256
v 0.00659042 0.00268152 -0.01003358
v -0.00008537 -0.00533138 -0.01002132
v 0.00125114 -0.00499792 -0.01003358
v -0.00041781 -0.00533138 -0.01001723
v -0.00175263 -0.00520922 -0.00999167
v -0.00141851 -0.00524884 -0.00999780
v -0.00008537 -0.00552618 -0.00998554
v 0.00024876 -0.00552618 -0.00998452
v 0.00058288 -0.00551627 -0.00997838
v 0.00091365 -0.00554268 -0.00981278
v 0.00091701 -0.00559881 -0.00946215
v 0.00080116 -0.00550636 -0.00997020
v 0.00124946 -0.00553278 -0.00912889
v 0.00124778 -0.00553278 -0.00879462
v 0.00141568 -0.00549646 -0.00879462
v 0.00158358 -0.00544364 -0.00879462
v 0.00217124 -0.00520262 -0.00857381
v 0.00258596 -0.00493850 -0.00851861
v 0.00782954 0.01014636 0.00040974
v 0.00772880 0.01010674 0.00040974
v 0.00759280 0.01005722 0.00040974
v -0.00083589 0.02757202 -0.00360669
v -0.00162671 0.02785596 -0.00363633
v -0.00567315 0.02226311 0.00040974
v -0.00555562 0.02223339 0.00040974
v -0.00110285 0.02780643 -0.00745547
v -0.00121367 0.02789227 -0.00712630
v -0.00141851 0.02793850 -0.00412293
v -0.00104745 0.02783285 -0.00712630
v -0.00075026 0.02771729 -0.00712630
v -0.00141851 0.02790878 -0.00386021
v -0.00122710 0.02788567 -0.00392563
v 0.00682717 0.01535293 -0.00245359
v 0.00703704 0.01469261 -0.00946215
v 0.00689433 0.01516474 0.00040974
v 0.00694302 0.01502607 0.00040974
v 0.00769354 0.01235841 -0.00946215
v 0.00779596 0.01198863 -0.00946215
v 0.00787320 0.01168819 -0.00946215
v 0.00781275 0.01170140 -0.00981687
v 0.00787152 0.01135473 -0.00979642
v 0.00790006 0.01102458 -0.00979642
v 0.00792693 0.01069112 -0.00979642
v 0.00176659 0.02588822 -0.00712630
v 0.00193282 0.02574626 -0.00712630
v 0.00212423 0.02558118 -0.00712630
v 0.00048718 0.02693482 -0.00712630
v 0.00065508 0.02679946 -0.00712630
v 0.00227702 0.02537318 -0.00712630
v 0.00240462 0.02517179 -0.00412293
v -0.00031875 0.02750929 -0.00712630
v -0.00048497 0.02759513 -0.00712630
v -0.00008537 0.02736072 -0.00712630
v 0.00010772 0.02722866 -0.00712630
v 0.00027394 0.02710320 -0.00712630
v 0.00779596 0.01042369 -0.00998554
v 0.00680870 0.00201130 -0.00999372
v 0.00659042 0.00167784 -0.01001314
v 0.00625798 0.00101093 -0.01002745
v 0.00625798 0.00134438 -0.01003358
v 0.00024876 -0.00533138 -0.01001927
v 0.00191771 -0.00466447 -0.01003358
v 0.00225183 -0.00466447 -0.01003256
v 0.00158358 -0.00499792 -0.01003052
v 0.00058288 -0.00533138 -0.01001314
v 0.00158358 -0.00522573 -0.00999474
v 0.00119405 -0.00551957 -0.00971260
v 0.00124946 -0.00553278 -0.00946215
v 0.00102447 -0.00547005 -0.00993443
v 0.00191771 -0.00518942 -0.00997940
v 0.00209233 -0.00516630 -0.00996509
v 0.00141736 -0.00549646 -0.00912889
v 0.00158358 -0.00544694 -0.00912889
v 0.00191771 -0.00533468 -0.00879462
v 0.00221489 -0.00522243 -0.00879462
v 0.00238112 -0.00514650 -0.00879462
v 0.00258596 -0.00504745 -0.00879462
v 0.00282606 -0.00487577 -0.00856972
v 0.00795547 0.01035766 0.00040974
v 0.00325253 -0.00456872 -0.00855336
v 0.00343554 -0.00450929 -0.00860959
v 0.00378646 -0.00419234 -0.00859119
v 0.00411890 -0.00386219 -0.00858914
v 0.00443960 -0.00351552 -0.00860243
v 0.00480898 -0.00291464 -0.00856256
v 0.00509106 -0.00249864 -0.00862390
v -0.00061426 0.02751920 -0.00363940
v -0.00020458 0.02723857 -0.00360771
v 0.00673146 0.01551801 0.00040974
v -0.00121367 0.02789227 -0.00412293
v -0.00104745 0.02783285 -0.00412293
v -0.00075026 0.02771729 -0.00412293
v -0.00073515 0.02762815 -0.00376616
v -0.00051855 0.02757863 -0.00386225
v 0.00682717 0.01535293 -0.00045100
v 0.00703704 0.01469261 -0.00045100
v 0.00727882 0.01383421 0.00040974
v 0.00682717 0.01534963 0.00040974
v 0.00769354 0.01235841 0.00040974
v 0.00779596 0.01198863 0.00040974
v 0.00784130 0.01181695 0.00040974
v 0.00790678 0.01149670 0.00040974
v 0.00793028 0.01135473 -0.00946215
v 0.00787320 0.01168819 0.00040974
v 0.00796386 0.01102458 -0.00946215
v 0.00799744 0.01069112 -0.00946215
v 0.00709917 0.00277396 -0.00965944
v 0.00697996 0.00234806 -0.00979642
v 0.00176659 0.02588822 -0.00412293
v 0.00193282 0.02574626 -0.00412293
v 0.00212423 0.02558118 -0.00412293
v 0.00048718 0.02693482 -0.00412293
v 0.00065508 0.02679946 -0.00412293
v 0.00227702 0.02537318 -0.00412293
v 0.00211079 0.02556797 -0.00388985
v -0.00031875 0.02750929 -0.00412293
v -0.00048497 0.02759513 -0.00412293
v -0.00008537 0.02736072 -0.00412293
v 0.00010772 0.02722866 -0.00412293
v 0.00027394 0.02710320 -0.00412293
v 0.00677847 0.00167784 -0.00997838
v 0.00647961 0.00101093 -0.00999167
v 0.00558973 -0.00032291 -0.01003154
v 0.00616395 0.00034401 -0.00999474
v 0.00525560 -0.00132658 -0.01002029
v 0.00492148 -0.00199350 -0.01002438
v 0.00492148 -0.00166004 -0.01003358
v 0.00325253 -0.00399425 -0.01003358
v 0.00258596 -0.00466447 -0.01001927
v 0.00292008 -0.00432771 -0.01003052
v 0.00191771 -0.00499792 -0.01001416
v 0.00158358 -0.00544694 -0.00946215
v 0.00141736 -0.00549646 -0.00946215
v 0.00191771 -0.00527526 -0.00979642
v 0.00222329 -0.00499132 -0.00999269
v 0.00258596 -0.00486916 -0.00998452
v 0.00215613 -0.00519602 -0.00979642
v 0.00276393 -0.00483615 -0.00996816
v 0.00191771 -0.00533799 -0.00912889
v 0.00221657 -0.00522243 -0.00912889
v 0.00238280 -0.00514650 -0.00912889
v 0.00258596 -0.00504745 -0.00946215
v 0.00286468 -0.00489888 -0.00912889
v 0.00286300 -0.00489888 -0.00879462
v 0.00799577 0.01069112 0.00040974
v 0.00643763 0.00048267 -0.00860652
v 0.00679527 0.00141042 -0.00857381
v 0.00691783 0.00167784 -0.00879462
v 0.00699843 0.00201130 -0.00879462
v 0.00705887 0.00234806 -0.00879462
v 0.00303090 -0.00479323 -0.00879462
v 0.00325253 -0.00464466 -0.00879462
v 0.00344394 -0.00451590 -0.00879462
v 0.00361016 -0.00437393 -0.00879462
v 0.00380493 -0.00420555 -0.00879462
v 0.00397115 -0.00404707 -0.00879462
v 0.00413569 -0.00388200 -0.00879462
v 0.00444799 -0.00352873 -0.00879462
v 0.00459239 -0.00332733 -0.00879462
v 0.00473175 -0.00312594 -0.00879462
v 0.00483753 -0.00296086 -0.00879462
v 0.00500375 -0.00266702 -0.00879462
v 0.00509274 -0.00249864 -0.00879462
v 0.00517669 -0.00232696 -0.00879462
v 0.00533284 -0.00199350 -0.00879462
v 0.00573412 -0.00110868 -0.00879462
v -0.00009040 0.02728809 -0.00380092
v 0.00075918 0.02654854 -0.00361793
v 0.00038812 0.02684898 -0.00364042
v 0.00001705 0.02715272 -0.00369665
v 0.00218635 0.02537978 -0.00378354
v 0.00203860 0.02549534 -0.00366802
v 0.00111010 0.02623159 -0.00361078
v 0.00009933 0.02722206 -0.00391950
v 0.00793028 0.01135473 0.00040974
v 0.00796386 0.01102458 -0.00045100
v 0.00708574 0.00256926 -0.00946215
v 0.00799744 0.01069112 -0.00045100
v 0.00706055 0.00234806 -0.00946215
v 0.00700011 0.00201130 -0.00946215
v 0.00692959 0.00201130 -0.00979642
v 0.00676001 0.00150286 -0.00996509
v 0.00176156 0.02588492 -0.00393074
v 0.00644603 0.00078972 -0.00997838
v 0.00612030 0.00009639 -0.00998247
v 0.00513975 -0.00199350 -0.00998963
v 0.00492316 -0.00231705 -0.00999883
v 0.00458903 -0.00266042 -0.01002336
v 0.00458903 -0.00232696 -0.01003358
v 0.00392078 -0.00332733 -0.01003358
v 0.00393925 -0.00368060 -0.01000496
v 0.00360344 -0.00401076 -0.01000496
v 0.00325589 -0.00433431 -0.01000292
v 0.00289322 -0.00465126 -0.00999167
v 0.00191771 -0.00533799 -0.00946215
v 0.00238280 -0.00514650 -0.00946215
v 0.00221657 -0.00522243 -0.00946215
v 0.00281766 -0.00486916 -0.00979642
v 0.00314507 -0.00453240 -0.00998247
v 0.00336838 -0.00444986 -0.00989456
v 0.00343554 -0.00450929 -0.00967273
v 0.00286468 -0.00489888 -0.00946215
v 0.00798233 0.01083308 0.00040974
v 0.00708574 0.00257257 -0.00879462
v 0.00636879 0.00029779 -0.00879462
v 0.00654005 0.00067747 -0.00879462
v 0.00668109 0.00101093 -0.00879462
v 0.00675329 0.00118921 -0.00879462
v 0.00681541 0.00135759 -0.00879462
v 0.00691783 0.00167784 -0.00946215
v 0.00700011 0.00201130 -0.00912889
v 0.00706055 0.00234806 -0.00912889
v 0.00303090 -0.00479323 -0.00946215
v 0.00325253 -0.00464466 -0.00946215
v 0.00344394 -0.00451590 -0.00946215
v 0.00361016 -0.00437393 -0.00946215
v 0.00380493 -0.00420555 -0.00946215
v 0.00397115 -0.00404707 -0.00946215
v 0.00413569 -0.00388200 -0.00946215
v 0.00444799 -0.00352873 -0.00946215
v 0.00459239 -0.00332733 -0.00946215
v 0.00473343 -0.00312594 -0.00912889
v 0.00483753 -0.00296086 -0.00946215
v 0.00500543 -0.00266702 -0.00912889
v 0.00509274 -0.00250194 -0.00912889
v 0.00517837 -0.00232696 -0.00912889
v 0.00533452 -0.00199350 -0.00912889
v 0.00563674 -0.00132658 -0.00912889
v 0.00046367 0.02691501 -0.00386327
v 0.00708574 0.00256926 -0.00912889
v 0.00685907 0.00167784 -0.00979642
v 0.00678855 0.00142692 -0.00979642
v 0.00648297 0.00067747 -0.00979438
v 0.00575595 -0.00082144 -0.00996203
v 0.00543022 -0.00151147 -0.00996918
v 0.00510617 -0.00219820 -0.00997532
v 0.00480898 -0.00266042 -0.00998861
v 0.00458064 -0.00297407 -0.00999576
v 0.00426330 -0.00333393 -0.01000394
v 0.00425491 -0.00299387 -0.01003154
v 0.00383851 -0.00391171 -0.00998656
v 0.00415752 -0.00358155 -0.00998656
v 0.00350270 -0.00422866 -0.00998656
v 0.00372601 -0.00413291 -0.00993443
v 0.00358162 -0.00432110 -0.00980358
v 0.00378814 -0.00419234 -0.00971260
v 0.00623951 0.00001055 -0.00912889
v 0.00654005 0.00067747 -0.00946215
v 0.00668277 0.00101093 -0.00912889
v 0.00675329 0.00118921 -0.00946215
v 0.00681541 0.00135759 -0.00946215
v 0.00411890 -0.00386219 -0.00971566
v 0.00443960 -0.00351882 -0.00968806
v 0.00473343 -0.00312594 -0.00946215
v 0.00480730 -0.00291133 -0.00979642
v 0.00509106 -0.00249864 -0.00964002
v 0.00500543 -0.00266702 -0.00946215
v 0.00509274 -0.00250194 -0.00946215
v 0.00517837 -0.00232696 -0.00946215
v 0.00533452 -0.00199350 -0.00946215
v 0.00563674 -0.00132658 -0.00946215
v 0.00643763 0.00047937 -0.00968091
v 0.00611526 -0.00021065 -0.00971464
v 0.00546380 -0.00158411 -0.00979642
v 0.00513471 -0.00231705 -0.00976882
v 0.00476869 -0.00285191 -0.00997327
v 0.00446310 -0.00322829 -0.00998452
v 0.00406182 -0.00380276 -0.00993749
v 0.00623951 0.00001055 -0.00946215
v 0.00668277 0.00101093 -0.00946215
v 0.00438083 -0.00344949 -0.00991091
f 10 13 29
f 471 525 527
f 587 590 527
f 527 525 587
f 581 590 542
f 542 607 581
f 590 587 542
f 2 7 8
f 89 90 51
f 13 10 3
f 3 12 1
f 13 31 32
f 32 31 62
f 28 10 29
f 29 59 28
f 528 471 527
f 581 580 517
f 525 471 470
f 371 311 370
f 356 311 296
f 370 311 356
f 145 214 148
f 215 214 145
f 7 2 9
f 50 22 27
f 51 22 50
f 90 89 124
f 88 89 51
f 90 136 137
f 8 7 23
f 7 22 23
f 51 90 52
f 52 22 51
f 125 137 182
f 90 137 125
f 30 31 13
f 61 95 96
f 96 62 61
f 62 31 61
f 31 30 61
f 33 32 62
f 33 59 29
f 29 13 33
f 13 32 33
f 148 109 100
f 100 145 148
f 99 145 100
f 100 109 64
f 296 311 231
f 64 109 65
f 37 69 70
f 570 573 572
f 396 397 328
f 456 455 513
f 456 397 396
f 396 455 456
f 513 455 512
f 593 596 531
f 667 595 594
f 594 595 531
f 531 596 594
f 592 593 530
f 530 593 531
f 531 473 530
f 472 530 473
f 529 530 472
f 581 607 663
f 663 664 581
f 607 664 663
f 660 664 607
f 660 580 581
f 607 542 606
f 525 470 481
f 481 470 426
f 481 426 480
f 480 541 481
f 416 369 415
f 419 477 424
f 424 369 423
f 480 426 424
f 296 214 297
f 297 356 296
f 297 214 215
f 217 297 215
f 147 145 99
f 215 145 147
f 147 217 215
f 372 371 370
f 311 371 372
f 58 26 57
f 96 95 97
f 97 62 96
f 62 97 98
f 98 97 142
f 24 22 7
f 7 9 24
f 27 22 24
f 24 9 27
f 51 50 86
f 254 255 182
f 184 255 256
f 326 327 256
f 256 325 326
f 255 325 256
f 126 127 90
f 90 124 126
f 133 90 132
f 90 127 128
f 178 124 123
f 123 124 89
f 185 125 184
f 183 125 182
f 184 125 183
f 182 255 183
f 183 255 184
f 258 327 329
f 329 328 258
f 396 328 329
f 329 327 326
f 326 395 329
f 329 395 396
f 257 327 258
f 258 185 257
f 257 185 184
f 184 256 257
f 257 256 327
f 95 61 60
f 60 61 30
f 63 33 62
f 62 98 63
f 63 98 101
f 63 100 64
f 99 100 63
f 218 214 296
f 296 231 218
f 148 214 218
f 312 231 311
f 313 231 312
f 311 369 312
f 157 109 156
f 156 218 231
f 156 109 148
f 148 218 156
f 314 231 313
f 15 14 35
f 64 65 35
f 16 37 38
f 16 5 15
f 110 109 157
f 11 14 12
f 28 14 11
f 10 28 11
f 12 3 11
f 11 3 10
f 15 5 4
f 4 14 15
f 12 14 4
f 1 12 4
f 4 5 1
f 5 18 19
f 559 504 561
f 502 504 559
f 502 450 504
f 636 573 570
f 689 629 688
f 454 455 396
f 396 395 454
f 381 379 433
f 533 597 598
f 595 597 533
f 649 576 575
f 570 510 509
f 509 510 455
f 455 454 509
f 457 456 513
f 397 456 457
f 695 670 667
f 637 670 695
f 696 670 637
f 696 642 704
f 637 642 696
f 670 696 722
f 722 696 704
f 575 576 511
f 511 574 575
f 573 574 511
f 511 572 573
f 570 572 511
f 511 510 570
f 455 510 511
f 511 512 455
f 641 642 571
f 571 642 637
f 571 511 578
f 667 670 668
f 526 472 471
f 529 472 526
f 473 416 474
f 474 416 415
f 675 660 607
f 581 664 665
f 665 660 581
f 664 660 665
f 514 462 517
f 463 462 404
f 345 404 405
f 404 462 405
f 607 606 603
f 603 675 607
f 426 470 412
f 412 369 426
f 412 470 471
f 415 369 414
f 414 474 415
f 414 472 473
f 473 474 414
f 471 472 414
f 414 412 471
f 419 369 418
f 149 153 105
f 280 281 204
f 349 281 348
f 205 139 204
f 204 139 138
f 138 139 92
f 93 139 140
f 92 139 93
f 93 58 92
f 282 283 204
f 204 281 282
f 282 281 349
f 204 283 284
f 478 424 477
f 478 540 536
f 539 540 478
f 426 369 425
f 425 424 426
f 369 424 425
f 408 372 370
f 427 372 408
f 229 307 309
f 99 63 108
f 108 107 152
f 108 63 107
f 374 369 311
f 374 372 427
f 374 418 369
f 419 418 374
f 482 483 427
f 467 522 482
f 482 522 483
f 419 374 428
f 428 374 427
f 428 477 419
f 57 26 56
f 26 55 56
f 91 58 57
f 92 58 91
f 141 97 95
f 142 97 141
f 141 209 142
f 87 86 118
f 118 117 87
f 87 117 88
f 87 88 51
f 51 86 87
f 504 450 501
f 449 501 450
f 500 501 449
f 181 126 124
f 90 130 131
f 131 132 90
f 129 130 90
f 90 128 129
f 114 166 167
f 89 88 122
f 122 123 89
f 88 117 122
f 134 90 133
f 375 312 369
f 378 379 313
f 313 312 378
f 430 379 378
f 381 314 380
f 380 379 381
f 313 379 380
f 380 314 313
f 34 14 28
f 34 35 14
f 33 63 34
f 34 63 64
f 64 35 34
f 34 28 59
f 59 33 34
f 17 16 38
f 17 18 5
f 5 16 17
f 68 110 69
f 69 37 68
f 70 111 71
f 71 37 70
f 1 5 6
f 5 19 6
f 626 624 559
f 450 502 503
f 503 451 450
f 503 502 559
f 693 694 690
f 569 636 570
f 569 635 636
f 570 509 569
f 687 629 689
f 687 626 629
f 624 626 687
f 508 509 454
f 754 753 752
f 490 489 549
f 490 433 489
f 431 379 430
f 598 599 535
f 430 429 476
f 595 533 532
f 532 473 531
f 531 595 532
f 533 476 532
f 549 489 548
f 489 535 548
f 672 599 671
f 563 561 504
f 629 626 563
f 559 561 563
f 563 626 559
f 647 574 573
f 576 649 650
f 577 576 578
f 578 511 577
f 577 511 576
f 638 571 578
f 639 571 638
f 640 703 641
f 641 571 640
f 640 571 639
f 589 591 529
f 529 526 589
f 604 666 675
f 580 660 661
f 660 675 721
f 675 666 721
f 721 661 660
f 666 661 721
f 517 462 516
f 462 463 516
f 230 309 310
f 230 229 309
f 601 675 602
f 675 603 602
f 543 483 544
f 483 522 544
f 583 582 524
f 423 369 422
f 369 421 422
f 422 424 423
f 422 421 424
f 419 424 420
f 424 421 420
f 420 369 419
f 420 421 369
f 369 412 413
f 413 414 369
f 412 414 413
f 101 149 102
f 102 63 101
f 152 107 106
f 106 105 152
f 107 63 106
f 63 105 106
f 152 105 151
f 224 223 151
f 144 149 101
f 101 98 144
f 220 153 149
f 344 404 345
f 345 280 344
f 346 280 345
f 281 280 346
f 288 205 287
f 287 300 288
f 94 93 140
f 58 93 94
f 140 139 208
f 362 361 305
f 305 282 349
f 287 284 355
f 285 205 204
f 204 284 285
f 287 205 286
f 286 284 287
f 205 285 286
f 286 285 284
f 369 416 417
f 417 375 369
f 416 476 417
f 417 476 429
f 479 478 538
f 424 478 479
f 480 424 479
f 538 541 479
f 479 541 480
f 370 356 358
f 358 408 370
f 408 358 407
f 427 408 465
f 465 482 427
f 306 307 226
f 307 229 226
f 304 308 226
f 226 223 304
f 146 147 99
f 99 108 146
f 155 146 108
f 311 372 373
f 373 374 311
f 372 374 373
f 477 428 486
f 546 547 486
f 486 547 539
f 486 478 477
f 539 478 486
f 25 26 8
f 25 53 26
f 54 55 26
f 26 53 54
f 182 137 203
f 203 137 136
f 203 254 182
f 496 436 494
f 553 500 494
f 450 451 394
f 394 449 450
f 393 449 394
f 496 494 447
f 179 124 178
f 127 126 186
f 126 181 186
f 166 114 121
f 135 136 90
f 90 134 135
f 312 375 376
f 377 429 430
f 377 376 375
f 377 417 429
f 375 417 377
f 430 378 377
f 377 378 312
f 312 376 377
f 37 39 67
f 67 68 37
f 67 65 109
f 109 110 67
f 110 68 67
f 37 16 40
f 40 39 37
f 16 39 40
f 36 39 16
f 36 16 15
f 15 35 36
f 38 37 72
f 37 71 72
f 72 71 111
f 395 452 453
f 453 452 506
f 453 454 395
f 506 454 453
f 559 624 625
f 506 452 505
f 643 644 573
f 573 636 643
f 636 635 643
f 567 632 568
f 568 509 567
f 568 569 509
f 634 690 694
f 634 688 629
f 629 690 634
f 507 454 506
f 507 508 454
f 565 508 507
f 567 509 566
f 509 508 566
f 761 754 740
f 753 754 761
f 740 754 762
f 674 723 724
f 724 725 674
f 754 725 724
f 381 433 434
f 433 493 434
f 433 490 491
f 491 490 549
f 432 433 379
f 379 431 432
f 489 433 432
f 534 476 533
f 535 476 534
f 534 533 598
f 598 535 534
f 487 476 535
f 487 431 430
f 430 476 487
f 475 476 416
f 475 532 476
f 475 416 473
f 473 532 475
f 549 548 600
f 600 613 549
f 600 535 599
f 600 548 535
f 674 613 600
f 676 613 674
f 674 725 676
f 669 599 598
f 669 671 599
f 504 501 558
f 630 690 629
f 629 563 630
f 693 690 630
f 630 692 693
f 574 647 648
f 575 574 648
f 648 649 575
f 651 652 576
f 576 650 651
f 658 638 578
f 578 657 658
f 701 640 639
f 528 589 588
f 588 589 526
f 605 675 601
f 605 604 675
f 580 661 662
f 662 661 666
f 610 666 611
f 610 608 666
f 583 524 584
f 537 478 536
f 538 478 537
f 521 522 467
f 467 519 521
f 462 514 515
f 149 105 103
f 103 102 149
f 63 102 103
f 150 105 153
f 150 151 105
f 224 151 150
f 150 223 224
f 153 221 150
f 406 346 345
f 345 405 406
f 462 515 469
f 467 409 466
f 466 519 467
f 366 364 348
f 205 288 289
f 139 205 206
f 149 144 213
f 144 211 213
f 143 98 142
f 143 144 98
f 353 300 287
f 353 301 300
f 295 211 294
f 303 223 302
f 304 223 303
f 361 360 352
f 352 305 361
f 352 360 359
f 359 301 352
f 301 353 352
f 352 353 283
f 348 364 363
f 364 305 363
f 349 348 363
f 363 305 349
f 365 305 364
f 611 666 612
f 666 604 612
f 356 297 299
f 299 358 356
f 297 217 299
f 408 407 464
f 467 465 464
f 464 465 408
f 464 409 467
f 464 407 409
f 310 367 357
f 357 407 358
f 358 299 357
f 467 482 518
f 518 465 467
f 482 465 518
f 225 151 223
f 223 226 225
f 225 226 151
f 216 155 230
f 217 147 216
f 147 146 216
f 146 155 216
f 151 226 227
f 545 486 543
f 546 486 545
f 484 483 543
f 543 486 484
f 427 483 484
f 484 428 427
f 279 322 254
f 254 203 279
f 278 279 203
f 435 494 436
f 234 158 233
f 499 494 500
f 499 447 494
f 496 447 446
f 447 392 446
f 180 181 124
f 124 179 180
f 336 334 399
f 166 121 177
f 177 121 176
f 167 166 177
f 160 113 112
f 335 334 336
f 335 268 334
f 398 332 331
f 334 268 333
f 333 399 334
f 332 399 333
f 200 134 199
f 65 67 66
f 66 35 65
f 66 36 35
f 66 67 39
f 39 36 66
f 171 122 117
f 123 122 171
f 18 47 48
f 20 21 6
f 20 6 19
f 20 19 18
f 560 503 559
f 559 625 560
f 693 706 705
f 705 694 693
f 569 568 633
f 633 568 632
f 565 507 564
f 567 566 631
f 631 632 567
f 656 657 578
f 652 651 714
f 716 654 653
f 652 714 653
f 653 654 578
f 578 576 653
f 576 652 653
f 742 724 743
f 742 762 754
f 754 724 742
f 702 723 672
f 702 724 723
f 743 724 702
f 693 692 737
f 745 712 711
f 711 744 745
f 492 493 433
f 433 491 492
f 431 487 488
f 489 432 488
f 488 432 431
f 488 535 489
f 488 487 535
f 673 723 674
f 674 600 673
f 673 600 599
f 673 599 672
f 672 723 673
f 613 676 614
f 557 558 501
f 557 500 553
f 557 501 500
f 738 709 693
f 693 737 738
f 573 644 645
f 698 638 697
f 638 658 697
f 639 638 700
f 700 701 639
f 580 662 659
f 659 662 666
f 104 105 63
f 63 103 104
f 104 103 105
f 222 150 221
f 302 223 222
f 223 150 222
f 523 515 524
f 523 469 515
f 524 468 523
f 468 469 523
f 462 469 411
f 411 405 462
f 411 406 405
f 368 406 411
f 411 469 468
f 520 524 582
f 520 468 524
f 347 366 348
f 347 348 281
f 368 366 347
f 347 406 368
f 281 346 347
f 346 406 347
f 294 211 293
f 207 208 139
f 139 206 207
f 212 211 144
f 144 143 212
f 212 143 211
f 287 355 354
f 354 353 287
f 283 353 354
f 354 284 283
f 354 355 284
f 219 213 211
f 211 295 219
f 149 213 219
f 219 220 149
f 219 295 221
f 153 220 219
f 219 221 153
f 282 305 350
f 305 352 350
f 298 230 310
f 310 357 298
f 217 216 298
f 298 216 230
f 298 299 217
f 298 357 299
f 228 226 229
f 151 227 154
f 152 151 154
f 154 108 152
f 154 155 108
f 154 228 229
f 154 227 226
f 226 228 154
f 229 230 154
f 230 155 154
f 485 486 428
f 428 484 485
f 485 484 486
f 324 392 393
f 448 449 393
f 393 392 448
f 500 449 448
f 448 499 500
f 448 392 447
f 447 499 448
f 382 435 436
f 382 383 315
f 436 383 382
f 494 435 495
f 553 494 495
f 315 233 232
f 232 233 158
f 439 436 496
f 439 383 436
f 238 179 178
f 178 123 238
f 168 114 167
f 127 186 187
f 187 188 127
f 188 187 260
f 459 399 458
f 384 383 438
f 316 383 384
f 316 233 315
f 315 383 316
f 81 113 119
f 252 253 175
f 253 239 175
f 176 121 175
f 175 177 176
f 167 177 175
f 175 239 167
f 112 158 159
f 159 160 112
f 159 158 234
f 234 160 159
f 336 338 337
f 132 131 194
f 131 193 194
f 267 331 332
f 198 199 134
f 271 199 198
f 46 47 18
f 81 47 46
f 46 80 81
f 41 17 38
f 38 72 41
f 116 78 77
f 76 48 77
f 48 85 77
f 123 171 170
f 170 238 123
f 82 48 47
f 82 47 81
f 81 119 82
f 83 121 114
f 83 82 121
f 48 82 83
f 44 49 21
f 21 20 44
f 75 49 44
f 18 48 44
f 44 48 76
f 44 79 75
f 76 77 44
f 44 78 79
f 44 77 78
f 751 750 748
f 752 751 748
f 750 749 748
f 757 756 748
f 748 756 755
f 748 754 752
f 755 754 748
f 748 749 715
f 715 747 748
f 717 654 716
f 719 658 657
f 678 617 616
f 758 745 763
f 747 745 758
f 757 748 758
f 758 748 747
f 736 737 692
f 736 738 737
f 621 622 685
f 746 747 715
f 746 745 747
f 493 492 552
f 552 492 491
f 550 491 549
f 549 613 550
f 613 614 550
f 621 627 623
f 562 563 504
f 504 558 562
f 558 623 562
f 562 623 627
f 628 630 563
f 563 562 628
f 628 562 627
f 628 627 621
f 709 738 710
f 710 744 711
f 710 738 744
f 646 647 573
f 573 645 646
f 707 706 693
f 720 697 658
f 658 719 720
f 698 697 720
f 720 739 698
f 698 741 699
f 741 700 699
f 699 638 698
f 699 700 638
f 580 659 579
f 579 517 580
f 579 514 517
f 579 585 524
f 579 515 514
f 524 515 579
f 586 609 584
f 524 585 586
f 586 584 524
f 608 609 586
f 666 608 586
f 586 659 666
f 585 579 586
f 586 579 659
f 368 411 410
f 410 411 468
f 291 206 205
f 211 143 210
f 142 209 210
f 210 143 142
f 351 352 283
f 351 350 352
f 283 282 351
f 282 350 351
f 391 390 442
f 442 446 391
f 391 446 392
f 390 391 323
f 392 324 323
f 323 391 392
f 339 338 336
f 458 460 400
f 400 459 458
f 336 399 400
f 399 459 400
f 497 446 442
f 388 403 389
f 389 323 388
f 390 323 389
f 442 390 389
f 389 441 442
f 556 557 553
f 553 495 556
f 558 557 556
f 556 623 558
f 621 623 556
f 681 732 682
f 169 164 114
f 114 168 169
f 192 131 130
f 192 193 131
f 130 129 192
f 259 260 187
f 387 386 399
f 387 398 385
f 387 332 398
f 387 399 332
f 440 438 458
f 458 399 440
f 399 386 440
f 440 386 384
f 384 438 440
f 319 242 236
f 385 398 330
f 330 265 264
f 398 331 330
f 331 265 330
f 174 175 121
f 246 174 245
f 245 174 244
f 235 162 234
f 236 162 235
f 161 160 234
f 234 162 161
f 113 160 161
f 161 162 113
f 132 194 195
f 133 132 195
f 195 196 133
f 270 335 336
f 336 337 270
f 43 46 18
f 18 17 43
f 80 46 73
f 73 113 81
f 81 80 73
f 73 46 74
f 74 41 73
f 73 111 112
f 112 113 73
f 73 72 111
f 73 41 72
f 115 77 114
f 116 77 115
f 84 83 114
f 114 77 84
f 84 77 85
f 84 85 48
f 48 83 84
f 45 20 18
f 18 44 45
f 45 44 20
f 655 656 578
f 578 654 655
f 654 717 655
f 656 655 718
f 718 655 717
f 732 681 680
f 731 732 680
f 680 730 731
f 616 614 677
f 677 678 616
f 677 614 676
f 731 730 759
f 759 730 758
f 759 758 763
f 757 758 728
f 728 677 676
f 678 677 728
f 733 736 735
f 733 735 684
f 684 735 685
f 684 685 622
f 622 620 684
f 712 745 713
f 745 746 713
f 619 552 615
f 630 628 686
f 621 685 686
f 686 628 621
f 693 709 708
f 708 707 693
f 290 291 205
f 205 289 290
f 292 293 211
f 211 210 292
f 200 199 272
f 272 199 271
f 136 135 202
f 202 135 134
f 275 276 202
f 202 203 136
f 202 276 203
f 275 202 274
f 461 400 460
f 439 497 437
f 383 439 437
f 458 438 437
f 437 438 383
f 496 446 498
f 446 497 498
f 498 439 496
f 498 497 439
f 441 389 445
f 445 460 458
f 445 497 442
f 442 441 445
f 458 437 445
f 445 437 497
f 341 276 275
f 275 274 341
f 277 343 278
f 277 276 343
f 277 278 203
f 203 276 277
f 554 620 555
f 555 620 622
f 555 495 554
f 555 556 495
f 555 622 621
f 621 556 555
f 758 730 729
f 729 728 758
f 729 680 679
f 730 680 729
f 679 678 729
f 678 728 729
f 241 180 179
f 181 180 241
f 175 249 250
f 247 245 244
f 246 245 247
f 247 174 246
f 175 174 247
f 248 244 264
f 248 247 244
f 248 249 175
f 175 247 248
f 252 175 251
f 175 250 251
f 262 263 190
f 240 186 181
f 240 187 186
f 240 259 187
f 386 387 317
f 384 386 317
f 317 316 384
f 317 387 385
f 233 316 317
f 121 172 173
f 173 172 242
f 173 174 121
f 236 242 237
f 242 172 237
f 121 82 120
f 120 172 121
f 120 82 119
f 119 172 120
f 264 244 321
f 321 330 264
f 320 321 244
f 385 330 320
f 330 321 320
f 242 319 320
f 197 196 269
f 269 198 197
f 197 198 134
f 197 134 133
f 133 196 197
f 266 195 194
f 266 194 193
f 74 46 42
f 46 43 42
f 42 41 74
f 17 41 42
f 42 43 17
f 114 164 165
f 165 115 114
f 679 680 618
f 618 678 679
f 617 678 618
f 619 615 618
f 618 681 619
f 618 680 681
f 731 759 734
f 755 756 726
f 726 756 757
f 726 676 725
f 726 754 755
f 726 725 754
f 691 735 736
f 692 630 691
f 691 736 692
f 630 686 691
f 685 735 691
f 691 686 685
f 683 620 682
f 683 684 620
f 683 732 731
f 682 732 683
f 731 734 683
f 733 684 683
f 683 734 733
f 551 552 491
f 551 615 552
f 491 550 551
f 551 550 614
f 617 618 551
f 551 618 615
f 551 614 616
f 616 617 551
f 342 389 403
f 401 461 460
f 389 342 401
f 340 339 401
f 401 339 336
f 336 400 401
f 400 461 401
f 127 190 191
f 191 128 127
f 191 129 128
f 191 192 129
f 189 262 190
f 127 188 189
f 189 190 127
f 188 260 261
f 261 189 188
f 262 189 261
f 318 235 234
f 234 233 318
f 233 317 318
f 318 317 385
f 318 319 236
f 236 235 318
f 385 320 318
f 318 320 319
f 163 172 119
f 163 237 172
f 163 119 113
f 113 162 163
f 163 162 236
f 236 237 163
f 244 174 243
f 243 320 244
f 242 320 243
f 243 173 242
f 174 173 243
f 760 736 733
f 733 734 760
f 760 759 763
f 760 734 759
f 763 745 760
f 760 745 744
f 744 738 760
f 738 736 760
f 757 728 727
f 727 726 757
f 727 728 676
f 676 726 727
f 272 273 201
f 200 272 201
f 201 273 274
f 201 274 202
f 201 134 200
f 201 202 134
f 389 401 443
f 460 445 443
f 443 401 460
f 340 401 402
f 402 401 342
f 444 445 389
f 389 443 444
f 444 443 445
f 3 2 8
f 1 2 3
f 26 3 8
f 13 3 26
f 592 530 591
f 591 530 529
f 481 542 587
f 481 587 525
f 481 606 542
f 481 541 606
f 13 26 58
f 58 30 13
f 642 703 704
f 641 703 642
f 668 597 595
f 668 595 667
f 668 670 598
f 598 597 668
f 606 541 603
f 603 541 538
f 361 308 304
f 362 308 361
f 86 75 79
f 118 86 79
f 6 2 1
f 6 9 2
f 503 452 395
f 395 451 503
f 704 703 671
f 671 703 672
f 711 712 650
f 650 649 711
f 95 60 94
f 140 95 94
f 30 58 94
f 94 60 30
f 208 95 140
f 208 141 95
f 226 308 362
f 362 305 226
f 54 593 592
f 527 590 54
f 54 589 528
f 54 280 204
f 54 185 258
f 54 590 581
f 54 528 527
f 54 52 90
f 258 328 54
f 581 517 54
f 8 23 54
f 204 138 54
f 54 457 513
f 513 512 54
f 667 594 54
f 592 591 54
f 57 56 54
f 54 23 22
f 22 52 54
f 90 125 54
f 54 328 397
f 54 695 667
f 596 593 54
f 54 594 596
f 54 91 57
f 54 571 637
f 404 344 54
f 125 185 54
f 397 457 54
f 637 695 54
f 512 511 54
f 511 571 54
f 54 463 404
f 517 516 54
f 54 138 92
f 54 25 8
f 54 56 55
f 92 91 54
f 591 589 54
f 54 516 463
f 54 344 280
f 53 25 54
f 394 325 393
f 326 325 394
f 394 451 395
f 394 395 326
f 9 6 21
f 27 9 21
f 635 569 634
f 694 635 634
f 762 741 698
f 762 698 740
f 598 670 669
f 670 722 669
f 704 671 669
f 669 722 704
f 588 526 471
f 471 528 588
f 536 540 605
f 605 601 536
f 605 540 539
f 539 604 605
f 536 601 537
f 601 602 537
f 537 603 538
f 537 602 603
f 521 584 522
f 583 584 521
f 521 519 582
f 521 582 583
f 366 368 310
f 310 309 366
f 309 307 366
f 307 364 366
f 294 289 295
f 295 289 288
f 295 288 300
f 300 221 295
f 359 360 303
f 302 359 303
f 303 361 304
f 303 360 361
f 365 364 307
f 365 307 306
f 365 226 305
f 306 226 365
f 612 547 546
f 612 546 611
f 612 604 539
f 539 547 612
f 409 407 357
f 357 367 409
f 608 610 545
f 543 608 545
f 611 546 545
f 545 610 611
f 118 79 78
f 78 117 118
f 117 78 171
f 171 78 116
f 49 75 86
f 49 86 50
f 27 21 49
f 49 50 27
f 452 503 560
f 560 505 452
f 705 635 694
f 705 643 635
f 706 644 705
f 644 643 705
f 633 634 569
f 688 634 633
f 689 688 633
f 633 632 689
f 505 560 564
f 564 560 625
f 506 505 564
f 564 507 506
f 624 565 564
f 564 625 624
f 689 632 631
f 631 687 689
f 631 565 624
f 624 687 631
f 631 508 565
f 631 566 508
f 740 698 739
f 739 761 740
f 672 703 702
f 703 640 702
f 702 701 743
f 640 701 702
f 741 762 700
f 762 742 700
f 743 701 700
f 700 742 743
f 609 608 543
f 543 544 609
f 522 584 609
f 609 544 522
f 222 359 302
f 222 301 359
f 222 221 300
f 300 301 222
f 582 519 520
f 519 466 520
f 409 468 520
f 520 466 409
f 141 208 207
f 209 141 207
f 393 325 324
f 324 325 255
f 332 333 267
f 267 333 268
f 749 653 715
f 716 653 749
f 716 749 717
f 717 749 750
f 715 653 746
f 746 653 714
f 711 649 710
f 649 648 710
f 710 648 647
f 647 709 710
f 707 644 706
f 707 645 644
f 720 719 752
f 752 753 720
f 761 739 720
f 753 761 720
f 310 368 410
f 410 367 310
f 409 367 410
f 410 468 409
f 209 207 210
f 210 207 206
f 322 388 323
f 254 322 323
f 323 324 255
f 255 254 323
f 279 278 343
f 322 279 343
f 343 388 322
f 343 403 388
f 681 314 381
f 157 156 681
f 681 110 157
f 681 620 554
f 70 69 681
f 112 111 681
f 681 158 112
f 681 156 231
f 231 314 681
f 69 110 681
f 681 111 70
f 315 232 681
f 381 434 681
f 554 495 681
f 681 434 493
f 681 382 315
f 681 552 619
f 435 382 681
f 681 495 435
f 681 232 158
f 493 552 681
f 682 620 681
f 192 265 193
f 264 265 192
f 253 260 259
f 259 239 253
f 196 335 269
f 268 335 196
f 195 267 268
f 268 196 195
f 269 335 270
f 270 198 269
f 270 337 271
f 271 198 270
f 115 171 116
f 115 170 171
f 752 719 718
f 718 751 752
f 657 656 718
f 718 719 657
f 718 717 750
f 718 750 751
f 713 650 712
f 713 651 650
f 713 746 714
f 713 714 651
f 708 709 647
f 647 646 708
f 645 707 708
f 708 646 645
f 290 289 294
f 294 293 290
f 292 290 293
f 291 290 292
f 292 210 206
f 206 291 292
f 271 337 272
f 272 337 338
f 164 169 241
f 179 164 241
f 241 168 181
f 241 169 168
f 250 249 190
f 190 263 250
f 262 250 263
f 262 251 250
f 239 259 240
f 167 239 240
f 181 168 240
f 240 168 167
f 267 195 266
f 331 267 266
f 193 265 266
f 266 265 331
f 165 164 179
f 179 238 165
f 170 115 165
f 238 170 165
f 273 272 338
f 338 339 273
f 273 339 340
f 340 274 273
f 403 343 342
f 343 276 342
f 190 249 191
f 249 248 191
f 264 192 191
f 191 248 264
f 261 260 253
f 261 253 252
f 251 262 261
f 252 251 261
f 402 274 340
f 402 341 274
f 402 342 276
f 276 341 402

