# https://github.com/mikedh/trimesh
v -0.00913851 0.00935506 0.00922840
v -0.00913683 0.00935506 0.00956249
v -0.00910496 0.00968844 0.00956249
v -0.00910496 0.00968844 0.00041069
v -0.00911838 0.00954981 0.00041069
v -0.00913515 0.00935506 0.00041069
v -0.00813544 0.00201410 0.00956249
v -0.00907141 0.00935506 0.00989658
v -0.00904457 0.00968844 0.00989658
v -0.00807170 0.00201410 0.00989658
v -0.00893555 0.01056315 0.00975952
v -0.00648324 0.02470705 0.00722576
v -0.00648324 0.02470705 0.00622444
v -0.00648156 0.02470705 0.00589130
v -0.00906973 0.00988319 0.00041069
v -0.00909154 0.00924943 0.00041069
v -0.00793583 0.00115589 0.00904755
v -0.00799287 0.00134403 0.00922840
v -0.00806499 0.00167741 0.00922840
v -0.00812705 0.00201410 0.00922840
v -0.00807338 0.00167741 0.00956249
v -0.00801970 0.00167741 0.00989658
v -0.00895232 0.00917022 0.01007838
v -0.00896574 0.00935506 0.01008885
v -0.00895735 0.00968844 0.01008409
v -0.00793080 0.00149917 0.01006600
v -0.00894058 0.00993600 0.01007267
v -0.00898083 0.01003832 0.00992228
v -0.00895400 0.01035850 0.00982614
v -0.00827802 0.01402568 0.00979569
v -0.00826292 0.01420062 0.00973477
v -0.00793583 0.01588733 0.00974714
v -0.00643627 0.02470705 0.00755985
v -0.00635408 0.02504043 0.00755985
v -0.00639266 0.02504043 0.00722576
v -0.00639266 0.02504043 0.00622444
v -0.00639098 0.02504043 0.00589130
v -0.00686232 0.02170333 0.00041069
v -0.00688245 0.02159770 0.00041069
v -0.00698812 0.02103657 0.00041069
v -0.00736218 0.01903299 0.00041069
v -0.00887851 0.01090973 0.00041069
v -0.00895735 0.01048723 0.00041069
v -0.00903115 0.00910420 0.00041069
v -0.00761881 0.00045282 0.00902756
v -0.00763391 0.00042311 0.00922840
v -0.00774629 0.00067727 0.00922840
v -0.00787210 0.00097765 0.00922840
v -0.00794087 0.00114599 0.00922840
v -0.00799622 0.00134403 0.00956249
v -0.00793583 0.00115259 0.00976523
v -0.00795764 0.00137044 0.00988421
v -0.00794590 0.00167741 0.01007743
v -0.00796603 0.00201410 0.01009075
v -0.00775971 0.00201410 0.01012597
v -0.00876110 0.00935506 0.01012311
v -0.00876110 0.00968844 0.01011931
v -0.00865039 0.01102526 0.01009646
v -0.00863026 0.01135534 0.01008885
v -0.00795764 0.01502582 0.01008504
v -0.00828305 0.01335892 0.01008028
v -0.00762552 0.00075319 0.01008314
v -0.00766410 0.00101065 0.01009551
v -0.00757520 0.00053204 0.01004792
v -0.00891374 0.01016045 0.01005077
v -0.00860846 0.01168872 0.01007457
v -0.00859672 0.01186696 0.01006505
v -0.00862523 0.01199569 0.00989848
v -0.00830318 0.01368570 0.00991276
v -0.00795596 0.01569588 0.00980140
v -0.00793919 0.01524367 0.01007362
v -0.00626183 0.02521867 0.00773022
v -0.00628028 0.02527478 0.00755985
v -0.00629873 0.02532430 0.00722576
v -0.00629873 0.02532430 0.00622444
v -0.00629873 0.02532100 0.00589130
v -0.00676671 0.02203671 0.00041069
v -0.00876110 0.00901508 0.00041069
v -0.00208519 -0.00521464 0.00900757
v -0.00275278 -0.00487466 0.00901519
v -0.00292387 -0.00483175 0.00905897
v -0.00331470 -0.00454458 0.00901138
v -0.00366023 -0.00422770 0.00900567
v -0.00400577 -0.00390423 0.00900091
v -0.00433286 -0.00358075 0.00899901
v -0.00465156 -0.00323417 0.00900567
v -0.00497026 -0.00288098 0.00901519
v -0.00528728 -0.00253110 0.00902756
v -0.00560598 -0.00217791 0.00904279
v -0.00696632 -0.00054402 0.00901709
v -0.00726657 -0.00016773 0.00905136
v -0.00755340 0.00025477 0.00922840
v -0.00763894 0.00041981 0.00956249
v -0.00775468 0.00067727 0.00956249
v -0.00787713 0.00097435 0.00956249
v -0.00794087 0.00114269 0.00956249
v -0.00762385 0.00044952 0.00982519
v -0.00767752 0.00065747 0.00992037
v -0.00775971 0.00167741 0.01011169
v -0.00742592 0.00101065 0.01013073
v -0.00775971 0.00234748 0.01013073
v -0.00842730 0.00968844 0.01013358
v -0.00842730 0.01069188 0.01013358
v -0.00842730 0.01102526 0.01013073
v -0.00775971 0.00268086 0.01013263
v -0.00842730 0.01135534 0.01012406
v -0.00830486 0.01302554 0.01009265
v -0.00797777 0.01469244 0.01009551
v -0.00775971 0.01502582 0.01012026
v -0.00826795 0.01357347 0.01006886
v -0.00729340 0.00011284 0.01008218
v -0.00735547 0.00034389 0.01009551
v -0.00744940 0.00065747 0.01010312
v -0.00752153 0.00034059 0.00992037
v -0.00734037 0.00000391 0.00989563
v -0.00721792 -0.00010831 0.01000604
v -0.00798280 0.01535590 0.00990990
v -0.00775468 0.01535590 0.01008885
v -0.00764062 0.01556385 0.01007267
v -0.00533592 0.02662811 0.00776068
v -0.00564120 0.02628483 0.00775783
v -0.00593977 0.02590194 0.00773974
v -0.00621318 0.02543983 0.00755985
v -0.00624002 0.02548934 0.00722576
v -0.00624002 0.02548934 0.00622444
v -0.00623834 0.02548934 0.00589130
v -0.00664762 0.02224466 0.00041069
v -0.00613267 0.02570719 0.00589130
v -0.00596493 0.02594485 0.00567047
v 0.00024970 0.00860248 0.00041069
v -0.00041789 -0.00557113 0.00897521
v -0.00075001 -0.00555462 0.00899044
v -0.00175139 -0.00526745 0.00896665
v -0.00108380 -0.00551831 0.00903327
v -0.00125154 -0.00549851 0.00906183
v -0.00226634 -0.00517173 0.00905041
v -0.00293394 -0.00483835 0.00922840
v -0.00309999 -0.00473933 0.00922840
v -0.00334489 -0.00457099 0.00922840
v -0.00351095 -0.00442575 0.00922840
v -0.00369714 -0.00426071 0.00922840
v -0.00386320 -0.00411218 0.00922840
v -0.00405106 -0.00394384 0.00922840
v -0.00421712 -0.00379200 0.00922840
v -0.00437144 -0.00362366 0.00922840
v -0.00453917 -0.00343551 0.00922840
v -0.00468175 -0.00327047 0.00922840
v -0.00515980 -0.00271594 0.00922840
v -0.00561436 -0.00218781 0.00922840
v -0.00654530 -0.00110515 0.00922840
v -0.00685561 -0.00073877 0.00922840
v -0.00698980 -0.00057373 0.00922840
v -0.00715586 -0.00034267 0.00922840
v -0.00727328 -0.00017763 0.00922840
v -0.00740076 0.00001051 0.00922840
v -0.00755507 0.00025147 0.00956249
v -0.00740747 0.00001051 0.00956249
v -0.00727495 -0.00017763 0.00978331
v -0.00742592 0.00134403 0.01013358
v -0.00709212 0.00034389 0.01012978
v -0.00675833 0.00001051 0.01013358
v -0.00775971 0.01402568 0.01013358
v -0.00775971 0.01435906 0.01013263
v -0.00775971 0.01469244 0.01012978
v -0.00809351 0.01302554 0.01012692
v -0.00742592 0.01502582 0.01013358
v -0.00742592 0.01536250 0.01011169
v -0.00692774 -0.00049451 0.01006410
v -0.00697974 -0.00032287 0.01008123
v -0.00710051 0.00000391 0.01010312
v -0.00742592 0.01558036 0.01007647
v -0.00275278 0.02771077 0.00781494
v -0.00308658 0.02771077 0.00779876
v -0.00375417 0.02737739 0.00782921
v -0.00375417 0.02763155 0.00777591
v -0.00412151 0.02741040 0.00778733
v -0.00442176 0.02732458 0.00777401
v -0.00465156 0.02725196 0.00775497
v -0.00476058 0.02705061 0.00778543
v -0.00500884 0.02694499 0.00776068
v -0.00523192 0.02685256 0.00766740
v -0.00555901 0.02650928 0.00764266
v -0.00585926 0.02611649 0.00755985
v -0.00596661 0.02594815 0.00755985
v -0.00608738 0.02570719 0.00755985
v -0.00613435 0.02570719 0.00722576
v -0.00613435 0.02570719 0.00622444
v -0.00655369 0.02226776 0.00041069
v -0.00559591 0.02654889 0.00571711
v -0.00526715 0.02688887 0.00570950
v -0.00469181 0.02728167 0.00564953
v -0.00429596 0.02756884 0.00568951
v -0.00408796 0.02761505 0.00564097
v -0.00358811 0.02787911 0.00572378
v -0.00342037 0.02789892 0.00569141
v -0.00598674 0.02598115 0.00589130
v -0.00588442 0.02614620 0.00589130
v 0.00058350 0.00866189 0.00041069
v 0.00091729 -0.00554472 0.00900186
v 0.00058350 -0.00556452 0.00898092
v -0.00008409 -0.00557113 0.00897712
v -0.00041789 -0.00565365 0.00922840
v -0.00075001 -0.00561404 0.00922840
v -0.00145115 -0.00546880 0.00956249
v -0.00175139 -0.00537968 0.00922840
v -0.00208519 -0.00526415 0.00922840
v -0.00227473 -0.00517503 0.00922840
v -0.00294400 -0.00484495 0.00956249
v -0.00311006 -0.00473933 0.00956249
v -0.00334657 -0.00457099 0.00956249
v -0.00351263 -0.00443235 0.00956249
v -0.00387661 -0.00412208 0.00956249
v -0.00405441 -0.00395704 0.00956249
v -0.00422047 -0.00379200 0.00956249
v -0.00437144 -0.00362696 0.00956249
v -0.00453917 -0.00343551 0.00956249
v -0.00468175 -0.00327047 0.00956249
v -0.00515980 -0.00271594 0.00956249
v -0.00561436 -0.00218781 0.00956249
v -0.00654530 -0.00110515 0.00956249
v -0.00685561 -0.00074207 0.00956249
v -0.00699148 -0.00057373 0.00956249
v -0.00715922 -0.00035257 0.00956249
v -0.00727999 -0.00018753 0.00956249
v -0.00696129 -0.00053412 0.00989658
v -0.00675833 -0.00032287 0.01011645
v -0.00642453 -0.00065625 0.01012311
v -0.00609073 -0.00099293 0.01012787
v -0.00542314 -0.00165969 0.01013263
v -0.00508935 -0.00199307 0.01013358
v 0.00625802 0.01502582 0.01013358
v 0.00292006 0.01536250 0.01011931
v 0.00158488 0.01536250 0.01011835
v 0.00225247 0.01560016 0.01008409
v -0.00660904 -0.00084439 0.01007362
v -0.00673652 -0.00062654 0.01008409
v -0.00682039 -0.00070246 0.00989658
v -0.00560598 -0.00217791 0.00977760
v -0.00528728 -0.00253110 0.00981472
v -0.00492497 -0.00282817 0.01006410
v -0.00241898 0.02771077 0.00781970
v -0.00241898 0.02792532 0.00776639
v -0.00275278 0.02791872 0.00776164
v -0.00308658 0.02789892 0.00774545
v -0.00327780 0.02788241 0.00773213
v -0.00403261 0.02758534 0.00775688
v -0.00471362 0.02729487 0.00755985
v -0.00487968 0.02717274 0.00755985
v -0.00425570 0.02754573 0.00772642
v -0.00510780 0.02698790 0.00755794
v -0.00526883 0.02688887 0.00744468
v -0.00541476 0.02670073 0.00754367
v -0.00559591 0.02654889 0.00741993
v -0.00567643 0.02639045 0.00754272
v -0.00588610 0.02614950 0.00722576
v -0.00598674 0.02598115 0.00722576
v -0.00642453 0.02229417 0.00041069
v -0.00308658 0.02793192 0.00564478
v -0.00572507 0.02637725 0.00589130
v -0.00559759 0.02655219 0.00589130
v -0.00544159 0.02671723 0.00589130
v -0.00527386 0.02689217 0.00589130
v -0.00508935 0.02705061 0.00589130
v -0.00490987 0.02719915 0.00589130
v -0.00474381 0.02731798 0.00589130
v -0.00448550 0.02748302 0.00589130
v -0.00431776 0.02757874 0.00589130
v -0.00408796 0.02768436 0.00589130
v -0.00375752 0.02781640 0.00589130
v -0.00375920 0.02781970 0.00622444
v -0.00358978 0.02787911 0.00589130
v -0.00342037 0.02792202 0.00589130
v -0.00308658 0.02799134 0.00589130
v -0.00588610 0.02614950 0.00622444
v 0.00659181 0.00979737 0.00041069
v 0.00191868 -0.00524105 0.00897807
v 0.00114877 -0.00551501 0.00903518
v 0.00091729 -0.00559423 0.00922840
v 0.00058350 -0.00563384 0.00922840
v 0.00679142 0.00984688 0.00041069
v 0.00725941 0.00996901 0.00041069
v 0.00024970 -0.00564374 0.00922840
v -0.00008409 -0.00565035 0.00922840
v -0.00008409 -0.00566685 0.00956249
v -0.00041789 -0.00565695 0.00956249
v -0.00075001 -0.00561734 0.00956249
v -0.00129180 -0.00550841 0.00977475
v -0.00175139 -0.00539288 0.00956249
v -0.00208519 -0.00526745 0.00956249
v -0.00227976 -0.00517503 0.00956249
v -0.00275278 -0.00494068 0.00956249
v -0.00293729 -0.00484165 0.00976713
v -0.00331134 -0.00454128 0.00989658
v -0.00367869 -0.00423761 0.00989658
v -0.00384642 -0.00408907 0.00989658
v -0.00401416 -0.00392403 0.00989658
v -0.00418022 -0.00375239 0.00989658
v -0.00433453 -0.00358405 0.00989658
v -0.00640943 -0.00096982 0.01009265
v -0.00608235 -0.00131310 0.01009837
v -0.00575526 -0.00165639 0.01010217
v -0.00442176 -0.00299321 0.01012311
v -0.00408796 -0.00332659 0.01012692
v -0.00375417 -0.00366327 0.01012882
v -0.00342037 -0.00366327 0.01013358
v 0.00659181 0.01469244 0.01013073
v 0.00659181 0.01502582 0.01011835
v 0.00625802 0.01529319 0.01009837
v 0.00492284 0.01536250 0.01011835
v 0.00425525 0.01536250 0.01011931
v 0.00659181 0.01435906 0.01013358
v 0.00458904 0.01560016 0.01008409
v -0.00628699 -0.00119428 0.01007933
v -0.00460459 -0.00317805 0.01007267
v -0.00496019 -0.00287108 0.00989658
v -0.00450059 -0.00339590 0.00989658
v -0.00464820 -0.00322756 0.00989658
v -0.00208519 0.02771077 0.00781684
v 0.00492284 0.01558696 0.01008409
v -0.00208519 0.02792202 0.00776354
v -0.00241898 0.02801114 0.00755985
v -0.00275278 0.02799794 0.00755985
v -0.00308658 0.02795503 0.00755985
v -0.00340192 0.02789892 0.00753034
v -0.00358978 0.02787911 0.00739899
v -0.00349921 0.02784280 0.00762076
v -0.00490987 0.02720245 0.00722576
v -0.00441505 0.02747641 0.00759316
v -0.00429763 0.02756884 0.00750369
v -0.00474381 0.02731798 0.00722576
v -0.00527386 0.02689547 0.00722576
v -0.00544159 0.02672053 0.00722576
v -0.00559927 0.02655219 0.00722576
v -0.00572675 0.02637725 0.00722576
v -0.00628363 0.02229747 0.00041069
v -0.00275278 0.02795503 0.00562384
v -0.00241898 0.02796493 0.00561717
v -0.00275278 0.02803425 0.00589130
v -0.00572675 0.02637725 0.00622444
v -0.00559927 0.02655219 0.00622444
v -0.00544159 0.02672053 0.00622444
v -0.00527386 0.02689547 0.00622444
v -0.00490987 0.02720245 0.00622444
v -0.00448550 0.02748302 0.00722576
v -0.00431944 0.02757874 0.00622444
v -0.00408796 0.02768767 0.00622444
v -0.00375920 0.02781970 0.00722576
v -0.00359146 0.02787911 0.00622444
v -0.00342037 0.02792202 0.00722576
v -0.00308658 0.02799134 0.00722576
v -0.00275278 0.02803755 0.00622444
v 0.00216357 -0.00520144 0.00901519
v 0.00759320 0.01005813 0.00041069
v 0.00782971 0.01014395 0.00041069
v 0.00119741 -0.00552822 0.00922840
v 0.00191868 -0.00532687 0.00922840
v 0.00123096 -0.00553152 0.00956249
v 0.00091729 -0.00559753 0.00956249
v 0.00058350 -0.00564044 0.00956249
v 0.00024970 -0.00566025 0.00956249
v -0.00008409 -0.00561404 0.00989658
v -0.00041789 -0.00560083 0.00989658
v -0.00078020 -0.00555462 0.00992799
v -0.00108380 -0.00552822 0.00984423
v -0.00090936 -0.00549521 0.01006029
v -0.00175139 -0.00532687 0.00989658
v -0.00208519 -0.00521794 0.00988706
v -0.00227305 -0.00517173 0.00976999
v -0.00275278 -0.00489446 0.00988516
v -0.00286516 -0.00478224 0.00998986
v -0.00326605 -0.00450497 0.01006981
v -0.00362165 -0.00419140 0.01007933
v -0.00395545 -0.00386462 0.01008028
v -0.00428254 -0.00352794 0.01007838
v -0.00440498 -0.00330678 0.01009170
v -0.00407622 -0.00364676 0.01009646
v -0.00374075 -0.00398345 0.01009646
v -0.00342037 -0.00399665 0.01012787
v -0.00275278 -0.00433003 0.01013358
v 0.00692561 0.01335892 0.01013263
v 0.00725941 0.01235548 0.01012978
v 0.00692561 0.01369230 0.01012597
v 0.00678807 0.01502582 0.01008409
v 0.00676794 0.01521727 0.01007076
v 0.00659181 0.01526678 0.01008599
v 0.00713696 0.01369230 0.01009170
v -0.00175139 0.02771077 0.00780447
v 0.00725941 0.01202210 0.01013358
v -0.00175139 0.02790552 0.00775116
v -0.00208519 0.02800454 0.00755985
v -0.00241898 0.02805405 0.00722576
v -0.00275278 0.02803755 0.00722576
v -0.00359146 0.02787911 0.00722576
v -0.00408796 0.02768767 0.00722576
v -0.00431944 0.02757874 0.00722576
v -0.00609073 0.02230077 0.00041069
v -0.00241898 0.02805075 0.00589130
v -0.00208519 0.02795833 0.00562003
v -0.00241898 0.02805405 0.00622444
v 0.00280600 -0.00486146 0.00902376
v 0.00237660 -0.00513872 0.00922840
v 0.00220886 -0.00522124 0.00922840
v 0.00795551 0.01035850 0.00041069
v 0.00479704 -0.00289418 0.00901519
v 0.00443808 -0.00351473 0.00903898
v 0.00410932 -0.00384811 0.00903803
v 0.00377217 -0.00418149 0.00904184
v 0.00343502 -0.00450827 0.00904470
v 0.00325386 -0.00456439 0.00899996
v 0.00139870 -0.00549191 0.00956249
v 0.00191868 -0.00533677 0.00956249
v 0.00158488 -0.00543909 0.00956249
v 0.00119406 -0.00552161 0.00981282
v 0.00058350 -0.00558763 0.00989658
v 0.00024970 -0.00560743 0.00989658
v 0.00024970 -0.00552492 0.01008504
v -0.00008409 -0.00552822 0.01008599
v -0.00041789 -0.00552161 0.01008218
v -0.00068795 -0.00551171 0.01007457
v -0.00175139 -0.00521134 0.01009170
v -0.00197281 -0.00518493 0.01007838
v -0.00219590 -0.00511892 0.00999176
v -0.00264207 -0.00485816 0.01008123
v -0.00308658 -0.00455118 0.01008504
v -0.00339521 -0.00431353 0.01009075
v -0.00308658 -0.00433003 0.01012026
v -0.00241898 -0.00466341 0.01012882
v -0.00208519 -0.00466341 0.01013358
v 0.00725941 0.01269216 0.01011645
v 0.00759320 0.01102526 0.01012597
v 0.00759320 0.01135534 0.01011931
v 0.00711180 0.01394316 0.01007838
v 0.00743217 0.01288361 0.01006886
v 0.00715709 0.01404219 0.00992037
v 0.00712018 0.01429305 0.00982519
v 0.00688032 0.01502582 0.00989658
v 0.00679981 0.01528989 0.00989658
v 0.00237828 0.02512625 0.00755985
v 0.00208138 0.02553885 0.00771975
v 0.00185829 0.02562467 0.00776164
v 0.00149934 0.02593824 0.00775973
v 0.00114206 0.02625512 0.00775497
v 0.00078478 0.02657200 0.00774641
v 0.00042750 0.02688557 0.00773403
v 0.00024970 0.02695159 0.00775878
v -0.00016461 0.02726186 0.00775878
v -0.00044137 0.02737409 0.00777115
v -0.00075001 0.02758534 0.00775688
v -0.00075001 0.02737739 0.00781018
v -0.00108380 0.02764475 0.00777782
v 0.00748417 0.01235548 0.01009456
v 0.00745063 0.01269216 0.01008123
v 0.00725941 0.01069188 0.01013358
v 0.00759320 0.01069188 0.01012978
v -0.00175139 0.02796823 0.00755985
v -0.00153837 0.02788571 0.00773594
v -0.00208519 0.02804415 0.00722576
v -0.00594984 0.02229417 0.00041069
v -0.00208519 0.02804085 0.00589130
v -0.00175139 0.02794183 0.00563716
v -0.00575694 0.02228427 0.00041069
v -0.00208519 0.02804415 0.00622444
v 0.00284291 -0.00488126 0.00922840
v 0.00258627 -0.00502319 0.00922840
v 0.00238331 -0.00514532 0.00956249
v 0.00285633 -0.00489116 0.00956249
v 0.00258627 -0.00503970 0.00956249
v 0.00221557 -0.00522124 0.00956249
v 0.00797229 0.01049713 0.00041069
v 0.00799745 0.01069188 0.00055156
v 0.00705980 0.00234748 0.00956249
v 0.00704806 0.00234748 0.00922840
v 0.00698767 0.00201410 0.00922840
v 0.00689542 0.00167741 0.00922840
v 0.00678303 0.00142655 0.00902566
v 0.00643750 0.00047923 0.00904184
v 0.00611544 -0.00021064 0.00902851
v 0.00579171 -0.00090381 0.00901804
v 0.00546798 -0.00159367 0.00900948
v 0.00514593 -0.00226703 0.00900282
v 0.00508722 -0.00249149 0.00922840
v 0.00481884 -0.00293379 0.00922840
v 0.00471820 -0.00309883 0.00922840
v 0.00457730 -0.00332659 0.00922840
v 0.00444814 -0.00352794 0.00922840
v 0.00429215 -0.00369298 0.00922840
v 0.00412609 -0.00386792 0.00922840
v 0.00395500 -0.00403296 0.00922840
v 0.00378726 -0.00419470 0.00922840
v 0.00360946 -0.00436304 0.00922840
v 0.00344340 -0.00451487 0.00922840
v 0.00325386 -0.00463700 0.00922840
v 0.00300897 -0.00478554 0.00922840
v 0.00215519 -0.00519484 0.00989658
v 0.00191868 -0.00527406 0.00989658
v 0.00102464 -0.00546880 0.01003459
v 0.00080155 -0.00550511 0.01007076
v 0.00091394 -0.00554142 0.00991276
v 0.00209145 -0.00516513 0.01006600
v 0.00058350 -0.00551501 0.01007838
v 0.00058350 -0.00533017 0.01011264
v 0.00024970 -0.00533017 0.01011931
v -0.00008409 -0.00533017 0.01012121
v -0.00041789 -0.00533017 0.01011740
v -0.00141760 -0.00524765 0.01009837
v -0.00175139 -0.00499679 0.01012692
v -0.00241898 -0.00490107 0.01009456
v -0.00275278 -0.00466671 0.01010217
v -0.00141760 -0.00499679 0.01013263
v -0.00108380 -0.00499679 0.01013358
v 0.00780790 0.01069188 0.01009456
v 0.00779784 0.01102526 0.01009075
v 0.00778610 0.01135534 0.01008409
v 0.00746069 0.01300574 0.00988896
v 0.00777268 0.01158970 0.01007457
v 0.00773410 0.01181415 0.01003840
v 0.00778442 0.01194618 0.00981567
v 0.00743721 0.01323019 0.00977284
v 0.00694238 0.01502582 0.00956249
v 0.00682665 0.01535260 0.00956249
v 0.00240511 0.02517246 0.00722576
v 0.00220215 0.02540682 0.00758935
v 0.00211158 0.02556856 0.00749703
v 0.00176101 0.02588543 0.00743325
v 0.00062711 0.02677665 0.00755985
v 0.00046105 0.02691198 0.00755985
v 0.00022622 0.02709352 0.00756175
v 0.00005680 0.02718925 0.00767407
v -0.00056885 0.02755233 0.00773403
v 0.00659181 0.00268086 0.01013358
v 0.00659181 0.00234748 0.01013263
v 0.00659181 0.00201410 0.01012882
v 0.00682832 0.00234748 0.01009837
v -0.00175139 0.02800784 0.00722576
v -0.00142431 0.02790882 0.00755509
v -0.00131528 0.02785270 0.00766360
v -0.00175139 0.02800454 0.00589130
v -0.00141760 0.02790882 0.00567809
v -0.00555566 0.02223475 0.00041069
v -0.00175139 0.02800784 0.00622444
v 0.00281607 -0.00486806 0.00989658
v 0.00302406 -0.00479214 0.00956249
v 0.00799577 0.01069188 0.00041069
v 0.00798235 0.01083382 0.00041069
v 0.00793035 0.01135534 0.00041069
v 0.00796390 0.01102526 0.00055156
v 0.00799745 0.01069188 0.00956249
v 0.00709838 0.00277658 0.00975856
v 0.00699941 0.00201410 0.00956249
v 0.00691051 0.00167741 0.00956249
v 0.00680149 0.00137044 0.00922840
v 0.00674781 0.00120540 0.00922840
v 0.00667568 0.00101065 0.00922840
v 0.00653982 0.00067727 0.00922840
v 0.00636873 0.00029768 0.00922840
v 0.00549146 -0.00164648 0.00922840
v 0.00533379 -0.00199307 0.00922840
v 0.00517444 -0.00232315 0.00922840
v 0.00482555 -0.00294700 0.00956249
v 0.00472826 -0.00311534 0.00956249
v 0.00508722 -0.00249149 0.00956249
v 0.00430054 -0.00369628 0.00956249
v 0.00413448 -0.00387782 0.00956249
v 0.00458736 -0.00332659 0.00956249
v 0.00444814 -0.00352794 0.00956249
v 0.00396674 -0.00404286 0.00956249
v 0.00379900 -0.00420460 0.00956249
v 0.00325386 -0.00464360 0.00956249
v 0.00361114 -0.00436964 0.00956249
v 0.00344340 -0.00451487 0.00956249
v 0.00276407 -0.00483835 0.01006886
v 0.00191868 -0.00518823 0.01007933
v 0.00158488 -0.00522784 0.01009551
v 0.00258627 -0.00487136 0.01008409
v 0.00158488 -0.00499679 0.01012978
v 0.00125109 -0.00499679 0.01013358
v 0.00792700 0.01069188 0.00989658
v 0.00680819 0.00201410 0.01009361
v 0.00779448 0.01042452 0.01008504
v 0.00790016 0.01102526 0.00989658
v 0.00787164 0.01135534 0.00989658
v 0.00781294 0.01169862 0.00991466
v 0.00787332 0.01168872 0.00956249
v 0.00779616 0.01198909 0.00956249
v 0.00759991 0.01269216 0.00956249
v 0.00774920 0.01215743 0.00956249
v 0.00694238 0.01502582 0.00041069
v 0.00689374 0.01516446 0.00041069
v 0.00747914 0.01312126 0.00041069
v 0.00682665 0.01535260 0.00355552
v 0.00240511 0.02517246 0.00622444
v 0.00227763 0.02537381 0.00722576
v 0.00212332 0.02558176 0.00722576
v 0.00176604 0.02588873 0.00722576
v 0.00158488 0.02603727 0.00722576
v 0.00065395 0.02679975 0.00722576
v 0.00048789 0.02693508 0.00722576
v 0.00009874 0.02722225 0.00745134
v 0.00193377 0.02574680 0.00722576
v -0.00006564 0.02730147 0.00756175
v -0.00035583 0.02748302 0.00755985
v -0.00052189 0.02757544 0.00755985
v -0.00075001 0.02767446 0.00755985
v 0.00625802 0.00134403 0.01013358
v 0.00625802 0.00101065 0.01012692
v 0.00659181 0.00167741 0.01011360
v -0.00122638 0.02788571 0.00744087
v -0.00141760 0.02793853 0.00722576
v -0.00110225 0.02780649 0.00755509
v -0.00141760 0.02793853 0.00589130
v -0.00122806 0.02788571 0.00571045
v -0.00075001 0.02762825 0.00562764
v -0.00110393 0.02772727 0.00561527
v -0.00041286 0.02739720 0.00559623
v 0.00673104 0.01551764 0.00041069
v 0.00343669 -0.00450827 0.00977284
v 0.00790687 0.01149727 0.00041069
v 0.00793035 0.01135534 0.00956249
v 0.00796390 0.01102526 0.00956249
v 0.00702457 0.00267095 0.00988040
v 0.00697929 0.00234748 0.00989658
v 0.00693064 0.00201410 0.00989658
v 0.00685852 0.00167741 0.00989658
v 0.00678807 0.00142986 0.00989658
v 0.00680987 0.00135724 0.00956249
v 0.00675284 0.00119220 0.00956249
v 0.00668239 0.00101065 0.00956249
v 0.00623957 0.00001051 0.00956249
v 0.00653982 0.00067727 0.00956249
v 0.00573468 -0.00110845 0.00956249
v 0.00533547 -0.00199307 0.00956249
v 0.00517444 -0.00232315 0.00956249
v 0.00480374 -0.00291069 0.00989658
v 0.00443976 -0.00351803 0.00978807
v 0.00514425 -0.00227033 0.00989658
v 0.00411938 -0.00386462 0.00981567
v 0.00378726 -0.00419140 0.00981187
v 0.00336792 -0.00444886 0.00999462
v 0.00314651 -0.00453138 0.01008314
v 0.00289323 -0.00465021 0.01009170
v 0.00222228 -0.00499019 0.01009265
v 0.00191868 -0.00499679 0.01011455
v 0.00258627 -0.00466341 0.01011931
v 0.00225247 -0.00466341 0.01013263
v 0.00325386 -0.00399665 0.01013358
v 0.00677800 0.00167741 0.01007838
v 0.00787332 0.01168872 0.00041069
v 0.00784145 0.01181745 0.00041069
v 0.00779616 0.01198909 0.00041069
v 0.00759991 0.01269216 0.00041069
v 0.00774920 0.01215743 0.00041069
v 0.00682665 0.01534930 0.00041069
v 0.00240344 0.02517246 0.00589130
v 0.00227763 0.02537381 0.00622444
v 0.00212332 0.02558176 0.00622444
v 0.00176604 0.02588873 0.00589130
v 0.00158488 0.02603727 0.00589130
v 0.00065395 0.02679975 0.00622444
v 0.00048789 0.02693508 0.00622444
v 0.00027486 0.02710342 0.00722576
v 0.00010713 0.02722885 0.00722576
v -0.00008409 0.02736089 0.00722576
v -0.00031725 0.02750942 0.00722576
v 0.00193377 0.02574680 0.00622444
v -0.00048498 0.02759524 0.00722576
v -0.00075001 0.02771737 0.00722576
v 0.00492284 -0.00165969 0.01013358
v 0.00525663 -0.00099293 0.01013263
v 0.00592422 0.00034389 0.01012978
v 0.00647943 0.00101065 0.01009170
v 0.00492284 -0.00199307 0.01012502
v 0.00525663 -0.00132631 0.01012026
v -0.00121464 0.02788901 0.00722576
v -0.00104690 0.02783290 0.00722576
v -0.00121464 0.02788901 0.00622444
v -0.00121631 0.02788901 0.00589130
v -0.00104858 0.02783290 0.00589130
v -0.00075001 0.02771737 0.00589130
v -0.00052021 0.02757874 0.00567809
v -0.00008409 0.02728497 0.00565144
v 0.00677129 0.01544832 0.00041069
v 0.00046273 0.02691528 0.00567809
v 0.00082001 0.02660170 0.00566191
v 0.00176101 0.02588213 0.00571331
v 0.00210990 0.02556525 0.00569237
v 0.00372520 -0.00413528 0.01003459
v 0.00676123 0.00150577 0.01006505
v 0.00648279 0.00067727 0.00989277
v 0.00643750 0.00047923 0.00977950
v 0.00611544 -0.00021064 0.00981092
v 0.00579171 -0.00090381 0.00983661
v 0.00477020 -0.00285127 0.01007362
v 0.00469136 -0.00307903 0.00989658
v 0.00451524 -0.00333649 0.00989848
v 0.00438105 -0.00345202 0.01001080
v 0.00406235 -0.00380190 0.01003745
v 0.00546295 -0.00158377 0.00989658
v 0.00543108 -0.00151115 0.01006981
v 0.00510567 -0.00219772 0.01007552
v 0.00392481 -0.00399995 0.00992513
v 0.00350379 -0.00422770 0.01008694
v 0.00325554 -0.00433663 0.01010312
v 0.00292006 -0.00433003 0.01012978
v 0.00360275 -0.00401315 0.01010503
v 0.00393822 -0.00367977 0.01010503
v 0.00358766 -0.00366327 0.01013358
v 0.00644588 0.00078950 0.01007838
v 0.00227596 0.02537381 0.00589130
v 0.00212332 0.02557846 0.00589130
v 0.00193210 0.02574680 0.00589130
v 0.00139534 0.02619241 0.00589130
v 0.00048621 0.02693508 0.00589130
v 0.00027486 0.02710342 0.00622444
v 0.00010713 0.02722885 0.00589130
v -0.00008409 0.02736089 0.00622444
v -0.00031725 0.02750942 0.00622444
v -0.00048498 0.02759524 0.00622444
v 0.00458904 -0.00232645 0.01013358
v 0.00616241 0.00034389 0.01009456
v 0.00513922 -0.00199307 0.01008980
v 0.00458904 -0.00265983 0.01012311
v 0.00480878 -0.00265983 0.01008885
v -0.00104690 0.02783290 0.00622444
v -0.00048666 0.02759524 0.00589130
v -0.00031893 0.02750942 0.00589130
v 0.00009706 0.02722225 0.00570760
v 0.00383926 -0.00391083 0.01008694
v 0.00575146 -0.00081798 0.01005934
v 0.00458066 -0.00297670 0.01009551
v 0.00446324 -0.00322756 0.01008409
v 0.00415796 -0.00358075 0.01008694
v 0.00546127 -0.00132631 0.01008504
v 0.00426363 -0.00333649 0.01010408
v 0.00425525 -0.00299321 0.01013168
v 0.00392145 -0.00332659 0.01013358
v -0.00008409 0.02735759 0.00589130
f 31 32 12
f 174 175 119
f 615 539 614
f 13 14 4
f 34 35 12
f 40 14 39
f 14 38 39
f 4 14 15
f 14 43 15
f 41 14 40
f 578 532 606
f 470 544 545
f 234 312 241
f 22 10 7
f 7 21 22
f 10 22 26
f 26 22 52
f 687 707 688
f 353 354 276
f 159 101 100
f 131 78 130
f 37 77 38
f 37 38 14
f 167 119 118
f 118 119 71
f 171 119 167
f 167 234 171
f 171 234 241
f 241 172 171
f 171 172 119
f 179 119 178
f 8 26 23
f 10 26 8
f 3 4 1
f 9 8 25
f 32 31 30
f 679 614 612
f 612 614 539
f 124 74 73
f 73 74 35
f 35 34 73
f 12 32 33
f 33 34 12
f 42 43 14
f 14 41 42
f 533 532 578
f 533 454 532
f 381 382 306
f 429 382 381
f 381 431 429
f 325 350 349
f 241 312 319
f 307 383 384
f 306 382 307
f 242 172 241
f 323 350 325
f 323 392 350
f 178 119 177
f 177 246 178
f 176 119 175
f 175 246 176
f 176 177 119
f 246 177 176
f 175 244 245
f 245 246 175
f 325 326 245
f 173 175 174
f 174 119 173
f 119 172 173
f 173 244 175
f 45 44 91
f 1 4 5
f 470 545 546
f 476 403 475
f 543 544 470
f 23 26 53
f 53 26 63
f 100 101 55
f 547 577 548
f 403 480 404
f 354 403 404
f 405 354 404
f 354 400 352
f 352 276 354
f 275 280 199
f 199 198 275
f 130 198 199
f 200 130 199
f 692 699 722
f 699 692 635
f 635 692 633
f 101 159 105
f 576 644 645
f 78 131 132
f 201 130 200
f 201 131 130
f 178 246 249
f 249 326 325
f 246 245 249
f 249 245 326
f 14 13 36
f 36 37 14
f 189 190 127
f 11 3 9
f 11 30 31
f 12 3 11
f 11 31 12
f 2 3 1
f 1 7 2
f 2 8 9
f 9 3 2
f 7 10 2
f 10 8 2
f 103 164 104
f 101 105 56
f 103 104 56
f 56 55 101
f 32 30 70
f 70 71 32
f 70 117 71
f 384 435 436
f 436 437 384
f 435 437 436
f 519 437 435
f 520 437 519
f 435 518 519
f 588 519 587
f 520 519 588
f 615 685 653
f 653 591 652
f 384 437 438
f 438 439 384
f 438 520 521
f 438 437 520
f 32 71 72
f 72 73 34
f 72 33 32
f 34 33 72
f 380 306 311
f 380 381 306
f 430 381 454
f 431 381 430
f 517 518 435
f 584 518 517
f 618 545 617
f 584 517 583
f 583 617 647
f 618 617 583
f 338 258 273
f 399 462 397
f 459 462 537
f 397 462 459
f 459 398 397
f 308 319 309
f 309 319 312
f 385 307 384
f 308 307 385
f 392 323 322
f 322 321 391
f 391 392 322
f 322 245 244
f 323 245 322
f 324 323 325
f 325 245 324
f 324 245 323
f 244 173 243
f 243 173 172
f 172 242 243
f 243 322 244
f 243 242 321
f 321 322 243
f 19 21 7
f 7 20 19
f 470 403 469
f 469 543 470
f 92 45 91
f 99 63 100
f 100 55 99
f 99 55 54
f 54 53 99
f 99 53 63
f 167 166 233
f 233 166 232
f 233 234 167
f 233 232 234
f 162 166 163
f 163 166 164
f 103 162 163
f 163 164 103
f 470 547 471
f 547 548 471
f 471 403 470
f 624 687 688
f 688 689 624
f 479 557 480
f 479 480 403
f 556 557 476
f 481 404 480
f 405 404 481
f 281 199 280
f 353 276 281
f 276 199 281
f 276 352 277
f 277 199 276
f 200 199 279
f 496 499 497
f 574 499 571
f 287 286 364
f 363 364 286
f 634 560 633
f 634 696 636
f 727 686 696
f 701 686 727
f 727 704 701
f 631 635 632
f 557 556 631
f 728 689 688
f 688 707 728
f 632 635 561
f 561 635 633
f 407 408 354
f 409 400 354
f 354 408 409
f 409 408 400
f 532 454 531
f 454 530 531
f 102 105 159
f 103 56 102
f 102 56 105
f 502 576 503
f 287 288 204
f 205 288 206
f 205 136 135
f 206 136 205
f 135 204 205
f 205 204 288
f 203 134 132
f 135 134 203
f 203 286 287
f 287 204 203
f 203 204 135
f 85 86 44
f 503 576 510
f 504 417 503
f 397 398 337
f 337 398 396
f 183 255 184
f 253 255 183
f 71 119 120
f 120 121 71
f 190 189 262
f 180 179 178
f 119 179 180
f 180 120 119
f 120 180 181
f 181 180 178
f 181 182 121
f 121 120 181
f 109 108 106
f 109 60 108
f 164 166 109
f 109 118 71
f 71 60 109
f 167 118 109
f 109 166 167
f 24 8 23
f 24 25 8
f 23 53 24
f 24 53 54
f 54 55 24
f 55 56 24
f 57 104 106
f 57 56 104
f 106 58 57
f 57 58 25
f 25 24 57
f 57 24 56
f 71 117 110
f 110 60 71
f 30 11 29
f 29 28 67
f 29 11 9
f 9 28 29
f 117 70 69
f 69 110 117
f 67 110 69
f 69 70 30
f 30 67 69
f 585 519 518
f 590 588 652
f 520 588 590
f 652 591 590
f 615 653 681
f 681 653 652
f 529 456 448
f 449 385 448
f 615 614 680
f 680 614 679
f 679 726 680
f 615 680 682
f 682 680 726
f 384 439 440
f 440 441 384
f 439 441 440
f 525 444 439
f 439 444 443
f 443 444 384
f 529 448 446
f 446 385 384
f 439 438 522
f 522 438 521
f 521 592 522
f 708 653 685
f 71 121 122
f 122 72 71
f 122 183 184
f 121 182 122
f 182 183 122
f 73 72 123
f 124 73 123
f 72 122 123
f 453 530 454
f 578 621 579
f 579 621 577
f 581 619 618
f 547 619 581
f 649 584 648
f 648 583 647
f 584 583 648
f 351 338 273
f 537 462 540
f 231 307 308
f 308 309 231
f 306 307 231
f 311 306 231
f 6 19 20
f 6 20 7
f 6 7 1
f 1 5 6
f 625 624 626
f 476 475 552
f 475 551 552
f 552 625 626
f 551 625 552
f 155 92 91
f 157 92 155
f 45 92 46
f 46 94 47
f 156 92 157
f 720 670 719
f 722 699 720
f 707 670 720
f 473 403 472
f 403 471 472
f 646 621 578
f 687 621 646
f 578 606 646
f 606 670 646
f 707 687 646
f 646 670 707
f 620 548 577
f 577 621 620
f 620 621 548
f 548 621 622
f 622 621 687
f 689 629 627
f 626 624 627
f 627 624 689
f 627 629 554
f 557 479 478
f 478 479 403
f 476 554 555
f 555 556 476
f 480 557 558
f 558 481 480
f 558 631 632
f 557 631 558
f 484 485 405
f 484 560 485
f 401 352 400
f 200 279 282
f 360 282 279
f 199 277 278
f 278 279 199
f 701 704 702
f 365 420 421
f 419 420 365
f 287 364 365
f 365 363 419
f 364 363 365
f 365 366 287
f 421 366 365
f 419 363 362
f 636 696 700
f 696 686 700
f 639 686 701
f 701 702 639
f 571 638 639
f 638 686 639
f 633 692 693
f 693 634 633
f 692 634 693
f 696 634 695
f 633 560 559
f 559 561 633
f 481 561 559
f 560 481 559
f 405 485 486
f 735 734 718
f 721 734 733
f 718 734 671
f 671 734 721
f 671 721 722
f 722 720 671
f 604 531 530
f 532 531 604
f 161 159 100
f 100 160 161
f 575 502 501
f 576 502 575
f 644 576 575
f 643 644 575
f 575 642 643
f 641 574 643
f 643 642 641
f 135 136 79
f 79 134 135
f 79 44 78
f 79 80 44
f 136 80 79
f 286 203 285
f 285 363 286
f 285 362 363
f 503 510 509
f 509 504 503
f 506 504 509
f 417 504 418
f 419 362 418
f 505 420 419
f 419 418 505
f 505 418 504
f 505 504 506
f 506 420 505
f 421 420 507
f 507 420 506
f 329 328 249
f 329 249 325
f 325 394 329
f 347 394 325
f 272 271 348
f 258 257 188
f 336 338 397
f 397 337 336
f 258 338 336
f 336 257 258
f 336 337 257
f 335 337 396
f 257 337 335
f 396 398 458
f 398 461 458
f 613 612 539
f 539 538 613
f 613 538 612
f 539 461 460
f 460 538 539
f 460 461 398
f 398 459 460
f 460 459 537
f 537 538 460
f 679 612 611
f 612 538 611
f 611 538 537
f 334 255 253
f 36 75 76
f 37 36 76
f 77 37 76
f 76 126 77
f 75 125 76
f 76 125 126
f 77 126 128
f 197 196 274
f 256 186 184
f 184 255 256
f 254 182 253
f 253 183 254
f 254 183 182
f 251 332 253
f 331 332 251
f 251 327 331
f 248 181 178
f 327 251 248
f 108 60 107
f 106 108 107
f 107 58 106
f 25 60 61
f 61 110 67
f 60 110 61
f 164 109 165
f 165 109 106
f 165 104 164
f 106 104 165
f 67 28 65
f 68 67 30
f 30 29 68
f 68 29 67
f 586 518 584
f 586 585 518
f 587 519 589
f 519 585 589
f 589 585 650
f 536 456 529
f 318 242 241
f 241 319 318
f 318 319 308
f 456 389 450
f 450 448 456
f 449 448 450
f 450 385 449
f 615 682 683
f 679 611 678
f 678 611 677
f 661 598 660
f 662 598 661
f 603 536 529
f 609 536 603
f 524 525 439
f 524 593 599
f 663 598 662
f 601 598 663
f 444 525 526
f 525 524 526
f 526 524 598
f 528 601 529
f 529 446 528
f 528 446 444
f 384 441 442
f 442 443 384
f 442 441 439
f 439 443 442
f 384 444 445
f 445 446 384
f 444 446 445
f 447 448 385
f 385 446 447
f 447 446 448
f 711 712 658
f 684 682 726
f 726 712 684
f 684 712 711
f 684 683 682
f 684 685 615
f 615 683 684
f 185 122 184
f 185 123 122
f 184 186 185
f 185 186 124
f 124 123 185
f 388 380 311
f 388 453 454
f 454 381 388
f 381 380 388
f 434 435 384
f 384 433 434
f 434 433 435
f 514 517 435
f 435 433 514
f 514 433 517
f 384 383 432
f 432 433 384
f 511 430 454
f 511 579 577
f 454 533 511
f 511 533 578
f 578 579 511
f 618 583 582
f 582 581 618
f 582 583 517
f 580 577 547
f 547 581 580
f 390 457 391
f 391 321 390
f 310 231 309
f 310 309 312
f 17 46 47
f 45 46 17
f 44 45 17
f 474 403 473
f 474 475 403
f 474 551 475
f 549 471 548
f 548 622 549
f 553 554 476
f 476 552 553
f 553 627 554
f 553 552 626
f 626 627 553
f 158 156 157
f 154 155 91
f 50 96 51
f 21 50 51
f 52 22 51
f 51 22 21
f 51 26 52
f 732 699 707
f 707 720 732
f 732 720 699
f 477 403 476
f 477 478 403
f 476 557 477
f 557 478 477
f 630 631 556
f 556 555 630
f 689 631 630
f 560 484 483
f 483 484 405
f 400 408 463
f 408 490 491
f 491 569 570
f 567 569 491
f 491 490 567
f 131 201 202
f 202 132 131
f 202 203 132
f 202 285 203
f 284 285 202
f 415 360 414
f 498 497 414
f 497 500 414
f 414 500 415
f 358 278 357
f 703 704 645
f 703 702 704
f 643 702 703
f 645 644 703
f 703 644 643
f 417 418 361
f 361 418 362
f 284 360 361
f 361 360 415
f 361 285 284
f 362 285 361
f 415 500 416
f 416 361 415
f 417 361 416
f 503 417 416
f 416 502 503
f 501 502 416
f 416 500 501
f 616 686 638
f 616 541 542
f 616 638 571
f 571 541 616
f 570 569 616
f 616 569 567
f 640 702 643
f 640 639 702
f 643 574 640
f 640 574 571
f 571 639 640
f 694 634 692
f 692 695 694
f 694 695 634
f 560 634 564
f 634 565 564
f 485 560 564
f 564 565 485
f 563 486 485
f 636 566 563
f 563 634 636
f 635 631 691
f 691 697 635
f 689 728 690
f 728 697 690
f 697 691 690
f 690 631 689
f 690 691 631
f 698 697 728
f 707 699 698
f 698 728 707
f 699 635 698
f 635 697 698
f 408 407 487
f 405 486 487
f 487 563 566
f 486 563 487
f 645 704 705
f 704 727 705
f 734 735 705
f 705 733 734
f 696 695 730
f 730 695 692
f 668 671 669
f 669 604 668
f 672 720 719
f 672 671 720
f 719 670 672
f 642 575 573
f 573 575 501
f 573 500 497
f 501 500 573
f 136 137 81
f 81 80 136
f 82 44 81
f 44 80 81
f 421 507 423
f 423 507 508
f 209 292 210
f 207 137 136
f 207 136 206
f 211 294 212
f 210 294 211
f 83 44 82
f 78 132 133
f 133 79 78
f 132 134 133
f 134 79 133
f 296 214 213
f 215 214 298
f 210 292 293
f 293 294 210
f 293 292 371
f 371 294 293
f 372 294 371
f 371 425 372
f 112 160 100
f 226 227 160
f 378 425 426
f 426 425 508
f 344 329 395
f 395 329 394
f 330 329 344
f 190 262 263
f 348 271 270
f 393 347 325
f 325 349 393
f 127 190 191
f 191 192 127
f 271 272 194
f 194 272 273
f 269 270 194
f 194 270 271
f 269 194 268
f 268 194 192
f 268 270 269
f 333 334 253
f 253 332 333
f 196 128 187
f 77 128 129
f 129 128 196
f 127 77 129
f 129 189 127
f 197 189 129
f 129 196 197
f 261 262 189
f 252 251 253
f 181 251 252
f 253 182 252
f 182 181 252
f 250 251 181
f 181 248 250
f 250 248 251
f 25 58 59
f 58 107 59
f 59 60 25
f 59 107 60
f 25 61 27
f 67 65 27
f 9 25 27
f 27 28 9
f 27 65 28
f 456 536 535
f 242 318 320
f 389 390 320
f 321 242 320
f 320 390 321
f 387 318 308
f 308 385 387
f 385 450 387
f 387 450 389
f 389 320 387
f 387 320 318
f 725 726 679
f 725 716 715
f 602 663 665
f 601 663 602
f 529 601 602
f 602 603 529
f 666 602 665
f 603 602 666
f 523 524 439
f 593 524 523
f 439 522 523
f 523 522 592
f 592 593 523
f 600 598 601
f 601 528 600
f 600 528 598
f 527 526 598
f 598 528 527
f 444 526 527
f 527 528 444
f 714 712 726
f 386 432 383
f 386 382 429
f 383 307 386
f 386 307 382
f 429 431 451
f 451 386 429
f 581 582 515
f 515 580 581
f 577 580 515
f 19 6 18
f 6 17 18
f 18 50 21
f 21 19 18
f 49 18 17
f 49 96 50
f 50 18 49
f 44 17 16
f 16 17 6
f 473 549 550
f 550 474 473
f 550 625 551
f 551 474 550
f 624 625 550
f 623 549 622
f 687 624 623
f 623 622 687
f 624 550 623
f 623 550 549
f 222 152 221
f 221 158 222
f 91 152 153
f 153 154 91
f 90 152 91
f 91 44 90
f 44 86 87
f 87 88 44
f 86 88 87
f 145 88 86
f 86 85 145
f 145 214 215
f 156 158 97
f 97 51 94
f 628 630 555
f 554 629 628
f 628 555 554
f 628 629 689
f 689 630 628
f 405 481 482
f 482 483 405
f 482 481 560
f 560 483 482
f 464 401 400
f 400 463 464
f 493 463 408
f 466 541 467
f 542 541 466
f 466 464 463
f 466 493 542
f 463 493 466
f 467 401 466
f 401 464 466
f 568 491 570
f 542 491 568
f 570 616 568
f 568 616 542
f 283 201 200
f 283 202 201
f 200 282 283
f 284 202 283
f 356 277 352
f 357 278 355
f 355 410 357
f 355 356 410
f 355 278 277
f 277 356 355
f 359 414 360
f 359 358 414
f 359 360 279
f 279 278 359
f 278 358 359
f 413 358 357
f 357 410 413
f 498 414 413
f 414 358 413
f 413 497 498
f 413 496 497
f 499 496 413
f 413 495 499
f 637 700 686
f 686 616 637
f 636 700 637
f 637 616 567
f 637 566 636
f 637 567 566
f 485 565 562
f 562 563 485
f 562 565 634
f 634 563 562
f 489 490 408
f 567 490 489
f 405 487 406
f 406 487 407
f 406 354 405
f 406 407 354
f 645 705 706
f 706 705 735
f 731 730 733
f 731 705 727
f 733 705 731
f 731 727 696
f 696 730 731
f 733 730 729
f 722 721 729
f 721 733 729
f 729 692 722
f 729 730 692
f 667 668 604
f 718 671 667
f 671 668 667
f 669 671 605
f 671 672 605
f 605 672 670
f 605 670 606
f 605 606 532
f 532 604 605
f 605 604 669
f 572 641 642
f 642 573 572
f 499 574 572
f 574 641 572
f 497 499 572
f 572 573 497
f 210 211 139
f 139 140 82
f 82 81 139
f 212 140 139
f 139 211 212
f 139 209 210
f 206 288 289
f 288 368 289
f 289 207 206
f 371 292 370
f 370 423 371
f 292 368 369
f 369 370 292
f 423 370 369
f 424 425 371
f 371 423 424
f 508 425 424
f 424 423 508
f 292 209 208
f 137 207 208
f 296 213 295
f 294 372 295
f 212 294 295
f 295 213 212
f 239 238 215
f 215 298 239
f 239 168 238
f 297 214 296
f 297 298 214
f 296 374 297
f 374 298 297
f 373 374 296
f 296 295 373
f 373 295 372
f 373 376 374
f 228 229 161
f 228 161 160
f 160 227 228
f 228 303 229
f 161 229 230
f 313 374 375
f 374 376 375
f 377 425 378
f 377 372 425
f 377 373 372
f 376 373 377
f 62 112 63
f 111 112 62
f 63 26 62
f 100 63 113
f 113 112 100
f 63 112 113
f 506 509 427
f 427 426 508
f 427 379 378
f 378 426 427
f 427 507 506
f 508 507 427
f 327 248 247
f 247 330 327
f 249 328 247
f 328 329 247
f 329 330 247
f 178 249 247
f 247 248 178
f 342 263 262
f 190 263 264
f 127 192 193
f 193 194 127
f 192 194 193
f 273 258 195
f 195 194 273
f 127 194 195
f 195 188 127
f 258 188 195
f 266 345 267
f 267 192 266
f 267 268 192
f 723 678 677
f 537 540 610
f 610 611 537
f 674 673 607
f 609 603 607
f 607 666 674
f 603 666 607
f 607 536 609
f 607 535 536
f 534 535 607
f 259 189 197
f 274 339 259
f 197 274 259
f 66 61 67
f 67 27 66
f 66 27 61
f 456 535 455
f 455 389 456
f 455 390 389
f 455 535 534
f 717 716 724
f 716 725 724
f 724 678 717
f 679 678 724
f 724 725 679
f 594 524 599
f 660 598 597
f 598 524 597
f 524 596 597
f 712 714 713
f 715 714 736
f 736 725 715
f 726 725 736
f 736 714 726
f 655 654 708
f 657 684 711
f 657 656 684
f 711 658 657
f 433 515 516
f 516 515 582
f 517 433 516
f 516 582 517
f 386 451 452
f 451 515 452
f 432 386 452
f 433 432 452
f 452 515 433
f 577 515 513
f 513 451 431
f 513 515 451
f 48 17 47
f 48 49 17
f 47 94 48
f 96 49 95
f 94 51 95
f 95 51 96
f 95 48 94
f 49 48 95
f 116 168 111
f 158 168 116
f 225 168 158
f 225 158 221
f 154 153 224
f 224 153 152
f 224 158 157
f 157 155 224
f 155 154 224
f 152 90 151
f 221 152 151
f 215 238 216
f 220 238 221
f 148 149 89
f 89 151 90
f 44 88 89
f 89 90 44
f 144 213 214
f 214 145 144
f 212 213 144
f 144 145 85
f 93 97 94
f 156 97 93
f 94 46 93
f 93 46 92
f 92 156 93
f 492 491 542
f 542 493 492
f 408 491 492
f 492 493 408
f 408 487 488
f 488 489 408
f 488 487 566
f 566 567 488
f 567 489 488
f 138 81 137
f 138 139 81
f 209 139 138
f 137 208 138
f 138 208 209
f 367 369 368
f 367 366 421
f 367 368 288
f 367 288 287
f 287 366 367
f 291 208 207
f 291 368 292
f 292 208 291
f 168 239 240
f 376 303 302
f 302 228 227
f 303 228 302
f 305 230 304
f 304 379 305
f 378 379 304
f 304 303 376
f 229 303 304
f 304 230 229
f 304 377 378
f 376 377 304
f 301 302 227
f 376 302 301
f 51 97 98
f 428 427 509
f 379 427 428
f 428 509 510
f 263 342 343
f 343 264 263
f 346 267 345
f 268 267 346
f 270 268 346
f 534 607 608
f 608 607 673
f 611 610 676
f 677 611 676
f 189 259 260
f 260 261 189
f 341 261 260
f 260 340 341
f 595 596 524
f 524 594 595
f 712 713 659
f 659 658 712
f 685 684 709
f 709 708 685
f 709 655 708
f 512 513 431
f 431 430 512
f 430 511 512
f 512 511 577
f 577 513 512
f 115 97 158
f 158 116 115
f 170 236 226
f 170 112 111
f 160 112 170
f 170 226 160
f 111 168 169
f 168 236 169
f 169 170 111
f 236 170 169
f 235 236 168
f 168 240 235
f 221 238 237
f 237 225 221
f 238 168 237
f 168 225 237
f 223 222 158
f 158 224 223
f 152 222 223
f 223 224 152
f 238 218 217
f 217 216 238
f 219 218 238
f 238 220 219
f 150 89 149
f 151 89 150
f 221 151 150
f 150 220 221
f 88 145 146
f 146 89 88
f 146 145 215
f 215 216 146
f 212 144 143
f 143 83 82
f 143 144 83
f 84 144 85
f 83 144 84
f 84 85 44
f 44 83 84
f 352 401 402
f 402 356 352
f 412 413 410
f 410 356 412
f 571 499 494
f 494 541 571
f 499 495 494
f 422 367 421
f 369 367 422
f 421 423 422
f 423 369 422
f 290 289 368
f 368 291 290
f 207 289 290
f 290 291 207
f 315 240 239
f 314 298 374
f 314 240 298
f 314 235 240
f 314 374 313
f 313 235 314
f 227 226 300
f 300 301 227
f 300 375 376
f 376 301 300
f 264 343 265
f 266 192 265
f 192 191 265
f 265 191 190
f 190 264 265
f 675 676 610
f 710 664 655
f 655 709 710
f 656 664 710
f 684 656 710
f 710 709 684
f 64 115 116
f 64 116 111
f 64 98 97
f 111 62 64
f 64 62 26
f 26 51 64
f 51 98 64
f 148 89 147
f 89 146 147
f 82 140 141
f 141 140 212
f 411 412 356
f 356 402 411
f 411 402 468
f 468 494 411
f 411 494 495
f 495 413 411
f 413 412 411
f 467 541 465
f 541 494 465
f 465 494 468
f 468 402 465
f 465 401 467
f 465 402 401
f 316 239 298
f 298 240 316
f 299 235 313
f 236 235 299
f 313 375 299
f 375 300 299
f 226 236 299
f 299 300 226
f 97 115 114
f 114 64 97
f 115 64 114
f 142 143 82
f 82 141 142
f 212 143 142
f 142 141 212
f 317 315 239
f 239 316 317
f 240 315 317
f 317 316 240
f 12 13 3
f 3 13 4
f 36 13 12
f 12 35 36
f 619 546 545
f 619 545 618
f 619 547 470
f 470 546 619
f 75 36 35
f 35 74 75
f 590 591 521
f 521 520 590
f 391 399 351
f 351 392 391
f 397 338 351
f 351 399 397
f 273 350 351
f 350 392 351
f 457 399 391
f 462 399 457
f 457 540 462
f 534 540 457
f 558 561 481
f 632 561 558
f 272 350 273
f 272 349 350
f 125 75 74
f 125 74 124
f 256 274 196
f 255 274 256
f 649 651 586
f 586 584 649
f 586 651 650
f 650 585 586
f 715 716 663
f 662 715 663
f 717 665 663
f 663 716 717
f 521 591 654
f 654 592 521
f 591 653 654
f 653 708 654
f 166 231 310
f 232 166 310
f 312 234 310
f 234 232 310
f 549 472 471
f 473 472 549
f 395 345 266
f 395 266 344
f 393 270 347
f 348 270 393
f 349 272 393
f 393 272 348
f 187 256 196
f 186 256 187
f 187 125 124
f 124 186 187
f 126 125 187
f 187 128 126
f 339 274 255
f 255 334 339
f 666 665 717
f 717 678 666
f 714 715 662
f 662 661 714
f 16 469 403
f 16 545 544
f 16 5 4
f 16 41 40
f 16 539 615
f 40 39 16
f 615 681 16
f 544 543 16
f 16 77 127
f 4 15 16
f 130 78 16
f 43 42 16
f 16 354 353
f 16 198 130
f 38 77 16
f 16 39 38
f 16 15 43
f 16 461 539
f 16 588 587
f 78 44 16
f 16 403 354
f 275 198 16
f 16 280 275
f 353 281 16
f 16 42 41
f 396 458 16
f 16 651 649
f 649 648 16
f 16 617 545
f 587 589 16
f 652 588 16
f 650 651 16
f 647 617 16
f 543 469 16
f 16 281 280
f 127 188 16
f 16 335 396
f 16 681 652
f 16 648 647
f 16 6 5
f 16 188 257
f 257 335 16
f 16 458 461
f 16 589 650
f 282 360 283
f 283 360 284
f 342 341 332
f 342 332 331
f 262 261 342
f 342 261 341
f 723 666 678
f 674 666 723
f 340 339 334
f 334 333 340
f 332 341 340
f 340 333 332
f 534 457 455
f 457 390 455
f 713 714 661
f 713 661 660
f 592 654 655
f 655 593 592
f 159 161 428
f 428 576 645
f 311 231 428
f 428 510 576
f 428 162 103
f 428 166 162
f 305 379 428
f 103 102 428
f 428 102 159
f 645 706 428
f 428 388 311
f 530 453 428
f 428 231 166
f 428 735 718
f 428 604 530
f 718 667 428
f 453 388 428
f 428 230 305
f 428 706 735
f 428 667 604
f 161 230 428
f 343 342 331
f 331 327 343
f 345 395 346
f 346 395 394
f 347 270 346
f 394 347 346
f 608 540 534
f 608 610 540
f 339 340 260
f 260 259 339
f 595 657 658
f 658 596 595
f 595 594 656
f 656 657 595
f 659 713 660
f 660 597 659
f 659 596 658
f 659 597 596
f 656 594 664
f 664 594 599
f 593 655 664
f 599 593 664
f 219 149 148
f 148 218 219
f 149 219 150
f 150 219 220
f 344 266 265
f 265 330 344
f 265 343 327
f 327 330 265
f 610 608 675
f 675 608 673
f 674 723 675
f 675 673 674
f 675 723 677
f 677 676 675
f 147 218 148
f 147 217 218
f 216 217 147
f 147 146 216

