# https://github.com/mikedh/trimesh
v 0.00799744 0.01069006 -0.00045225
v 0.00795720 0.01035660 -0.00045225
v 0.00799744 0.01069006 -0.00654385
v 0.00796390 0.01102423 -0.00045225
v 0.00793036 0.01135770 0.00040910
v 0.00799649 0.01069076 0.00542840
v 0.00786233 0.01019860 -0.00654385
v 0.00795720 0.01035660 -0.00645830
v 0.00797157 0.01048593 0.00542840
v 0.00795528 0.01035660 0.00542840
v 0.00782879 0.01014407 0.00542840
v 0.00782974 0.01014477 0.00040910
v 0.00796678 0.01044119 -0.00654385
v 0.00796390 0.01102423 -0.00654385
v 0.00787383 0.01169186 0.00040910
v 0.00792941 0.01135770 0.00542840
v 0.00793036 0.01135770 -0.00654385
v 0.00791599 0.01144299 -0.00654385
v 0.00782974 0.01014477 -0.00654385
v 0.00795624 0.01035660 -0.00654385
v 0.00759209 0.01005529 0.00542840
v 0.00759305 0.01005529 0.00040910
v 0.00782879 0.01014407 0.00040910
v 0.00787383 0.01169186 -0.00654385
v 0.00785466 0.01176806 -0.00654385
v 0.00779716 0.01199107 0.00040910
v 0.00787287 0.01169186 0.00542840
v 0.00776937 0.01012170 -0.00654385
v 0.00659068 0.00979453 0.00542840
v 0.00670663 0.00982459 0.00040910
v 0.00759305 0.01005529 -0.00654385
v 0.00779716 0.01199107 -0.00654385
v 0.00708803 0.01451270 0.00040910
v 0.00703628 0.01469447 0.00542840
v 0.00779620 0.01199107 0.00542840
v 0.00058509 0.00864172 0.00542840
v 0.00659068 0.00979453 0.00040910
v 0.00679192 0.00984696 -0.00654385
v 0.00708803 0.01451270 -0.00654385
v 0.00694237 0.01502863 0.00040910
v 0.00694237 0.01502793 0.00542840
v 0.00025065 0.00858510 0.00542840
v 0.00025160 0.00860257 -0.00654385
v 0.00058509 0.00866130 -0.00654385
v 0.00659164 0.00979522 -0.00654385
v 0.00694237 0.01502863 -0.00654385
v 0.00691362 0.01511113 -0.00654385
v 0.00682642 0.01535231 0.00542840
v 0.00682737 0.01535231 -0.00045225
v -0.00008284 0.00859768 0.00542840
v 0.00016632 0.00860607 -0.00654385
v 0.00682737 0.01535231 -0.00654385
v 0.00676892 0.01545438 0.00542840
v 0.00673346 0.01551870 -0.00045225
v -0.00041632 0.00866060 0.00542840
v -0.00041632 0.00867528 -0.00654385
v -0.00016717 0.00863193 -0.00654385
v -0.00008284 0.00861795 -0.00654385
v 0.00673250 0.01551870 -0.00654385
v 0.00673346 0.01551870 -0.00545632
v 0.00673250 0.01551870 0.00542840
v 0.00656672 0.01555295 -0.00045225
v -0.00053515 0.00870604 0.00542840
v -0.00070189 0.00878294 -0.00654385
v -0.00048915 0.00870254 -0.00654385
v 0.00656576 0.01555295 -0.00654385
v 0.00656672 0.01555295 -0.00478950
v 0.00656576 0.01555295 0.00542840
v 0.00529891 0.01572703 -0.00648057
v -0.00072393 0.00877944 0.00542840
v -0.00082647 0.00885844 -0.00654385
v -0.00082647 0.00883467 0.00542840
v -0.00089067 0.00886963 0.00542840
v 0.00529891 0.01572703 -0.00654385
v 0.00625719 0.01555994 0.00542840
v 0.00529795 0.01572703 -0.00612431
v 0.00529411 0.01572703 -0.00579266
v 0.00522703 0.01572703 -0.00546804
v 0.00521745 0.01572703 -0.00543288
v -0.00086863 0.00888431 -0.00654385
v -0.00108425 0.00901504 0.00542840
v -0.00108425 0.00903391 -0.00654385
v -0.00092326 0.00892206 -0.00654385
v -0.00006559 0.01572703 -0.00654385
v 0.00568989 0.01550402 0.00542840
v 0.00494530 0.01572703 -0.00518326
v 0.00458786 0.01572703 -0.00511881
v 0.00058509 0.01572703 -0.00512115
v 0.00025160 0.01572703 -0.00514342
v 0.00006474 0.01572703 -0.00521256
v 0.00003982 0.01572703 -0.00522662
v -0.00127111 0.00916674 0.00542840
v -0.00127111 0.00916674 0.00322052
v -0.00127016 0.00916674 0.00188571
v -0.00126632 0.00917094 -0.00654385
v -0.00006559 0.01572703 -0.00575984
v -0.00171193 0.01102423 -0.00654385
v -0.00163335 0.01127590 0.00155172
v -0.00172534 0.01102353 0.00522332
v -0.00163335 0.01128639 0.00542840
v 0.00558927 0.01549353 0.00542840
v -0.00002822 0.01572703 -0.00542819
v -0.00125291 0.01186034 0.00542840
v -0.00108425 0.01198828 0.00542840
v -0.00084755 0.01215257 0.00542840
v 0.00496926 0.01531246 0.00542840
v 0.00525578 0.01545368 0.00542840
v -0.00135928 0.00928209 0.00542840
v -0.00141390 0.00935480 0.00542840
v -0.00127016 0.00916744 0.00121772
v -0.00139378 0.00935550 -0.00654385
v -0.00150398 0.00948483 0.00542840
v -0.00156052 0.00956662 0.00542840
v -0.00003588 0.01572703 -0.00545632
v -0.00159885 0.01135071 0.00542840
v -0.00154327 0.01145277 0.00542840
v -0.00178859 0.01069006 -0.00654385
v -0.00172534 0.01102353 0.00542840
v -0.00137844 0.01169186 0.00542840
v -0.00154518 0.00958410 -0.00654385
v -0.00159214 0.00963094 0.00542840
v -0.00164197 0.00975048 -0.00654385
v -0.00157010 0.00962674 -0.00654385
v -0.00144265 0.01159888 0.00542840
v -0.00178955 0.01060477 -0.00654385
v -0.00179242 0.01035660 0.00388734
v -0.00178859 0.01069006 -0.00045225
v -0.00178763 0.01069076 0.00542840
v -0.00164197 0.00973301 0.00542840
v -0.00173972 0.01002243 -0.00654385
v -0.00179051 0.01035660 -0.00654385
v -0.00179242 0.01035660 0.00542840
v -0.00178955 0.01056073 0.00542840
v -0.00170139 0.00991058 0.00542840
v -0.00173972 0.01002243 -0.00078390
v -0.00173876 0.01002313 0.00542840
f 54 62 61
f 100 96 84
f 28 23 31
f 130 129 135
f 91 106 107
f 105 106 91
f 91 104 105
f 103 104 91
f 68 62 69
f 61 62 68
f 4 5 1
f 15 24 25
f 26 15 25
f 52 59 60
f 98 84 97
f 22 11 21
f 21 29 22
f 36 44 45
f 43 44 36
f 42 43 36
f 16 5 15
f 15 27 16
f 93 81 92
f 30 31 22
f 22 29 30
f 126 125 131
f 131 130 126
f 129 130 122
f 115 96 100
f 115 116 96
f 101 91 107
f 114 119 103
f 96 116 114
f 15 5 18
f 18 24 15
f 5 17 18
f 66 74 67
f 67 60 66
f 66 60 59
f 117 125 126
f 29 36 37
f 37 36 45
f 37 30 29
f 1 5 6
f 5 16 6
f 6 2 1
f 48 41 49
f 135 129 134
f 134 136 135
f 58 51 50
f 50 55 56
f 50 51 43
f 50 43 42
f 95 113 111
f 3 8 13
f 13 8 20
f 19 23 28
f 31 30 38
f 38 37 45
f 30 37 38
f 75 91 85
f 91 101 85
f 75 68 79
f 79 86 75
f 103 91 102
f 102 114 103
f 124 114 116
f 119 114 124
f 26 25 32
f 40 41 33
f 10 11 2
f 53 49 54
f 53 54 61
f 53 48 49
f 111 113 120
f 129 122 121
f 122 113 121
f 135 136 132
f 127 128 118
f 57 50 56
f 58 50 57
f 81 95 82
f 73 82 83
f 81 82 73
f 20 8 7
f 7 8 2
f 75 88 89
f 75 86 87
f 87 88 75
f 26 33 34
f 34 33 41
f 34 35 26
f 52 49 47
f 40 46 47
f 47 41 40
f 49 41 47
f 2 6 9
f 9 10 2
f 93 92 108
f 108 109 93
f 110 109 95
f 113 95 112
f 95 109 112
f 123 113 122
f 123 120 113
f 127 132 133
f 133 128 127
f 99 118 100
f 100 84 99
f 99 84 98
f 98 97 99
f 97 117 99
f 63 64 55
f 70 64 63
f 56 55 65
f 55 64 65
f 72 64 70
f 73 64 72
f 80 73 83
f 2 11 12
f 12 7 2
f 19 7 12
f 90 91 75
f 75 89 90
f 76 68 69
f 76 77 68
f 78 79 68
f 68 77 78
f 94 81 93
f 93 109 94
f 109 110 94
f 94 95 81
f 94 110 95
f 71 64 73
f 73 80 71
f 31 23 11
f 31 11 22
f 54 49 60
f 60 49 52
f 62 54 60
f 60 67 62
f 62 67 74
f 69 62 74
f 1 2 8
f 8 3 1
f 1 3 14
f 14 4 1
f 14 17 5
f 5 4 14
f 35 15 26
f 35 27 15
f 33 32 39
f 26 32 33
f 46 33 39
f 40 33 46
f 132 130 135
f 126 130 132
f 132 117 126
f 127 117 132
f 99 117 127
f 127 118 99
f 72 92 81
f 72 21 11
f 72 134 129
f 72 106 105
f 72 132 136
f 72 101 107
f 107 106 72
f 105 104 72
f 103 119 72
f 61 68 72
f 42 36 72
f 72 124 116
f 72 104 103
f 72 115 100
f 72 68 75
f 29 21 72
f 72 36 29
f 72 16 27
f 11 10 72
f 27 35 72
f 72 9 6
f 72 50 42
f 116 115 72
f 75 85 72
f 100 118 72
f 72 6 16
f 41 48 72
f 81 73 72
f 72 53 61
f 136 134 72
f 129 121 72
f 55 50 72
f 128 133 72
f 72 85 101
f 119 124 72
f 72 34 41
f 48 53 72
f 72 108 92
f 72 121 113
f 113 112 72
f 72 118 128
f 72 63 55
f 35 34 72
f 10 9 72
f 109 108 72
f 72 112 109
f 72 133 132
f 70 63 72
f 11 23 12
f 23 19 12
f 78 84 96
f 78 74 84
f 78 102 91
f 69 74 78
f 96 114 78
f 78 87 86
f 91 90 78
f 86 79 78
f 114 102 78
f 78 89 88
f 88 87 78
f 78 76 69
f 78 90 89
f 77 76 78
f 43 51 71
f 28 31 71
f 71 95 111
f 71 59 52
f 71 66 59
f 71 44 43
f 71 32 25
f 20 7 71
f 24 18 71
f 125 117 71
f 3 13 71
f 45 44 71
f 71 19 28
f 71 131 125
f 71 14 3
f 71 25 24
f 84 74 71
f 71 97 84
f 111 120 71
f 83 82 71
f 130 131 71
f 71 122 130
f 17 14 71
f 71 18 17
f 71 38 45
f 74 66 71
f 71 117 97
f 71 51 58
f 71 57 56
f 71 13 20
f 71 123 122
f 31 38 71
f 39 32 71
f 71 46 39
f 52 47 71
f 58 57 71
f 71 82 95
f 56 65 71
f 71 7 19
f 71 47 46
f 120 123 71
f 71 65 64
f 71 80 83

