# https://github.com/mikedh/trimesh
v 0.00059544 0.00837886 -0.00873597
v 0.00045765 0.00643834 -0.00794028
v 0.00145826 0.00628742 -0.00794028
v 0.00189787 0.00818202 -0.00873597
v 0.00059544 0.00837886 -0.00949021
v -0.00072175 0.00836738 -0.00873597
v -0.00055444 0.00643178 -0.00794028
v 0.00242442 0.00598232 -0.00794028
v 0.00189787 0.00818202 -0.00949021
v 0.00315438 0.00778342 -0.00873597
v 0.00054623 0.00770468 -0.01083972
v -0.00066434 0.00769648 -0.01083972
v -0.00072175 0.00836738 -0.00949021
v 0.00174532 0.00752424 -0.01083972
v -0.00202254 0.00815249 -0.00873597
v -0.00155340 0.00626446 -0.00794028
v 0.00332989 0.00552959 -0.00794028
v 0.00433378 0.00719453 -0.00873597
v 0.00315438 0.00778342 -0.00949021
v 0.00290176 0.00715845 -0.01083972
v -0.00186015 0.00749636 -0.01083972
v -0.00202254 0.00815249 -0.00949021
v -0.00327248 0.00773585 -0.00873597
v -0.00251464 0.00594459 -0.00794028
v 0.00415498 0.00494071 -0.00794028
v 0.00540656 0.00642849 -0.00873597
v 0.00433378 0.00719453 -0.00949021
v 0.00398603 0.00661713 -0.01083972
v -0.00301002 0.00711416 -0.01083972
v -0.00327248 0.00773585 -0.00949021
v -0.00341355 0.00547874 -0.00794028
v -0.00444204 0.00712728 -0.00873597
v 0.00487673 0.00422880 -0.00794028
v 0.00634484 0.00550334 -0.00873597
v 0.00540656 0.00642849 -0.00949021
v 0.00497187 0.00591179 -0.01083972
v -0.00408609 0.00655480 -0.01083972
v -0.00444204 0.00712728 -0.00949021
v -0.00550334 0.00634484 -0.00873597
v -0.00422880 0.00487673 -0.00794028
v 0.00547874 0.00341355 -0.00794028
v 0.00634484 0.00550334 -0.00949021
v 0.00712728 0.00444204 -0.00873597
v 0.00583469 0.00506045 -0.01083972
v -0.00506045 0.00583469 -0.01083972
v -0.00550334 0.00634484 -0.00949021
v -0.00642849 0.00540656 -0.00873597
v -0.00494071 0.00415498 -0.00794028
v 0.00594459 0.00251464 -0.00794028
v 0.00773585 0.00327248 -0.00873597
v 0.00712728 0.00444204 -0.00949021
v 0.00655480 0.00408609 -0.01083972
v -0.00591179 0.00497187 -0.01083972
v -0.00642849 0.00540656 -0.00949021
v -0.00719453 0.00433378 -0.00873597
v -0.00552959 0.00332989 -0.00794028
v 0.00626446 0.00155340 -0.00794028
v 0.00815249 0.00202254 -0.00873597
v 0.00773585 0.00327248 -0.00949021
v 0.00711416 0.00301002 -0.01083972
v -0.00661713 0.00398603 -0.01083972
v -0.00719453 0.00433378 -0.00949021
v -0.00778342 0.00315438 -0.00873597
v -0.00598232 0.00242442 -0.00794028
v 0.00643178 0.00055444 -0.00794028
v 0.00815249 0.00202254 -0.00949021
v 0.00836738 0.00072175 -0.00873597
v 0.00749636 0.00186015 -0.01083972
v -0.00715845 0.00290176 -0.01083972
v -0.00778342 0.00315438 -0.00949021
v -0.00818202 0.00189787 -0.00873597
v -0.00628742 0.00145826 -0.00794028
v 0.00643834 -0.00045765 -0.00794028
v 0.00837886 -0.00059544 -0.00873597
v 0.00836738 0.00072175 -0.00949021
v 0.00769648 0.00066434 -0.01083972
v -0.00752424 0.00174532 -0.01083972
v -0.00818202 0.00189787 -0.00949021
v -0.00837886 0.00059544 -0.00873597
v -0.00643834 0.00045765 -0.00794028
v 0.00628742 -0.00145826 -0.00794028
v 0.00837886 -0.00059544 -0.00949021
v 0.00818202 -0.00189787 -0.00873597
v 0.00770468 -0.00054623 -0.01083972
v -0.00770468 0.00054623 -0.01083972
v -0.00837886 0.00059544 -0.00949021
v -0.00836738 -0.00072175 -0.00873597
v -0.00643178 -0.00055444 -0.00794028
v 0.00598232 -0.00242442 -0.00794028
v 0.00818202 -0.00189787 -0.00949021
v 0.00752424 -0.00174532 -0.01083972
v 0.00778342 -0.00315438 -0.00873597
v -0.00769648 -0.00066434 -0.01083972
v -0.00836738 -0.00072175 -0.00949021
v -0.00815249 -0.00202254 -0.00873597
v -0.00626446 -0.00155340 -0.00794028
v 0.00552959 -0.00332989 -0.00794028
v 0.00719453 -0.00433378 -0.00873597
v 0.00778342 -0.00315438 -0.00949021
v 0.00715845 -0.00290176 -0.01083972
v -0.00749636 -0.00186015 -0.01083972
v -0.00815249 -0.00202254 -0.00949021
v -0.00773585 -0.00327248 -0.00873597
v -0.00594459 -0.00251464 -0.00794028
v 0.00494071 -0.00415498 -0.00794028
v 0.00719453 -0.00433378 -0.00949021
v 0.00642849 -0.00540656 -0.00873597
v 0.00661713 -0.00398603 -0.01083972
v -0.00711416 -0.00301002 -0.01083972
v -0.00773585 -0.00327248 -0.00949021
v -0.00712728 -0.00444204 -0.00873597
v -0.00547874 -0.00341355 -0.00794028
v 0.00422880 -0.00487673 -0.00794028
v 0.00550334 -0.00634484 -0.00873597
v 0.00642849 -0.00540656 -0.00949021
v 0.00591179 -0.00497187 -0.01083972
v -0.00655480 -0.00408609 -0.01083972
v -0.00712728 -0.00444204 -0.00949021
v -0.00634484 -0.00550334 -0.00873597
v -0.00487673 -0.00422880 -0.00794028
v 0.00341355 -0.00547874 -0.00794028
v 0.00550334 -0.00634484 -0.00949021
v 0.00444204 -0.00712728 -0.00873597
v 0.00506045 -0.00583469 -0.01083972
v -0.00583469 -0.00506045 -0.01083972
v -0.00634484 -0.00550334 -0.00949021
v -0.00540656 -0.00642849 -0.00873597
v -0.00415498 -0.00494071 -0.00794028
v 0.00251464 -0.00594459 -0.00794028
v 0.00327248 -0.00773585 -0.00873597
v 0.00444204 -0.00712728 -0.00949021
v 0.00408609 -0.00655480 -0.01083972
v -0.00497187 -0.00591179 -0.01083972
v -0.00540656 -0.00642849 -0.00949021
v -0.00433378 -0.00719453 -0.00873597
v -0.00332989 -0.00552959 -0.00794028
v 0.00202254 -0.00815249 -0.00873597
v 0.00155340 -0.00626446 -0.00794028
v 0.00327248 -0.00773585 -0.00949021
v 0.00301002 -0.00711416 -0.01083972
v -0.00398603 -0.00661713 -0.01083972
v -0.00433378 -0.00719453 -0.00949021
v -0.00315438 -0.00778342 -0.00873597
v -0.00242442 -0.00598232 -0.00794028
v 0.00202254 -0.00815249 -0.00949021
v 0.00055444 -0.00643178 -0.00794028
v 0.00072175 -0.00836738 -0.00873597
v 0.00186015 -0.00749636 -0.01083972
v -0.00290176 -0.00715845 -0.01083972
v -0.00315438 -0.00778342 -0.00949021
v -0.00189787 -0.00818202 -0.00873597
v -0.00145826 -0.00628742 -0.00794028
v 0.00072175 -0.00836738 -0.00949021
v 0.00066434 -0.00769648 -0.01083972
v -0.00045765 -0.00643834 -0.00794028
v -0.00059544 -0.00837886 -0.00873597
v -0.00174532 -0.00752424 -0.01083972
v -0.00189787 -0.00818202 -0.00949021
v -0.00059544 -0.00837886 -0.00949021
v -0.00054623 -0.00770468 -0.01083972
f 136 135 144
f 142 134 141
f 58 50 49
f 49 50 41
f 74 81 83
f 72 71 79
f 125 126 117
f 117 126 118
f 117 118 110
f 110 109 117
f 144 135 143
f 143 151 144
f 104 103 112
f 133 141 134
f 134 126 133
f 133 126 125
f 26 25 34
f 59 66 60
f 73 81 74
f 74 65 73
f 67 65 74
f 58 65 67
f 57 58 49
f 57 65 58
f 123 121 130
f 122 132 124
f 116 108 115
f 116 122 124
f 115 122 116
f 99 108 100
f 106 108 99
f 115 108 106
f 113 121 114
f 114 121 123
f 105 114 107
f 113 114 105
f 105 107 98
f 98 97 105
f 95 103 104
f 23 32 31
f 128 127 135
f 135 136 128
f 119 127 128
f 102 101 109
f 102 109 110
f 93 101 102
f 102 94 93
f 93 94 86
f 77 86 78
f 70 62 61
f 142 141 150
f 119 112 111
f 111 112 103
f 29 22 21
f 22 12 21
f 11 12 5
f 5 14 11
f 9 14 5
f 47 55 48
f 61 62 54
f 30 22 29
f 39 31 32
f 47 48 39
f 60 66 68
f 66 76 68
f 33 34 25
f 41 34 33
f 52 44 42
f 52 59 60
f 42 44 36
f 19 27 28
f 43 41 50
f 43 34 41
f 8 17 18
f 18 17 25
f 18 25 26
f 8 4 3
f 3 4 1
f 3 1 2
f 137 130 129
f 129 130 121
f 152 151 156
f 144 151 152
f 147 146 156
f 137 146 147
f 140 132 139
f 139 132 131
f 132 122 131
f 145 153 154
f 145 140 139
f 160 154 159
f 154 153 159
f 159 157 160
f 158 157 159
f 89 83 81
f 89 92 83
f 98 92 89
f 89 97 98
f 80 72 79
f 79 88 80
f 87 88 79
f 95 88 87
f 96 95 104
f 96 88 95
f 120 112 119
f 119 128 120
f 93 86 85
f 86 77 85
f 69 70 61
f 78 70 69
f 69 77 78
f 149 150 141
f 158 150 149
f 149 157 158
f 13 12 22
f 13 5 12
f 55 63 64
f 64 63 71
f 71 72 64
f 37 45 46
f 37 30 29
f 61 54 53
f 53 54 46
f 46 45 53
f 31 39 40
f 40 39 48
f 84 82 91
f 76 82 84
f 91 82 90
f 90 100 91
f 99 100 90
f 75 76 66
f 75 82 76
f 35 36 28
f 28 27 35
f 42 36 35
f 20 19 28
f 20 14 9
f 9 19 20
f 51 52 42
f 59 52 51
f 10 4 8
f 8 18 10
f 138 146 137
f 137 129 138
f 156 146 155
f 155 152 156
f 148 145 154
f 140 145 148
f 15 16 7
f 2 1 7
f 24 15 23
f 24 16 15
f 23 31 24
f 6 7 1
f 15 7 6
f 56 48 55
f 55 64 56
f 38 37 46
f 30 37 38
f 127 126 134
f 119 126 127
f 142 135 127
f 127 134 142
f 59 58 66
f 50 58 59
f 98 107 106
f 106 107 115
f 115 107 114
f 114 122 115
f 98 106 92
f 92 106 99
f 103 95 102
f 110 103 102
f 71 78 86
f 79 71 86
f 150 135 142
f 150 143 135
f 151 143 150
f 150 158 151
f 111 126 119
f 118 126 111
f 111 103 110
f 110 118 111
f 1 4 5
f 5 4 9
f 63 78 71
f 63 70 78
f 63 55 62
f 62 70 63
f 62 55 54
f 54 55 47
f 30 15 22
f 23 15 30
f 39 54 47
f 46 54 39
f 131 130 139
f 123 130 131
f 122 114 131
f 131 114 123
f 139 130 145
f 145 130 137
f 137 147 145
f 145 147 153
f 151 158 159
f 156 151 159
f 153 147 159
f 159 147 156
f 79 86 87
f 87 86 94
f 87 102 95
f 94 102 87
f 90 92 99
f 83 92 90
f 74 83 90
f 90 82 74
f 66 58 75
f 58 67 75
f 74 82 75
f 75 67 74
f 35 34 42
f 26 34 35
f 35 18 26
f 27 18 35
f 42 34 51
f 34 43 51
f 50 59 51
f 51 43 50
f 9 4 10
f 10 19 9
f 10 18 27
f 27 19 10
f 148 133 125
f 148 101 93
f 11 14 148
f 60 68 148
f 91 100 148
f 125 117 148
f 29 21 148
f 148 37 29
f 148 12 11
f 124 132 148
f 93 85 148
f 148 154 160
f 148 116 124
f 109 101 148
f 148 117 109
f 141 133 148
f 160 157 148
f 61 53 148
f 148 52 60
f 148 84 91
f 28 36 148
f 108 116 148
f 148 100 108
f 148 20 28
f 148 69 61
f 148 21 12
f 148 149 141
f 148 68 76
f 44 52 148
f 148 36 44
f 132 140 148
f 148 85 77
f 77 69 148
f 157 149 148
f 45 37 148
f 148 53 45
f 76 84 148
f 14 20 148
f 1 5 6
f 5 13 6
f 22 15 6
f 6 13 22
f 81 73 56
f 56 121 113
f 49 41 56
f 56 136 144
f 56 33 25
f 56 129 121
f 72 80 56
f 104 112 56
f 56 57 49
f 112 120 56
f 25 17 56
f 144 152 56
f 113 105 56
f 56 96 104
f 56 73 65
f 65 57 56
f 56 17 8
f 56 3 2
f 56 105 97
f 56 89 81
f 56 128 136
f 56 155 146
f 56 64 72
f 41 33 56
f 8 3 56
f 31 40 56
f 146 138 56
f 97 89 56
f 56 80 88
f 88 96 56
f 2 7 56
f 56 120 128
f 56 24 31
f 56 40 48
f 56 138 129
f 152 155 56
f 56 7 16
f 16 24 56
f 46 39 38
f 38 39 32
f 23 30 38
f 38 32 23

