# https://github.com/mikedh/trimesh
v -0.00609230 0.02251592 0.00542840
v -0.00642615 0.02246701 0.00542840
v -0.00575845 0.02250799 0.00542840
v -0.00609230 0.02230311 0.00040974
v -0.00642615 0.02229650 0.00040974
v -0.00666963 0.02233087 0.00542840
v -0.00664808 0.02224759 0.00040974
v -0.00541402 0.02238109 0.00542840
v -0.00555694 0.02223570 0.00040974
v -0.00575845 0.02228460 0.00040974
v -0.00671462 0.02224495 0.00542840
v -0.00676718 0.02203742 0.00040974
v -0.00527375 0.02203742 0.00542840
v -0.00551875 0.02212070 0.00040974
v -0.00678079 0.02203742 0.00542840
v -0.00676793 0.02203742 0.00055073
v -0.00680763 0.02189731 0.00040974
v -0.00686434 0.02170433 0.00055073
v -0.00527791 0.02170433 0.00542840
v -0.00549077 0.02170433 0.00040974
v -0.00549077 0.02184444 0.00040974
v -0.00549115 0.02203742 0.00040974
v -0.00681746 0.02190921 0.00542840
v -0.00686321 0.02170433 0.00040974
v -0.00686434 0.02170433 0.00542840
v -0.00688400 0.02159859 0.00040974
v -0.00691122 0.02145319 0.00055073
v -0.00696038 0.02119015 0.00542840
v -0.00527905 0.02167261 0.00542840
v -0.00552669 0.02151135 0.00040974
v -0.00530816 0.02103153 0.00542840
v -0.00535731 0.02070240 0.00542791
v -0.00565751 0.01903296 0.00542840
v -0.00694223 0.02128664 0.00040974
v -0.00711350 0.02036931 0.00055073
v -0.00707531 0.02057419 0.00542840
v -0.00623295 0.01772569 0.00040974
v -0.00535769 0.02070240 0.00542840
v -0.00780085 0.00935470 0.00542840
v -0.00780085 0.00935470 0.00040974
v -0.00773280 0.00968912 0.00040974
v -0.00758534 0.01047691 0.00040974
v -0.00801144 0.01555661 0.00040974
v -0.00854567 0.01269358 0.00055073
v -0.00854567 0.01269358 0.00542840
v -0.00788289 0.00913660 0.00542840
v -0.00788289 0.00913660 0.00040974
v -0.00869653 0.01188463 0.00040974
v -0.00898160 0.01035663 0.00040974
v -0.00904398 0.01002221 0.00040974
v -0.00892791 0.01064478 0.00542840
v -0.00809462 0.00904936 0.00542840
v -0.00797212 0.00909959 0.00040974
v -0.00907007 0.00988210 0.00040974
v -0.00904398 0.01002221 0.00542840
v -0.00900580 0.01022709 0.00542840
v -0.00822392 0.00903482 0.00542840
v -0.00823564 0.00903350 0.00040974
v -0.00809462 0.00904936 0.00040974
v -0.00910599 0.00968912 0.00040974
v -0.00910599 0.00968912 0.00542840
v -0.00842847 0.00901235 0.00542840
v -0.00842847 0.00901235 0.00040974
v -0.00911771 0.00955958 0.00542840
v -0.00913586 0.00935470 0.00040974
v -0.00876231 0.00901499 0.00542840
v -0.00876231 0.00901499 0.00040974
v -0.00913586 0.00935470 0.00542840
v -0.00903188 0.00910356 0.00040974
v -0.00887611 0.00905200 0.00040974
v -0.00903188 0.00910356 0.00542840
f 13 9 8
f 3 8 9
f 1 3 4
f 33 39 40
f 64 60 65
f 61 60 64
f 65 68 64
f 71 69 70
f 70 66 71
f 67 66 70
f 1 4 5
f 5 2 1
f 7 2 5
f 10 3 9
f 10 4 3
f 18 25 23
f 7 12 6
f 6 2 7
f 14 9 13
f 13 22 14
f 13 20 21
f 21 22 13
f 62 63 58
f 52 58 59
f 24 18 17
f 17 18 12
f 15 18 23
f 26 18 24
f 41 33 40
f 41 42 33
f 20 33 30
f 19 20 13
f 32 33 20
f 20 31 32
f 62 58 57
f 58 52 57
f 46 52 53
f 53 47 46
f 53 52 59
f 12 18 16
f 18 15 16
f 18 26 27
f 33 42 37
f 37 30 33
f 29 31 20
f 20 19 29
f 33 32 38
f 38 32 31
f 11 16 15
f 11 6 12
f 12 16 11
f 44 35 43
f 36 35 44
f 25 18 28
f 18 27 28
f 27 35 28
f 28 35 36
f 43 35 34
f 34 27 26
f 34 35 27
f 45 44 51
f 36 44 45
f 48 44 43
f 48 49 44
f 51 44 50
f 44 49 50
f 50 56 51
f 55 56 50
f 61 55 54
f 54 60 61
f 55 50 54
f 71 68 69
f 69 68 65
f 62 66 63
f 63 66 67
f 39 46 47
f 40 39 47
f 45 3 1
f 62 57 45
f 13 8 45
f 45 15 23
f 1 2 45
f 45 66 62
f 8 3 45
f 45 19 13
f 45 68 71
f 71 66 45
f 23 25 45
f 61 64 45
f 39 33 45
f 45 46 39
f 45 64 68
f 2 6 45
f 31 29 45
f 45 52 46
f 33 38 45
f 6 11 45
f 45 55 61
f 45 57 52
f 51 56 45
f 45 29 19
f 45 38 31
f 45 11 15
f 25 28 45
f 45 56 55
f 45 28 36
f 65 60 54
f 54 69 65
f 54 26 24
f 40 47 54
f 7 5 54
f 24 17 54
f 54 10 9
f 59 58 54
f 54 63 67
f 67 70 54
f 54 12 7
f 9 14 54
f 54 21 20
f 54 70 69
f 54 5 4
f 4 10 54
f 54 41 40
f 54 14 22
f 22 21 54
f 54 58 63
f 20 30 54
f 54 17 12
f 54 37 42
f 42 41 54
f 54 53 59
f 47 53 54
f 30 37 54
f 54 34 26
f 43 34 54
f 54 48 43
f 49 48 54
f 54 50 49

