# https://github.com/mikedh/trimesh
v -0.01011396 -0.00990123 -0.00169603
v -0.01009625 -0.01011982 0.00152529
v -0.01011297 -0.00990123 0.00179361
v -0.01011101 -0.00990123 -0.00196482
v -0.01004609 -0.01075343 -0.00169603
v -0.01004609 -0.01075343 0.00152529
v -0.01008543 -0.01025127 0.00179361
v -0.01011101 -0.00991896 0.00182363
v -0.01011199 -0.00990123 0.00182363
v -0.01010511 -0.00990123 -0.00221677
v -0.01010117 -0.00995884 -0.00221268
v -0.01009330 -0.01008585 -0.00210944
v -0.01004216 -0.01075343 -0.00196482
v -0.01002445 -0.01102224 -0.00169603
v -0.01000282 -0.01129104 0.00152529
v -0.01002347 -0.01102224 0.00182363
v -0.01006675 -0.01048463 0.00179361
v -0.01006871 -0.01045361 0.00182363
v -0.00351135 -0.00990123 0.00182363
v -0.01009625 -0.00990123 -0.00246373
v -0.01008642 -0.01000314 -0.00250148
v -0.01009035 -0.01005484 -0.00228863
v -0.01003429 -0.01075343 -0.00223315
v -0.00999691 -0.01129104 -0.00196482
v -0.01000183 -0.01129104 -0.00169603
v -0.01000282 -0.01129104 -0.00142770
v -0.00997823 -0.01155984 0.00152529
v -0.01000183 -0.01129104 0.00179361
v -0.01000380 -0.01126150 0.00182363
v -0.00342184 -0.00990123 -0.00282256
v -0.00207044 -0.01233376 0.00182363
v -0.01009035 -0.00990123 -0.00258379
v -0.01006871 -0.01021730 -0.00250148
v -0.00998905 -0.01129104 -0.00223315
v -0.00997134 -0.01155984 -0.00196482
v -0.00997626 -0.01155984 -0.00169603
v -0.00997823 -0.01155984 -0.00142770
v -0.00997626 -0.01155984 0.00179361
v -0.00986807 -0.01263358 0.00152529
v -0.00997528 -0.01155984 0.00182363
v -0.01007167 -0.00990123 -0.00282256
v -0.00207044 -0.01233376 -0.00223315
v -0.00029414 -0.01578834 -0.00282256
v -0.00011906 -0.01779108 0.00182363
v -0.01008052 -0.00990123 -0.00272296
v -0.00998216 -0.01102224 -0.00277026
v -0.01000085 -0.01102224 -0.00250148
v -0.00997724 -0.01129104 -0.00250148
v -0.00996249 -0.01155984 -0.00223315
v -0.00994380 -0.01182717 -0.00196482
v -0.00989463 -0.01236478 -0.00169603
v -0.00992217 -0.01209598 -0.00169603
v -0.00986807 -0.01263358 -0.00142770
v -0.00986610 -0.01263358 0.00179361
v -0.00982479 -0.01303974 0.00168310
v -0.00986512 -0.01263358 0.00182363
v -0.01007068 -0.00991305 -0.00282256
v -0.00027938 -0.01583117 -0.00282256
v -0.00011415 -0.01781471 0.00182363
v -0.00997724 -0.01102224 -0.00282256
v -0.00995757 -0.01129104 -0.00277026
v -0.01004511 -0.01021730 -0.00282256
v -0.00995069 -0.01155984 -0.00250148
v -0.00993495 -0.01182717 -0.00223315
v -0.00988774 -0.01236478 -0.00196482
v -0.00982283 -0.01302498 -0.00176607
v -0.00986610 -0.01263358 -0.00169603
v -0.00982479 -0.01303974 -0.00158688
v -0.00982381 -0.01302793 0.00182363
v -0.00973824 -0.01370732 0.00152529
v -0.00966841 -0.01424346 0.00152529
v -0.00966546 -0.01424346 0.00179361
v -0.00027545 -0.01585480 -0.00282256
v -0.00007874 -0.01800081 0.00182363
v -0.00995266 -0.01129104 -0.00282256
v -0.00994774 -0.01134273 -0.00282256
v -0.00993102 -0.01155984 -0.00277026
v -0.00989364 -0.01209598 -0.00250148
v -0.00982578 -0.01278423 -0.00239505
v -0.00984938 -0.01263358 -0.00223315
v -0.00985922 -0.01263358 -0.00196482
v -0.00980906 -0.01314608 -0.00168421
v -0.00983561 -0.01292159 -0.00168421
v -0.00983463 -0.01286103 -0.00196482
v -0.00981988 -0.01299544 -0.00196482
v -0.00979824 -0.01316972 -0.00196482
v -0.00970086 -0.01397613 -0.00169603
v -0.00973824 -0.01370732 -0.00142770
v -0.00966841 -0.01424346 -0.00142770
v -0.00973824 -0.01367779 0.00182363
v -0.00963300 -0.01451226 0.00152529
v -0.00962907 -0.01451226 0.00179361
v -0.00962808 -0.01451226 0.00182363
v -0.00963202 -0.01448272 0.00182363
v -0.00970283 -0.01394659 0.00182363
v -0.00006693 -0.01735538 -0.00282256
v -0.00007775 -0.01803034 0.00182363
v -0.00992610 -0.01155984 -0.00282256
v -0.00984151 -0.01237364 -0.00277663
v -0.00982971 -0.01255088 -0.00269158
v -0.00981988 -0.01273106 -0.00257424
v -0.00983561 -0.01263802 -0.00249147
v -0.00980709 -0.01288467 -0.00249147
v -0.00978742 -0.01316972 -0.00223315
v -0.00981496 -0.01294965 -0.00223315
v -0.00982971 -0.01281525 -0.00223315
v -0.00969201 -0.01397613 -0.00196482
v -0.00963005 -0.01451226 -0.00169603
v -0.00963300 -0.01451226 -0.00142770
v -0.00959267 -0.01478106 0.00152529
v -0.00958776 -0.01478106 0.00179361
v -0.00959169 -0.01475152 0.00182363
v -0.00006693 -0.02002274 -0.00282256
v -0.00007579 -0.01829915 0.00182363
v -0.00006693 -0.01736867 -0.00280392
v -0.00986709 -0.01209893 -0.00282256
v -0.00983168 -0.01241943 -0.00282256
v -0.00981594 -0.01255531 -0.00282256
v -0.00977660 -0.01290091 -0.00277026
v -0.00976971 -0.01316972 -0.00250148
v -0.00975201 -0.01343852 -0.00223315
v -0.00964382 -0.01424346 -0.00223315
v -0.00961923 -0.01451226 -0.00196482
v -0.00958874 -0.01478106 -0.00169603
v -0.00959267 -0.01478106 -0.00142770
v -0.00956317 -0.01495534 0.00152529
v -0.00958677 -0.01478254 0.00182363
v -0.00950120 -0.01531867 0.00152529
v -0.00949530 -0.01531867 0.00179361
v -0.00006693 -0.01980268 -0.00231137
v -0.00007874 -0.02444472 0.00182363
v -0.00007874 -0.02471352 0.00018273
v -0.00007874 -0.02471352 -0.00008560
v -0.00007874 -0.02444472 -0.00169603
v -0.00007874 -0.02417592 -0.00250148
v -0.00007874 -0.02390859 -0.00282256
v -0.00007579 -0.01853841 0.00182363
v -0.00006693 -0.01853841 -0.00182338
v -0.00006693 -0.01800228 -0.00199438
v -0.00980512 -0.01263654 -0.00282256
v -0.00976971 -0.01290091 -0.00282256
v -0.00970185 -0.01343852 -0.00277026
v -0.00955431 -0.01463337 -0.00261881
v -0.00965956 -0.01397613 -0.00250148
v -0.00973332 -0.01343852 -0.00250148
v -0.00960644 -0.01451226 -0.00223315
v -0.00957202 -0.01473823 -0.00223315
v -0.00957497 -0.01479879 -0.00195754
v -0.00955727 -0.01492433 -0.00186340
v -0.00949629 -0.01531867 -0.00169603
v -0.00945498 -0.01558600 -0.00142770
v -0.00940285 -0.01585480 0.00179361
v -0.00940678 -0.01582526 0.00182363
v -0.00936252 -0.01612361 -0.00142770
v -0.00936252 -0.01612361 0.00152529
v -0.00006693 -0.01953978 -0.00203758
v -0.00012005 -0.02465740 0.00182363
v -0.00010136 -0.02471352 0.00125650
v -0.00008759 -0.02471352 0.00098817
v -0.00008169 -0.02471352 0.00071984
v -0.00007972 -0.02471352 0.00045106
v -0.00006693 -0.01867872 -0.00182383
v -0.00012005 -0.02489814 0.00018273
v -0.00012005 -0.02489814 -0.00008560
v -0.00008070 -0.02471352 -0.00035439
v -0.00008070 -0.02444472 -0.00196482
v -0.00008464 -0.02417592 -0.00277026
v -0.00008366 -0.02412422 -0.00282256
v -0.00973234 -0.01316972 -0.00282256
v -0.00958382 -0.01426413 -0.00279073
v -0.00956710 -0.01445466 -0.00271478
v -0.00956415 -0.01469540 -0.00244008
v -0.00957989 -0.01453146 -0.00251830
v -0.00962218 -0.01424346 -0.00250148
v -0.00954841 -0.01448124 -0.00282256
v -0.00954546 -0.01453146 -0.00279073
v -0.00949727 -0.01478106 -0.00282256
v -0.00950514 -0.01478106 -0.00277026
v -0.00928974 -0.01626835 -0.00238277
v -0.00951792 -0.01504987 -0.00223315
v -0.00948448 -0.01531867 -0.00196482
v -0.00940383 -0.01585480 -0.00169603
v -0.00935564 -0.01612361 0.00179361
v -0.00935465 -0.01612361 0.00182363
v -0.00931334 -0.01637469 -0.00142770
v -0.00935662 -0.01612361 -0.00169603
v -0.00931334 -0.01637469 0.00152529
v -0.00027545 -0.02475488 0.00182363
v -0.00015349 -0.02485236 0.00142250
v -0.00014169 -0.02486417 0.00125650
v -0.00012890 -0.02488042 0.00098817
v -0.00012300 -0.02488928 0.00071984
v -0.00012103 -0.02489371 0.00045106
v -0.00029414 -0.02496903 0.00018273
v -0.00029414 -0.02496903 -0.00008560
v -0.00012103 -0.02489371 -0.00035439
v -0.00008267 -0.02471352 -0.00062226
v -0.00008956 -0.02471352 -0.00089059
v -0.00012103 -0.02463377 -0.00196482
v -0.00009743 -0.02444472 -0.00223315
v -0.00009054 -0.02417739 -0.00282256
v -0.00012496 -0.02436053 -0.00277026
v -0.00012300 -0.02432656 -0.00282256
v -0.00957497 -0.01429663 -0.00282256
v -0.00947071 -0.01531867 -0.00223315
v -0.00953464 -0.01456395 -0.00282256
v -0.00928482 -0.01591536 -0.00282256
v -0.00919925 -0.01639241 -0.00277026
v -0.00913729 -0.01665974 -0.00277026
v -0.00917860 -0.01665974 -0.00250148
v -0.00902516 -0.01735686 -0.00240779
v -0.00903500 -0.01739821 -0.00223315
v -0.00904582 -0.01744547 -0.00196482
v -0.00926417 -0.01642490 -0.00223315
v -0.00929466 -0.01629198 -0.00223315
v -0.00932711 -0.01612361 -0.00223315
v -0.00937531 -0.01585480 -0.00223315
v -0.00925826 -0.01611031 -0.00275980
v -0.00930941 -0.01635696 0.00179361
v -0.00930941 -0.01635253 0.00182363
v -0.00930941 -0.01635696 -0.00169603
v -0.00928384 -0.01650909 -0.00142770
v -0.00928482 -0.01651204 -0.00089059
v -0.00939006 -0.01585480 -0.00196482
v -0.00934187 -0.01612361 -0.00196482
v -0.00930252 -0.01632595 -0.00196482
v -0.00928482 -0.01651204 0.00098817
v -0.00928384 -0.01650909 0.00152529
v -0.00029414 -0.02476226 0.00182363
v -0.00029414 -0.02482577 0.00159214
v -0.00029414 -0.02485974 0.00145798
v -0.00029414 -0.02488928 0.00125650
v -0.00029414 -0.02492473 0.00098817
v -0.00029414 -0.02494688 0.00071984
v -0.00029414 -0.02496017 0.00045106
v -0.00056265 -0.02498971 0.00018273
v -0.00056265 -0.02498971 -0.00008560
v -0.00029414 -0.02496017 -0.00035439
v -0.00012300 -0.02488928 -0.00062226
v -0.00012988 -0.02487894 -0.00089059
v -0.00013775 -0.02460423 -0.00223315
v -0.00014464 -0.02486270 -0.00115937
v -0.00015644 -0.02485088 -0.00131673
v -0.00012988 -0.02435167 -0.00282256
v -0.00927302 -0.01597739 -0.00282256
v -0.00918942 -0.01639241 -0.00282256
v -0.00924646 -0.01611327 -0.00282256
v -0.00911467 -0.01671291 -0.00282256
v -0.00905172 -0.01698171 -0.00282256
v -0.00906254 -0.01695513 -0.00279618
v -0.00904778 -0.01720621 -0.00249920
v -0.00901139 -0.01730073 -0.00258698
v -0.00898680 -0.01745286 -0.00249920
v -0.00891500 -0.01773348 -0.00250148
v -0.00895336 -0.01773348 -0.00223315
v -0.00897697 -0.01773348 -0.00196482
v -0.00901434 -0.01757840 -0.00196482
v -0.00902418 -0.01762123 -0.00164737
v -0.00911958 -0.01719735 -0.00169603
v -0.00922679 -0.01665974 -0.00196482
v -0.00927203 -0.01646035 -0.00196482
v -0.00912844 -0.01719735 0.00152529
v -0.00902418 -0.01762123 0.00173858
v -0.00904975 -0.01748831 0.00182363
v -0.00927990 -0.01649137 -0.00169603
v -0.00912844 -0.01719735 -0.00142770
v -0.00913040 -0.01719735 -0.00115937
v -0.00919335 -0.01692854 -0.00062226
v -0.00919433 -0.01692854 -0.00035439
v -0.00919433 -0.01692854 0.00045106
v -0.00919335 -0.01692854 0.00071984
v -0.00913040 -0.01719735 0.00125650
v -0.00053314 -0.02478737 0.00182363
v -0.00056265 -0.02479032 0.00182363
v -0.00056265 -0.02486417 0.00147890
v -0.00056265 -0.02489962 0.00125650
v -0.00056265 -0.02479771 0.00179361
v -0.00056265 -0.02483906 0.00161352
v -0.00056265 -0.02493654 0.00098817
v -0.00056265 -0.02496461 0.00071984
v -0.00056265 -0.02498085 0.00045106
v -0.00083116 -0.02497937 0.00045106
v -0.00083116 -0.02498381 0.00018273
v -0.00083116 -0.02498381 -0.00008560
v -0.00083116 -0.02497790 -0.00035439
v -0.00056265 -0.02498085 -0.00035439
v -0.00029414 -0.02494688 -0.00062226
v -0.00015545 -0.02458355 -0.00237823
v -0.00029414 -0.02492325 -0.00089059
v -0.00029414 -0.02488633 -0.00115937
v -0.00029414 -0.02485826 -0.00135357
v -0.00029414 -0.02482577 -0.00148774
v -0.00029414 -0.02470909 -0.00196482
v -0.00029414 -0.02441518 -0.00282256
v -0.00900451 -0.01717076 -0.00282256
v -0.00900057 -0.01720621 -0.00279618
v -0.00893763 -0.01746467 -0.00277026
v -0.00886681 -0.01773348 -0.00277026
v -0.00883829 -0.01800081 -0.00250148
v -0.00887960 -0.01800081 -0.00223315
v -0.00890517 -0.01800081 -0.00196482
v -0.00899566 -0.01772019 -0.00172059
v -0.00892287 -0.01800081 -0.00169603
v -0.00899566 -0.01777040 -0.00142770
v -0.00902811 -0.01763600 -0.00142770
v -0.00906745 -0.01746467 -0.00142770
v -0.00906745 -0.01746467 0.00152529
v -0.00902811 -0.01763600 0.00152529
v -0.00899566 -0.01777040 0.00152529
v -0.00899566 -0.01771871 0.00181454
v -0.00899762 -0.01770837 0.00182363
v -0.00902123 -0.01760941 0.00182363
v -0.00913335 -0.01719735 -0.00035439
v -0.00906942 -0.01746467 -0.00115937
v -0.00913335 -0.01719735 0.00045106
v -0.00913237 -0.01719735 0.00071984
v -0.00906942 -0.01746467 0.00125650
v -0.00083116 -0.02479032 0.00182363
v -0.00083116 -0.02486565 0.00147844
v -0.00083116 -0.02490110 0.00125650
v -0.00083116 -0.02479771 0.00179361
v -0.00109967 -0.02479623 0.00179361
v -0.00083116 -0.02483759 0.00161261
v -0.00083116 -0.02493507 0.00098817
v -0.00083116 -0.02496313 0.00071984
v -0.00136818 -0.02496313 0.00045106
v -0.00163669 -0.02496165 0.00018273
v -0.00136818 -0.02495131 0.00071984
v -0.00163669 -0.02496165 -0.00008560
v -0.00083116 -0.02496313 -0.00062226
v -0.00136818 -0.02496313 -0.00035439
v -0.00136818 -0.02495131 -0.00062226
v -0.00056265 -0.02496461 -0.00062226
v -0.00029414 -0.02464115 -0.00223315
v -0.00029414 -0.02458946 -0.00239687
v -0.00056265 -0.02493654 -0.00089059
v -0.00056265 -0.02489814 -0.00115937
v -0.00056265 -0.02486417 -0.00137995
v -0.00056265 -0.02483906 -0.00151411
v -0.00056265 -0.02479771 -0.00169603
v -0.00056265 -0.02473125 -0.00196482
v -0.00056265 -0.02445801 -0.00277026
v -0.00056265 -0.02443586 -0.00282256
v -0.00884025 -0.01778517 -0.00282256
v -0.00875960 -0.01807022 -0.00282256
v -0.00878714 -0.01801114 -0.00276844
v -0.00875862 -0.01816179 -0.00267794
v -0.00877436 -0.01821201 -0.00250148
v -0.00874682 -0.01839072 -0.00233866
v -0.00875960 -0.01843355 -0.00215992
v -0.00882648 -0.01826961 -0.00196482
v -0.00868682 -0.01880722 -0.00169603
v -0.00862190 -0.01907602 -0.00142770
v -0.00874485 -0.01865214 -0.00142770
v -0.00893271 -0.01800081 -0.00142770
v -0.00899566 -0.01777483 -0.00115937
v -0.00902910 -0.01764043 -0.00115937
v -0.00893467 -0.01800081 -0.00115937
v -0.00902910 -0.01764043 0.00125650
v -0.00899664 -0.01777483 0.00125650
v -0.00893664 -0.01800081 0.00125650
v -0.00893271 -0.01800081 0.00152529
v -0.00892189 -0.01800081 0.00179361
v -0.00899467 -0.01772019 0.00182363
v -0.00907139 -0.01746467 -0.00062226
v -0.00907139 -0.01746467 0.00071984
v -0.00109967 -0.02478885 0.00182363
v -0.00109967 -0.02483611 0.00160215
v -0.00109967 -0.02486270 0.00146798
v -0.00109967 -0.02489814 0.00125650
v -0.00136818 -0.02479180 0.00179361
v -0.00109967 -0.02493211 0.00098817
v -0.00136818 -0.02492768 0.00098817
v -0.00163669 -0.02495427 0.00045106
v -0.00190520 -0.02493950 0.00045106
v -0.00190520 -0.02494541 0.00018273
v -0.00163669 -0.02494097 0.00071984
v -0.00190520 -0.02494541 -0.00008560
v -0.00190520 -0.02493950 -0.00035439
v -0.00163669 -0.02495427 -0.00035439
v -0.00136818 -0.02492768 -0.00089059
v -0.00109967 -0.02493211 -0.00089059
v -0.00083116 -0.02493507 -0.00089059
v -0.00163669 -0.02494097 -0.00062226
v -0.00056265 -0.02465297 -0.00223315
v -0.00056265 -0.02459389 -0.00240779
v -0.00056265 -0.02454515 -0.00254241
v -0.00083116 -0.02490110 -0.00115937
v -0.00083116 -0.02486565 -0.00138040
v -0.00083116 -0.02483759 -0.00151457
v -0.00083116 -0.02479771 -0.00169603
v -0.00083116 -0.02473272 -0.00196482
v -0.00083116 -0.02445801 -0.00277026
v -0.00109967 -0.02454811 -0.00254286
v -0.00089214 -0.02443438 -0.00282256
v -0.00872911 -0.01816622 -0.00282256
v -0.00859043 -0.01880722 -0.00250148
v -0.00873305 -0.01834641 -0.00250148
v -0.00855207 -0.01907602 -0.00223315
v -0.00863469 -0.01880722 -0.00223315
v -0.00876845 -0.01846457 -0.00196482
v -0.00858551 -0.01907602 -0.00196482
v -0.00866616 -0.01880722 -0.00196482
v -0.00860617 -0.01907602 -0.00169603
v -0.00862682 -0.01907602 -0.00115937
v -0.00854027 -0.01934335 -0.00142770
v -0.00854715 -0.01934335 -0.00115937
v -0.00863076 -0.01907602 -0.00062226
v -0.00863371 -0.01907602 -0.00008560
v -0.00871042 -0.01880722 -0.00008560
v -0.00871141 -0.01880722 0.00018273
v -0.00874977 -0.01866986 0.00018273
v -0.00878714 -0.01853694 0.00045106
v -0.00871141 -0.01880722 0.00045106
v -0.00874977 -0.01866838 0.00071984
v -0.00874780 -0.01866248 0.00125650
v -0.00862879 -0.01907602 0.00125650
v -0.00874485 -0.01865214 0.00152529
v -0.00869960 -0.01880722 0.00152529
v -0.00862092 -0.01907602 0.00152529
v -0.00860420 -0.01907602 0.00179361
v -0.00891992 -0.01800081 0.00182363
v -0.00136818 -0.02478442 0.00182363
v -0.00136818 -0.02485826 0.00144933
v -0.00136818 -0.02489223 0.00125650
v -0.00136818 -0.02483316 0.00158350
v -0.00163669 -0.02483020 0.00156212
v -0.00163669 -0.02478294 0.00179361
v -0.00163669 -0.02491734 0.00098817
v -0.00190520 -0.02492473 0.00071984
v -0.00217371 -0.02490553 0.00071984
v -0.00217371 -0.02491882 0.00045106
v -0.00217371 -0.02492325 0.00018273
v -0.00217371 -0.02492177 -0.00008560
v -0.00244222 -0.02489519 -0.00035439
v -0.00217371 -0.02490700 -0.00062226
v -0.00190520 -0.02492620 -0.00062226
v -0.00244222 -0.02488633 -0.00062226
v -0.00163669 -0.02491734 -0.00089059
v -0.00136818 -0.02489223 -0.00115937
v -0.00109967 -0.02489814 -0.00115937
v -0.00083116 -0.02465297 -0.00223315
v -0.00083116 -0.02459389 -0.00240824
v -0.00109967 -0.02486417 -0.00137267
v -0.00109967 -0.02483611 -0.00150684
v -0.00109967 -0.02479623 -0.00169603
v -0.00109967 -0.02473125 -0.00196482
v -0.00109967 -0.02445654 -0.00277026
v -0.00116163 -0.02443290 -0.00282256
v -0.00136818 -0.02459094 -0.00240415
v -0.00136818 -0.02454515 -0.00253831
v -0.00136818 -0.02445210 -0.00277026
v -0.00109967 -0.02465149 -0.00223315
v -0.00850093 -0.01886334 -0.00282256
v -0.00852847 -0.01881608 -0.00277617
v -0.00849601 -0.01898150 -0.00269067
v -0.00850978 -0.01907307 -0.00247919
v -0.00849601 -0.01925326 -0.00223315
v -0.00851371 -0.01930790 -0.00196482
v -0.00851765 -0.01936255 -0.00169148
v -0.00848519 -0.01948661 -0.00159916
v -0.00849011 -0.01949991 -0.00142770
v -0.00849306 -0.01951172 -0.00115937
v -0.00849404 -0.01951320 -0.00089059
v -0.00855010 -0.01934335 -0.00035439
v -0.00863469 -0.01907602 0.00018273
v -0.00863371 -0.01907602 0.00045106
v -0.00863076 -0.01907602 0.00098817
v -0.00854715 -0.01934335 0.00125650
v -0.00853929 -0.01934335 0.00152529
v -0.00860223 -0.01907602 0.00182363
v -0.00851666 -0.01935516 0.00182363
v -0.00163669 -0.02477556 0.00182363
v -0.00163669 -0.02485383 0.00142796
v -0.00183734 -0.02485088 0.00140795
v -0.00163669 -0.02488190 0.00125650
v -0.00191799 -0.02482873 0.00150846
v -0.00187569 -0.02476374 0.00182363
v -0.00190520 -0.02476965 0.00179361
v -0.00191799 -0.02486565 0.00127924
v -0.00217371 -0.02485974 0.00121239
v -0.00217371 -0.02488485 0.00098817
v -0.00244222 -0.02488485 0.00071984
v -0.00244222 -0.02489667 0.00045106
v -0.00244222 -0.02489667 -0.00008560
v -0.00271073 -0.02487008 0.00018273
v -0.00271073 -0.02486860 -0.00008560
v -0.00273631 -0.02486270 -0.00037394
v -0.00268024 -0.02486122 -0.00062226
v -0.00217371 -0.02488485 -0.00089059
v -0.00190520 -0.02490257 -0.00089059
v -0.00262713 -0.02485383 -0.00081236
v -0.00244714 -0.02486270 -0.00089741
v -0.00191504 -0.02486565 -0.00118075
v -0.00136818 -0.02485974 -0.00135448
v -0.00183242 -0.02485088 -0.00130855
v -0.00136818 -0.02483463 -0.00148865
v -0.00136818 -0.02479180 -0.00169603
v -0.00136818 -0.02472682 -0.00196482
v -0.00136818 -0.02442847 -0.00282256
v -0.00163669 -0.02458798 -0.00239369
v -0.00136818 -0.02464706 -0.00223315
v -0.00163669 -0.02453924 -0.00252785
v -0.00163669 -0.02444177 -0.00277026
v -0.00163669 -0.02441961 -0.00282256
v -0.00143211 -0.02442700 -0.00282256
v -0.00845568 -0.01899331 -0.00282256
v -0.00843896 -0.01907307 -0.00277617
v -0.00821865 -0.01975985 -0.00265247
v -0.00846355 -0.01916021 -0.00255378
v -0.00848322 -0.01921338 -0.00237459
v -0.00844978 -0.01938766 -0.00223315
v -0.00847044 -0.01944230 -0.00196482
v -0.00847830 -0.01946594 -0.00177790
v -0.00844388 -0.01963431 -0.00142770
v -0.00833864 -0.01988096 -0.00169603
v -0.00835831 -0.01988096 -0.00142770
v -0.00836716 -0.01988096 -0.00115937
v -0.00844781 -0.01964612 -0.00115937
v -0.00849404 -0.01951467 -0.00062226
v -0.00844880 -0.01964760 -0.00089059
v -0.00837306 -0.01988096 -0.00035439
v -0.00837405 -0.01988096 -0.00008560
v -0.00855010 -0.01934335 0.00045106
v -0.00854912 -0.01934335 0.00071984
v -0.00849404 -0.01951320 0.00098817
v -0.00849306 -0.01951172 0.00125650
v -0.00848912 -0.01949991 0.00152529
v -0.00848421 -0.01948514 0.00169265
v -0.00849994 -0.01940686 0.00182363
v -0.00201634 -0.02484645 0.00138384
v -0.00217371 -0.02480953 0.00152529
v -0.00190520 -0.02476226 0.00182363
v -0.00217371 -0.02475192 0.00179361
v -0.00236452 -0.02485383 0.00116008
v -0.00244911 -0.02486270 0.00099727
v -0.00262320 -0.02485383 0.00091404
v -0.00267631 -0.02486122 0.00071984
v -0.00273532 -0.02486417 0.00047061
v -0.00287400 -0.02485236 0.00018273
v -0.00287105 -0.02485088 -0.00008560
v -0.00285827 -0.02484940 -0.00029708
v -0.00284253 -0.02484793 -0.00047627
v -0.00281401 -0.02484350 -0.00062226
v -0.00297924 -0.02480214 -0.00089059
v -0.00236059 -0.02485383 -0.00106296
v -0.00217371 -0.02485974 -0.00111435
v -0.00271467 -0.02483463 -0.00089741
v -0.00253959 -0.02484350 -0.00099110
v -0.00201142 -0.02484645 -0.00128490
v -0.00163669 -0.02483020 -0.00146409
v -0.00191504 -0.02482873 -0.00140997
v -0.00163669 -0.02478294 -0.00169603
v -0.00163669 -0.02471648 -0.00196482
v -0.00163669 -0.02463820 -0.00223315
v -0.00184520 -0.02458355 -0.00238050
v -0.00192290 -0.02454072 -0.00248237
v -0.00190520 -0.02442847 -0.00277026
v -0.00190520 -0.02440632 -0.00282256
v -0.00830422 -0.01939504 -0.00282256
v -0.00819701 -0.01967714 -0.00282256
v -0.00814685 -0.01986176 -0.00275298
v -0.00796882 -0.02033733 -0.00270204
v -0.00810357 -0.02014976 -0.00250148
v -0.00818521 -0.01994003 -0.00250148
v -0.00823537 -0.01980711 -0.00250148
v -0.00830815 -0.01961215 -0.00250148
v -0.00842126 -0.01931972 -0.00247919
v -0.00836716 -0.01961215 -0.00223315
v -0.00822455 -0.02004194 -0.00214855
v -0.00840946 -0.01961215 -0.00196482
v -0.00831110 -0.01988096 -0.00196482
v -0.00825209 -0.02011727 -0.00169603
v -0.00825405 -0.02016896 -0.00141815
v -0.00821570 -0.02028859 -0.00132265
v -0.00827077 -0.02014976 -0.00115937
v -0.00827963 -0.02014976 -0.00008560
v -0.00849404 -0.01951467 0.00071984
v -0.00837405 -0.01988096 0.00018273
v -0.00844880 -0.01964760 0.00098817
v -0.00837306 -0.01988096 0.00045106
v -0.00844781 -0.01964612 0.00125650
v -0.00836716 -0.01988096 0.00125650
v -0.00844290 -0.01963431 0.00152529
v -0.00845667 -0.01953535 0.00182363
v -0.00847929 -0.01947037 0.00182363
v -0.00835733 -0.01988096 0.00152529
v -0.00217371 -0.02484054 0.00134655
v -0.00244222 -0.02473272 0.00179361
v -0.00244222 -0.02478737 0.00152529
v -0.00217371 -0.02474454 0.00182363
v -0.00244911 -0.02483168 0.00125241
v -0.00254353 -0.02484497 0.00109277
v -0.00271172 -0.02483463 0.00099727
v -0.00297924 -0.02480214 0.00098817
v -0.00281106 -0.02484350 0.00071984
v -0.00284155 -0.02484793 0.00057294
v -0.00286220 -0.02485088 0.00039421
v -0.00300777 -0.02483316 0.00018273
v -0.00300482 -0.02483168 -0.00008560
v -0.00324775 -0.02479032 -0.00035439
v -0.00324775 -0.02478146 -0.00062226
v -0.00297924 -0.02482134 -0.00062226
v -0.00324775 -0.02476374 -0.00089059
v -0.00297924 -0.02477260 -0.00115937
v -0.00271073 -0.02480214 -0.00115937
v -0.00271073 -0.02476079 -0.00142770
v -0.00244222 -0.02478589 -0.00142770
v -0.00217371 -0.02484054 -0.00124851
v -0.00217371 -0.02480953 -0.00142770
v -0.00190520 -0.02476965 -0.00169603
v -0.00190520 -0.02470171 -0.00196482
v -0.00192290 -0.02461604 -0.00225816
v -0.00202421 -0.02457764 -0.00236413
v -0.00217371 -0.02451561 -0.00250148
v -0.00217371 -0.02441075 -0.00277026
v -0.00217371 -0.02438860 -0.00282256
v -0.00818521 -0.01970668 -0.00282256
v -0.00801407 -0.02016453 -0.00278299
v -0.00798259 -0.02020441 -0.00282256
v -0.00791374 -0.02035949 -0.00282256
v -0.00789899 -0.02042300 -0.00278299
v -0.00792850 -0.02051604 -0.00257515
v -0.00799144 -0.02042300 -0.00249193
v -0.00795309 -0.02056921 -0.00239642
v -0.00805341 -0.02041709 -0.00223315
v -0.00816750 -0.02013942 -0.00223588
v -0.00820488 -0.01999173 -0.00232774
v -0.00810160 -0.02041709 -0.00196482
v -0.00818619 -0.02021327 -0.00196482
v -0.00823832 -0.02007887 -0.00196482
v -0.00820094 -0.02025167 -0.00169603
v -0.00820881 -0.02027235 -0.00150138
v -0.00821668 -0.02029303 -0.00115937
v -0.00804947 -0.02068589 -0.00142770
v -0.00806226 -0.02068589 -0.00115937
v -0.00816455 -0.02042743 -0.00115937
v -0.00817144 -0.02043924 -0.00008560
v -0.00827963 -0.02014976 0.00018273
v -0.00837110 -0.01988096 0.00071984
v -0.00827077 -0.02014976 0.00125650
v -0.00821570 -0.02028859 0.00141795
v -0.00834454 -0.01985142 0.00182363
v -0.00833667 -0.01988096 0.00179361
v -0.00825405 -0.02016896 0.00151437
v -0.00244222 -0.02472534 0.00182363
v -0.00268123 -0.02470319 0.00182363
v -0.00271073 -0.02470762 0.00179361
v -0.00271073 -0.02476079 0.00152529
v -0.00271073 -0.02480362 0.00125650
v -0.00297924 -0.02477408 0.00125650
v -0.00297924 -0.02481986 0.00071984
v -0.00324775 -0.02476374 0.00098817
v -0.00324775 -0.02478146 0.00071984
v -0.00324775 -0.02479180 0.00045106
v -0.00324775 -0.02479623 0.00018273
v -0.00324775 -0.02479476 -0.00008560
v -0.00351627 -0.02474159 -0.00035439
v -0.00351627 -0.02473272 -0.00062226
v -0.00351627 -0.02471352 -0.00089059
v -0.00324775 -0.02473420 -0.00115937
v -0.00297924 -0.02473125 -0.00142770
v -0.00271073 -0.02470762 -0.00169603
v -0.00244222 -0.02473125 -0.00169603
v -0.00217371 -0.02475192 -0.00169603
v -0.00217371 -0.02468546 -0.00196482
v -0.00217371 -0.02461457 -0.00221086
v -0.00217371 -0.02457174 -0.00234503
v -0.00244222 -0.02449051 -0.00250148
v -0.00246484 -0.02437087 -0.00279573
v -0.00244911 -0.02436053 -0.00282256
v -0.00800620 -0.02014828 -0.00282256
v -0.00773080 -0.02074054 -0.00282256
v -0.00776031 -0.02070657 -0.00278891
v -0.00770621 -0.02087642 -0.00271159
v -0.00787932 -0.02066965 -0.00249193
v -0.00773572 -0.02096208 -0.00249738
v -0.00781145 -0.02095470 -0.00223315
v -0.00791178 -0.02074497 -0.00223315
v -0.00797079 -0.02061057 -0.00223315
v -0.00793341 -0.02079223 -0.00203122
v -0.00798751 -0.02069623 -0.00195072
v -0.00794915 -0.02082916 -0.00185203
v -0.00813406 -0.02041709 -0.00169603
v -0.00802489 -0.02068589 -0.00169603
v -0.00797079 -0.02087642 -0.00142770
v -0.00797767 -0.02089119 -0.00115937
v -0.00807111 -0.02068589 -0.00008560
v -0.00807210 -0.02068589 0.00018273
v -0.00817144 -0.02043924 0.00018273
v -0.00821668 -0.02029303 0.00125650
v -0.00820881 -0.02027087 0.00159714
v -0.00816455 -0.02042743 0.00125650
v -0.00806226 -0.02068589 0.00125650
v -0.00804849 -0.02068589 0.00152529
v -0.00825209 -0.02011432 0.00179361
v -0.00825012 -0.02011136 0.00182363
v -0.00271073 -0.02470023 0.00182363
v -0.00297924 -0.02467512 0.00179361
v -0.00297924 -0.02473125 0.00152529
v -0.00324775 -0.02473420 0.00125650
v -0.00351627 -0.02471352 0.00098817
v -0.00351627 -0.02473272 0.00071984
v -0.00351627 -0.02474159 0.00045106
v -0.00351627 -0.02474749 0.00018273
v -0.00351627 -0.02474602 -0.00008560
v -0.00378478 -0.02468842 -0.00008560
v -0.00378478 -0.02468251 -0.00035439
v -0.00378478 -0.02467217 -0.00062226
v -0.00401690 -0.02460275 -0.00089059
v -0.00378478 -0.02465445 -0.00089059
v -0.00396083 -0.02458946 -0.00115937
v -0.00378478 -0.02462786 -0.00115937
v -0.00351627 -0.02468251 -0.00115937
v -0.00351627 -0.02464263 -0.00142770
v -0.00324775 -0.02469137 -0.00142770
v -0.00297924 -0.02467512 -0.00169603
v -0.00295662 -0.02460571 -0.00196982
v -0.00271073 -0.02463672 -0.00196482
v -0.00244222 -0.02466478 -0.00196482
v -0.00244222 -0.02460423 -0.00217220
v -0.00244222 -0.02455844 -0.00230637
v -0.00271073 -0.02446097 -0.00250148
v -0.00271073 -0.02454515 -0.00226134
v -0.00271073 -0.02436201 -0.00274616
v -0.00254156 -0.02434872 -0.00282256
v -0.00764425 -0.02091187 -0.00282256
v -0.00763146 -0.02096208 -0.00278891
v -0.00765900 -0.02105513 -0.00258379
v -0.00768851 -0.02111273 -0.00240506
v -0.00771015 -0.02115556 -0.00223315
v -0.00768458 -0.02137415 -0.00186476
v -0.00788129 -0.02093254 -0.00195072
v -0.00777998 -0.02122350 -0.00169603
v -0.00789506 -0.02098128 -0.00169603
v -0.00795702 -0.02084688 -0.00169603
v -0.00790883 -0.02101082 -0.00142770
v -0.00797964 -0.02090005 0.00018273
v -0.00791571 -0.02102559 -0.00115937
v -0.00766490 -0.02160012 -0.00008560
v -0.00772588 -0.02146572 -0.00008560
v -0.00783703 -0.02122350 0.00018273
v -0.00797964 -0.02089710 0.00071984
v -0.00797866 -0.02089710 0.00098817
v -0.00819897 -0.02024576 0.00182363
v -0.00797767 -0.02089267 0.00125650
v -0.00796981 -0.02087642 0.00152529
v -0.00795702 -0.02084688 0.00179361
v -0.00802292 -0.02068589 0.00179361
v -0.00297728 -0.02466774 0.00182363
v -0.00324775 -0.02462786 0.00182363
v -0.00324775 -0.02469137 0.00152529
v -0.00351627 -0.02464263 0.00152529
v -0.00351627 -0.02468251 0.00125650
v -0.00392444 -0.02458060 0.00140022
v -0.00395985 -0.02458946 0.00125650
v -0.00378478 -0.02465445 0.00098817
v -0.00401591 -0.02460275 0.00098817
v -0.00378478 -0.02467217 0.00071984
v -0.00378478 -0.02468251 0.00045106
v -0.00378478 -0.02468842 0.00018273
v -0.00405329 -0.02462491 -0.00008560
v -0.00405329 -0.02461900 -0.00035439
v -0.00407493 -0.02460571 -0.00061999
v -0.00417820 -0.02457764 -0.00070776
v -0.00415066 -0.02457026 -0.00089059
v -0.00409460 -0.02455549 -0.00115937
v -0.00392444 -0.02458060 -0.00130263
v -0.00377297 -0.02459537 -0.00140633
v -0.00367659 -0.02458355 -0.00158688
v -0.00356741 -0.02456583 -0.00176562
v -0.00324775 -0.02463377 -0.00169603
v -0.00338840 -0.02458060 -0.00183429
v -0.00324775 -0.02459094 -0.00187340
v -0.00324775 -0.02455401 -0.00200757
v -0.00303137 -0.02456878 -0.00206260
v -0.00285237 -0.02458060 -0.00210171
v -0.00295662 -0.02453334 -0.00220813
v -0.00297924 -0.02442552 -0.00250148
v -0.00297924 -0.02434133 -0.00270295
v -0.00293498 -0.02429407 -0.00282256
v -0.00271073 -0.02432656 -0.00282256
v -0.00744065 -0.02128406 -0.00282256
v -0.00748590 -0.02123532 -0.00277617
v -0.00741606 -0.02163852 -0.00238778
v -0.00753508 -0.02149230 -0.00223315
v -0.00764130 -0.02128849 -0.00223315
v -0.00766392 -0.02133279 -0.00204395
v -0.00761081 -0.02147458 -0.00195845
v -0.00746918 -0.02172714 -0.00196482
v -0.00762851 -0.02153071 -0.00169603
v -0.00769638 -0.02139630 -0.00169603
v -0.00780752 -0.02122350 -0.00142770
v -0.00771015 -0.02142732 -0.00142770
v -0.00765408 -0.02158092 -0.00115937
v -0.00771802 -0.02144652 -0.00115937
v -0.00782326 -0.02122350 -0.00115937
v -0.00792063 -0.02103298 0.00045106
v -0.00766097 -0.02159126 -0.00062226
v -0.00766294 -0.02159569 -0.00035439
v -0.00757934 -0.02175963 -0.00008560
v -0.00766490 -0.02160160 0.00018273
v -0.00772687 -0.02146720 0.00018273
v -0.00783604 -0.02122350 0.00045106
v -0.00791866 -0.02103002 0.00098817
v -0.00803177 -0.02065635 0.00182363
v -0.00791669 -0.02102707 0.00125650
v -0.00790784 -0.02101082 0.00152529
v -0.00795505 -0.02084245 0.00182363
v -0.00789407 -0.02098128 0.00179361
v -0.00789309 -0.02097537 0.00182363
v -0.00353102 -0.02458060 0.00182363
v -0.00359200 -0.02457026 0.00182363
v -0.00367659 -0.02458503 0.00168446
v -0.00377297 -0.02459537 0.00150391
v -0.00385559 -0.02456583 0.00157941
v -0.00402968 -0.02453629 0.00150391
v -0.00409460 -0.02455549 0.00125650
v -0.00415066 -0.02457026 0.00098817
v -0.00417820 -0.02457764 0.00080489
v -0.00407493 -0.02460571 0.00071711
v -0.00405329 -0.02461900 0.00045106
v -0.00405329 -0.02462491 0.00018273
v -0.00420672 -0.02458503 0.00018273
v -0.00420574 -0.02458503 -0.00008560
v -0.00419885 -0.02458355 -0.00035439
v -0.00419197 -0.02458060 -0.00052857
v -0.00429721 -0.02454072 -0.00061999
v -0.00459031 -0.02444029 -0.00062226
v -0.00459031 -0.02442700 -0.00089059
v -0.00432180 -0.02451709 -0.00089059
v -0.00432180 -0.02448903 -0.00115937
v -0.00432180 -0.02444767 -0.00142770
v -0.00402968 -0.02453481 -0.00140633
v -0.00385559 -0.02456583 -0.00148182
v -0.00377297 -0.02454220 -0.00168421
v -0.00378478 -0.02446687 -0.00196482
v -0.00349266 -0.02453334 -0.00194026
v -0.00324775 -0.02448460 -0.00223315
v -0.00326743 -0.02436940 -0.00252558
v -0.00319169 -0.02432361 -0.00266566
v -0.00326743 -0.02426896 -0.00276116
v -0.00303531 -0.02427783 -0.00282256
v -0.00736689 -0.02141107 -0.00282256
v -0.00737967 -0.02157501 -0.00256697
v -0.00714165 -0.02189699 -0.00264019
v -0.00717018 -0.02193982 -0.00250148
v -0.00711805 -0.02213182 -0.00230228
v -0.00714657 -0.02217465 -0.00212309
v -0.00743672 -0.02167249 -0.00223315
v -0.00738656 -0.02186006 -0.00196482
v -0.00740525 -0.02188960 -0.00181382
v -0.00748295 -0.02178474 -0.00171332
v -0.00753409 -0.02175963 -0.00142770
v -0.00764425 -0.02156172 -0.00142770
v -0.00765802 -0.02158683 -0.00089059
v -0.00755475 -0.02175963 -0.00115937
v -0.00756458 -0.02175963 -0.00089059
v -0.00757442 -0.02175963 -0.00035439
v -0.00757934 -0.02175963 0.00018273
v -0.00745639 -0.02197970 -0.00008560
v -0.00766097 -0.02159274 0.00071984
v -0.00772490 -0.02145834 0.00071984
v -0.00783014 -0.02122350 0.00098817
v -0.00783309 -0.02122350 0.00071984
v -0.00782522 -0.02122350 0.00125650
v -0.00771900 -0.02144652 0.00125650
v -0.00780654 -0.02122350 0.00152529
v -0.00777900 -0.02122350 0.00179361
v -0.00779080 -0.02118953 0.00182363
v -0.00377297 -0.02454220 0.00178179
v -0.00377494 -0.02453186 0.00182363
v -0.00405329 -0.02446983 0.00179361
v -0.00432180 -0.02439450 0.00179361
v -0.00432180 -0.02444767 0.00152529
v -0.00432180 -0.02448903 0.00125650
v -0.00432180 -0.02451709 0.00098817
v -0.00419197 -0.02458060 0.00062615
v -0.00459031 -0.02442700 0.00098817
v -0.00459031 -0.02444177 0.00071984
v -0.00419885 -0.02458355 0.00045106
v -0.00434049 -0.02454072 0.00018273
v -0.00434049 -0.02454072 -0.00008560
v -0.00459031 -0.02444620 -0.00035439
v -0.00484603 -0.02435463 -0.00035439
v -0.00483521 -0.02435167 -0.00062226
v -0.00481653 -0.02434576 -0.00089059
v -0.00478309 -0.02433395 -0.00115937
v -0.00459031 -0.02440189 -0.00115937
v -0.00471424 -0.02430736 -0.00154140
v -0.00452834 -0.02433395 -0.00169603
v -0.00432180 -0.02439450 -0.00169603
v -0.00405329 -0.02446983 -0.00169603
v -0.00351627 -0.02443586 -0.00223315
v -0.00405329 -0.02440041 -0.00196482
v -0.00420869 -0.02431623 -0.00211763
v -0.00405329 -0.02433543 -0.00217402
v -0.00405329 -0.02429112 -0.00230819
v -0.00380346 -0.02436644 -0.00225498
v -0.00351627 -0.02434872 -0.00246236
v -0.00337070 -0.02430884 -0.00263155
v -0.00351627 -0.02421727 -0.00277026
v -0.00333037 -0.02422613 -0.00282256
v -0.00326743 -0.02423795 -0.00282256
v -0.00728919 -0.02153514 -0.00282256
v -0.00718985 -0.02175077 -0.00274570
v -0.00734033 -0.02148787 -0.00277617
v -0.00707870 -0.02207422 -0.00250148
v -0.00717804 -0.02171237 -0.00282256
v -0.00709444 -0.02183348 -0.00282256
v -0.00690068 -0.02220419 -0.00269022
v -0.00693216 -0.02229576 -0.00248010
v -0.00687511 -0.02243607 -0.00237595
v -0.00704428 -0.02227656 -0.00222087
v -0.00707772 -0.02234155 -0.00196482
v -0.00716821 -0.02220715 -0.00196482
v -0.00728132 -0.02202844 -0.00196482
v -0.00719870 -0.02225293 -0.00169603
v -0.00734623 -0.02201219 -0.00171332
v -0.00741901 -0.02191324 -0.00163509
v -0.00743180 -0.02193539 -0.00142770
v -0.00736492 -0.02208899 -0.00115937
v -0.00744262 -0.02195459 -0.00115937
v -0.00744852 -0.02196345 -0.00089059
v -0.00756950 -0.02175963 0.00071984
v -0.00745639 -0.02197970 0.00018273
v -0.00737377 -0.02210376 -0.00062226
v -0.00737672 -0.02210819 -0.00035439
v -0.00737967 -0.02211262 -0.00008560
v -0.00756458 -0.02175963 0.00098817
v -0.00765802 -0.02158831 0.00098817
v -0.00772195 -0.02145390 0.00098817
v -0.00770916 -0.02142584 0.00152529
v -0.00765408 -0.02158092 0.00125650
v -0.00764425 -0.02156025 0.00152529
v -0.00769539 -0.02139630 0.00179361
v -0.00769343 -0.02139187 0.00182363
v -0.00405329 -0.02446244 0.00182363
v -0.00431983 -0.02438712 0.00182363
v -0.00451753 -0.02433099 0.00182363
v -0.00452736 -0.02433395 0.00179361
v -0.00471424 -0.02430736 0.00163898
v -0.00461096 -0.02435610 0.00153984
v -0.00475063 -0.02432066 0.00145979
v -0.00459031 -0.02440041 0.00125650
v -0.00478210 -0.02433395 0.00125650
v -0.00481554 -0.02434576 0.00098817
v -0.00483620 -0.02435315 0.00071984
v -0.00459031 -0.02444915 0.00045106
v -0.00433262 -0.02453777 0.00045106
v -0.00459031 -0.02445358 0.00018273
v -0.00459031 -0.02445210 -0.00008560
v -0.00485390 -0.02435758 -0.00008560
v -0.00497980 -0.02430589 -0.00035439
v -0.00496996 -0.02430146 -0.00062226
v -0.00495029 -0.02429259 -0.00089059
v -0.00491685 -0.02427930 -0.00115937
v -0.00475063 -0.02432066 -0.00136221
v -0.00484702 -0.02426896 -0.00144226
v -0.00513520 -0.02409173 -0.00168512
v -0.00485882 -0.02421136 -0.00169603
v -0.00466211 -0.02428816 -0.00169603
v -0.00447228 -0.02431623 -0.00185203
v -0.00430803 -0.02433543 -0.00195072
v -0.00390575 -0.02430736 -0.00235913
v -0.00372675 -0.02432656 -0.00240915
v -0.00438770 -0.02429112 -0.00203122
v -0.00430803 -0.02425124 -0.00221768
v -0.00405329 -0.02421136 -0.00250148
v -0.00351627 -0.02429555 -0.00259698
v -0.00351627 -0.02419068 -0.00282256
v -0.00380346 -0.02427487 -0.00250011
v -0.00378478 -0.02415672 -0.00277026
v -0.00691052 -0.02208604 -0.00282256
v -0.00678954 -0.02224555 -0.00282256
v -0.00675118 -0.02231496 -0.00279346
v -0.00683183 -0.02238290 -0.00255514
v -0.00672561 -0.02255128 -0.00247737
v -0.00661938 -0.02271817 -0.00239960
v -0.00665676 -0.02276248 -0.00223315
v -0.00679052 -0.02260444 -0.00223315
v -0.00690166 -0.02247004 -0.00223315
v -0.00710821 -0.02238733 -0.00169603
v -0.00694396 -0.02252469 -0.00196482
v -0.00712887 -0.02241687 -0.00142770
v -0.00721837 -0.02228247 -0.00142770
v -0.00735213 -0.02206979 -0.00142770
v -0.00737082 -0.02209785 -0.00089059
v -0.00721640 -0.02232235 -0.00117666
v -0.00724886 -0.02229724 -0.00089059
v -0.00744852 -0.02196345 0.00098817
v -0.00737967 -0.02211262 0.00018273
v -0.00737377 -0.02210376 0.00071984
v -0.00725574 -0.02229724 -0.00062226
v -0.00726656 -0.02229724 -0.00008560
v -0.00755475 -0.02175963 0.00125650
v -0.00762851 -0.02153071 0.00179361
v -0.00753212 -0.02175963 0.00152529
v -0.00762655 -0.02152332 0.00182363
v -0.00465129 -0.02428373 0.00182363
v -0.00466211 -0.02428816 0.00179361
v -0.00482538 -0.02421579 0.00182363
v -0.00485882 -0.02420989 0.00179361
v -0.00513323 -0.02409173 0.00178406
v -0.00484800 -0.02426896 0.00153984
v -0.00491685 -0.02427930 0.00125650
v -0.00495029 -0.02429259 0.00098817
v -0.00496996 -0.02430146 0.00071984
v -0.00484603 -0.02435610 0.00045106
v -0.00498078 -0.02430589 0.00045106
v -0.00485390 -0.02435758 0.00018273
v -0.00498766 -0.02430884 -0.00008560
v -0.00512635 -0.02423795 -0.00008560
v -0.00550502 -0.02402970 -0.00062226
v -0.00512635 -0.02422318 -0.00062226
v -0.00512635 -0.02420989 -0.00089059
v -0.00512635 -0.02418182 -0.00115937
v -0.00512635 -0.02414638 -0.00142770
v -0.00527191 -0.02404742 -0.00158825
v -0.00523060 -0.02402822 -0.00176744
v -0.00457359 -0.02425124 -0.00195072
v -0.00505258 -0.02406810 -0.00191706
v -0.00488439 -0.02411684 -0.00198983
v -0.00459031 -0.02414785 -0.00223315
v -0.00472997 -0.02404447 -0.00237277
v -0.00459031 -0.02406957 -0.00242962
v -0.00433852 -0.02411536 -0.00252103
v -0.00425983 -0.02406514 -0.00268158
v -0.00403263 -0.02408878 -0.00277071
v -0.00378478 -0.02412865 -0.00282256
v -0.00383887 -0.02411536 -0.00282256
v -0.00670790 -0.02234598 -0.00282256
v -0.00665283 -0.02248777 -0.00271750
v -0.00657217 -0.02266648 -0.00257879
v -0.00646595 -0.02283042 -0.00249602
v -0.00635973 -0.02299288 -0.00241325
v -0.00653775 -0.02289688 -0.00223315
v -0.00658004 -0.02294414 -0.00202667
v -0.00683773 -0.02265909 -0.00196482
v -0.00695871 -0.02258524 -0.00169603
v -0.00688101 -0.02271226 -0.00160644
v -0.00701871 -0.02256604 -0.00142770
v -0.00686134 -0.02268715 -0.00178517
v -0.00713870 -0.02243017 -0.00127808
v -0.00714559 -0.02244050 -0.00109889
v -0.00715149 -0.02244789 -0.00089059
v -0.00715542 -0.02245380 -0.00062226
v -0.00737082 -0.02209785 0.00098817
v -0.00744262 -0.02195459 0.00125650
v -0.00726656 -0.02229724 0.00018273
v -0.00725574 -0.02229724 0.00071984
v -0.00715837 -0.02245823 -0.00035439
v -0.00716034 -0.02246266 -0.00008560
v -0.00748295 -0.02178474 0.00181090
v -0.00747311 -0.02179803 0.00182363
v -0.00736492 -0.02208751 0.00125650
v -0.00743082 -0.02193244 0.00152529
v -0.00741803 -0.02191176 0.00173267
v -0.00486079 -0.02420102 0.00182363
v -0.00511848 -0.02408730 0.00182363
v -0.00517847 -0.02406071 0.00182363
v -0.00523847 -0.02403265 0.00182363
v -0.00527290 -0.02404890 0.00168765
v -0.00512635 -0.02414785 0.00152529
v -0.00512635 -0.02418182 0.00125650
v -0.00512635 -0.02420841 0.00098817
v -0.00512635 -0.02422465 0.00071984
v -0.00498766 -0.02430884 0.00018273
v -0.00512635 -0.02423352 0.00045106
v -0.00512635 -0.02423942 0.00018273
v -0.00538207 -0.02410650 0.00018273
v -0.00538010 -0.02410502 -0.00008560
v -0.00550895 -0.02403265 -0.00035439
v -0.00549420 -0.02402527 -0.00089059
v -0.00566337 -0.02394847 -0.00008560
v -0.00566337 -0.02394108 -0.00035439
v -0.00566337 -0.02393222 -0.00062226
v -0.00547256 -0.02401345 -0.00115937
v -0.00533879 -0.02407991 -0.00115937
v -0.00530142 -0.02406219 -0.00142770
v -0.00543518 -0.02399425 -0.00142770
v -0.00537420 -0.02397210 -0.00168512
v -0.00541650 -0.02386428 -0.00198301
v -0.00513520 -0.02400902 -0.00198983
v -0.00499062 -0.02404151 -0.00209580
v -0.00492865 -0.02401788 -0.00223315
v -0.00483521 -0.02395585 -0.00247783
v -0.00459031 -0.02401197 -0.00256378
v -0.00443884 -0.02403708 -0.00262382
v -0.00433852 -0.02399573 -0.00277071
v -0.00420672 -0.02401050 -0.00282256
v -0.00407591 -0.02404890 -0.00282256
v -0.00399427 -0.02407253 -0.00282256
v -0.00654758 -0.02252912 -0.00282256
v -0.00652791 -0.02257195 -0.00279209
v -0.00637841 -0.02274771 -0.00277026
v -0.00630661 -0.02294119 -0.00259244
v -0.00619252 -0.02309627 -0.00249011
v -0.00607843 -0.02324839 -0.00238778
v -0.00625547 -0.02316864 -0.00223315
v -0.00640300 -0.02303424 -0.00223315
v -0.00630563 -0.02321147 -0.00201939
v -0.00645808 -0.02309331 -0.00193344
v -0.00660758 -0.02297368 -0.00184793
v -0.00668627 -0.02284666 -0.00194844
v -0.00677774 -0.02281417 -0.00169603
v -0.00662725 -0.02299436 -0.00169603
v -0.00678757 -0.02286439 -0.00142770
v -0.00689478 -0.02273146 -0.00142770
v -0.00691052 -0.02275362 -0.00115937
v -0.00705412 -0.02258229 -0.00089059
v -0.00691937 -0.02276543 -0.00089059
v -0.00705805 -0.02258820 -0.00062226
v -0.00706297 -0.02259263 -0.00035439
v -0.00706690 -0.02259706 -0.00008560
v -0.00724886 -0.02229724 0.00098817
v -0.00716034 -0.02246266 0.00018273
v -0.00715837 -0.02245823 0.00045106
v -0.00715542 -0.02245380 0.00071984
v -0.00741213 -0.02190142 0.00182363
v -0.00735115 -0.02206684 0.00152529
v -0.00721640 -0.02232235 0.00127151
v -0.00721739 -0.02228099 0.00152529
v -0.00735410 -0.02199742 0.00182363
v -0.00530535 -0.02399868 0.00182363
v -0.00530240 -0.02406219 0.00152529
v -0.00537519 -0.02397210 0.00178406
v -0.00543715 -0.02399277 0.00152529
v -0.00533781 -0.02407991 0.00125650
v -0.00547256 -0.02401345 0.00125650
v -0.00549420 -0.02402527 0.00098817
v -0.00550698 -0.02403117 0.00071984
v -0.00551583 -0.02403561 0.00018273
v -0.00551387 -0.02403413 -0.00008560
v -0.00566337 -0.02391893 -0.00089059
v -0.00566337 -0.02389530 -0.00115937
v -0.00566337 -0.02394994 0.00018273
v -0.00586205 -0.02382145 -0.00008560
v -0.00585516 -0.02381702 -0.00035439
v -0.00584828 -0.02381111 -0.00062226
v -0.00568107 -0.02384656 -0.00141861
v -0.00561812 -0.02383031 -0.00169603
v -0.00557288 -0.02379929 -0.00190615
v -0.00512635 -0.02392927 -0.00223315
v -0.00552075 -0.02376828 -0.00208488
v -0.00533486 -0.02381849 -0.00223315
v -0.00511356 -0.02382293 -0.00248783
v -0.00501717 -0.02378600 -0.00265793
v -0.00483423 -0.02381554 -0.00275662
v -0.00459031 -0.02390859 -0.00277026
v -0.00433458 -0.02396914 -0.00282256
v -0.00636169 -0.02272999 -0.00282256
v -0.00617285 -0.02291608 -0.00282256
v -0.00612761 -0.02301947 -0.00272296
v -0.00621023 -0.02289836 -0.00279573
v -0.00601843 -0.02319818 -0.00256697
v -0.00612072 -0.02328384 -0.00223315
v -0.00592991 -0.02331486 -0.00248692
v -0.00578926 -0.02349947 -0.00235549
v -0.00592991 -0.02343153 -0.00225270
v -0.00602532 -0.02347289 -0.00196482
v -0.00605974 -0.02350095 -0.00181246
v -0.00633710 -0.02323953 -0.00184020
v -0.00649152 -0.02312876 -0.00169603
v -0.00652103 -0.02315682 -0.00142770
v -0.00665381 -0.02302242 -0.00142770
v -0.00680528 -0.02288654 -0.00115937
v -0.00681610 -0.02289983 -0.00089059
v -0.00692920 -0.02277725 -0.00035439
v -0.00706690 -0.02259706 0.00018273
v -0.00693314 -0.02278168 -0.00008560
v -0.00715149 -0.02244789 0.00098817
v -0.00714559 -0.02244050 0.00119192
v -0.00706297 -0.02259263 0.00045106
v -0.00705805 -0.02258820 0.00071984
v -0.00713772 -0.02242869 0.00137111
v -0.00712887 -0.02241540 0.00152529
v -0.00719771 -0.02225293 0.00179361
v -0.00720755 -0.02222782 0.00182363
v -0.00538109 -0.02395733 0.00182363
v -0.00561026 -0.02382588 0.00182363
v -0.00561616 -0.02383031 0.00179361
v -0.00567812 -0.02384508 0.00151210
v -0.00566337 -0.02389382 0.00125650
v -0.00566337 -0.02391893 0.00098817
v -0.00566337 -0.02393370 0.00071984
v -0.00566337 -0.02394256 0.00045106
v -0.00583746 -0.02380225 -0.00089059
v -0.00581877 -0.02378896 -0.00115937
v -0.00580402 -0.02377862 -0.00132310
v -0.00586205 -0.02382145 0.00018273
v -0.00599581 -0.02371954 -0.00008560
v -0.00598991 -0.02371659 -0.00035439
v -0.00598204 -0.02371216 -0.00062226
v -0.00597122 -0.02370477 -0.00089059
v -0.00578238 -0.02376385 -0.00150229
v -0.00575287 -0.02374612 -0.00169603
v -0.00566238 -0.02371806 -0.00198301
v -0.00527880 -0.02378453 -0.00238914
v -0.00546961 -0.02373874 -0.00223315
v -0.00519520 -0.02374022 -0.00256833
v -0.00537519 -0.02354821 -0.00275207
v -0.00533093 -0.02353344 -0.00282256
v -0.00511356 -0.02368114 -0.00275662
v -0.00489423 -0.02374908 -0.00282256
v -0.00478800 -0.02379782 -0.00282256
v -0.00464244 -0.02385837 -0.00282256
v -0.00459031 -0.02387905 -0.00282256
v -0.00624072 -0.02284962 -0.00282256
v -0.00598007 -0.02307854 -0.00282256
v -0.00583942 -0.02327055 -0.00268794
v -0.00573418 -0.02345960 -0.00250148
v -0.00583844 -0.02353492 -0.00217630
v -0.00554141 -0.02351424 -0.00265065
v -0.00559944 -0.02354821 -0.00250148
v -0.00589057 -0.02357480 -0.00196482
v -0.00618564 -0.02341233 -0.00171241
v -0.00595450 -0.02359991 -0.00171241
v -0.00608630 -0.02352163 -0.00163327
v -0.00635677 -0.02325873 -0.00169603
v -0.00638628 -0.02328827 -0.00142770
v -0.00640792 -0.02331043 -0.00115937
v -0.00654168 -0.02317602 -0.00115937
v -0.00667151 -0.02304162 -0.00115937
v -0.00668233 -0.02305344 -0.00089059
v -0.00682101 -0.02290574 -0.00062226
v -0.00693314 -0.02278168 0.00018273
v -0.00682691 -0.02291608 -0.00008560
v -0.00705412 -0.02258229 0.00098817
v -0.00691937 -0.02276543 0.00098817
v -0.00690953 -0.02275214 0.00125650
v -0.00706198 -0.02254389 0.00127151
v -0.00692920 -0.02277725 0.00045106
v -0.00701674 -0.02256604 0.00152529
v -0.00710723 -0.02238586 0.00179361
v -0.00688003 -0.02271226 0.00169811
v -0.00718493 -0.02226179 0.00182363
v -0.00710428 -0.02238143 0.00182363
v -0.00574107 -0.02374169 0.00182363
v -0.00574992 -0.02374317 0.00179361
v -0.00580303 -0.02377862 0.00141386
v -0.00581779 -0.02378896 0.00125650
v -0.00583647 -0.02380225 0.00098817
v -0.00584828 -0.02381111 0.00071984
v -0.00585516 -0.02381702 0.00045106
v -0.00595352 -0.02369295 -0.00115937
v -0.00590827 -0.02369000 -0.00141861
v -0.00598991 -0.02371659 0.00045106
v -0.00599581 -0.02371954 0.00018273
v -0.00616597 -0.02358514 -0.00008560
v -0.00616105 -0.02358218 -0.00035439
v -0.00615613 -0.02357775 -0.00062226
v -0.00614924 -0.02357185 -0.00089059
v -0.00613351 -0.02356003 -0.00115937
v -0.00517946 -0.02361025 -0.00282256
v -0.00544502 -0.02346403 -0.00282256
v -0.00571746 -0.02327498 -0.00282256
v -0.00565255 -0.02336360 -0.00275889
v -0.00547256 -0.02344630 -0.00282256
v -0.00610990 -0.02354083 -0.00142770
v -0.00624465 -0.02342267 -0.00142770
v -0.00626825 -0.02344483 -0.00115937
v -0.00642071 -0.02332519 -0.00089059
v -0.00628301 -0.02345960 -0.00089059
v -0.00655447 -0.02318784 -0.00089059
v -0.00668627 -0.02305934 -0.00062226
v -0.00656135 -0.02319375 -0.00062226
v -0.00669020 -0.02306378 -0.00035439
v -0.00682691 -0.02291608 0.00018273
v -0.00682101 -0.02290574 0.00071984
v -0.00669315 -0.02306821 -0.00008560
v -0.00692429 -0.02277134 0.00071984
v -0.00681610 -0.02289983 0.00098817
v -0.00680528 -0.02288654 0.00125650
v -0.00689380 -0.02272999 0.00152529
v -0.00695871 -0.02258377 0.00178998
v -0.00678757 -0.02286439 0.00152529
v -0.00662725 -0.02299436 0.00179361
v -0.00677577 -0.02281417 0.00178998
v -0.00678364 -0.02279497 0.00182363
v -0.00686527 -0.02269306 0.00182363
v -0.00695674 -0.02257638 0.00182363
v -0.00596925 -0.02358514 0.00182363
v -0.00595450 -0.02359843 0.00180953
v -0.00590827 -0.02368705 0.00151210
v -0.00610990 -0.02354083 0.00152529
v -0.00595253 -0.02369295 0.00125650
v -0.00597122 -0.02370477 0.00098817
v -0.00598204 -0.02371216 0.00071984
v -0.00615613 -0.02357775 0.00071984
v -0.00616105 -0.02358218 0.00045106
v -0.00616597 -0.02358514 0.00018273
v -0.00629973 -0.02347584 -0.00008560
v -0.00629579 -0.02347141 -0.00035439
v -0.00629088 -0.02346550 -0.00062226
v -0.00643251 -0.02333701 -0.00035439
v -0.00656627 -0.02319818 -0.00035439
v -0.00657119 -0.02320261 -0.00008560
v -0.00669315 -0.02306821 0.00018273
v -0.00669020 -0.02306378 0.00045106
v -0.00668627 -0.02305934 0.00071984
v -0.00668233 -0.02305344 0.00098817
v -0.00667151 -0.02304014 0.00125650
v -0.00665381 -0.02302242 0.00152529
v -0.00652005 -0.02315682 0.00152529
v -0.00649251 -0.02312876 0.00179361
v -0.00662332 -0.02298993 0.00182363
v -0.00607253 -0.02351129 0.00182363
v -0.00608630 -0.02352163 0.00173085
v -0.00624465 -0.02342267 0.00152529
v -0.00626727 -0.02344483 0.00125650
v -0.00613351 -0.02355855 0.00125650
v -0.00614924 -0.02357037 0.00098817
v -0.00628301 -0.02345960 0.00098817
v -0.00629088 -0.02346550 0.00071984
v -0.00629579 -0.02347141 0.00045106
v -0.00629973 -0.02347584 0.00018273
v -0.00643644 -0.02334144 -0.00008560
v -0.00657119 -0.02320261 0.00018273
v -0.00656135 -0.02319375 0.00071984
v -0.00655447 -0.02318784 0.00098817
v -0.00654070 -0.02317455 0.00125650
v -0.00640694 -0.02331043 0.00125650
v -0.00638628 -0.02328827 0.00152529
v -0.00648857 -0.02312433 0.00182363
v -0.00635874 -0.02326021 0.00179361
v -0.00635481 -0.02325726 0.00182363
v -0.00616892 -0.02342563 0.00182363
v -0.00618564 -0.02341381 0.00180953
v -0.00642071 -0.02332519 0.00098817
v -0.00642661 -0.02333110 0.00071984
v -0.00643251 -0.02333701 0.00045106
v -0.00643644 -0.02334144 0.00018273
f 8 9 3
f 42 43 30
f 2 3 1
f 1 6 2
f 135 136 113
f 168 136 135
f 164 195 196
f 196 195 239
f 135 113 134
f 134 113 133
f 134 166 135
f 133 166 134
f 31 44 43
f 43 42 31
f 30 19 31
f 31 42 30
f 411 410 466
f 360 361 309
f 309 308 360
f 200 166 199
f 166 198 199
f 288 243 293
f 203 202 244
f 167 200 202
f 167 203 201
f 202 203 167
f 167 166 200
f 167 201 168
f 167 168 135
f 135 166 167
f 466 410 409
f 73 74 96
f 356 361 360
f 303 304 302
f 360 308 359
f 315 366 316
f 362 309 361
f 308 309 263
f 125 126 110
f 197 198 166
f 239 198 197
f 197 196 239
f 164 196 197
f 179 211 212
f 210 211 179
f 298 345 346
f 236 282 283
f 240 198 239
f 240 199 198
f 293 243 292
f 243 291 292
f 292 340 293
f 291 340 292
f 244 288 294
f 342 343 294
f 244 202 241
f 241 288 244
f 202 200 241
f 200 199 241
f 241 199 243
f 243 288 241
f 895 837 893
f 1199 1215 1214
f 1199 1214 1201
f 1087 1149 1150
f 281 282 236
f 189 233 190
f 233 234 190
f 190 234 191
f 194 163 193
f 193 192 194
f 191 192 159
f 74 73 58
f 43 44 58
f 96 74 97
f 97 114 96
f 131 130 156
f 113 130 131
f 8 3 7
f 7 2 6
f 3 2 7
f 29 16 28
f 91 72 71
f 10 20 11
f 11 4 10
f 37 26 25
f 12 4 11
f 363 422 364
f 309 362 363
f 304 356 357
f 357 356 360
f 360 359 357
f 361 356 358
f 410 411 358
f 358 356 304
f 358 409 410
f 408 409 358
f 149 150 124
f 124 125 108
f 125 124 151
f 366 359 317
f 416 362 361
f 417 362 416
f 361 415 416
f 418 417 419
f 418 362 417
f 419 363 418
f 418 363 362
f 220 263 264
f 310 263 309
f 310 363 364
f 309 363 310
f 262 263 220
f 262 228 272
f 271 228 270
f 272 228 271
f 271 316 272
f 270 315 271
f 271 315 316
f 111 110 126
f 165 133 164
f 164 197 165
f 165 166 133
f 165 197 166
f 845 785 783
f 729 785 730
f 677 729 730
f 675 729 677
f 346 345 347
f 911 977 912
f 179 212 213
f 211 210 251
f 179 207 218
f 218 208 179
f 208 246 209
f 209 210 179
f 179 208 209
f 229 189 188
f 243 199 242
f 199 240 242
f 240 287 242
f 243 242 289
f 289 242 287
f 342 294 335
f 335 294 288
f 837 895 896
f 896 967 968
f 894 899 965
f 837 899 894
f 893 837 836
f 837 771 836
f 1211 1214 1212
f 1212 1158 1211
f 1210 1257 1211
f 1150 1208 1151
f 1202 1214 1203
f 1202 1201 1214
f 1149 1205 1206
f 965 969 972
f 968 969 898
f 898 969 965
f 898 896 968
f 965 899 898
f 898 899 837
f 1027 969 968
f 1150 1089 1088
f 1088 1087 1150
f 1089 1027 1088
f 1085 1144 1086
f 1086 1144 1087
f 1149 1087 1148
f 1148 1205 1149
f 1148 1204 1205
f 1203 1204 1148
f 1148 1202 1203
f 1201 1202 1148
f 795 856 796
f 855 857 795
f 234 281 235
f 191 234 235
f 194 192 235
f 235 192 191
f 280 234 233
f 280 281 234
f 157 190 191
f 189 190 157
f 188 189 157
f 59 58 44
f 74 58 59
f 96 114 115
f 114 139 115
f 162 131 156
f 8 7 18
f 18 7 16
f 6 16 17
f 17 7 6
f 16 7 17
f 15 16 6
f 15 28 16
f 27 28 15
f 94 72 93
f 94 95 72
f 69 72 90
f 72 95 90
f 92 91 110
f 110 111 92
f 93 72 92
f 72 91 92
f 108 125 109
f 37 25 36
f 13 12 11
f 4 12 13
f 13 34 24
f 472 470 529
f 419 417 420
f 420 363 419
f 696 643 644
f 417 416 468
f 468 416 415
f 414 411 466
f 414 468 415
f 414 415 361
f 466 465 524
f 524 525 466
f 581 579 639
f 639 640 581
f 583 640 639
f 361 358 413
f 413 414 361
f 411 414 413
f 408 358 405
f 123 124 108
f 108 107 123
f 312 264 263
f 219 262 220
f 228 262 219
f 219 187 228
f 308 263 307
f 263 262 307
f 307 359 308
f 307 317 359
f 128 126 125
f 125 151 128
f 128 111 126
f 509 563 564
f 620 563 619
f 675 673 727
f 621 563 620
f 674 673 675
f 676 677 730
f 676 678 625
f 730 678 676
f 400 350 349
f 349 350 300
f 911 974 975
f 910 974 911
f 844 845 783
f 913 912 977
f 911 912 846
f 909 910 846
f 846 910 911
f 785 845 846
f 964 895 893
f 964 896 895
f 967 896 964
f 1199 1144 1146
f 1145 1200 1146
f 1083 1145 1146
f 1146 1144 1083
f 1107 1165 1166
f 302 304 258
f 211 251 252
f 252 253 211
f 249 296 252
f 345 298 344
f 247 246 208
f 208 218 247
f 250 209 249
f 249 252 250
f 250 252 251
f 250 251 210
f 210 209 250
f 249 209 248
f 248 209 246
f 872 871 813
f 532 479 534
f 534 589 532
f 238 286 287
f 239 195 238
f 238 240 239
f 238 287 240
f 285 237 284
f 285 286 237
f 330 286 285
f 287 286 333
f 336 289 333
f 333 289 287
f 333 286 330
f 290 291 243
f 243 289 290
f 290 289 336
f 327 283 282
f 610 552 550
f 550 552 496
f 381 382 330
f 498 497 553
f 393 343 342
f 448 449 393
f 500 449 452
f 452 449 448
f 504 505 452
f 334 288 293
f 334 335 288
f 670 671 617
f 617 616 670
f 670 616 669
f 669 723 670
f 779 778 839
f 723 778 779
f 553 552 611
f 611 552 610
f 893 836 835
f 838 894 839
f 839 775 838
f 837 894 838
f 838 771 837
f 716 662 661
f 546 491 490
f 435 438 379
f 699 751 752
f 817 875 818
f 1164 1165 1107
f 1221 1165 1164
f 1090 1089 1150
f 1150 1151 1090
f 1090 1151 1091
f 1255 1204 1203
f 1205 1204 1255
f 1207 1208 1150
f 1150 1149 1207
f 1149 1206 1207
f 839 894 900
f 973 972 969
f 973 1029 1031
f 969 1029 973
f 1031 1029 1093
f 1091 1029 1028
f 1089 1090 1028
f 1028 1090 1091
f 1028 1029 969
f 1028 1027 1089
f 969 1027 1028
f 837 896 897
f 897 898 837
f 896 898 897
f 1026 1027 968
f 1026 1088 1027
f 1087 1144 1147
f 1147 1148 1087
f 1147 1144 1199
f 1199 1201 1147
f 1201 1148 1147
f 803 742 741
f 803 804 742
f 996 930 991
f 801 799 859
f 859 799 858
f 858 799 856
f 858 795 857
f 856 795 858
f 1116 1056 1048
f 997 999 937
f 1231 1232 1173
f 1123 1177 1178
f 1123 1056 1122
f 1122 1116 1173
f 1056 1116 1122
f 1048 1056 1049
f 996 991 1049
f 1049 991 1048
f 802 803 740
f 740 803 741
f 740 801 802
f 279 280 233
f 160 193 163
f 163 161 160
f 192 193 160
f 160 159 192
f 160 131 159
f 160 161 131
f 131 161 132
f 133 113 132
f 113 131 132
f 132 161 163
f 191 159 158
f 158 157 191
f 131 157 158
f 159 131 158
f 138 139 114
f 131 162 137
f 162 138 137
f 137 138 114
f 38 40 29
f 29 28 38
f 38 28 27
f 68 89 88
f 93 92 112
f 112 111 127
f 112 92 111
f 87 107 108
f 87 68 82
f 89 68 87
f 87 109 89
f 108 109 87
f 45 46 32
f 47 46 48
f 32 46 47
f 47 33 32
f 48 34 47
f 34 33 47
f 20 32 21
f 32 33 21
f 21 33 22
f 11 20 21
f 21 22 11
f 22 33 23
f 23 33 34
f 11 22 23
f 23 13 11
f 34 13 23
f 24 34 35
f 34 49 35
f 35 49 64
f 103 120 104
f 101 120 103
f 86 105 104
f 107 87 86
f 24 25 14
f 14 13 24
f 4 13 14
f 14 25 26
f 147 181 148
f 149 124 148
f 148 150 149
f 148 123 147
f 124 123 148
f 179 217 205
f 205 186 181
f 177 207 179
f 644 643 585
f 585 586 529
f 529 586 530
f 530 472 529
f 421 420 470
f 421 472 471
f 470 472 421
f 363 420 421
f 697 696 745
f 643 696 697
f 467 414 466
f 468 414 467
f 529 470 528
f 528 584 529
f 583 584 528
f 469 528 470
f 527 528 469
f 417 468 469
f 468 467 469
f 466 525 469
f 469 467 466
f 269 267 313
f 412 358 411
f 411 413 412
f 412 413 358
f 408 405 407
f 407 409 408
f 466 409 407
f 407 465 466
f 355 358 304
f 355 405 358
f 304 303 355
f 406 404 461
f 577 523 522
f 522 518 577
f 638 577 576
f 577 518 576
f 122 123 107
f 265 266 222
f 222 266 267
f 222 223 185
f 222 269 223
f 304 357 305
f 305 258 304
f 314 357 365
f 365 313 314
f 313 267 314
f 270 228 227
f 228 187 227
f 311 310 364
f 263 310 311
f 311 312 263
f 183 220 184
f 183 219 220
f 187 219 183
f 155 187 183
f 184 152 183
f 183 152 155
f 153 152 184
f 127 152 153
f 127 111 129
f 129 152 127
f 111 128 129
f 129 128 155
f 155 152 129
f 560 561 509
f 509 507 560
f 625 564 624
f 624 564 563
f 620 619 672
f 509 561 562
f 562 563 509
f 562 619 563
f 454 455 396
f 454 507 456
f 456 455 454
f 456 396 455
f 625 678 679
f 678 681 679
f 741 742 687
f 687 740 741
f 728 727 783
f 785 729 728
f 728 729 675
f 675 727 728
f 622 621 673
f 673 674 622
f 563 621 622
f 622 674 675
f 351 350 401
f 351 300 350
f 401 352 351
f 351 352 303
f 256 303 302
f 302 258 256
f 348 398 349
f 347 398 348
f 976 975 1032
f 911 975 976
f 1032 1033 976
f 976 977 911
f 976 1033 977
f 906 846 845
f 909 846 906
f 848 849 785
f 912 913 848
f 981 1039 982
f 982 913 981
f 1038 1105 1039
f 1039 981 1038
f 982 1039 984
f 984 915 982
f 1039 1043 984
f 983 915 984
f 918 919 852
f 849 915 916
f 916 918 852
f 916 915 983
f 983 918 916
f 854 857 855
f 852 919 920
f 921 854 920
f 786 789 787
f 730 785 786
f 786 787 730
f 790 851 852
f 732 681 678
f 789 790 732
f 1094 1033 1032
f 1152 1097 1096
f 1156 1211 1158
f 1035 1097 1036
f 1036 979 1035
f 1159 1158 1212
f 1212 1214 1159
f 1159 1214 1215
f 1159 1200 1145
f 1159 1146 1200
f 1159 1215 1199
f 1199 1146 1159
f 1083 1144 1084
f 1084 1020 1083
f 1084 1144 1085
f 1132 1067 1131
f 1236 1282 1276
f 1309 1283 1308
f 1264 1254 1253
f 1045 1044 1110
f 179 213 214
f 213 260 214
f 265 260 259
f 259 266 265
f 213 258 259
f 259 260 213
f 297 296 298
f 299 298 346
f 349 300 299
f 299 348 349
f 346 347 299
f 347 348 299
f 295 296 249
f 298 296 295
f 295 344 298
f 245 218 207
f 245 247 218
f 427 371 428
f 588 531 532
f 274 231 230
f 189 229 230
f 230 231 189
f 232 233 189
f 189 231 232
f 232 279 233
f 367 321 318
f 590 588 532
f 532 589 590
f 589 648 590
f 700 648 699
f 699 752 700
f 699 648 698
f 330 285 332
f 332 381 330
f 440 496 495
f 610 550 609
f 547 491 546
f 546 609 547
f 547 609 550
f 336 388 337
f 337 388 338
f 337 338 291
f 337 290 336
f 291 290 337
f 383 388 336
f 330 382 383
f 440 381 439
f 339 340 291
f 291 338 339
f 343 393 395
f 395 393 449
f 500 452 506
f 506 452 505
f 342 335 387
f 335 386 387
f 293 340 341
f 341 334 293
f 385 386 335
f 335 334 385
f 334 341 385
f 726 671 670
f 504 452 503
f 776 775 839
f 839 778 776
f 724 778 723
f 723 669 724
f 616 557 615
f 615 669 616
f 668 669 615
f 901 900 970
f 610 609 608
f 608 609 546
f 719 720 663
f 1016 955 1015
f 712 711 710
f 711 659 710
f 893 835 834
f 834 767 833
f 661 714 715
f 715 716 661
f 771 838 773
f 773 838 775
f 775 774 773
f 546 490 493
f 493 490 438
f 493 492 546
f 438 492 493
f 437 490 491
f 546 492 549
f 661 662 605
f 605 662 606
f 605 606 546
f 546 549 605
f 881 823 822
f 543 542 601
f 705 656 655
f 654 703 655
f 660 714 661
f 660 659 711
f 660 713 714
f 660 711 712
f 712 713 660
f 813 752 812
f 812 752 751
f 755 816 817
f 815 816 755
f 817 818 755
f 876 818 875
f 819 818 876
f 591 534 479
f 479 533 591
f 428 371 423
f 821 820 878
f 881 822 878
f 878 822 821
f 653 703 654
f 759 820 821
f 819 820 758
f 820 759 758
f 758 759 703
f 1203 1214 1256
f 1214 1259 1256
f 1257 1259 1258
f 1258 1259 1214
f 1214 1211 1258
f 1258 1211 1257
f 966 972 970
f 970 900 966
f 965 972 966
f 966 894 965
f 966 900 894
f 1030 973 1031
f 971 973 1030
f 902 973 971
f 902 901 970
f 970 972 902
f 972 973 902
f 842 901 902
f 1092 1029 1091
f 1092 1093 1029
f 968 967 1024
f 1085 1086 1024
f 1025 1086 1087
f 1087 1088 1025
f 1088 1026 1025
f 1025 1024 1086
f 1025 1026 968
f 968 1024 1025
f 865 803 864
f 804 803 865
f 865 864 805
f 805 804 865
f 688 687 738
f 738 687 742
f 1048 991 993
f 932 931 866
f 802 801 860
f 930 931 862
f 862 925 930
f 862 860 925
f 802 860 862
f 1055 999 997
f 1121 1056 1123
f 1230 1231 1173
f 1232 1231 1176
f 1173 1232 1176
f 1176 1122 1173
f 1176 1177 1123
f 1123 1122 1176
f 1123 1178 1124
f 1124 1121 1123
f 1235 1178 1177
f 1177 1236 1235
f 1235 1236 1276
f 809 748 811
f 747 746 807
f 807 864 866
f 805 864 807
f 807 746 805
f 805 746 744
f 744 804 805
f 40 38 54
f 27 39 54
f 54 38 27
f 83 68 67
f 101 78 77
f 48 46 61
f 76 77 61
f 64 49 63
f 63 77 78
f 48 61 63
f 63 61 77
f 102 78 101
f 119 101 118
f 119 120 101
f 51 53 37
f 67 68 51
f 51 68 53
f 64 65 50
f 50 35 64
f 65 51 50
f 50 51 35
f 81 65 64
f 64 80 81
f 105 86 85
f 1 4 5
f 4 14 5
f 5 6 1
f 216 217 179
f 185 186 221
f 221 226 265
f 186 226 221
f 154 124 150
f 154 151 124
f 154 186 185
f 154 128 151
f 155 128 154
f 180 181 147
f 180 205 181
f 224 205 217
f 186 205 224
f 217 216 224
f 172 180 147
f 179 205 172
f 205 180 172
f 745 696 692
f 695 746 747
f 695 692 642
f 745 692 695
f 695 749 745
f 747 748 695
f 748 749 695
f 587 584 583
f 583 642 587
f 529 584 587
f 587 585 529
f 644 585 587
f 641 639 690
f 583 639 641
f 641 642 583
f 583 528 582
f 582 528 527
f 582 640 583
f 581 640 582
f 582 580 581
f 526 582 527
f 580 582 526
f 524 578 526
f 526 578 579
f 525 524 526
f 526 579 581
f 581 580 526
f 526 469 525
f 527 469 526
f 464 520 465
f 465 407 464
f 464 523 520
f 464 522 523
f 462 407 406
f 406 461 462
f 303 352 353
f 353 404 406
f 353 352 404
f 406 407 353
f 353 407 405
f 460 461 404
f 403 402 404
f 404 352 403
f 403 352 401
f 401 350 403
f 350 402 403
f 147 123 146
f 123 122 146
f 146 172 147
f 104 120 121
f 120 122 121
f 121 122 107
f 267 269 268
f 268 222 267
f 269 222 268
f 306 305 357
f 357 314 306
f 266 259 306
f 258 305 306
f 306 259 258
f 625 624 623
f 623 624 563
f 623 676 625
f 623 622 675
f 563 622 623
f 675 677 623
f 677 676 623
f 627 628 564
f 570 628 627
f 618 672 619
f 618 562 561
f 619 562 618
f 510 568 511
f 510 456 509
f 508 507 509
f 509 456 508
f 508 456 507
f 397 398 347
f 397 347 345
f 345 396 397
f 396 456 397
f 349 398 397
f 683 735 736
f 736 735 686
f 796 856 797
f 856 799 797
f 799 801 800
f 801 740 800
f 575 576 518
f 783 785 784
f 784 728 783
f 785 728 784
f 513 458 512
f 512 458 511
f 459 458 513
f 404 402 459
f 459 460 404
f 301 351 303
f 303 256 301
f 300 351 301
f 257 258 213
f 257 256 258
f 257 213 212
f 212 256 257
f 255 256 212
f 255 212 211
f 300 301 255
f 255 301 256
f 909 906 905
f 905 906 844
f 845 844 907
f 907 906 845
f 844 906 907
f 978 913 977
f 978 979 913
f 849 848 914
f 982 915 914
f 914 915 849
f 914 913 982
f 914 848 913
f 908 846 912
f 912 848 908
f 1001 940 1000
f 942 940 1001
f 942 875 941
f 941 940 942
f 875 940 941
f 874 875 817
f 874 940 875
f 1040 1041 983
f 1043 1041 1040
f 983 984 1040
f 1040 984 1043
f 1110 1044 1109
f 1107 1041 1106
f 1106 1041 1043
f 913 979 980
f 980 981 913
f 980 1038 981
f 1105 1038 1104
f 1104 1164 1107
f 1107 1106 1104
f 1104 1106 1043
f 1104 1043 1039
f 1039 1105 1104
f 852 851 917
f 917 916 852
f 921 920 987
f 987 918 986
f 919 918 987
f 987 920 919
f 851 790 850
f 850 917 851
f 850 786 785
f 916 917 850
f 789 786 850
f 850 790 789
f 785 849 850
f 849 916 850
f 683 681 733
f 733 732 683
f 681 732 733
f 731 732 678
f 731 678 730
f 730 787 731
f 853 920 854
f 852 920 853
f 853 790 852
f 1095 1094 1152
f 1033 1094 1095
f 1152 1096 1095
f 1095 1096 1033
f 1155 1097 1152
f 1155 1153 1097
f 1154 1153 1210
f 1097 1153 1154
f 1210 1211 1154
f 1211 1156 1154
f 1033 1096 1034
f 1034 1096 1097
f 1034 1097 1035
f 1035 979 1034
f 979 978 1034
f 977 1033 1034
f 1034 978 977
f 1098 1036 1097
f 1097 1154 1098
f 1098 1154 1156
f 1065 1129 1066
f 1131 1067 1066
f 942 1004 1005
f 1022 1084 1085
f 1085 1023 1022
f 1022 1023 961
f 1020 1084 1022
f 1022 961 1020
f 1020 961 960
f 1191 1248 1249
f 1249 1248 1291
f 1291 1248 1290
f 1138 1139 1076
f 1138 1137 1191
f 1136 1078 1074
f 1074 1078 1016
f 1016 1015 1074
f 1083 1020 1082
f 1186 1132 1131
f 1075 1138 1076
f 1137 1138 1075
f 1278 1236 1277
f 1280 1278 1307
f 1277 1236 1275
f 1324 1305 1323
f 1323 1311 1324
f 1314 1290 1313
f 1314 1311 1323
f 1277 1275 1274
f 1274 1275 1231
f 1309 1308 1328
f 1309 1286 1285
f 1222 1165 1221
f 1295 1264 1253
f 1296 1293 1318
f 1318 1298 1296
f 1270 1269 1300
f 1224 1168 1167
f 1167 1168 1110
f 1167 1166 1224
f 1110 1109 1167
f 1110 1168 1112
f 1112 1045 1110
f 261 260 265
f 265 226 261
f 179 214 215
f 215 216 179
f 215 261 226
f 215 226 186
f 215 214 260
f 260 261 215
f 298 299 254
f 254 297 298
f 296 297 254
f 211 253 254
f 254 255 211
f 254 299 300
f 300 255 254
f 254 252 296
f 253 252 254
f 279 320 324
f 475 476 425
f 531 476 475
f 477 428 479
f 477 427 428
f 477 475 427
f 531 475 477
f 477 479 532
f 532 531 477
f 424 427 425
f 427 424 369
f 369 424 425
f 275 278 319
f 231 278 275
f 319 320 275
f 321 278 277
f 277 231 274
f 277 278 231
f 322 321 367
f 322 278 321
f 274 230 273
f 273 230 229
f 276 232 231
f 279 232 276
f 231 275 276
f 276 320 279
f 276 275 320
f 588 590 592
f 750 751 699
f 699 698 750
f 647 648 589
f 647 698 648
f 284 329 331
f 331 285 284
f 331 332 285
f 327 375 376
f 374 375 327
f 377 375 374
f 497 495 551
f 551 495 496
f 496 552 551
f 551 552 553
f 553 497 551
f 444 495 497
f 440 495 444
f 497 498 444
f 494 547 550
f 440 439 494
f 494 439 491
f 491 547 494
f 494 496 440
f 494 550 496
f 340 339 391
f 553 611 554
f 782 726 725
f 725 726 670
f 670 723 725
f 723 779 725
f 781 782 725
f 558 503 557
f 558 557 616
f 504 503 558
f 394 387 386
f 442 453 394
f 448 393 394
f 394 452 448
f 394 393 342
f 342 387 394
f 718 774 775
f 775 776 718
f 719 663 718
f 778 724 777
f 777 776 778
f 719 718 777
f 777 718 776
f 722 669 668
f 722 724 669
f 668 615 614
f 614 615 557
f 781 842 843
f 842 904 843
f 840 779 839
f 839 900 840
f 900 901 840
f 662 663 607
f 607 663 608
f 607 608 546
f 546 606 607
f 606 662 607
f 610 608 664
f 608 663 664
f 664 663 720
f 664 720 666
f 769 715 714
f 954 1015 955
f 956 955 1016
f 956 887 955
f 1016 1017 956
f 763 826 827
f 762 826 763
f 766 710 765
f 766 765 831
f 712 710 766
f 766 767 712
f 833 891 892
f 893 834 892
f 892 834 833
f 961 1023 1021
f 1021 1024 967
f 1085 1024 1021
f 1021 1023 1085
f 768 834 835
f 835 769 768
f 712 767 768
f 767 834 768
f 768 713 712
f 714 713 768
f 768 769 714
f 771 716 770
f 716 715 770
f 770 836 771
f 770 835 836
f 770 769 835
f 715 769 770
f 772 716 771
f 771 773 772
f 438 490 436
f 490 437 436
f 436 379 438
f 436 437 379
f 484 540 486
f 433 376 484
f 435 433 485
f 485 486 435
f 433 484 485
f 485 484 486
f 602 543 601
f 489 492 438
f 489 438 435
f 489 545 492
f 542 543 488
f 488 489 435
f 543 489 488
f 705 655 704
f 704 655 703
f 599 540 598
f 598 655 599
f 599 655 656
f 656 657 599
f 435 486 487
f 486 540 487
f 487 488 435
f 659 708 709
f 765 710 709
f 709 710 659
f 658 708 659
f 658 602 601
f 659 602 658
f 814 816 815
f 815 753 814
f 813 871 814
f 871 816 814
f 814 752 813
f 814 753 752
f 942 1005 944
f 877 820 819
f 819 876 877
f 428 423 473
f 752 753 701
f 701 653 651
f 597 652 654
f 597 655 598
f 654 655 597
f 652 597 596
f 596 597 538
f 821 822 760
f 760 759 821
f 703 759 760
f 760 704 703
f 756 818 819
f 819 758 756
f 756 755 818
f 1220 1261 1221
f 1221 1164 1220
f 1101 1036 1100
f 1160 1159 1213
f 903 902 971
f 903 904 842
f 842 902 903
f 688 738 689
f 689 738 743
f 743 744 689
f 689 690 638
f 638 688 689
f 798 738 742
f 743 738 798
f 742 804 798
f 804 744 798
f 798 744 743
f 925 860 926
f 930 925 926
f 926 991 930
f 992 993 926
f 926 993 991
f 866 864 863
f 863 932 866
f 802 862 863
f 931 932 863
f 863 862 931
f 863 803 802
f 864 803 863
f 934 930 996
f 934 931 930
f 1054 1055 997
f 1120 1055 1054
f 998 1049 1056
f 996 1049 998
f 998 1054 997
f 1227 1269 1270
f 1179 1178 1237
f 1179 1124 1178
f 1237 1178 1238
f 1178 1235 1238
f 1276 1282 1238
f 1238 1235 1276
f 745 749 806
f 748 809 806
f 806 749 748
f 370 320 319
f 370 369 425
f 319 369 370
f 425 373 370
f 56 54 69
f 40 54 56
f 69 54 55
f 55 54 39
f 55 70 71
f 55 72 69
f 71 72 55
f 62 60 46
f 98 77 76
f 76 61 75
f 78 102 79
f 79 63 78
f 79 80 64
f 64 63 79
f 104 105 79
f 79 103 104
f 101 103 79
f 79 102 101
f 36 35 52
f 35 51 52
f 37 36 52
f 52 51 37
f 68 83 66
f 82 68 66
f 66 85 86
f 66 83 67
f 66 87 82
f 66 86 87
f 67 51 66
f 66 51 65
f 65 81 66
f 106 79 105
f 80 79 106
f 182 154 150
f 186 154 182
f 181 186 182
f 150 148 182
f 182 148 181
f 186 224 225
f 225 224 216
f 225 215 186
f 216 215 225
f 179 172 143
f 144 146 122
f 172 146 144
f 119 143 144
f 645 692 696
f 642 692 645
f 645 587 642
f 645 696 644
f 644 587 645
f 746 695 694
f 694 695 642
f 642 693 694
f 694 693 690
f 690 689 694
f 694 744 746
f 694 689 744
f 690 693 691
f 691 641 690
f 691 693 642
f 642 641 691
f 463 464 407
f 407 462 463
f 354 355 303
f 303 353 354
f 405 355 354
f 354 353 405
f 567 510 509
f 568 510 567
f 509 564 565
f 564 628 565
f 683 630 629
f 629 630 570
f 570 630 631
f 631 632 573
f 630 632 631
f 626 564 625
f 626 627 564
f 570 627 626
f 681 629 626
f 626 629 570
f 457 397 456
f 457 510 511
f 456 510 457
f 511 458 457
f 458 397 457
f 686 735 737
f 796 797 737
f 737 795 796
f 737 793 795
f 855 795 794
f 795 793 794
f 794 792 855
f 636 688 638
f 636 687 688
f 638 576 634
f 576 575 634
f 574 516 573
f 569 628 570
f 570 512 569
f 569 567 628
f 568 567 569
f 511 568 569
f 569 512 511
f 399 459 402
f 399 402 350
f 350 400 399
f 458 459 399
f 399 400 349
f 349 397 399
f 399 397 458
f 461 460 514
f 460 459 514
f 514 459 513
f 513 516 514
f 514 516 461
f 785 846 847
f 846 908 847
f 847 848 785
f 847 908 848
f 1002 1001 1000
f 942 1001 1002
f 939 874 938
f 940 874 939
f 873 874 817
f 938 874 873
f 817 816 873
f 873 816 871
f 873 872 938
f 871 872 873
f 1003 1004 942
f 1059 1004 1003
f 1003 1002 1059
f 942 1002 1003
f 1108 1109 1041
f 1107 1166 1108
f 1108 1041 1107
f 1166 1167 1108
f 1108 1167 1109
f 985 1044 986
f 986 918 985
f 985 918 983
f 979 1036 1037
f 1037 980 979
f 1037 1036 1101
f 1101 1038 1037
f 1038 980 1037
f 789 732 788
f 732 731 788
f 787 789 788
f 788 731 787
f 791 792 732
f 791 732 790
f 790 853 791
f 855 792 791
f 791 854 855
f 791 853 854
f 1209 1155 1152
f 1153 1155 1209
f 1184 1242 1243
f 1009 949 948
f 948 1010 1009
f 1009 1010 1068
f 1068 1011 1009
f 1067 1132 1069
f 1069 1010 1067
f 1068 1010 1069
f 880 878 820
f 948 949 880
f 881 878 880
f 1067 1010 1008
f 1008 1066 1067
f 1008 1010 948
f 948 947 1008
f 1065 1066 1007
f 1007 947 946
f 1066 1008 1007
f 1007 1008 947
f 1065 1007 1006
f 1006 1007 946
f 946 944 1006
f 1006 944 1005
f 950 882 881
f 949 882 950
f 881 880 950
f 950 880 949
f 951 882 949
f 949 1009 951
f 951 1009 1011
f 883 882 951
f 951 1011 953
f 824 882 883
f 881 882 824
f 824 823 881
f 824 762 823
f 1289 1288 1313
f 1313 1290 1289
f 1289 1290 1248
f 1292 1249 1291
f 1139 1138 1193
f 1076 1139 1077
f 1139 1140 1077
f 1018 1017 1079
f 1016 1078 1079
f 1079 1017 1016
f 1083 1082 1143
f 1143 1082 1142
f 1143 1145 1083
f 1142 1082 1081
f 1133 1075 1134
f 1137 1075 1133
f 1132 1137 1133
f 1133 1071 1132
f 1187 1137 1132
f 1132 1186 1187
f 1191 1137 1187
f 1187 1186 1191
f 1014 1075 1076
f 1014 1074 1015
f 1015 954 1014
f 1076 1077 1014
f 1014 1077 1074
f 1304 1278 1277
f 1305 1278 1304
f 1277 1274 1304
f 1323 1305 1304
f 1304 1322 1323
f 1305 1324 1326
f 1282 1236 1281
f 1236 1280 1281
f 1236 1278 1279
f 1279 1280 1236
f 1278 1280 1279
f 1234 1236 1177
f 1234 1275 1236
f 1177 1176 1234
f 1234 1176 1231
f 1231 1275 1234
f 1312 1286 1311
f 1312 1314 1313
f 1311 1314 1312
f 1313 1288 1312
f 1311 1286 1310
f 1310 1324 1311
f 1310 1286 1309
f 1310 1326 1324
f 1310 1309 1327
f 1327 1326 1310
f 1291 1290 1316
f 1231 1230 1273
f 1273 1274 1231
f 1270 1302 1273
f 1319 1333 1332
f 1332 1320 1319
f 1302 1320 1321
f 1329 1328 1327
f 1327 1309 1329
f 1309 1328 1329
f 1183 1182 1240
f 1287 1288 1243
f 1243 1242 1287
f 1287 1312 1288
f 1286 1312 1287
f 1224 1166 1223
f 1223 1265 1224
f 1223 1166 1165
f 1165 1222 1223
f 1221 1261 1262
f 1262 1222 1221
f 1261 1260 1262
f 1262 1260 1254
f 1254 1264 1262
f 1264 1222 1262
f 1294 1293 1296
f 1296 1295 1294
f 1264 1295 1263
f 1263 1222 1264
f 1263 1295 1296
f 1265 1223 1263
f 1263 1223 1222
f 1296 1267 1263
f 1263 1267 1265
f 1301 1300 1319
f 1319 1320 1301
f 1301 1320 1302
f 1301 1302 1270
f 1270 1300 1301
f 1051 993 992
f 1051 1116 1048
f 1048 993 1051
f 1319 1300 1299
f 1299 1300 1269
f 1045 990 989
f 1044 1045 989
f 986 1044 989
f 994 988 990
f 990 1047 994
f 325 324 372
f 373 325 372
f 372 370 373
f 425 427 474
f 474 475 425
f 427 475 474
f 368 369 319
f 371 369 368
f 368 322 371
f 319 322 368
f 371 427 426
f 426 369 371
f 427 369 426
f 429 481 482
f 319 278 323
f 323 322 319
f 278 322 323
f 650 700 651
f 649 592 590
f 649 590 648
f 648 700 649
f 700 650 649
f 649 650 592
f 646 647 589
f 384 332 380
f 332 331 380
f 380 329 379
f 380 331 329
f 431 375 430
f 430 375 377
f 482 431 430
f 379 329 378
f 435 379 378
f 378 376 433
f 377 374 328
f 282 325 328
f 328 325 373
f 338 388 389
f 388 444 389
f 389 339 338
f 440 444 441
f 441 444 388
f 441 381 440
f 382 381 441
f 392 341 340
f 340 391 392
f 442 385 392
f 392 385 341
f 612 611 666
f 612 554 611
f 612 613 554
f 499 498 553
f 553 554 499
f 554 613 555
f 502 499 555
f 555 499 554
f 780 725 779
f 780 842 781
f 781 725 780
f 442 394 443
f 443 394 386
f 443 385 442
f 386 385 443
f 451 503 452
f 452 394 451
f 774 718 717
f 717 718 663
f 717 773 774
f 717 772 773
f 717 663 662
f 662 716 717
f 716 772 717
f 721 720 719
f 719 777 721
f 721 722 668
f 721 777 724
f 724 722 721
f 667 614 613
f 667 612 666
f 613 612 667
f 666 720 667
f 720 721 667
f 668 614 667
f 667 721 668
f 666 611 665
f 665 664 666
f 665 611 610
f 610 664 665
f 829 826 883
f 829 827 826
f 830 889 831
f 830 829 887
f 831 765 830
f 765 829 830
f 890 891 833
f 890 960 961
f 767 766 832
f 833 767 832
f 831 889 832
f 832 766 831
f 832 890 833
f 889 890 832
f 492 545 548
f 548 545 605
f 548 549 492
f 548 605 549
f 707 706 705
f 705 761 707
f 707 658 706
f 708 658 707
f 432 376 375
f 432 484 376
f 538 484 483
f 483 537 538
f 484 432 483
f 483 431 482
f 483 375 431
f 483 432 375
f 543 602 603
f 659 660 604
f 604 602 659
f 604 660 661
f 545 603 604
f 604 603 602
f 600 599 657
f 600 657 601
f 601 542 600
f 765 709 764
f 764 709 708
f 764 827 765
f 764 708 763
f 763 827 764
f 942 944 943
f 943 944 876
f 943 875 942
f 943 876 875
f 945 944 946
f 876 944 945
f 945 877 876
f 479 428 478
f 478 533 479
f 428 473 478
f 539 484 538
f 538 597 539
f 539 597 598
f 598 540 539
f 540 484 539
f 482 481 535
f 588 592 535
f 531 588 535
f 535 481 531
f 651 653 595
f 652 596 595
f 538 537 595
f 595 596 538
f 815 755 754
f 754 753 815
f 754 701 753
f 703 653 702
f 755 756 702
f 702 754 755
f 653 701 702
f 701 754 702
f 1261 1220 1219
f 1219 1260 1261
f 1164 1104 1163
f 1163 1220 1164
f 1160 1213 1161
f 1158 1159 1099
f 1099 1159 1160
f 1036 1098 1099
f 1099 1100 1036
f 1099 1156 1158
f 1099 1098 1156
f 1254 1260 1246
f 1198 1159 1145
f 1198 1213 1159
f 1145 1143 1198
f 861 801 859
f 859 858 861
f 811 869 870
f 870 869 937
f 811 748 810
f 810 869 811
f 935 998 997
f 935 934 996
f 996 998 935
f 866 931 867
f 931 934 867
f 1120 1054 1058
f 1058 1124 1120
f 1121 1124 1058
f 1054 998 1058
f 1056 1121 1057
f 1057 998 1056
f 1121 1058 1057
f 1057 1058 998
f 1233 1227 1270
f 57 62 46
f 57 45 41
f 46 45 57
f 77 98 99
f 140 119 118
f 140 141 119
f 84 66 81
f 85 66 84
f 84 81 80
f 80 106 84
f 105 85 84
f 84 106 105
f 178 177 179
f 179 143 178
f 178 143 177
f 176 143 175
f 177 143 176
f 145 122 120
f 145 144 122
f 120 119 145
f 119 144 145
f 173 143 172
f 519 462 518
f 519 463 462
f 518 522 519
f 464 463 519
f 628 567 566
f 566 565 628
f 566 567 509
f 509 565 566
f 682 681 683
f 683 629 682
f 682 629 681
f 684 630 683
f 684 632 630
f 625 679 680
f 680 626 625
f 680 679 681
f 681 626 680
f 739 737 797
f 739 797 799
f 739 687 686
f 686 737 739
f 799 800 739
f 740 687 739
f 739 800 740
f 734 794 793
f 734 737 735
f 793 737 734
f 792 794 734
f 734 735 683
f 683 732 734
f 732 792 734
f 637 636 638
f 638 634 637
f 575 636 637
f 637 634 575
f 572 631 573
f 573 516 572
f 570 631 572
f 517 575 518
f 517 574 575
f 461 516 517
f 516 574 517
f 575 574 633
f 573 632 633
f 633 574 573
f 1004 1061 1062
f 1060 1004 1059
f 1060 1061 1004
f 1042 1109 1044
f 1044 985 1042
f 1041 1109 1042
f 983 1041 1042
f 1042 985 983
f 1131 1184 1185
f 1185 1184 1243
f 1185 1186 1131
f 1127 1181 1182
f 1128 1182 1183
f 1128 1127 1182
f 1064 1129 1065
f 1064 1126 1129
f 1065 1006 1064
f 1064 1006 1005
f 1064 1005 1004
f 1132 1071 1070
f 1070 1069 1132
f 1068 1069 1070
f 883 826 825
f 825 824 883
f 826 762 825
f 762 824 825
f 1243 1288 1244
f 1288 1289 1244
f 1244 1185 1243
f 1186 1185 1244
f 1194 1140 1139
f 1139 1193 1194
f 1192 1193 1138
f 1195 1188 1140
f 1195 1194 1253
f 1140 1194 1195
f 1253 1254 1195
f 1254 1246 1195
f 1195 1246 1188
f 1074 1077 1135
f 1136 1074 1135
f 1135 1188 1136
f 1140 1188 1135
f 1135 1077 1140
f 1018 1079 1080
f 1080 1079 1078
f 1078 1081 1080
f 1019 1082 1020
f 1019 1081 1082
f 1019 1080 1081
f 1020 960 1019
f 1019 960 1018
f 1018 1080 1019
f 1134 1075 1073
f 1075 1014 1073
f 1073 1072 1134
f 1303 1304 1274
f 1303 1273 1302
f 1274 1273 1303
f 1322 1304 1303
f 1302 1321 1303
f 1303 1321 1322
f 1327 1325 1306
f 1306 1326 1327
f 1306 1278 1305
f 1305 1326 1306
f 1317 1332 1333
f 1316 1332 1317
f 1317 1292 1291
f 1291 1316 1317
f 1320 1332 1331
f 1283 1240 1239
f 1182 1181 1239
f 1239 1240 1182
f 1284 1283 1309
f 1284 1240 1283
f 1309 1285 1284
f 1285 1240 1284
f 1241 1287 1242
f 1241 1285 1286
f 1286 1287 1241
f 1241 1184 1183
f 1242 1184 1241
f 1183 1240 1241
f 1241 1240 1285
f 1298 1271 1268
f 1268 1271 1228
f 1252 1295 1253
f 1252 1294 1295
f 1253 1194 1252
f 1252 1194 1193
f 924 858 857
f 924 861 858
f 922 989 990
f 990 988 922
f 922 987 986
f 986 989 922
f 921 987 922
f 988 924 922
f 922 854 921
f 1046 990 1045
f 1046 1047 990
f 988 994 927
f 927 924 988
f 861 924 927
f 1052 994 1047
f 480 429 476
f 480 476 531
f 531 481 480
f 481 429 480
f 434 433 435
f 435 378 434
f 434 378 433
f 282 328 326
f 326 328 374
f 326 327 282
f 326 374 327
f 390 391 339
f 339 389 390
f 447 453 442
f 442 392 447
f 447 392 391
f 613 614 556
f 556 555 613
f 557 503 556
f 556 614 557
f 841 901 842
f 842 780 841
f 841 780 779
f 779 840 841
f 841 840 901
f 450 451 394
f 450 453 502
f 450 394 453
f 1013 1014 954
f 1013 1073 1014
f 1072 1073 1013
f 1071 1072 1013
f 1013 1070 1071
f 883 951 952
f 952 951 953
f 885 952 953
f 886 954 955
f 955 887 886
f 887 829 886
f 886 885 954
f 829 885 886
f 765 827 828
f 828 829 765
f 827 829 828
f 961 1021 962
f 962 890 961
f 1018 960 959
f 960 890 959
f 545 489 544
f 544 603 545
f 544 489 543
f 543 603 544
f 541 600 542
f 541 487 540
f 542 488 541
f 488 487 541
f 879 945 946
f 877 945 879
f 946 947 879
f 879 947 948
f 948 880 879
f 820 877 879
f 879 880 820
f 482 535 536
f 536 483 482
f 537 483 536
f 651 595 594
f 594 595 537
f 757 756 758
f 757 702 756
f 757 758 703
f 703 702 757
f 1162 1219 1217
f 1217 1219 1220
f 1217 1163 1162
f 1220 1163 1217
f 1103 1104 1038
f 1103 1163 1104
f 1162 1163 1102
f 1102 1161 1162
f 1101 1100 1102
f 1163 1103 1102
f 1102 1038 1101
f 1102 1103 1038
f 1160 1161 1157
f 1157 1099 1160
f 1100 1099 1157
f 1157 1102 1100
f 1161 1102 1157
f 1213 1198 1216
f 1162 1161 1216
f 1216 1161 1213
f 868 869 808
f 869 810 808
f 808 748 747
f 808 810 748
f 808 807 866
f 747 807 808
f 866 867 808
f 808 867 868
f 937 869 936
f 869 935 936
f 997 937 936
f 936 935 997
f 933 869 868
f 933 935 869
f 868 867 933
f 934 935 933
f 933 867 934
f 1272 1233 1270
f 1116 1051 1119
f 1050 1051 992
f 1169 1112 1168
f 1053 1052 1115
f 1115 1052 1047
f 1115 1169 1171
f 118 101 100
f 100 117 118
f 99 117 100
f 101 77 100
f 77 99 100
f 206 176 175
f 177 176 206
f 142 143 119
f 174 144 143
f 143 173 174
f 172 144 174
f 174 173 172
f 522 464 521
f 521 519 522
f 464 519 521
f 683 736 685
f 685 684 683
f 685 736 686
f 571 516 513
f 571 572 516
f 513 512 571
f 571 512 570
f 570 572 571
f 518 462 515
f 515 517 518
f 515 462 461
f 461 517 515
f 1180 1127 1125
f 1181 1127 1180
f 1063 1062 1125
f 1125 1127 1063
f 1126 1064 1063
f 1063 1128 1126
f 1127 1128 1063
f 1004 1062 1063
f 1063 1064 1004
f 1183 1184 1130
f 1130 1128 1183
f 1130 1184 1131
f 1131 1066 1130
f 1130 1066 1129
f 1129 1126 1130
f 1126 1128 1130
f 1245 1244 1289
f 1245 1248 1191
f 1245 1289 1248
f 1191 1186 1245
f 1186 1244 1245
f 1290 1314 1315
f 1315 1316 1290
f 1315 1332 1316
f 1315 1331 1332
f 1330 1321 1320
f 1320 1331 1330
f 1330 1314 1323
f 1330 1315 1314
f 1331 1315 1330
f 1323 1322 1330
f 1322 1321 1330
f 1298 1268 1266
f 1294 1252 1251
f 1250 1293 1251
f 1293 1294 1251
f 1251 1192 1250
f 1193 1192 1251
f 1251 1252 1193
f 923 924 857
f 923 922 924
f 857 854 923
f 854 922 923
f 1045 1112 1111
f 1111 1046 1045
f 1112 1169 1111
f 1047 1046 1111
f 929 861 928
f 861 927 928
f 928 994 929
f 928 927 994
f 391 390 446
f 446 447 391
f 503 451 501
f 501 556 503
f 451 450 501
f 501 450 502
f 502 555 501
f 555 556 501
f 1012 1013 954
f 1068 1070 1012
f 1070 1013 1012
f 884 885 829
f 952 885 884
f 884 829 883
f 883 952 884
f 891 890 963
f 890 962 963
f 963 962 1021
f 963 1021 967
f 967 964 963
f 963 892 891
f 963 964 893
f 893 892 963
f 957 1017 1018
f 1018 959 957
f 957 956 1017
f 537 536 593
f 593 536 535
f 593 594 537
f 651 594 593
f 593 650 651
f 592 650 593
f 593 535 592
f 1162 1216 1197
f 1197 1143 1142
f 1197 1198 1143
f 1197 1216 1198
f 1141 1078 1136
f 1141 1081 1078
f 1142 1081 1141
f 1141 1197 1142
f 1196 1197 1141
f 1260 1219 1247
f 1219 1196 1247
f 1247 1246 1260
f 1227 1233 1170
f 1233 1272 1229
f 1229 1272 1230
f 1229 1230 1173
f 929 994 995
f 995 1052 1053
f 994 1052 995
f 1114 1115 1047
f 1169 1115 1114
f 116 99 98
f 116 117 99
f 171 204 175
f 175 143 171
f 170 204 171
f 143 142 171
f 171 142 170
f 169 204 170
f 170 142 169
f 635 685 686
f 684 685 635
f 632 684 635
f 635 633 632
f 575 633 635
f 635 636 575
f 686 687 635
f 687 636 635
f 1298 1266 1297
f 1297 1266 1267
f 1296 1298 1297
f 1297 1267 1296
f 1225 1168 1224
f 1224 1265 1225
f 1265 1267 1225
f 1267 1266 1225
f 1226 1268 1228
f 1226 1266 1268
f 1226 1169 1168
f 1168 1225 1226
f 1226 1225 1266
f 1228 1171 1226
f 1171 1169 1226
f 1047 1111 1113
f 1113 1111 1169
f 1113 1114 1047
f 1169 1114 1113
f 445 446 390
f 498 446 445
f 445 444 498
f 887 956 888
f 956 957 888
f 888 830 887
f 889 830 888
f 1218 1219 1162
f 1162 1197 1218
f 1218 1196 1219
f 1218 1197 1196
f 1196 1141 1190
f 1190 1247 1196
f 1190 1141 1136
f 1246 1247 1190
f 1117 1170 1118
f 1118 1170 1119
f 1118 1050 1117
f 1118 1119 1051
f 1051 1050 1118
f 1174 1170 1233
f 1119 1170 1174
f 1233 1229 1175
f 1175 1229 1119
f 1175 1174 1233
f 1119 1174 1175
f 1172 1229 1173
f 1119 1229 1172
f 1173 1116 1172
f 1116 1119 1172
f 958 890 889
f 889 888 958
f 958 959 890
f 958 957 959
f 958 888 957
f 1189 1190 1136
f 1246 1190 1189
f 1136 1188 1189
f 1188 1246 1189
f 195 163 194
f 164 163 195
f 237 195 194
f 237 194 236
f 365 366 315
f 315 313 365
f 283 237 236
f 284 237 283
f 88 89 70
f 70 89 71
f 357 366 365
f 357 359 366
f 316 366 317
f 272 316 317
f 236 194 235
f 235 281 236
f 37 27 15
f 15 26 37
f 53 27 37
f 53 39 27
f 110 91 109
f 125 110 109
f 71 89 109
f 109 91 71
f 639 577 638
f 638 690 639
f 577 639 523
f 523 639 579
f 272 317 307
f 307 262 272
f 195 237 238
f 237 286 238
f 132 163 164
f 164 133 132
f 138 113 96
f 138 130 113
f 156 130 138
f 96 115 138
f 138 115 139
f 138 162 156
f 30 41 45
f 1 3 45
f 45 19 30
f 45 9 19
f 45 3 9
f 20 10 45
f 45 4 1
f 45 10 4
f 45 32 20
f 35 36 25
f 35 25 24
f 421 471 422
f 422 363 421
f 469 420 417
f 470 420 469
f 578 523 579
f 520 523 578
f 465 520 578
f 578 524 465
f 313 315 269
f 269 315 270
f 227 269 270
f 223 269 227
f 185 223 227
f 227 187 185
f 281 280 325
f 282 281 325
f 284 283 329
f 283 327 329
f 383 333 330
f 336 333 383
f 381 332 439
f 439 332 384
f 437 439 384
f 491 439 437
f 706 657 656
f 706 656 705
f 63 49 34
f 63 34 48
f 26 15 5
f 5 15 6
f 5 14 26
f 265 222 221
f 221 222 185
f 185 187 154
f 154 187 155
f 107 86 121
f 121 86 104
f 306 314 267
f 267 266 306
f 1319 1298 1318
f 1318 1333 1319
f 324 325 280
f 280 279 324
f 274 318 277
f 277 318 321
f 367 423 322
f 322 423 371
f 558 617 559
f 616 617 558
f 559 505 558
f 558 505 504
f 657 706 658
f 601 657 658
f 701 700 752
f 651 700 701
f 823 761 760
f 760 822 823
f 760 761 705
f 705 704 760
f 39 53 55
f 53 68 55
f 88 70 55
f 55 68 88
f 46 60 75
f 75 61 46
f 1299 1298 1319
f 1299 1271 1298
f 1299 1269 1228
f 1228 1271 1299
f 320 370 372
f 372 324 320
f 425 476 429
f 429 373 425
f 589 534 646
f 534 591 646
f 380 437 384
f 379 437 380
f 377 429 430
f 430 429 482
f 378 329 327
f 327 376 378
f 373 429 328
f 328 429 377
f 388 383 441
f 441 383 382
f 1071 1133 1072
f 1072 1133 1134
f 707 762 763
f 763 708 707
f 707 761 823
f 823 762 707
f 605 545 604
f 661 605 604
f 595 653 654
f 654 652 595
f 861 926 860
f 861 860 801
f 861 929 992
f 992 926 861
f 1228 1269 1171
f 1269 1227 1171
f 1249 1292 1192
f 1192 1292 1250
f 1191 1249 1192
f 1192 1138 1191
f 1306 1325 1307
f 1307 1278 1306
f 1333 1318 1317
f 1317 1318 1293
f 1250 1292 1317
f 1317 1293 1250
f 447 499 502
f 502 453 447
f 599 600 541
f 540 599 541
f 1272 1273 1230
f 1270 1273 1272
f 19 9 1180
f 1180 137 114
f 1180 9 8
f 1180 97 74
f 93 112 1180
f 1180 646 591
f 1180 153 184
f 1180 31 19
f 1180 591 533
f 364 422 1180
f 586 585 1180
f 44 31 1180
f 188 157 1180
f 8 18 1180
f 1180 59 44
f 184 220 1180
f 938 872 1180
f 811 870 1180
f 1180 1179 1237
f 1180 16 29
f 69 90 1180
f 745 806 1180
f 1180 311 364
f 1180 697 745
f 1180 1280 1307
f 1180 229 188
f 114 97 1180
f 999 1055 1180
f 1180 94 93
f 422 471 1180
f 220 264 1180
f 1180 939 938
f 1327 1328 1180
f 274 273 1180
f 533 478 1180
f 1180 157 131
f 74 59 1180
f 1180 18 16
f 29 40 1180
f 95 94 1180
f 1180 90 95
f 1180 530 586
f 471 472 1180
f 264 312 1180
f 1180 1002 1000
f 1282 1281 1180
f 1180 872 813
f 367 318 1180
f 1180 937 999
f 1180 423 367
f 131 137 1180
f 1180 112 127
f 1180 585 643
f 472 530 1180
f 643 697 1180
f 312 311 1180
f 127 153 1180
f 1000 940 1180
f 1180 56 69
f 1180 809 811
f 1180 1308 1283
f 1180 318 274
f 813 812 1180
f 1180 812 751
f 751 750 1180
f 698 647 1180
f 1180 1055 1120
f 1120 1124 1180
f 1237 1238 1180
f 1180 1325 1327
f 1180 1328 1308
f 1180 273 229
f 1180 750 698
f 1283 1239 1180
f 1180 473 423
f 1124 1179 1180
f 1180 1238 1282
f 1180 806 809
f 40 56 1180
f 1059 1002 1180
f 940 939 1180
f 1125 1062 1180
f 1307 1325 1180
f 1180 1281 1280
f 1180 1060 1059
f 647 646 1180
f 1180 478 473
f 1180 870 937
f 1180 1062 1061
f 1061 1060 1180
f 1180 1239 1181
f 499 447 446
f 498 499 446
f 953 1011 1012
f 1012 1011 1068
f 1012 885 953
f 954 885 1012
f 1170 1171 1227
f 1170 1115 1171
f 1170 1117 1053
f 1053 1115 1170
f 992 929 995
f 995 1050 992
f 1053 1117 995
f 1117 1050 995
f 169 203 244
f 244 294 169
f 1031 1093 169
f 169 41 30
f 30 43 169
f 169 73 96
f 96 113 169
f 620 672 169
f 169 782 781
f 43 58 169
f 169 113 136
f 169 245 207
f 136 168 169
f 1152 1094 169
f 168 201 169
f 169 1092 1091
f 974 910 169
f 169 844 783
f 169 507 454
f 169 295 249
f 201 203 169
f 1203 1256 169
f 1208 1207 169
f 909 905 169
f 454 396 169
f 249 248 169
f 169 294 343
f 559 617 169
f 169 1151 1208
f 169 58 73
f 169 1255 1203
f 561 560 169
f 783 727 169
f 169 621 620
f 169 975 974
f 169 57 41
f 169 505 559
f 671 726 169
f 169 1257 1210
f 1091 1151 169
f 169 1206 1205
f 76 75 169
f 207 177 169
f 169 727 673
f 673 621 169
f 1032 975 169
f 169 910 909
f 169 618 561
f 345 344 169
f 246 247 169
f 169 248 246
f 169 449 500
f 343 395 169
f 500 506 169
f 169 617 671
f 169 1259 1257
f 1205 1255 169
f 169 1207 1206
f 169 1030 1031
f 169 1209 1152
f 118 117 169
f 169 560 507
f 169 903 971
f 169 396 345
f 169 1094 1032
f 1210 1153 169
f 344 295 169
f 247 245 169
f 169 395 449
f 169 506 505
f 169 726 782
f 781 843 169
f 169 1256 1259
f 971 1030 169
f 1093 1092 169
f 169 140 118
f 672 618 169
f 169 905 844
f 169 843 904
f 904 903 169
f 60 62 169
f 169 98 76
f 169 75 60
f 169 206 175
f 1153 1209 169
f 62 57 169
f 141 140 169
f 175 204 169
f 177 206 169
f 169 116 98
f 117 116 169
f 119 141 169
f 169 142 119
f 445 390 389
f 445 389 444

