# https://github.com/mikedh/trimesh
v -0.01041930 -0.02225156 -0.00472123
v -0.01038092 -0.02283260 -0.00472123
v -0.01041930 -0.02225156 0.00047496
v -0.01041930 -0.01644500 -0.00472123
v -0.01038092 -0.02283260 0.00047496
v -0.00882611 -0.03331848 -0.00472123
v -0.01041930 -0.01644500 0.00047496
v -0.01041272 -0.01625132 0.00047496
v -0.01039956 -0.01586590 -0.00472123
v -0.00882611 -0.03331848 0.00047496
v -0.00777567 -0.03331848 -0.00472123
v -0.01039956 -0.01586590 0.00047496
v -0.01031513 -0.01550759 -0.00472123
v -0.00778006 -0.03331848 0.00047496
v -0.00777567 -0.03331848 -0.00378332
v 0.00078241 -0.02328194 -0.00472123
v -0.01031513 -0.01550759 0.00047496
v -0.01009584 -0.01544755 -0.00472123
v 0.00078241 -0.02328194 0.00047496
v 0.00078241 -0.01370636 -0.00472123
v -0.00299279 -0.01372379 0.00047496
v -0.00299389 -0.01363663 -0.00472123
v 0.00078241 -0.01385356 0.00047496
v -0.00241275 -0.01353204 -0.00472123
v -0.00241275 -0.01366568 0.00047496
v -0.00260683 -0.01368505 0.00047496
v -0.00263643 -0.01356303 -0.00472123
f 14 15 19
f 25 23 20
f 17 21 22
f 18 13 17
f 17 22 18
f 24 25 20
f 26 24 21
f 25 24 26
f 27 22 21
f 21 24 27
f 8 4 7
f 9 8 12
f 4 8 9
f 6 11 15
f 15 10 6
f 14 10 15
f 1 2 5
f 5 3 1
f 5 2 6
f 6 10 5
f 16 20 19
f 20 23 19
f 19 11 16
f 19 15 11
f 1 3 4
f 3 7 4
f 8 10 14
f 3 5 8
f 8 21 17
f 14 19 8
f 8 5 10
f 8 19 23
f 8 7 3
f 23 25 8
f 17 12 8
f 8 26 21
f 25 26 8
f 9 2 1
f 16 11 9
f 9 20 16
f 6 2 9
f 9 11 6
f 13 18 9
f 1 4 9
f 22 27 9
f 9 18 22
f 9 24 20
f 9 27 24
f 9 12 17
f 17 13 9

