# https://github.com/mikedh/trimesh
v -0.00735832 -0.02675269 -0.00413847
v -0.00735832 -0.02675269 -0.00542847
v -0.00735961 -0.02675269 -0.00383669
v 0.00033991 -0.02787104 0.00053472
v 0.00033991 -0.02803592 -0.00542847
v -0.01276852 -0.02675269 -0.00542847
v -0.00736474 -0.02675269 -0.00353316
v 0.00033991 -0.02929615 0.00053472
v -0.00782928 -0.02675269 0.00053472
v 0.00033991 -0.02932171 -0.00542847
v -0.01276852 -0.02943802 -0.00542847
v -0.01276852 -0.02675269 0.00053472
v -0.00726208 -0.03980871 0.00053472
v -0.00723385 -0.03980871 -0.00542847
v -0.01276852 -0.02943802 0.00053472
v -0.01274542 -0.02970643 -0.00542847
v -0.00866083 -0.03980871 0.00053472
v -0.00865184 -0.03980871 -0.00542847
v -0.01272617 -0.02992882 0.00053472
v -0.01272617 -0.02992882 -0.00542847
v -0.01257860 -0.03041962 0.00053472
v -0.00866083 -0.03980871 -0.00025563
v -0.00865826 -0.03980871 -0.00277726
v -0.00868136 -0.03973841 -0.00542847
v -0.01257860 -0.03041962 -0.00542847
v -0.00865954 -0.03980871 -0.00179662
f 13 14 8
f 5 2 4
f 10 8 14
f 7 9 4
f 4 2 1
f 18 23 24
f 24 23 25
f 3 7 4
f 4 1 3
f 26 22 25
f 25 23 26
f 16 20 19
f 16 15 11
f 19 15 16
f 4 8 10
f 10 5 4
f 17 21 22
f 22 21 25
f 3 2 6
f 12 9 3
f 6 12 3
f 9 7 3
f 3 1 2
f 26 18 14
f 13 17 26
f 26 14 13
f 26 23 18
f 17 22 26
f 25 21 20
f 21 19 20
f 4 9 15
f 15 8 4
f 13 8 15
f 15 9 12
f 15 17 13
f 15 21 17
f 15 19 21
f 15 12 6
f 6 11 15
f 2 5 16
f 6 2 16
f 14 18 16
f 16 10 14
f 16 11 6
f 5 10 16
f 18 24 16
f 16 24 25
f 25 20 16

