# https://github.com/mikedh/trimesh
v 0.00013647 0.00839887 0.00939021
v 0.00012661 0.00772308 0.01073972
v 0.00133349 0.00760798 0.01073972
v 0.00144859 0.00827226 0.00939021
v 0.00013647 0.00839887 0.00863597
v -0.00117729 0.00831665 0.00939021
v -0.00108192 0.00764744 0.01073972
v 0.00250749 0.00730544 0.01073972
v 0.00272618 0.00794505 0.00939021
v 0.00144859 0.00827226 0.00863597
v 0.00111316 0.00635834 0.00784028
v 0.00010523 0.00645371 0.00784028
v -0.00090434 0.00639123 0.00784028
v -0.00117729 0.00831665 0.00863597
v -0.00246310 0.00802891 0.00939021
v -0.00226579 0.00738436 0.01073972
v 0.00361901 0.00682367 0.01073972
v 0.00393471 0.00742053 0.00939021
v 0.00272618 0.00794505 0.00863597
v 0.00209478 0.00610513 0.00784028
v -0.00189254 0.00617090 0.00784028
v -0.00246310 0.00802891 0.00863597
v -0.00368971 0.00754550 0.00939021
v -0.00339210 0.00693877 0.01073972
v 0.00464174 0.00617419 0.01073972
v 0.00504787 0.00671350 0.00939021
v 0.00393471 0.00742053 0.00863597
v 0.00302379 0.00570228 0.00784028
v -0.00283470 0.00579930 0.00784028
v -0.00368971 0.00754550 0.00863597
v -0.00482425 0.00687464 0.00939021
v -0.00443621 0.00632217 0.01073972
v 0.00555101 0.00537179 0.01073972
v 0.00504787 0.00671350 0.00863597
v 0.00603607 0.00584040 0.00939021
v 0.00387880 0.00515968 0.00784028
v -0.00370780 0.00528300 0.00784028
v -0.00482425 0.00687464 0.00863597
v -0.00584040 0.00603607 0.00939021
v -0.00537179 0.00555101 0.01073972
v 0.00632217 0.00443621 0.01073972
v 0.00687464 0.00482425 0.00939021
v 0.00463845 0.00448882 0.00784028
v 0.00603607 0.00584040 0.00863597
v -0.00448882 0.00463845 0.00784028
v -0.00584040 0.00603607 0.00863597
v -0.00671350 0.00504787 0.00939021
v -0.00617419 0.00464174 0.01073972
v 0.00693877 0.00339210 0.01073972
v 0.00754550 0.00368971 0.00939021
v 0.00687464 0.00482425 0.00863597
v 0.00528300 0.00370780 0.00784028
v -0.00515968 0.00387880 0.00784028
v -0.00671350 0.00504787 0.00863597
v -0.00742053 0.00393471 0.00939021
v -0.00682367 0.00361901 0.01073972
v 0.00738436 0.00226579 0.01073972
v 0.00754550 0.00368971 0.00863597
v 0.00802891 0.00246310 0.00939021
v 0.00579930 0.00283470 0.00784028
v -0.00570228 0.00302379 0.00784028
v -0.00742053 0.00393471 0.00863597
v -0.00794505 0.00272618 0.00939021
v -0.00730544 0.00250749 0.01073972
v 0.00764744 0.00108192 0.01073972
v 0.00831665 0.00117729 0.00939021
v 0.00802891 0.00246310 0.00863597
v 0.00617090 0.00189254 0.00784028
v -0.00610513 0.00209478 0.00784028
v -0.00794505 0.00272618 0.00863597
v -0.00827226 0.00144859 0.00939021
v -0.00760798 0.00133349 0.01073972
v 0.00772308 -0.00012661 0.01073972
v 0.00839887 -0.00013647 0.00939021
v 0.00831665 0.00117729 0.00863597
v 0.00639123 0.00090434 0.00784028
v -0.00635834 0.00111316 0.00784028
v -0.00827226 0.00144859 0.00863597
v -0.00839887 0.00013647 0.00939021
v -0.00772308 0.00012661 0.01073972
v 0.00760798 -0.00133349 0.01073972
v 0.00839887 -0.00013647 0.00863597
v 0.00827226 -0.00144859 0.00939021
v 0.00645371 -0.00010523 0.00784028
v -0.00645371 0.00010523 0.00784028
v -0.00839887 0.00013647 0.00863597
v -0.00831665 -0.00117729 0.00939021
v -0.00764744 -0.00108192 0.01073972
v 0.00730544 -0.00250749 0.01073972
v 0.00794505 -0.00272618 0.00939021
v 0.00827226 -0.00144859 0.00863597
v 0.00635834 -0.00111316 0.00784028
v -0.00639123 -0.00090434 0.00784028
v -0.00831665 -0.00117729 0.00863597
v -0.00802891 -0.00246310 0.00939021
v -0.00738436 -0.00226579 0.01073972
v 0.00682367 -0.00361901 0.01073972
v 0.00794505 -0.00272618 0.00863597
v 0.00742053 -0.00393471 0.00939021
v 0.00610513 -0.00209478 0.00784028
v -0.00617090 -0.00189254 0.00784028
v -0.00802891 -0.00246310 0.00863597
v -0.00754550 -0.00368971 0.00939021
v -0.00693877 -0.00339210 0.01073972
v 0.00617419 -0.00464174 0.01073972
v 0.00742053 -0.00393471 0.00863597
v 0.00570228 -0.00302379 0.00784028
v 0.00671350 -0.00504787 0.00939021
v -0.00579930 -0.00283470 0.00784028
v -0.00754550 -0.00368971 0.00863597
v -0.00687464 -0.00482425 0.00939021
v -0.00632217 -0.00443621 0.01073972
v 0.00537179 -0.00555101 0.01073972
v 0.00671350 -0.00504787 0.00863597
v 0.00515968 -0.00387880 0.00784028
v 0.00584040 -0.00603607 0.00939021
v -0.00528300 -0.00370780 0.00784028
v -0.00687464 -0.00482425 0.00863597
v -0.00603607 -0.00584040 0.00939021
v -0.00555101 -0.00537179 0.01073972
v 0.00443621 -0.00632217 0.01073972
v 0.00482425 -0.00687464 0.00939021
v 0.00584040 -0.00603607 0.00863597
v 0.00448882 -0.00463845 0.00784028
v -0.00603607 -0.00584040 0.00863597
v -0.00463845 -0.00448882 0.00784028
v -0.00504787 -0.00671350 0.00939021
v -0.00464174 -0.00617419 0.01073972
v 0.00339210 -0.00693877 0.01073972
v 0.00368971 -0.00754550 0.00939021
v 0.00482425 -0.00687464 0.00863597
v 0.00370780 -0.00528300 0.00784028
v -0.00504787 -0.00671350 0.00863597
v -0.00387880 -0.00515968 0.00784028
v -0.00393471 -0.00742053 0.00939021
v -0.00361901 -0.00682367 0.01073972
v 0.00226579 -0.00738436 0.01073972
v 0.00246310 -0.00802891 0.00939021
v 0.00368971 -0.00754550 0.00863597
v 0.00283470 -0.00579930 0.00784028
v -0.00393471 -0.00742053 0.00863597
v -0.00302379 -0.00570228 0.00784028
v -0.00272618 -0.00794505 0.00939021
v -0.00250749 -0.00730544 0.01073972
v 0.00108192 -0.00764744 0.01073972
v 0.00117729 -0.00831665 0.00939021
v 0.00246310 -0.00802891 0.00863597
v 0.00189254 -0.00617090 0.00784028
v -0.00272618 -0.00794505 0.00863597
v -0.00209478 -0.00610513 0.00784028
v -0.00144859 -0.00827226 0.00939021
v -0.00133349 -0.00760798 0.01073972
v -0.00012661 -0.00772308 0.01073972
v 0.00117729 -0.00831665 0.00863597
v -0.00013647 -0.00839887 0.00939021
v 0.00090434 -0.00639123 0.00784028
v -0.00111316 -0.00635834 0.00784028
v -0.00144859 -0.00827226 0.00863597
v -0.00013647 -0.00839887 0.00863597
v -0.00010523 -0.00645371 0.00784028
f 73 81 74
f 30 29 38
f 119 120 111
f 152 151 155
f 114 123 124
f 66 73 74
f 98 92 91
f 106 107 98
f 91 92 82
f 74 81 83
f 81 90 83
f 19 20 11
f 50 42 41
f 128 135 136
f 87 80 79
f 16 15 23
f 6 15 16
f 55 63 56
f 126 133 125
f 135 128 127
f 127 128 120
f 127 120 119
f 112 111 120
f 126 125 117
f 149 150 157
f 134 133 126
f 134 141 133
f 139 140 131
f 159 157 160
f 136 135 143
f 151 152 143
f 153 152 155
f 155 146 153
f 153 146 145
f 44 52 43
f 58 67 68
f 59 50 57
f 57 66 59
f 65 66 57
f 73 66 65
f 115 114 124
f 106 114 115
f 115 107 106
f 92 98 100
f 100 98 107
f 89 90 81
f 89 97 90
f 3 8 9
f 9 8 17
f 20 19 28
f 11 12 5
f 12 13 5
f 5 13 14
f 36 28 27
f 27 28 19
f 57 50 49
f 50 41 49
f 121 122 113
f 130 122 121
f 121 129 130
f 80 87 88
f 88 87 96
f 104 96 103
f 103 112 104
f 111 112 103
f 14 13 21
f 29 30 21
f 14 21 22
f 22 21 30
f 24 16 23
f 2 6 7
f 6 16 7
f 63 71 72
f 79 80 72
f 72 71 79
f 55 56 48
f 118 117 125
f 109 117 118
f 110 109 118
f 101 109 110
f 110 102 101
f 94 93 101
f 101 102 94
f 55 48 47
f 47 48 40
f 40 39 47
f 46 45 54
f 31 39 40
f 54 45 53
f 62 54 53
f 61 62 53
f 38 29 37
f 37 46 38
f 45 46 37
f 70 62 61
f 70 77 78
f 86 93 94
f 78 77 86
f 141 134 142
f 149 141 142
f 142 150 149
f 132 131 140
f 124 123 132
f 123 131 132
f 149 157 158
f 157 159 158
f 136 143 144
f 144 143 152
f 90 97 99
f 113 108 105
f 108 99 105
f 105 99 97
f 113 122 116
f 116 108 113
f 51 52 44
f 60 58 68
f 60 51 58
f 52 51 60
f 84 82 92
f 84 76 82
f 75 76 68
f 68 67 75
f 82 76 75
f 18 17 25
f 25 26 18
f 9 17 18
f 1 6 2
f 2 3 1
f 33 26 25
f 33 35 26
f 42 35 33
f 33 41 42
f 36 27 34
f 34 43 36
f 44 43 34
f 145 146 137
f 146 138 137
f 130 129 137
f 137 138 130
f 96 87 95
f 95 103 96
f 64 56 63
f 63 72 64
f 32 31 40
f 23 31 32
f 32 24 23
f 69 70 61
f 77 70 69
f 93 86 85
f 85 86 77
f 156 154 159
f 156 159 160
f 4 3 9
f 4 1 3
f 139 147 148
f 148 140 139
f 148 147 154
f 154 156 148
f 10 19 11
f 11 5 10
f 91 82 83
f 83 82 74
f 83 98 91
f 90 98 83
f 127 125 133
f 119 125 127
f 141 127 133
f 135 127 141
f 131 122 130
f 130 139 131
f 135 141 143
f 143 141 149
f 67 58 59
f 59 58 50
f 22 15 6
f 22 6 14
f 22 30 23
f 23 15 22
f 111 103 118
f 118 103 110
f 118 125 119
f 119 111 118
f 47 54 62
f 47 62 55
f 54 47 46
f 46 47 39
f 23 30 31
f 31 30 38
f 31 46 39
f 38 46 31
f 55 62 70
f 70 63 55
f 70 71 63
f 70 78 71
f 94 87 86
f 86 87 79
f 71 78 86
f 79 71 86
f 158 143 149
f 151 143 158
f 155 151 158
f 158 159 155
f 155 159 154
f 154 146 155
f 99 98 90
f 106 98 99
f 99 114 106
f 99 108 114
f 122 131 116
f 116 131 123
f 114 108 116
f 123 114 116
f 51 35 42
f 44 35 51
f 50 58 51
f 51 42 50
f 67 59 75
f 75 59 66
f 74 82 75
f 75 66 74
f 18 27 19
f 18 19 9
f 14 6 1
f 1 5 14
f 34 35 44
f 26 35 34
f 27 18 34
f 34 18 26
f 95 87 94
f 94 102 95
f 110 103 95
f 95 102 110
f 40 48 32
f 32 121 113
f 25 17 32
f 136 144 32
f 57 49 32
f 32 89 81
f 32 128 136
f 32 153 145
f 81 73 32
f 2 7 32
f 32 96 104
f 56 64 32
f 104 112 32
f 32 65 57
f 32 3 2
f 113 105 32
f 32 33 25
f 120 128 32
f 80 88 32
f 32 72 80
f 32 112 120
f 152 153 32
f 73 65 32
f 97 89 32
f 8 3 32
f 32 17 8
f 32 49 41
f 129 121 32
f 32 88 96
f 16 24 32
f 32 7 16
f 145 137 32
f 32 48 56
f 32 144 152
f 32 105 97
f 41 33 32
f 32 137 129
f 32 64 72
f 147 139 130
f 130 138 147
f 146 154 147
f 147 138 146
f 126 117 148
f 148 13 12
f 148 12 11
f 160 157 148
f 124 132 148
f 148 101 93
f 148 134 126
f 11 20 148
f 92 100 148
f 36 43 148
f 29 21 148
f 148 84 92
f 68 76 148
f 150 142 148
f 148 115 124
f 148 28 36
f 148 117 109
f 61 53 148
f 148 69 61
f 148 157 150
f 148 37 29
f 93 85 148
f 148 43 52
f 107 115 148
f 148 100 107
f 148 60 68
f 20 28 148
f 148 21 13
f 109 101 148
f 148 53 45
f 45 37 148
f 148 142 134
f 148 132 140
f 52 60 148
f 76 84 148
f 77 69 148
f 148 85 77
f 148 156 160
f 9 19 10
f 10 4 9
f 5 1 10
f 1 4 10

