# https://github.com/mikedh/trimesh
v -0.01355252 0.00811463 0.01431694
v -0.01409372 0.01228274 0.01431694
v -0.00883511 0.00811463 0.01431694
v -0.01355252 0.00811463 0.01433203
v -0.01410139 0.01234195 0.01431694
v -0.00355350 0.01701803 0.01431694
v -0.00355350 0.00811463 0.02978297
v -0.01330712 0.00811463 0.01500151
v -0.01461739 0.01762884 0.01476766
v -0.01468313 0.01707413 0.01439237
v -0.01465574 0.01666121 0.01432071
v -0.01465574 0.01666121 0.01431694
v -0.00355350 0.02221610 0.01431694
v -0.00355350 0.00811463 0.03356980
v -0.01408386 0.01680612 0.01593313
v -0.00861820 0.00811463 0.02778018
v -0.01466012 0.01829574 0.01488459
v -0.00846701 0.01208641 0.02958495
v -0.01259173 0.01707413 0.02009336
v -0.01197604 0.02034785 0.02291840
v -0.01408715 0.01844065 0.01649701
v -0.01471818 0.01762884 0.01449044
v -0.01470175 0.01736862 0.01431694
v -0.01468313 0.01707413 0.01431694
v -0.00384053 0.02218338 0.01431694
v -0.00355350 0.02226597 0.01437540
v -0.00355350 0.00820656 0.03356980
v -0.00383067 0.00811463 0.03358112
v -0.00818217 0.00811463 0.02896828
v -0.01404004 0.01929141 0.01692133
v -0.01443225 0.01873670 0.01565779
v -0.01458672 0.01873670 0.01516747
v -0.01474009 0.01813992 0.01459982
v -0.01369056 0.01929141 0.01787558
v -0.00696502 0.00821435 0.03231947
v -0.00739885 0.01042384 0.03191212
v -0.00910790 0.01615948 0.02926624
v -0.01105688 0.02095398 0.02563405
v -0.01189058 0.02049900 0.02320317
v -0.01474448 0.01816173 0.01431694
v -0.01471818 0.01762884 0.01431694
v -0.00355350 0.02244516 0.01465640
v -0.00355350 0.02226908 0.01437917
v -0.00992737 0.02037902 0.01431694
v -0.00992737 0.02053328 0.01457153
v -0.00974222 0.02070779 0.01477143
v -0.00912981 0.02124224 0.01536360
v -0.00355350 0.02289391 0.01540886
v -0.00355350 0.02288612 0.01539566
v -0.00355350 0.00876127 0.03342459
v -0.00383067 0.00876127 0.03347551
v -0.00438501 0.00876127 0.03354340
v -0.00604805 0.00931598 0.03356980
v -0.00493936 0.00876127 0.03357735
v -0.00383067 0.00820656 0.03358112
v -0.00549370 0.00811463 0.03358112
v -0.00738133 0.00811463 0.03115023
v -0.01246355 0.02039927 0.02159640
v -0.01413864 0.01929141 0.01664410
v -0.01133733 0.02095398 0.02486839
v -0.01236386 0.02039927 0.02187363
v -0.01464259 0.01901873 0.01485253
v -0.01465793 0.01873670 0.01489024
v -0.01426901 0.01929141 0.01621224
v -0.01470394 0.01874449 0.01459793
v -0.01472695 0.01845935 0.01431694
v -0.00683136 0.00811463 0.03264761
v -0.00679740 0.00811463 0.03274002
v -0.00684670 0.00931598 0.03302667
v -0.00697159 0.00986134 0.03287769
v -0.00853055 0.01466987 0.03031479
v -0.01029109 0.01985235 0.02733134
v -0.01076765 0.02115810 0.02649024
v -0.01057812 0.02039927 0.02674295
v -0.01074464 0.02078882 0.02642612
v -0.01041927 0.02022476 0.01431694
v -0.01069973 0.02013282 0.01431694
v -0.00992737 0.02081998 0.01508072
v -0.00919774 0.02182033 0.01642911
v -0.00933797 0.02133885 0.01565591
v -0.00877814 0.02244671 0.01731547
v -0.00355350 0.02345174 0.01641403
v -0.00604805 0.00986913 0.03341516
v -0.00493936 0.00931598 0.03344722
v -0.00355350 0.00917107 0.03320394
v -0.00383067 0.00923184 0.03324355
v -0.00435215 0.00936117 0.03329824
v -0.00549370 0.00931598 0.03352454
v -0.00660240 0.01029919 0.03318886
v -0.00689271 0.01023218 0.03313605
v -0.00656953 0.00931598 0.03334727
v -0.00604805 0.00876127 0.03357546
v -0.00549370 0.00876127 0.03358112
v -0.00604805 0.00820656 0.03356414
v -0.00604805 0.00811463 0.03356037
v -0.01245917 0.02072493 0.02158697
v -0.01134062 0.02127497 0.02487971
v -0.01412988 0.01962798 0.01662336
v -0.01464259 0.01901873 0.01481669
v -0.01417808 0.01966849 0.01621224
v -0.01471380 0.01863698 0.01431694
v -0.00677220 0.00811463 0.03280791
v -0.00681055 0.00876127 0.03293049
v -0.00686861 0.00967124 0.03308890
v -0.00649174 0.00811463 0.03332841
v -0.00855465 0.01504071 0.03036193
v -0.01021440 0.02004089 0.02758593
v -0.01019030 0.01967161 0.02753878
v -0.00689271 0.01004053 0.03313605
v -0.01076765 0.02133573 0.02649024
v -0.01240439 0.01956253 0.01431694
v -0.01306391 0.01959837 0.01477332
v -0.01116095 0.02062677 0.01547109
v -0.01048172 0.02095866 0.01565779
v -0.00996790 0.02141520 0.01616509
v -0.00937850 0.02164893 0.01623110
v -0.01024727 0.02180007 0.01701751
v -0.00937850 0.02193408 0.01674028
v -0.00893590 0.02229245 0.01712689
v -0.00355350 0.02390205 0.01726833
v -0.00355350 0.02364495 0.01676857
v -0.00923937 0.02239374 0.01749652
v -0.00660240 0.01057654 0.03306627
v -0.00549699 0.00990029 0.03327183
v -0.00604805 0.01026335 0.03319263
v -0.00660240 0.01097855 0.03285506
v -0.00355350 0.00944842 0.03302290
v -0.00355350 0.00971331 0.03284940
v -0.00355350 0.01063731 0.03224403
v -0.00493936 0.00974759 0.03321903
v -0.00747664 0.01244323 0.03204979
v -0.00855465 0.01519809 0.03036193
v -0.00653338 0.00876127 0.03334161
v -0.00649832 0.00820656 0.03333218
v -0.01250628 0.02076544 0.02120037
v -0.01354157 0.02013438 0.01820749
v -0.01139759 0.02132950 0.02452516
v -0.01075998 0.02178760 0.02593768
v -0.01074464 0.02170658 0.02630731
v -0.01436213 0.01894394 0.01442066
v -0.01415726 0.01963109 0.01565779
v -0.01410249 0.01957811 0.01536360
v -0.01354924 0.02014062 0.01787558
v -0.01355362 0.02013906 0.01732113
v -0.01355362 0.02013906 0.01676669
v -0.01376068 0.01997545 0.01621224
v -0.01436213 0.01887070 0.01431694
v -0.01021440 0.02016710 0.02758593
v -0.01034039 0.02095398 0.02716161
v -0.01051458 0.02150714 0.02671654
v -0.01402361 0.01902029 0.01431694
v -0.01380779 0.01962953 0.01527308
v -0.01085858 0.02126562 0.01642911
v -0.01045214 0.02161309 0.01680629
v -0.01214475 0.02077323 0.01631973
v -0.01249094 0.02070935 0.01643100
v -0.00355350 0.02400489 0.01751538
v -0.01076108 0.02178760 0.01759270
v -0.00958994 0.02231583 0.01787558
v -0.00931277 0.02242490 0.01787558
v -0.00881978 0.02261500 0.01787558
v -0.00359841 0.02401268 0.01757007
v -0.01147428 0.02130457 0.01691001
v -0.00799374 0.01458572 0.03090318
v -0.00604805 0.01054070 0.03301158
v -0.00660240 0.01163610 0.03244959
v -0.00740324 0.01348565 0.03146328
v -0.00797730 0.01458572 0.03090318
v -0.00660240 0.01135874 0.03262875
v -0.00383067 0.01153326 0.03173485
v -0.00588700 0.01120604 0.03253069
v -0.00355350 0.01399050 0.03004511
v -0.00913200 0.01741381 0.02927001
v -0.01255339 0.02078103 0.02064592
v -0.01052882 0.02188889 0.02614890
v -0.00959213 0.02231583 0.02563405
v -0.00992737 0.02216468 0.02563405
v -0.01048172 0.02192161 0.01843002
v -0.01076217 0.02178760 0.02397072
v -0.01103935 0.02164114 0.02397072
v -0.01155096 0.02136378 0.02286371
v -0.01183033 0.02120485 0.02230926
v -0.01037435 0.02187175 0.02657322
v -0.01410139 0.01899068 0.01431694
v -0.01350103 0.02011257 0.01602554
v -0.01313183 0.02017490 0.01584261
v -0.01406195 0.01900627 0.01431694
v -0.01257858 0.02078103 0.02009336
v -0.01325344 0.02033850 0.01787558
v -0.01325344 0.02033539 0.01676669
v -0.01354595 0.02013282 0.01639517
v -0.01285795 0.02060028 0.01843002
v -0.01028342 0.02130925 0.02706920
v -0.01255120 0.02075142 0.01676669
v -0.01214475 0.02095398 0.01676669
v -0.00355350 0.02401580 0.01755309
v -0.01103935 0.02164270 0.01787558
v -0.01076217 0.02178760 0.01787558
v -0.01048172 0.02192161 0.01787558
v -0.00992737 0.02217247 0.01787558
v -0.01155644 0.02135443 0.01732113
v -0.01183362 0.02121420 0.01732113
v -0.00881978 0.02263058 0.01843002
v -0.00806166 0.02292351 0.01953892
v -0.00804303 0.02291417 0.01898447
v -0.00633946 0.02345329 0.01869216
v -0.00493936 0.02377740 0.01843002
v -0.00438501 0.02389426 0.01843002
v -0.00363347 0.02401735 0.01787558
v -0.00355350 0.02403138 0.01787558
v -0.00771109 0.01522925 0.03040719
v -0.00937302 0.01984612 0.02784807
v -0.01002268 0.02130925 0.02706920
v -0.00383067 0.01551595 0.02912292
v -0.00718084 0.01488022 0.03048640
v -0.00355350 0.02046472 0.02579812
v -0.00931496 0.02242490 0.02563405
v -0.00992737 0.02210703 0.02618850
v -0.00930839 0.02243113 0.02507961
v -0.01155316 0.02136378 0.02230926
v -0.01155863 0.02136534 0.01787558
v -0.01183033 0.02121108 0.02175482
v -0.01214475 0.02103812 0.02064592
v -0.00992737 0.02191538 0.02659396
v -0.00924266 0.02239374 0.02597728
v -0.01282837 0.02059716 0.01676669
v -0.01258406 0.02077947 0.01953892
v -0.01257639 0.02077791 0.01732113
v -0.01257858 0.02077947 0.01787558
v -0.01258078 0.02077947 0.01843002
v -0.01214475 0.02103968 0.01732113
v -0.01183581 0.02121420 0.01787558
v -0.00881978 0.02262279 0.02507961
v -0.00771109 0.02304038 0.01953892
v -0.00771109 0.02302324 0.02452516
v -0.00715674 0.02321645 0.02397072
v -0.00715674 0.02321957 0.01953892
v -0.00634932 0.02345641 0.01898447
v -0.00604805 0.02352809 0.01898447
v -0.00635590 0.02345797 0.02397072
v -0.00438501 0.02388958 0.01898447
v -0.00361594 0.02401580 0.02175482
v -0.00391831 0.02397061 0.02009336
v -0.00392269 0.02397217 0.01953892
v -0.00392269 0.02397372 0.01898447
v -0.00392269 0.02397372 0.01843002
v -0.00604805 0.02352030 0.02397072
v -0.00549370 0.02363404 0.02341816
v -0.00355350 0.02403293 0.01829236
v -0.00937302 0.02089321 0.02716161
v -0.00937302 0.02186240 0.02652041
v -0.00987369 0.02150090 0.02689947
v -0.00965239 0.02122978 0.02701828
v -0.00809562 0.02229401 0.02588110
v -0.00355350 0.02272718 0.02431394
v -0.00799264 0.02289547 0.02535872
v -0.00828844 0.02280821 0.02507961
v -0.00846482 0.02236725 0.02593202
v -0.00881978 0.02240153 0.02597728
v -0.00797401 0.02289547 0.02535872
v -0.00801126 0.02290326 0.02507961
v -0.00715674 0.02320087 0.02452516
v -0.00663307 0.02337850 0.02397072
v -0.00663197 0.02337850 0.02120037
v -0.00663088 0.02337850 0.02009336
v -0.00662978 0.02337850 0.01953892
v -0.00663307 0.02337850 0.02286371
v -0.00635261 0.02345641 0.01953892
v -0.00635590 0.02345797 0.02286371
v -0.00634604 0.02345485 0.02426680
v -0.00493936 0.02374311 0.02341816
v -0.00355350 0.02402670 0.02175482
v -0.00362580 0.02401735 0.02120037
v -0.00355350 0.02401735 0.02286371
v -0.00355350 0.02402982 0.02120037
v -0.00355350 0.02403293 0.01898447
v -0.00355350 0.02403138 0.02064592
v -0.00357760 0.02400801 0.02315413
v -0.00868941 0.02172216 0.02642423
v -0.00355350 0.02337071 0.02389151
v -0.00495141 0.02319775 0.02439881
v -0.00604805 0.02297338 0.02485519
v -0.00477393 0.02340032 0.02421399
v -0.00514423 0.02347043 0.02426868
v -0.00549370 0.02349537 0.02430640
v -0.00604805 0.02348446 0.02430451
v -0.00760482 0.02286586 0.02532477
v -0.00355350 0.02401268 0.02313150
v -0.00355350 0.02400956 0.02315602
v -0.00355350 0.02354834 0.02376893
v -0.00383067 0.02359353 0.02380853
v -0.00355350 0.02394879 0.02328614
v -0.00355350 0.02364807 0.02366898
f 7 3 6
f 4 8 9
f 22 33 40
f 40 33 66
f 11 12 5
f 5 4 11
f 20 21 9
f 10 4 9
f 11 4 10
f 18 29 35
f 16 29 18
f 72 108 73
f 33 22 17
f 17 10 9
f 22 10 17
f 9 21 17
f 21 20 17
f 1 4 2
f 4 5 2
f 38 75 73
f 39 20 38
f 9 18 19
f 19 20 9
f 41 22 40
f 57 35 29
f 8 16 15
f 9 8 15
f 15 18 9
f 15 16 18
f 18 35 36
f 73 75 74
f 108 72 71
f 73 108 107
f 108 71 107
f 193 148 173
f 13 25 26
f 26 25 43
f 157 120 122
f 122 120 81
f 82 48 81
f 218 225 217
f 218 183 225
f 263 270 240
f 163 158 122
f 98 59 96
f 39 38 60
f 60 38 73
f 35 57 67
f 104 105 109
f 109 71 104
f 124 130 125
f 37 71 72
f 37 72 73
f 73 74 37
f 37 74 75
f 75 38 37
f 18 36 37
f 37 38 20
f 37 19 18
f 20 19 37
f 149 110 148
f 149 148 193
f 193 183 150
f 150 149 193
f 110 149 150
f 106 71 109
f 106 107 71
f 90 53 89
f 109 91 90
f 91 53 90
f 43 25 42
f 82 81 121
f 121 81 120
f 47 48 25
f 47 81 48
f 175 218 217
f 183 218 175
f 247 208 240
f 240 270 247
f 270 263 262
f 262 263 236
f 217 233 219
f 257 233 217
f 30 59 31
f 30 20 39
f 39 60 30
f 31 17 30
f 58 96 59
f 59 30 58
f 23 24 10
f 23 10 22
f 22 41 23
f 102 105 103
f 95 91 133
f 133 91 109
f 92 53 91
f 52 53 27
f 89 53 83
f 83 123 89
f 125 126 83
f 126 123 83
f 83 124 125
f 224 183 193
f 225 183 224
f 131 173 148
f 89 123 131
f 131 90 89
f 129 130 86
f 130 124 86
f 25 48 49
f 49 42 25
f 151 112 111
f 111 112 77
f 77 112 113
f 45 25 44
f 44 76 45
f 45 76 77
f 274 242 271
f 241 242 208
f 271 242 241
f 162 210 196
f 196 157 162
f 162 157 122
f 235 262 236
f 261 262 235
f 235 257 261
f 233 257 235
f 176 175 217
f 217 219 176
f 176 138 175
f 140 101 99
f 99 142 140
f 65 101 66
f 65 66 33
f 99 101 65
f 33 63 65
f 145 100 144
f 98 96 136
f 136 100 98
f 98 100 62
f 62 100 99
f 99 65 62
f 62 65 63
f 64 59 98
f 98 62 64
f 146 191 185
f 146 100 145
f 145 191 146
f 99 100 141
f 141 142 99
f 100 146 141
f 185 142 141
f 141 146 185
f 185 191 226
f 231 202 226
f 226 228 231
f 156 142 185
f 156 163 122
f 163 156 195
f 34 17 20
f 20 30 34
f 34 30 17
f 61 30 60
f 60 58 61
f 61 58 30
f 102 103 68
f 35 67 68
f 70 36 35
f 70 37 36
f 70 104 71
f 71 37 70
f 134 105 95
f 95 133 134
f 109 105 134
f 134 133 109
f 95 56 94
f 56 92 94
f 94 91 95
f 94 92 91
f 93 92 56
f 53 92 93
f 53 52 88
f 88 83 53
f 84 83 88
f 213 224 193
f 225 224 256
f 224 260 256
f 217 225 256
f 256 257 217
f 261 257 256
f 256 262 261
f 270 262 256
f 259 224 258
f 259 260 224
f 258 254 284
f 132 131 148
f 90 131 132
f 127 86 85
f 124 83 87
f 87 86 124
f 85 86 50
f 86 87 50
f 50 83 84
f 50 87 83
f 171 130 129
f 171 172 214
f 114 113 115
f 153 113 112
f 153 154 115
f 115 113 153
f 46 47 25
f 25 45 46
f 46 45 77
f 122 81 119
f 73 110 97
f 97 60 73
f 96 58 97
f 97 58 60
f 242 274 272
f 278 274 271
f 271 247 278
f 278 247 270
f 248 247 271
f 271 241 248
f 208 247 248
f 248 241 208
f 208 210 209
f 209 162 208
f 210 162 209
f 159 200 176
f 158 200 159
f 122 158 159
f 159 160 122
f 206 239 207
f 208 162 207
f 207 162 206
f 240 208 207
f 207 239 240
f 238 239 206
f 236 263 237
f 237 238 206
f 266 238 237
f 101 140 147
f 143 144 100
f 100 136 143
f 32 62 63
f 32 64 62
f 33 17 32
f 32 63 33
f 32 17 31
f 31 59 32
f 59 64 32
f 117 156 122
f 155 156 117
f 154 153 117
f 117 153 155
f 122 119 117
f 117 119 118
f 115 154 117
f 145 144 189
f 144 143 189
f 190 226 191
f 228 226 190
f 190 191 145
f 142 156 186
f 186 156 155
f 158 163 201
f 163 195 201
f 201 202 158
f 194 226 202
f 202 201 194
f 194 201 195
f 185 226 194
f 194 156 185
f 194 195 156
f 35 68 69
f 69 68 103
f 69 70 35
f 104 70 69
f 105 104 69
f 69 103 105
f 54 93 55
f 53 93 54
f 55 27 54
f 27 53 54
f 169 126 125
f 258 224 251
f 251 254 258
f 251 213 254
f 193 173 164
f 173 131 164
f 164 123 126
f 164 131 123
f 285 256 260
f 283 284 254
f 287 259 258
f 258 284 287
f 260 259 287
f 287 285 260
f 284 285 287
f 129 86 128
f 86 127 128
f 27 50 51
f 51 52 27
f 51 50 84
f 84 88 51
f 51 88 52
f 214 172 216
f 216 255 214
f 129 172 170
f 170 171 129
f 172 171 170
f 214 255 250
f 250 255 280
f 280 254 250
f 125 130 165
f 130 171 165
f 152 153 112
f 155 153 152
f 152 186 155
f 152 112 151
f 151 142 152
f 142 186 152
f 118 119 79
f 81 47 79
f 79 119 81
f 115 117 79
f 79 117 118
f 139 97 110
f 139 150 183
f 110 150 139
f 183 175 139
f 175 138 139
f 96 138 135
f 135 136 96
f 158 202 197
f 202 221 197
f 242 272 273
f 288 278 289
f 274 278 288
f 245 244 277
f 208 244 245
f 199 200 158
f 138 176 177
f 176 200 177
f 240 239 269
f 204 235 236
f 233 235 204
f 184 147 140
f 184 140 142
f 188 189 143
f 228 190 229
f 231 228 229
f 224 213 252
f 252 251 224
f 213 251 252
f 126 169 168
f 168 164 126
f 168 169 125
f 289 285 292
f 292 285 284
f 290 283 280
f 284 283 290
f 270 256 286
f 256 285 286
f 286 285 289
f 289 278 286
f 286 278 270
f 281 254 280
f 280 283 281
f 215 171 214
f 214 250 215
f 254 213 253
f 213 250 253
f 47 46 80
f 80 79 47
f 46 79 80
f 78 79 46
f 78 46 77
f 78 114 115
f 77 113 78
f 113 114 78
f 96 97 137
f 97 139 137
f 137 138 96
f 137 139 138
f 158 197 198
f 198 199 158
f 179 198 197
f 221 220 180
f 138 179 180
f 180 197 221
f 180 179 197
f 232 202 231
f 231 223 232
f 232 221 202
f 232 220 221
f 275 273 272
f 277 244 275
f 244 273 275
f 208 242 243
f 242 273 243
f 243 244 208
f 243 273 244
f 276 245 277
f 246 249 210
f 246 210 208
f 208 245 246
f 138 177 178
f 178 177 200
f 200 199 178
f 178 179 138
f 239 238 268
f 268 269 239
f 268 238 266
f 266 269 268
f 266 237 265
f 237 264 265
f 265 269 266
f 265 264 269
f 269 264 267
f 267 237 263
f 267 264 237
f 236 237 234
f 234 204 236
f 203 176 219
f 203 159 176
f 203 219 233
f 233 204 203
f 160 159 203
f 187 142 151
f 187 184 142
f 223 188 182
f 174 135 138
f 138 182 174
f 174 182 188
f 136 135 174
f 174 143 136
f 174 188 143
f 192 229 190
f 145 189 192
f 192 190 145
f 167 168 125
f 167 165 171
f 213 168 212
f 212 250 213
f 168 167 212
f 293 292 291
f 291 292 284
f 291 290 293
f 284 290 291
f 282 283 254
f 254 281 282
f 282 281 283
f 279 250 254
f 254 253 279
f 279 253 250
f 115 79 116
f 116 78 115
f 79 78 116
f 222 232 223
f 220 232 222
f 205 237 206
f 205 234 237
f 204 234 205
f 189 188 227
f 227 192 189
f 227 223 231
f 227 188 223
f 125 165 166
f 166 167 125
f 165 167 166
f 171 215 211
f 211 167 171
f 211 215 250
f 250 212 211
f 211 212 167
f 181 182 138
f 220 222 181
f 223 182 181
f 181 222 223
f 138 180 181
f 181 180 220
f 161 205 206
f 160 203 161
f 161 203 204
f 204 205 161
f 122 160 161
f 161 162 122
f 206 162 161
f 229 192 230
f 192 227 230
f 231 229 230
f 230 227 231
f 28 14 27
f 27 55 28
f 148 110 107
f 107 110 73
f 24 12 11
f 11 10 24
f 1 3 68
f 68 7 14
f 68 16 8
f 68 14 28
f 3 7 68
f 68 4 1
f 8 4 68
f 68 105 102
f 28 56 68
f 29 16 68
f 68 57 29
f 95 105 68
f 68 56 95
f 68 67 57
f 28 55 93
f 93 56 28
f 148 107 132
f 107 106 132
f 132 106 109
f 109 90 132
f 193 164 168
f 168 213 193
f 276 7 6
f 6 13 276
f 276 26 43
f 277 275 276
f 14 7 276
f 276 157 196
f 276 27 14
f 276 216 172
f 43 42 276
f 276 49 48
f 196 210 276
f 13 26 276
f 276 48 82
f 120 157 276
f 82 121 276
f 276 288 289
f 276 172 129
f 276 121 120
f 276 290 280
f 276 50 27
f 42 49 276
f 280 255 276
f 276 127 85
f 85 50 276
f 129 128 276
f 276 272 274
f 210 249 276
f 289 292 276
f 276 128 127
f 255 216 276
f 274 288 276
f 276 292 293
f 293 290 276
f 276 275 272
f 246 276 249
f 245 276 246
f 198 179 178
f 199 198 178
f 240 269 267
f 267 263 240
f 187 25 13
f 6 3 187
f 187 3 1
f 187 13 6
f 1 2 187
f 40 66 187
f 187 41 40
f 187 76 44
f 187 5 12
f 44 25 187
f 187 2 5
f 187 23 41
f 12 24 187
f 151 111 187
f 77 76 187
f 66 101 187
f 24 23 187
f 187 111 77
f 101 147 187
f 147 184 187

