# https://github.com/mikedh/trimesh
v -0.00404175 -0.01206932 0.02080751
v -0.00404175 -0.01207049 0.02120027
v -0.00404175 -0.00384807 0.02080751
v -0.00366790 -0.01217893 0.02080751
v -0.00382961 -0.01216960 0.03228547
v -0.00404175 -0.01210197 0.03228547
v -0.00404175 -0.00085037 0.02786145
v 0.01372215 -0.00085037 0.02506658
v 0.01372215 -0.00096463 0.02486077
v 0.01372215 -0.00115235 0.02452614
v 0.01372215 -0.00155345 0.02381132
v 0.01372215 -0.00323944 0.02080751
v -0.00327492 -0.01229319 0.02080751
v -0.00327492 -0.01233283 0.03284005
v -0.00404175 -0.01209381 0.03251799
v -0.00404175 -0.00085037 0.03258240
v 0.01372215 -0.00085037 0.03358157
v 0.01372215 -0.00522275 0.02080751
v -0.00272024 -0.01245409 0.02080751
v -0.00370789 -0.01211013 0.03325166
v -0.00386787 -0.01213812 0.03285262
v -0.00260547 -0.01248441 0.02080751
v -0.00232900 -0.01255670 0.02080751
v -0.00272024 -0.01246809 0.03284005
v -0.00200558 -0.01260101 0.03316839
v -0.00404175 -0.01208332 0.03273793
v -0.00404175 -0.00565183 0.03355330
v -0.00197776 -0.00085037 0.03657125
v 0.01372215 -0.00362071 0.03358157
v 0.00152773 -0.00085037 0.03681476
v 0.01372215 -0.00488812 0.03284005
v 0.00902731 -0.00910310 0.03284005
v 0.00874909 -0.00934912 0.03284005
v 0.00815267 -0.00986215 0.02120027
v 0.00815267 -0.00986215 0.02080751
v -0.00327492 -0.01218592 0.03333021
v -0.00327492 -0.01174868 0.03356272
v -0.00386787 -0.01173469 0.03330350
v -0.00404175 -0.01188044 0.03308984
v -0.00404175 -0.01195040 0.03301286
v -0.00233596 -0.01255903 0.03284005
v -0.00205079 -0.01261150 0.02080751
v -0.00205774 -0.01261150 0.03284005
v -0.00161260 -0.01265464 0.03284005
v -0.00161260 -0.01261733 0.03320767
v -0.00404175 -0.00620683 0.03354387
v -0.00404175 -0.00842334 0.03347475
v -0.00404175 -0.00897717 0.03345746
v -0.00404175 -0.00953101 0.03342919
v -0.00404175 -0.01008601 0.03338677
v -0.00404175 -0.01063985 0.03332864
v -0.00404175 -0.01119485 0.03325480
v -0.00404175 -0.01160061 0.03318882
v -0.00161956 -0.00085037 0.03677234
v 0.01372215 -0.00398916 0.03355644
v 0.00115910 -0.00085037 0.03681476
v -0.00105792 -0.00121765 0.03685718
v 0.00115910 -0.00121765 0.03684932
v 0.01372215 -0.00417454 0.03353916
v 0.01372215 -0.00484381 0.03315740
v 0.01253453 -0.00594215 0.03314169
v 0.00871258 -0.00931764 0.03321867
v 0.00811616 -0.00983066 0.03316211
v 0.00840828 -0.00962662 0.03284005
v 0.00815267 -0.00985981 0.02286399
v 0.00720327 -0.01052908 0.03284005
v 0.00781012 -0.01010700 0.02080751
v -0.00161260 -0.01230252 0.03344018
v -0.00105792 -0.01230252 0.03346532
v -0.00050323 -0.01230252 0.03348731
v 0.00005146 -0.00177265 0.03682890
v -0.00050323 -0.00177265 0.03679434
v -0.00192385 -0.01262433 0.02080751
v -0.00161260 -0.01265464 0.02080751
v -0.00145089 -0.01266280 0.02080751
v -0.00105792 -0.01268146 0.03284005
v 0.00060441 -0.01276075 0.03284005
v -0.00050323 -0.01264415 0.03325480
v -0.00105792 -0.01263016 0.03323281
v 0.00614606 -0.01063985 0.03352816
v 0.00670075 -0.01008601 0.03356901
v 0.00836307 -0.00897717 0.03354230
v 0.01335178 -0.00454416 0.03352816
v 0.01372215 -0.00453366 0.03338677
v 0.01372215 -0.00480883 0.03322338
v 0.01368563 -0.00487063 0.03320139
v 0.01311008 -0.00540581 0.03317468
v 0.00928813 -0.00878362 0.03323438
v 0.00890559 -0.00897251 0.03334121
v 0.00832656 -0.00951469 0.03329879
v 0.00712850 -0.01047428 0.03325480
v 0.00781012 -0.01008018 0.03284005
v 0.00813181 -0.00984116 0.03284005
v 0.00649905 -0.01096165 0.03320767
v 0.00681377 -0.01080658 0.03284005
v 0.00815094 -0.00985748 0.02397314
v 0.00692854 -0.01072613 0.02080751
v 0.00005146 -0.01265697 0.03327365
v 0.00060441 -0.01266980 0.03328936
v 0.00005146 -0.01230252 0.03350617
v 0.00060441 -0.01230252 0.03352188
v 0.00337610 -0.01174868 0.03355330
v 0.00060441 -0.01276075 0.02080751
v 0.00115910 -0.01272343 0.03284005
v 0.00115910 -0.01265114 0.03326109
v 0.00503843 -0.01119485 0.03350302
v 0.00614606 -0.01104677 0.03329565
v 0.00669032 -0.01065151 0.03334749
v 0.00781012 -0.00953101 0.03349674
v 0.00947245 -0.00842917 0.03335849
v 0.01279883 -0.00509799 0.03350774
v 0.01372215 -0.00468524 0.03331450
v 0.00503843 -0.01157495 0.03327051
v 0.00537576 -0.01149917 0.03317782
v 0.00614606 -0.01117736 0.03284005
v 0.00653730 -0.01098497 0.03284005
v 0.00673379 -0.01085905 0.02080751
v 0.00681377 -0.01080658 0.02080751
v 0.00115910 -0.01230252 0.03349360
v 0.00337610 -0.01216377 0.03332078
v 0.00393079 -0.01174868 0.03346375
v 0.00115910 -0.01272343 0.02080751
v 0.00131037 -0.01269545 0.02080751
v 0.00167901 -0.01262666 0.03284005
v 0.00159902 -0.01261150 0.03318882
v 0.00393079 -0.01208915 0.03323123
v 0.00422987 -0.01203551 0.03314169
v 0.00614606 -0.01117736 0.02080751
v 0.00626083 -0.01112139 0.02080751
v 0.00451678 -0.01191542 0.03284005
v 0.00653730 -0.01098497 0.02080751
v 0.00167901 -0.01262666 0.02080751
v 0.00204764 -0.01255670 0.02080751
v 0.00282316 -0.01240862 0.03284005
v 0.00337610 -0.01230252 0.03284005
v 0.00393079 -0.01215211 0.03284005
v 0.00424030 -0.01204018 0.03284005
v 0.00451678 -0.01191542 0.02080751
v 0.00443679 -0.01195156 0.02080751
v 0.00282316 -0.01240862 0.02080751
v 0.00337610 -0.01230252 0.02080751
v 0.00402121 -0.01211946 0.02080751
v 0.00393079 -0.01215211 0.02080751
v 0.00424030 -0.01204018 0.02080751
f 3 7 8
f 30 29 17
f 9 3 8
f 11 12 3
f 28 16 27
f 102 71 101
f 3 9 10
f 10 11 3
f 39 20 38
f 37 38 20
f 20 36 37
f 37 36 68
f 37 70 71
f 23 42 41
f 41 42 43
f 44 43 74
f 101 99 119
f 119 102 101
f 102 119 120
f 100 99 101
f 100 70 99
f 101 71 100
f 71 70 100
f 99 70 69
f 69 37 68
f 70 37 69
f 28 38 54
f 38 37 54
f 71 102 80
f 80 58 71
f 34 35 18
f 18 33 34
f 67 35 34
f 18 31 32
f 32 33 18
f 32 62 33
f 40 20 39
f 40 26 20
f 68 79 78
f 20 26 21
f 21 14 20
f 24 23 41
f 14 23 24
f 22 14 19
f 22 23 14
f 25 43 44
f 41 43 25
f 25 36 20
f 25 24 41
f 20 14 25
f 14 24 25
f 73 43 42
f 73 74 43
f 48 49 28
f 57 58 30
f 71 58 57
f 57 54 37
f 82 58 81
f 81 80 82
f 58 80 81
f 106 80 102
f 107 80 106
f 108 107 94
f 108 80 107
f 65 34 33
f 59 58 82
f 30 58 59
f 77 99 98
f 98 78 77
f 68 78 98
f 98 69 68
f 99 69 98
f 44 74 75
f 75 76 44
f 75 103 77
f 77 76 75
f 1 4 5
f 5 4 14
f 5 2 1
f 6 2 5
f 5 14 6
f 19 14 13
f 14 4 13
f 15 21 26
f 6 14 15
f 14 21 15
f 44 76 45
f 45 25 44
f 45 76 77
f 77 78 45
f 45 78 79
f 45 79 68
f 68 36 45
f 36 25 45
f 28 27 46
f 39 38 53
f 53 38 28
f 28 52 53
f 28 49 50
f 115 128 129
f 124 125 104
f 124 132 133
f 105 125 120
f 105 119 99
f 105 120 119
f 104 125 105
f 77 104 105
f 105 99 77
f 56 57 30
f 54 57 56
f 72 37 71
f 71 57 72
f 72 57 37
f 107 106 121
f 102 120 121
f 121 106 102
f 82 80 109
f 80 108 109
f 109 89 82
f 91 108 94
f 64 65 33
f 67 34 66
f 34 65 66
f 62 86 88
f 88 89 62
f 112 89 88
f 61 32 31
f 31 60 61
f 61 60 86
f 62 32 61
f 55 29 30
f 30 59 55
f 47 48 28
f 28 46 47
f 51 52 28
f 28 50 51
f 114 115 94
f 114 127 115
f 126 121 120
f 120 125 126
f 126 125 135
f 135 127 126
f 136 127 135
f 137 127 136
f 139 137 144
f 115 127 130
f 130 127 137
f 130 139 138
f 137 139 130
f 135 125 134
f 125 124 134
f 133 140 134
f 134 124 133
f 123 104 122
f 132 124 123
f 123 124 104
f 108 91 90
f 90 109 108
f 89 109 90
f 62 89 90
f 90 91 62
f 95 97 67
f 67 66 95
f 118 97 95
f 95 117 118
f 86 60 85
f 112 88 85
f 85 88 86
f 87 86 62
f 62 61 87
f 87 61 86
f 127 114 113
f 113 126 127
f 94 107 113
f 113 114 94
f 107 121 113
f 121 126 113
f 142 136 143
f 144 137 142
f 137 136 142
f 131 117 116
f 117 95 116
f 116 129 131
f 115 129 116
f 94 115 116
f 116 95 94
f 83 84 59
f 111 84 83
f 83 59 82
f 82 111 83
f 112 84 110
f 110 89 112
f 110 84 111
f 82 89 110
f 110 111 82
f 93 92 96
f 65 64 96
f 64 93 96
f 96 66 65
f 96 92 66
f 66 92 63
f 94 95 63
f 63 95 66
f 63 91 94
f 62 91 63
f 63 92 93
f 63 93 64
f 33 62 63
f 63 64 33
f 104 103 122
f 77 103 104
f 56 17 8
f 8 7 56
f 7 16 56
f 30 17 56
f 56 16 28
f 28 54 56
f 7 3 51
f 51 3 1
f 51 40 39
f 6 15 51
f 51 16 7
f 51 27 16
f 51 46 27
f 1 2 51
f 26 40 51
f 51 2 6
f 49 48 51
f 39 53 51
f 51 15 26
f 51 50 49
f 51 53 52
f 48 47 51
f 51 47 46
f 141 143 136
f 135 141 136
f 130 138 128
f 130 128 115
f 134 140 141
f 134 141 135
f 8 17 84
f 84 17 29
f 84 9 8
f 84 18 12
f 84 10 9
f 12 11 84
f 11 10 84
f 84 31 18
f 84 60 31
f 112 85 84
f 29 55 84
f 84 55 59
f 84 85 60
f 1 3 142
f 142 22 19
f 122 103 142
f 3 12 142
f 12 18 142
f 142 123 122
f 142 73 42
f 142 35 67
f 42 23 142
f 142 117 131
f 18 35 142
f 142 4 1
f 141 140 142
f 67 97 142
f 131 129 142
f 103 75 142
f 23 22 142
f 74 73 142
f 142 97 118
f 118 117 142
f 19 13 142
f 142 139 144
f 142 75 74
f 142 13 4
f 142 129 128
f 142 143 141
f 128 138 142
f 133 132 142
f 142 140 133
f 138 139 142
f 132 123 142

