# https://github.com/mikedh/trimesh
v -0.00865179 -0.03980871 -0.00542847
v -0.00847556 -0.04022398 -0.00542847
v -0.00848878 -0.04023014 -0.00319811
v -0.00865883 -0.03980871 -0.00277726
v -0.00723408 -0.03980871 -0.00542847
v -0.00842094 -0.04033537 -0.00542847
v -0.00825176 -0.04073833 -0.00319811
v -0.00836631 -0.04049296 -0.00319811
v -0.00849142 -0.04023014 -0.00123685
v -0.00836807 -0.04049655 -0.00074595
v -0.00865972 -0.03980871 -0.00172716
v -0.00849319 -0.04023014 0.00023527
v -0.00726228 -0.03980871 0.00053472
v 0.00033991 -0.04409749 0.00053472
v 0.00033991 -0.04408825 -0.00542847
v -0.00835485 -0.04046935 -0.00542847
v -0.00823062 -0.04072088 -0.00542847
v -0.00809845 -0.04098678 -0.00542847
v -0.00798831 -0.04120802 -0.00542847
v -0.00793280 -0.04131941 -0.00542847
v -0.00786496 -0.04145338 -0.00542847
v -0.00800593 -0.04119672 -0.00319811
v -0.00825176 -0.04073987 -0.00221748
v -0.00829758 -0.04064747 0.00053472
v -0.00844473 -0.04033435 0.00053472
v -0.00866148 -0.03980871 0.00053472
v -0.00849319 -0.04023014 0.00053472
v 0.00033991 -0.04505278 0.00053472
v 0.00033991 -0.04505278 -0.00542847
v -0.00786496 -0.04145338 -0.00368901
v -0.00766318 -0.04170183 -0.00542847
v -0.00724290 -0.04226597 -0.00319811
v -0.00825176 -0.04074295 0.00053472
v -0.00825176 -0.04074295 0.00023527
v -0.00825176 -0.04074244 -0.00025563
v -0.00825176 -0.04074192 -0.00074595
v -0.00836807 -0.04049758 0.00053472
v -0.00836807 -0.04049758 0.00023527
v -0.00271753 -0.04505278 0.00053472
v -0.00271753 -0.04505278 -0.00542847
v -0.00777420 -0.04153654 0.00053472
v -0.00784910 -0.04143080 0.00053472
v -0.00791077 -0.04133532 0.00053472
v -0.00800682 -0.04118543 0.00053472
v -0.00815660 -0.04091542 0.00053472
v -0.00724290 -0.04226597 0.00053472
v -0.00742881 -0.04202112 0.00053472
v -0.00756802 -0.04182605 0.00053472
v -0.00732836 -0.04211095 -0.00542847
v -0.00697328 -0.04254265 -0.00542847
v -0.00699795 -0.04255394 -0.00319811
v -0.00714774 -0.04237787 0.00053472
v -0.00320831 -0.04499170 0.00053472
v -0.00320831 -0.04499170 -0.00319811
v -0.00320831 -0.04498862 -0.00542847
v -0.00676445 -0.04278802 -0.00542847
v -0.00699795 -0.04255240 0.00053472
v -0.00676357 -0.04279469 -0.00368901
v -0.00350083 -0.04491008 0.00053472
v -0.00350083 -0.04491008 -0.00319811
v -0.00349114 -0.04490700 -0.00542847
v -0.00663053 -0.04292610 -0.00542847
v -0.00651863 -0.04304262 -0.00368901
v -0.00675212 -0.04279777 0.00053472
v -0.00651863 -0.04304057 -0.00542847
v -0.00365062 -0.04484643 0.00053472
v -0.00418810 -0.04461646 -0.00270780
v -0.00374578 -0.04480536 -0.00319811
v -0.00360216 -0.04485669 -0.00542847
v -0.00418810 -0.04461595 -0.00319811
v -0.00625341 -0.04328542 -0.00319811
v -0.00625253 -0.04328080 0.00053472
v -0.00635210 -0.04318481 0.00053472
v -0.00638470 -0.04315196 -0.00542847
v -0.00600758 -0.04350358 -0.00319811
v -0.00391848 -0.04473196 0.00053472
v -0.00432555 -0.04455384 0.00053472
v -0.00454142 -0.04445528 -0.00319811
v -0.00418810 -0.04461646 0.00053472
v -0.00398368 -0.04468319 -0.00542847
v -0.00615737 -0.04336755 0.00053472
v -0.00600758 -0.04350358 0.00053472
v -0.00622345 -0.04328594 -0.00542847
v -0.00541372 -0.04390808 -0.00542847
v -0.00566571 -0.04374895 -0.00319811
v -0.00454054 -0.04445528 0.00053472
v -0.00478637 -0.04432027 0.00053472
v -0.00478637 -0.04432027 -0.00319811
v -0.00476522 -0.04432438 -0.00542847
v -0.00463129 -0.04438701 -0.00542847
v -0.00452027 -0.04443885 -0.00542847
v -0.00436961 -0.04450764 -0.00542847
v -0.00579788 -0.04365347 0.00053472
v -0.00527979 -0.04400150 -0.00542847
v -0.00516789 -0.04407901 -0.00542847
v -0.00541989 -0.04391270 -0.00319811
v -0.00556879 -0.04381260 0.00053472
v -0.00566395 -0.04374895 0.00053472
v -0.00516965 -0.04407799 0.00053472
v -0.00516965 -0.04407901 -0.00319811
v -0.00498550 -0.04419041 -0.00542847
f 14 5 13
f 15 5 14
f 58 57 51
f 2 3 1
f 51 32 50
f 84 85 75
f 75 85 82
f 78 87 88
f 88 89 78
f 1 3 4
f 42 43 30
f 46 47 30
f 30 43 44
f 22 21 30
f 30 33 22
f 7 21 22
f 49 50 32
f 51 50 56
f 56 58 51
f 88 87 100
f 83 84 75
f 87 78 86
f 41 42 30
f 51 57 52
f 52 46 32
f 52 32 51
f 12 27 26
f 45 33 30
f 30 44 45
f 20 21 7
f 7 2 6
f 32 21 31
f 31 49 32
f 65 58 62
f 58 56 62
f 88 100 95
f 74 75 65
f 74 83 75
f 85 97 98
f 99 100 87
f 96 97 85
f 85 95 96
f 96 95 100
f 96 99 97
f 100 99 96
f 57 58 63
f 63 58 65
f 30 47 48
f 48 41 30
f 11 12 26
f 4 12 11
f 9 4 3
f 9 12 4
f 7 17 18
f 16 17 7
f 7 6 16
f 101 89 88
f 88 95 101
f 85 84 94
f 94 95 85
f 93 82 85
f 85 98 93
f 57 63 64
f 72 63 71
f 75 82 71
f 65 75 71
f 71 63 65
f 77 86 78
f 8 2 7
f 3 2 8
f 12 9 10
f 7 24 10
f 10 8 7
f 10 9 3
f 3 8 10
f 27 12 25
f 12 10 25
f 19 20 7
f 7 18 19
f 73 63 72
f 73 64 63
f 81 71 82
f 72 71 81
f 90 78 89
f 90 91 78
f 78 91 92
f 79 77 67
f 67 77 78
f 60 61 55
f 60 68 61
f 60 59 66
f 66 67 60
f 60 67 68
f 38 10 24
f 38 25 10
f 33 24 34
f 34 22 33
f 23 24 7
f 23 36 24
f 7 22 23
f 22 36 23
f 76 67 66
f 79 67 76
f 70 67 78
f 70 69 61
f 78 69 70
f 61 68 70
f 68 67 70
f 54 60 55
f 54 55 40
f 37 38 24
f 25 38 37
f 24 36 35
f 35 34 24
f 35 36 22
f 22 34 35
f 78 92 80
f 80 69 78
f 28 39 29
f 29 39 40
f 14 28 29
f 29 15 14
f 46 21 32
f 30 21 46
f 26 13 11
f 11 13 5
f 11 5 1
f 1 4 11
f 53 59 54
f 59 60 54
f 54 39 53
f 40 39 54
f 37 28 14
f 37 13 26
f 43 42 37
f 14 13 37
f 37 81 82
f 37 39 28
f 82 93 37
f 53 39 37
f 86 77 37
f 37 44 43
f 26 27 37
f 37 24 33
f 87 86 37
f 47 46 37
f 37 48 47
f 37 52 57
f 33 45 37
f 37 73 72
f 37 99 87
f 42 41 37
f 46 52 37
f 37 45 44
f 37 98 97
f 97 99 37
f 57 64 37
f 41 48 37
f 37 59 53
f 37 93 98
f 27 25 37
f 37 77 79
f 66 59 37
f 37 76 66
f 64 73 37
f 72 81 37
f 79 76 37
f 1 5 80
f 5 15 80
f 80 29 40
f 17 16 80
f 80 2 1
f 80 6 2
f 15 29 80
f 80 31 21
f 40 55 80
f 65 62 80
f 21 20 80
f 50 49 80
f 80 56 50
f 84 83 80
f 80 74 65
f 80 94 84
f 80 18 17
f 49 31 80
f 80 62 56
f 89 101 80
f 83 74 80
f 55 61 80
f 20 19 80
f 80 16 6
f 80 101 95
f 95 94 80
f 80 90 89
f 80 19 18
f 91 90 80
f 80 92 91
f 61 69 80

