# https://github.com/mikedh/trimesh
v -0.00424918 -0.00000768 -0.01104681
v -0.00424918 -0.00000768 -0.00957635
v -0.00422672 0.00048469 -0.01055623
v -0.00422589 0.00048469 -0.01104681
v -0.00424751 -0.00000768 -0.01153739
v -0.00422339 -0.00049844 -0.01153739
v -0.00422422 -0.00049844 -0.01104681
v -0.00424751 -0.00000768 -0.00908577
v -0.00422589 0.00048469 -0.00908577
v -0.00422672 0.00048469 -0.00957635
v -0.00422422 -0.00049844 -0.01006608
v -0.00422339 -0.00049844 -0.00957635
v -0.00414354 0.00097544 -0.01055623
v -0.00414271 0.00097544 -0.01104681
v -0.00422339 0.00048469 -0.01153739
v -0.00408199 0.00048469 -0.01193877
v -0.00409364 -0.00000768 -0.01194642
v -0.00408199 -0.00049844 -0.01193962
v -0.00349477 -0.01222654 -0.01153739
v -0.00349976 -0.01222654 -0.01104681
v -0.00408199 -0.00049682 -0.00868227
v -0.00417266 -0.00000768 -0.00888444
v -0.00408366 0.00048469 -0.00868311
v -0.00415519 0.00048469 -0.00888444
v -0.00422173 -0.00049844 -0.00908577
v -0.00412358 0.00075428 -0.00888444
v -0.00408449 0.00097383 -0.00888444
v -0.00413772 0.00097544 -0.00908577
v -0.00414105 0.00097544 -0.00957635
v -0.00414271 0.00097544 -0.01006608
v -0.00349976 -0.01222654 -0.00957635
v -0.00401213 0.00140970 -0.01055623
v -0.00401213 0.00140809 -0.01104681
v -0.00401046 0.00140486 -0.01153739
v -0.00413938 0.00097544 -0.01153739
v -0.00403957 0.00097544 -0.01190607
v -0.00369689 0.00097544 -0.01207894
v -0.00369689 0.00048469 -0.01211249
v -0.00369689 -0.00000768 -0.01211971
v -0.00369689 -0.00049844 -0.01211292
v -0.00324108 -0.01222654 -0.01196299
v -0.00343488 -0.01223784 -0.00888444
v -0.00298989 -0.00049682 -0.00783830
v -0.00409447 -0.00000768 -0.00867589
v -0.00346566 -0.01222654 -0.00893456
v -0.00324358 -0.01223784 -0.00865805
v -0.00299072 0.00048469 -0.00783787
v -0.00297409 0.00078173 -0.00784934
v -0.00403957 0.00097383 -0.00871922
v -0.00349477 -0.01222654 -0.00908577
v -0.00347481 -0.01222654 -0.00898128
v -0.00403791 0.00120952 -0.00888444
v -0.00400713 0.00139356 -0.00908577
v -0.00400963 0.00140001 -0.00957635
v -0.00401129 0.00140647 -0.01006608
v -0.00391980 0.00165508 -0.01055623
v -0.00391897 0.00165346 -0.01104681
v -0.00391647 0.00165023 -0.01153739
v -0.00398634 0.00134190 -0.01184745
v -0.00360789 0.00195534 -0.01192603
v -0.00373432 0.00148880 -0.01196044
v -0.00320615 0.00195534 -0.01209933
v -0.00320615 0.00146620 -0.01212948
v -0.00320615 -0.00147834 -0.01212948
v -0.00271624 -0.01222654 -0.01212948
v 0.00337639 -0.01223784 -0.00888444
v -0.00271541 -0.00049682 -0.00780432
v -0.00300071 -0.00000768 -0.00783193
v -0.00297326 -0.00079063 -0.00784977
v -0.00271708 -0.00096821 -0.00782598
v -0.00323859 -0.01223784 -0.00865636
v -0.00271541 0.00048469 -0.00780390
v -0.00271874 0.00095607 -0.00782556
v -0.00255488 0.00146459 -0.00782980
v -0.00249666 0.00175032 -0.00784297
v -0.00360539 0.00195534 -0.00869713
v -0.00398468 0.00133221 -0.00877868
v -0.00399299 0.00135320 -0.00888444
v -0.00391231 0.00163893 -0.00908577
v -0.00391730 0.00164539 -0.00957635
v -0.00391897 0.00165185 -0.01006608
v -0.00377092 0.00195534 -0.01006608
v -0.00377175 0.00195534 -0.01055623
v -0.00377092 0.00195534 -0.01104681
v -0.00376759 0.00195534 -0.01153739
v -0.00351556 0.00229435 -0.01185850
v -0.00322445 0.00245256 -0.01195704
v -0.00271624 0.00244610 -0.01211759
v -0.00173477 0.00293686 -0.01212948
v 0.00267855 -0.01222654 -0.01212948
v 0.00324165 -0.01223784 -0.00866230
v 0.00321670 -0.01222654 -0.01197318
v 0.00323000 -0.01222654 -0.01196638
v 0.00345624 -0.01222654 -0.01181687
v 0.00350365 -0.01222654 -0.01155863
v 0.00350449 -0.01222654 -0.01155226
v 0.00350864 -0.01222654 -0.01104681
v 0.00350781 -0.01222654 -0.01055623
v 0.00350615 -0.01222654 -0.00957635
v 0.00350033 -0.01222654 -0.00912018
v 0.00349866 -0.01222654 -0.00911338
v 0.00406260 -0.00049682 -0.00867335
v -0.00271541 -0.00000768 -0.00779752
v -0.00255239 -0.00147834 -0.00783023
v -0.00222551 -0.00147834 -0.00779625
v -0.00271541 -0.01223784 -0.00849028
v -0.00222551 0.00146459 -0.00779583
v -0.00220305 0.00192951 -0.00782428
v -0.00202505 0.00224108 -0.00784000
v -0.00307057 0.00281255 -0.00873791
v -0.00351556 0.00229112 -0.00876594
v -0.00360789 0.00216521 -0.00888444
v -0.00376260 0.00195534 -0.00908577
v -0.00396056 0.00143714 -0.00888444
v -0.00376842 0.00195534 -0.00957635
v -0.00354800 0.00233955 -0.00957635
v -0.00354884 0.00234278 -0.01104681
v -0.00354800 0.00234278 -0.01153739
v -0.00337417 0.00258816 -0.01153739
v -0.00307224 0.00281094 -0.01188228
v -0.00273621 0.00295946 -0.01196808
v -0.00222551 0.00293686 -0.01211292
v -0.00124486 0.00342761 -0.01212311
v -0.00075412 0.00342761 -0.01212948
v 0.00316845 -0.00147834 -0.01212948
v 0.00365919 -0.00000768 -0.01212694
v 0.00365919 -0.00049844 -0.01212184
v 0.00321337 -0.01223784 -0.00864829
v 0.00296301 -0.00049682 -0.00783235
v 0.00406260 -0.00049844 -0.01194854
v 0.00422229 -0.00049844 -0.01153739
v 0.00422396 -0.00049844 -0.01104681
v 0.00422313 -0.00049844 -0.00957635
v 0.00422146 -0.00049844 -0.00908577
v 0.00414411 -0.00049844 -0.00888444
v 0.00424641 -0.00000768 -0.00908577
v 0.00416407 -0.00000768 -0.00888444
v 0.00407507 -0.00000768 -0.00866867
v -0.00222551 -0.00098758 -0.00779030
v -0.00222551 0.00097383 -0.00779030
v -0.00173477 -0.00196748 -0.00779370
v 0.00267855 -0.01223784 -0.00849028
v -0.00075412 -0.00245985 -0.00779030
v -0.00124403 -0.00245985 -0.00780559
v -0.00173477 0.00195534 -0.00779328
v -0.00169235 0.00242188 -0.00783108
v -0.00150021 0.00269793 -0.00785444
v -0.00258898 0.00327748 -0.00874470
v -0.00319783 0.00271731 -0.00888444
v -0.00299572 0.00294331 -0.00888444
v -0.00309386 0.00284000 -0.00888444
v -0.00337167 0.00258170 -0.00908577
v -0.00354717 0.00233632 -0.00908577
v -0.00337250 0.00258493 -0.00957635
v -0.00337417 0.00258655 -0.01055623
v -0.00337417 0.00258816 -0.01104681
v -0.00312797 0.00287551 -0.01006608
v -0.00312880 0.00287390 -0.01104681
v -0.00312880 0.00287228 -0.01153739
v -0.00289175 0.00311766 -0.01153739
v -0.00258649 0.00327425 -0.01187634
v -0.00220887 0.00343407 -0.01193580
v -0.00173477 0.00342761 -0.01207129
v -0.00124486 0.00386671 -0.01195024
v -0.00026339 0.00391837 -0.01202202
v 0.00022569 0.00391837 -0.01202330
v 0.00071643 0.00342761 -0.01212948
v 0.00316845 0.00146620 -0.01212948
v 0.00407424 -0.00000768 -0.01195322
v 0.00365919 0.00048469 -0.01212141
v 0.00294388 -0.00082615 -0.00784467
v 0.00297382 -0.00000768 -0.00782726
v 0.00267855 -0.00049682 -0.00779837
v 0.00424725 -0.00000768 -0.01153739
v 0.00424808 -0.00000768 -0.01104681
v 0.00424808 -0.00000768 -0.00957635
v 0.00422645 0.00048469 -0.00957635
v 0.00422396 0.00048469 -0.00908577
v 0.00414577 0.00048469 -0.00888444
v 0.00406343 0.00048469 -0.00867462
v 0.00296384 0.00048469 -0.00783235
v -0.00075412 0.00244610 -0.00779030
v 0.00253382 -0.00147834 -0.00782853
v 0.00218781 -0.00147834 -0.00779413
v 0.00169790 -0.00196748 -0.00779243
v 0.00120633 -0.00245985 -0.00780305
v 0.00071560 -0.00245985 -0.00779030
v -0.00124403 0.00244610 -0.00780432
v -0.00124403 0.00273184 -0.00783872
v -0.00026339 0.00306439 -0.00791985
v -0.00061356 0.00418796 -0.00879949
v -0.00124403 0.00386187 -0.00867122
v -0.00173477 0.00376985 -0.00873111
v -0.00202755 0.00369882 -0.00880289
v -0.00220471 0.00343568 -0.00869076
v -0.00261394 0.00329847 -0.00888444
v -0.00289341 0.00312089 -0.00908577
v -0.00312630 0.00287551 -0.00908577
v -0.00289341 0.00312089 -0.01006608
v -0.00289258 0.00311927 -0.01104681
v -0.00264638 0.00332107 -0.01153739
v -0.00203420 0.00370366 -0.01182877
v -0.00173477 0.00377631 -0.01189800
v -0.00062021 0.00418312 -0.01181687
v -0.00026339 0.00420411 -0.01184830
v 0.00022569 0.00420572 -0.01184958
v 0.00120717 0.00387317 -0.01195194
v 0.00120717 0.00342761 -0.01212524
v 0.00169707 0.00293686 -0.01212948
v 0.00316845 0.00195534 -0.01210655
v 0.00267855 0.00244610 -0.01212184
v 0.00406260 0.00048469 -0.01194769
v 0.00365919 0.00097544 -0.01209381
v 0.00269102 -0.00098758 -0.00782301
v 0.00267855 -0.00000768 -0.00779328
v 0.00267855 0.00048469 -0.00779795
v 0.00422313 0.00048469 -0.01153739
v 0.00422562 0.00048469 -0.01104681
v 0.00422645 0.00048469 -0.01006608
v 0.00414328 0.00097544 -0.01055623
v 0.00414244 0.00097544 -0.01006608
v 0.00414078 0.00097544 -0.00957635
v 0.00413745 0.00097544 -0.00908577
v 0.00407590 0.00097383 -0.00888444
v 0.00402018 0.00097383 -0.00870435
v 0.00294388 0.00081724 -0.00784425
v 0.00071560 0.00244610 -0.00779030
v 0.00022569 0.00282062 -0.00782471
v -0.00026339 0.00281901 -0.00782471
v -0.00075412 0.00278188 -0.00782471
v 0.00218781 -0.00098758 -0.00779030
v 0.00022569 0.00306600 -0.00791815
v -0.00026339 0.00420733 -0.00877019
v -0.00050959 0.00420733 -0.00888444
v -0.00066928 0.00420088 -0.00908577
v -0.00070339 0.00417505 -0.00888444
v -0.00124486 0.00405720 -0.00908577
v -0.00194271 0.00374886 -0.00888444
v -0.00205333 0.00371173 -0.00908577
v -0.00229870 0.00357129 -0.00908577
v -0.00264804 0.00332591 -0.00908577
v -0.00264804 0.00332591 -0.00957635
v -0.00230702 0.00356645 -0.01153739
v -0.00206165 0.00371981 -0.01153739
v -0.00173477 0.00388124 -0.01153739
v -0.00124486 0.00406204 -0.01153739
v -0.00092380 0.00414760 -0.01153739
v -0.00067843 0.00419442 -0.01153739
v -0.00026339 0.00424608 -0.01153739
v 0.00022569 0.00424769 -0.01153739
v 0.00059832 0.00418473 -0.01181815
v 0.00169707 0.00378438 -0.01190522
v 0.00169707 0.00342761 -0.01207852
v 0.00218781 0.00293686 -0.01211674
v 0.00319424 0.00246386 -0.01196596
v 0.00359016 0.00195534 -0.01193283
v 0.00270683 0.00296753 -0.01197445
v 0.00402101 0.00097544 -0.01192094
v 0.00370494 0.00150817 -0.01196808
v 0.00218781 0.00146459 -0.00779370
v 0.00218781 0.00097383 -0.00779030
v 0.00253715 0.00146459 -0.00782811
v 0.00413995 0.00097544 -0.01153739
v 0.00414244 0.00097544 -0.01104681
v 0.00399356 0.00145813 -0.01055623
v 0.00399273 0.00145651 -0.01006608
v 0.00395946 0.00136611 -0.00876552
v 0.00399106 0.00145006 -0.00957635
v 0.00398857 0.00144199 -0.00908577
v 0.00397027 0.00139517 -0.00888444
v 0.00286653 0.00114334 -0.00788799
v 0.00246645 0.00176001 -0.00784042
v 0.00120633 0.00244610 -0.00780177
v 0.00071560 0.00278349 -0.00782471
v 0.00169790 0.00195534 -0.00779200
v 0.00120633 0.00273668 -0.00783618
v 0.00147250 0.00270278 -0.00785147
v 0.00058584 0.00418796 -0.00879780
v 0.00022569 0.00420733 -0.00876934
v -0.00008622 0.00422509 -0.00888444
v -0.00026339 0.00425253 -0.00908577
v -0.00068093 0.00419765 -0.01055623
v -0.00092713 0.00414922 -0.01104681
v -0.00092547 0.00414922 -0.01055623
v -0.00092214 0.00414760 -0.01006608
v -0.00091798 0.00414599 -0.00957635
v -0.00091465 0.00414115 -0.00908577
v -0.00124486 0.00406204 -0.00957635
v -0.00173477 0.00387155 -0.00908577
v -0.00205832 0.00371658 -0.01006608
v -0.00205999 0.00371819 -0.01055623
v -0.00206165 0.00371981 -0.01104681
v -0.00230203 0.00357129 -0.00957635
v -0.00173477 0.00388124 -0.01104681
v -0.00124486 0.00406527 -0.01104681
v -0.00068176 0.00419603 -0.01104681
v -0.00026339 0.00425092 -0.01006608
v 0.00022569 0.00425415 -0.00908577
v 0.00065904 0.00419603 -0.01153739
v 0.00090441 0.00415245 -0.01153739
v 0.00120717 0.00407334 -0.01153739
v 0.00200815 0.00371012 -0.01183599
v 0.00217783 0.00343891 -0.01194302
v 0.00349035 0.00231211 -0.01186742
v 0.00304785 0.00282385 -0.01188781
v 0.00396112 0.00137418 -0.01186020
v 0.00256210 0.00328232 -0.01188143
v 0.00217117 0.00193597 -0.00782173
v 0.00399106 0.00145329 -0.01153739
v 0.00399273 0.00145651 -0.01104681
v 0.00390123 0.00170351 -0.01055623
v 0.00390040 0.00170189 -0.01006608
v 0.00389458 0.00168898 -0.00908577
v 0.00376399 0.00195534 -0.00908577
v 0.00349035 0.00230888 -0.00875617
v 0.00358766 0.00195534 -0.00868991
v 0.00389791 0.00169544 -0.00957635
v 0.00304535 0.00282547 -0.00873281
v 0.00199734 0.00224754 -0.00783787
v 0.00165964 0.00242511 -0.00782811
v 0.00256460 0.00328555 -0.00873961
v 0.00200233 0.00370528 -0.00879440
v 0.00169790 0.00377792 -0.00872262
v 0.00120633 0.00386671 -0.00866952
v 0.00120717 0.00406689 -0.00908577
v 0.00088943 0.00414599 -0.00908577
v 0.00060414 0.00419281 -0.00888444
v 0.00022569 0.00422509 -0.00888444
v -0.00124486 0.00406527 -0.01055623
v -0.00173477 0.00387801 -0.01006608
v -0.00173477 0.00387962 -0.01055623
v 0.00064406 0.00420088 -0.00908577
v 0.00120717 0.00407334 -0.01104681
v 0.00089692 0.00415245 -0.01104681
v 0.00120717 0.00407012 -0.00957635
v 0.00169707 0.00389738 -0.01104681
v 0.00169707 0.00389577 -0.01153739
v 0.00228679 0.00358097 -0.01153739
v 0.00262781 0.00333560 -0.01153739
v 0.00204142 0.00372949 -0.01153739
v 0.00352944 0.00236861 -0.01153739
v 0.00376815 0.00195534 -0.01153739
v 0.00389874 0.00169866 -0.01153739
v 0.00335560 0.00261399 -0.01153739
v 0.00287318 0.00313703 -0.01153739
v 0.00311023 0.00289004 -0.01153739
v 0.00390040 0.00170189 -0.01104681
v 0.00377065 0.00195534 -0.01104681
v 0.00377065 0.00195534 -0.01006608
v 0.00376815 0.00195534 -0.00957635
v 0.00352861 0.00236215 -0.00908577
v 0.00350532 0.00232987 -0.00888444
v 0.00335227 0.00260753 -0.00908577
v 0.00307197 0.00285452 -0.00888444
v 0.00287568 0.00313865 -0.00908577
v 0.00263031 0.00334044 -0.00908577
v 0.00228014 0.00358582 -0.00908577
v 0.00203477 0.00372142 -0.00908577
v 0.00169707 0.00388770 -0.00908577
v 0.00169707 0.00389415 -0.01006608
v 0.00204308 0.00372949 -0.01104681
v 0.00228845 0.00358259 -0.01104681
v 0.00262947 0.00333721 -0.01104681
v 0.00228762 0.00358420 -0.01055623
v 0.00352861 0.00236377 -0.00957635
v 0.00310940 0.00289165 -0.01104681
v 0.00310690 0.00289327 -0.00908577
v 0.00262947 0.00334044 -0.01006608
v 0.00287484 0.00313703 -0.01055623
v 0.00263031 0.00334044 -0.00957635
v 0.00228596 0.00358582 -0.01006608
v 0.00228429 0.00358582 -0.00957635
v 0.00204225 0.00372788 -0.01055623
v 0.00203893 0.00372465 -0.00957635
f 41 65 42
f 42 19 41
f 20 19 42
f 69 106 104
f 66 90 92
f 91 66 102
f 38 63 39
f 6 7 1
f 1 5 6
f 19 20 6
f 6 20 7
f 1 3 4
f 4 5 1
f 42 50 31
f 31 20 42
f 31 25 12
f 50 25 31
f 141 143 139
f 42 46 21
f 106 69 71
f 71 69 46
f 9 10 2
f 76 75 111
f 48 75 76
f 94 66 93
f 66 92 93
f 126 90 125
f 125 168 126
f 95 66 94
f 95 96 66
f 99 100 66
f 132 174 175
f 171 142 128
f 183 142 171
f 66 100 101
f 101 102 66
f 65 39 64
f 64 39 63
f 65 41 40
f 40 39 65
f 3 10 13
f 10 9 13
f 11 31 12
f 12 2 11
f 104 106 105
f 106 141 105
f 105 141 139
f 106 143 144
f 144 141 106
f 143 141 144
f 42 21 45
f 45 21 25
f 276 277 232
f 226 271 272
f 272 315 318
f 316 315 272
f 272 271 316
f 320 277 276
f 109 148 110
f 110 75 109
f 111 75 110
f 109 75 108
f 44 68 47
f 44 21 43
f 43 68 44
f 46 69 43
f 43 21 46
f 8 9 2
f 8 2 12
f 12 25 8
f 25 21 8
f 29 9 28
f 111 113 112
f 114 113 79
f 48 49 23
f 44 47 23
f 23 47 48
f 191 237 194
f 175 174 218
f 217 218 174
f 130 169 174
f 94 93 130
f 130 93 92
f 126 168 170
f 170 169 126
f 306 263 258
f 263 217 258
f 66 96 97
f 174 132 131
f 96 95 131
f 131 97 96
f 132 97 131
f 131 95 94
f 94 130 131
f 131 130 174
f 186 187 142
f 186 142 185
f 185 187 186
f 226 180 225
f 18 6 5
f 18 40 41
f 18 41 19
f 19 6 18
f 30 9 29
f 30 13 9
f 62 63 38
f 5 4 15
f 14 4 3
f 3 13 14
f 14 15 4
f 35 15 14
f 81 82 56
f 51 25 50
f 51 45 25
f 51 50 42
f 42 45 51
f 260 261 215
f 226 272 262
f 277 320 319
f 319 272 318
f 109 108 146
f 103 105 139
f 70 69 104
f 70 43 69
f 111 112 77
f 77 76 111
f 77 113 114
f 77 112 113
f 48 76 77
f 77 49 48
f 115 82 81
f 114 79 53
f 54 28 53
f 44 23 22
f 22 23 8
f 22 21 44
f 22 8 21
f 195 194 148
f 309 263 306
f 126 169 127
f 169 130 127
f 127 130 92
f 127 90 126
f 127 92 90
f 277 322 323
f 323 324 277
f 278 232 277
f 277 324 278
f 279 232 278
f 324 323 278
f 278 323 322
f 279 278 328
f 209 167 208
f 166 167 124
f 124 165 166
f 208 167 166
f 166 207 208
f 306 258 256
f 169 170 212
f 212 170 213
f 213 258 212
f 212 258 217
f 174 169 212
f 212 217 174
f 98 99 66
f 66 97 98
f 134 101 100
f 100 99 134
f 176 132 175
f 138 102 137
f 102 136 137
f 137 180 138
f 137 136 180
f 318 355 321
f 321 322 277
f 321 319 318
f 277 319 321
f 178 222 223
f 267 314 315
f 313 314 267
f 267 315 316
f 316 271 267
f 267 271 226
f 226 225 267
f 37 62 38
f 124 89 123
f 123 89 122
f 122 163 123
f 123 165 124
f 88 89 63
f 122 89 88
f 63 62 88
f 202 244 245
f 245 246 202
f 285 235 284
f 148 194 196
f 194 241 196
f 242 241 293
f 29 28 55
f 55 28 54
f 120 161 121
f 122 88 121
f 121 163 122
f 35 14 34
f 5 15 16
f 16 37 38
f 273 320 276
f 215 173 172
f 260 215 216
f 226 262 216
f 216 262 260
f 215 172 216
f 308 319 320
f 272 319 308
f 260 262 308
f 308 262 272
f 191 194 193
f 193 192 191
f 72 47 68
f 68 103 72
f 140 103 139
f 43 70 67
f 68 43 67
f 67 103 68
f 105 103 67
f 104 105 67
f 67 70 104
f 49 77 52
f 52 53 28
f 24 23 49
f 49 26 24
f 24 26 9
f 9 8 24
f 8 23 24
f 242 200 199
f 202 161 201
f 201 200 242
f 78 77 114
f 114 53 78
f 78 52 77
f 53 52 78
f 80 53 79
f 80 79 113
f 54 53 80
f 80 115 81
f 113 115 80
f 81 55 80
f 80 55 54
f 286 235 285
f 236 237 191
f 191 235 236
f 244 293 292
f 238 194 237
f 237 289 238
f 239 194 238
f 238 289 239
f 263 309 310
f 310 309 347
f 347 309 343
f 343 309 306
f 165 123 164
f 164 123 163
f 162 161 202
f 162 121 161
f 163 121 162
f 302 307 303
f 303 307 257
f 298 278 327
f 298 328 278
f 250 297 298
f 297 281 298
f 325 278 322
f 302 251 301
f 168 209 211
f 257 255 211
f 211 209 208
f 259 258 213
f 213 256 259
f 259 256 258
f 256 255 304
f 306 256 304
f 304 343 306
f 135 136 102
f 135 134 136
f 102 101 135
f 101 134 135
f 99 98 133
f 133 134 99
f 133 98 97
f 133 97 132
f 132 176 133
f 136 134 133
f 133 176 136
f 346 355 366
f 355 367 366
f 354 355 318
f 354 367 355
f 339 307 302
f 317 314 313
f 313 269 317
f 179 225 180
f 179 178 225
f 180 136 179
f 136 178 179
f 175 218 219
f 218 220 219
f 136 176 177
f 177 178 136
f 221 222 177
f 222 178 177
f 177 220 221
f 177 219 220
f 270 269 313
f 313 267 270
f 223 269 270
f 270 267 223
f 223 267 224
f 224 267 225
f 224 178 223
f 225 178 224
f 249 297 250
f 282 281 297
f 235 281 282
f 288 289 237
f 288 286 285
f 237 286 288
f 285 284 288
f 284 329 288
f 246 245 295
f 197 196 241
f 148 196 197
f 240 293 241
f 240 194 239
f 240 241 194
f 240 292 293
f 87 88 62
f 87 121 88
f 120 121 87
f 87 86 120
f 60 37 61
f 62 37 60
f 60 87 62
f 86 87 60
f 13 30 32
f 32 30 29
f 29 55 32
f 17 18 5
f 5 16 17
f 39 40 17
f 40 18 17
f 38 39 17
f 17 16 38
f 36 15 35
f 36 16 15
f 36 60 61
f 61 37 36
f 37 16 36
f 83 56 82
f 83 84 56
f 83 82 117
f 117 84 83
f 274 228 227
f 274 273 276
f 227 273 274
f 276 232 274
f 232 228 274
f 190 230 229
f 229 232 190
f 229 228 232
f 275 273 227
f 275 227 261
f 275 261 260
f 260 308 275
f 320 273 275
f 275 308 320
f 214 183 171
f 171 173 214
f 214 173 183
f 183 173 184
f 185 142 184
f 142 183 184
f 184 173 215
f 129 173 171
f 129 172 173
f 91 102 129
f 129 102 138
f 138 172 129
f 129 128 91
f 171 128 129
f 226 216 181
f 181 216 172
f 181 180 226
f 138 180 181
f 181 172 138
f 192 193 147
f 190 191 147
f 191 192 147
f 109 146 147
f 194 195 147
f 147 193 194
f 147 148 109
f 147 195 148
f 74 108 75
f 74 75 48
f 107 72 103
f 103 140 107
f 107 74 72
f 108 74 107
f 49 52 27
f 27 52 28
f 27 26 49
f 27 28 9
f 9 26 27
f 120 86 119
f 119 159 120
f 200 159 158
f 158 199 200
f 159 119 158
f 160 201 161
f 160 161 120
f 120 159 160
f 160 159 200
f 200 201 160
f 243 293 244
f 243 244 202
f 202 201 243
f 242 293 243
f 243 201 242
f 237 236 287
f 287 236 235
f 287 286 237
f 235 286 287
f 239 289 290
f 290 240 239
f 263 310 264
f 264 220 218
f 221 220 265
f 220 264 265
f 265 264 310
f 203 164 163
f 203 162 202
f 163 162 203
f 246 295 247
f 250 251 206
f 206 249 250
f 206 166 165
f 206 251 207
f 207 166 206
f 302 303 252
f 252 251 302
f 207 251 252
f 234 235 191
f 234 281 235
f 279 328 280
f 328 298 280
f 280 298 281
f 326 325 335
f 327 278 326
f 278 325 326
f 253 303 257
f 253 252 303
f 208 207 253
f 207 252 253
f 168 211 210
f 210 170 168
f 213 170 210
f 210 211 255
f 210 256 213
f 210 255 256
f 305 304 255
f 257 307 305
f 305 255 257
f 344 366 367
f 365 341 344
f 346 366 344
f 344 351 365
f 341 304 344
f 344 305 346
f 304 305 344
f 367 354 353
f 353 344 367
f 351 344 353
f 318 315 353
f 353 354 318
f 359 325 322
f 307 339 345
f 346 305 345
f 345 305 307
f 302 340 338
f 338 339 302
f 365 351 349
f 349 341 365
f 349 348 341
f 347 343 342
f 342 348 347
f 341 348 342
f 342 304 341
f 343 304 342
f 297 249 296
f 296 282 297
f 296 249 248
f 248 247 296
f 289 288 330
f 330 288 329
f 330 290 289
f 57 58 34
f 56 84 57
f 57 84 85
f 85 58 57
f 35 34 59
f 59 36 35
f 34 58 59
f 85 86 59
f 59 58 85
f 86 60 59
f 60 36 59
f 185 184 231
f 231 184 215
f 231 215 261
f 231 187 185
f 189 230 190
f 190 147 189
f 189 147 146
f 73 74 48
f 72 74 73
f 48 47 73
f 47 72 73
f 182 229 230
f 227 228 182
f 228 229 182
f 118 86 85
f 118 119 86
f 117 119 118
f 85 84 118
f 118 84 117
f 157 197 199
f 199 158 157
f 157 198 197
f 157 158 119
f 266 222 221
f 221 265 266
f 223 222 266
f 283 284 235
f 235 282 283
f 283 247 295
f 282 296 283
f 283 296 247
f 283 295 329
f 283 329 284
f 248 249 204
f 204 247 248
f 164 203 204
f 246 247 204
f 202 246 204
f 204 203 202
f 281 234 233
f 233 280 281
f 233 234 191
f 279 280 233
f 233 191 190
f 233 232 279
f 190 232 233
f 334 326 335
f 257 211 254
f 254 253 257
f 254 211 208
f 208 253 254
f 352 353 315
f 351 353 352
f 315 314 352
f 314 351 352
f 371 372 356
f 356 372 357
f 356 321 355
f 322 321 356
f 356 357 322
f 361 372 371
f 322 357 358
f 358 359 322
f 302 301 337
f 337 340 302
f 369 355 346
f 346 345 369
f 369 345 355
f 362 338 340
f 350 351 314
f 350 349 351
f 331 329 294
f 331 330 329
f 294 292 331
f 292 330 331
f 291 330 292
f 290 330 291
f 292 240 291
f 240 290 291
f 111 110 149
f 197 198 151
f 151 149 110
f 198 149 151
f 153 113 111
f 153 115 113
f 33 32 56
f 56 57 33
f 33 57 34
f 33 34 14
f 33 14 13
f 13 32 33
f 140 182 145
f 145 107 140
f 145 146 108
f 108 107 145
f 156 157 119
f 198 157 156
f 156 119 117
f 268 317 269
f 268 269 223
f 223 266 268
f 347 348 311
f 348 349 311
f 249 206 205
f 205 204 249
f 205 206 165
f 165 164 205
f 164 204 205
f 300 301 251
f 300 333 301
f 300 334 335
f 335 333 300
f 359 358 374
f 374 358 357
f 336 361 340
f 340 337 336
f 336 333 335
f 301 333 336
f 336 337 301
f 364 361 371
f 340 361 364
f 364 362 340
f 362 364 368
f 355 345 368
f 150 151 110
f 197 151 150
f 150 110 148
f 148 197 150
f 152 153 111
f 111 149 152
f 152 149 198
f 146 145 188
f 188 145 182
f 188 189 146
f 230 189 188
f 188 182 230
f 116 156 117
f 117 82 116
f 153 152 116
f 82 115 116
f 115 153 116
f 317 268 312
f 312 268 266
f 314 317 312
f 312 350 314
f 349 350 312
f 312 311 349
f 299 251 250
f 299 300 251
f 250 298 299
f 361 336 360
f 359 374 360
f 360 336 335
f 335 325 360
f 325 359 360
f 362 368 363
f 363 345 339
f 363 368 345
f 370 356 355
f 355 368 370
f 371 356 370
f 370 364 371
f 370 368 364
f 154 116 152
f 154 152 198
f 334 300 332
f 300 299 332
f 326 334 332
f 327 326 332
f 332 298 327
f 332 299 298
f 361 360 373
f 373 360 374
f 373 374 357
f 357 372 373
f 372 361 373
f 156 116 155
f 116 154 155
f 198 156 155
f 155 154 198
f 90 66 42
f 42 65 90
f 1 2 10
f 10 3 1
f 128 66 91
f 42 66 128
f 128 46 42
f 106 71 128
f 128 142 106
f 128 71 46
f 106 142 187
f 187 143 106
f 20 31 11
f 7 20 11
f 11 2 1
f 1 7 11
f 209 90 65
f 209 125 90
f 124 167 209
f 65 64 209
f 168 125 209
f 209 64 63
f 209 89 124
f 63 89 209
f 292 245 244
f 294 245 292
f 175 219 177
f 177 176 175
f 295 245 294
f 294 329 295
f 242 199 197
f 197 241 242
f 32 55 81
f 81 56 32
f 218 217 264
f 264 217 263
f 143 187 182
f 139 143 182
f 182 140 139
f 261 227 182
f 187 231 182
f 182 231 261
f 311 265 310
f 311 310 347
f 265 311 312
f 312 266 265
f 338 362 363
f 339 338 363

