# https://github.com/mikedh/trimesh
v 0.02776455 0.02040123 -0.00704677
v 0.02776455 0.02090470 -0.00693648
v 0.02810021 0.02085144 -0.00686493
v 0.02811747 0.02040123 -0.00688431
v 0.02805226 0.01889461 -0.00680233
v 0.02800623 0.01852557 -0.00678445
v 0.02779907 0.01872087 -0.00683811
v 0.02763603 0.01840763 -0.00681128
v 0.02742888 0.01840763 -0.00681128
v 0.02721022 0.02040123 -0.00701696
v 0.02776455 0.02118117 -0.00671290
v 0.02831888 0.02137774 -0.00639990
v 0.02721022 0.02081973 -0.00692008
v 0.03030411 0.02347786 -0.00405237
v 0.02862577 0.02131686 -0.00627470
v 0.02914941 0.02178736 -0.00568297
v 0.02914941 0.02178609 -0.00568297
v 0.02862769 0.02095543 -0.00627917
v 0.02843396 0.02036445 -0.00646995
v 0.02835532 0.01984703 -0.00651467
v 0.02821722 0.01872087 -0.00656535
v 0.02822872 0.01818443 -0.00646995
v 0.02814241 0.01763022 -0.00634922
v 0.02779907 0.01820725 -0.00672185
v 0.02734640 0.01873863 -0.00684109
v 0.02776455 0.01763022 -0.00644760
v 0.02725817 0.01761627 -0.00636115
v 0.02723131 0.01820725 -0.00666521
v 0.02629720 0.01787118 -0.00625979
v 0.02459777 0.01783187 -0.00572471
v 0.01975840 0.01742731 -0.00400915
v 0.02422757 0.01807282 -0.00565912
v 0.02676522 0.02040123 -0.00685450
v 0.02680358 0.02073857 -0.00684258
v 0.02721022 0.01984703 -0.00694691
v 0.02684769 0.01984703 -0.00682171
v 0.02520197 0.01995229 -0.00626128
v 0.02356391 0.02001570 -0.00569788
v 0.02356391 0.02015139 -0.00569788
v 0.02717952 0.02111649 -0.00651020
v 0.02776455 0.02135110 -0.00643567
v 0.03016792 0.02347786 -0.00405237
v 0.03198628 0.02517724 -0.00187923
v 0.03138783 0.02407392 -0.00293897
v 0.02913407 0.02141705 -0.00566210
v 0.03138591 0.02372643 -0.00293599
v 0.03161417 0.02372643 -0.00263491
v 0.03036740 0.02261676 -0.00416267
v 0.02985719 0.02206383 -0.00477675
v 0.02886937 0.02095543 -0.00596020
v 0.02960017 0.02095543 -0.00498989
v 0.02853178 0.01873863 -0.00615099
v 0.02873894 0.01873863 -0.00587375
v 0.02850685 0.01818443 -0.00609584
v 0.02805801 0.01734235 -0.00625383
v 0.02863153 0.01786991 -0.00574855
v 0.02442322 0.01822881 -0.00575004
v 0.02706827 0.01873863 -0.00674420
v 0.02718720 0.01931819 -0.00686642
v 0.02776455 0.01734235 -0.00625234
v 0.02747299 0.01734995 -0.00624042
v 0.02610731 0.01766447 -0.00607050
v 0.02665588 0.01779382 -0.00631047
v 0.01635570 0.01622507 -0.00237109
v 0.01459297 0.01618068 -0.00184495
v 0.01695223 0.01679575 -0.00291363
v 0.01528732 0.01679322 -0.00235917
v 0.01557120 0.01707602 -0.00249928
v 0.02568341 0.02072589 -0.00629557
v 0.01462941 0.01907596 -0.00239792
v 0.02234976 0.02018944 -0.00518813
v 0.02610155 0.01873863 -0.00640735
v 0.02499289 0.01929283 -0.00609733
v 0.02370777 0.01929283 -0.00564869
v 0.01557120 0.01873863 -0.00273030
v 0.01501687 0.01873863 -0.00253654
v 0.01462557 0.01873863 -0.00239792
v 0.02734448 0.02128135 -0.00632239
v 0.02551845 0.02085144 -0.00600045
v 0.02795635 0.02181653 -0.00573514
v 0.02938917 0.02307585 -0.00434302
v 0.02979773 0.02341953 -0.00396890
v 0.02998187 0.02359327 -0.00376769
v 0.03131686 0.02512905 -0.00183303
v 0.03109053 0.02465855 -0.00250971
v 0.03164486 0.02517344 -0.00188221
v 0.03164486 0.02540171 -0.00152598
v 0.03219919 0.02625014 -0.00019050
v 0.03249074 0.02623872 -0.00017113
v 0.03250033 0.02571242 -0.00078074
v 0.03254253 0.02538903 -0.00088060
v 0.03203039 0.02483483 -0.00197015
v 0.03187887 0.02428063 -0.00229955
v 0.03187119 0.02372643 -0.00228763
v 0.03184817 0.02317223 -0.00225931
v 0.03153361 0.02319633 -0.00268112
v 0.03119027 0.02319633 -0.00313721
v 0.03129001 0.02150963 -0.00280781
v 0.03025807 0.02013617 -0.00401809
v 0.02901706 0.01873863 -0.00549517
v 0.02952728 0.01929283 -0.00488854
v 0.02973251 0.01929283 -0.00461131
v 0.02868907 0.01818443 -0.00581861
v 0.02971141 0.01900495 -0.00458597
v 0.02805801 0.01734235 -0.00620912
v 0.02368283 0.01678180 -0.00460385
v 0.01446254 0.01564170 -0.00132179
v 0.01889718 0.01620604 -0.00296580
v 0.02333182 0.01677293 -0.00460982
v 0.02917626 0.01843046 -0.00517024
v 0.03139167 0.02065360 -0.00240239
v 0.02863153 0.01786991 -0.00560696
v 0.01812035 0.01749072 -0.00344723
v 0.01386409 0.01704812 -0.00190010
v 0.02393602 0.01822881 -0.00558013
v 0.02298465 0.01678180 -0.00459342
v 0.01372215 0.01567847 -0.00126068
v 0.01372215 0.01596382 -0.00145295
v 0.01422469 0.01626945 -0.00179278
v 0.01372215 0.01649266 -0.00171528
v 0.01372215 0.01680463 -0.00180918
v 0.01372215 0.01691496 -0.00183154
v 0.02463421 0.02070559 -0.00572769
v 0.01789593 0.01963904 -0.00353368
v 0.01643818 0.01953632 -0.00288979
v 0.01680837 0.01962002 -0.00297922
v 0.01434937 0.01873863 -0.00229359
v 0.01372215 0.01873863 -0.00205511
v 0.01372215 0.01884896 -0.00203573
v 0.01372215 0.01913557 -0.00193289
v 0.02381710 0.01873863 -0.00560994
v 0.01372215 0.01763022 -0.00193140
v 0.01390821 0.01818443 -0.00207300
v 0.01372215 0.01819330 -0.00200890
v 0.02665588 0.02116595 -0.00611820
v 0.02503317 0.02104927 -0.00535953
v 0.02665588 0.02132194 -0.00584096
v 0.01575917 0.01959973 -0.00240985
v 0.01501687 0.01963143 -0.00191202
v 0.01372215 0.01961622 -0.00116827
v 0.02606511 0.02196618 -0.00434153
v 0.02776838 0.02192686 -0.00542661
v 0.03179255 0.02681829 0.00089011
v 0.03185968 0.02624126 -0.00017709
v 0.03111546 0.02494390 -0.00204319
v 0.03164486 0.02561604 -0.00116081
v 0.03192106 0.02843777 0.00373844
v 0.03249074 0.02679419 0.00091694
v 0.03253102 0.02631735 0.00013741
v 0.03265186 0.02594323 0.00013741
v 0.03266529 0.02538903 -0.00041706
v 0.03246580 0.02483483 -0.00122639
v 0.03229701 0.02483483 -0.00152598
v 0.03302972 0.02399148 -0.00013237
v 0.03259623 0.02483483 -0.00094916
v 0.03204574 0.02428063 -0.00202232
v 0.03249841 0.02261676 -0.00128303
v 0.03205341 0.02372643 -0.00201039
v 0.03249266 0.02217670 -0.00127409
v 0.03203231 0.02261676 -0.00194928
v 0.03200738 0.02206383 -0.00191798
v 0.03002215 0.01984703 -0.00429681
v 0.03232195 0.02202198 -0.00148574
v 0.03193641 0.02121541 -0.00182706
v 0.03026766 0.01956295 -0.00345319
v 0.02844547 0.01795742 -0.00523731
v 0.02828435 0.01780904 -0.00541617
v 0.01586467 0.01790035 0.00430483
v 0.01557120 0.01768603 0.00401567
v 0.02709513 0.01730430 -0.00558609
v 0.02368283 0.01678180 -0.00453380
v 0.01925970 0.01622253 -0.00295090
v 0.01482697 0.01566579 -0.00129794
v 0.01446254 0.01564170 -0.00109970
v 0.01372215 0.01562141 -0.00096109
v 0.01390821 0.01565945 -0.00128452
v 0.01849246 0.01621492 -0.00294493
v 0.03139167 0.02065360 -0.00230402
v 0.03083734 0.02010320 -0.00287190
v 0.01372215 0.01941330 -0.00152598
v 0.01387176 0.01946403 -0.00152598
v 0.01372215 0.02009432 -0.00031421
v 0.01812035 0.02633257 0.00817713
v 0.01888567 0.02658874 0.00817713
v 0.02495837 0.02722030 0.00568056
v 0.02558750 0.02743082 0.00568056
v 0.03128809 0.02791020 0.00313628
v 0.03164486 0.02758935 0.00235228
v 0.03164486 0.02781382 0.00275323
v 0.03164486 0.02796727 0.00303046
v 0.03170048 0.02825008 0.00351636
v 0.03155087 0.02838324 0.00384427
v 0.03122671 0.02847201 0.00421391
v 0.03170048 0.02849103 0.00402313
v 0.03196902 0.02847835 0.00401567
v 0.03216658 0.02816003 0.00401567
v 0.03223180 0.02816003 0.00457014
v 0.03250417 0.02682970 0.00124484
v 0.03261925 0.02649743 0.00124484
v 0.03274585 0.02594323 0.00069038
v 0.03256363 0.02650885 0.00071572
v 0.03288587 0.02538903 0.00069038
v 0.03299712 0.02487034 0.00064716
v 0.03305274 0.02362117 -0.00018305
v 0.03306809 0.02317223 -0.00021137
v 0.03247156 0.02441760 -0.00124130
v 0.03235072 0.02425273 -0.00147233
v 0.03325606 0.02372643 0.00069038
v 0.03311220 0.02377462 0.00008673
v 0.03318701 0.02317223 0.00013741
v 0.03249074 0.02317223 -0.00127409
v 0.03267104 0.02261676 -0.00097152
v 0.03305849 0.02279811 -0.00019199
v 0.03257705 0.02209934 -0.00097152
v 0.03242936 0.02182160 -0.00097152
v 0.03193641 0.02121541 -0.00175105
v 0.03260391 0.02227815 -0.00002953
v 0.03222029 0.02191291 -0.00042749
v 0.03204766 0.02174424 -0.00061827
v 0.01695798 0.02012349 0.00761969
v 0.01557120 0.01784962 0.00439426
v 0.01446254 0.01758584 0.00457014
v 0.03296259 0.02292240 0.00092588
v 0.01392931 0.01743239 0.00453437
v 0.01925970 0.01622253 -0.00286296
v 0.01482697 0.01566579 -0.00119658
v 0.01372215 0.01563536 -0.00058101
v 0.03311220 0.02281333 0.00055773
v 0.01372215 0.02015773 -0.00020093
v 0.01794005 0.02627170 0.00817713
v 0.01929614 0.02672571 0.00817713
v 0.02814049 0.02785060 0.00490699
v 0.03053620 0.02815116 0.00401567
v 0.03106175 0.02832744 0.00402313
v 0.03106175 0.02848469 0.00457014
v 0.03164486 0.02857220 0.00457014
v 0.02746149 0.02789118 0.00538693
v 0.02302493 0.02733825 0.00704734
v 0.02679399 0.02791274 0.00588326
v 0.02642379 0.02787216 0.00607554
v 0.03202272 0.02852020 0.00457014
v 0.03235455 0.02820696 0.00817713
v 0.03249074 0.02792922 0.00817713
v 0.03246964 0.02785947 0.00722471
v 0.03242169 0.02770602 0.00512460
v 0.03240826 0.02766671 0.00457014
v 0.03241210 0.02756652 0.00396202
v 0.03245621 0.02726723 0.00290675
v 0.03251759 0.02689311 0.00179931
v 0.03264610 0.02649743 0.00179931
v 0.03279188 0.02594323 0.00124484
v 0.03253102 0.02695018 0.00235228
v 0.03304123 0.02514554 0.00141327
v 0.03302205 0.02507832 0.00104363
v 0.03324455 0.02428063 0.00124484
v 0.03306425 0.02470928 0.00080366
v 0.03291847 0.02317223 -0.00048860
v 0.03247731 0.02404855 -0.00125173
v 0.03331744 0.02428063 0.00179931
v 0.03331360 0.02372643 0.00124484
v 0.03319468 0.02313292 0.00072168
v 0.03311220 0.02276134 0.00013741
v 0.03265569 0.02317223 -0.00097152
v 0.01668561 0.02034670 0.00817713
v 0.01667986 0.02023256 0.00797890
v 0.01627897 0.02016534 0.00809814
v 0.01502454 0.01978996 0.00817713
v 0.01372215 0.01897831 0.00750790
v 0.01446254 0.01797517 0.00527961
v 0.03194792 0.02642388 0.00817713
v 0.01377202 0.01785977 0.00548530
v 0.01372215 0.01765052 0.00513951
v 0.01500919 0.01777099 0.00458802
v 0.01372215 0.01740956 0.00461634
v 0.03310837 0.02339036 0.00162492
v 0.03222796 0.02654055 0.00817713
v 0.03317358 0.02328764 0.00124484
v 0.01372215 0.02019958 -0.00011747
v 0.01763699 0.02615248 0.00817713
v 0.01779044 0.02621589 0.00817713
v 0.01960112 0.02682082 0.00817713
v 0.01963565 0.02680560 0.00811751
v 0.02887321 0.02797234 0.00468789
v 0.03072992 0.02844792 0.00475496
v 0.02236702 0.02735219 0.00755411
v 0.02662711 0.02792161 0.00624992
v 0.03109053 0.02850498 0.00512460
v 0.03164486 0.02857473 0.00512460
v 0.03203039 0.02852274 0.00512460
v 0.02998187 0.02835914 0.00512460
v 0.03041152 0.02841748 0.00512460
v 0.01978142 0.02687409 0.00817713
v 0.03221837 0.02837309 0.00817713
v 0.03254444 0.02775548 0.00817713
v 0.03269981 0.02705163 0.00678799
v 0.03253294 0.02751072 0.00623353
v 0.03250800 0.02742955 0.00512460
v 0.03248498 0.02735600 0.00411107
v 0.03297985 0.02549936 0.00235228
v 0.03305274 0.02518232 0.00179931
v 0.03316015 0.02483483 0.00179931
v 0.03318509 0.02483483 0.00235228
v 0.03320619 0.02483483 0.00290675
v 0.03303356 0.02567945 0.00512460
v 0.03303164 0.02567311 0.00540780
v 0.03328099 0.02428063 0.00235228
v 0.03321962 0.02369726 0.00180527
v 0.01636529 0.02023890 0.00817713
v 0.01592988 0.02009306 0.00817713
v 0.01435704 0.01956676 0.00817713
v 0.01372215 0.01935497 0.00817713
v 0.01372215 0.01882106 0.00722769
v 0.01372215 0.01785469 0.00550468
v 0.03307768 0.02396739 0.00269361
v 0.03316015 0.02387227 0.00235228
v 0.03304507 0.02454441 0.00376080
v 0.03243703 0.02677009 0.00817713
v 0.01372215 0.02031119 0.00013592
v 0.01740298 0.02589124 0.00817713
v 0.02083254 0.02712646 0.00817713
v 0.02198723 0.02732049 0.00789543
v 0.02226344 0.02736488 0.00789543
v 0.03088529 0.02847962 0.00817713
v 0.03164486 0.02857600 0.00567907
v 0.02942754 0.02829193 0.00567907
v 0.03204382 0.02852528 0.00623353
v 0.03207643 0.02852528 0.00817713
v 0.02721022 0.02800658 0.00623353
v 0.03259048 0.02760583 0.00817713
v 0.03267488 0.02705163 0.00623353
v 0.03303356 0.02567691 0.00477583
v 0.03300479 0.02558053 0.00346121
v 0.03303164 0.02566296 0.00540780
v 0.03260774 0.02727230 0.00817713
v 0.03261733 0.02700598 0.00817713
v 0.03307576 0.02504282 0.00442854
v 0.03310645 0.02446325 0.00346121
v 0.01372215 0.02127755 0.00817713
v 0.03245429 0.02679165 0.00817713
v 0.02138687 0.02723425 0.00817713
v 0.02182420 0.02730654 0.00817713
v 0.02224426 0.02736488 0.00817713
v 0.02277749 0.02743590 0.00789543
v 0.03136290 0.02854049 0.00817713
v 0.02360227 0.02754242 0.00817713
v 0.03164486 0.02857600 0.00817713
v 0.02249745 0.02739912 0.00817713
v 0.02277749 0.02743590 0.00817713
f 117 61 116
f 8 9 1
f 8 24 9
f 9 24 26
f 227 226 274
f 338 319 318
f 2 3 1
f 61 26 60
f 64 61 117
f 30 66 67
f 1 9 10
f 10 2 1
f 67 66 119
f 119 120 67
f 196 241 197
f 105 168 169
f 169 170 105
f 105 165 166
f 166 165 168
f 277 228 261
f 223 168 218
f 261 228 262
f 304 331 329
f 324 327 326
f 279 318 319
f 13 34 11
f 11 2 13
f 13 10 34
f 2 10 13
f 140 182 183
f 71 69 34
f 34 70 71
f 130 180 126
f 126 180 138
f 11 34 40
f 34 69 40
f 117 116 177
f 226 227 174
f 227 175 174
f 174 175 107
f 109 177 116
f 109 116 61
f 61 60 109
f 57 32 31
f 31 32 9
f 9 30 31
f 31 30 67
f 34 10 33
f 120 119 118
f 197 241 242
f 241 196 195
f 236 241 195
f 274 226 224
f 167 168 105
f 105 166 167
f 167 166 168
f 168 165 219
f 219 218 168
f 165 218 219
f 216 228 178
f 217 228 223
f 223 218 217
f 217 178 228
f 179 178 217
f 217 218 165
f 165 179 217
f 213 262 214
f 159 213 214
f 214 164 159
f 272 221 271
f 259 301 302
f 303 304 259
f 303 331 304
f 259 302 303
f 303 302 331
f 270 264 220
f 220 168 223
f 223 270 220
f 220 221 168
f 285 292 320
f 147 193 194
f 194 193 236
f 194 195 147
f 236 195 194
f 236 193 235
f 288 324 326
f 327 324 346
f 318 279 278
f 183 182 230
f 130 70 129
f 70 128 129
f 127 70 77
f 127 128 70
f 12 2 11
f 11 14 12
f 3 2 12
f 12 14 3
f 42 14 11
f 43 14 42
f 44 14 43
f 253 301 259
f 55 26 24
f 24 23 55
f 55 60 26
f 55 109 60
f 159 164 104
f 7 8 1
f 1 3 4
f 4 5 1
f 22 23 6
f 6 5 22
f 6 23 24
f 24 8 6
f 8 7 6
f 1 5 6
f 6 7 1
f 180 140 181
f 138 180 181
f 181 140 138
f 138 140 139
f 130 126 125
f 125 126 69
f 105 170 171
f 170 224 171
f 107 172 173
f 176 175 117
f 107 175 176
f 117 177 176
f 176 177 107
f 61 64 27
f 9 26 27
f 27 26 61
f 66 30 29
f 29 30 9
f 67 120 121
f 121 122 67
f 68 31 67
f 67 122 68
f 57 31 68
f 39 70 34
f 34 33 39
f 77 70 39
f 39 33 10
f 117 118 65
f 65 64 117
f 66 29 65
f 65 119 66
f 65 118 119
f 65 29 63
f 293 242 241
f 197 242 243
f 222 272 274
f 274 224 222
f 222 169 168
f 168 221 222
f 170 169 222
f 222 224 170
f 315 277 307
f 307 306 315
f 276 270 223
f 316 317 276
f 164 214 215
f 215 214 262
f 216 164 215
f 215 228 216
f 215 262 228
f 269 271 221
f 221 220 269
f 285 235 240
f 240 235 193
f 328 290 322
f 229 230 182
f 229 278 279
f 128 127 134
f 134 133 132
f 134 127 77
f 43 42 86
f 14 44 16
f 43 88 89
f 89 88 147
f 108 55 107
f 109 55 108
f 107 177 108
f 177 109 108
f 159 104 163
f 112 178 179
f 112 165 105
f 112 179 165
f 22 5 21
f 21 52 22
f 22 52 53
f 69 71 124
f 124 125 69
f 130 125 124
f 124 70 130
f 124 71 70
f 79 40 69
f 138 139 79
f 79 139 140
f 225 224 226
f 225 171 224
f 106 172 107
f 107 55 106
f 62 27 64
f 63 27 62
f 64 65 62
f 62 65 63
f 28 29 9
f 63 29 28
f 9 27 28
f 28 27 63
f 114 122 132
f 114 68 122
f 114 115 57
f 327 293 289
f 289 293 241
f 326 327 289
f 289 241 236
f 289 288 326
f 236 288 289
f 273 221 272
f 272 222 273
f 273 222 221
f 223 228 275
f 228 277 275
f 277 315 275
f 275 276 223
f 335 316 336
f 339 316 335
f 339 317 316
f 272 271 313
f 271 312 313
f 266 267 220
f 220 267 268
f 268 269 220
f 268 312 271
f 271 269 268
f 321 340 341
f 341 322 321
f 321 322 285
f 320 340 321
f 285 320 321
f 285 240 239
f 239 240 193
f 322 290 286
f 285 322 286
f 286 235 285
f 238 282 292
f 238 292 285
f 285 239 238
f 193 237 238
f 238 239 193
f 141 140 185
f 143 142 141
f 141 187 143
f 234 237 193
f 190 187 234
f 324 288 287
f 287 288 236
f 342 322 341
f 324 287 323
f 280 229 279
f 230 229 280
f 40 79 78
f 87 88 43
f 43 86 87
f 158 93 157
f 159 158 157
f 92 44 43
f 92 93 44
f 94 158 159
f 94 93 158
f 94 47 93
f 3 14 15
f 14 16 15
f 15 4 3
f 15 16 4
f 259 306 260
f 260 306 307
f 260 277 261
f 307 277 260
f 43 89 90
f 147 195 148
f 148 89 147
f 148 195 196
f 148 196 197
f 104 103 54
f 22 53 54
f 54 23 22
f 56 55 23
f 23 54 56
f 56 54 103
f 102 163 104
f 104 54 102
f 69 126 123
f 123 79 69
f 123 126 138
f 138 79 123
f 136 140 141
f 136 79 140
f 77 39 38
f 38 39 10
f 131 114 132
f 57 68 113
f 113 114 57
f 68 114 113
f 246 247 197
f 197 245 246
f 246 245 247
f 197 243 244
f 244 245 197
f 314 315 316
f 314 275 315
f 316 276 314
f 276 275 314
f 316 315 337
f 337 336 316
f 337 315 306
f 306 336 337
f 335 336 333
f 333 336 306
f 311 268 310
f 310 268 267
f 235 286 284
f 284 286 290
f 236 235 284
f 284 290 236
f 292 282 281
f 282 231 281
f 186 187 141
f 141 185 186
f 144 87 146
f 88 87 144
f 147 88 144
f 144 143 147
f 189 187 190
f 189 190 147
f 147 143 189
f 192 193 147
f 192 234 193
f 190 234 192
f 291 287 236
f 236 290 291
f 290 328 291
f 322 342 343
f 343 328 322
f 328 343 345
f 345 343 348
f 325 323 287
f 325 291 328
f 287 291 325
f 325 345 323
f 328 345 325
f 344 346 324
f 324 323 344
f 135 78 79
f 11 40 41
f 40 78 41
f 81 82 41
f 41 42 11
f 41 82 42
f 85 86 42
f 85 87 86
f 159 163 161
f 44 93 46
f 93 47 46
f 52 21 20
f 20 21 5
f 152 153 91
f 153 92 91
f 91 92 43
f 43 90 91
f 254 253 259
f 254 200 253
f 259 255 254
f 253 200 251
f 301 253 251
f 251 300 301
f 150 90 89
f 247 252 248
f 197 247 248
f 110 103 104
f 110 56 103
f 110 104 164
f 164 111 110
f 111 56 110
f 162 102 101
f 101 102 53
f 100 54 53
f 53 102 100
f 100 102 54
f 77 38 76
f 76 134 77
f 133 134 76
f 133 76 75
f 75 76 38
f 10 36 37
f 37 38 10
f 36 38 37
f 9 32 25
f 25 10 9
f 25 32 57
f 57 58 25
f 74 131 132
f 132 133 74
f 133 75 74
f 74 38 36
f 74 75 38
f 115 114 72
f 114 131 72
f 57 115 72
f 72 58 57
f 245 244 298
f 298 252 247
f 247 245 298
f 305 334 335
f 335 333 305
f 329 334 305
f 304 329 305
f 259 304 305
f 305 306 259
f 305 333 306
f 267 266 309
f 266 308 309
f 264 308 265
f 265 220 264
f 265 266 220
f 265 308 266
f 237 234 233
f 233 283 237
f 233 234 187
f 187 186 232
f 232 233 187
f 283 233 232
f 282 238 232
f 232 231 282
f 232 186 231
f 232 238 237
f 237 283 232
f 231 186 184
f 184 186 185
f 184 140 183
f 184 185 140
f 142 143 80
f 143 144 80
f 80 145 81
f 144 145 80
f 78 135 80
f 81 41 80
f 80 41 78
f 141 142 80
f 80 136 141
f 188 143 187
f 187 189 188
f 188 189 143
f 147 190 191
f 191 192 147
f 190 192 191
f 348 343 347
f 347 343 342
f 146 87 84
f 84 144 146
f 84 145 144
f 87 85 84
f 84 85 42
f 84 82 81
f 81 145 84
f 79 136 137
f 137 135 79
f 136 80 137
f 137 80 135
f 157 211 212
f 159 157 212
f 212 213 159
f 212 205 213
f 156 157 93
f 156 211 157
f 156 207 211
f 93 92 156
f 156 92 153
f 156 153 152
f 152 207 156
f 160 94 159
f 159 161 160
f 99 161 163
f 99 102 162
f 163 102 99
f 99 53 52
f 162 101 99
f 99 101 53
f 96 160 161
f 17 46 47
f 17 16 44
f 44 46 17
f 4 16 17
f 17 18 4
f 204 205 152
f 208 255 259
f 259 260 208
f 300 251 250
f 252 298 250
f 200 148 199
f 199 251 200
f 199 250 251
f 252 250 199
f 199 248 252
f 201 148 200
f 200 254 202
f 202 150 200
f 202 254 255
f 35 36 10
f 10 25 35
f 73 74 36
f 131 74 73
f 36 72 73
f 73 72 131
f 42 82 83
f 83 84 42
f 82 84 83
f 205 212 257
f 47 94 95
f 94 160 95
f 95 96 47
f 160 96 95
f 98 96 161
f 98 99 52
f 161 99 98
f 47 96 97
f 152 91 155
f 155 204 152
f 151 91 90
f 90 150 151
f 205 204 210
f 213 205 210
f 210 262 213
f 210 208 260
f 261 262 210
f 210 260 261
f 300 250 299
f 299 250 298
f 301 300 299
f 299 302 301
f 198 199 148
f 198 148 197
f 197 248 198
f 200 150 149
f 149 201 200
f 149 150 89
f 89 148 149
f 148 201 149
f 36 35 59
f 59 35 25
f 59 25 58
f 59 72 36
f 58 72 59
f 243 294 295
f 295 244 243
f 295 294 329
f 295 329 331
f 331 302 295
f 263 212 211
f 263 257 212
f 206 207 152
f 152 205 206
f 205 257 206
f 51 97 96
f 52 20 51
f 51 98 52
f 96 98 51
f 154 155 91
f 204 155 154
f 91 151 154
f 154 210 204
f 255 208 256
f 256 202 255
f 244 295 296
f 296 295 330
f 248 199 249
f 249 198 248
f 199 198 249
f 207 206 258
f 211 207 258
f 258 263 211
f 257 263 258
f 258 206 257
f 49 45 17
f 97 51 49
f 49 51 20
f 20 45 49
f 4 18 19
f 18 17 19
f 17 45 19
f 5 4 19
f 19 20 5
f 208 210 209
f 209 154 208
f 210 154 209
f 203 151 150
f 150 202 203
f 202 256 203
f 203 154 151
f 208 154 203
f 203 256 208
f 332 296 330
f 330 295 332
f 302 299 332
f 332 295 302
f 297 298 244
f 244 296 297
f 297 299 298
f 48 17 47
f 48 49 17
f 47 97 48
f 97 49 48
f 50 45 20
f 20 19 50
f 50 19 45
f 178 111 164
f 178 164 216
f 173 174 107
f 226 174 173
f 226 173 225
f 225 173 172
f 106 225 172
f 171 225 106
f 106 55 105
f 105 171 106
f 130 129 268
f 338 318 268
f 182 140 268
f 311 338 268
f 268 121 120
f 268 180 130
f 268 227 274
f 274 272 268
f 268 118 117
f 272 313 268
f 117 175 268
f 268 229 182
f 268 140 180
f 268 175 227
f 132 122 268
f 120 118 268
f 318 278 268
f 268 129 128
f 122 121 268
f 268 134 132
f 278 229 268
f 128 134 268
f 268 313 312
f 105 55 56
f 56 112 105
f 111 178 56
f 178 112 56
f 347 338 311
f 270 276 347
f 347 308 264
f 347 339 335
f 347 319 338
f 267 309 347
f 335 334 347
f 347 264 270
f 183 230 347
f 341 340 347
f 347 279 319
f 347 293 327
f 347 320 292
f 347 334 329
f 327 346 347
f 347 345 348
f 242 293 347
f 347 243 242
f 329 294 347
f 347 276 317
f 347 280 279
f 347 340 320
f 347 342 341
f 347 294 243
f 317 339 347
f 311 310 347
f 347 184 183
f 292 281 347
f 230 280 347
f 346 344 347
f 347 310 267
f 347 281 231
f 323 345 347
f 347 344 323
f 347 309 308
f 231 184 347
f 296 332 297
f 297 332 299

