# https://github.com/mikedh/trimesh
v 0.01372215 0.00811258 0.00794268
v 0.01372215 -0.00323850 0.02080751
v 0.01372215 0.00811258 0.00590309
v -0.00778318 0.00811258 0.02080751
v 0.01372215 -0.00522060 0.02080751
v 0.01372215 -0.00138105 0.01212980
v 0.00715708 -0.01048235 0.01247703
v 0.00370235 -0.00540042 0.00871299
v 0.00263976 -0.00596440 0.00871007
v 0.00099516 -0.00649977 0.00871445
v 0.00060270 -0.00651612 0.00870569
v 0.00005004 -0.00651816 0.00870278
v -0.00050261 -0.00650998 0.00870715
v -0.00105793 -0.00649977 0.00871445
v -0.00137030 -0.00649160 0.00872174
v -0.00660046 0.00811258 0.00689371
v -0.01117384 0.00811258 0.02080751
v 0.01372215 -0.00527781 0.02070684
v 0.00815292 -0.00986116 0.02080751
v 0.01372215 -0.00402521 0.01386447
v 0.00650298 -0.01096255 0.01252809
v 0.00669254 -0.01065604 0.01239387
v 0.01372215 -0.00473223 0.01432841
v 0.01372215 -0.00701470 0.01650804
v 0.01372215 -0.00716387 0.01676044
v 0.00614522 -0.01104633 0.01244493
v 0.00503725 -0.01119346 0.01225089
v 0.00392928 -0.01174722 0.01228736
v 0.00337396 -0.01216407 0.01242013
v 0.00115802 -0.01230302 0.01226110
v 0.00060270 -0.01266879 0.01245222
v -0.00050261 -0.01230302 0.01226694
v -0.00105793 -0.01230302 0.01228736
v -0.00161058 -0.01230302 0.01230925
v -0.00272122 -0.01223764 0.01239824
v -0.00327387 -0.01215794 0.01242888
v -0.00493716 -0.01162462 0.01242596
v -0.00296951 -0.00590105 0.00874363
v -0.00260108 -0.00596031 0.00871007
v -0.00361027 -0.00541677 0.00871007
v -0.00703831 0.00779177 0.00700167
v -0.00715845 0.00811258 0.00698854
v -0.01124059 0.00811258 0.02062952
v -0.01113380 0.00778564 0.02080751
v 0.01372215 -0.00659581 0.01835797
v 0.00790997 -0.01003485 0.02080751
v 0.01372215 -0.00716387 0.01731629
v 0.01372215 -0.00707192 0.01750449
v 0.01372215 -0.00702901 0.01758328
v 0.01372215 -0.00697384 0.01768248
v 0.01372215 -0.00691458 0.01778898
v 0.00682069 -0.01081951 0.01288698
v 0.00654303 -0.01098503 0.01288698
v 0.00614522 -0.01117711 0.01288698
v 0.00537365 -0.01149792 0.01255435
v 0.00503725 -0.01157557 0.01246827
v 0.00392928 -0.01208847 0.01250474
v 0.00159586 -0.01261158 0.01254414
v 0.00115802 -0.01265040 0.01247848
v 0.00060270 -0.01276075 0.01288698
v 0.00005004 -0.01265653 0.01246681
v -0.00161058 -0.01261771 0.01252809
v -0.00217391 -0.01234798 0.01240700
v -0.00050261 -0.01264427 0.01248432
v -0.00105793 -0.01262997 0.01250474
v -0.00199770 -0.01259932 0.01256310
v -0.00382919 -0.01207825 0.01251788
v -0.00532963 -0.01153675 0.01250766
v -0.00604514 -0.01105451 0.01245076
v -0.00550584 -0.01122615 0.01237636
v -0.00413355 -0.01203329 0.01259082
v -0.00658711 -0.01065400 0.01239970
v -0.00715578 -0.01008593 0.01227278
v -0.00420030 -0.00487935 0.00871007
v -0.00770843 -0.00953013 0.01223047
v -0.00823705 -0.00950970 0.01243034
v -0.00474227 -0.00436033 0.00871007
v -0.00525487 -0.00379226 0.00871007
v -0.00578083 -0.00317516 0.00872028
v -0.00740674 0.00803902 0.00708045
v -0.00731597 0.00811258 0.00703960
v -0.01225245 0.00811258 0.01787360
v -0.01141680 0.00650238 0.01958638
v -0.01012728 -0.00003650 0.02080751
v 0.00780852 -0.01010637 0.02080751
v 0.00720781 -0.01052935 0.02080751
v 0.00681268 -0.01080725 0.02080751
v 0.00653502 -0.01098503 0.02080751
v 0.00654303 -0.01098503 0.01343846
v 0.00614522 -0.01117711 0.02080751
v 0.00568335 -0.01138758 0.01288698
v 0.00422830 -0.01203534 0.01258790
v 0.00337396 -0.01230302 0.01288698
v 0.00167863 -0.01262588 0.01288698
v 0.00115802 -0.01272192 0.01288698
v 0.00060270 -0.01276075 0.02080751
v -0.00034242 -0.01271579 0.02080751
v -0.00145039 -0.01266266 0.02080751
v -0.00105793 -0.01268105 0.01288698
v -0.00161058 -0.01265449 0.01288698
v -0.00205110 -0.01260953 0.01288698
v -0.00232609 -0.01255436 0.01288698
v -0.00272122 -0.01245219 0.01288698
v -0.00493716 -0.01177787 0.01288698
v -0.00538836 -0.01156944 0.01288698
v -0.00639221 -0.01095642 0.01253976
v -0.00715578 -0.01045988 0.01249016
v -0.00414690 -0.01203738 0.01288698
v -0.00442456 -0.01195564 0.01288698
v -0.00766304 -0.01005733 0.01246389
v -0.00879771 -0.00896207 0.01241721
v -0.00936104 -0.00841443 0.01240554
v -0.00803682 -0.00985503 0.01253830
v -0.00860282 -0.00931149 0.01252663
v -0.00916615 -0.00876794 0.01251642
v -0.00991369 -0.00782185 0.01244931
v -0.00992704 -0.00731304 0.01227569
v -0.01050372 -0.00676541 0.01238074
v -0.01103501 -0.00565176 0.01229320
v -0.01149956 -0.00509595 0.01240554
v -0.00741475 0.00811258 0.00707607
v -0.01197746 -0.00398843 0.01245368
v -0.01207357 -0.00343263 0.01240116
v -0.01249807 -0.00232510 0.01247265
v -0.01254613 -0.00177339 0.01242742
v -0.01330702 0.00811258 0.01499951
v -0.01238861 0.00654121 0.01695156
v -0.01185198 0.00250754 0.01699970
v -0.01081876 -0.00177339 0.01831420
v -0.01022606 -0.00509595 0.01876355
v -0.00967608 -0.00354093 0.02080751
v 0.00568335 -0.01138758 0.02080751
v 0.00443387 -0.01195156 0.02080751
v 0.00423898 -0.01203943 0.01288698
v 0.00392928 -0.01215181 0.01288698
v 0.00337396 -0.01230302 0.02080751
v 0.00187353 -0.01258910 0.02080751
v 0.00167863 -0.01262588 0.02080751
v 0.00130752 -0.01269536 0.02080751
v 0.00115802 -0.01272192 0.02080751
v -0.00161058 -0.01265449 0.02080751
v -0.00192295 -0.01262384 0.02080751
v -0.00205110 -0.01260953 0.02080751
v -0.00213119 -0.01259523 0.02080751
v -0.00232876 -0.01255640 0.01343846
v -0.00272122 -0.01245424 0.01621042
v -0.00493716 -0.01177991 0.01343846
v -0.00540438 -0.01157762 0.01621042
v -0.00539370 -0.01157353 0.01399285
v -0.00539103 -0.01157149 0.01343846
v -0.00566602 -0.01141210 0.01288698
v -0.00744946 -0.01037405 0.01258353
v -0.00382919 -0.01213138 0.01676482
v -0.00442456 -0.01195769 0.01676482
v -0.00493716 -0.01178604 0.01621042
v -0.00493716 -0.01178196 0.01399285
v -0.00971880 -0.00822440 0.01250766
v -0.00806351 -0.00987955 0.01288698
v -0.00834117 -0.00962004 0.01288698
v -0.00891252 -0.00908058 0.01288698
v -0.00920619 -0.00880268 0.01288698
v -0.00948118 -0.00854112 0.01288698
v -0.01082410 -0.00658355 0.01250912
v -0.01101900 -0.00615239 0.01245952
v -0.01138476 -0.00565176 0.01251058
v -0.01190537 -0.00437668 0.01253392
v -0.01307742 0.00210703 0.01244201
v -0.01311213 0.00266079 0.01241721
v -0.01314951 0.00321660 0.01240408
v -0.01315218 0.00377036 0.01242013
v -0.00750018 0.00811258 0.00717236
v -0.01245535 -0.00273787 0.01253830
v -0.01298398 0.00065213 0.01258790
v -0.01300533 0.00099951 0.01254122
v -0.01304271 0.00155327 0.01248286
v -0.01355265 0.00811258 0.01432986
v -0.01295728 0.00474915 0.01477338
v -0.01236725 -0.00011006 0.01467709
v -0.01236191 -0.00177339 0.01410811
v -0.01073600 -0.00464027 0.01753367
v -0.01109108 -0.00565176 0.01621042
v -0.00909139 -0.00808136 0.02080751
v 0.00423898 -0.01203943 0.02080751
v 0.00402005 -0.01211912 0.02080751
v 0.00392928 -0.01215181 0.02080751
v -0.00232876 -0.01255640 0.02080751
v -0.00272122 -0.01245424 0.02080751
v -0.00405613 -0.01206599 0.02080751
v -0.00541773 -0.01157762 0.01898239
v -0.00550584 -0.01153675 0.02080751
v -0.00570073 -0.01143458 0.02064557
v -0.00569272 -0.01142845 0.01842799
v -0.00568204 -0.01142232 0.01621042
v -0.00566869 -0.01141414 0.01343846
v -0.00715578 -0.01056000 0.01288698
v -0.00746014 -0.01038223 0.01288698
v -0.00773780 -0.01015745 0.01288698
v -0.00442723 -0.01195769 0.02064557
v -0.00478765 -0.01183713 0.02080751
v -0.00493716 -0.01178604 0.02080751
v -0.00528157 -0.01163892 0.02080751
v -0.00542307 -0.01157762 0.02064557
v -0.00975618 -0.00826526 0.01288698
v -0.01021271 -0.00760525 0.01258936
v -0.00807152 -0.00988568 0.01399285
v -0.00834918 -0.00962617 0.01399285
v -0.00893921 -0.00910715 0.01676482
v -0.00864286 -0.00935031 0.01399285
v -0.00922221 -0.00881903 0.01510164
v -0.00921420 -0.00881085 0.01399285
v -0.00948652 -0.00854317 0.01343846
v -0.01131535 -0.00593170 0.01260395
v -0.01193474 -0.00445433 0.01288698
v -0.01210027 -0.00398843 0.01288698
v -0.01229517 -0.00343263 0.01288698
v -0.01170247 -0.00509595 0.01288698
v -0.01183596 -0.00473223 0.01288698
v -0.01332304 0.00321660 0.01288698
v -0.01333105 0.00377036 0.01288698
v -0.01355265 0.00811258 0.01418835
v -0.01240463 -0.00309546 0.01288698
v -0.01247137 -0.00281961 0.01288698
v -0.01257016 -0.00232510 0.01288698
v -0.01266894 -0.00177339 0.01288698
v -0.01298932 0.00061739 0.01288698
v -0.01318154 0.00210703 0.01288698
v -0.01275170 -0.00121758 0.01288698
v -0.01282379 -0.00066382 0.01288698
v -0.01323494 0.00321660 0.01343846
v -0.01353663 0.00787555 0.01428901
v -0.01297330 0.00184752 0.01370982
v -0.01299733 0.00221737 0.01377547
v -0.01261821 -0.00011006 0.01399285
v -0.01246336 -0.00177339 0.01383091
v -0.01139010 -0.00509595 0.01558892
v -0.01135005 -0.00565176 0.01548242
v -0.01083745 -0.00620552 0.01670500
v -0.01054110 -0.00675928 0.01731921
v -0.01006320 -0.00731304 0.01842799
v -0.00956662 -0.00786885 0.01958638
v -0.00904867 -0.00841035 0.02080751
v -0.00442723 -0.01195769 0.02080751
v -0.00542307 -0.01157762 0.02080751
v -0.00570073 -0.01143458 0.02080751
v -0.00594635 -0.01129767 0.02080751
v -0.00645629 -0.01099320 0.01842799
v -0.00715578 -0.01056613 0.01399285
v -0.00746281 -0.01038427 0.01399285
v -0.00746281 -0.01038223 0.01343846
v -0.00774047 -0.01016154 0.01343846
v -0.00673929 -0.01083586 0.01953678
v -0.00975884 -0.00826731 0.01343846
v -0.01003918 -0.00791993 0.01510164
v -0.01003918 -0.00791380 0.01454724
v -0.01003651 -0.00790154 0.01343846
v -0.01003384 -0.00789337 0.01288698
v -0.00950254 -0.00855134 0.01565603
v -0.01022072 -0.00761751 0.01288698
v -0.00835185 -0.00963026 0.01454724
v -0.00807686 -0.00988977 0.01510164
v -0.00866155 -0.00936666 0.01676482
v -0.00894188 -0.00911123 0.01731921
v -0.00923556 -0.00883742 0.01787360
v -0.01131802 -0.00593783 0.01288698
v -0.01146218 -0.00565176 0.01288698
v -0.01194809 -0.00449519 0.01343846
v -0.01212697 -0.00398843 0.01343846
v -0.01172116 -0.00509595 0.01343846
v -0.01184931 -0.00477310 0.01343846
v -0.01298398 0.00065213 0.01319336
v -0.01229250 -0.00343263 0.01343846
v -0.01245268 -0.00275422 0.01331445
v -0.01258618 -0.00177339 0.01343846
v -0.01304271 0.00155327 0.01337427
v -0.01295461 0.00155327 0.01365146
v -0.01243667 -0.00217389 0.01375942
v -0.01226046 -0.00287886 0.01399285
v -0.01194008 -0.00398843 0.01447430
v -0.01132069 -0.00594601 0.01540801
v -0.00964938 -0.00814675 0.01925958
v -0.01190537 -0.00442776 0.01437363
v -0.00966807 -0.00786885 0.01930919
v -0.00904600 -0.00842261 0.02080751
v -0.00915013 -0.00842261 0.02052156
v -0.00912076 -0.00874955 0.02043840
v -0.00646430 -0.01099934 0.02080751
v -0.00646430 -0.01099934 0.02064557
v -0.00646430 -0.01099729 0.02009117
v -0.00715578 -0.01058044 0.01898239
v -0.00715578 -0.01058248 0.02064557
v -0.00746548 -0.01038427 0.01787360
v -0.00774047 -0.01016971 0.01953678
v -0.00774047 -0.01016767 0.01621042
v -0.00774047 -0.01016563 0.01454724
v -0.00674196 -0.01083586 0.02064557
v -0.00976152 -0.00826935 0.01454724
v -0.01003918 -0.00793423 0.01676482
v -0.01003918 -0.00793015 0.01621042
v -0.00950788 -0.00855338 0.01676482
v -0.00951322 -0.00855338 0.01787360
v -0.01025276 -0.00765633 0.01676482
v -0.01024475 -0.00764816 0.01565603
v -0.01023407 -0.00763794 0.01454724
v -0.01022606 -0.00762364 0.01343846
v -0.00923823 -0.00884355 0.01898239
v -0.01069328 -0.00693910 0.01454724
v -0.01114715 -0.00623004 0.01399285
v -0.00807953 -0.00988977 0.01621042
v -0.00835719 -0.00964660 0.01787360
v -0.00867223 -0.00936870 0.01898239
v -0.00894989 -0.00912145 0.01953678
v -0.00894722 -0.00912145 0.01898239
v -0.00866422 -0.00936870 0.01731921
v -0.00894722 -0.00911736 0.01842799
v -0.01132335 -0.00594396 0.01343846
v -0.01147020 -0.00565176 0.01343846
v -0.01185732 -0.00478944 0.01399285
v -0.01194008 -0.00451358 0.01399285
v -0.01172917 -0.00509595 0.01399285
v -0.01266360 -0.00121758 0.01343846
v -0.01289320 0.00045801 0.01340199
v -0.01239395 -0.00291565 0.01347347
v -0.01207624 -0.00398843 0.01399285
v -0.01249006 -0.00234349 0.01347347
v -0.01241264 -0.00254170 0.01368210
v -0.01280777 -0.00011006 0.01343846
v -0.01218303 -0.00343263 0.01399285
v -0.01169179 -0.00509595 0.01454724
v -0.01132869 -0.00595622 0.01510164
v -0.01025276 -0.00765838 0.01731921
v -0.01023407 -0.00763590 0.01769707
v -0.00969744 -0.00821009 0.01898239
v -0.00890451 -0.00896002 0.02080751
v -0.00917683 -0.00881085 0.02009117
v -0.00674196 -0.01083586 0.02080751
v -0.00715578 -0.01058248 0.02080751
v -0.00746548 -0.01038427 0.02080751
v -0.00754557 -0.01032297 0.02080751
v -0.00774047 -0.01016971 0.02080751
v -0.00798342 -0.00997355 0.02080751
v -0.00808220 -0.00989181 0.01953678
v -0.00976152 -0.00827548 0.01621042
v -0.01003918 -0.00793423 0.01731921
v -0.00951322 -0.00855338 0.01842799
v -0.01047435 -0.00731304 0.01621042
v -0.01046635 -0.00731304 0.01565603
v -0.01069862 -0.00694523 0.01510164
v -0.00923022 -0.00884559 0.01953678
v -0.01088017 -0.00666733 0.01510164
v -0.01088284 -0.00667550 0.01565603
v -0.01132602 -0.00595214 0.01399285
v -0.00867223 -0.00937075 0.02009117
v -0.00866689 -0.00937075 0.02064557
v -0.01147553 -0.00565176 0.01399285
v -0.01147553 -0.00565176 0.01454724
v -0.01132869 -0.00595622 0.01454724
v -0.01115783 -0.00623208 0.01510164
v -0.00975351 -0.00827548 0.01842799
v -0.00865888 -0.00936870 0.02080751
v -0.00808220 -0.00989181 0.02080751
v -0.00976152 -0.00827548 0.01787360
v -0.00835986 -0.00964660 0.02064557
v -0.00835986 -0.00964456 0.02080751
v -0.00857612 -0.00944839 0.02080751
f 4 2 1
f 42 16 41
f 94 95 58
f 24 7 23
f 3 7 8
f 220 171 170
f 170 219 220
f 170 171 121
f 169 219 170
f 169 121 168
f 170 121 169
f 95 94 139
f 60 61 31
f 10 30 31
f 6 7 3
f 10 3 9
f 3 8 9
f 236 278 281
f 46 47 19
f 25 7 24
f 89 47 88
f 34 31 61
f 95 139 140
f 59 31 30
f 58 95 59
f 59 95 60
f 60 31 59
f 20 23 7
f 7 6 20
f 58 59 29
f 29 59 30
f 29 30 10
f 10 9 29
f 218 169 168
f 219 169 218
f 218 229 176
f 176 220 218
f 218 220 219
f 17 43 44
f 43 82 44
f 44 82 83
f 176 229 230
f 284 285 241
f 360 352 341
f 121 81 80
f 80 81 42
f 42 41 80
f 122 123 80
f 7 25 21
f 87 88 47
f 100 98 141
f 15 16 3
f 60 96 97
f 97 98 60
f 93 94 58
f 136 137 93
f 93 137 94
f 92 134 135
f 135 93 92
f 28 9 27
f 28 29 9
f 222 272 223
f 273 272 324
f 83 129 84
f 84 44 83
f 278 236 235
f 279 236 281
f 281 278 327
f 327 323 281
f 345 302 301
f 308 294 341
f 241 285 283
f 285 333 283
f 334 348 359
f 359 333 334
f 334 333 285
f 344 348 358
f 358 334 331
f 348 334 358
f 285 284 280
f 280 279 331
f 280 284 241
f 280 238 236
f 236 279 280
f 359 348 353
f 79 78 112
f 79 80 41
f 41 78 79
f 5 19 18
f 48 19 47
f 22 8 7
f 7 21 22
f 86 87 47
f 292 248 291
f 158 152 197
f 197 152 196
f 250 197 196
f 341 294 293
f 293 248 292
f 293 294 248
f 60 98 99
f 98 100 99
f 142 143 101
f 101 100 142
f 142 100 141
f 31 34 33
f 33 32 31
f 34 15 33
f 138 139 94
f 94 137 138
f 89 88 90
f 185 135 184
f 135 134 184
f 134 183 184
f 57 93 58
f 57 92 93
f 58 29 57
f 29 28 57
f 167 218 168
f 167 175 218
f 168 121 167
f 173 218 174
f 218 175 174
f 224 227 173
f 223 272 224
f 224 272 273
f 273 227 224
f 226 218 173
f 172 222 223
f 223 224 172
f 172 224 173
f 272 222 271
f 354 319 316
f 355 319 354
f 163 212 165
f 176 177 126
f 83 82 128
f 128 129 83
f 240 241 182
f 236 238 237
f 328 279 281
f 317 279 328
f 277 327 278
f 277 234 276
f 278 235 277
f 235 234 277
f 325 320 273
f 276 320 325
f 273 324 325
f 325 277 276
f 327 277 325
f 323 327 322
f 272 271 322
f 322 271 323
f 327 325 322
f 322 324 272
f 322 325 324
f 231 275 276
f 231 234 232
f 276 234 231
f 229 275 231
f 231 230 229
f 231 232 176
f 176 230 231
f 341 352 309
f 309 308 341
f 305 348 344
f 257 252 203
f 299 252 257
f 263 305 257
f 257 305 299
f 331 334 332
f 332 334 285
f 332 280 331
f 285 280 332
f 344 358 361
f 361 358 343
f 282 241 240
f 282 280 241
f 340 360 341
f 292 339 340
f 340 293 292
f 341 293 340
f 41 74 77
f 77 78 41
f 74 112 77
f 112 78 77
f 157 162 203
f 15 36 37
f 196 152 195
f 19 51 45
f 45 18 19
f 19 48 49
f 25 53 52
f 52 21 25
f 52 53 21
f 92 55 54
f 21 53 54
f 54 55 21
f 85 47 46
f 85 86 47
f 338 339 292
f 338 291 337
f 292 291 338
f 248 294 249
f 294 250 249
f 196 248 249
f 249 250 196
f 71 108 109
f 101 145 102
f 101 143 144
f 144 145 101
f 186 145 144
f 62 99 100
f 60 99 62
f 62 63 34
f 32 33 14
f 14 33 15
f 31 32 14
f 14 15 3
f 11 3 10
f 11 12 3
f 10 31 11
f 31 12 11
f 35 36 15
f 35 15 34
f 34 63 35
f 26 28 27
f 26 22 21
f 27 9 26
f 26 9 8
f 8 22 26
f 173 227 228
f 124 123 122
f 122 172 124
f 124 80 123
f 173 174 124
f 124 172 173
f 323 271 318
f 281 323 318
f 267 317 318
f 318 271 267
f 318 328 281
f 317 328 318
f 127 128 82
f 177 128 127
f 82 126 127
f 127 126 177
f 181 237 238
f 181 234 235
f 181 235 236
f 236 237 181
f 240 182 181
f 234 181 179
f 357 356 350
f 268 319 317
f 316 319 268
f 265 216 212
f 316 268 265
f 265 268 216
f 269 268 317
f 216 268 269
f 212 216 166
f 165 212 166
f 166 172 122
f 166 215 172
f 255 256 203
f 255 301 302
f 302 256 255
f 346 302 345
f 263 209 262
f 300 305 344
f 299 305 300
f 300 252 299
f 298 297 301
f 298 252 297
f 263 257 211
f 211 209 263
f 162 209 211
f 203 162 211
f 211 257 203
f 359 353 364
f 353 363 364
f 360 363 362
f 352 360 362
f 362 353 352
f 362 363 353
f 113 152 158
f 203 256 204
f 204 157 203
f 204 258 212
f 256 258 204
f 212 163 204
f 163 157 204
f 68 37 71
f 71 37 67
f 67 37 36
f 151 152 105
f 151 195 152
f 73 75 40
f 40 41 16
f 40 74 41
f 80 79 120
f 79 119 120
f 122 80 120
f 120 119 165
f 120 166 122
f 165 166 120
f 164 163 165
f 165 119 164
f 50 51 19
f 19 49 50
f 92 57 56
f 56 55 92
f 56 57 28
f 28 26 56
f 21 55 56
f 56 26 21
f 290 291 248
f 199 200 155
f 71 109 104
f 104 68 71
f 105 68 104
f 188 146 187
f 145 146 103
f 103 146 108
f 103 102 145
f 103 108 71
f 66 100 101
f 66 62 100
f 101 102 66
f 66 103 71
f 102 103 66
f 71 67 66
f 66 67 36
f 36 35 66
f 63 62 66
f 66 35 63
f 64 61 60
f 60 62 64
f 64 34 61
f 13 12 31
f 31 14 13
f 3 12 13
f 13 14 3
f 225 226 173
f 173 228 225
f 121 80 125
f 80 124 125
f 125 167 121
f 175 167 125
f 125 174 175
f 125 124 174
f 329 356 357
f 357 350 329
f 329 319 355
f 329 279 317
f 317 319 329
f 316 265 315
f 267 215 214
f 214 166 213
f 215 166 214
f 267 271 221
f 221 215 267
f 221 271 222
f 222 172 221
f 172 215 221
f 240 181 239
f 239 181 238
f 239 282 240
f 238 280 239
f 280 282 239
f 130 181 182
f 182 131 130
f 130 131 84
f 130 84 129
f 178 179 129
f 177 179 178
f 129 128 178
f 178 128 177
f 232 234 233
f 234 179 233
f 176 232 233
f 233 177 176
f 233 179 177
f 266 317 267
f 266 269 317
f 267 214 266
f 213 269 266
f 266 214 213
f 217 269 213
f 216 269 217
f 213 166 217
f 217 166 216
f 254 255 203
f 301 255 254
f 304 258 256
f 209 160 159
f 159 113 158
f 160 113 159
f 308 309 260
f 294 308 260
f 260 250 294
f 352 353 311
f 311 353 348
f 348 305 311
f 162 113 161
f 161 113 160
f 296 300 342
f 252 300 296
f 342 297 296
f 297 252 296
f 115 157 112
f 162 157 115
f 152 113 110
f 105 152 106
f 106 68 105
f 68 106 107
f 107 106 152
f 152 110 107
f 107 110 73
f 195 151 194
f 194 151 105
f 111 112 74
f 16 15 39
f 39 40 16
f 73 40 38
f 40 39 38
f 15 37 38
f 38 39 15
f 118 164 119
f 118 119 79
f 163 164 118
f 133 183 134
f 134 92 91
f 92 54 91
f 132 133 91
f 91 133 134
f 251 248 196
f 191 148 190
f 190 202 243
f 190 148 189
f 189 202 190
f 155 202 189
f 149 104 148
f 193 194 149
f 148 191 149
f 155 189 156
f 156 189 148
f 156 109 155
f 154 109 108
f 155 109 154
f 154 199 155
f 65 62 34
f 34 64 65
f 65 64 62
f 270 225 228
f 270 228 227
f 226 225 270
f 270 227 273
f 273 320 270
f 229 218 270
f 218 226 270
f 330 329 350
f 331 279 330
f 279 329 330
f 345 301 330
f 330 350 345
f 330 358 331
f 343 358 330
f 330 297 343
f 301 297 330
f 316 315 351
f 351 356 354
f 351 354 316
f 351 350 356
f 212 258 264
f 264 265 212
f 264 315 265
f 129 179 180
f 180 130 129
f 180 179 181
f 181 130 180
f 253 298 301
f 301 254 253
f 252 298 253
f 203 252 253
f 253 254 203
f 302 346 303
f 346 304 303
f 303 256 302
f 303 304 256
f 315 264 307
f 350 351 307
f 307 351 315
f 307 264 258
f 207 262 209
f 159 206 207
f 250 260 205
f 205 159 158
f 205 206 159
f 158 197 205
f 197 250 205
f 263 262 314
f 314 305 263
f 310 309 352
f 352 311 310
f 310 260 309
f 310 311 260
f 210 160 209
f 210 161 160
f 210 209 162
f 162 161 210
f 76 75 73
f 73 110 76
f 76 40 75
f 76 110 113
f 74 40 76
f 76 111 74
f 76 115 112
f 112 111 76
f 195 194 246
f 193 245 246
f 246 194 193
f 70 38 37
f 116 79 112
f 112 157 116
f 116 157 163
f 163 118 116
f 289 290 248
f 248 251 289
f 290 289 295
f 295 289 251
f 196 195 247
f 247 251 196
f 195 246 247
f 247 246 251
f 287 245 286
f 287 295 251
f 244 191 190
f 245 191 244
f 155 200 201
f 201 202 155
f 201 243 202
f 150 194 105
f 150 149 194
f 105 104 150
f 104 149 150
f 192 245 193
f 193 149 192
f 192 191 245
f 192 149 191
f 148 104 147
f 147 156 148
f 147 104 109
f 109 156 147
f 198 188 242
f 198 154 188
f 242 199 198
f 199 154 198
f 108 146 153
f 153 154 108
f 146 188 153
f 188 154 153
f 274 275 229
f 229 270 274
f 326 320 276
f 347 304 346
f 345 350 347
f 347 346 345
f 209 159 208
f 208 207 209
f 159 207 208
f 259 205 262
f 206 205 259
f 262 207 259
f 259 207 206
f 260 311 312
f 312 311 305
f 305 314 312
f 262 205 261
f 261 314 262
f 114 76 113
f 115 76 114
f 114 113 162
f 162 115 114
f 73 38 72
f 38 70 72
f 72 107 73
f 117 118 79
f 79 116 117
f 117 116 118
f 288 246 245
f 245 287 288
f 251 246 288
f 288 287 251
f 321 274 270
f 321 270 320
f 320 326 321
f 275 274 321
f 276 275 321
f 321 326 276
f 350 307 349
f 349 347 350
f 307 347 349
f 258 304 306
f 304 347 306
f 306 307 258
f 306 347 307
f 260 312 313
f 313 312 314
f 314 261 313
f 68 107 69
f 107 72 69
f 69 72 70
f 37 68 69
f 69 70 37
f 60 95 140
f 140 96 60
f 185 136 93
f 93 135 185
f 53 25 47
f 53 47 89
f 42 81 126
f 126 16 42
f 126 4 1
f 126 17 4
f 1 3 126
f 3 16 126
f 126 220 176
f 171 220 126
f 126 121 171
f 126 81 121
f 126 43 17
f 126 82 43
f 361 297 342
f 343 297 361
f 54 53 89
f 89 90 54
f 186 187 146
f 146 145 186
f 300 361 342
f 344 361 300
f 50 3 1
f 1 2 50
f 2 5 50
f 24 23 50
f 50 6 3
f 23 20 50
f 50 25 24
f 47 25 50
f 50 20 6
f 5 18 50
f 50 48 47
f 50 45 51
f 18 45 50
f 50 49 48
f 354 356 329
f 355 354 329
f 91 54 90
f 90 132 91
f 337 291 336
f 291 290 336
f 4 17 335
f 335 187 186
f 2 4 335
f 335 5 2
f 335 19 5
f 17 44 335
f 96 140 335
f 335 142 141
f 335 333 359
f 335 136 185
f 335 85 46
f 242 188 335
f 337 336 335
f 46 19 335
f 335 182 241
f 335 338 337
f 141 98 335
f 335 140 139
f 335 97 96
f 335 90 88
f 185 184 335
f 241 283 335
f 88 87 335
f 335 199 242
f 360 340 335
f 98 97 335
f 335 137 136
f 139 138 335
f 44 84 335
f 335 283 333
f 84 131 335
f 87 86 335
f 143 142 335
f 335 138 137
f 359 364 335
f 335 184 183
f 186 144 335
f 335 363 360
f 335 340 339
f 86 85 335
f 183 133 335
f 339 338 335
f 190 243 335
f 335 144 143
f 335 131 182
f 335 364 363
f 335 132 90
f 286 245 335
f 200 199 335
f 335 188 187
f 335 133 132
f 335 201 200
f 335 244 190
f 245 244 335
f 243 201 335
f 335 287 286
f 295 287 335
f 335 336 290
f 290 295 335
f 313 261 205
f 313 205 260

