# https://github.com/mikedh/trimesh
v 0.03108862 0.01543480 -0.00207937
v 0.03108862 0.01528845 -0.00258989
v 0.03053458 0.01540431 -0.00207937
v 0.02746348 0.01513804 -0.00068842
v 0.02755468 0.01513804 -0.00068842
v 0.03053458 0.01531284 -0.00160962
v 0.03108862 0.01527829 -0.00168557
v 0.03143289 0.01520918 -0.00175027
v 0.03146709 0.01527626 -0.00207937
v 0.03143517 0.01524780 -0.00250551
v 0.03108862 0.01506080 -0.00286836
v 0.03053458 0.01501811 -0.00279523
v 0.03053458 0.01522341 -0.00251957
v 0.02998283 0.01526609 -0.00210046
v 0.02844158 0.01517869 -0.00133959
v 0.02746348 0.01513804 -0.00070389
v 0.01513573 0.01350582 0.00379522
v 0.01557348 0.01351802 0.00380366
v 0.02942652 0.01520308 -0.00117363
v 0.01595423 0.01349769 0.00376991
v 0.02978676 0.01516040 -0.00122427
v 0.03645564 -0.00106621 0.01136735
v 0.03658560 -0.00121663 0.01136735
v 0.03195956 0.01408919 -0.00120317
v 0.03165633 0.01485550 -0.00207937
v 0.03147849 0.01486769 -0.00266725
v 0.03139185 0.01469085 -0.00294712
v 0.03108862 0.01478232 -0.00300057
v 0.03053458 0.01474167 -0.00299353
v 0.03017207 0.01463394 -0.00294009
v 0.02857154 0.01459126 -0.00236487
v 0.02745892 0.01458719 -0.00181215
v 0.02979816 0.01510145 -0.00229877
v 0.02912101 0.01514414 -0.00181918
v 0.02942652 0.01519292 -0.00191060
v 0.02468420 0.01459126 -0.00015821
v 0.01581059 0.01348346 0.00316093
v 0.02400478 0.01462378 0.00032138
v 0.01957025 0.01406683 0.00198657
v 0.01513573 0.01350582 0.00365317
v 0.01391139 0.01326800 0.00401603
v 0.01372443 0.01320499 0.00423121
v 0.01372443 0.01312369 0.00455187
v 0.01391139 0.01313995 0.00451531
v 0.01372443 0.01299766 0.00470658
v 0.01372443 0.01287367 0.00481768
v 0.03620485 -0.00101539 0.01136735
v 0.03679992 -0.00176950 0.01136735
v 0.03696180 -0.00083855 0.00713545
v 0.03307218 0.01081257 0.00050000
v 0.03195956 0.01408919 -0.00143101
v 0.03249763 0.01247324 -0.00075312
v 0.03192080 0.01402211 -0.00180089
v 0.03178172 0.01430262 -0.00207937
v 0.03194360 0.01365217 -0.00186700
v 0.03303114 0.01014586 -0.00013992
v 0.03305394 0.00977592 -0.00017227
v 0.03139185 0.01441645 -0.00294712
v 0.03108862 0.01435953 -0.00300057
v 0.03053458 0.01444491 -0.00299353
v 0.03017207 0.01453028 -0.00294009
v 0.02857154 0.01455264 -0.00236487
v 0.01639426 0.01292245 0.00207518
v 0.02411877 0.01404447 -0.00071092
v 0.02724916 0.01468272 -0.00152243
v 0.01966829 0.01349769 0.00094442
v 0.01522008 0.01294685 0.00259977
v 0.01414850 0.01292855 0.00316796
v 0.01372443 0.01300173 0.00354347
v 0.02610006 0.01467256 -0.00085860
v 0.01446542 0.01320296 0.00346190
v 0.01497841 0.01337167 0.00346612
v 0.01372443 0.01305051 0.00363630
v 0.01372443 0.01321312 0.00400196
v 0.01372215 0.00896489 0.00738298
v 0.01372443 0.01278017 0.00487957
v 0.01372443 0.01214395 0.00529868
v 0.01372443 0.01155245 0.00568685
v 0.01372443 0.00896489 0.00738439
v 0.01372215 0.00289338 0.01136735
v 0.03676116 -0.00233458 0.01136735
v 0.03678624 -0.00232442 0.01122108
v 0.03701423 -0.00121459 0.00723671
v 0.03696180 -0.00083855 0.00689214
v 0.03307218 0.01081257 0.00029466
v 0.03639636 0.00085464 0.00584296
v 0.03582181 0.00250515 0.00479659
v 0.03690708 -0.00097271 0.00652366
v 0.03692988 -0.00134062 0.00645756
v 0.03635077 0.00014728 0.00540978
v 0.03471603 0.00477764 0.00260258
v 0.03471603 0.00450730 0.00260258
v 0.03637585 -0.00046048 0.00537744
v 0.03197552 0.01225981 -0.00185575
v 0.03108862 0.01408309 -0.00287961
v 0.03108862 0.01374771 -0.00268131
v 0.03108862 0.01334728 -0.00243519
v 0.03053458 0.01416847 -0.00281773
v 0.02741560 0.01399366 -0.00182199
v 0.01372443 0.01231063 0.00315249
v 0.01639426 0.01290823 0.00207518
v 0.01372443 0.01234518 0.00315249
v 0.01372443 0.01248137 0.00315530
v 0.01372443 0.01275781 0.00329313
v 0.01372443 0.01280863 0.00333954
v 0.01372215 0.00896489 0.00534509
v 0.01372215 -0.00021453 0.01136735
v 0.03652404 -0.00280209 0.01136735
v 0.03653544 -0.00287730 0.01117467
v 0.03636217 -0.00371678 0.00984983
v 0.03692532 -0.00206627 0.00655320
v 0.03698232 -0.00178577 0.00675853
v 0.03699600 -0.00161096 0.00722265
v 0.03700283 -0.00118004 0.00673884
v 0.03693672 -0.00176950 0.00644631
v 0.03637585 -0.00022266 0.00537744
v 0.03692532 -0.00206627 0.00647725
v 0.03644196 -0.00156827 0.00590765
v 0.03529058 0.00231814 0.00370381
v 0.03363533 0.00728796 0.00092333
v 0.03249535 0.01012757 -0.00070389
v 0.03243607 0.01012757 -0.00070389
v 0.03108862 0.01307084 -0.00225517
v 0.02938776 0.01376194 -0.00222844
v 0.02776215 0.01391845 -0.00187122
v 0.01612751 0.01221509 0.00253367
v 0.01372443 0.01158091 0.00362926
v 0.01372215 0.00895676 0.00534931
v 0.01446542 0.01215005 0.00304701
v 0.01528848 -0.00089140 0.01136735
v 0.01372215 -0.00012916 0.01130969
v 0.03613189 -0.00301552 0.01136735
v 0.03636901 -0.00316390 0.01095808
v 0.03582181 -0.00427576 0.00930274
v 0.03588565 -0.00433064 0.00900458
v 0.03589477 -0.00434080 0.00864313
v 0.03636217 -0.00371678 0.00979920
v 0.03663120 -0.00212725 0.00640271
v 0.03607945 -0.00216384 0.00638162
v 0.03618205 -0.00156827 0.00590765
v 0.03413920 0.00515368 0.00207659
v 0.03413464 0.00515368 0.00207659
v 0.03128697 0.01232892 -0.00182481
v 0.03163581 0.00817013 0.00080237
v 0.02887249 0.01340216 -0.00184731
v 0.01448138 0.00896489 0.00512850
v 0.01372443 0.01117031 0.00389789
v 0.01372215 0.00781645 0.00609611
v 0.01945397 -0.00229190 0.01110716
v 0.02167009 -0.00343424 0.01123093
v 0.02113202 -0.00340782 0.01136735
v 0.01372215 0.00029770 0.01102840
v 0.03608173 -0.00303584 0.01136735
v 0.03552542 -0.00432860 0.00939556
v 0.03310638 -0.00483473 0.00987655
v 0.03552542 -0.00441804 0.00900458
v 0.03310638 -0.00483473 0.00980482
v 0.03552542 -0.00435503 0.00863469
v 0.03602929 -0.00175934 0.00607642
v 0.03239503 -0.00483677 0.00981326
v 0.03286243 -0.00263541 0.00757566
v 0.03552542 -0.00210692 0.00645756
v 0.03521763 -0.00206017 0.00650116
v 0.03441508 -0.00161096 0.00643225
v 0.03275299 0.00810508 0.00053094
v 0.02827514 0.00206000 0.00575857
v 0.01372215 0.00630416 0.00708763
v 0.02554603 -0.00306633 0.00989343
v 0.02167009 -0.00363547 0.01136735
v 0.02586750 -0.00313544 0.00984842
v 0.02333219 -0.00346473 0.01078228
v 0.03064858 -0.00485303 0.01136735
v 0.03109090 -0.00488148 0.01105513
v 0.03207812 -0.00486726 0.01048412
v 0.02997827 -0.00511524 0.01122108
v 0.02876077 -0.00532054 0.01136735
v 0.03275299 -0.00484490 0.00979639
v 0.02831618 -0.00533070 0.01136735
v 0.02779407 -0.00523313 0.01136735
v 0.02351686 -0.00373914 0.01091730
v 0.02799927 -0.00316796 0.00927039
v 0.03249079 -0.00259476 0.00763332
v 0.03484827 -0.00198090 0.00655320
v 0.03328422 -0.00181219 0.00688371
v 0.02222185 -0.00383061 0.01136735
v 0.03046163 -0.00491401 0.01136735
v 0.03053230 -0.00495669 0.01124359
v 0.02997827 -0.00504816 0.01136735
f 83 82 113
f 22 46 47
f 20 46 22
f 22 21 20
f 48 81 82
f 48 82 83
f 83 49 48
f 24 9 8
f 8 9 1
f 82 81 110
f 137 110 136
f 75 80 78
f 19 20 21
f 3 4 1
f 23 8 22
f 24 8 23
f 23 49 24
f 23 48 49
f 7 21 22
f 22 8 7
f 7 19 21
f 7 8 1
f 137 136 117
f 80 47 79
f 79 78 80
f 47 78 79
f 75 78 77
f 77 78 47
f 20 19 5
f 1 4 5
f 75 46 45
f 45 43 75
f 45 44 43
f 46 20 45
f 20 44 45
f 18 5 4
f 20 5 18
f 18 44 20
f 43 44 18
f 4 3 16
f 30 31 12
f 1 9 10
f 2 11 12
f 2 3 1
f 1 10 2
f 2 10 11
f 6 7 1
f 19 7 6
f 1 5 6
f 6 5 19
f 93 117 118
f 84 49 83
f 82 110 111
f 180 160 179
f 76 46 75
f 75 77 76
f 76 47 46
f 76 77 47
f 17 18 4
f 43 18 17
f 40 41 17
f 12 31 32
f 15 16 3
f 142 164 144
f 128 106 100
f 12 11 29
f 29 30 12
f 104 67 103
f 103 106 104
f 13 2 12
f 12 32 13
f 3 2 13
f 138 117 136
f 138 118 117
f 83 113 112
f 112 111 117
f 112 113 82
f 82 111 112
f 135 136 110
f 110 134 135
f 185 180 179
f 169 180 185
f 170 150 168
f 179 160 178
f 151 150 169
f 166 167 144
f 144 164 166
f 43 17 42
f 42 17 41
f 75 43 42
f 64 32 31
f 40 16 39
f 144 123 143
f 123 142 143
f 124 123 144
f 144 145 124
f 124 98 123
f 144 167 146
f 146 145 144
f 100 101 61
f 100 106 102
f 106 103 102
f 74 41 40
f 74 42 41
f 74 106 75
f 75 42 74
f 68 32 67
f 68 69 32
f 68 67 104
f 24 49 50
f 85 84 86
f 25 26 10
f 25 10 9
f 24 51 25
f 25 9 24
f 34 13 33
f 33 13 32
f 14 15 3
f 3 13 14
f 34 15 35
f 35 13 34
f 15 14 35
f 35 14 13
f 86 84 114
f 114 84 83
f 83 112 114
f 115 117 93
f 93 116 115
f 115 116 89
f 89 114 115
f 115 112 117
f 115 114 112
f 81 108 109
f 109 110 81
f 109 108 110
f 133 108 132
f 110 108 133
f 133 134 110
f 133 154 134
f 176 178 177
f 177 178 160
f 160 158 177
f 153 133 132
f 154 133 153
f 155 135 134
f 134 154 155
f 160 180 181
f 181 161 160
f 181 182 161
f 182 181 163
f 163 142 140
f 164 142 163
f 163 181 170
f 163 170 168
f 139 158 160
f 160 161 139
f 140 118 139
f 118 138 139
f 136 158 139
f 139 138 136
f 130 107 131
f 150 151 130
f 131 152 149
f 149 130 131
f 150 130 149
f 168 150 149
f 149 166 168
f 149 152 167
f 167 166 149
f 63 103 67
f 63 64 31
f 63 102 103
f 16 15 38
f 38 39 16
f 40 39 37
f 39 38 37
f 37 38 15
f 165 142 144
f 144 143 165
f 165 143 142
f 122 142 123
f 60 98 99
f 99 61 60
f 100 61 99
f 125 124 145
f 98 124 125
f 125 99 98
f 148 146 167
f 127 128 100
f 62 61 101
f 105 68 104
f 69 68 105
f 104 106 105
f 106 69 105
f 51 85 52
f 52 25 51
f 52 85 86
f 70 69 34
f 34 33 70
f 70 33 69
f 32 69 65
f 65 33 32
f 69 33 65
f 89 116 90
f 176 155 175
f 176 177 157
f 157 155 176
f 157 158 136
f 157 177 158
f 136 135 156
f 135 155 156
f 156 157 136
f 155 157 156
f 150 170 171
f 170 181 171
f 171 181 180
f 171 180 169
f 169 150 171
f 168 166 184
f 184 166 164
f 162 139 161
f 161 182 162
f 182 163 162
f 66 63 67
f 64 63 66
f 67 32 66
f 32 64 66
f 40 37 72
f 34 69 36
f 69 37 36
f 36 15 34
f 36 37 15
f 97 122 123
f 97 98 60
f 123 98 97
f 129 127 100
f 147 148 128
f 128 127 147
f 146 148 147
f 127 129 147
f 25 52 53
f 86 114 87
f 87 52 86
f 87 53 52
f 176 175 188
f 174 175 155
f 174 155 154
f 164 163 183
f 183 184 164
f 183 163 168
f 168 184 183
f 140 139 159
f 139 162 159
f 159 163 140
f 159 162 163
f 71 37 69
f 71 72 37
f 73 69 106
f 106 74 73
f 73 71 69
f 72 71 73
f 73 74 40
f 40 72 73
f 91 90 116
f 28 29 11
f 145 146 126
f 146 147 126
f 126 147 129
f 126 125 145
f 99 125 126
f 100 99 126
f 126 129 100
f 26 25 54
f 25 53 54
f 88 114 89
f 88 87 114
f 53 87 88
f 175 174 187
f 186 188 187
f 187 188 175
f 93 58 92
f 26 54 27
f 11 10 27
f 10 26 27
f 27 28 11
f 94 58 93
f 93 120 94
f 118 141 119
f 93 118 119
f 119 120 93
f 122 97 96
f 96 95 122
f 96 97 60
f 60 95 96
f 59 95 60
f 58 94 59
f 59 94 95
f 56 88 89
f 53 88 56
f 89 90 56
f 90 91 56
f 186 187 173
f 173 187 174
f 173 172 186
f 173 174 154
f 153 172 173
f 154 153 173
f 91 92 57
f 57 92 58
f 58 27 57
f 57 56 91
f 27 56 57
f 121 94 120
f 121 119 141
f 120 119 121
f 122 95 121
f 95 94 121
f 55 54 53
f 53 56 55
f 55 27 54
f 55 56 27
f 137 117 111
f 111 110 137
f 17 16 40
f 4 16 17
f 140 142 141
f 141 118 140
f 30 29 61
f 61 29 60
f 24 50 85
f 85 51 24
f 49 84 85
f 85 50 49
f 100 102 63
f 63 101 100
f 148 107 80
f 131 107 148
f 148 80 75
f 148 152 131
f 75 106 148
f 106 128 148
f 167 152 148
f 101 63 62
f 62 63 31
f 30 61 62
f 31 30 62
f 22 47 188
f 80 107 188
f 188 23 22
f 188 47 80
f 81 48 188
f 188 108 81
f 48 23 188
f 188 185 179
f 179 178 188
f 188 151 169
f 186 172 188
f 132 108 188
f 169 185 188
f 188 178 176
f 107 130 188
f 188 153 132
f 188 130 151
f 188 172 153
f 92 91 116
f 92 116 93
f 60 29 59
f 29 28 59
f 59 27 58
f 28 27 59
f 121 141 142
f 142 122 121

