# https://github.com/mikedh/trimesh
v -0.01276980 -0.02943512 -0.00712276
v -0.01276750 -0.02943512 -0.00761243
v -0.01272602 -0.02992365 -0.00614093
v -0.01276980 -0.02943512 0.00053471
v -0.01276980 -0.02403710 -0.01104633
v -0.01276750 -0.02453046 -0.01153724
v -0.00839184 -0.04006671 -0.00837235
v -0.00844253 -0.04016828 -0.00810334
v -0.01253247 -0.03041702 -0.00663184
v -0.01271450 -0.02992365 -0.00663184
v -0.01266842 -0.03011713 0.00053471
v -0.01272602 -0.02992365 0.00053471
v -0.01257856 -0.03041702 -0.00614093
v -0.01276980 -0.01619642 0.00053471
v -0.01276980 -0.01619642 -0.01104633
v -0.01276750 -0.01619642 -0.01153724
v -0.01252325 -0.02453046 -0.01195625
v -0.01244261 -0.02491742 -0.01189798
v -0.00790335 -0.04105344 -0.00837359
v -0.00795405 -0.04115018 -0.00810334
v -0.00823055 -0.04071969 -0.00761243
v -0.00835497 -0.04046817 -0.00761243
v -0.00847479 -0.04022149 -0.00761243
v -0.00867987 -0.03973779 -0.00761243
v -0.01257856 -0.03041702 0.00053471
v -0.00848862 -0.04022633 -0.00319919
v -0.00849323 -0.04022633 0.00023471
v -0.01267994 -0.01570305 0.00053471
v -0.01267994 -0.01570305 -0.01153724
v -0.01247947 -0.01570305 -0.01194261
v -0.01252325 -0.01619642 -0.01195625
v -0.01203707 -0.02453046 -0.01212980
v -0.00643098 -0.04295920 -0.00836987
v -0.00690564 -0.04246099 -0.00836119
v -0.00736187 -0.04192893 -0.00833020
v -0.00781119 -0.04139686 -0.00810334
v -0.00786418 -0.04145007 -0.00761243
v -0.00798861 -0.04120339 -0.00761243
v -0.00825129 -0.04073420 -0.00319919
v -0.00836650 -0.04049236 -0.00270827
v -0.00849323 -0.04022633 0.00053471
v -0.00844484 -0.04033274 0.00053471
v -0.01243569 -0.01530642 0.00053471
v -0.00351387 0.00229035 -0.00876532
v -0.00354613 0.00233872 -0.00908392
v -0.00376272 0.00195660 -0.00908392
v -0.00377194 0.00195660 -0.01006574
v -0.00377194 0.00195660 -0.01104633
v -0.00376733 0.00195660 -0.01153724
v -0.00351618 0.00229519 -0.01185831
v -0.01238500 -0.01535479 -0.01188063
v -0.00360834 0.00195660 -0.01192526
v -0.00320741 0.00195660 -0.01209881
v -0.01203707 -0.01570305 -0.01211617
v -0.01203707 -0.01619642 -0.01212980
v -0.00664066 -0.02747132 -0.01212980
v -0.00713145 -0.02747132 -0.01212360
v -0.00501620 -0.04396044 -0.00837607
v -0.00591023 -0.04341870 -0.00835127
v -0.00648397 -0.04300756 -0.00810334
v -0.00672822 -0.04275121 -0.00810334
v -0.00694251 -0.04250452 -0.00810334
v -0.00740565 -0.04197730 -0.00800292
v -0.00786418 -0.04145007 -0.00369010
v -0.00800474 -0.04119371 -0.00319919
v -0.00825129 -0.04073904 -0.00221860
v -0.00766141 -0.04170159 -0.00761243
v -0.00724205 -0.04226268 -0.00319919
v -0.00829737 -0.04064714 0.00053471
v -0.01234122 -0.01520969 0.00053471
v -0.00307147 0.00281274 -0.00873681
v -0.00312677 0.00287562 -0.00908392
v -0.00337101 0.00258057 -0.00908392
v -0.00354843 0.00233872 -0.00957483
v -0.00337332 0.00258541 -0.00957483
v -0.00354843 0.00234356 -0.01104633
v -0.00354843 0.00234356 -0.01153724
v -0.00337332 0.00258541 -0.01153724
v -0.00307147 0.00280790 -0.01188187
v -0.00322354 0.00245481 -0.01195749
v -0.00271662 0.00244514 -0.01211741
v -0.00320741 0.00146324 -0.01212980
v 0.00169590 -0.02992365 -0.01212980
v 0.00120741 -0.02992365 -0.01210377
v -0.00305995 -0.04490848 -0.00836739
v -0.00409683 -0.04444414 -0.00837607
v -0.00442403 -0.04439093 -0.00834012
v -0.00511528 -0.04403300 -0.00810334
v -0.00594479 -0.04344773 -0.00810334
v -0.00618904 -0.04324941 -0.00810334
v -0.00622360 -0.04328327 -0.00761243
v -0.00651854 -0.04303659 -0.00761243
v -0.00676278 -0.04278507 -0.00761243
v -0.00741947 -0.04199665 -0.00761243
v -0.00697246 -0.04253838 -0.00761243
v -0.00721670 -0.04224333 -0.00761243
v -0.00724205 -0.04226268 0.00053471
v -0.00731579 -0.04216594 0.00053471
v -0.00742869 -0.04201599 0.00053471
v -0.00765681 -0.04170159 0.00053471
v -0.00777432 -0.04153230 0.00053471
v -0.00784805 -0.04142589 0.00053471
v -0.00791027 -0.04133398 0.00053471
v -0.00800704 -0.04118404 0.00053471
v -0.00815681 -0.04091317 0.00053471
v -0.00825129 -0.04073904 0.00053471
v -0.00699781 -0.04255289 -0.00319919
v -0.01204168 -0.01490980 0.00053471
v -0.01007851 -0.01294600 0.00053471
v -0.00973288 -0.01260741 0.00053471
v -0.00258989 0.00327709 -0.00874425
v -0.00289404 0.00311747 -0.00908392
v -0.00312907 0.00287562 -0.01006574
v -0.00312907 0.00287562 -0.01104633
v -0.00312907 0.00287078 -0.01153724
v -0.00289174 0.00311747 -0.01153724
v -0.00258759 0.00327225 -0.01187567
v -0.00273736 0.00295785 -0.01196740
v -0.00222583 0.00293367 -0.01211245
v -0.00173504 0.00293367 -0.01212980
v -0.00271662 0.00195660 -0.01212980
v 0.00660152 -0.02845322 -0.01212980
v 0.00709231 -0.02845322 -0.01212360
v 0.00660152 -0.02894659 -0.01210005
v 0.00218669 -0.02992365 -0.01210873
v 0.00541486 -0.04490848 -0.00836739
v 0.00513145 -0.04491816 -0.00837607
v -0.00271662 -0.04491816 -0.00837607
v -0.00271662 -0.04500038 -0.00810334
v -0.00321663 -0.04493750 -0.00810086
v -0.00338714 -0.04484076 -0.00826202
v -0.00449085 -0.04442479 -0.00801284
v -0.00466366 -0.04429419 -0.00814673
v -0.00347700 -0.04489881 -0.00793598
v -0.00476505 -0.04432321 -0.00761243
v -0.00516828 -0.04407653 -0.00761243
v -0.00541252 -0.04390723 -0.00761243
v -0.00565907 -0.04371859 -0.00761243
v -0.00600701 -0.04350093 -0.00319919
v -0.00625355 -0.04328327 -0.00319919
v -0.00651854 -0.04304142 -0.00369010
v -0.00676278 -0.04279474 -0.00369010
v -0.00714758 -0.04237393 0.00053471
v -0.00675817 -0.04279958 -0.00319919
v -0.00699781 -0.04254806 0.00053471
v -0.00948864 -0.01239943 0.00053471
v -0.00202767 0.00369790 -0.00880251
v -0.00264750 0.00332546 -0.00908392
v -0.00289404 0.00311747 -0.01055665
v -0.00264750 0.00332546 -0.01006574
v -0.00264519 0.00332062 -0.01153724
v -0.00203458 0.00370274 -0.01182856
v -0.00220740 0.00343187 -0.01193517
v -0.00173504 0.00342703 -0.01207154
v -0.00124424 0.00342703 -0.01212360
v -0.00075576 0.00342703 -0.01212980
v 0.00709231 -0.02796469 -0.01212980
v 0.00643332 -0.04397012 -0.00837607
v 0.00593100 -0.04444897 -0.00837483
v 0.01003707 -0.02453046 -0.01212980
v 0.01003707 -0.02501900 -0.01212236
v 0.01003707 -0.02551236 -0.01208517
v 0.01003707 -0.02600089 -0.01199468
v 0.01036196 -0.02635883 -0.01183352
v 0.00884119 -0.04295436 -0.00787400
v 0.00888728 -0.04350577 -0.00744135
v 0.00888037 -0.04398946 -0.00697275
v 0.00883659 -0.04442479 -0.00642730
v 0.00881585 -0.04489397 -0.00542564
v 0.00513145 -0.04500038 -0.00810334
v -0.00271662 -0.04504875 -0.00761243
v -0.00320741 -0.04498587 -0.00761243
v -0.00348853 -0.04490364 -0.00761243
v -0.00418670 -0.04458924 -0.00761243
v -0.00453924 -0.04445381 -0.00319919
v -0.00478578 -0.04431838 -0.00319919
v -0.00516828 -0.04407653 0.00053471
v -0.00541944 -0.04391207 -0.00358472
v -0.00566599 -0.04374762 -0.00319919
v -0.00600701 -0.04350093 0.00053471
v -0.00615678 -0.04336550 0.00053471
v -0.00650701 -0.04303175 0.00053471
v -0.00665679 -0.04288664 0.00053471
v -0.00675126 -0.04279474 0.00053471
v -0.00684803 -0.04269800 0.00053471
v -0.00625125 -0.04327843 0.00053471
v -0.00909232 -0.01224464 0.00053471
v -0.00150001 0.00269665 -0.00785416
v -0.00173504 0.00377046 -0.00873061
v -0.00061520 0.00418643 -0.00879880
v -0.00124424 0.00405584 -0.00908392
v -0.00173504 0.00387203 -0.00908392
v -0.00205302 0.00371241 -0.00908392
v -0.00229726 0.00357214 -0.00908392
v -0.00230187 0.00357214 -0.00957483
v -0.00230648 0.00356730 -0.01153724
v -0.00173504 0.00377529 -0.01189798
v -0.00206223 0.00371725 -0.01153724
v -0.00173504 0.00388171 -0.01153724
v -0.00124424 0.00406067 -0.01153724
v -0.00062211 0.00418160 -0.01181616
v -0.00124424 0.00386719 -0.01195005
v -0.00026496 0.00391556 -0.01202195
v 0.00022583 0.00391556 -0.01202319
v 0.00071662 0.00342703 -0.01212980
v 0.00691028 -0.04349126 -0.00837607
v 0.01003707 -0.01472599 -0.01212980
v 0.01052325 -0.02453046 -0.01195625
v 0.01052325 -0.02501900 -0.01195253
v 0.01052325 -0.02551236 -0.01193393
v 0.01046334 -0.02600089 -0.01188806
v 0.00931125 -0.04102926 -0.00835871
v 0.00893106 -0.04267865 -0.00793970
v 0.00894719 -0.04313816 -0.00760871
v 0.00912691 -0.04267865 -0.00761243
v 0.00895871 -0.04366539 -0.00713019
v 0.00891493 -0.04415392 -0.00660705
v 0.00887115 -0.04448767 -0.00614093
v 0.00888037 -0.04464729 -0.00561407
v 0.00883659 -0.04491816 -0.00516159
v 0.00856469 -0.04504875 -0.00467068
v 0.00856469 -0.04497620 -0.00516159
v 0.00807390 -0.04509228 -0.00467068
v 0.00513145 -0.04504875 -0.00761243
v 0.00807390 -0.04516000 -0.00369010
v -0.00271662 -0.04504875 0.00053471
v -0.00320741 -0.04499071 -0.00319919
v -0.00350005 -0.04490848 -0.00319919
v -0.00418670 -0.04461343 -0.00319919
v -0.00453924 -0.04445381 0.00053471
v -0.00468901 -0.04437158 0.00053471
v -0.00478578 -0.04431838 0.00053471
v -0.00541944 -0.04391207 0.00053471
v -0.00566368 -0.04374762 0.00053471
v 0.00022583 0.00306426 -0.00791739
v -0.00026496 0.00306426 -0.00791863
v -0.00124424 0.00273051 -0.00783805
v 0.01038270 -0.01396176 0.00053471
v -0.00124424 0.00386236 -0.00867111
v -0.00026496 0.00420578 -0.00876904
v -0.00026496 0.00424931 -0.00908392
v -0.00067050 0.00420094 -0.00908392
v -0.00092396 0.00414774 -0.01006574
v -0.00124424 0.00406067 -0.00957483
v -0.00205762 0.00371725 -0.01006574
v -0.00173504 0.00388171 -0.01104633
v -0.00205993 0.00371725 -0.01055665
v -0.00124424 0.00406551 -0.01104633
v -0.00092627 0.00414774 -0.01153724
v -0.00067972 0.00419127 -0.01153724
v -0.00026496 0.00424448 -0.01153724
v -0.00026496 0.00420094 -0.01184839
v 0.00022583 0.00420578 -0.01184963
v 0.00120741 0.00387203 -0.01195129
v 0.00120741 0.00342703 -0.01212484
v 0.00169590 0.00293367 -0.01212980
v 0.00316828 0.00146324 -0.01212980
v 0.00316828 0.00195660 -0.01210625
v 0.00365907 0.00097471 -0.01209385
v 0.01052325 -0.01472599 -0.01195625
v 0.01076750 -0.02501900 -0.01153724
v 0.01073524 -0.02551236 -0.01153724
v 0.00934581 -0.04119855 -0.00811202
v 0.00932047 -0.04161453 -0.00795458
v 0.00925825 -0.04219012 -0.00761243
v 0.00912231 -0.04317202 -0.00712276
v 0.00898866 -0.04415392 -0.00614093
v 0.00906931 -0.04366055 -0.00663184
v 0.00892184 -0.04464245 -0.00516159
v 0.00885732 -0.04494718 -0.00467068
v 0.00856469 -0.04508261 -0.00417977
v 0.00807390 -0.04514065 -0.00417977
v 0.00856469 -0.04509228 -0.00369010
v 0.00837344 -0.04512131 0.00053471
v 0.00807390 -0.04516000 0.00053471
v -0.00320741 -0.04499071 0.00053471
v -0.00350005 -0.04490848 0.00053471
v -0.00364982 -0.04484560 0.00053471
v -0.00418670 -0.04461343 0.00053471
v 0.00120741 0.00273535 -0.00783557
v 0.00147240 0.00270149 -0.00785044
v 0.00058528 0.00418643 -0.00879756
v 0.00022583 0.00420578 -0.00876904
v 0.01053247 -0.01412621 0.00053471
v 0.00304616 0.00282725 -0.00873185
v 0.00256458 0.00328676 -0.00873929
v 0.00200236 0.00370274 -0.00879384
v 0.00169590 0.00378013 -0.00872194
v 0.00022583 0.00425415 -0.00908392
v -0.00026496 0.00424931 -0.01055665
v -0.00068433 0.00419611 -0.01104633
v -0.00092857 0.00414774 -0.01104633
v -0.00092857 0.00414774 -0.01055665
v -0.00124424 0.00406551 -0.01055665
v 0.00022583 0.00424448 -0.01153724
v 0.00059680 0.00418160 -0.01181740
v 0.00169590 0.00378013 -0.01190542
v 0.00169590 0.00342703 -0.01207774
v 0.00218669 0.00293367 -0.01211617
v 0.00267749 0.00244514 -0.01212112
v 0.00267749 0.00195660 -0.01212980
v 0.00319363 0.00246448 -0.01196616
v 0.00358995 0.00195660 -0.01193269
v 0.00370515 0.00150677 -0.01196740
v 0.01045413 -0.01423263 -0.01189674
v 0.01076750 -0.01472599 -0.01153724
v 0.01076980 -0.02453046 -0.01104633
v 0.01076750 -0.02747132 -0.01006574
v 0.01068224 -0.02747132 -0.01055665
v 0.00979282 -0.03754666 -0.00835003
v 0.00929973 -0.04193860 -0.00761243
v 0.00981356 -0.03773530 -0.00808598
v 0.00979743 -0.03807389 -0.00791119
v 0.00900940 -0.04415392 -0.00565250
v 0.00920295 -0.04267865 -0.00712276
v 0.00913843 -0.04317202 -0.00663184
v 0.00894258 -0.04464245 -0.00467068
v 0.00886193 -0.04495685 -0.00417977
v 0.00886193 -0.04496169 -0.00369010
v 0.00856469 -0.04509228 0.00053471
v 0.00120741 0.00386719 -0.00866863
v 0.00120741 0.00406551 -0.00908392
v 0.00088944 0.00414290 -0.00908392
v 0.00064289 0.00420094 -0.00908392
v 0.01062694 -0.01423263 0.00053471
v 0.00349087 0.00230970 -0.00875541
v 0.00335261 0.00260959 -0.00908392
v 0.00310607 0.00289013 -0.00908392
v 0.00287565 0.00313682 -0.00908392
v 0.00262910 0.00333997 -0.00908392
v 0.00227886 0.00358181 -0.00908392
v 0.00203462 0.00372209 -0.00908392
v 0.00169590 0.00388654 -0.00908392
v 0.00065902 0.00419611 -0.01153724
v 0.00022583 0.00424931 -0.01055665
v 0.00090326 0.00415257 -0.01153724
v 0.00120741 0.00407035 -0.01153724
v 0.00200697 0.00370758 -0.01183600
v 0.00217748 0.00343671 -0.01194261
v 0.00270744 0.00296752 -0.01197360
v 0.00349087 0.00231454 -0.01186699
v 0.00304846 0.00282242 -0.01188806
v 0.00396092 0.00137133 -0.01185955
v 0.01062694 -0.01423263 -0.01153724
v 0.01076980 -0.01472599 -0.01104633
v 0.01076980 -0.02698279 -0.00957483
v 0.01076750 -0.02747132 0.00053471
v 0.01076519 -0.02777121 0.00053471
v 0.01076289 -0.02796469 -0.00908392
v 0.01074445 -0.02894659 -0.00810334
v 0.01072141 -0.02943512 -0.00810334
v 0.01067994 -0.03041702 -0.00761243
v 0.01064077 -0.03090555 -0.00761243
v 0.01059468 -0.03139892 -0.00761243
v 0.01029514 -0.03420918 -0.00796202
v 0.00971679 -0.03875590 -0.00761243
v 0.01030436 -0.03426238 -0.00761243
v 0.01016610 -0.03532167 -0.00761243
v 0.01010159 -0.03581504 -0.00761243
v 0.00897023 -0.04445381 0.00053471
v 0.00894488 -0.04464245 -0.00417977
v 0.00909926 -0.04347191 0.00053471
v 0.00886193 -0.04496169 0.00053471
v 0.00120741 0.00407035 -0.00957483
v 0.00088713 0.00414774 -0.00957483
v 0.00089635 0.00415257 -0.01104633
v 0.00390101 0.00170025 -0.01006574
v 0.00389871 0.00169541 -0.00957483
v 0.00389410 0.00168574 -0.00908392
v 0.00376276 0.00195660 -0.00908392
v 0.01071450 -0.01453251 0.00053471
v 0.00352773 0.00236291 -0.00908392
v 0.00335492 0.00261443 -0.01104633
v 0.00311067 0.00289013 -0.01104633
v 0.00287565 0.00313682 -0.01055665
v 0.00262910 0.00333997 -0.01055665
v 0.00228577 0.00358665 -0.01006574
v 0.00228347 0.00358665 -0.00957483
v 0.00204153 0.00372692 -0.01006574
v 0.00169590 0.00389138 -0.00957483
v 0.00169590 0.00389622 -0.01153724
v 0.00204153 0.00372692 -0.01153724
v 0.00228577 0.00357698 -0.01153724
v 0.00262679 0.00333513 -0.01153724
v 0.00256228 0.00328193 -0.01188063
v 0.00335492 0.00261443 -0.01153724
v 0.00353004 0.00236774 -0.01153724
v 0.00376737 0.00195660 -0.01153724
v 0.00389871 0.00169541 -0.01153724
v 0.00287334 0.00313682 -0.01153724
v 0.00311067 0.00289013 -0.01153724
v 0.00390101 0.00170025 -0.01104633
v 0.01076980 -0.01472599 0.00053471
v 0.01076980 -0.02698279 0.00053471
v 0.01076289 -0.02796469 0.00053471
v 0.01075598 -0.02845322 -0.00810334
v 0.01074445 -0.02894659 -0.00516159
v 0.01072833 -0.02943512 -0.00761243
v 0.01070528 -0.02992365 -0.00761243
v 0.01067994 -0.03041702 0.00053471
v 0.01065690 -0.03071691 0.00053471
v 0.01064077 -0.03090555 0.00053471
v 0.01061312 -0.03120544 0.00053471
v 0.01059468 -0.03139892 0.00053471
v 0.01042187 -0.03316923 0.00053471
v 0.01040344 -0.03335788 -0.00761243
v 0.01035274 -0.03385124 -0.00761243
v 0.01024675 -0.03470738 0.00053471
v 0.00967761 -0.03905579 0.00053471
v 0.01030436 -0.03426238 0.00053471
v 0.00894488 -0.04464245 0.00053471
v 0.00169590 0.00389622 -0.01055665
v 0.00377198 0.00195660 -0.01055665
v 0.00376737 0.00195660 -0.00957483
v 0.00353004 0.00236774 -0.01104633
v 0.00228808 0.00358181 -0.01104633
v 0.00204383 0.00372692 -0.01104633
v 0.01072602 -0.02943512 0.00053471
v 0.01073985 -0.02894659 -0.00074587
v 0.01074215 -0.02894659 -0.00270827
v 0.01075598 -0.02845322 -0.00712276
v 0.01072833 -0.02943512 -0.00319919
v 0.01071450 -0.02973501 0.00053471
v 0.01070528 -0.02992365 0.00053471
v 0.01040344 -0.03335788 0.00053471
v 0.01035274 -0.03385124 0.00053471
f 55 31 54
f 344 325 371
f 29 16 15
f 187 238 235
f 345 306 344
f 345 371 393
f 344 371 345
f 305 343 344
f 344 306 305
f 321 281 288
f 288 281 238
f 325 326 285
f 285 286 238
f 370 326 325
f 51 29 50
f 30 29 51
f 30 54 31
f 31 16 30
f 16 29 30
f 236 187 235
f 235 240 236
f 236 190 188
f 236 240 190
f 13 3 10
f 2 3 1
f 2 10 3
f 88 59 87
f 136 88 135
f 24 26 13
f 180 140 139
f 234 180 179
f 179 180 139
f 123 160 161
f 123 126 124
f 273 225 271
f 272 271 225
f 221 271 272
f 162 161 210
f 162 123 161
f 307 346 308
f 308 261 307
f 204 254 255
f 203 156 155
f 203 204 156
f 260 305 306
f 259 260 207
f 305 260 259
f 344 343 389
f 389 392 344
f 388 392 389
f 341 389 343
f 388 389 341
f 235 238 280
f 280 281 235
f 238 281 280
f 333 322 287
f 238 286 287
f 287 288 238
f 284 285 238
f 325 285 284
f 369 325 368
f 368 370 369
f 369 370 325
f 55 54 82
f 54 30 53
f 53 82 54
f 51 50 52
f 52 30 51
f 52 53 30
f 283 240 235
f 289 240 283
f 289 290 241
f 241 240 289
f 190 240 241
f 188 187 237
f 237 236 188
f 187 236 237
f 66 40 39
f 69 40 66
f 39 37 66
f 66 37 65
f 8 19 20
f 87 59 58
f 59 32 58
f 57 58 32
f 7 19 8
f 8 2 7
f 1 5 6
f 6 2 1
f 6 7 2
f 59 88 89
f 133 88 87
f 11 12 3
f 11 3 13
f 13 25 11
f 8 24 9
f 9 2 8
f 10 2 9
f 13 10 9
f 9 24 13
f 42 40 69
f 26 40 42
f 140 180 181
f 178 179 136
f 136 135 176
f 419 395 418
f 419 418 420
f 420 395 419
f 420 418 397
f 397 395 420
f 353 308 352
f 157 123 122
f 160 123 157
f 158 123 164
f 270 271 221
f 221 272 223
f 224 272 225
f 164 123 163
f 123 162 163
f 261 308 262
f 210 261 262
f 348 308 347
f 348 395 349
f 349 308 348
f 253 203 252
f 204 203 253
f 253 254 204
f 296 254 253
f 337 296 336
f 336 364 337
f 337 381 338
f 338 296 337
f 205 255 256
f 156 204 205
f 204 255 205
f 343 305 303
f 303 341 343
f 338 384 385
f 368 325 367
f 367 370 368
f 388 341 387
f 386 342 391
f 386 341 342
f 386 387 341
f 298 255 254
f 298 299 255
f 333 287 332
f 332 287 331
f 326 370 372
f 286 285 329
f 285 328 329
f 155 156 120
f 202 203 155
f 252 203 202
f 49 50 29
f 288 287 282
f 282 287 322
f 321 288 282
f 289 283 282
f 282 283 235
f 235 281 282
f 282 281 321
f 242 241 290
f 190 241 242
f 242 191 190
f 243 191 242
f 251 253 252
f 19 7 18
f 7 6 18
f 19 18 35
f 35 18 34
f 83 127 128
f 128 85 83
f 126 127 83
f 83 123 124
f 122 123 83
f 137 88 136
f 137 89 88
f 137 179 139
f 136 179 137
f 144 145 107
f 107 142 144
f 107 93 142
f 145 143 107
f 107 143 97
f 107 97 68
f 175 176 135
f 8 20 21
f 21 22 8
f 39 22 21
f 26 24 23
f 23 22 39
f 23 24 8
f 8 22 23
f 39 40 23
f 23 40 26
f 27 42 41
f 26 42 27
f 13 26 27
f 273 320 274
f 274 225 273
f 274 275 225
f 422 397 418
f 418 423 422
f 422 423 398
f 350 308 349
f 398 423 399
f 401 352 400
f 353 352 401
f 405 406 354
f 353 403 354
f 354 308 353
f 425 406 405
f 164 212 206
f 206 158 164
f 318 319 273
f 273 271 318
f 271 270 318
f 170 127 126
f 221 223 170
f 164 163 211
f 211 163 162
f 211 162 210
f 211 212 164
f 210 262 211
f 211 262 212
f 366 364 336
f 365 364 366
f 210 161 209
f 209 208 261
f 209 261 210
f 160 208 209
f 161 160 209
f 207 257 258
f 258 259 207
f 258 303 259
f 300 257 301
f 300 301 256
f 300 258 257
f 256 255 300
f 255 299 300
f 305 259 304
f 304 303 305
f 259 303 304
f 340 385 342
f 340 300 299
f 299 298 340
f 388 387 413
f 413 367 392
f 413 392 388
f 297 298 254
f 297 296 338
f 297 254 296
f 326 372 327
f 327 285 326
f 327 328 285
f 390 385 384
f 391 342 390
f 342 385 390
f 374 329 328
f 286 329 330
f 330 287 286
f 331 287 330
f 188 190 239
f 239 189 188
f 190 189 239
f 146 187 188
f 188 189 146
f 155 120 119
f 50 49 77
f 80 52 50
f 53 52 80
f 117 151 152
f 289 282 324
f 365 366 324
f 324 366 336
f 192 191 244
f 244 191 243
f 296 253 295
f 253 251 295
f 69 66 106
f 106 66 65
f 65 37 64
f 103 104 64
f 144 142 141
f 186 182 141
f 141 181 186
f 140 181 141
f 184 185 141
f 141 185 145
f 141 145 144
f 32 18 17
f 17 18 6
f 36 20 19
f 19 35 36
f 37 20 36
f 36 63 37
f 36 35 63
f 86 85 87
f 57 85 86
f 87 58 86
f 58 57 86
f 171 224 225
f 84 85 57
f 57 83 84
f 84 83 85
f 124 126 125
f 125 83 124
f 126 83 125
f 56 57 32
f 56 83 57
f 91 89 138
f 89 137 138
f 139 91 138
f 138 137 139
f 174 175 135
f 135 134 174
f 174 134 173
f 229 174 173
f 175 174 229
f 232 176 231
f 176 175 231
f 231 175 230
f 87 134 132
f 132 134 135
f 132 133 87
f 132 135 88
f 88 133 132
f 87 85 131
f 131 134 87
f 38 20 37
f 38 21 20
f 38 37 39
f 39 21 38
f 234 179 233
f 179 178 233
f 351 352 308
f 308 350 351
f 351 399 352
f 351 350 398
f 398 399 351
f 395 397 421
f 424 399 423
f 402 403 353
f 353 401 402
f 405 354 404
f 404 354 403
f 408 357 410
f 356 362 316
f 317 318 270
f 309 262 308
f 309 310 262
f 380 412 364
f 380 322 333
f 380 364 322
f 379 412 380
f 333 332 380
f 380 332 379
f 378 332 331
f 379 332 378
f 331 330 378
f 383 384 338
f 383 416 384
f 302 340 342
f 342 341 302
f 258 300 302
f 300 340 302
f 341 303 302
f 303 258 302
f 414 372 370
f 414 413 372
f 370 367 414
f 367 413 414
f 298 297 339
f 385 340 339
f 339 340 298
f 338 385 339
f 339 297 338
f 415 413 387
f 372 413 415
f 384 416 376
f 376 390 384
f 110 146 111
f 111 71 110
f 118 119 81
f 53 80 81
f 81 80 118
f 82 53 81
f 81 119 120
f 154 202 155
f 155 119 154
f 154 119 118
f 152 151 196
f 48 77 49
f 48 49 29
f 118 80 79
f 79 117 118
f 79 80 50
f 365 324 323
f 322 364 323
f 323 364 365
f 323 282 322
f 323 324 282
f 252 202 201
f 201 251 252
f 201 250 251
f 291 242 290
f 290 251 291
f 251 250 291
f 336 296 334
f 296 295 334
f 334 324 336
f 289 324 334
f 105 106 65
f 65 64 105
f 105 64 104
f 103 64 102
f 100 64 99
f 90 89 91
f 91 60 90
f 59 89 90
f 90 60 59
f 92 60 91
f 93 60 92
f 140 141 92
f 142 93 92
f 92 141 142
f 92 91 139
f 139 140 92
f 59 60 33
f 33 32 59
f 33 18 32
f 34 18 33
f 61 60 93
f 34 33 61
f 61 33 60
f 184 141 183
f 183 141 182
f 95 63 93
f 95 96 63
f 68 96 95
f 95 107 68
f 93 107 95
f 68 37 67
f 37 63 67
f 129 85 128
f 228 229 173
f 396 350 349
f 409 362 356
f 356 408 409
f 357 408 358
f 360 316 362
f 263 264 212
f 310 264 263
f 212 262 263
f 262 310 263
f 407 357 355
f 355 309 308
f 310 309 355
f 355 406 407
f 308 354 355
f 355 354 406
f 319 318 361
f 318 317 361
f 361 360 411
f 158 206 165
f 165 166 126
f 379 378 377
f 377 376 416
f 377 378 330
f 330 376 377
f 338 381 382
f 382 383 338
f 416 383 382
f 382 377 416
f 328 327 373
f 373 374 328
f 390 376 375
f 391 390 375
f 110 71 109
f 46 47 28
f 28 45 46
f 46 45 47
f 28 43 44
f 44 45 28
f 44 43 71
f 47 45 74
f 72 44 71
f 147 146 189
f 147 111 146
f 148 111 147
f 147 194 148
f 147 191 192
f 147 189 190
f 190 191 147
f 82 81 121
f 121 81 120
f 202 154 197
f 152 201 197
f 197 201 202
f 150 196 151
f 151 117 116
f 116 150 151
f 117 79 116
f 116 79 115
f 192 244 246
f 247 246 198
f 198 246 199
f 152 196 198
f 198 199 152
f 199 248 200
f 152 199 200
f 200 201 152
f 289 334 335
f 335 334 295
f 335 290 289
f 101 64 100
f 101 102 64
f 98 64 97
f 98 99 64
f 62 35 34
f 34 61 62
f 63 35 62
f 93 63 62
f 62 61 93
f 94 96 68
f 68 67 94
f 63 96 94
f 94 67 63
f 130 129 171
f 85 129 130
f 130 131 85
f 134 131 130
f 172 228 173
f 173 134 172
f 134 130 172
f 172 130 171
f 278 279 229
f 229 228 278
f 278 228 277
f 315 316 268
f 268 311 315
f 356 316 315
f 315 311 356
f 313 311 264
f 356 311 313
f 357 358 313
f 313 355 357
f 269 317 270
f 314 267 268
f 268 316 314
f 317 269 314
f 314 269 267
f 314 361 317
f 316 360 314
f 360 361 314
f 169 170 126
f 159 165 126
f 158 165 159
f 126 123 159
f 123 158 159
f 213 206 212
f 213 165 206
f 166 165 213
f 126 166 167
f 212 264 215
f 215 213 212
f 265 311 268
f 268 266 265
f 264 311 265
f 265 215 264
f 266 215 265
f 379 377 417
f 377 382 417
f 381 412 417
f 417 412 379
f 417 382 381
f 71 43 70
f 193 147 192
f 194 147 193
f 148 194 195
f 195 150 148
f 196 150 195
f 195 198 196
f 247 198 195
f 45 44 73
f 44 72 73
f 71 111 112
f 112 72 71
f 112 111 148
f 153 197 154
f 118 117 153
f 153 154 118
f 153 117 152
f 152 197 153
f 114 116 115
f 294 244 243
f 294 246 244
f 228 172 227
f 227 172 171
f 310 355 312
f 355 313 312
f 312 264 310
f 312 313 264
f 356 313 359
f 359 313 358
f 359 408 356
f 359 358 408
f 220 270 221
f 221 169 220
f 220 269 270
f 267 269 220
f 221 170 222
f 222 169 221
f 170 169 222
f 166 213 214
f 214 215 166
f 213 215 214
f 216 167 166
f 166 215 216
f 216 215 266
f 108 109 71
f 71 70 108
f 194 193 245
f 247 195 245
f 245 195 194
f 245 193 192
f 192 246 245
f 245 246 247
f 75 74 45
f 45 73 75
f 75 73 72
f 116 114 149
f 150 116 149
f 243 242 293
f 242 292 293
f 293 294 243
f 248 292 249
f 249 200 248
f 250 201 249
f 201 200 249
f 249 291 250
f 242 291 249
f 249 292 242
f 267 220 219
f 219 220 169
f 219 218 267
f 169 218 219
f 268 267 217
f 267 218 217
f 167 216 217
f 217 266 268
f 217 216 266
f 74 75 76
f 47 74 76
f 50 77 78
f 78 114 115
f 78 79 50
f 115 79 78
f 113 75 72
f 72 112 113
f 167 217 168
f 168 217 218
f 126 167 168
f 168 169 126
f 168 218 169
f 29 14 28
f 15 14 29
f 4 14 5
f 1 4 5
f 5 14 15
f 393 394 345
f 345 394 346
f 345 346 307
f 261 345 307
f 306 345 261
f 12 4 1
f 1 3 12
f 308 394 347
f 346 394 308
f 6 5 15
f 15 16 6
f 273 319 320
f 320 319 363
f 208 160 207
f 207 260 208
f 306 261 208
f 208 260 306
f 344 392 367
f 367 325 344
f 27 41 25
f 27 25 13
f 177 176 232
f 136 176 177
f 350 422 398
f 397 422 350
f 425 426 407
f 407 406 425
f 357 426 410
f 407 426 357
f 272 224 170
f 170 223 272
f 412 337 364
f 381 337 412
f 64 37 68
f 68 97 64
f 55 32 17
f 17 31 55
f 17 6 16
f 17 16 31
f 171 275 226
f 225 275 171
f 136 177 233
f 233 178 136
f 400 352 424
f 352 399 424
f 48 29 28
f 28 47 48
f 127 170 129
f 128 127 129
f 129 170 224
f 224 171 129
f 230 175 279
f 175 229 279
f 395 421 396
f 349 395 396
f 397 350 396
f 396 421 397
f 361 411 363
f 363 319 361
f 373 415 387
f 387 386 373
f 373 327 372
f 372 415 373
f 373 386 391
f 391 374 373
f 375 376 330
f 375 330 329
f 375 374 391
f 329 374 375
f 121 32 55
f 121 205 256
f 207 160 121
f 121 157 122
f 256 301 121
f 121 120 156
f 55 82 121
f 121 257 207
f 160 157 121
f 156 205 121
f 301 257 121
f 121 56 32
f 122 83 121
f 83 56 121
f 335 295 251
f 335 251 290
f 294 248 199
f 199 246 294
f 227 276 277
f 277 228 227
f 227 171 226
f 226 276 227
f 108 14 4
f 108 320 363
f 108 42 69
f 393 371 108
f 238 187 108
f 108 394 393
f 363 411 108
f 28 14 108
f 234 233 108
f 108 11 25
f 69 106 108
f 108 371 325
f 108 284 238
f 4 12 108
f 108 408 410
f 97 143 108
f 103 102 108
f 186 181 108
f 347 394 108
f 410 426 108
f 108 348 347
f 25 41 108
f 108 276 226
f 108 180 234
f 145 185 108
f 226 275 108
f 418 395 108
f 275 274 108
f 108 425 405
f 325 284 108
f 405 404 108
f 187 146 108
f 12 11 108
f 41 42 108
f 108 182 186
f 108 143 145
f 108 181 180
f 108 231 230
f 108 423 418
f 403 402 108
f 108 401 400
f 395 348 108
f 108 104 103
f 108 105 104
f 184 183 108
f 108 101 100
f 108 185 184
f 108 177 232
f 108 274 320
f 400 424 108
f 426 425 108
f 362 409 108
f 108 146 110
f 108 43 28
f 232 231 108
f 108 233 177
f 108 424 423
f 108 402 401
f 108 404 403
f 230 279 108
f 411 360 108
f 106 105 108
f 110 109 108
f 100 99 108
f 108 183 182
f 277 276 108
f 108 98 97
f 108 409 408
f 108 360 362
f 108 278 277
f 102 101 108
f 99 98 108
f 279 278 108
f 108 70 43
f 149 112 148
f 148 150 149
f 248 294 293
f 293 292 248
f 76 48 47
f 77 48 76
f 77 76 78
f 78 76 75
f 113 78 75
f 114 78 113
f 112 149 113
f 113 149 114

