# https://github.com/mikedh/trimesh
v 0.01372215 -0.00084920 0.02506536
v 0.01066876 0.00811463 0.02582226
v 0.01372215 0.00811463 0.02580955
v 0.01372215 -0.00084920 0.03358191
v -0.00404175 -0.00084920 0.02786184
v 0.01031056 0.00811463 0.02591355
v 0.01372215 0.00811463 0.02778904
v 0.00171378 -0.00010865 0.03684870
v 0.00171378 -0.00066231 0.03679785
v 0.00152773 -0.00084920 0.03681519
v 0.01372215 -0.00010865 0.03358191
v -0.00404175 -0.00084920 0.03258234
v -0.00404175 0.00811463 0.02971537
v 0.01368737 0.00248152 0.03263087
v 0.01372215 0.00230428 0.03271407
v 0.01168250 0.00811463 0.02944612
v 0.01201810 0.00745743 0.02985173
v 0.01253105 0.00572451 0.03091023
v 0.00171378 0.00044589 0.03682328
v 0.00115910 0.00100042 0.03685563
v -0.00161260 -0.00010865 0.03687065
v 0.01372215 0.00044589 0.03356919
v -0.00161260 -0.00066231 0.03683136
v 0.00115910 -0.00084920 0.03681403
v -0.00404175 0.00543408 0.03354377
v -0.00197776 -0.00084920 0.03657136
v -0.00201601 -0.00066231 0.03661181
v -0.00206644 -0.00010865 0.03664994
v -0.00404175 0.00811463 0.03358191
v 0.01365434 0.00185504 0.03313239
v 0.01372215 0.00174273 0.03315666
v 0.01162512 0.00811463 0.02948426
v 0.01125823 0.00811463 0.02971306
v 0.01141124 0.00792773 0.02979164
v 0.01168946 0.00757501 0.02992684
v 0.01197462 0.00682744 0.03035209
v 0.01372215 0.00100042 0.03347675
v 0.00118518 0.00158742 0.03668923
v 0.00060441 0.00155496 0.03684870
v 0.00005146 0.00155496 0.03685101
v -0.00050323 0.00155496 0.03685217
v -0.00161260 0.00044589 0.03686257
v -0.00161956 -0.00084920 0.03677359
v -0.00404175 0.00577715 0.03358191
v -0.00204209 0.00044589 0.03664301
v -0.00382961 0.00811463 0.03358191
v -0.00197949 0.00088372 0.03657136
v -0.00165781 0.00104166 0.03669385
v -0.00105792 0.00155496 0.03677474
v -0.00050323 0.00201122 0.03664647
v 0.00005146 0.00204018 0.03665919
v 0.01335178 0.00192611 0.03317861
v 0.01335178 0.00155496 0.03339470
v 0.01224414 0.00579295 0.03095530
v 0.01372215 0.00151635 0.03326066
v 0.01279883 0.00232271 0.03307576
v 0.01279883 0.00302202 0.03261700
v 0.01168946 0.00689061 0.03039369
v 0.00941507 0.00811463 0.03023422
v 0.01104087 0.00800758 0.02984479
v 0.00101825 0.00192436 0.03656789
v 0.00060441 0.00199718 0.03664301
v -0.00327492 0.00811463 0.03356342
v 0.01279883 0.00204544 0.03325719
v 0.00005146 0.00783999 0.03305959
v 0.00172074 0.00811463 0.03240785
v 0.00005146 0.00756272 0.03324101
v -0.00118659 0.00811463 0.03322830
v -0.00161782 0.00811463 0.03332190
v -0.00216729 0.00811463 0.03343746
v -0.00272024 0.00811463 0.03351373
v -0.00086490 0.00811463 0.03313817
v -0.00105792 0.00811463 0.03319248
f 2 1 5
f 5 13 6
f 6 2 5
f 25 12 28
f 1 2 3
f 21 10 8
f 23 10 21
f 21 28 23
f 44 28 29
f 25 28 44
f 27 12 26
f 27 28 12
f 27 23 28
f 26 43 27
f 43 23 27
f 10 4 9
f 9 8 10
f 4 8 9
f 10 23 24
f 24 23 43
f 29 49 41
f 29 28 45
f 45 47 29
f 48 49 29
f 29 47 48
f 8 19 20
f 21 8 20
f 20 19 37
f 20 41 21
f 37 19 22
f 22 19 8
f 62 51 39
f 62 53 52
f 39 51 40
f 51 41 40
f 40 20 39
f 41 20 40
f 50 51 29
f 29 41 50
f 50 41 51
f 51 62 63
f 63 62 71
f 47 45 42
f 42 48 47
f 42 28 21
f 42 45 28
f 49 48 42
f 21 41 42
f 42 41 49
f 11 8 4
f 11 22 8
f 69 62 68
f 38 62 39
f 37 53 38
f 38 20 37
f 39 20 38
f 70 62 69
f 71 62 70
f 29 51 46
f 51 63 46
f 55 53 37
f 55 31 53
f 52 53 30
f 53 31 30
f 64 62 52
f 53 62 61
f 61 38 53
f 62 38 61
f 67 68 62
f 62 64 67
f 16 17 7
f 7 17 18
f 33 17 32
f 17 16 32
f 33 58 54
f 54 58 52
f 52 30 54
f 14 18 30
f 7 18 14
f 14 30 31
f 34 17 33
f 34 35 17
f 33 54 34
f 36 18 17
f 17 35 36
f 35 34 36
f 36 34 54
f 30 18 36
f 36 54 30
f 15 14 31
f 7 14 15
f 68 67 73
f 67 72 73
f 65 67 64
f 65 72 67
f 66 72 65
f 65 59 66
f 56 65 64
f 59 65 56
f 56 64 52
f 33 59 60
f 60 56 33
f 59 56 60
f 57 58 33
f 33 56 57
f 52 58 57
f 57 56 52
f 29 13 44
f 44 13 5
f 5 12 44
f 44 12 25
f 24 12 5
f 5 1 24
f 1 4 24
f 24 43 26
f 26 12 24
f 24 4 10
f 15 4 1
f 1 3 15
f 15 11 4
f 37 22 15
f 22 11 15
f 15 55 37
f 31 55 15
f 3 7 15
f 73 13 29
f 2 6 73
f 73 6 13
f 73 3 2
f 29 46 73
f 69 68 73
f 73 70 69
f 73 63 71
f 73 59 33
f 71 70 73
f 73 46 63
f 73 7 3
f 73 16 7
f 33 32 73
f 73 32 16
f 73 72 66
f 66 59 73

