# https://github.com/mikedh/trimesh
v -0.01276980 -0.02943490 0.00053471
v -0.01272602 -0.02992827 0.00053471
v -0.01276980 -0.02943490 0.00759239
v -0.01276980 -0.01619601 0.00053471
v -0.01257856 -0.03041681 0.00053471
v -0.01272602 -0.02992827 0.00661232
v -0.01276750 -0.02943490 0.00808300
v -0.01276750 -0.02453017 0.01151722
v -0.01276980 -0.02404164 0.01102662
v -0.01276980 -0.01619601 0.01102662
v -0.01267994 -0.01570264 0.00053471
v -0.01257856 -0.03041681 0.00661232
v -0.00849323 -0.04022626 0.00053471
v -0.00849553 -0.04022626 0.00317922
v -0.01272141 -0.02992827 0.00710292
v -0.01268224 -0.02992827 0.00759239
v -0.01259929 -0.02992827 0.00808300
v -0.01244261 -0.02491713 0.01187866
v -0.01252325 -0.02453017 0.01193645
v -0.01276750 -0.01619601 0.01151722
v -0.01241496 -0.02992827 0.00846030
v -0.01267994 -0.01570264 0.01151722
v -0.00413600 0.00150259 0.00662025
v -0.00397471 0.00172993 0.00632226
v -0.01243569 -0.01530600 0.00053471
v -0.01257395 -0.03041681 0.00710292
v -0.00849553 -0.04022626 0.00416043
v -0.01237809 -0.03089084 0.00710292
v -0.00844484 -0.04033267 0.00053471
v -0.00836880 -0.04049713 0.00072620
v -0.01181126 -0.03217748 0.00737485
v -0.00934347 -0.03802542 0.00735445
v -0.01203707 -0.02453017 0.01210980
v -0.00839875 -0.03758525 0.00886932
v -0.00807386 -0.03775938 0.00891351
v -0.01252325 -0.01619601 0.01193645
v -0.01247947 -0.01570264 0.01192285
v -0.01238500 -0.01535437 0.01186053
v -0.00351618 0.00229586 0.01183901
v -0.00376964 0.00195243 0.01151722
v -0.00354843 0.00234423 0.01151722
v -0.00354843 0.00234423 0.01053602
v -0.00355074 0.00233939 0.00906420
v -0.00336640 0.00258124 0.00906420
v -0.00312216 0.00287146 0.00906420
v -0.00289404 0.00311815 0.00906420
v -0.00152766 0.00419680 0.00630413
v -0.01234122 -0.01520926 0.00053471
v -0.00836880 -0.04049713 0.00416043
v -0.00836419 -0.04048746 0.00442216
v -0.00829737 -0.04064708 0.00053471
v -0.00800704 -0.04118398 0.00416043
v -0.00784805 -0.04143067 0.00416043
v -0.00741026 -0.04199176 0.00446975
v -0.00695864 -0.04251416 0.00450714
v -0.00646784 -0.04299786 0.00450374
v -0.00597244 -0.04347189 0.00449807
v -0.01203707 -0.01619601 0.01210980
v -0.00762224 -0.03777390 0.00901435
v -0.00271662 -0.04071963 0.00908460
v -0.00713145 -0.02747107 0.01210414
v -0.00664066 -0.02747107 0.01210980
v -0.00788722 -0.03803026 0.00883646
v -0.00321894 -0.04074382 0.00897356
v -0.01203707 -0.01570264 0.01209621
v -0.00320741 0.00195243 0.01208034
v -0.00360834 0.00195243 0.01190699
v -0.00322354 0.00245064 0.01193758
v -0.00307147 0.00280858 0.01186280
v -0.00337332 0.00258608 0.01151722
v -0.00337562 0.00259092 0.01102662
v -0.00336871 0.00258608 0.00955481
v -0.00312907 0.00287146 0.01053602
v -0.00289404 0.00311815 0.00955481
v -0.00264980 0.00332614 0.00906420
v -0.00152766 0.00419680 0.00652620
v -0.00129263 0.00425484 0.00665877
v -0.00124424 0.00423550 0.00625654
v -0.00124424 0.00391625 0.00608999
v -0.00948864 -0.01239896 0.00053471
v -0.00973288 -0.01260696 0.00053471
v -0.00998404 -0.01285364 0.00053471
v -0.01022828 -0.01309549 0.00053471
v -0.01106009 -0.01392746 0.00053471
v -0.01204168 -0.01490937 0.00053471
v -0.00825129 -0.04073898 0.00416043
v -0.00825129 -0.04073898 0.00053471
v -0.00815681 -0.04091311 0.00053471
v -0.00800704 -0.04118398 0.00053471
v -0.00784805 -0.04143067 0.00053471
v -0.00765681 -0.04170154 0.00416043
v -0.00742869 -0.04201595 0.00416043
v -0.00724205 -0.04226264 0.00416043
v -0.00699781 -0.04254802 0.00416043
v -0.00675126 -0.04279471 0.00416043
v -0.00650701 -0.04303172 0.00416043
v -0.00625125 -0.04327841 0.00416043
v -0.00600701 -0.04350091 0.00416043
v -0.00541713 -0.04390722 0.00440970
v -0.00516828 -0.04398945 0.00450260
v -0.00320741 0.00146389 0.01210980
v -0.00271662 -0.04109692 0.00893957
v -0.00223735 -0.04123719 0.00897129
v -0.00173504 -0.04120817 0.00906987
v -0.00124424 -0.03777390 0.01013832
v -0.00075576 -0.03777390 0.01019837
v 0.00267749 -0.03041681 0.01208261
v 0.00169590 -0.02992827 0.01210980
v -0.00450467 -0.04443445 0.00447994
v -0.00306455 -0.04101469 0.00888292
v -0.00271662 0.00244581 0.01209734
v -0.00273736 0.00295853 0.01194891
v -0.00312677 0.00287146 0.01151722
v -0.00258759 0.00327293 0.01185714
v -0.00289174 0.00311815 0.01151722
v -0.00312907 0.00287146 0.01102662
v -0.00264750 0.00332614 0.01004541
v -0.00124424 0.00406136 0.01151722
v -0.00092627 0.00414843 0.01151722
v -0.00264519 0.00332130 0.01151722
v -0.00230878 0.00356799 0.01151722
v -0.00206223 0.00371794 0.01151722
v -0.00173504 0.00388240 0.01151722
v -0.00026496 0.00424517 0.01151722
v 0.00022583 0.00424517 0.01151722
v 0.00022583 0.00424517 0.00906420
v -0.00089401 0.00425001 0.00661232
v -0.00067972 0.00419196 0.01151722
v -0.00092857 0.00422099 0.00628260
v -0.00909232 -0.01224418 0.00053471
v 0.01038270 -0.01396132 0.00053471
v -0.00765681 -0.04170154 0.00053471
v -0.00742869 -0.04201595 0.00053471
v -0.00731579 -0.04216590 0.00053471
v -0.00724205 -0.04226264 0.00053471
v -0.00714758 -0.04237389 0.00053471
v -0.00699781 -0.04254802 0.00053471
v -0.00684803 -0.04269797 0.00053471
v -0.00675126 -0.04279471 0.00053471
v -0.00665679 -0.04288661 0.00053471
v -0.00650701 -0.04303172 0.00053471
v -0.00625125 -0.04327841 0.00053471
v -0.00615678 -0.04336547 0.00053471
v -0.00600701 -0.04350091 0.00053471
v -0.00566368 -0.04374760 0.00416043
v -0.00541944 -0.04391205 0.00416043
v -0.00516828 -0.04407651 0.00416043
v -0.00478578 -0.04431836 0.00416043
v -0.00222583 0.00244581 0.01210980
v -0.00208067 -0.04149839 0.00887952
v -0.00173504 -0.04153708 0.00892484
v -0.00124424 -0.04157578 0.00895203
v 0.00414986 -0.04259155 0.00894637
v -0.00124424 -0.04120817 0.00909706
v 0.00562224 -0.04219008 0.00910499
v 0.00611073 -0.04219008 0.00910952
v 0.00365907 -0.03041681 0.01210187
v 0.00316828 -0.03041681 0.01209621
v 0.00709231 -0.02992827 0.01210980
v -0.00453924 -0.04445380 0.00416043
v -0.00348392 -0.04490364 0.00443689
v -0.00418670 -0.04450701 0.00455699
v -0.00173504 0.00293434 0.01210980
v -0.00222583 0.00293434 0.01209281
v -0.00173504 0.00342772 0.01205202
v -0.00220970 0.00343255 0.01191719
v -0.00203458 0.00370343 0.01180955
v -0.00062211 0.00418229 0.01179708
v -0.00026496 0.00420164 0.01182881
v 0.00022583 0.00420164 0.01182994
v 0.00059680 0.00418229 0.01179822
v 0.00066362 0.00419680 0.01151722
v 0.00066362 0.00419680 0.00906420
v 0.00090787 0.00415327 0.00906420
v 0.00120741 0.00407588 0.00906420
v 0.00169590 0.00389691 0.00906420
v 0.00200927 0.00370826 0.00876508
v 0.00256228 0.00328261 0.00871976
v 0.00304616 0.00282309 0.00871296
v -0.00043778 0.00374212 0.00628260
v 0.01053247 -0.01412577 0.00053471
v 0.00003919 0.00325359 0.00628827
v -0.00566368 -0.04374760 0.00053471
v -0.00541944 -0.04391205 0.00053471
v -0.00516828 -0.04407651 0.00053471
v -0.00478578 -0.04431836 0.00053471
v -0.00468901 -0.04437157 0.00053471
v -0.00320741 -0.04493750 0.00450487
v -0.00271662 -0.04497136 0.00455699
v 0.00777896 -0.04391205 0.00784392
v 0.00464066 -0.04261574 0.00894863
v 0.00513145 -0.04262541 0.00896450
v 0.00709231 -0.04265443 0.00896450
v 0.00709231 -0.04219008 0.00910952
v 0.00709231 -0.03041681 0.01210187
v 0.01003707 -0.02501871 0.01210980
v -0.00453924 -0.04445380 0.00053471
v -0.00418670 -0.04461342 0.00416043
v -0.00350005 -0.04490848 0.00416043
v -0.00320741 -0.04499071 0.00416043
v -0.00075576 0.00342772 0.01210980
v -0.00124424 0.00342772 0.01210300
v -0.00124424 0.00386305 0.01192965
v -0.00173504 0.00377598 0.01187866
v -0.00077419 0.00395979 0.01192172
v -0.00026496 0.00391625 0.01200216
v 0.00022583 0.00391625 0.01200330
v 0.00120741 0.00387272 0.01193192
v 0.00120741 0.00407588 0.01151722
v 0.00090787 0.00415327 0.01151722
v 0.00169590 0.00378566 0.01188546
v 0.00200927 0.00370826 0.01181635
v 0.00091017 0.00415327 0.01102662
v 0.00091017 0.00415327 0.00955481
v 0.00169590 0.00389691 0.01151722
v 0.00204153 0.00372761 0.00906420
v 0.00228808 0.00357766 0.00906420
v 0.00262679 0.00333581 0.00906420
v 0.00287104 0.00313266 0.00906420
v 0.00310837 0.00289081 0.00906420
v 0.00335492 0.00261510 0.00906420
v 0.00349087 0.00231037 0.00873222
v 0.01062694 -0.01423219 0.00053471
v -0.00271662 -0.04504875 0.00416043
v 0.00807390 -0.04505843 0.00563224
v 0.00807390 -0.04495685 0.00606619
v 0.00807390 -0.04486495 0.00631093
v 0.00807390 -0.04474402 0.00661232
v 0.00807390 -0.04452152 0.00704174
v 0.00758311 -0.04449249 0.00700774
v 0.00807390 -0.04435222 0.00728647
v 0.00807390 -0.04411521 0.00759239
v 0.00807390 -0.04391689 0.00784732
v 0.00856469 -0.04336064 0.00828921
v 0.00856469 -0.04311879 0.00845236
v 0.00856469 -0.04267862 0.00866877
v 0.00895180 -0.04208367 0.00887045
v 0.00856469 -0.04391689 0.00784732
v 0.00881815 -0.04391205 0.00784392
v 0.00909005 -0.04172089 0.00890898
v 0.01041726 -0.02649400 0.01185147
v 0.01003707 -0.02600062 0.01205315
v 0.01003707 -0.02551209 0.01209847
v 0.01052325 -0.02551209 0.01193078
v 0.01052325 -0.02501871 0.01193645
v 0.01003707 -0.01472556 0.01210980
v -0.00418670 -0.04461342 0.00053471
v -0.00364982 -0.04484560 0.00053471
v -0.00350005 -0.04490848 0.00053471
v -0.00320741 -0.04499071 0.00053471
v 0.00071662 0.00342772 0.01210980
v 0.00120741 0.00342772 0.01210527
v 0.00169590 0.00342772 0.01205882
v 0.00217748 0.00343739 0.01192398
v 0.00256228 0.00328261 0.01186167
v 0.00262679 0.00333581 0.01151722
v 0.00228808 0.00357766 0.01151722
v 0.00204153 0.00372761 0.01151722
v 0.00287334 0.00313750 0.00955481
v 0.00311067 0.00289081 0.00955481
v 0.00353004 0.00236841 0.00906420
v 0.00335492 0.00261510 0.01151722
v 0.00376967 0.00195243 0.00906420
v 0.01071450 -0.01453208 0.00053471
v 0.00390101 0.00170091 0.00906420
v 0.01062694 -0.01423219 0.01151722
v -0.00271662 -0.04504875 0.00053471
v 0.00807390 -0.04516000 0.00416043
v 0.00807390 -0.04515517 0.00465103
v 0.00807390 -0.04512131 0.00514164
v 0.00856469 -0.04502457 0.00563224
v 0.00856469 -0.04494234 0.00604353
v 0.00856469 -0.04485043 0.00628940
v 0.00856469 -0.04471500 0.00661232
v 0.00856469 -0.04451184 0.00703947
v 0.00856469 -0.04435222 0.00728534
v 0.00856469 -0.04411521 0.00759239
v 0.00891262 -0.04305107 0.00841384
v 0.00932047 -0.04157094 0.00884439
v 0.00886424 -0.04446347 0.00697715
v 0.00887345 -0.04400879 0.00759239
v 0.00888958 -0.04366053 0.00794363
v 0.01050021 -0.02600062 0.01190812
v 0.01073524 -0.02551209 0.01151722
v 0.01076750 -0.02501871 0.01151722
v 0.01052325 -0.01472556 0.01193645
v 0.00365907 0.00097536 0.01207355
v 0.00316828 0.00195243 0.01208714
v 0.00365907 0.00048198 0.01210187
v 0.00316828 0.00146389 0.01210980
v 0.00169590 0.00293434 0.01210980
v 0.00267749 0.00244581 0.01210187
v 0.00218669 0.00293434 0.01209734
v 0.00270514 0.00296820 0.01195458
v 0.00304616 0.00282309 0.01186847
v 0.00287104 0.00313266 0.01151722
v 0.00287334 0.00313750 0.01102662
v 0.00311067 0.00289081 0.01102662
v 0.00377198 0.00195243 0.00955481
v 0.00353004 0.00236841 0.01151722
v 0.00310837 0.00289081 0.01151722
v 0.00349087 0.00231037 0.01184807
v 0.01076980 -0.01472556 0.01102662
v 0.01076980 -0.01472556 0.00053471
v 0.00390101 0.00170091 0.01102662
v 0.01045413 -0.01423219 0.01187640
v 0.01076750 -0.01472556 0.01151722
v 0.00389871 0.00170091 0.01151722
v 0.00396092 0.00137683 0.01183901
v 0.00807390 -0.04516000 0.00053471
v 0.00837344 -0.04512131 0.00053471
v 0.00856469 -0.04509228 0.00465103
v 0.00856469 -0.04507294 0.00514164
v 0.00883428 -0.04491332 0.00597215
v 0.00900249 -0.04319618 0.00811472
v 0.00902092 -0.04366053 0.00759239
v 0.00918913 -0.04267862 0.00808300
v 0.00932968 -0.04165801 0.00857360
v 0.00939420 -0.04120817 0.00857360
v 0.00979743 -0.03807379 0.00883080
v 0.01076289 -0.02747107 0.01053602
v 0.00889189 -0.04454086 0.00661232
v 0.00893567 -0.04418293 0.00712558
v 0.01076980 -0.02453017 0.01102662
v 0.01076750 -0.02747107 0.01004541
v 0.00358995 0.00195243 0.01191379
v 0.00319363 0.00246515 0.01194665
v 0.00218669 0.00244581 0.01210980
v 0.00377198 0.00195243 0.01102662
v 0.00376967 0.00195243 0.01151722
v 0.01076980 -0.02698254 0.00053471
v 0.00856469 -0.04509228 0.00053471
v 0.00886193 -0.04496169 0.00416043
v 0.00886193 -0.04495685 0.00514164
v 0.00885272 -0.04493750 0.00563224
v 0.00900940 -0.04415390 0.00661232
v 0.00913843 -0.04317199 0.00759239
v 0.00945872 -0.04071963 0.00857360
v 0.00929973 -0.04193856 0.00808300
v 0.00980204 -0.03810281 0.00857360
v 0.01030436 -0.03426223 0.00857360
v 0.01029514 -0.03420902 0.00884326
v 0.01054629 -0.03188726 0.00857360
v 0.01066842 -0.03041681 0.00857360
v 0.01075828 -0.02796445 0.01004541
v 0.01076519 -0.02796445 0.00955481
v 0.01076980 -0.02698254 0.00955481
v 0.01076519 -0.02796445 0.00514164
v 0.01076750 -0.02747107 0.00053471
v 0.00886193 -0.04496169 0.00053471
v 0.00894488 -0.04464244 0.00514164
v 0.00893797 -0.04464244 0.00563224
v 0.00897023 -0.04445380 0.00053471
v 0.00909926 -0.04347189 0.00053471
v 0.00971679 -0.03875581 0.00808300
v 0.01010159 -0.03581491 0.00808300
v 0.01030436 -0.03426223 0.00053471
v 0.01035274 -0.03385108 0.00857360
v 0.01016610 -0.03532153 0.00808300
v 0.01024675 -0.03470723 0.00053471
v 0.01040344 -0.03335771 0.00857360
v 0.01059468 -0.03139872 0.00808300
v 0.01064077 -0.03090535 0.00808300
v 0.01067994 -0.03041681 0.00808300
v 0.01070298 -0.02992827 0.00857360
v 0.01072833 -0.02943490 0.00857360
v 0.01075598 -0.02845299 0.00906420
v 0.01075598 -0.02845299 0.00563224
v 0.01076289 -0.02796445 0.00053471
v 0.01076519 -0.02777097 0.00053471
v 0.00894488 -0.04464244 0.00053471
v 0.00967761 -0.03905570 0.00053471
v 0.01035274 -0.03385108 0.00053471
v 0.01040344 -0.03335771 0.00053471
v 0.01042187 -0.03316907 0.00053471
v 0.01059468 -0.03139872 0.00053471
v 0.01061312 -0.03120524 0.00053471
v 0.01064077 -0.03090535 0.00053471
v 0.01065690 -0.03071670 0.00053471
v 0.01067994 -0.03041681 0.00053471
v 0.01070528 -0.02992827 0.00808300
v 0.01071450 -0.02973479 0.00053471
v 0.01072602 -0.02943490 0.00053471
v 0.01074445 -0.02894636 0.00808300
v 0.01074445 -0.02894636 0.00857360
v 0.01075367 -0.02845299 0.00317922
v 0.01070528 -0.02992827 0.00053471
f 303 304 264
f 33 18 35
f 266 264 223
f 303 264 266
f 33 61 62
f 195 194 237
f 60 61 33
f 52 53 32
f 32 53 54
f 13 14 5
f 148 109 99
f 99 100 57
f 109 100 99
f 57 98 99
f 99 98 145
f 268 310 311
f 312 311 332
f 268 311 312
f 303 266 307
f 223 222 263
f 8 3 7
f 8 7 17
f 321 342 343
f 321 320 342
f 321 284 279
f 279 320 321
f 106 107 61
f 195 237 240
f 240 237 279
f 193 237 194
f 33 35 59
f 59 60 33
f 17 32 21
f 21 32 18
f 21 8 17
f 18 8 21
f 34 35 18
f 18 32 34
f 34 32 57
f 31 32 17
f 55 32 54
f 54 93 55
f 55 93 94
f 148 99 147
f 160 109 148
f 352 351 336
f 309 266 308
f 129 177 178
f 11 24 25
f 25 24 48
f 23 24 11
f 48 24 47
f 97 98 57
f 92 93 54
f 3 8 9
f 19 18 33
f 19 8 18
f 342 320 341
f 341 358 342
f 344 321 343
f 344 345 321
f 380 364 379
f 61 107 108
f 108 62 61
f 107 106 158
f 158 106 157
f 158 108 107
f 157 108 158
f 105 60 104
f 104 106 105
f 61 60 105
f 105 106 61
f 239 282 278
f 279 237 278
f 154 106 104
f 106 154 153
f 104 152 153
f 153 154 104
f 314 336 322
f 336 323 322
f 279 278 315
f 315 278 282
f 316 315 282
f 279 315 316
f 316 323 336
f 64 59 35
f 60 59 64
f 57 100 63
f 63 64 35
f 110 64 63
f 63 100 109
f 109 110 63
f 63 34 57
f 35 34 63
f 89 52 88
f 52 86 88
f 86 87 88
f 32 27 50
f 52 32 50
f 50 86 52
f 32 31 28
f 28 27 32
f 146 99 145
f 146 147 99
f 148 186 187
f 197 160 187
f 187 160 148
f 269 224 268
f 270 224 269
f 268 312 269
f 312 313 269
f 269 313 270
f 335 336 314
f 335 352 336
f 314 313 335
f 308 330 302
f 302 309 308
f 302 330 300
f 266 309 306
f 306 307 266
f 300 330 329
f 263 299 265
f 223 263 265
f 129 178 179
f 131 182 179
f 179 181 131
f 223 181 179
f 179 222 223
f 163 111 149
f 149 111 101
f 101 111 66
f 24 23 43
f 79 130 80
f 80 47 79
f 131 130 79
f 129 131 79
f 56 97 57
f 57 32 56
f 32 55 56
f 54 53 91
f 91 92 54
f 22 23 11
f 10 20 22
f 284 321 285
f 321 345 346
f 376 362 375
f 361 362 343
f 343 342 361
f 342 358 361
f 374 375 361
f 361 375 362
f 366 383 384
f 383 368 384
f 365 344 364
f 366 345 365
f 345 344 365
f 382 383 366
f 195 196 159
f 150 110 109
f 109 162 150
f 237 193 236
f 236 278 237
f 234 193 239
f 239 278 234
f 281 282 239
f 281 316 282
f 317 318 279
f 279 316 317
f 17 7 16
f 7 15 16
f 51 87 86
f 86 50 49
f 49 50 27
f 49 51 86
f 30 51 49
f 27 28 12
f 248 249 199
f 247 248 198
f 198 248 199
f 271 313 314
f 270 313 271
f 225 224 270
f 270 271 225
f 314 322 280
f 280 281 239
f 280 322 323
f 323 316 280
f 316 281 280
f 312 333 334
f 334 313 312
f 334 335 313
f 334 333 351
f 351 352 334
f 352 335 334
f 351 371 353
f 336 351 353
f 357 341 360
f 337 353 354
f 336 353 337
f 318 317 337
f 337 316 336
f 337 317 316
f 279 284 283
f 326 306 309
f 309 302 326
f 288 246 287
f 287 326 288
f 306 326 287
f 252 207 251
f 289 290 246
f 289 246 288
f 288 290 289
f 208 207 252
f 308 266 305
f 119 118 168
f 129 179 180
f 180 179 182
f 180 131 129
f 180 182 131
f 222 179 221
f 65 58 101
f 101 66 65
f 36 58 65
f 67 66 68
f 68 66 111
f 114 120 115
f 115 69 114
f 113 69 115
f 81 47 80
f 81 82 47
f 47 82 83
f 129 79 78
f 78 79 47
f 47 77 78
f 167 118 123
f 123 122 167
f 204 168 167
f 167 168 118
f 122 121 167
f 167 120 114
f 167 121 120
f 127 77 126
f 127 126 173
f 129 78 127
f 127 78 77
f 124 77 128
f 128 77 119
f 128 168 124
f 119 168 128
f 144 98 143
f 98 97 143
f 97 142 143
f 95 55 94
f 95 56 55
f 67 68 39
f 39 68 69
f 325 285 321
f 321 346 325
f 325 346 347
f 347 324 325
f 325 324 285
f 367 345 366
f 367 346 345
f 377 362 376
f 363 378 379
f 379 364 363
f 343 362 363
f 363 377 378
f 362 377 363
f 363 344 343
f 364 344 363
f 319 320 279
f 319 338 320
f 279 318 319
f 318 337 319
f 383 369 386
f 386 368 383
f 386 369 368
f 349 331 348
f 368 369 348
f 381 382 366
f 366 365 381
f 381 365 364
f 151 153 152
f 151 152 104
f 104 60 103
f 103 151 104
f 150 151 103
f 193 234 235
f 235 234 278
f 235 236 193
f 278 236 235
f 156 193 194
f 156 192 193
f 157 106 156
f 191 192 153
f 29 51 30
f 29 30 14
f 14 13 29
f 15 12 26
f 26 12 28
f 26 16 15
f 17 16 26
f 26 31 17
f 26 28 31
f 6 12 15
f 7 3 6
f 6 15 7
f 224 225 189
f 189 225 226
f 190 191 153
f 153 189 190
f 190 189 230
f 192 191 190
f 340 341 320
f 320 338 340
f 355 337 354
f 355 340 337
f 241 240 279
f 279 283 241
f 195 240 241
f 284 285 244
f 244 283 284
f 244 285 245
f 244 245 196
f 195 241 242
f 242 241 283
f 286 287 246
f 306 287 286
f 307 306 286
f 252 251 291
f 253 208 252
f 252 293 253
f 292 290 288
f 292 293 252
f 252 291 292
f 201 202 163
f 201 251 207
f 164 111 163
f 163 202 164
f 206 201 207
f 202 201 206
f 209 213 210
f 210 213 172
f 210 171 209
f 172 171 210
f 174 175 129
f 129 127 174
f 174 127 173
f 261 299 263
f 261 263 222
f 222 221 261
f 298 301 262
f 262 302 300
f 262 295 302
f 301 295 262
f 297 301 298
f 220 221 179
f 36 65 37
f 37 66 67
f 37 65 66
f 37 20 36
f 37 22 20
f 120 121 76
f 76 121 122
f 76 122 123
f 123 118 76
f 76 77 47
f 76 118 119
f 119 77 76
f 46 47 24
f 48 47 85
f 97 56 96
f 56 95 96
f 136 137 94
f 94 93 136
f 93 135 136
f 134 135 93
f 93 92 134
f 92 133 134
f 23 22 40
f 22 39 40
f 366 384 385
f 385 367 366
f 349 348 370
f 370 348 369
f 382 381 387
f 60 64 102
f 102 103 60
f 102 64 110
f 110 150 102
f 150 103 102
f 155 156 106
f 192 156 155
f 106 153 155
f 153 192 155
f 314 273 272
f 272 273 226
f 272 271 314
f 226 225 272
f 272 225 271
f 230 189 229
f 188 200 224
f 224 189 188
f 188 151 150
f 153 151 188
f 188 189 153
f 280 275 274
f 314 280 274
f 274 273 314
f 339 340 338
f 337 340 339
f 338 319 339
f 339 319 337
f 372 355 354
f 360 355 372
f 359 360 341
f 243 196 195
f 195 242 243
f 243 244 196
f 283 244 243
f 243 242 283
f 296 295 301
f 296 255 295
f 256 255 296
f 296 297 256
f 301 297 296
f 295 255 294
f 293 292 294
f 294 255 254
f 254 253 294
f 294 253 293
f 176 177 129
f 129 175 176
f 211 253 254
f 208 253 211
f 211 171 208
f 125 171 172
f 125 77 124
f 126 77 125
f 124 168 169
f 290 292 328
f 328 292 291
f 112 68 111
f 111 164 112
f 69 68 112
f 114 69 112
f 206 169 205
f 175 174 214
f 214 174 173
f 260 220 259
f 221 220 260
f 259 220 219
f 219 179 178
f 219 220 179
f 67 39 38
f 38 37 67
f 38 39 22
f 22 37 38
f 47 46 75
f 75 76 47
f 45 46 24
f 46 45 73
f 47 83 84
f 84 85 47
f 94 137 138
f 138 95 94
f 138 139 95
f 23 40 41
f 41 40 39
f 228 229 189
f 273 274 228
f 275 229 228
f 228 274 275
f 231 190 230
f 230 229 231
f 199 200 161
f 200 188 161
f 161 198 199
f 161 162 109
f 160 198 161
f 109 160 161
f 161 150 162
f 161 188 150
f 356 355 360
f 360 359 356
f 340 355 356
f 341 340 356
f 356 359 341
f 295 294 327
f 302 295 327
f 327 292 288
f 327 294 292
f 288 326 327
f 327 326 302
f 216 217 177
f 177 176 216
f 254 255 212
f 212 211 254
f 212 257 258
f 258 215 212
f 212 255 256
f 256 257 212
f 212 215 209
f 209 171 212
f 171 211 212
f 171 125 170
f 170 125 124
f 124 169 170
f 207 208 170
f 208 171 170
f 165 112 164
f 165 164 202
f 203 168 204
f 204 165 203
f 203 169 168
f 203 205 169
f 206 205 203
f 202 206 203
f 203 165 202
f 218 219 178
f 218 178 177
f 177 217 218
f 259 219 218
f 120 76 117
f 76 75 117
f 117 115 120
f 117 75 115
f 115 75 74
f 74 75 46
f 44 45 24
f 72 45 44
f 24 43 44
f 43 72 44
f 113 115 116
f 115 74 116
f 140 141 96
f 95 139 140
f 140 96 95
f 71 72 43
f 113 116 71
f 71 116 73
f 71 45 72
f 71 73 45
f 226 273 227
f 273 228 227
f 227 189 226
f 227 228 189
f 193 192 233
f 192 190 233
f 276 280 239
f 276 275 280
f 276 229 275
f 276 231 229
f 166 165 204
f 166 167 114
f 204 167 166
f 114 112 166
f 112 165 166
f 42 43 23
f 42 71 43
f 23 41 42
f 41 71 42
f 113 71 70
f 70 71 41
f 70 41 39
f 70 69 113
f 70 39 69
f 190 231 232
f 232 233 190
f 239 193 238
f 193 233 238
f 231 276 277
f 277 232 231
f 277 276 239
f 239 238 277
f 185 186 147
f 147 186 148
f 183 98 144
f 145 98 183
f 267 310 224
f 224 310 268
f 333 332 350
f 333 312 332
f 371 333 350
f 351 333 371
f 9 4 1
f 1 3 9
f 10 4 9
f 58 19 33
f 36 19 58
f 10 9 20
f 20 9 8
f 20 19 36
f 8 19 20
f 357 373 341
f 341 373 358
f 11 4 22
f 22 4 10
f 361 373 374
f 358 373 361
f 159 157 195
f 159 108 157
f 14 30 49
f 49 27 14
f 14 27 12
f 5 14 12
f 185 147 184
f 147 146 184
f 145 183 184
f 184 146 145
f 197 247 198
f 198 160 197
f 249 250 200
f 199 249 200
f 267 224 200
f 200 250 267
f 305 329 330
f 305 330 308
f 299 329 305
f 305 265 299
f 305 266 223
f 223 265 305
f 90 52 89
f 90 53 52
f 324 331 304
f 324 304 303
f 324 347 331
f 303 307 324
f 307 285 324
f 331 347 348
f 347 346 348
f 348 367 368
f 346 367 348
f 195 157 156
f 156 194 195
f 6 2 5
f 5 12 6
f 1 2 6
f 6 3 1
f 286 246 196
f 196 245 286
f 286 285 307
f 245 285 286
f 261 329 299
f 300 329 261
f 300 261 262
f 262 261 221
f 92 91 132
f 132 133 92
f 53 90 132
f 132 91 53
f 368 367 385
f 385 384 368
f 364 380 387
f 387 381 364
f 209 215 176
f 176 175 209
f 125 172 173
f 173 126 125
f 62 108 328
f 33 62 328
f 328 159 196
f 328 58 33
f 196 246 328
f 101 58 328
f 163 149 328
f 246 290 328
f 328 149 101
f 108 159 328
f 328 201 163
f 328 291 251
f 251 201 328
f 209 175 214
f 214 213 209
f 173 172 214
f 172 213 214
f 259 297 260
f 260 297 298
f 260 262 221
f 298 262 260
f 141 142 97
f 97 96 141
f 258 257 216
f 216 257 217
f 216 176 215
f 216 215 258
f 170 169 206
f 170 206 207
f 217 257 218
f 218 257 256
f 218 297 259
f 256 297 218
f 116 74 46
f 46 73 116
f 140 353 371
f 223 264 140
f 140 84 83
f 80 130 140
f 140 29 13
f 140 310 267
f 350 332 140
f 304 331 140
f 140 181 223
f 140 264 304
f 140 183 144
f 140 247 197
f 140 2 1
f 1 4 140
f 140 373 357
f 89 88 140
f 140 311 310
f 5 2 140
f 140 371 350
f 11 25 140
f 140 331 349
f 140 13 5
f 140 380 379
f 332 311 140
f 140 130 131
f 131 181 140
f 357 360 140
f 140 4 11
f 379 378 140
f 140 375 374
f 383 382 140
f 140 186 185
f 140 377 376
f 197 187 140
f 267 250 140
f 140 25 48
f 374 373 140
f 133 132 140
f 140 88 87
f 140 187 186
f 185 184 140
f 140 250 249
f 249 248 140
f 140 81 80
f 48 85 140
f 144 143 140
f 140 90 89
f 376 375 140
f 140 369 383
f 349 370 140
f 87 51 140
f 140 184 183
f 140 248 247
f 354 353 140
f 140 387 380
f 82 81 140
f 140 83 82
f 140 143 142
f 137 136 140
f 140 134 133
f 378 377 140
f 51 29 140
f 140 372 354
f 140 138 137
f 140 136 135
f 135 134 140
f 140 132 90
f 140 370 369
f 382 387 140
f 360 372 140
f 85 84 140
f 139 138 140
f 142 141 140
f 277 238 233
f 233 232 277

