# https://github.com/mikedh/trimesh
v -0.01355265 0.00811258 0.01418970
v -0.01355265 0.00811258 0.01433194
v -0.01351347 0.00811258 0.01414797
v -0.01315462 0.00377036 0.01241984
v -0.01333169 0.00377036 0.01288573
v -0.01332386 0.00321660 0.01288573
v -0.01221125 -0.00011006 0.01510359
v -0.01013491 -0.00177339 0.02017809
v -0.01077740 0.00390522 0.02041827
v -0.01123968 0.00650238 0.02006907
v -0.01180852 0.00811258 0.01908364
v -0.01323610 0.00321660 0.01344019
v -0.01353698 0.00787555 0.01429020
v -0.01297284 0.00184752 0.01371104
v -0.01302612 0.00266079 0.01385413
v -0.01249959 -0.00121758 0.01392908
v -0.01326118 0.00811258 0.01393078
v -0.01308567 0.00411365 0.01249820
v -0.01269860 0.00377036 0.01221543
v -0.01269860 0.00321660 0.01218562
v -0.01314992 0.00321660 0.01240281
v -0.01311387 0.00266079 0.01241729
v -0.01307783 0.00210703 0.01244199
v -0.01304336 0.00155327 0.01248202
v -0.01300731 0.00099951 0.01254164
v -0.01298538 0.00065213 0.01258678
v -0.01318126 0.00210703 0.01288573
v -0.01298538 0.00065213 0.01319320
v -0.01186493 -0.00203085 0.01537358
v -0.01179598 -0.00181630 0.01563676
v -0.00940466 -0.00565176 0.02080751
v -0.01049533 0.00282426 0.02080751
v -0.01061443 0.00374992 0.02080751
v -0.01106574 0.00725844 0.02080751
v -0.01125692 0.00811258 0.02058606
v -0.01131333 0.00792868 0.02036802
v -0.01167532 0.00811258 0.01944647
v -0.01304336 0.00155327 0.01337632
v -0.01295403 0.00155327 0.01365312
v -0.01243691 -0.00217389 0.01376129
v -0.01246355 -0.00177339 0.01383198
v -0.01141519 -0.00457693 0.01570575
v -0.01316088 0.00811258 0.01388053
v -0.01007850 0.00811258 0.01263107
v -0.00992649 0.00811258 0.01258678
v -0.00945481 0.00811258 0.01245306
v -0.00842526 0.00811258 0.01216177
v -0.00822938 0.00811258 0.01210641
v -0.01214387 0.00321660 0.01217370
v -0.01214387 -0.00011006 0.01217370
v -0.01214387 -0.00066382 0.01217796
v -0.01214387 -0.00121758 0.01218818
v -0.01269860 0.00266079 0.01220010
v -0.01269860 0.00210703 0.01222480
v -0.01269860 0.00155327 0.01226483
v -0.01258734 -0.00121758 0.01240621
v -0.01254660 -0.00177339 0.01242666
v -0.01249802 -0.00232510 0.01247265
v -0.01245571 -0.00273787 0.01253823
v -0.01267040 -0.00177339 0.01288573
v -0.01275345 -0.00121758 0.01288573
v -0.01273621 -0.00066382 0.01344019
v -0.01258734 -0.00177339 0.01344019
v -0.01266413 -0.00121758 0.01344019
v -0.01125849 -0.00398843 0.01633942
v -0.00905365 -0.00837765 0.02080751
v -0.01117543 0.00811258 0.02080751
v -0.01241340 -0.00254170 0.01368293
v -0.01226140 -0.00287886 0.01399466
v -0.01139012 -0.00509595 0.01559077
v -0.01109081 -0.00565176 0.01621167
v -0.01083852 -0.00620552 0.01670481
v -0.00965069 -0.00814675 0.01926080
v -0.00101311 0.00811258 0.01210641
v -0.00790656 0.00377036 0.01210641
v -0.00733616 -0.00066382 0.01210641
v -0.01158913 -0.00287886 0.01217370
v -0.01158913 -0.00343263 0.01218307
v -0.01214387 -0.00177339 0.01220947
v -0.01214387 -0.00232510 0.01225461
v -0.01207492 -0.00343263 0.01240110
v -0.01197619 -0.00398843 0.01245306
v -0.01190724 -0.00437668 0.01253312
v -0.01229431 -0.00343263 0.01288573
v -0.01240557 -0.00309546 0.01288573
v -0.01247138 -0.00281961 0.01288573
v -0.01257167 -0.00232510 0.01288573
v -0.01245258 -0.00275422 0.01331329
v -0.01249019 -0.00234349 0.01347511
v -0.00915237 -0.00842261 0.02052218
v -0.00904738 -0.00842261 0.02080751
v -0.00778277 0.00811258 0.02080751
v -0.01239303 -0.00291565 0.01347511
v -0.01218305 -0.00343263 0.01399466
v -0.01194172 -0.00398843 0.01447502
v -0.01125222 -0.00565176 0.01576026
v -0.01054078 -0.00675928 0.01731974
v -0.01023520 -0.00763590 0.01769705
v -0.00969770 -0.00821009 0.01898229
v -0.00912103 -0.00874955 0.02043872
v -0.01134937 -0.00565176 0.01548345
v -0.01132273 -0.00594601 0.01540935
v -0.00095826 0.00809011 0.01210641
v -0.00716222 -0.00123393 0.01210641
v -0.00661375 -0.00290134 0.01210641
v -0.01103596 -0.00454219 0.01217370
v -0.01103596 -0.00509595 0.01218818
v -0.01158913 -0.00398843 0.01223502
v -0.01150138 -0.00509595 0.01240536
v -0.01210156 -0.00398843 0.01288573
v -0.01138385 -0.00565176 0.01251012
v -0.01131490 -0.00593170 0.01260381
v -0.01170196 -0.00509595 0.01288573
v -0.01183516 -0.00473223 0.01288573
v -0.01212663 -0.00398843 0.01344019
v -0.01229274 -0.00343263 0.01344019
v -0.00890321 -0.00896002 0.02080751
v 0.00245634 0.00661886 0.01210641
v 0.00235291 0.00666381 0.01210641
v 0.00174176 0.00692741 0.01210641
v 0.00060409 0.00741783 0.01210641
v -0.00076708 0.00800837 0.01210641
v 0.00245634 -0.00634038 0.02080751
v -0.01207805 -0.00398843 0.01399466
v -0.01190568 -0.00442776 0.01437537
v -0.01025244 -0.00765838 0.01731974
v -0.00975255 -0.00827548 0.01842782
v -0.00917744 -0.00881085 0.02009122
v -0.01132900 -0.00595622 0.01510359
v -0.01169256 -0.00509595 0.01454912
v -0.01185867 -0.00478944 0.01399466
v -0.00606058 -0.00400478 0.01210641
v -0.01048123 -0.00565176 0.01217370
v -0.00992649 -0.00675928 0.01218051
v -0.01048123 -0.00620552 0.01220777
v -0.01103596 -0.00565176 0.01229294
v -0.01194955 -0.00449519 0.01344019
v -0.01185083 -0.00477310 0.01344019
v -0.01102029 -0.00615239 0.01245902
v -0.01082441 -0.00658355 0.01250927
v -0.01021326 -0.00760525 0.01258933
v -0.01022110 -0.00761751 0.01288573
v -0.01086045 -0.00663872 0.01288573
v -0.01131803 -0.00593783 0.01288573
v -0.01146220 -0.00565176 0.01288573
v -0.01172077 -0.00509595 0.01344019
v -0.01194015 -0.00451358 0.01399466
v -0.00865875 -0.00936870 0.02080751
v 0.00245634 -0.00683489 0.01210641
v 0.00245634 -0.01247671 0.02080751
v -0.01047496 -0.00731304 0.01621167
v -0.01025244 -0.00765633 0.01676528
v -0.01003932 -0.00793423 0.01676528
v -0.01003932 -0.00793423 0.01731974
v -0.01088396 -0.00667550 0.01565720
v -0.00976195 -0.00827548 0.01787421
v -0.00951436 -0.00855338 0.01842782
v -0.00922916 -0.00884559 0.01953675
v -0.01132900 -0.00595622 0.01454912
v -0.01147631 -0.00565176 0.01454912
v -0.01172860 -0.00509595 0.01399466
v -0.00551055 -0.00456467 0.01210641
v -0.00937332 -0.00731304 0.01217370
v -0.00937332 -0.00786885 0.01220606
v -0.00992649 -0.00731304 0.01227505
v -0.01050473 -0.00676541 0.01238066
v -0.00991396 -0.00782185 0.01244880
v -0.00971964 -0.00822440 0.01250672
v -0.00975725 -0.00826526 0.01288573
v -0.01003462 -0.00789337 0.01288573
v -0.01023050 -0.00763181 0.01399466
v -0.01069435 -0.00693910 0.01454912
v -0.01087613 -0.00666120 0.01454912
v -0.01114722 -0.00623004 0.01399466
v -0.01132744 -0.00595214 0.01399466
v -0.01147160 -0.00565176 0.01344019
v -0.00866658 -0.00937075 0.02064568
v -0.00857726 -0.00944839 0.02080751
v 0.00245634 -0.01174722 0.01217625
v 0.00226673 -0.01174722 0.01217370
v 0.00225732 -0.00689823 0.01210641
v 0.00242813 -0.01248284 0.02080751
v 0.00245634 -0.01247671 0.01288573
v -0.01023520 -0.00763794 0.01454912
v -0.01024460 -0.00764816 0.01565720
v -0.01024930 -0.00765224 0.01621167
v -0.01070375 -0.00695136 0.01565720
v -0.01003619 -0.00790154 0.01344019
v -0.01003775 -0.00790767 0.01399466
v -0.01003932 -0.00793015 0.01621167
v -0.00975882 -0.00826731 0.01344019
v -0.00976195 -0.00826935 0.01454912
v -0.00976195 -0.00827344 0.01565720
v -0.00976195 -0.00827548 0.01621167
v -0.01088083 -0.00666733 0.01510359
v -0.00951122 -0.00855338 0.01731974
v -0.00923856 -0.00884355 0.01898229
v -0.00894865 -0.00912145 0.01953675
v -0.01147474 -0.00565176 0.01399466
v -0.00496364 -0.00511639 0.01210641
v -0.00881859 -0.00786885 0.01217370
v -0.00881859 -0.00842261 0.01221288
v -0.00936079 -0.00841443 0.01240536
v -0.00715595 -0.00953013 0.01217370
v -0.00916804 -0.00876794 0.01251609
v -0.00948302 -0.00854112 0.01288573
v -0.00949869 -0.00854930 0.01510359
v -0.00950182 -0.00855134 0.01565720
v -0.00950652 -0.00855134 0.01621167
v -0.00950809 -0.00855338 0.01676528
v -0.00867285 -0.00937075 0.02009122
v -0.00835944 -0.00964660 0.02064568
v -0.00835944 -0.00964456 0.02080751
v 0.00245634 -0.01225194 0.01239429
v 0.00115725 -0.01230302 0.01226142
v 0.00060409 -0.01230302 0.01223417
v -0.00216803 -0.01174722 0.01217370
v 0.00015904 -0.00705557 0.01210641
v 0.00060409 -0.00704944 0.01210641
v 0.00069341 -0.00704331 0.01210641
v 0.00170572 -0.00695545 0.01210641
v 0.00204577 -0.01255640 0.02080751
v 0.00226673 -0.01251349 0.01288573
v 0.00159760 -0.01261158 0.01254419
v -0.00923699 -0.00884150 0.01842782
v -0.00894865 -0.00912145 0.01898229
v -0.00385104 -0.00622391 0.01210641
v -0.00826385 -0.00897637 0.01222054
v -0.00770912 -0.00953013 0.01222991
v -0.00879978 -0.00896207 0.01241644
v -0.00438540 -0.01119346 0.01217540
v -0.00549331 -0.01063970 0.01217710
v -0.00660121 -0.01008593 0.01218221
v -0.00823878 -0.00950970 0.01243006
v -0.00860233 -0.00931149 0.01252631
v -0.00921035 -0.00880677 0.01344019
v -0.00921819 -0.00881494 0.01454912
v -0.00922132 -0.00881903 0.01510359
v -0.00922916 -0.00882516 0.01621167
v -0.00923386 -0.00883333 0.01731974
v -0.00803663 -0.00985503 0.01253823
v -0.00863524 -0.00934214 0.01288573
v -0.00835787 -0.00964660 0.01787421
v -0.00808207 -0.00989181 0.01953675
v -0.00808207 -0.00989181 0.02080751
v 0.00115725 -0.01265040 0.01247861
v 0.00060409 -0.01266879 0.01245221
v 0.00004935 -0.01230302 0.01224950
v -0.00272276 -0.01174722 0.01218051
v -0.00221661 -0.00681241 0.01210641
v -0.00161329 -0.00695953 0.01210641
v -0.00103191 -0.00699427 0.01210641
v 0.00004935 -0.00705557 0.01210641
v 0.00187496 -0.01258910 0.02080751
v 0.00167752 -0.01262588 0.01288573
v 0.00115725 -0.01272192 0.01288573
v -0.00894238 -0.00911123 0.01731974
v -0.00866188 -0.00936666 0.01676528
v -0.00866502 -0.00936870 0.01731974
v -0.00807581 -0.00988977 0.01510359
v -0.00715595 -0.01008593 0.01227250
v -0.00327750 -0.01174722 0.01221117
v -0.00494014 -0.01119346 0.01220862
v -0.00604648 -0.01063970 0.01223332
v -0.00766524 -0.01005733 0.01246413
v -0.00864308 -0.00935031 0.01399466
v -0.00893925 -0.00910715 0.01676528
v -0.00745055 -0.01037405 0.01258337
v -0.00806327 -0.00987955 0.01288573
v -0.00834064 -0.00962004 0.01288573
v -0.00807737 -0.00988977 0.01565720
v -0.00807894 -0.00988977 0.01621167
v -0.00808051 -0.00989181 0.01842782
v -0.00774203 -0.01016767 0.01621167
v -0.00798335 -0.00997355 0.02080751
v 0.00060409 -0.01276075 0.01288573
v 0.00004935 -0.01265653 0.01246669
v -0.00161329 -0.01230302 0.01230912
v -0.00106012 -0.01230302 0.01228698
v -0.00050539 -0.01230302 0.01226653
v 0.00130926 -0.01269536 0.02080751
v 0.00115725 -0.01272192 0.02080751
v -0.00806797 -0.00988364 0.01344019
v -0.00807424 -0.00988772 0.01454912
v -0.00774046 -0.01016154 0.01344019
v -0.00774203 -0.01016563 0.01454912
v -0.00550741 -0.01122615 0.01237641
v -0.00658711 -0.01065400 0.01240025
v -0.00715595 -0.01045988 0.01248968
v -0.00383067 -0.01174722 0.01229975
v -0.00272276 -0.01223764 0.01239770
v -0.00327750 -0.01215794 0.01242836
v -0.00494014 -0.01162462 0.01242580
v -0.00745996 -0.01038223 0.01288573
v -0.00773732 -0.01015745 0.01288573
v -0.00639123 -0.01095642 0.01253908
v -0.00538988 -0.01156944 0.01288573
v -0.00566568 -0.01141210 0.01288573
v -0.00642727 -0.01097686 0.01288573
v -0.00715595 -0.01056000 0.01288573
v -0.00774203 -0.01016971 0.01953675
v -0.00746466 -0.01038427 0.01399466
v -0.00774203 -0.01016971 0.02080751
v 0.00060409 -0.01276075 0.02080751
v -0.00034398 -0.01271579 0.02080751
v -0.00106012 -0.01268105 0.01288573
v -0.00161329 -0.01261771 0.01252716
v -0.00050539 -0.01264427 0.01248372
v -0.00106012 -0.01262997 0.01250416
v -0.00217743 -0.01234798 0.01240707
v -0.00604648 -0.01105451 0.01245136
v -0.00533190 -0.01153675 0.01250757
v -0.00199878 -0.01259932 0.01256208
v -0.00383067 -0.01207825 0.01251694
v -0.00413468 -0.01203329 0.01259018
v -0.00715595 -0.01056613 0.01399466
v -0.00673911 -0.01083586 0.01953675
v -0.00494014 -0.01177787 0.01288573
v -0.00539615 -0.01157353 0.01399466
v -0.00566882 -0.01141414 0.01344019
v -0.00671090 -0.01082156 0.01399466
v -0.00672501 -0.01082973 0.01676528
v -0.00754614 -0.01032297 0.02080751
v -0.00674225 -0.01083586 0.02064568
v -0.00715595 -0.01058044 0.01898229
v -0.00715595 -0.01058248 0.02064568
v -0.00746466 -0.01038427 0.02080751
v -0.00145188 -0.01266266 0.02080751
v -0.00161329 -0.01265449 0.01288573
v -0.00205206 -0.01260953 0.01288573
v -0.00232943 -0.01255436 0.01288573
v -0.00272276 -0.01245219 0.01288573
v -0.00414878 -0.01203738 0.01288573
v -0.00442615 -0.01195564 0.01288573
v -0.00673284 -0.01083382 0.01842782
v -0.00646488 -0.01099934 0.02064568
v -0.00494014 -0.01178196 0.01399466
v -0.00540712 -0.01157762 0.01621167
v -0.00570172 -0.01143458 0.02064568
v -0.00594618 -0.01129767 0.02080751
v -0.00568292 -0.01142232 0.01621167
v -0.00645548 -0.01099320 0.01842782
v -0.00604648 -0.01123024 0.01898229
v -0.00674225 -0.01083586 0.02080751
v -0.00715595 -0.01058248 0.02080751
v -0.00161329 -0.01265449 0.02080751
v -0.00192513 -0.01262384 0.02080751
v -0.00205206 -0.01260953 0.02080751
v -0.00213355 -0.01259523 0.02080751
v -0.00232943 -0.01255640 0.01344019
v -0.00272276 -0.01245424 0.01621167
v -0.00327750 -0.01229281 0.01621167
v -0.00442771 -0.01195769 0.01676528
v -0.00494014 -0.01178604 0.01621167
v -0.00646488 -0.01099934 0.02080751
v -0.00604648 -0.01124046 0.02080751
v -0.00541339 -0.01157762 0.01731974
v -0.00541025 -0.01157762 0.01676528
v -0.00550741 -0.01153675 0.02080751
v -0.00570172 -0.01143458 0.02080751
v -0.00232943 -0.01255640 0.02080751
v -0.00272276 -0.01245424 0.02080751
v -0.00405789 -0.01206599 0.02080751
v -0.00442771 -0.01195769 0.02080751
v -0.00479127 -0.01183713 0.02080751
v -0.00494014 -0.01178604 0.02080751
v -0.00528332 -0.01163892 0.02080751
v -0.00542592 -0.01157762 0.02064568
v -0.00541966 -0.01157762 0.01898229
v -0.00542592 -0.01157762 0.02080751
f 118 92 123
f 6 2 1
f 43 44 19
f 19 44 45
f 48 75 50
f 50 49 48
f 2 6 12
f 103 74 92
f 92 122 103
f 121 122 92
f 31 9 8
f 8 9 2
f 276 304 305
f 255 223 254
f 19 45 46
f 5 6 1
f 1 4 5
f 18 43 19
f 19 4 18
f 18 17 43
f 4 17 18
f 28 12 6
f 119 92 118
f 32 9 31
f 32 33 9
f 7 8 2
f 246 256 276
f 276 247 246
f 346 329 328
f 276 305 306
f 305 328 306
f 306 328 329
f 347 329 346
f 255 254 281
f 281 282 256
f 256 255 281
f 182 183 150
f 182 223 183
f 48 19 47
f 19 46 47
f 76 50 75
f 3 4 1
f 3 17 4
f 20 4 19
f 20 19 48
f 48 49 20
f 49 50 20
f 50 51 20
f 52 53 20
f 20 51 52
f 63 28 61
f 120 121 92
f 92 119 120
f 91 100 117
f 148 117 128
f 128 117 100
f 73 102 98
f 2 12 13
f 13 14 2
f 12 14 13
f 2 14 15
f 15 14 41
f 39 14 12
f 101 73 97
f 102 73 101
f 9 35 10
f 10 11 2
f 2 9 10
f 67 35 34
f 9 33 34
f 34 35 9
f 16 7 2
f 2 15 16
f 16 15 41
f 65 66 31
f 224 255 256
f 256 246 224
f 224 223 255
f 183 223 224
f 216 179 215
f 215 247 216
f 215 246 247
f 331 350 332
f 313 331 332
f 332 350 351
f 222 254 223
f 223 182 222
f 363 351 362
f 352 351 363
f 250 251 217
f 81 80 108
f 58 80 81
f 79 53 52
f 79 54 53
f 27 28 6
f 27 61 28
f 61 27 26
f 26 27 6
f 57 80 58
f 56 79 57
f 57 79 80
f 56 57 22
f 98 128 99
f 99 128 100
f 99 73 98
f 100 73 99
f 98 102 126
f 90 100 91
f 90 73 100
f 91 66 90
f 66 73 90
f 129 159 155
f 129 126 102
f 155 126 129
f 12 28 38
f 38 39 12
f 96 101 97
f 95 101 96
f 41 14 40
f 14 39 40
f 11 10 37
f 31 8 30
f 30 65 31
f 8 7 30
f 42 16 41
f 42 73 66
f 66 65 42
f 183 224 214
f 214 224 246
f 214 215 179
f 246 215 214
f 307 306 329
f 329 313 307
f 276 306 307
f 330 313 329
f 331 313 330
f 350 331 330
f 330 347 348
f 329 347 330
f 315 313 332
f 315 334 318
f 318 297 312
f 312 315 318
f 293 315 312
f 262 278 291
f 180 149 179
f 180 216 217
f 180 179 216
f 354 365 366
f 353 363 364
f 364 365 353
f 352 363 353
f 353 354 334
f 365 354 353
f 111 140 112
f 167 168 140
f 141 168 169
f 141 142 112
f 112 140 141
f 140 168 141
f 52 51 78
f 106 107 78
f 78 79 52
f 78 107 108
f 108 80 78
f 80 79 78
f 102 101 125
f 125 101 95
f 136 109 108
f 108 107 136
f 136 111 109
f 24 57 25
f 6 24 25
f 25 26 6
f 58 26 25
f 25 57 58
f 56 22 55
f 55 22 54
f 55 79 56
f 54 79 55
f 23 57 24
f 23 22 57
f 23 24 6
f 6 22 23
f 53 54 21
f 54 22 21
f 21 20 53
f 4 20 21
f 21 22 6
f 6 5 21
f 21 5 4
f 151 126 155
f 127 128 98
f 98 126 127
f 299 300 268
f 268 269 241
f 285 286 260
f 285 302 286
f 112 142 143
f 173 143 142
f 155 159 175
f 83 111 112
f 109 111 83
f 112 145 113
f 113 83 112
f 72 96 97
f 97 73 72
f 73 42 72
f 39 38 62
f 62 40 39
f 62 38 28
f 35 37 36
f 36 10 35
f 36 37 10
f 7 16 29
f 29 30 7
f 16 42 29
f 65 30 29
f 29 42 65
f 69 42 41
f 41 40 69
f 69 40 68
f 216 247 248
f 247 280 248
f 276 307 308
f 310 313 291
f 310 307 313
f 291 278 310
f 278 307 310
f 349 361 350
f 350 330 349
f 349 330 348
f 291 313 292
f 292 262 291
f 204 200 227
f 203 167 164
f 168 167 203
f 227 250 231
f 231 250 217
f 232 204 231
f 231 204 227
f 249 248 280
f 249 231 217
f 262 231 249
f 278 262 249
f 217 216 249
f 216 248 249
f 217 251 252
f 252 253 217
f 149 180 181
f 219 180 218
f 368 370 359
f 367 370 368
f 368 354 367
f 367 354 366
f 337 338 318
f 318 334 337
f 334 354 337
f 333 353 334
f 352 353 333
f 333 315 332
f 334 315 333
f 332 351 333
f 333 351 352
f 170 141 169
f 142 141 170
f 169 188 170
f 77 78 51
f 106 78 77
f 77 51 50
f 50 76 77
f 76 104 77
f 77 104 105
f 105 106 77
f 162 163 132
f 200 163 162
f 134 163 164
f 59 83 84
f 59 26 58
f 63 61 60
f 61 26 60
f 26 59 60
f 63 60 88
f 124 125 94
f 94 125 95
f 95 69 94
f 94 69 68
f 140 111 139
f 111 136 139
f 135 136 107
f 135 134 164
f 107 134 135
f 164 167 165
f 165 135 164
f 136 135 165
f 189 188 169
f 186 170 188
f 268 300 294
f 302 285 294
f 317 302 294
f 326 302 325
f 323 302 327
f 270 241 269
f 283 270 269
f 174 173 195
f 155 175 195
f 195 175 174
f 187 195 173
f 187 151 155
f 155 195 187
f 174 175 144
f 112 143 144
f 144 145 112
f 144 173 174
f 143 173 144
f 115 84 110
f 84 83 110
f 146 113 145
f 147 125 124
f 95 96 70
f 96 72 70
f 70 69 95
f 42 69 70
f 68 40 64
f 40 62 64
f 64 62 28
f 64 28 63
f 63 68 64
f 309 307 278
f 278 308 309
f 309 308 307
f 277 247 276
f 276 308 277
f 277 278 247
f 277 308 278
f 313 315 314
f 314 292 313
f 314 315 293
f 293 292 314
f 290 292 293
f 262 292 290
f 229 203 228
f 164 163 201
f 201 204 164
f 201 163 200
f 200 204 201
f 168 203 205
f 268 289 296
f 296 289 312
f 296 297 268
f 296 312 297
f 268 241 265
f 265 289 268
f 233 204 232
f 229 228 233
f 233 228 204
f 232 231 263
f 263 233 232
f 264 233 263
f 263 231 262
f 263 290 293
f 262 290 263
f 278 249 279
f 279 249 280
f 247 278 279
f 279 280 247
f 221 181 180
f 357 337 354
f 163 134 133
f 132 163 133
f 133 107 106
f 133 134 107
f 133 105 132
f 133 106 105
f 85 59 84
f 86 59 85
f 85 84 115
f 83 59 82
f 109 83 82
f 58 81 82
f 82 59 58
f 108 109 82
f 82 81 108
f 86 88 87
f 87 88 60
f 87 59 86
f 87 60 59
f 89 68 63
f 63 88 89
f 124 94 93
f 93 94 68
f 68 89 93
f 93 89 88
f 166 165 167
f 166 167 140
f 140 139 166
f 166 139 136
f 136 165 166
f 126 151 152
f 151 186 152
f 152 153 126
f 152 189 169
f 188 189 152
f 152 186 188
f 154 127 126
f 126 153 154
f 157 127 156
f 156 194 157
f 127 154 156
f 355 336 356
f 317 336 324
f 324 302 317
f 325 302 324
f 324 326 325
f 335 336 317
f 335 322 336
f 356 336 342
f 336 322 342
f 343 356 342
f 342 322 343
f 300 299 321
f 321 322 300
f 317 294 316
f 316 294 300
f 316 335 317
f 300 322 316
f 322 335 316
f 295 294 285
f 295 283 269
f 285 283 295
f 295 269 268
f 268 294 295
f 148 177 178
f 212 211 245
f 212 177 211
f 243 226 260
f 211 226 243
f 245 211 244
f 211 243 244
f 244 243 273
f 286 273 272
f 273 243 272
f 241 270 242
f 284 285 260
f 284 283 285
f 257 283 258
f 258 226 257
f 283 284 258
f 158 177 148
f 158 127 157
f 148 128 158
f 128 127 158
f 115 110 137
f 176 199 161
f 176 146 145
f 161 146 176
f 145 144 176
f 176 144 175
f 176 175 159
f 159 199 176
f 159 129 160
f 160 199 159
f 161 199 160
f 102 125 130
f 125 147 130
f 71 72 42
f 42 70 71
f 71 70 72
f 164 204 202
f 204 228 202
f 202 203 164
f 202 228 203
f 234 265 241
f 287 263 293
f 264 263 287
f 229 233 261
f 261 233 264
f 261 288 289
f 264 287 261
f 261 287 288
f 289 265 261
f 261 234 229
f 265 234 261
f 220 180 219
f 220 221 180
f 339 359 360
f 339 357 359
f 360 340 339
f 368 359 369
f 359 357 369
f 369 354 368
f 369 357 354
f 124 93 116
f 116 93 88
f 116 85 115
f 116 88 86
f 86 85 116
f 116 147 124
f 169 153 190
f 190 152 169
f 153 152 190
f 185 186 151
f 151 184 185
f 170 186 185
f 185 184 170
f 151 187 172
f 172 187 173
f 172 173 142
f 193 194 153
f 153 192 193
f 191 153 169
f 191 192 153
f 322 321 319
f 319 297 318
f 318 338 319
f 338 339 319
f 319 339 340
f 213 212 245
f 213 178 177
f 177 212 213
f 245 244 275
f 271 243 260
f 271 272 243
f 260 286 271
f 286 272 271
f 266 242 270
f 266 283 257
f 270 283 266
f 226 258 259
f 259 258 284
f 260 226 259
f 259 284 260
f 177 158 198
f 211 177 198
f 198 226 211
f 196 193 192
f 192 191 196
f 157 194 196
f 194 193 196
f 226 198 197
f 197 198 158
f 197 158 157
f 157 196 197
f 169 168 206
f 168 205 206
f 241 242 206
f 83 113 114
f 114 110 83
f 131 146 161
f 131 130 147
f 115 137 131
f 102 130 131
f 131 116 115
f 147 116 131
f 161 160 131
f 131 129 102
f 131 160 129
f 235 234 241
f 205 234 235
f 241 206 235
f 235 206 205
f 230 205 203
f 230 234 205
f 230 203 229
f 229 234 230
f 293 312 311
f 311 287 293
f 288 287 311
f 312 289 311
f 289 288 311
f 358 339 338
f 357 339 358
f 338 337 358
f 337 357 358
f 171 184 151
f 151 172 171
f 171 172 142
f 142 170 171
f 170 184 171
f 297 319 298
f 268 297 298
f 298 299 268
f 320 321 299
f 320 319 321
f 299 298 320
f 320 298 319
f 341 340 356
f 341 319 340
f 341 356 343
f 343 322 341
f 322 319 341
f 286 302 274
f 274 275 244
f 274 273 286
f 274 244 273
f 226 197 225
f 257 226 225
f 225 240 257
f 210 197 196
f 210 196 191
f 209 225 210
f 210 225 197
f 210 191 169
f 169 209 210
f 169 206 207
f 207 206 240
f 240 225 207
f 242 266 236
f 236 206 242
f 113 146 138
f 146 131 138
f 138 131 137
f 138 114 113
f 138 137 110
f 110 114 138
f 303 275 301
f 275 274 301
f 301 274 302
f 301 323 303
f 302 323 301
f 208 225 209
f 208 207 225
f 208 209 169
f 169 207 208
f 240 206 239
f 206 238 239
f 257 240 239
f 239 238 257
f 267 266 257
f 257 238 267
f 237 236 266
f 266 267 237
f 237 267 238
f 206 236 237
f 237 238 206
f 276 256 282
f 282 304 276
f 351 361 362
f 350 361 351
f 37 67 92
f 1 2 37
f 92 74 37
f 37 74 48
f 48 47 37
f 37 35 67
f 44 43 37
f 37 45 44
f 2 11 37
f 37 46 45
f 43 17 37
f 37 3 1
f 37 47 46
f 17 3 37
f 214 123 150
f 118 123 214
f 150 183 214
f 214 149 118
f 179 149 214
f 217 253 218
f 218 180 217
f 326 345 327
f 327 302 326
f 156 154 153
f 153 194 156
f 324 355 344
f 336 355 324
f 344 345 324
f 345 326 324
f 48 74 220
f 74 103 220
f 220 75 48
f 220 119 118
f 118 149 220
f 220 103 122
f 122 121 220
f 220 76 75
f 132 105 220
f 121 120 220
f 219 218 220
f 251 250 220
f 220 120 119
f 220 252 251
f 220 104 76
f 220 250 227
f 227 200 220
f 149 181 220
f 105 104 220
f 253 252 220
f 220 162 132
f 220 218 253
f 200 162 220
f 181 221 220
f 364 363 275
f 346 328 275
f 150 123 275
f 92 67 275
f 275 123 92
f 275 305 304
f 275 182 150
f 67 34 275
f 31 66 275
f 304 282 275
f 282 281 275
f 344 355 275
f 275 117 148
f 275 32 31
f 348 347 275
f 275 365 364
f 275 349 348
f 275 66 91
f 33 32 275
f 275 328 305
f 275 347 346
f 275 281 254
f 275 340 360
f 254 222 275
f 91 117 275
f 275 34 33
f 362 361 275
f 275 222 182
f 366 365 275
f 275 363 362
f 275 367 366
f 327 345 275
f 360 359 275
f 275 323 327
f 275 345 344
f 275 213 245
f 361 349 275
f 275 359 370
f 370 367 275
f 356 340 275
f 303 323 275
f 275 355 356
f 148 178 275
f 178 213 275

