# https://github.com/mikedh/trimesh
v -0.00161215 -0.00010677 0.03687065
v -0.00206365 -0.00010677 0.03664966
v -0.00161215 -0.00066076 0.03682874
v -0.00105474 -0.00121476 0.03685541
v 0.00115817 -0.00121476 0.03684779
v 0.00171000 -0.00010677 0.03684779
v 0.00115817 0.00100122 0.03685160
v -0.00050570 0.00155521 0.03685160
v -0.00161215 0.00044723 0.03685922
v -0.00648947 0.00811144 0.03332710
v -0.00645882 0.00764914 0.03331186
v -0.00642537 0.00709515 0.03327756
v -0.00477266 -0.00565052 0.03328899
v -0.00420967 -0.01008247 0.03328137
v -0.00417344 -0.01063647 0.03323565
v -0.00201627 -0.00066076 0.03660775
v -0.00204136 0.00044723 0.03664204
v -0.00688802 0.01023190 0.03313277
v -0.00688802 0.01004087 0.03313277
v -0.00386687 -0.01173299 0.03330043
v -0.00327323 -0.01174445 0.03355952
v -0.00050570 -0.00177257 0.03679445
v 0.00005171 -0.00177257 0.03682874
v 0.01372215 -0.00417193 0.03353666
v 0.00171000 -0.00066076 0.03679445
v 0.00614419 -0.01063647 0.03352523
v 0.00669881 -0.01008247 0.03356714
v 0.00836267 -0.00897449 0.03354047
v 0.01372215 -0.00398472 0.03355571
v 0.01372215 -0.00361794 0.03358239
v 0.01372215 -0.00010677 0.03358239
v 0.01372215 0.00044723 0.03356714
v 0.00171000 0.00044723 0.03682112
v 0.01372215 0.00100122 0.03347570
v 0.00118325 0.00158960 0.03668776
v 0.00060355 0.00155521 0.03684779
v -0.00105474 0.00155521 0.03677159
v 0.00005171 0.00204043 0.03665728
v -0.00604355 0.00986894 0.03341473
v -0.00638914 0.00654498 0.03323184
v -0.00473643 -0.00620452 0.03324708
v -0.00413721 -0.01119046 0.03317850
v -0.00470019 -0.00675851 0.03319374
v -0.00660096 0.01029685 0.03318612
v -0.00747609 0.01244023 0.03204684
v -0.01021017 0.02016558 0.02758501
v -0.01021017 0.02003949 0.02758501
v -0.00852680 0.01466767 0.03031317
v -0.00686294 0.00967026 0.03308705
v -0.00633061 0.00564712 0.03313277
v -0.00635291 0.00599098 0.03317469
v -0.00411492 -0.01153814 0.03313658
v -0.00407590 -0.01190874 0.03304133
v -0.00370522 -0.01210742 0.03325089
v -0.00327323 -0.01218383 0.03332710
v -0.00161215 -0.01230227 0.03343760
v -0.00105474 -0.01230227 0.03346427
v -0.00050570 -0.01230227 0.03348713
v 0.00060355 -0.01230227 0.03352142
v 0.00337387 -0.01174445 0.03355190
v 0.01335147 -0.00453872 0.03352523
v 0.01279685 -0.00509271 0.03350618
v 0.01372215 -0.00453108 0.03338425
v 0.00503773 -0.01119046 0.03350237
v 0.00614419 -0.01104528 0.03329281
v 0.00669044 -0.01064793 0.03334615
v 0.00780805 -0.00952848 0.03349475
v 0.00890614 -0.00897067 0.03333853
v 0.00946913 -0.00842813 0.03335758
v 0.01372215 0.00151701 0.03325851
v 0.01335147 0.00155521 0.03339568
v 0.00060355 0.00199841 0.03664204
v -0.00604355 0.01026246 0.03318993
v -0.00660096 0.01097692 0.03285081
v -0.00660096 0.01057576 0.03306419
v -0.00467511 -0.00715586 0.03314802
v -0.00798890 0.01458361 0.03089995
v -0.00912880 0.01741089 0.02926534
v -0.01027985 0.02130795 0.02706682
v -0.01033838 0.02095263 0.02715826
v -0.01076480 0.02133469 0.02648765
v -0.01018788 0.01966889 0.02753548
v -0.01076480 0.02115512 0.02648765
v -0.01028821 0.01984846 0.02732972
v -0.00682949 0.00811144 0.03264887
v -0.00696606 0.00986130 0.03287749
v -0.00640586 0.00545227 0.03286986
v -0.00465003 -0.00752646 0.03309467
v -0.00427378 -0.01119046 0.03283557
v -0.00447723 -0.01119046 0.03228308
v -0.00488414 -0.01119046 0.03117429
v -0.00519071 -0.01131272 0.03029031
v -0.00413721 -0.01205011 0.03267554
v -0.00526039 -0.01152286 0.02992071
v -0.00386687 -0.01213416 0.03285081
v -0.00327323 -0.01232901 0.03283557
v -0.00200234 -0.01259646 0.03316707
v -0.00161215 -0.01261556 0.03320517
v -0.00105474 -0.01262702 0.03323184
v -0.00050570 -0.01264231 0.03325470
v 0.00005171 -0.01265377 0.03327375
v 0.00060355 -0.01266523 0.03328899
v 0.00115817 -0.01230227 0.03349094
v 0.00337387 -0.01216090 0.03331948
v 0.00392849 -0.01174445 0.03346046
v 0.01372215 -0.00468390 0.03331186
v 0.00503773 -0.01157252 0.03326994
v 0.00649814 -0.01096122 0.03320517
v 0.00712522 -0.01047218 0.03325089
v 0.00832365 -0.00951320 0.03329662
v 0.00928797 -0.00878345 0.03323184
v 0.00871105 -0.00931452 0.03321660
v 0.01372215 0.00174242 0.03315564
v 0.01365248 0.00185704 0.03312896
v 0.01335147 0.00192581 0.03317850
v 0.01168761 0.00256386 0.03323184
v -0.00493431 0.00974668 0.03321660
v -0.00604355 0.01053755 0.03301084
v -0.00760151 0.01450720 0.03085042
v -0.00797218 0.01458361 0.03089995
v -0.00660096 0.01135899 0.03262601
v -0.01001787 0.02130795 0.02706682
v -0.00992311 0.02191161 0.02659053
v -0.01037182 0.02186958 0.02656767
v -0.01051118 0.02150662 0.02671246
v -0.01133614 0.02127356 0.02487591
v -0.01073971 0.02170147 0.02630476
v -0.01133335 0.02095263 0.02486829
v -0.01123302 0.02095263 0.02514263
v -0.01068118 0.01984464 0.02625904
v -0.00617733 -0.01063647 0.02785173
v -0.01428762 0.01762485 0.01566266
v -0.00459429 -0.00842049 0.03293464
v -0.00474200 -0.01062501 0.03176107
v -0.00640029 -0.01063647 0.02723447
v -0.00799448 -0.00981885 0.02316128
v -0.00636127 -0.01096122 0.02712778
v -0.00415951 -0.01206157 0.03228308
v -0.00531613 -0.01156488 0.02951301
v -0.00538023 -0.01157635 0.02895671
v -0.00382785 -0.01216855 0.03228308
v -0.00272139 -0.01245127 0.02080653
v -0.00232563 -0.01255443 0.02080653
v -0.00272139 -0.01246656 0.03283557
v -0.00205808 -0.01260792 0.03283557
v -0.00161215 -0.01265377 0.03283557
v -0.00233400 -0.01255825 0.03283557
v 0.00060355 -0.01276075 0.03283557
v 0.00115817 -0.01264995 0.03325851
v 0.00159573 -0.01260792 0.03318612
v 0.00392849 -0.01208831 0.03322803
v 0.01372215 -0.00480616 0.03322041
v 0.00422670 -0.01203482 0.03314039
v 0.00537217 -0.01149611 0.03317469
v 0.00614419 -0.01117518 0.03283557
v 0.00653716 -0.01098415 0.03283557
v 0.00681029 -0.01080457 0.03283557
v 0.00811462 -0.00983031 0.03315945
v 0.01368313 -0.00486729 0.03319755
v 0.00874728 -0.00934509 0.03283557
v 0.00902320 -0.00910057 0.03283557
v 0.01253487 -0.00593707 0.03314039
v 0.01310900 -0.00540218 0.03317088
v 0.01372215 0.00230406 0.03270983
v 0.01371936 0.02577428 0.01619991
v 0.01252930 0.00572736 0.03090757
v 0.01085150 0.01069802 0.02812607
v 0.00878630 0.01575273 0.02539791
v 0.00558956 0.02467776 0.02044837
v 0.00670995 0.00596424 0.03240882
v -0.00276041 0.00926527 0.03291940
v -0.00160936 0.01713580 0.02743260
v -0.00936849 0.01984464 0.02784792
v -0.00936849 0.02116658 0.02697918
v -0.00845991 0.02236627 0.02593135
v -0.00936849 0.02185812 0.02651814
v -0.00987016 0.02149898 0.02689535
v -0.00881387 0.02240065 0.02597327
v -0.00797218 0.02289352 0.02535600
v -0.00798890 0.02289352 0.02535600
v -0.00924028 0.02239301 0.02597708
v -0.00992311 0.02210646 0.02618664
v -0.01052511 0.02188869 0.02614854
v -0.01139467 0.02132705 0.02452155
v -0.01245653 0.02072339 0.02158383
v -0.01245932 0.02039863 0.02159145
v -0.01075643 0.02178553 0.02593516
v -0.01236177 0.02039863 0.02186960
v -0.01220291 0.02039863 0.02230778
v -0.00801677 -0.00952848 0.02322225
v -0.01361315 0.00932258 0.01458816
v -0.00904798 -0.00840903 0.02080653
v -0.01442976 0.01873665 0.01566266
v -0.01465829 0.01829346 0.01488537
v -0.00879993 -0.00897449 0.02119899
v -0.00858812 -0.00931834 0.02161431
v -0.00803071 -0.00986088 0.02286408
v -0.00744264 -0.01037284 0.02429294
v -0.00640865 -0.01099561 0.02674294
v -0.00542482 -0.01157635 0.02840422
v -0.00493431 -0.01177502 0.02951301
v -0.00493431 -0.01178648 0.02895671
v -0.00493431 -0.01178648 0.02230778
v -0.00478659 -0.01183615 0.02080653
v -0.00442428 -0.01195459 0.02080653
v -0.00571746 -0.01143498 0.02785173
v -0.00422918 -0.01201190 0.02080653
v -0.00715558 0.00811144 0.00699047
v -0.00213054 -0.01259264 0.02080653
v -0.00660096 0.00811144 0.00689522
v 0.01371936 0.01567632 -0.00125877
v -0.00204972 -0.01260792 0.02080653
v -0.00192151 -0.01262320 0.02080653
v -0.00161215 -0.01265377 0.02080653
v 0.00060355 -0.01276075 0.02080653
v 0.00115817 -0.01271872 0.03283557
v 0.00167656 -0.01262320 0.03283557
v 0.00337387 -0.01230227 0.03283557
v 0.01372215 -0.00484055 0.03315564
v 0.00392849 -0.01214944 0.03283557
v 0.00423785 -0.01203864 0.03283557
v 0.00568154 -0.01138531 0.03283557
v 0.00614419 -0.01117518 0.02080653
v 0.00581810 -0.01132418 0.02080653
v 0.00653716 -0.01098415 0.02080653
v 0.00681029 -0.01080457 0.02080653
v 0.00780805 -0.01010540 0.02080653
v 0.00815085 -0.00986088 0.02175529
v 0.00720047 -0.01052567 0.03283557
v 0.00780805 -0.01007865 0.03283557
v 0.00812856 -0.00983795 0.03283557
v 0.00840726 -0.00962400 0.03283557
v 0.01372215 -0.00521879 0.02080653
v 0.00961126 -0.00857332 0.03283557
v 0.01372215 -0.00488257 0.03283557
v 0.01372215 0.00811144 0.02778696
v 0.01371936 0.02588890 0.01610465
v 0.00593237 0.02459752 0.02039121
v 0.00646748 0.02349718 0.02095132
v 0.00745688 0.02064316 0.02254783
v 0.00614419 0.02358123 0.02100848
v 0.00558956 0.02495284 0.02020451
v 0.00503494 0.02477327 0.02052457
v 0.00206953 0.02457842 0.02149619
v -0.00241482 0.02400914 0.02314223
v -0.00476987 0.02339784 0.02421292
v 0.00115538 0.02408938 0.02208679
v -0.00692147 0.02176261 0.02589706
v -0.00884731 0.02152191 0.02659815
v -0.00808924 0.02228986 0.02587801
v -0.00513776 0.02346661 0.02426626
v -0.00759872 0.02286295 0.02532171
v -0.00548893 0.02349336 0.02430056
v -0.00604355 0.02348190 0.02430056
v -0.00634176 0.02345133 0.02426245
v -0.00715279 0.02319917 0.02452155
v -0.00770741 0.02302342 0.02452155
v -0.00800562 0.02290116 0.02507785
v -0.00828433 0.02280564 0.02507785
v -0.00930996 0.02242358 0.02563034
v -0.00958867 0.02231278 0.02563034
v -0.00992311 0.02216377 0.02563034
v -0.01250391 0.02076160 0.02119518
v -0.01353790 0.02013119 0.01820412
v -0.01412597 0.01962686 0.01662285
v -0.01413433 0.01929065 0.01664190
v -0.01075922 0.02178553 0.02396525
v -0.01103514 0.02164035 0.02396525
v -0.01154795 0.02136144 0.02286027
v -0.01182666 0.02120097 0.02230778
v -0.01254850 0.02078070 0.02064269
v -0.01047773 0.02191925 0.01953390
v -0.01403678 0.01929065 0.01692005
v -0.01354905 0.00811144 0.01433669
v -0.01415384 0.01319290 0.01447005
v -0.00904519 -0.00842049 0.02080653
v -0.01458304 0.01873665 0.01517114
v -0.01473912 0.01813681 0.01460340
v -0.01468059 0.01707467 0.01439384
v -0.00890026 -0.00895920 0.02080653
v -0.00863828 -0.00936037 0.02119899
v -0.00807251 -0.00989144 0.02230778
v -0.00745658 -0.01038048 0.02396906
v -0.00644767 -0.01100707 0.02618664
v -0.00571746 -0.01144644 0.02729543
v -0.00543876 -0.01157635 0.02785173
v -0.00543876 -0.01157635 0.02452536
v -0.00528269 -0.01163748 0.02080653
v -0.00493431 -0.01178266 0.02080653
v -0.00646718 -0.01100707 0.02563415
v -0.00731444 0.00811144 0.00704001
v 0.01364411 0.01684543 -0.00179602
v 0.01246798 0.01621503 -0.00126258
v 0.01371936 0.01649012 -0.00171219
v 0.01371936 0.01596287 -0.00144928
v 0.01371936 0.00811144 0.00590836
v 0.00514364 -0.01162983 0.02080653
v 0.00443294 -0.01195077 0.02080653
v 0.00423785 -0.01203864 0.02080653
v 0.00401767 -0.01211888 0.02080653
v 0.00392849 -0.01214944 0.02080653
v 0.00337387 -0.01230227 0.02080653
v 0.00187165 -0.01258882 0.02080653
v 0.00130867 -0.01269197 0.02080653
v 0.00115817 -0.01271872 0.02080653
v 0.00815085 -0.00986088 0.02080653
v 0.00814807 -0.00985706 0.02341657
v 0.01371936 0.01680341 -0.00180364
v 0.01371936 0.01691421 -0.00183031
v 0.01371936 0.01819030 -0.00200939
v 0.01371936 0.01873665 -0.00205512
v 0.01372215 -0.00323588 0.02080653
v 0.01372215 0.00811144 0.02580942
v 0.01371936 0.02627097 0.01510636
v 0.01371936 0.02626333 0.01529687
v 0.01371936 0.02624422 0.01551406
v 0.01371936 0.02623658 0.01557884
v 0.01371936 0.02616399 0.01576173
v 0.01371936 0.02607229 0.01592176
v 0.00594909 0.02515916 0.01988064
v 0.00171000 0.02460517 0.02153430
v -0.00272139 0.02403207 0.02318034
v -0.00327323 0.02402825 0.02318034
v -0.00357423 0.02400532 0.02314985
v -0.00662883 0.02337492 0.02396525
v -0.00493431 0.02374170 0.02341276
v -0.00604355 0.02351628 0.02396525
v -0.00635291 0.02345515 0.02396525
v -0.00715279 0.02321445 0.02396525
v -0.00805858 0.02292026 0.01953390
v -0.00881387 0.02262225 0.02507785
v -0.00930439 0.02243122 0.02507785
v -0.00958588 0.02231278 0.01786881
v -0.00992311 0.02217141 0.01786881
v -0.01354626 0.02013883 0.01786881
v -0.01417614 0.01966507 0.01621134
v -0.01463878 0.01901938 0.01485488
v -0.01426532 0.01929065 0.01621134
v -0.01075922 0.02178553 0.01786881
v -0.01103514 0.02164035 0.01786881
v -0.01183223 0.02121243 0.01786881
v -0.01155074 0.02136144 0.02230778
v -0.01214160 0.02103668 0.02064269
v -0.01257359 0.02078070 0.02008639
v -0.01047773 0.02191925 0.01786881
v -0.01354905 0.00811144 0.01419190
v -0.01465272 0.01665822 0.01432144
v -0.01409252 0.01226830 0.01430620
v -0.01465272 0.01873665 0.01489299
v -0.01475026 0.01818266 0.01404710
v -0.01471403 0.01762485 0.01449291
v -0.01470010 0.01874430 0.01459959
v -0.01468059 0.01707467 0.01412712
v -0.00865779 -0.00936801 0.02080653
v -0.00808088 -0.00989144 0.02175529
v -0.00774086 -0.01016653 0.02230778
v -0.00857418 -0.00944825 0.02080653
v -0.00746215 -0.01038048 0.02341657
v -0.00715279 -0.01057916 0.02396906
v -0.00604355 -0.01125923 0.02618664
v -0.00571746 -0.01144644 0.02507785
v -0.00542482 -0.01157635 0.02119899
v -0.00542204 -0.01157635 0.02080653
v -0.00646996 -0.01100707 0.02507785
v -0.00674867 -0.01083514 0.02452536
v -0.00550286 -0.01153432 0.02080653
v -0.00570074 -0.01143116 0.02080653
v -0.00741198 0.00811144 0.00707811
v -0.00743149 0.01402198 0.00595789
v -0.00132230 0.01460272 0.00374412
v 0.00596860 0.01596287 0.00100453
v 0.00694685 0.01783116 0.00040632
v 0.01057837 0.01818266 -0.00090823
v 0.01305605 0.01841572 -0.00180364
v 0.00098258 0.01652068 0.00266962
v 0.00247644 0.01718929 0.00205617
v 0.01371936 0.01884363 -0.00203226
v 0.01013523 0.01818266 -0.00075200
v 0.00694685 0.01792668 0.00040632
v 0.01306998 0.01901556 -0.00180364
v 0.01371936 0.01913018 -0.00192938
v 0.01371936 0.01940909 -0.00152168
v 0.01371936 0.01947404 -0.00141118
v 0.01371936 0.02009298 -0.00031382
v 0.01371936 0.02624804 0.01134181
v 0.01371936 0.02627097 0.01178380
v 0.00036386 0.02455168 0.02119518
v 0.00558956 0.02522411 0.01953390
v 0.01352706 0.02623276 0.01549501
v 0.00558956 0.02516680 0.01992255
v 0.00115538 0.02460134 0.02156097
v 0.00072060 0.02457460 0.02152668
v -0.00160936 0.02428041 0.02230778
v -0.00327323 0.02406263 0.02286027
v -0.00358538 0.02400914 0.02286027
v -0.00662883 0.02337492 0.02230778
v -0.00715279 0.02321827 0.01953390
v -0.00362161 0.02401679 0.02119518
v -0.00437968 0.02388688 0.01897760
v -0.00437968 0.02389071 0.01842511
v -0.00493431 0.02377608 0.01842511
v -0.00635291 0.02345515 0.02119518
v -0.00770741 0.02303870 0.01953390
v -0.00803907 0.02291262 0.01897760
v -0.00881387 0.02262989 0.01842511
v -0.00930996 0.02242358 0.01786881
v -0.00923471 0.02239301 0.01749159
v -0.01075643 0.02178553 0.01759066
v -0.01354905 0.02013883 0.01732013
v -0.01415384 0.01963069 0.01566266
v -0.01463878 0.01901938 0.01482059
v -0.01355184 0.02013501 0.01676764
v -0.01375808 0.01997072 0.01621134
v -0.01182945 0.02121243 0.01732013
v -0.01214160 0.02103668 0.01732013
v -0.01257916 0.02077688 0.01897760
v -0.01285508 0.02059731 0.01842511
v -0.01355462 0.00820696 0.01417284
v -0.00857418 0.01386915 0.00647228
v -0.00749560 0.00811144 0.00717337
v -0.01409252 0.01226830 0.01422238
v -0.01465272 0.01665822 0.01420714
v -0.01411761 0.01263890 0.01414617
v -0.01471403 0.01762485 0.01405854
v -0.01471961 0.01856090 0.01412712
v -0.00869402 0.01596287 0.00633511
v -0.00868845 0.01540887 0.00633892
v -0.01415384 0.01319290 0.01406997
v -0.01359086 0.00876095 0.01408521
v -0.00808088 -0.00989144 0.02119899
v -0.00798333 -0.00997167 0.02080653
v -0.00774086 -0.01016653 0.02080653
v -0.00754298 -0.01031935 0.02080653
v -0.00835679 -0.00964310 0.02080653
v -0.00746215 -0.01038048 0.02080653
v -0.00715279 -0.01057916 0.02080653
v -0.00703295 -0.01065557 0.02080653
v -0.00604355 -0.01125923 0.02452536
v -0.00594321 -0.01129744 0.02080653
v -0.00646996 -0.01100707 0.02341657
v -0.00674867 -0.01083514 0.02396906
v -0.00604355 -0.01124013 0.02080653
v -0.00646439 -0.01099561 0.02080653
v -0.00674031 -0.01083514 0.02080653
v -0.00807809 -0.00989144 0.02080653
v -0.00825925 0.01430471 0.00622842
v -0.00776594 0.01430471 0.00603791
v -0.00802235 0.01559226 0.00594646
v -0.00646996 0.01596287 0.00535206
v -0.00613831 0.01430471 0.00546637
v 0.00226184 0.01596287 0.00230003
v 0.00086553 0.01730009 0.00263152
v 0.00086553 0.01735358 0.00263152
v 0.01220321 0.01919131 -0.00101491
v 0.01334869 0.01928301 -0.00152168
v -0.00358259 0.01681487 0.00428518
v -0.00803907 0.01626852 0.00593884
v 0.00861908 0.01846539 -0.00014617
v 0.01365526 0.01955809 -0.00122829
v -0.00679884 0.01677284 0.00600361
v -0.00996492 0.02141493 0.01616181
v -0.00919569 0.02181992 0.01642853
v 0.00964471 0.02569405 0.01257253
v 0.01352706 0.02623276 0.01144469
v 0.00558956 0.02522411 0.01455006
v 0.00392570 0.02501015 0.01566266
v -0.00160936 0.02429569 0.01732013
v -0.00216677 0.02422310 0.02230778
v 0.00115538 0.02465101 0.02119518
v 0.00452770 0.02507128 0.02004829
v -0.00272139 0.02415051 0.02230778
v -0.00327323 0.02407027 0.02230778
v -0.00662604 0.02337492 0.01953390
v -0.00634455 0.02345515 0.01897760
v -0.00633340 0.02345133 0.01868802
v -0.00327323 0.02407410 0.02175148
v -0.00391703 0.02397094 0.01953390
v -0.00391703 0.02397094 0.01842511
v -0.00363276 0.02401679 0.01786881
v -0.00359374 0.02400914 0.01756399
v -0.00604355 0.02352392 0.01897760
v -0.00881387 0.02261461 0.01786881
v -0.00992311 0.02185048 0.01692005
v -0.01024362 0.02179699 0.01701912
v -0.01103793 0.02137672 0.01674097
v -0.01248719 0.02070811 0.01642853
v -0.01146992 0.02130413 0.01690862
v -0.00299174 0.02399768 0.01704960
v 0.00521053 0.02513623 0.01421857
v -0.01155353 0.02134998 0.01732013
v -0.01349610 0.02011209 0.01602464
v -0.01409810 0.01957720 0.01536927
v -0.01435729 0.01894297 0.01442432
v -0.01354069 0.02013119 0.01639423
v -0.01324805 0.02033368 0.01676764
v -0.01254850 0.02075013 0.01676764
v -0.01282442 0.02059349 0.01676764
v -0.01257359 0.02077688 0.01732013
v -0.01257637 0.02077688 0.01786881
v -0.00861320 0.01430471 0.00643036
v -0.00825925 0.01485870 0.00614459
v -0.00865222 0.01485870 0.00638464
v -0.00863271 0.01631819 0.00640750
v -0.00833171 0.01596287 0.00606077
v -0.00822859 0.01540887 0.00604934
v -0.00805301 0.01596287 0.00593503
v -0.00770741 0.01596287 0.00580548
v -0.00715279 0.01596287 0.00559972
v 0.00417653 0.01791522 0.00151511
v -0.00823974 0.01638696 0.00622842
v -0.00469741 0.01681105 0.00483767
v -0.00026601 0.01736122 0.00317639
v -0.00715279 0.01671171 0.00611411
v -0.00830941 0.01670025 0.00678472
v -0.00815612 0.01685690 0.00696380
v -0.01312821 0.02017322 0.01584174
v 0.00078192 0.02457460 0.01589890
v 0.00068716 0.02458606 0.01621134
v 0.00474230 0.02511331 0.01481297
v -0.00216677 0.02421546 0.01732013
v -0.00327323 0.02407410 0.01786881
v -0.00272139 0.02415051 0.01786881
v -0.00364112 0.02401679 0.01953390
v -0.00364112 0.02401679 0.01842511
v -0.01214160 0.02076924 0.01631803
v -0.01214160 0.02095263 0.01676764
v -0.01404236 0.01899646 0.01429858
v -0.00852680 0.01679195 0.00707430
f 385 313 384
f 312 233 311
f 114 113 165
f 313 312 381
f 386 313 385
f 385 384 463
f 384 407 463
f 368 420 419
f 419 420 346
f 368 369 291
f 233 296 211
f 215 214 211
f 160 228 233
f 114 165 166
f 164 165 113
f 313 381 382
f 377 312 311
f 377 381 312
f 407 480 488
f 401 480 475
f 407 408 333
f 509 458 457
f 454 458 509
f 462 407 384
f 384 461 462
f 426 503 457
f 143 208 210
f 210 211 143
f 306 296 233
f 306 227 296
f 233 228 306
f 228 227 306
f 237 164 236
f 165 164 237
f 238 165 237
f 317 318 236
f 122 120 173
f 71 113 114
f 193 132 189
f 346 420 354
f 354 420 368
f 423 353 429
f 424 353 350
f 350 353 279
f 279 274 275
f 347 274 279
f 422 353 423
f 346 421 422
f 422 423 346
f 80 46 79
f 81 46 80
f 8 38 39
f 173 120 119
f 132 85 130
f 131 85 132
f 380 458 454
f 380 382 381
f 381 377 380
f 380 377 311
f 311 379 380
f 457 458 380
f 380 456 457
f 465 466 386
f 520 518 480
f 480 518 517
f 517 488 480
f 185 263 264
f 482 480 407
f 482 475 480
f 457 511 512
f 512 509 457
f 407 462 483
f 483 462 461
f 487 408 407
f 446 369 368
f 368 419 446
f 448 449 369
f 505 506 448
f 372 379 311
f 370 291 369
f 369 371 370
f 450 371 369
f 369 449 450
f 449 375 450
f 204 208 205
f 208 207 205
f 142 207 208
f 208 143 142
f 311 233 310
f 310 374 311
f 310 371 375
f 294 308 233
f 293 294 208
f 302 303 211
f 215 211 305
f 296 227 226
f 226 225 296
f 300 211 299
f 223 211 296
f 296 225 223
f 239 165 238
f 238 240 239
f 239 240 165
f 167 240 238
f 167 166 165
f 165 240 167
f 236 318 319
f 319 237 236
f 315 236 314
f 33 32 34
f 273 193 189
f 266 193 273
f 275 274 191
f 191 131 132
f 191 274 192
f 192 131 191
f 348 274 347
f 346 354 280
f 280 274 346
f 346 423 418
f 423 429 418
f 418 419 346
f 418 429 419
f 428 429 353
f 353 424 428
f 428 502 429
f 424 502 428
f 132 193 194
f 194 279 275
f 278 279 194
f 275 191 194
f 194 191 132
f 351 278 350
f 350 279 351
f 351 279 278
f 8 9 1
f 78 77 79
f 79 46 78
f 120 77 74
f 37 9 8
f 8 39 37
f 172 169 173
f 173 119 172
f 19 12 11
f 189 132 129
f 132 130 129
f 49 86 85
f 84 130 85
f 87 49 85
f 85 131 87
f 87 131 134
f 190 131 192
f 135 131 190
f 134 131 90
f 89 133 90
f 90 52 89
f 133 87 90
f 90 87 134
f 92 131 135
f 6 32 33
f 6 1 5
f 5 26 27
f 383 459 384
f 383 384 313
f 313 382 383
f 383 382 454
f 454 459 383
f 454 382 455
f 455 380 454
f 382 380 455
f 464 517 518
f 464 386 385
f 464 465 386
f 385 463 464
f 518 520 467
f 466 465 467
f 488 517 489
f 489 463 407
f 407 488 489
f 489 464 463
f 517 464 489
f 471 476 472
f 472 398 395
f 476 398 472
f 495 498 497
f 186 185 266
f 266 273 186
f 265 185 264
f 266 185 265
f 334 333 408
f 407 483 484
f 485 483 461
f 485 484 483
f 407 484 485
f 369 446 447
f 447 446 505
f 447 448 369
f 505 448 447
f 501 446 419
f 505 446 501
f 504 506 505
f 504 426 457
f 457 506 504
f 449 448 508
f 500 502 505
f 500 501 419
f 505 501 500
f 419 429 500
f 429 502 500
f 427 424 350
f 427 502 424
f 350 426 427
f 426 504 427
f 505 502 427
f 427 504 505
f 376 375 449
f 449 372 376
f 376 310 375
f 372 310 376
f 311 374 378
f 378 372 311
f 375 371 451
f 451 450 375
f 371 450 451
f 213 211 214
f 213 212 211
f 209 143 211
f 211 212 209
f 20 52 53
f 52 92 53
f 233 308 309
f 309 310 233
f 374 310 373
f 373 310 372
f 373 378 374
f 372 378 373
f 233 211 295
f 295 294 233
f 208 294 295
f 210 208 295
f 295 211 210
f 301 211 300
f 301 302 211
f 211 303 304
f 304 305 211
f 222 155 153
f 233 235 234
f 234 235 162
f 238 169 241
f 241 167 238
f 169 167 241
f 316 317 236
f 236 315 316
f 388 315 314
f 388 390 317
f 317 316 388
f 175 246 251
f 169 246 247
f 79 124 125
f 125 80 79
f 81 80 125
f 263 185 187
f 187 272 267
f 79 122 123
f 123 124 79
f 123 175 178
f 181 124 123
f 123 180 181
f 333 332 405
f 332 331 405
f 113 71 70
f 71 34 70
f 35 71 72
f 35 34 71
f 350 278 352
f 486 485 525
f 486 487 407
f 407 485 486
f 192 274 276
f 274 280 276
f 77 78 45
f 45 78 46
f 116 117 72
f 169 172 116
f 73 39 72
f 72 117 73
f 73 74 39
f 73 119 120
f 9 37 18
f 17 9 18
f 18 45 46
f 41 14 12
f 85 86 48
f 48 84 85
f 86 49 48
f 48 49 19
f 19 47 48
f 83 129 130
f 130 84 83
f 91 90 131
f 131 92 91
f 52 90 91
f 91 92 52
f 32 6 31
f 31 6 30
f 30 6 29
f 25 5 24
f 25 6 5
f 24 29 25
f 25 29 6
f 106 68 111
f 28 27 26
f 24 5 28
f 5 27 28
f 5 1 4
f 4 21 22
f 220 301 300
f 303 302 218
f 218 151 150
f 153 151 218
f 218 220 153
f 59 60 23
f 22 21 23
f 5 4 23
f 23 4 22
f 23 26 5
f 23 60 26
f 150 151 104
f 151 105 104
f 104 105 60
f 519 464 518
f 465 464 519
f 518 467 519
f 519 467 465
f 395 398 326
f 416 499 417
f 344 416 417
f 417 499 498
f 417 498 495
f 340 414 341
f 340 339 408
f 408 414 340
f 496 414 490
f 408 487 490
f 490 414 408
f 188 273 189
f 188 186 273
f 186 188 128
f 129 83 128
f 189 129 128
f 128 188 189
f 266 265 338
f 338 265 337
f 264 335 336
f 336 265 264
f 337 265 336
f 272 334 345
f 408 339 345
f 345 334 408
f 527 528 510
f 528 514 510
f 457 503 510
f 510 511 457
f 507 448 506
f 507 508 448
f 452 372 449
f 449 508 452
f 146 213 214
f 147 209 212
f 143 209 147
f 371 310 292
f 310 309 292
f 292 370 371
f 291 370 292
f 208 291 292
f 292 293 208
f 292 309 308
f 308 294 292
f 294 293 292
f 298 299 211
f 211 297 298
f 211 223 224
f 224 297 211
f 223 155 224
f 155 222 224
f 224 222 297
f 161 160 233
f 233 234 161
f 161 234 162
f 395 326 324
f 324 326 255
f 242 169 238
f 245 246 169
f 169 244 245
f 251 246 245
f 387 388 314
f 314 386 387
f 386 466 387
f 466 467 387
f 389 316 315
f 315 388 389
f 389 388 316
f 174 122 173
f 174 175 122
f 81 125 127
f 127 125 124
f 263 187 271
f 264 263 271
f 271 335 264
f 344 335 271
f 270 187 269
f 344 271 270
f 270 271 187
f 183 127 124
f 187 127 183
f 252 175 251
f 178 175 252
f 255 180 254
f 254 324 255
f 323 324 254
f 122 175 176
f 175 123 176
f 333 405 406
f 406 405 482
f 407 333 406
f 406 482 407
f 482 405 404
f 475 482 404
f 403 397 404
f 404 397 475
f 330 405 331
f 331 257 330
f 403 404 330
f 330 404 405
f 401 481 402
f 33 34 7
f 34 35 7
f 7 6 33
f 8 1 7
f 1 6 7
f 350 352 425
f 425 426 350
f 503 426 425
f 136 190 192
f 135 190 136
f 136 92 135
f 136 137 92
f 357 354 368
f 368 432 431
f 431 445 368
f 2 9 17
f 2 1 9
f 2 18 19
f 17 18 2
f 2 11 12
f 14 41 15
f 15 2 14
f 16 2 15
f 75 74 77
f 77 45 75
f 39 74 75
f 115 116 72
f 115 71 114
f 72 71 115
f 114 166 115
f 166 167 115
f 169 116 115
f 119 117 171
f 117 116 171
f 170 172 119
f 170 116 172
f 119 171 170
f 170 171 116
f 120 74 121
f 121 73 120
f 74 73 121
f 118 117 119
f 119 73 118
f 118 73 117
f 44 37 39
f 44 18 37
f 39 75 44
f 45 18 44
f 44 75 45
f 50 76 51
f 50 51 19
f 19 49 50
f 49 87 50
f 40 41 12
f 40 12 19
f 19 51 40
f 40 15 41
f 82 48 47
f 84 48 82
f 47 83 82
f 82 83 84
f 94 53 92
f 92 137 94
f 162 235 219
f 112 111 68
f 160 161 112
f 112 161 162
f 159 111 112
f 153 155 154
f 155 108 154
f 156 108 155
f 24 62 63
f 24 28 61
f 61 62 24
f 28 62 61
f 20 53 54
f 54 21 20
f 21 4 3
f 3 16 20
f 20 21 3
f 3 4 1
f 1 2 3
f 3 2 16
f 300 299 221
f 221 220 300
f 153 220 221
f 221 222 153
f 299 298 221
f 297 222 221
f 221 298 297
f 216 304 303
f 305 304 216
f 59 23 58
f 58 23 21
f 58 102 59
f 65 66 26
f 108 66 65
f 103 60 59
f 103 104 60
f 59 102 103
f 477 400 398
f 477 398 476
f 476 523 477
f 479 480 401
f 401 400 479
f 328 400 401
f 401 402 328
f 398 400 399
f 399 326 398
f 400 328 399
f 399 328 326
f 415 499 416
f 415 416 344
f 341 414 415
f 498 499 415
f 415 497 498
f 496 497 415
f 415 414 496
f 409 336 335
f 409 335 344
f 344 417 409
f 269 187 268
f 268 342 269
f 268 187 267
f 341 342 268
f 268 340 341
f 496 490 526
f 526 490 487
f 526 486 496
f 487 486 526
f 277 338 337
f 278 194 277
f 277 194 193
f 277 193 266
f 266 338 277
f 493 492 527
f 527 510 493
f 493 510 503
f 503 425 493
f 527 492 516
f 516 486 525
f 516 492 486
f 516 485 461
f 525 485 516
f 491 497 496
f 496 486 491
f 486 492 491
f 337 336 411
f 492 493 411
f 411 493 425
f 411 352 337
f 411 425 352
f 515 514 528
f 515 516 461
f 515 528 527
f 527 516 515
f 511 510 460
f 514 515 460
f 460 512 511
f 460 459 454
f 454 509 460
f 509 512 460
f 384 459 460
f 460 461 384
f 460 515 461
f 453 380 379
f 456 380 453
f 457 456 453
f 453 506 457
f 453 507 506
f 508 507 453
f 453 452 508
f 98 146 148
f 97 146 98
f 145 147 212
f 212 213 145
f 213 146 145
f 145 146 97
f 97 147 145
f 96 54 95
f 97 54 96
f 96 142 143
f 394 472 395
f 395 324 394
f 471 472 394
f 243 244 169
f 169 242 243
f 243 242 244
f 244 242 320
f 320 319 318
f 237 319 320
f 318 317 320
f 317 390 320
f 238 237 320
f 320 242 238
f 251 245 322
f 322 245 244
f 468 387 467
f 522 471 468
f 468 467 522
f 388 387 468
f 471 394 468
f 390 388 470
f 388 392 470
f 393 324 323
f 323 392 393
f 393 394 324
f 393 468 394
f 246 175 250
f 175 174 250
f 248 247 246
f 169 247 248
f 173 169 248
f 248 174 173
f 81 127 126
f 126 83 81
f 126 128 83
f 185 186 126
f 186 128 126
f 184 187 185
f 184 127 187
f 185 126 184
f 184 126 127
f 182 124 181
f 182 183 124
f 181 180 260
f 260 182 181
f 183 182 260
f 260 331 332
f 178 252 179
f 179 123 178
f 180 123 179
f 179 252 251
f 177 123 122
f 122 176 177
f 177 176 123
f 180 257 258
f 474 402 481
f 401 475 474
f 474 481 401
f 474 473 402
f 475 397 474
f 397 473 474
f 36 35 72
f 36 7 35
f 8 7 36
f 36 38 8
f 72 39 36
f 36 39 38
f 195 276 280
f 192 276 195
f 195 136 192
f 281 280 354
f 368 445 434
f 434 357 368
f 288 291 208
f 288 203 287
f 287 362 288
f 368 291 367
f 367 439 368
f 19 11 10
f 10 2 19
f 11 2 10
f 12 14 13
f 13 2 12
f 14 2 13
f 16 15 42
f 42 52 20
f 20 16 42
f 42 76 52
f 168 167 169
f 169 115 168
f 168 115 167
f 88 87 133
f 88 50 87
f 89 52 88
f 88 133 89
f 52 76 88
f 76 50 88
f 43 40 51
f 15 40 43
f 43 42 15
f 51 76 43
f 76 42 43
f 139 94 137
f 159 219 152
f 106 111 152
f 152 111 159
f 162 219 163
f 163 219 159
f 163 112 162
f 159 112 163
f 68 28 67
f 67 28 26
f 26 66 67
f 109 66 108
f 228 160 232
f 232 307 228
f 228 307 230
f 230 229 228
f 108 156 157
f 157 226 227
f 157 227 228
f 228 229 157
f 106 63 69
f 69 68 106
f 69 63 62
f 69 28 68
f 69 62 28
f 55 56 21
f 21 54 55
f 55 54 97
f 97 98 55
f 55 98 56
f 303 218 217
f 217 216 303
f 217 218 150
f 150 216 217
f 149 216 150
f 150 104 149
f 148 216 149
f 149 102 148
f 104 103 149
f 149 103 102
f 21 56 57
f 57 58 21
f 107 105 151
f 107 151 153
f 153 154 107
f 107 154 108
f 108 65 107
f 64 65 26
f 26 60 64
f 60 105 64
f 105 107 64
f 64 107 65
f 522 467 521
f 521 467 520
f 521 520 480
f 480 479 521
f 400 477 478
f 478 479 400
f 255 326 327
f 327 328 255
f 326 328 327
f 256 180 255
f 256 257 180
f 329 397 403
f 257 256 329
f 403 330 329
f 329 330 257
f 343 415 344
f 269 342 343
f 343 342 341
f 341 415 343
f 344 270 343
f 343 270 269
f 412 417 495
f 412 409 417
f 336 409 412
f 278 277 349
f 349 277 337
f 349 352 278
f 337 352 349
f 410 491 492
f 492 411 410
f 410 411 336
f 513 510 514
f 514 460 513
f 513 460 510
f 100 98 148
f 207 142 141
f 142 96 141
f 141 205 207
f 143 147 144
f 144 96 143
f 144 147 97
f 97 96 144
f 323 254 253
f 253 322 323
f 251 322 253
f 253 179 251
f 253 254 180
f 180 179 253
f 323 322 391
f 391 392 323
f 390 470 391
f 391 470 392
f 321 322 244
f 321 320 390
f 244 320 321
f 390 391 321
f 321 391 322
f 469 392 388
f 469 393 392
f 388 468 469
f 468 393 469
f 246 250 249
f 249 250 174
f 249 248 246
f 174 248 249
f 261 260 332
f 183 260 261
f 261 332 333
f 333 334 261
f 259 257 331
f 259 258 257
f 180 258 259
f 259 260 180
f 331 260 259
f 397 329 325
f 255 328 325
f 325 256 255
f 325 329 256
f 196 195 280
f 136 195 196
f 280 281 196
f 206 139 199
f 199 139 137
f 356 431 432
f 136 196 197
f 197 196 281
f 198 197 281
f 198 199 137
f 137 136 198
f 136 197 198
f 368 437 436
f 444 437 368
f 204 203 289
f 203 288 289
f 289 208 204
f 289 288 208
f 291 288 363
f 363 288 362
f 439 367 361
f 361 362 287
f 361 363 362
f 200 286 202
f 202 201 200
f 158 109 108
f 112 109 158
f 229 230 158
f 108 157 158
f 158 157 229
f 160 112 158
f 158 232 160
f 110 112 68
f 110 109 112
f 66 109 110
f 68 67 110
f 110 67 66
f 479 478 524
f 524 521 479
f 336 412 413
f 413 410 336
f 491 410 413
f 148 102 101
f 101 100 148
f 102 58 101
f 58 57 101
f 101 57 56
f 56 100 101
f 56 98 99
f 99 100 56
f 98 100 99
f 187 183 262
f 183 261 262
f 272 187 262
f 262 334 272
f 262 261 334
f 402 473 396
f 396 473 397
f 397 325 396
f 354 357 282
f 282 281 354
f 282 198 281
f 368 436 435
f 368 439 442
f 199 198 284
f 206 199 284
f 284 290 206
f 366 367 291
f 291 363 366
f 366 361 367
f 363 361 366
f 206 290 285
f 285 200 206
f 286 200 285
f 360 285 290
f 95 54 93
f 93 54 53
f 53 94 93
f 94 139 93
f 232 158 231
f 231 158 230
f 307 232 231
f 231 230 307
f 494 412 495
f 494 413 412
f 495 497 494
f 497 491 494
f 491 413 494
f 355 282 357
f 431 356 355
f 356 282 355
f 198 282 283
f 283 356 358
f 283 282 356
f 283 284 198
f 290 284 283
f 433 432 368
f 368 435 433
f 358 356 433
f 433 356 432
f 433 435 358
f 443 444 368
f 368 442 443
f 441 365 437
f 138 200 201
f 138 201 202
f 138 202 203
f 95 93 138
f 138 203 204
f 138 96 95
f 138 141 96
f 204 205 138
f 205 141 138
f 140 93 139
f 140 139 206
f 206 200 140
f 200 138 140
f 140 138 93
f 357 434 430
f 430 355 357
f 430 434 445
f 445 431 430
f 431 355 430
f 359 283 358
f 359 365 290
f 290 283 359
f 359 436 437
f 437 365 359
f 439 361 438
f 438 442 439
f 290 365 364
f 364 360 290
f 437 444 440
f 440 441 437
f 444 443 440
f 440 443 442
f 442 438 440
f 386 236 313
f 314 236 386
f 347 279 422
f 422 279 353
f 120 122 77
f 77 122 79
f 347 422 348
f 348 422 421
f 348 421 346
f 346 274 348
f 46 47 18
f 18 47 19
f 83 47 46
f 83 46 81
f 301 220 218
f 302 301 218
f 345 339 267
f 267 272 345
f 215 148 146
f 146 214 215
f 156 155 223
f 156 223 225
f 216 148 215
f 215 305 216
f 267 339 268
f 339 340 268
f 372 452 453
f 379 372 453
f 203 202 286
f 287 203 286
f 152 164 113
f 32 31 152
f 233 312 152
f 152 312 313
f 313 236 152
f 236 164 152
f 152 219 235
f 113 70 152
f 152 235 233
f 152 34 32
f 152 29 24
f 152 70 34
f 152 31 30
f 30 29 152
f 24 63 152
f 152 63 106
f 157 156 225
f 225 226 157
f 521 476 471
f 521 471 522
f 524 478 477
f 524 477 523
f 476 521 524
f 524 523 476
f 396 325 328
f 396 328 402
f 287 286 285
f 285 361 287
f 359 435 436
f 358 435 359
f 361 285 438
f 285 360 438
f 440 364 365
f 365 441 440
f 440 438 360
f 360 364 440

