# https://github.com/mikedh/trimesh
v 0.01076980 -0.02646434 0.00053472
v 0.01076980 -0.02698570 0.00053472
v 0.01076980 -0.02646434 -0.00542847
v 0.00972947 -0.02646434 0.00053472
v 0.01076878 -0.02747575 0.00053472
v 0.01076980 -0.02698570 -0.00542847
v 0.00972947 -0.02646434 -0.00542847
v 0.00611229 -0.02692464 -0.00417933
v 0.00611229 -0.02693012 -0.00368901
v 0.00660336 -0.02692464 0.00023527
v 0.00041750 -0.02785855 0.00053472
v 0.01076572 -0.02777557 0.00053472
v 0.01076878 -0.02747575 -0.00221748
v 0.01076776 -0.02747575 -0.00542847
v 0.00611229 -0.02692464 -0.00542847
v 0.00033991 -0.02787029 0.00053472
v 0.01076266 -0.02796658 0.00053472
v 0.01076266 -0.02796658 -0.00074595
v 0.01076470 -0.02769885 -0.00542847
v 0.00071766 -0.02792979 -0.00542847
v 0.00033991 -0.02803547 -0.00542847
v 0.00033991 -0.02929581 0.00053472
v 0.01075551 -0.02826640 0.00053472
v 0.01074326 -0.02894746 -0.00368901
v 0.01074428 -0.02894746 -0.00516055
v 0.01074938 -0.02867973 -0.00542847
v 0.01076061 -0.02796658 -0.00542847
v 0.00033991 -0.02932086 -0.00542847
v 0.00659315 -0.03446088 0.00053472
v 0.01072692 -0.02943829 0.00053472
v 0.01074428 -0.02894746 -0.00542847
v 0.01072794 -0.02943829 -0.00123685
v 0.01073713 -0.02917056 -0.00542847
v 0.00657477 -0.03446088 -0.00542847
v 0.01027873 -0.03446088 0.00053472
v 0.01071467 -0.02973811 0.00053472
v 0.01070650 -0.02992912 0.00053472
v 0.01072794 -0.02943829 -0.00542847
v 0.01027873 -0.03446088 -0.00542847
v 0.01028690 -0.03439982 -0.00542847
v 0.01029200 -0.03436146 0.00053472
v 0.01069017 -0.03022815 0.00053472
v 0.01067996 -0.03041916 -0.00319811
v 0.01070650 -0.02992912 -0.00542847
v 0.01030425 -0.03426596 -0.00542847
v 0.01030425 -0.03426596 0.00053472
v 0.01067894 -0.03041916 0.00053472
v 0.01064219 -0.03090921 0.00053472
v 0.01067996 -0.03041916 -0.00542847
v 0.01033080 -0.03404050 -0.00542847
v 0.01035224 -0.03385263 0.00053472
v 0.01061360 -0.03120825 0.00053472
v 0.01064219 -0.03090921 -0.00542847
v 0.01035224 -0.03385263 -0.00542847
v 0.01037266 -0.03366162 0.00053472
v 0.01059522 -0.03140004 0.00053472
v 0.01059522 -0.03140004 -0.00542847
v 0.01040329 -0.03336180 -0.00542847
v 0.01040329 -0.03336180 0.00053472
v 0.01052580 -0.03211319 -0.00542847
v 0.01057378 -0.03162236 -0.00542847
v 0.01045127 -0.03287175 0.00053472
f 22 28 29
f 10 11 4
f 16 11 9
f 9 8 16
f 9 11 10
f 9 4 8
f 10 4 9
f 16 8 15
f 20 21 16
f 16 15 20
f 43 47 48
f 14 6 13
f 39 40 35
f 26 17 25
f 17 26 18
f 25 17 24
f 24 30 25
f 25 30 32
f 35 40 41
f 29 28 34
f 31 26 25
f 27 18 26
f 13 5 12
f 17 18 12
f 12 14 13
f 12 18 14
f 23 24 17
f 30 24 23
f 59 55 58
f 33 32 38
f 25 32 33
f 33 31 25
f 14 18 19
f 18 27 19
f 36 32 30
f 36 37 32
f 42 47 43
f 43 37 42
f 52 53 48
f 52 57 53
f 59 58 60
f 60 62 59
f 54 55 51
f 54 58 55
f 61 57 56
f 57 52 56
f 56 60 61
f 62 60 56
f 51 46 50
f 50 54 51
f 45 50 46
f 46 41 45
f 45 41 40
f 3 7 4
f 1 3 4
f 21 22 16
f 28 22 21
f 15 4 7
f 8 4 15
f 2 3 1
f 2 6 3
f 2 5 13
f 13 6 2
f 43 48 49
f 48 53 49
f 34 35 29
f 34 39 35
f 38 32 44
f 32 37 44
f 43 49 44
f 44 37 43
f 1 4 56
f 16 22 56
f 29 35 56
f 56 22 29
f 56 11 16
f 56 4 11
f 56 48 47
f 56 23 17
f 56 2 1
f 56 36 30
f 56 55 59
f 35 41 56
f 17 12 56
f 56 46 51
f 51 55 56
f 5 2 56
f 56 41 46
f 56 12 5
f 30 23 56
f 59 62 56
f 47 42 56
f 37 36 56
f 56 42 37
f 56 52 48
f 45 7 3
f 45 15 7
f 28 21 45
f 21 20 45
f 3 6 45
f 45 20 15
f 45 34 28
f 53 57 45
f 6 14 45
f 14 19 45
f 40 39 45
f 61 60 45
f 45 49 53
f 45 33 38
f 39 34 45
f 26 31 45
f 45 27 26
f 45 57 61
f 38 44 45
f 31 33 45
f 45 19 27
f 45 44 49
f 45 60 58
f 58 54 45
f 54 50 45

