# https://github.com/mikedh/trimesh
v 0.00033991 -0.04505213 -0.00542847
v 0.00513248 -0.04505213 -0.00542847
v 0.00807457 -0.04514324 -0.00417933
v 0.00807457 -0.04516000 -0.00368901
v 0.00033991 -0.04505213 0.00053472
v 0.00033991 -0.04408757 -0.00542847
v 0.00807457 -0.04500919 -0.00516055
v 0.00807457 -0.04509507 -0.00466965
v 0.00807457 -0.04493798 -0.00542847
v 0.00856492 -0.04505108 -0.00466965
v 0.00856492 -0.04508564 -0.00417933
v 0.00856492 -0.04509612 -0.00368901
v 0.00837423 -0.04512125 0.00053472
v 0.00807457 -0.04516000 0.00053472
v 0.00033991 -0.04409700 0.00053472
v 0.00657434 -0.03446088 -0.00542847
v 0.00856492 -0.04491808 -0.00542847
v 0.00856492 -0.04497987 -0.00516055
v 0.00881690 -0.04489608 -0.00542438
v 0.00883830 -0.04492017 -0.00516055
v 0.00885874 -0.04494845 -0.00466965
v 0.00886165 -0.04495892 -0.00417933
v 0.00856492 -0.04509612 0.00053472
v 0.00886263 -0.04496102 -0.00368901
v 0.00659380 -0.03446088 0.00053472
v 0.01027822 -0.03446088 -0.00542847
v 0.00879160 -0.04489818 -0.00542847
v 0.00881398 -0.04489504 -0.00542847
v 0.00881885 -0.04489189 -0.00542847
v 0.00886360 -0.04475994 -0.00542847
v 0.00889863 -0.04464788 -0.00542847
v 0.00892197 -0.04464473 -0.00516055
v 0.00894241 -0.04464473 -0.00466965
v 0.00894630 -0.04464473 -0.00417933
v 0.00886263 -0.04496102 0.00053472
v 0.01027822 -0.03446088 0.00053472
v 0.01027238 -0.03451220 -0.00542847
v 0.00897062 -0.04437663 -0.00542847
v 0.00901051 -0.04415356 -0.00542847
v 0.00894630 -0.04464473 0.00053472
v 0.00904554 -0.04388650 -0.00542847
v 0.00962345 -0.03947217 -0.00542847
v 0.01027238 -0.03451220 0.00053472
v 0.00946000 -0.04072054 0.00053472
f 1 2 3
f 3 4 1
f 16 6 15
f 15 25 16
f 11 22 12
f 11 12 4
f 4 3 11
f 12 22 24
f 13 14 4
f 4 12 13
f 12 23 13
f 10 11 3
f 9 7 2
f 9 17 7
f 8 10 3
f 8 3 2
f 2 7 8
f 22 11 21
f 11 10 21
f 34 24 22
f 34 42 40
f 40 42 44
f 44 42 43
f 43 42 37
f 17 27 18
f 7 17 18
f 18 8 7
f 10 8 18
f 18 19 10
f 27 19 18
f 31 38 32
f 32 21 20
f 20 31 32
f 20 19 29
f 20 21 10
f 10 19 20
f 32 38 33
f 33 21 32
f 33 38 39
f 39 34 33
f 22 21 33
f 33 34 22
f 41 34 39
f 42 34 41
f 29 19 28
f 28 19 27
f 30 20 29
f 31 20 30
f 14 5 1
f 1 4 14
f 26 16 25
f 25 36 26
f 1 5 15
f 15 6 1
f 35 23 24
f 24 23 12
f 34 40 35
f 35 24 34
f 5 14 44
f 44 23 35
f 44 43 36
f 35 40 44
f 36 25 44
f 44 15 5
f 14 13 44
f 25 15 44
f 44 13 23
f 26 36 37
f 36 43 37
f 1 6 30
f 30 2 1
f 30 16 26
f 30 9 2
f 30 6 16
f 30 41 39
f 26 37 30
f 29 28 30
f 17 9 30
f 30 27 17
f 39 38 30
f 30 37 42
f 38 31 30
f 42 41 30
f 30 28 27

