# https://github.com/mikedh/trimesh
v -0.01276980 -0.02943790 0.00596452
v -0.01275598 -0.02959382 0.00596452
v -0.01276980 -0.02943790 0.00759408
v -0.01276980 -0.01619498 0.00596452
v -0.01272602 -0.02992838 0.00596452
v -0.01272602 -0.02992838 0.00661297
v -0.01276750 -0.02943790 0.00808433
v -0.01276750 -0.02453312 0.01151729
v -0.01276980 -0.02404264 0.01102704
v -0.01276980 -0.01619498 0.01102704
v -0.01267994 -0.01570450 0.00596452
v -0.01257856 -0.03041886 0.00596452
v -0.01272141 -0.02992838 0.00710322
v -0.01257856 -0.03041886 0.00661297
v -0.01268224 -0.02992838 0.00759408
v -0.01259929 -0.02992838 0.00808433
v -0.01241496 -0.02992838 0.00846149
v -0.01244261 -0.02492290 0.01187821
v -0.01252325 -0.02453312 0.01193596
v -0.01276750 -0.01619498 0.01151729
v -0.01267994 -0.01570450 0.01151729
v -0.01251404 -0.01543165 0.00596452
v -0.01084350 -0.03450835 0.00596452
v -0.01257395 -0.03041886 0.00710322
v -0.01195412 -0.03189030 0.00710322
v -0.01237809 -0.03088985 0.00710322
v -0.01181126 -0.03217939 0.00737512
v -0.00934347 -0.03802616 0.00735467
v -0.01203707 -0.02453312 0.01210980
v -0.00839875 -0.03758440 0.00887053
v -0.00807386 -0.03775980 0.00891505
v -0.01252325 -0.01619498 0.01193596
v -0.01247947 -0.01570450 0.01192272
v -0.01238500 -0.01535694 0.01186077
v -0.01243569 -0.01530497 0.01151729
v -0.01243569 -0.01530497 0.00596452
v -0.01008081 -0.03630461 0.00596452
v -0.01008081 -0.03630461 0.00661297
v -0.00945407 -0.03777604 0.00710322
v -0.00934347 -0.03802940 0.00710322
v -0.00909232 -0.03823079 0.00661297
v -0.00909232 -0.03822430 0.00710322
v -0.00306455 -0.04101775 0.00888377
v -0.00788722 -0.03803265 0.00883685
v -0.00860152 -0.02551407 0.01210980
v -0.01203707 -0.01619498 0.01210980
v -0.00762224 -0.03777604 0.00901490
v -0.00271662 -0.04071892 0.00908468
v -0.00713145 -0.02747599 0.01210379
v -0.00664066 -0.02747599 0.01210920
v 0.00169590 -0.02992838 0.01210920
v -0.00321894 -0.04074815 0.00897460
v -0.01203707 -0.01570450 0.01209597
v -0.01204859 -0.01520102 0.01194919
v -0.01008773 -0.01323911 0.01194919
v -0.00993104 -0.01290455 0.01186077
v -0.01219145 -0.01505810 0.01151729
v -0.01219145 -0.01505810 0.00596452
v -0.00966375 -0.03728556 0.00596452
v -0.00966375 -0.03728556 0.00661297
v -0.00941951 -0.03785725 0.00596452
v -0.00934347 -0.03802940 0.00596452
v -0.00917296 -0.03816908 0.00596452
v -0.00909232 -0.03823079 0.00596452
v -0.00237791 -0.04141079 0.00808433
v -0.00237791 -0.04140754 0.00857518
v -0.00311525 -0.04104374 0.00857518
v -0.00208067 -0.04149849 0.00888016
v -0.00271662 -0.04109896 0.00894031
v 0.01003707 -0.02502359 0.01210920
v -0.00860152 -0.02355216 0.01210980
v 0.00709231 -0.02992838 0.01210920
v -0.00909232 -0.01325210 0.01210980
v -0.00223735 -0.04123863 0.00897219
v -0.00173504 -0.04120940 0.00907024
v -0.00124424 -0.03777604 0.01013797
v -0.00075576 -0.03777604 0.01019812
v 0.00267749 -0.03041886 0.01208273
v 0.00316828 -0.03041886 0.01209657
v 0.00365907 -0.03041886 0.01210198
v -0.00958311 -0.01325210 0.01209597
v -0.00959463 -0.01274863 0.01194739
v -0.00943794 -0.01243680 0.01185716
v -0.00973288 -0.01260571 0.01151729
v -0.00998404 -0.01285257 0.01151729
v -0.01022828 -0.01309619 0.01151729
v -0.01022828 -0.01309619 0.00596452
v -0.00237791 -0.04141079 0.00596452
v -0.00229956 -0.04144652 0.00596452
v -0.00213136 -0.04152122 0.00857518
v -0.00173504 -0.04153746 0.00892588
v 0.00733195 -0.04490585 0.00596452
v 0.00738495 -0.04491885 0.00596452
v 0.00758311 -0.04494158 0.00602106
v 0.00758311 -0.04467523 0.00661297
v 0.00758311 -0.04449333 0.00700818
v 0.01003707 -0.02551407 0.01209837
v 0.01052325 -0.02551407 0.01193054
v 0.01052325 -0.02502359 0.01193596
v 0.01003707 -0.01472354 0.01210920
v 0.00709231 -0.03041886 0.01210198
v 0.00267749 -0.01180015 0.01210920
v -0.00224657 -0.01180015 0.01210920
v -0.00909232 -0.01276162 0.01208875
v -0.00124424 -0.04157644 0.00895295
v 0.00414986 -0.04258988 0.00894693
v -0.00124424 -0.04120940 0.00909731
v 0.00513145 -0.04262886 0.00896498
v 0.00562224 -0.04219035 0.00910513
v 0.00611073 -0.04219035 0.00910934
v -0.00909232 -0.01238158 0.01191551
v -0.00909232 -0.01224516 0.01151729
v -0.00948864 -0.01239783 0.01151729
v -0.00973288 -0.01260571 0.00596452
v -0.00998404 -0.01285257 0.00596452
v -0.01006238 -0.01293053 0.00596452
v -0.00213136 -0.04152122 0.00596452
v 0.00758311 -0.04495133 0.00596452
v 0.00807390 -0.04498381 0.00596452
v 0.00807390 -0.04495782 0.00606558
v 0.00807390 -0.04486687 0.00631040
v 0.00807390 -0.04474344 0.00661297
v 0.00807390 -0.04451932 0.00704187
v 0.00807390 -0.04435366 0.00728729
v 0.00777896 -0.04391190 0.00784552
v 0.01003707 -0.02600455 0.01205326
v 0.01050021 -0.02600455 0.01190769
v 0.01073524 -0.02551407 0.01151729
v 0.01076750 -0.02502359 0.01151729
v 0.01052325 -0.01472354 0.01193596
v 0.01045413 -0.01423306 0.01187641
v 0.01003707 -0.01423306 0.01199010
v 0.00709231 -0.04219035 0.00910934
v 0.00895180 -0.04208316 0.00887114
v 0.00909005 -0.04171936 0.00891024
v 0.01041726 -0.02649503 0.01185114
v 0.00314063 -0.01180015 0.01193716
v 0.01035044 -0.01396996 0.01179881
v -0.00271662 -0.01180015 0.01209537
v 0.00464066 -0.04261587 0.00894994
v 0.00807390 -0.04391515 0.00784853
v 0.00709231 -0.04265485 0.00896498
v -0.00273966 -0.01180015 0.01208755
v -0.00314751 -0.01180015 0.01192272
v -0.00316363 -0.01180015 0.01189205
v -0.00335027 -0.01180015 0.01151729
v -0.00336871 -0.01180015 0.01102704
v -0.00337101 -0.01180015 0.01053679
v -0.00909232 -0.01224516 0.00596452
v -0.00948864 -0.01239783 0.00596452
v 0.00847022 -0.04496432 0.00596452
v 0.00856469 -0.04494158 0.00604332
v 0.00856469 -0.04485063 0.00628874
v 0.00856469 -0.04471746 0.00661297
v 0.00856469 -0.04450957 0.00704066
v 0.00856469 -0.04435041 0.00728609
v 0.00856469 -0.04411654 0.00759408
v 0.00807390 -0.04411654 0.00759408
v 0.00932047 -0.04156995 0.00884587
v 0.01076289 -0.02747599 0.01053679
v 0.01076980 -0.02453312 0.01102704
v 0.01076750 -0.01472354 0.01151729
v 0.01076750 -0.02747599 0.01004593
v 0.01062694 -0.01423306 0.01151729
v 0.00749324 -0.04259313 0.00891685
v 0.00856469 -0.04268083 0.00866902
v 0.00891262 -0.04305438 0.00841517
v 0.00335953 -0.01180015 0.01151729
v 0.01038270 -0.01396021 0.01151729
v 0.00856469 -0.04391840 0.00784853
v 0.00881815 -0.04391515 0.00784552
v 0.00856469 -0.04336296 0.00829005
v 0.00856469 -0.04311934 0.00845367
v -0.00337101 -0.01180015 0.01004593
v -0.00336640 -0.01180015 0.00951839
v -0.00336180 -0.01180015 0.00906483
v -0.00315903 -0.01180015 0.00864676
v -0.00271662 -0.01180015 0.00847232
v -0.00222583 -0.01180015 0.00847051
v 0.00267749 -0.01180015 0.00847051
v 0.01038270 -0.01396021 0.00596452
v 0.00856469 -0.04495782 0.00596452
v 0.00883428 -0.04491560 0.00597113
v 0.00886424 -0.04446410 0.00697810
v 0.00900249 -0.04319730 0.00811561
v 0.00902092 -0.04366179 0.00759408
v 0.00918913 -0.04268083 0.00808433
v 0.00932968 -0.04166090 0.00857518
v 0.00939420 -0.04120940 0.00857518
v 0.00979743 -0.03807488 0.00883204
v 0.01029514 -0.03420952 0.00884407
v 0.01054629 -0.03189030 0.00857518
v 0.01066842 -0.03041886 0.00857518
v 0.01075828 -0.02796647 0.01004593
v 0.01076519 -0.02796647 0.00955568
v 0.01076980 -0.01472354 0.01102704
v 0.01076980 -0.02698551 0.00955568
v 0.01072372 -0.01456438 0.00596452
v 0.01062694 -0.01423306 0.00596452
v 0.01054860 -0.01414536 0.00596452
v 0.00888958 -0.04366179 0.00794417
v 0.00336183 -0.01180015 0.01107035
v 0.00336414 -0.01180015 0.00956170
v 0.00887345 -0.04400935 0.00759408
v 0.00270053 -0.01180015 0.00847533
v 0.00318902 -0.01180015 0.00867804
v 0.00335953 -0.01180015 0.00903957
v 0.00336414 -0.01180015 0.00953764
v 0.00883428 -0.04491560 0.00596452
v 0.00889189 -0.04454205 0.00661297
v 0.00883659 -0.04490910 0.00596452
v 0.00900940 -0.04415227 0.00661297
v 0.00893567 -0.04418150 0.00712608
v 0.00913843 -0.04317131 0.00759408
v 0.00933199 -0.04169338 0.00808433
v 0.00952323 -0.04022844 0.00857518
v 0.00980204 -0.03810086 0.00857518
v 0.01030436 -0.03426474 0.00857518
v 0.01035274 -0.03385221 0.00857518
v 0.01040344 -0.03336174 0.00857518
v 0.01059468 -0.03139982 0.00808433
v 0.01064077 -0.03090934 0.00808433
v 0.01067994 -0.03041886 0.00808433
v 0.01070298 -0.02992838 0.00857518
v 0.01072833 -0.02943790 0.00857518
v 0.01075598 -0.02845370 0.00906483
v 0.01076519 -0.02796647 0.00596452
v 0.01076980 -0.01472354 0.00596452
v 0.01076980 -0.02698551 0.00596452
v 0.00890571 -0.04466224 0.00596452
v 0.00900940 -0.04415227 0.00596452
v 0.00903014 -0.04399635 0.00596452
v 0.00920295 -0.04268083 0.00759408
v 0.00971679 -0.03875700 0.00808433
v 0.01016610 -0.03532365 0.00808433
v 0.01030436 -0.03426474 0.00596452
v 0.01035274 -0.03385221 0.00596452
v 0.01040344 -0.03336174 0.00596452
v 0.01061081 -0.03124066 0.00596452
v 0.01064077 -0.03090934 0.00596452
v 0.01065459 -0.03075018 0.00596452
v 0.01067994 -0.03041886 0.00596452
v 0.01070528 -0.02992838 0.00808433
v 0.01070528 -0.02992838 0.00596452
v 0.01071220 -0.02976922 0.00596452
v 0.01072602 -0.02943790 0.00596452
v 0.01074445 -0.02894418 0.00808433
v 0.01074445 -0.02894418 0.00857518
v 0.01075598 -0.02845370 0.00596452
v 0.00922369 -0.04252492 0.00596452
v 0.01016610 -0.03532365 0.00596452
v 0.01074215 -0.02894418 0.00661297
f 28 41 42
f 168 138 169
f 100 130 131
f 102 73 100
f 100 73 71
f 181 149 180
f 180 205 181
f 16 28 17
f 17 28 18
f 30 28 44
f 18 28 30
f 16 15 24
f 134 101 133
f 224 223 243
f 224 243 225
f 102 138 137
f 138 168 137
f 181 169 200
f 164 138 131
f 169 138 164
f 199 200 164
f 164 200 169
f 131 138 132
f 132 100 131
f 132 138 102
f 102 100 132
f 83 112 113
f 113 84 83
f 111 112 83
f 83 104 111
f 35 36 22
f 83 84 56
f 21 22 11
f 35 22 21
f 8 17 18
f 117 92 90
f 77 109 110
f 29 47 48
f 47 52 48
f 48 49 29
f 18 30 31
f 29 18 31
f 31 47 29
f 31 30 44
f 44 52 31
f 31 52 47
f 27 28 16
f 16 24 27
f 64 41 63
f 70 72 101
f 78 49 77
f 72 70 45
f 29 49 50
f 167 134 166
f 166 134 165
f 160 192 193
f 193 223 224
f 222 223 193
f 193 192 222
f 242 223 241
f 241 223 222
f 222 192 221
f 221 239 222
f 192 220 221
f 221 220 239
f 247 225 246
f 206 207 181
f 181 205 206
f 199 164 198
f 112 111 139
f 139 111 104
f 35 21 34
f 56 86 34
f 82 104 83
f 83 56 82
f 19 8 18
f 19 18 29
f 20 21 10
f 65 90 66
f 66 41 65
f 42 41 66
f 65 88 89
f 117 90 89
f 89 90 65
f 77 49 76
f 49 48 76
f 5 6 2
f 7 15 16
f 16 17 7
f 17 8 7
f 26 27 24
f 24 14 26
f 26 14 25
f 26 25 28
f 28 27 26
f 101 136 126
f 126 136 127
f 49 78 51
f 51 50 49
f 72 45 51
f 51 45 29
f 29 50 51
f 160 129 128
f 131 130 162
f 162 164 131
f 251 235 250
f 214 232 250
f 250 233 214
f 215 214 233
f 250 235 234
f 234 233 250
f 234 215 233
f 234 235 218
f 108 110 109
f 77 106 108
f 108 109 77
f 239 220 238
f 222 239 240
f 240 241 222
f 194 195 160
f 224 225 194
f 194 193 224
f 160 193 194
f 248 225 247
f 244 225 243
f 202 168 169
f 169 203 202
f 181 207 208
f 179 180 149
f 149 178 179
f 103 73 102
f 103 104 73
f 103 139 104
f 73 53 46
f 85 56 84
f 85 86 56
f 35 34 57
f 57 34 86
f 33 21 20
f 33 34 21
f 33 53 54
f 54 34 33
f 55 82 56
f 55 34 54
f 56 34 55
f 54 53 55
f 42 66 67
f 43 67 66
f 43 52 44
f 44 28 43
f 43 28 42
f 42 67 43
f 48 74 75
f 77 76 75
f 75 76 48
f 15 7 13
f 13 7 6
f 13 24 15
f 6 14 13
f 13 14 24
f 23 14 12
f 25 14 23
f 28 25 39
f 97 126 127
f 97 70 101
f 101 126 97
f 77 110 80
f 129 99 98
f 127 128 98
f 98 128 129
f 98 97 127
f 98 99 70
f 70 97 98
f 164 162 196
f 228 198 196
f 196 198 164
f 231 232 212
f 232 214 212
f 101 134 135
f 135 136 101
f 217 234 218
f 218 190 217
f 119 94 118
f 68 90 92
f 68 66 90
f 68 43 66
f 159 134 167
f 159 135 134
f 159 128 127
f 127 136 159
f 136 135 159
f 160 128 159
f 159 190 160
f 172 171 167
f 140 108 106
f 225 248 226
f 226 194 225
f 195 194 226
f 246 249 252
f 252 249 247
f 247 246 252
f 245 246 225
f 225 244 245
f 163 197 161
f 161 129 163
f 163 129 160
f 195 197 163
f 160 195 163
f 177 178 149
f 149 176 177
f 147 148 112
f 112 146 147
f 32 33 20
f 32 46 53
f 53 33 32
f 81 55 53
f 73 104 81
f 81 53 73
f 104 82 81
f 82 55 81
f 6 7 3
f 8 9 3
f 3 7 8
f 1 2 3
f 3 2 6
f 107 106 77
f 77 75 107
f 107 75 106
f 38 23 37
f 25 23 38
f 38 39 25
f 79 80 51
f 79 51 78
f 79 78 77
f 77 80 79
f 184 154 183
f 183 182 209
f 152 182 183
f 183 210 184
f 183 212 210
f 184 210 213
f 210 212 213
f 191 190 218
f 160 190 191
f 218 219 191
f 191 219 220
f 191 192 160
f 191 220 192
f 190 159 189
f 214 215 189
f 93 118 94
f 93 68 92
f 94 68 93
f 120 94 119
f 119 152 120
f 154 122 153
f 153 183 154
f 152 183 153
f 153 120 152
f 95 122 96
f 94 122 95
f 96 68 95
f 95 68 94
f 91 96 106
f 91 68 96
f 91 75 74
f 74 68 91
f 69 68 74
f 43 68 69
f 52 43 69
f 69 48 52
f 69 74 48
f 167 171 201
f 155 122 154
f 155 154 184
f 184 171 155
f 173 172 167
f 167 166 173
f 172 173 142
f 171 172 142
f 142 134 133
f 165 134 142
f 133 110 142
f 110 108 142
f 142 166 165
f 142 173 166
f 149 174 175
f 175 176 149
f 112 139 143
f 143 144 112
f 145 146 112
f 112 144 145
f 116 85 115
f 86 85 116
f 116 87 86
f 40 61 62
f 62 63 40
f 28 39 40
f 39 61 40
f 41 28 40
f 40 63 41
f 39 38 60
f 60 61 39
f 151 152 119
f 151 182 152
f 231 212 230
f 186 212 214
f 186 213 212
f 214 187 186
f 186 187 159
f 184 213 186
f 216 217 190
f 190 189 216
f 216 189 215
f 215 234 216
f 234 217 216
f 188 187 214
f 214 189 188
f 159 187 188
f 188 189 159
f 121 122 94
f 94 120 121
f 121 153 122
f 120 153 121
f 106 75 105
f 105 91 106
f 75 91 105
f 157 158 124
f 170 157 171
f 170 158 157
f 171 142 170
f 61 60 59
f 211 183 209
f 212 183 211
f 211 230 212
f 185 186 159
f 201 186 185
f 185 159 167
f 167 201 185
f 204 201 171
f 204 186 201
f 204 171 184
f 184 186 204
f 96 122 123
f 123 124 96
f 122 155 123
f 157 124 156
f 171 157 156
f 156 155 171
f 156 123 155
f 124 123 156
f 141 142 108
f 141 170 142
f 158 170 141
f 108 140 125
f 125 141 108
f 125 140 106
f 158 141 125
f 125 124 158
f 106 96 125
f 96 124 125
f 88 41 64
f 65 41 88
f 113 149 150
f 113 112 149
f 45 100 71
f 45 70 100
f 114 113 150
f 84 113 114
f 11 4 10
f 10 21 11
f 14 5 12
f 14 6 5
f 100 70 99
f 130 100 99
f 130 99 162
f 162 99 129
f 251 236 218
f 218 235 251
f 244 223 242
f 244 243 223
f 227 229 197
f 197 195 227
f 208 169 181
f 208 203 169
f 71 73 46
f 29 45 46
f 46 45 71
f 85 114 115
f 84 114 85
f 57 58 36
f 57 36 35
f 9 8 20
f 20 10 9
f 72 51 80
f 101 72 80
f 133 101 80
f 80 110 133
f 196 229 228
f 161 197 196
f 196 197 229
f 196 162 129
f 196 129 161
f 218 236 237
f 237 219 218
f 220 219 237
f 237 238 220
f 226 249 227
f 227 195 226
f 226 248 247
f 247 249 226
f 149 112 174
f 112 148 174
f 58 57 87
f 87 57 86
f 20 8 32
f 8 19 32
f 29 46 32
f 32 19 29
f 3 4 1
f 3 10 4
f 3 9 10
f 102 137 145
f 145 208 207
f 205 180 145
f 145 137 168
f 145 206 205
f 178 177 145
f 207 206 145
f 168 202 145
f 180 179 145
f 145 103 102
f 145 202 203
f 203 208 145
f 145 179 178
f 145 174 148
f 148 147 145
f 139 103 145
f 176 175 145
f 145 177 176
f 145 147 146
f 145 143 139
f 145 175 174
f 144 143 145
f 59 38 37
f 59 60 38
f 211 88 64
f 64 63 211
f 211 198 228
f 211 232 231
f 211 149 181
f 62 61 211
f 242 241 211
f 117 89 211
f 11 22 211
f 150 149 211
f 211 23 12
f 1 4 211
f 228 229 211
f 181 200 211
f 211 92 117
f 211 114 150
f 12 5 211
f 211 2 1
f 36 58 211
f 236 251 211
f 227 249 211
f 211 200 199
f 211 22 36
f 211 244 242
f 211 4 11
f 211 63 62
f 250 232 211
f 211 151 119
f 119 118 211
f 211 240 239
f 211 229 227
f 199 198 211
f 115 114 211
f 211 89 88
f 5 2 211
f 211 93 92
f 211 251 250
f 239 238 211
f 241 240 211
f 211 249 246
f 211 237 236
f 246 245 211
f 37 23 211
f 211 116 115
f 238 237 211
f 211 245 244
f 58 87 211
f 231 230 211
f 209 182 211
f 118 93 211
f 87 116 211
f 182 151 211
f 211 59 37
f 61 59 211

