# https://github.com/mikedh/trimesh
v 0.00033991 -0.01513618 -0.00542847
v 0.00033991 -0.01513618 0.00053472
v 0.00033991 -0.01393020 -0.00542847
v 0.00972947 -0.02646356 -0.00542847
v 0.00033991 -0.01393020 0.00053472
v 0.00972947 -0.02646356 0.00053472
v 0.00709341 -0.01393020 -0.00542847
v 0.01076980 -0.02646356 -0.00542847
v 0.00709341 -0.01393020 0.00053472
v 0.01076980 -0.02646356 0.00053472
v 0.01038491 -0.01395842 -0.00542847
v 0.01076980 -0.01472151 -0.00542847
v 0.01038491 -0.01395842 0.00053472
v 0.01076980 -0.01472151 0.00053472
v 0.01049517 -0.01408233 -0.00542847
v 0.01062789 -0.01423200 -0.00542847
v 0.01062789 -0.01423200 0.00053472
f 17 16 15
f 13 15 11
f 17 15 13
f 5 3 1
f 1 2 5
f 1 4 6
f 6 2 1
f 6 4 8
f 8 10 6
f 14 12 16
f 14 16 17
f 14 10 8
f 8 12 14
f 7 4 1
f 1 3 7
f 8 4 7
f 7 12 8
f 16 12 7
f 7 15 16
f 11 15 7
f 2 6 9
f 9 14 17
f 9 5 2
f 9 6 10
f 10 14 9
f 17 13 9
f 3 5 9
f 9 7 3
f 11 7 9
f 9 13 11

