# https://github.com/mikedh/trimesh
v 0.01372215 0.00811113 0.00794268
v 0.01372215 0.00811113 0.00590309
v 0.01353951 0.00811113 0.00799666
v 0.01372215 -0.00323690 0.02080751
v 0.01372215 -0.00402502 0.01386447
v 0.00715783 -0.01048110 0.01247848
v 0.00370269 -0.00539767 0.00871445
v 0.00264123 -0.00596204 0.00871007
v 0.00099746 -0.00650022 0.00871591
v 0.00060425 -0.00651634 0.00870569
v 0.00004988 -0.00651836 0.00870278
v -0.00050449 -0.00651030 0.00870861
v -0.00105886 -0.00650022 0.00871445
v -0.00137042 -0.00649014 0.00872174
v -0.00660039 0.00811113 0.00689371
v 0.00442896 0.00811113 0.01057166
v 0.00834392 -0.00452086 0.02080751
v 0.01372215 -0.00521827 0.02080751
v 0.00245644 0.00811113 0.01112898
v -0.00101158 0.00811113 0.01210646
v -0.00822912 0.00811113 0.01210646
v 0.01372215 -0.00430519 0.01404829
v 0.00650247 -0.01095881 0.01252955
v 0.00669370 -0.01065444 0.01239533
v 0.01372215 -0.00468413 0.01429777
v 0.01372215 -0.00473049 0.01432841
v 0.01372215 -0.00701219 0.01650804
v 0.01372215 -0.00716135 0.01676044
v 0.00614793 -0.01104548 0.01244639
v 0.00503705 -0.01119262 0.01225235
v 0.00393046 -0.01174692 0.01228882
v 0.00337394 -0.01216214 0.01242159
v 0.00245644 -0.01224881 0.01239533
v 0.00282172 -0.01221455 0.01240116
v -0.00297121 -0.00589956 0.00874363
v -0.00260163 -0.00596003 0.00871153
v -0.00361153 -0.00541581 0.00871153
v -0.00703658 0.00779064 0.00700167
v -0.00715691 0.00811113 0.00698854
v 0.00781318 -0.00466801 0.02080751
v 0.00815268 -0.00986028 0.02080751
v 0.01372215 -0.00533115 0.02060763
v -0.00786813 0.00811113 0.00789745
v -0.00790681 0.00376945 0.01210646
v 0.00245644 -0.01247658 0.02080751
v 0.00245644 -0.00633897 0.02080751
v 0.00682048 -0.01081771 0.01288844
v 0.00654329 -0.01098299 0.01288844
v 0.00614793 -0.01117448 0.01288844
v 0.00537439 -0.01149698 0.01255581
v 0.00503705 -0.01157357 0.01246973
v 0.01372215 -0.00716135 0.01731629
v 0.00393046 -0.01208756 0.01250620
v 0.00245644 -0.01247658 0.01288844
v -0.00468589 -0.00484135 0.00919298
v -0.00372111 -0.00550651 0.00900623
v -0.00456986 -0.00472848 0.00882387
v -0.00420028 -0.00487763 0.00871153
v -0.00740616 0.00803856 0.00708045
v -0.00731591 0.00811113 0.00703960
v -0.00473961 -0.00435961 0.00871153
v -0.00525530 -0.00379120 0.00871153
v -0.00577958 -0.00317644 0.00872174
v 0.01372215 -0.00707064 0.01750449
v 0.01372215 -0.00702832 0.01758327
v 0.01372215 -0.00687110 0.01786485
v 0.01372215 -0.00570807 0.01993653
v 0.00790988 -0.01003363 0.02080751
v -0.00784664 0.00811113 0.00782888
v -0.00687758 0.00015944 0.00927614
v -0.00733525 -0.00066294 0.01210646
v 0.00298288 -0.01237580 0.02080751
v -0.00716121 -0.00123336 0.01210646
v -0.00661328 -0.00290029 0.01210646
v -0.00605892 -0.00400285 0.01210646
v -0.00550884 -0.00456521 0.01210646
v -0.00496092 -0.00511548 0.01210646
v -0.00384789 -0.00622408 0.01210646
v 0.00654329 -0.01098299 0.01343846
v 0.00614793 -0.01117448 0.02080751
v 0.00581918 -0.01132364 0.02080751
v 0.00451706 -0.01191220 0.01288844
v 0.00422913 -0.01203314 0.01258936
v 0.00720725 -0.01052746 0.02080751
v 0.00681403 -0.01080360 0.02080751
v 0.00653685 -0.01098299 0.02080751
v 0.00337394 -0.01229920 0.01288844
v 0.00282172 -0.01240603 0.01288844
v -0.00522306 -0.00427697 0.00923674
v -0.00489861 -0.00450272 0.00902958
v -0.00511133 -0.00416007 0.00886618
v -0.00749855 0.00811113 0.00717236
v -0.00741475 0.00811113 0.00707607
v -0.00634469 -0.00161029 0.00871299
v -0.00583115 -0.00324900 0.00900623
v -0.00635329 -0.00215249 0.00914483
v -0.00626089 -0.00197915 0.00877572
v -0.00761029 0.00811113 0.00732993
v -0.00653163 -0.00121724 0.00900623
v -0.00640271 -0.00178565 0.00897851
v 0.00337394 -0.01229920 0.02080751
v -0.00611478 -0.00287812 0.00956063
v 0.00451706 -0.01191220 0.02080751
v 0.00423772 -0.01203717 0.01288844
v 0.00393046 -0.01215005 0.01288844
v 0.00353724 -0.01225687 0.02080751
v 0.00423772 -0.01203717 0.02080751
v 0.00402070 -0.01211780 0.02080751
v 0.00393046 -0.01215005 0.02080751
f 21 4 20
f 21 45 46
f 17 4 21
f 3 4 1
f 3 16 4
f 19 20 4
f 4 16 19
f 21 46 40
f 40 17 21
f 15 2 14
f 44 45 21
f 44 71 45
f 73 74 45
f 45 71 73
f 45 78 54
f 43 44 21
f 71 44 43
f 100 94 97
f 39 15 38
f 36 15 14
f 14 35 36
f 45 74 75
f 95 75 74
f 89 75 95
f 55 54 78
f 55 75 89
f 94 100 99
f 99 100 71
f 74 73 96
f 96 100 97
f 96 73 71
f 71 100 96
f 42 18 41
f 42 41 67
f 2 5 6
f 88 54 53
f 53 87 88
f 54 55 33
f 33 34 54
f 33 35 14
f 90 55 89
f 75 55 76
f 45 75 76
f 53 54 32
f 54 34 32
f 31 8 30
f 53 32 31
f 31 32 8
f 94 92 59
f 98 92 94
f 71 43 70
f 70 99 71
f 102 95 74
f 74 96 102
f 102 96 95
f 63 96 97
f 95 96 63
f 89 95 63
f 97 94 63
f 94 59 63
f 63 59 38
f 29 31 30
f 30 8 29
f 27 6 26
f 28 6 27
f 22 6 5
f 7 8 2
f 2 6 7
f 7 29 8
f 56 33 55
f 77 55 78
f 77 76 55
f 77 78 45
f 45 76 77
f 2 10 11
f 11 10 33
f 2 8 9
f 9 10 2
f 8 32 9
f 9 32 34
f 34 33 9
f 33 10 9
f 93 59 92
f 69 98 94
f 94 99 69
f 69 70 43
f 99 70 69
f 62 63 38
f 91 90 89
f 89 63 91
f 63 62 91
f 67 41 66
f 41 65 66
f 41 52 64
f 64 65 41
f 68 52 41
f 52 85 86
f 53 31 51
f 31 29 51
f 26 6 25
f 6 22 25
f 24 7 6
f 29 7 24
f 106 101 87
f 45 54 72
f 54 88 72
f 72 88 87
f 87 101 72
f 109 106 105
f 105 106 87
f 55 90 57
f 57 56 55
f 90 91 57
f 57 91 62
f 14 2 13
f 13 33 14
f 59 93 60
f 39 38 60
f 38 59 60
f 61 62 38
f 61 57 62
f 84 85 52
f 52 68 84
f 28 48 47
f 23 24 6
f 29 24 23
f 23 47 48
f 23 51 29
f 23 6 28
f 28 47 23
f 52 86 79
f 79 86 80
f 104 107 108
f 108 105 104
f 109 105 108
f 56 57 37
f 35 33 37
f 33 56 37
f 15 36 37
f 37 36 35
f 37 38 15
f 2 11 12
f 12 13 2
f 12 11 33
f 33 13 12
f 51 23 50
f 58 61 38
f 38 37 58
f 57 61 58
f 58 37 57
f 83 82 104
f 104 105 83
f 53 51 83
f 51 50 83
f 83 87 53
f 83 105 87
f 81 103 82
f 82 83 49
f 49 83 50
f 80 81 49
f 49 81 82
f 49 23 48
f 49 50 23
f 25 2 1
f 1 4 25
f 25 64 52
f 4 18 25
f 25 27 26
f 25 42 67
f 25 5 2
f 18 42 25
f 25 52 28
f 67 66 25
f 28 27 25
f 25 22 5
f 25 66 65
f 65 64 25
f 60 15 39
f 21 20 60
f 1 2 60
f 60 3 1
f 20 19 60
f 16 3 60
f 60 19 16
f 2 15 60
f 60 43 21
f 60 69 43
f 92 98 60
f 60 93 92
f 98 69 60
f 28 52 79
f 79 48 28
f 103 107 104
f 104 82 103
f 81 46 45
f 81 40 46
f 4 17 81
f 17 40 81
f 81 18 4
f 41 18 81
f 81 106 109
f 45 72 81
f 81 68 41
f 80 86 81
f 109 108 81
f 81 86 85
f 101 106 81
f 81 72 101
f 85 84 81
f 81 84 68
f 81 108 107
f 107 103 81
f 48 79 49
f 49 79 80

