# https://github.com/mikedh/trimesh
v -0.00438464 0.00811265 0.03358300
v -0.00549362 0.00811265 0.03358300
v -0.00404175 0.00765155 0.03358300
v -0.00404175 0.00811265 0.03358175
v -0.00604811 0.00811265 0.03356174
v -0.00549362 0.00543316 0.03358300
v -0.00404175 0.00598727 0.03358300
v -0.00404175 0.00811265 0.02971509
v -0.00649226 0.00811265 0.03332914
v -0.00604811 0.00765155 0.03354549
v -0.00438464 -0.00565088 0.03352423
v -0.00549362 0.00432496 0.03357050
v -0.00549362 0.00487906 0.03357925
v -0.00404175 -0.00565088 0.03355424
v -0.00493913 0.00543316 0.03358300
v -0.00778351 0.00811265 0.02080751
v -0.00404175 -0.00384609 0.02080751
v -0.00677230 0.00811265 0.03280767
v -0.00646223 0.00765155 0.03331289
v -0.00604811 0.00709547 0.03351297
v -0.00481063 -0.00509678 0.03332039
v -0.00424776 -0.00953159 0.03331414
v -0.00404175 -0.00953159 0.03342919
v -0.00404175 -0.00897748 0.03345670
v -0.00404175 -0.00842140 0.03347546
v -0.00404175 -0.00620499 0.03354424
v -0.01117609 0.00811265 0.02080751
v -0.00404175 -0.01206859 0.02080751
v -0.00639100 0.00654137 0.03323410
v -0.00642661 0.00709547 0.03328037
v -0.00679744 0.00811265 0.03274014
v -0.00630929 0.00527683 0.03307528
v -0.00633303 0.00564689 0.03313406
v -0.00635538 0.00598727 0.03317533
v -0.00477502 -0.00565088 0.03329163
v -0.00421215 -0.01008569 0.03328412
v -0.00404175 -0.01008569 0.03338792
v -0.01075708 0.00517194 0.02091881
v -0.01066979 0.00811265 0.02218810
v -0.01004616 -0.00066791 0.02080751
v -0.00404175 -0.01210223 0.03228619
v -0.00405711 -0.01206463 0.02080751
v -0.00470378 -0.00675909 0.03319534
v -0.00417653 -0.01063979 0.03323910
v -0.00473940 -0.00620499 0.03325036
v -0.00662983 0.00709547 0.03284018
v -0.00683096 0.00811265 0.03264885
v -0.00686588 0.00803349 0.03252630
v -0.00648737 0.00598727 0.03284018
v -0.00441886 -0.01008569 0.03284018
v -0.00465350 -0.00752890 0.03309529
v -0.00467795 -0.00715883 0.03314907
v -0.00414091 -0.01119389 0.03318158
v -0.00404175 -0.01063979 0.03332914
v -0.01067747 0.00709547 0.02181044
v -0.00912225 -0.00731319 0.02099509
v -0.00964112 -0.00197797 0.02145278
v -0.00720597 -0.00897748 0.02563583
v -0.01017745 0.00811265 0.02352993
v -0.00905381 -0.00837786 0.02080751
v -0.00404175 -0.01209233 0.03251754
v -0.00416256 -0.01206265 0.03228619
v -0.00442794 -0.01195777 0.02080751
v -0.00423170 -0.01201515 0.02080751
v -0.00404175 -0.01119389 0.03325536
v -0.00735332 0.00811265 0.03122574
v -0.00738266 0.00543316 0.03020655
v -0.00687914 0.00349578 0.03089935
v -0.00654813 0.00487906 0.03228619
v -0.00447961 -0.01119389 0.03228619
v -0.00427570 -0.01119389 0.03284018
v -0.00411787 -0.01154021 0.03313781
v -0.00404175 -0.01159958 0.03318908
v -0.00742386 -0.00973146 0.02477671
v -0.00665637 -0.01008569 0.02674381
v -0.00640566 0.00044425 0.03111944
v -0.00904962 -0.00840953 0.02080751
v -0.00801815 -0.00953159 0.02322480
v -0.00404175 -0.01208244 0.03273889
v -0.00413812 -0.01205275 0.03267636
v -0.00538258 -0.01157781 0.02895976
v -0.00542867 -0.01157781 0.02840578
v -0.00493913 -0.01177570 0.02951375
v -0.00493913 -0.01178758 0.02895976
v -0.00493913 -0.01178758 0.02080751
v -0.00706281 -0.01008569 0.02563583
v -0.00617800 -0.01063979 0.02785179
v -0.00528970 -0.01115432 0.03009025
v -0.00488605 -0.01119389 0.03117697
v -0.00519333 -0.01131461 0.03029034
v -0.00407806 -0.01191027 0.03304527
v -0.00404175 -0.01188059 0.03309029
v -0.00904752 -0.00842140 0.02080751
v -0.00799581 -0.00982249 0.02316477
v -0.00640287 -0.01063979 0.02723402
v -0.00630231 -0.01063979 0.02751164
v -0.00404175 -0.01194985 0.03301276
v -0.00526316 -0.01152636 0.02992018
v -0.00531833 -0.01156593 0.02951375
v -0.00571988 -0.01143731 0.02785179
v -0.00544264 -0.01157781 0.02785179
v -0.00571988 -0.01144720 0.02729655
v -0.00544264 -0.01157781 0.02508060
v -0.00544194 -0.01157781 0.02452661
v -0.00543985 -0.01157781 0.02397262
v -0.00543496 -0.01157781 0.02286339
v -0.00543007 -0.01157781 0.02175541
v -0.00542588 -0.01157781 0.02080751
v -0.00636446 -0.01096434 0.02713023
v -0.00890436 -0.00895967 0.02080751
v -0.00880240 -0.00897748 0.02120018
v -0.00803282 -0.00986207 0.02286339
v -0.00744621 -0.01037461 0.02429526
v -0.00859220 -0.00932182 0.02161661
v -0.00640985 -0.01099996 0.02674381
v -0.00604811 -0.01126316 0.02618982
v -0.00645245 -0.01100985 0.02618982
v -0.00647201 -0.01100985 0.02563583
v -0.00571988 -0.01144720 0.02508060
v -0.00571709 -0.01144522 0.02397262
v -0.00550689 -0.01153625 0.02080751
v -0.00863969 -0.00936338 0.02120018
v -0.00865924 -0.00936733 0.02080751
v -0.00807472 -0.00989373 0.02230940
v -0.00745808 -0.01038253 0.02397262
v -0.00604811 -0.01126118 0.02452661
v -0.00647340 -0.01100985 0.02508060
v -0.00746506 -0.01038451 0.02341863
v -0.00715639 -0.01058042 0.02397262
v -0.00715639 -0.01058240 0.02341863
v -0.00604811 -0.01125920 0.02397262
v -0.00604811 -0.01125326 0.02286339
v -0.00570312 -0.01143533 0.02080751
v -0.00857753 -0.00944847 0.02080751
v -0.00808310 -0.00989373 0.02175541
v -0.00774300 -0.01017078 0.02230940
v -0.00647340 -0.01100787 0.02397262
v -0.00647201 -0.01100590 0.02286339
v -0.00715639 -0.01058240 0.02080751
v -0.00746646 -0.01038451 0.02286339
v -0.00646642 -0.01099996 0.02080751
v -0.00604811 -0.01124337 0.02120018
v -0.00594755 -0.01129680 0.02080751
v -0.00835965 -0.00964636 0.02080751
v -0.00808310 -0.00989373 0.02120018
v -0.00774300 -0.01017078 0.02120018
v -0.00754677 -0.01032316 0.02080751
v -0.00674506 -0.01083571 0.02120018
v -0.00674367 -0.01083571 0.02080751
v -0.00746646 -0.01038451 0.02080751
v -0.00604811 -0.01123941 0.02080751
v -0.00808240 -0.00989175 0.02080751
v -0.00798324 -0.00997289 0.02080751
v -0.00774300 -0.01016880 0.02080751
f 8 17 16
f 10 5 9
f 9 20 10
f 10 11 5
f 20 11 10
f 94 90 95
f 33 34 18
f 23 11 22
f 5 6 2
f 5 11 12
f 128 129 118
f 98 90 109
f 109 90 94
f 109 94 113
f 116 100 118
f 118 100 117
f 110 111 93
f 93 94 77
f 93 111 94
f 123 122 110
f 110 122 114
f 114 111 110
f 94 111 114
f 113 122 124
f 122 123 124
f 124 123 134
f 134 135 124
f 58 57 56
f 56 74 58
f 32 33 18
f 96 90 88
f 96 95 90
f 88 90 89
f 89 90 72
f 70 89 72
f 88 89 70
f 77 94 78
f 94 95 78
f 95 96 78
f 72 92 73
f 23 22 37
f 37 22 36
f 98 80 91
f 91 90 98
f 91 92 72
f 72 90 91
f 99 80 98
f 98 109 99
f 84 85 62
f 62 79 80
f 85 63 62
f 62 63 41
f 9 18 19
f 18 30 19
f 19 20 9
f 18 34 29
f 29 30 18
f 34 43 29
f 43 44 29
f 21 11 20
f 21 22 11
f 20 19 21
f 21 19 22
f 34 33 52
f 14 7 15
f 15 6 14
f 3 4 1
f 24 11 23
f 24 25 11
f 14 11 26
f 11 25 26
f 13 6 5
f 5 12 13
f 14 6 13
f 13 11 14
f 13 12 11
f 120 108 119
f 41 63 64
f 119 108 107
f 108 85 107
f 104 103 119
f 119 105 104
f 85 103 104
f 104 105 85
f 144 135 134
f 129 128 130
f 118 129 130
f 102 116 119
f 100 116 102
f 115 117 100
f 100 99 115
f 115 99 109
f 115 109 113
f 113 117 115
f 112 122 113
f 112 114 122
f 113 94 112
f 94 114 112
f 113 124 125
f 125 117 113
f 125 128 118
f 118 117 125
f 31 32 18
f 48 69 49
f 49 31 48
f 49 70 50
f 69 70 49
f 50 32 49
f 58 74 75
f 75 70 58
f 76 69 58
f 58 70 76
f 76 70 69
f 71 70 72
f 50 70 71
f 88 70 87
f 87 96 88
f 54 37 36
f 36 44 54
f 54 44 65
f 53 44 43
f 53 52 72
f 72 73 53
f 53 43 34
f 34 52 53
f 53 73 65
f 65 44 53
f 36 30 45
f 45 44 36
f 30 29 45
f 45 29 44
f 92 91 97
f 80 79 97
f 97 91 80
f 61 62 41
f 79 62 61
f 82 101 84
f 82 102 101
f 100 102 82
f 36 22 35
f 22 19 35
f 35 30 36
f 35 19 30
f 33 32 51
f 51 52 33
f 72 52 51
f 51 32 50
f 51 71 72
f 50 71 51
f 108 120 121
f 121 120 133
f 133 120 132
f 141 138 149
f 127 116 118
f 118 130 127
f 127 130 139
f 42 28 41
f 41 64 42
f 106 105 119
f 119 107 106
f 85 105 106
f 106 107 85
f 145 144 152
f 135 144 145
f 145 154 146
f 136 124 135
f 128 125 136
f 136 125 124
f 140 130 128
f 128 136 140
f 56 40 60
f 74 56 60
f 77 78 60
f 60 78 74
f 47 66 48
f 48 31 47
f 27 40 38
f 38 57 58
f 38 56 57
f 38 40 56
f 67 59 58
f 66 59 67
f 48 66 67
f 32 31 46
f 46 49 32
f 31 49 46
f 86 78 96
f 96 87 86
f 74 78 86
f 86 75 74
f 70 75 86
f 86 87 70
f 84 62 83
f 83 82 84
f 62 82 83
f 81 62 80
f 81 82 62
f 80 99 81
f 81 99 100
f 100 82 81
f 142 132 141
f 133 132 142
f 131 138 141
f 141 132 131
f 131 132 120
f 139 149 148
f 146 154 147
f 147 136 146
f 150 140 147
f 147 140 136
f 153 145 152
f 154 145 153
f 27 38 39
f 58 59 39
f 68 67 58
f 48 67 68
f 58 69 68
f 68 69 48
f 133 142 143
f 116 127 126
f 119 116 126
f 138 131 126
f 126 120 119
f 126 131 120
f 55 38 58
f 58 39 55
f 55 39 38
f 151 142 141
f 151 143 142
f 138 126 137
f 137 126 127
f 137 149 138
f 137 148 149
f 137 127 139
f 139 148 137
f 101 103 85
f 101 85 84
f 1 7 3
f 6 15 1
f 1 2 6
f 1 15 7
f 103 101 102
f 119 103 102
f 28 17 61
f 61 73 92
f 41 28 61
f 61 4 3
f 17 8 61
f 3 7 61
f 8 4 61
f 23 37 61
f 92 97 61
f 61 7 14
f 61 24 23
f 65 73 61
f 14 26 61
f 61 54 65
f 25 24 61
f 61 26 25
f 37 54 61
f 61 97 79
f 136 145 146
f 135 145 136
f 150 139 140
f 139 130 140
f 39 16 27
f 9 5 39
f 39 8 16
f 5 2 39
f 39 18 9
f 39 4 8
f 39 31 18
f 2 1 39
f 39 1 4
f 66 47 39
f 39 59 66
f 39 47 31
f 151 144 134
f 27 16 151
f 16 17 151
f 151 17 28
f 151 40 27
f 28 42 151
f 110 93 151
f 151 123 110
f 151 139 150
f 151 85 108
f 151 153 152
f 108 121 151
f 151 63 85
f 141 149 151
f 151 93 77
f 134 123 151
f 151 64 63
f 152 144 151
f 77 60 151
f 151 121 133
f 151 149 139
f 151 42 64
f 150 147 151
f 151 60 40
f 151 147 154
f 154 153 151
f 133 143 151

