# https://github.com/mikedh/trimesh
v 0.01372481 -0.00716499 0.01675937
v 0.01501737 -0.00710201 0.01664005
v 0.01372481 -0.00716149 0.01731618
v 0.01372481 -0.00701455 0.01650880
v 0.01406328 -0.00707053 0.01645312
v 0.01446304 -0.00710901 0.01640142
v 0.01501737 -0.00710201 0.01637358
v 0.01537716 -0.00706003 0.01653664
v 0.01372481 -0.00484188 0.03315744
v 0.01372481 -0.00472993 0.01432531
v 0.01379677 -0.00474742 0.01431735
v 0.01416721 -0.00482439 0.01426565
v 0.01889771 -0.00653523 0.01475883
v 0.01446304 -0.00486637 0.01422190
v 0.01633925 -0.00482789 0.01370089
v 0.03239628 -0.00483838 0.00981912
v 0.02790298 -0.00540517 0.01146569
v 0.03275340 -0.00484538 0.00979923
v 0.02831873 -0.00541216 0.01144183
v 0.02388672 -0.00597895 0.01308839
v 0.01981450 -0.00650724 0.01476280
v 0.01537716 -0.00706003 0.01641733
v 0.03310786 -0.00483489 0.00980719
v 0.02868118 -0.00539467 0.01146171
v 0.02425183 -0.00595096 0.01311226
v 0.01981450 -0.00650724 0.01487417
v 0.04053274 0.00194201 0.02284054
v 0.04050609 0.00224639 0.02342916
v 0.01372481 -0.00480690 0.03322108
v 0.02425183 -0.00595096 0.01321566
v 0.02868118 -0.00539467 0.01154921
v 0.03310786 -0.00483489 0.00988276
v 0.03588752 -0.00433108 0.00900777
v 0.03582356 -0.00427510 0.00930606
v 0.01372481 0.01567773 -0.00126141
v 0.02747390 0.01734659 -0.00624089
v 0.02800159 -0.00316603 0.00927424
v 0.02351628 -0.00373981 0.01092081
v 0.03286267 -0.00263773 0.00757995
v 0.03607941 -0.00216541 0.00638280
v 0.03552507 -0.00435557 0.00863789
v 0.03589552 -0.00434158 0.00864584
v 0.03552507 -0.00441855 0.00900777
v 0.04090052 0.00220791 0.02286042
v 0.04085521 0.00231636 0.02325417
v 0.04031420 0.00235835 0.02372348
v 0.01372481 -0.00468444 0.03331255
v 0.01372481 0.01596112 -0.00145232
v 0.01635524 0.01622352 -0.00237106
v 0.02084588 0.01680080 -0.00401762
v 0.02357224 0.01733259 -0.00513920
v 0.02726070 0.01761248 -0.00636021
v 0.02776440 0.01762648 -0.00644771
v 0.03618068 -0.00156714 0.00590951
v 0.03602877 -0.00175957 0.00608053
v 0.03552507 -0.00210594 0.00646235
v 0.03521859 -0.00206045 0.00650610
v 0.03249223 -0.00259575 0.00763563
v 0.03644186 -0.00156714 0.00590951
v 0.03663374 -0.00212693 0.00640667
v 0.03692690 -0.00206745 0.00648223
v 0.03636191 -0.00371532 0.00980321
v 0.04086321 0.00224639 0.02230759
v 0.04094849 0.00266623 0.02286042
v 0.04086587 0.00266623 0.02328598
v 0.04050609 0.00271171 0.02358825
v 0.04031420 0.00256127 0.02372348
v 0.03915490 0.00237234 0.02425643
v 0.01445504 -0.00397422 0.03332846
v 0.01388738 -0.00452700 0.03332051
v 0.01372481 -0.00453050 0.03338414
v 0.01372481 0.01648942 -0.00171481
v 0.01422585 0.01626900 -0.00179038
v 0.01459363 0.01617804 -0.00184208
v 0.01778904 0.01661187 -0.00303128
v 0.02629861 0.01786789 -0.00626078
v 0.02665839 0.01779092 -0.00630850
v 0.02723405 0.01820376 -0.00666247
v 0.02742860 0.01840668 -0.00680963
v 0.02779904 0.01820376 -0.00672213
v 0.02805755 0.01733959 -0.00625282
v 0.02814284 0.01762648 -0.00634828
v 0.03637523 -0.00045807 0.00538054
v 0.03693756 -0.00177006 0.00645041
v 0.04089785 0.00266623 0.02230759
v 0.04083656 0.00307557 0.02286042
v 0.04082590 0.00303359 0.02321837
v 0.04080724 0.00300210 0.02199736
v 0.04082323 0.00305108 0.02230759
v 0.04022892 0.00292863 0.02369166
v 0.03915490 0.00241083 0.02425643
v 0.01446304 -0.00066099 0.03357107
v 0.01446304 -0.00343192 0.03345573
v 0.01390870 -0.00398821 0.03354323
v 0.01372481 -0.00417364 0.03353925
v 0.01372481 0.01680080 -0.00180629
v 0.01528921 0.01679030 -0.00235913
v 0.01695221 0.01679380 -0.00291196
v 0.01723471 0.01673082 -0.00295173
v 0.02459829 0.01782940 -0.00572385
v 0.02734598 0.01873555 -0.00684145
v 0.02776440 0.02039741 -0.00704429
v 0.02763647 0.01840668 -0.00680963
v 0.01975853 0.01742356 -0.00400967
v 0.02423051 0.01807081 -0.00566022
v 0.02800692 0.01852214 -0.00678179
v 0.03529055 0.00231986 0.00370613
v 0.03363554 0.00729145 0.00092606
v 0.03197787 0.01225954 -0.00185402
v 0.03139155 0.01441821 -0.00294775
v 0.03305456 0.00947111 -0.00017166
v 0.03249756 0.02261556 -0.00128130
v 0.03637523 -0.00022016 0.00538054
v 0.03306788 0.02317185 -0.00021143
v 0.03692957 -0.00133973 0.00646235
v 0.03700419 -0.00117879 0.00674473
v 0.04073795 0.00332748 0.02230759
v 0.04059937 0.00377181 0.02230759
v 0.04027689 0.00473743 0.02175078
v 0.03986114 0.00598995 0.02119794
v 0.03917089 0.00805416 0.02008830
v 0.03972522 0.00637830 0.02119794
v 0.04052474 0.00321902 0.02333371
v 0.03971190 0.00632233 0.02151612
v 0.04022892 0.00460099 0.02257406
v 0.03318781 0.02317185 0.00013857
v 0.03311052 0.02377362 0.00008686
v 0.03325710 0.02372464 0.00069140
v 0.03324378 0.02427742 0.00124821
v 0.03331573 0.02427742 0.00180105
v 0.04040482 0.00432809 0.02175078
v 0.03315849 0.02483371 0.00180105
v 0.03296661 0.02545997 0.00180105
v 0.04034618 0.00358988 0.02319849
v 0.03967725 0.00571006 0.02202918
v 0.01372481 0.00174608 0.03315346
v 0.01372481 0.00151867 0.03326085
v 0.01390870 0.00100087 0.03343187
v 0.01446304 -0.00010820 0.03349550
v 0.01390870 0.00044808 0.03355914
v 0.01390870 -0.00010820 0.03357903
v 0.01390870 -0.00343192 0.03357903
v 0.01372481 -0.00398821 0.03355516
v 0.01372481 0.01691275 -0.00183015
v 0.01446304 0.01707369 -0.00211254
v 0.01495341 0.01707369 -0.00228356
v 0.02000638 0.01929184 -0.00435569
v 0.02685028 0.01984463 -0.00682157
v 0.02721273 0.01984463 -0.00694486
v 0.02721273 0.02039741 -0.00701645
v 0.01511864 0.01762648 -0.00241878
v 0.01449235 0.01817227 -0.00227560
v 0.02776440 0.02090122 -0.00693690
v 0.02810019 0.02084874 -0.00686531
v 0.02811885 0.02039741 -0.00688520
v 0.02805222 0.01889299 -0.00680168
v 0.02779904 0.01871806 -0.00683747
v 0.02915023 0.02178288 -0.00568010
v 0.03139155 0.01469111 -0.00294775
v 0.03187660 0.02427742 -0.00229947
v 0.03204450 0.02427742 -0.00202106
v 0.03232966 0.02372464 -0.00153584
v 0.03248956 0.02317185 -0.00127334
v 0.03267079 0.02261556 -0.00097108
v 0.03265480 0.02317185 -0.00097108
v 0.03263880 0.02372464 -0.00097108
v 0.03235098 0.02424943 -0.00147221
v 0.03247091 0.02441737 -0.00124153
v 0.03246558 0.02483371 -0.00122562
v 0.03305189 0.02361968 -0.00017961
v 0.04003704 0.00543717 0.02119794
v 0.03836870 0.01042625 0.01842582
v 0.03429648 0.02261556 0.01177989
v 0.03250822 0.02796500 0.00900777
v 0.03250022 0.02793352 0.00932594
v 0.03416589 0.02295493 0.01210204
v 0.03470690 0.02125109 0.01317987
v 0.03303590 0.02622967 0.01039979
v 0.03249756 0.02735274 0.00985492
v 0.03302791 0.02399053 -0.00013188
v 0.03300126 0.02432291 0.00008686
v 0.03289998 0.02483371 0.00013857
v 0.03299592 0.02486869 0.00065163
v 0.03306255 0.02470776 0.00080674
v 0.03302258 0.02507861 0.00104537
v 0.03304123 0.02514509 0.00141526
v 0.03279071 0.02594278 0.00124821
v 0.03262015 0.02649557 0.00124821
v 0.03281737 0.02594278 0.00180105
v 0.01539848 0.02625066 0.01540711
v 0.01372481 0.02577485 0.01619460
v 0.03219907 0.02742621 0.00990264
v 0.03194589 0.02844782 0.00929413
v 0.02474754 0.02733875 0.01206625
v 0.01372481 0.00100087 0.03347562
v 0.01372481 0.00044808 0.03356709
v 0.01372481 -0.00010820 0.03357903
v 0.01372481 -0.00361735 0.03357903
v 0.01372481 0.01712617 -0.00186197
v 0.02356691 0.02001256 -0.00569601
v 0.02520326 0.01994959 -0.00626078
v 0.01462561 0.01873555 -0.00239890
v 0.02676766 0.02039741 -0.00685338
v 0.02680497 0.02073678 -0.00684145
v 0.02721273 0.02081725 -0.00691702
v 0.02356691 0.02014901 -0.00569601
v 0.01390870 0.01818277 -0.00207277
v 0.02776440 0.02117761 -0.00671020
v 0.02831873 0.02137704 -0.00639600
v 0.02915023 0.02178638 -0.00568010
v 0.03030421 0.02347623 -0.00405342
v 0.03138889 0.02407100 -0.00293582
v 0.03202850 0.02483371 -0.00196936
v 0.03229768 0.02483371 -0.00152391
v 0.03254020 0.02538650 -0.00087960
v 0.03259616 0.02483371 -0.00094721
v 0.03255619 0.02703086 0.00346352
v 0.03248423 0.02790903 0.00789812
v 0.03336370 0.02538650 0.01011741
v 0.03262548 0.02760464 0.00900777
v 0.03249489 0.02794751 0.00845493
v 0.03235897 0.02822391 0.00845493
v 0.03230034 0.02824140 0.00900777
v 0.03266279 0.02538650 -0.00041426
v 0.03250022 0.02571187 -0.00078017
v 0.03277739 0.02538650 0.00013857
v 0.03264947 0.02594278 0.00013857
v 0.03288399 0.02538650 0.00069140
v 0.03274541 0.02594278 0.00069140
v 0.03248956 0.02679296 0.00091810
v 0.03250289 0.02682794 0.00124821
v 0.03251621 0.02689092 0.00180105
v 0.03245492 0.02726527 0.00291069
v 0.03252954 0.02695040 0.00235388
v 0.03241227 0.02756616 0.00396465
v 0.01808220 0.02677546 0.01427361
v 0.01501737 0.02628565 0.01545484
v 0.01372481 0.02589030 0.01610313
v 0.01390870 0.02587281 0.01607529
v 0.02746058 0.02787404 0.01093672
v 0.03202317 0.02848980 0.00900777
v 0.03164473 0.02853878 0.00900777
v 0.03164473 0.02846881 0.00932594
v 0.02709546 0.02790553 0.01098047
v 0.02258350 0.02734224 0.01262704
v 0.01372481 0.01781541 -0.00195743
v 0.01372481 0.01818976 -0.00200913
v 0.01390870 0.01873555 -0.00212447
v 0.01463094 0.01907142 -0.00239492
v 0.01909759 0.01961372 -0.00404547
v 0.02568564 0.02072279 -0.00629260
v 0.02718075 0.02111464 -0.00650736
v 0.02234898 0.02018749 -0.00518693
v 0.02776440 0.02134905 -0.00643578
v 0.03016829 0.02347623 -0.00405342
v 0.03198586 0.02517658 -0.00187788
v 0.03240961 0.02766412 0.00457317
v 0.03223105 0.02816093 0.00457317
v 0.03305456 0.02630314 0.00956060
v 0.03208181 0.02852479 0.00845493
v 0.03202051 0.02851779 0.00457317
v 0.03202850 0.02852129 0.00512600
v 0.03203650 0.02852479 0.00568281
v 0.03248956 0.02623667 -0.00017166
v 0.03252954 0.02631714 0.00013857
v 0.03256152 0.02650956 0.00071924
v 0.03192190 0.02843732 0.00374193
v 0.03196987 0.02847581 0.00402033
v 0.03216709 0.02816093 0.00402033
v 0.01800758 0.02677546 0.01427361
v 0.01446304 0.02628915 0.01549859
v 0.01390870 0.02614920 0.01580483
v 0.01372481 0.02607223 0.01592017
v 0.03164473 0.02857727 0.00845493
v 0.03109040 0.02850380 0.00900777
v 0.03109040 0.02846881 0.00933788
v 0.02231966 0.02734224 0.01262704
v 0.01372481 0.01873555 -0.00205288
v 0.01372481 0.01884751 -0.00203299
v 0.01372481 0.01913440 -0.00192959
v 0.01789565 0.01963821 -0.00353240
v 0.02499539 0.02076477 -0.00583521
v 0.02552041 0.02084874 -0.00599828
v 0.02124830 0.02017000 -0.00463807
v 0.02734331 0.02127908 -0.00632043
v 0.02776706 0.02163944 -0.00593464
v 0.02917955 0.02288496 -0.00455455
v 0.02979784 0.02342025 -0.00396592
v 0.03131693 0.02512760 -0.00183413
v 0.03109040 0.02465878 -0.00251026
v 0.03164473 0.02517308 -0.00188186
v 0.03164473 0.02540049 -0.00152391
v 0.03219907 0.02624717 -0.00019154
v 0.03164473 0.02857727 0.00789812
v 0.03164473 0.02857377 0.00512600
v 0.03164473 0.02857027 0.00457317
v 0.03186061 0.02624017 -0.00017563
v 0.03179131 0.02681745 0.00089424
v 0.03164473 0.02781456 0.00275558
v 0.03169804 0.02824840 0.00351920
v 0.03155146 0.02838135 0.00384534
v 0.03122632 0.02847231 0.00421522
v 0.03169804 0.02848980 0.00402829
v 0.02634125 0.02788803 0.01096058
v 0.01446304 0.02636262 0.01510087
v 0.01372481 0.02623667 0.01557416
v 0.01390870 0.02625766 0.01552643
v 0.01372481 0.02616670 0.01575711
v 0.02166938 0.02729326 0.01233272
v 0.02631993 0.02789153 0.01067024
v 0.01446304 0.02636612 0.01454803
v 0.03073062 0.02844782 0.00931401
v 0.01889771 0.02693640 0.01343839
v 0.01372481 0.01941079 -0.00152391
v 0.01680830 0.01961721 -0.00297957
v 0.01644052 0.01953325 -0.00288810
v 0.01914823 0.02013152 -0.00348070
v 0.02610939 0.02108315 -0.00593464
v 0.01612604 0.01965920 -0.00251821
v 0.01403130 0.01962071 -0.00134096
v 0.02911026 0.02346224 -0.00348866
v 0.03052541 0.02442437 -0.00261765
v 0.03164473 0.02577135 -0.00088358
v 0.03164473 0.02561391 -0.00115800
v 0.03109040 0.02850380 0.00512600
v 0.02887306 0.02822041 0.00568281
v 0.01446304 0.02636612 0.01177989
v 0.03106109 0.02848281 0.00457317
v 0.03073062 0.02844782 0.00475612
v 0.02998173 0.02835686 0.00512600
v 0.03041081 0.02841633 0.00512600
v 0.03166339 0.02634513 0.00012664
v 0.02939542 0.02777258 0.00402033
v 0.03002437 0.02798250 0.00402033
v 0.03053607 0.02815043 0.00402033
v 0.03106109 0.02832537 0.00402829
v 0.03109040 0.02626816 0.00032947
v 0.02746058 0.02789153 0.00538850
v 0.02302590 0.02733875 0.00705098
v 0.01858856 0.02678246 0.00870948
v 0.02236763 0.02735274 0.00755608
v 0.01390870 0.02629265 0.01510087
v 0.01372481 0.02626466 0.01529177
v 0.01372481 0.02624367 0.01550654
v 0.01372481 0.01952975 -0.00131709
v 0.01387139 0.01946327 -0.00152391
v 0.01434044 0.01951575 -0.00171084
v 0.01372481 0.01980964 -0.00081994
v 0.01372481 0.02009303 -0.00031483
v 0.01778904 0.02636262 0.00843107
v 0.01847930 0.02515908 0.00587372
v 0.02554972 0.02779007 0.00678848
v 0.02111505 0.02721979 0.00845493
v 0.02166938 0.02729326 0.00845493
v 0.01889771 0.02693640 0.00956060
v 0.01501737 0.02643609 0.01122308
v 0.01390870 0.02629265 0.01177989
v 0.01794895 0.02679296 0.00923049
v 0.01759449 0.02676147 0.00956060
v 0.01889771 0.02668100 0.00833959
v 0.01777305 0.02666700 0.00903163
v 0.01372481 0.02626816 0.01510087
v 0.01372481 0.02015601 -0.00019949
v 0.01408993 0.02625066 0.01090888
v 0.01787166 0.02679995 0.00956060
v 0.01834338 0.02686293 0.00956060
v 0.01372481 0.02626816 0.01177989
v 0.01372481 0.02625066 0.01134239
v 0.01446304 0.02635912 0.01122308
f 68 93 69
f 34 27 9
f 68 69 46
f 86 87 64
f 179 125 178
f 367 369 368
f 192 136 179
f 12 10 35
f 102 156 106
f 92 93 68
f 123 90 87
f 87 125 123
f 135 136 90
f 90 125 135
f 179 136 135
f 135 125 179
f 27 34 33
f 33 34 9
f 9 27 28
f 87 90 66
f 87 86 122
f 89 86 64
f 124 125 87
f 87 122 124
f 61 83 84
f 106 108 107
f 107 83 106
f 108 83 107
f 106 156 110
f 179 178 175
f 196 197 141
f 275 242 274
f 136 192 193
f 193 192 179
f 179 175 193
f 193 175 223
f 193 242 243
f 243 242 276
f 242 275 276
f 2 3 1
f 1 7 2
f 9 3 2
f 2 8 9
f 11 4 10
f 11 10 12
f 12 4 11
f 6 7 1
f 16 18 6
f 94 69 93
f 94 95 69
f 142 92 141
f 198 94 142
f 93 92 142
f 142 94 93
f 134 125 90
f 90 123 134
f 134 123 125
f 43 23 42
f 42 33 43
f 45 28 27
f 46 28 45
f 46 47 29
f 9 28 29
f 29 28 46
f 70 46 69
f 70 47 46
f 69 95 70
f 67 66 90
f 46 66 67
f 121 122 86
f 88 89 64
f 177 178 125
f 125 124 177
f 177 175 178
f 124 175 177
f 42 61 62
f 106 83 82
f 109 83 108
f 109 110 83
f 109 108 106
f 106 110 109
f 84 83 113
f 112 113 83
f 176 124 122
f 122 175 176
f 176 175 124
f 141 92 140
f 140 196 141
f 140 92 139
f 195 196 140
f 139 138 140
f 140 138 195
f 91 138 139
f 91 92 68
f 139 92 91
f 90 138 91
f 91 67 90
f 195 138 137
f 90 136 137
f 137 138 90
f 190 237 238
f 236 237 190
f 274 242 260
f 223 222 260
f 236 193 245
f 9 8 26
f 7 21 22
f 25 21 7
f 20 23 7
f 7 6 20
f 1 4 5
f 5 6 1
f 5 4 12
f 103 79 102
f 153 102 150
f 200 206 150
f 202 206 200
f 150 102 101
f 102 79 101
f 104 151 101
f 152 101 151
f 160 112 110
f 156 102 155
f 155 110 156
f 143 94 198
f 95 94 143
f 23 43 32
f 9 31 32
f 32 33 9
f 32 43 33
f 27 33 44
f 44 45 27
f 44 33 42
f 44 63 64
f 64 45 44
f 42 62 44
f 44 61 63
f 44 62 61
f 87 66 65
f 64 87 65
f 65 45 64
f 65 66 46
f 46 45 65
f 71 70 95
f 47 70 71
f 174 175 122
f 122 121 174
f 174 121 173
f 173 220 174
f 223 175 174
f 174 222 223
f 85 61 84
f 63 61 85
f 64 63 85
f 85 88 64
f 120 119 173
f 86 119 120
f 173 121 120
f 120 121 86
f 86 89 117
f 173 119 172
f 89 88 130
f 130 132 89
f 130 88 129
f 59 82 83
f 83 61 59
f 59 40 54
f 79 103 80
f 106 82 80
f 80 103 106
f 37 38 12
f 57 56 58
f 56 57 36
f 36 35 49
f 36 57 58
f 58 37 36
f 12 35 36
f 36 37 12
f 54 40 55
f 55 40 56
f 55 36 54
f 56 36 55
f 41 40 42
f 16 40 41
f 41 18 16
f 42 23 41
f 23 18 41
f 58 56 39
f 56 40 39
f 39 40 16
f 39 37 58
f 83 110 111
f 111 112 83
f 110 112 111
f 113 112 164
f 368 369 359
f 359 358 368
f 369 367 359
f 364 363 368
f 368 358 364
f 272 308 273
f 238 237 273
f 273 237 272
f 136 190 191
f 136 193 194
f 194 190 136
f 242 193 241
f 241 260 242
f 241 193 223
f 223 260 241
f 277 245 276
f 276 304 277
f 244 193 243
f 244 245 193
f 243 276 244
f 276 245 244
f 312 276 275
f 275 304 312
f 312 304 276
f 30 31 9
f 9 26 30
f 7 23 24
f 24 25 7
f 19 18 23
f 23 20 19
f 19 6 18
f 19 20 6
f 16 5 15
f 15 39 16
f 38 37 15
f 37 39 15
f 13 5 16
f 6 5 13
f 145 151 104
f 145 97 144
f 157 102 106
f 106 103 157
f 157 103 102
f 286 320 321
f 253 251 204
f 203 204 150
f 150 206 203
f 203 206 204
f 249 253 204
f 248 247 278
f 202 247 248
f 248 249 202
f 278 249 248
f 150 148 201
f 201 200 150
f 149 148 150
f 150 101 149
f 149 101 148
f 105 79 104
f 104 101 105
f 105 101 79
f 215 169 214
f 159 160 110
f 212 160 159
f 102 153 154
f 154 155 102
f 84 113 114
f 113 164 114
f 116 85 84
f 88 85 116
f 118 119 86
f 86 117 118
f 119 118 131
f 131 118 117
f 131 117 89
f 230 267 268
f 185 130 129
f 60 59 61
f 40 59 60
f 60 61 42
f 42 40 60
f 53 59 54
f 54 36 53
f 79 80 53
f 104 79 100
f 100 97 104
f 98 97 100
f 75 99 76
f 76 99 98
f 98 100 76
f 76 100 79
f 268 296 261
f 261 222 258
f 358 359 329
f 367 356 365
f 365 359 367
f 302 267 301
f 303 296 268
f 268 267 303
f 302 296 303
f 303 267 302
f 361 364 358
f 257 235 258
f 313 304 275
f 274 260 294
f 342 313 311
f 342 362 343
f 271 306 308
f 271 308 272
f 271 237 236
f 272 237 271
f 238 191 239
f 239 190 238
f 239 191 190
f 240 194 193
f 190 194 240
f 240 193 236
f 236 190 240
f 14 5 12
f 14 15 5
f 12 38 14
f 38 15 14
f 16 6 17
f 17 13 16
f 6 13 17
f 104 97 146
f 146 145 104
f 97 145 146
f 199 145 144
f 199 152 151
f 151 145 199
f 144 97 96
f 97 72 96
f 73 97 98
f 73 72 97
f 320 348 349
f 319 347 317
f 317 282 319
f 317 318 282
f 317 347 320
f 317 320 286
f 286 318 317
f 204 251 252
f 252 208 204
f 204 208 205
f 205 208 153
f 150 204 205
f 205 153 150
f 153 208 209
f 209 154 153
f 250 206 202
f 202 249 250
f 204 206 250
f 250 249 204
f 280 249 279
f 279 249 278
f 281 249 280
f 253 249 281
f 280 316 281
f 251 253 281
f 202 200 147
f 200 201 147
f 147 152 202
f 147 201 148
f 148 101 147
f 101 152 147
f 167 114 166
f 155 154 210
f 212 159 210
f 129 88 128
f 88 127 128
f 166 114 165
f 165 114 164
f 165 167 166
f 164 167 165
f 216 169 215
f 126 127 88
f 88 116 126
f 84 114 115
f 115 116 84
f 115 126 116
f 171 172 119
f 119 131 171
f 258 230 269
f 269 230 268
f 269 261 258
f 268 261 269
f 258 235 233
f 266 230 229
f 229 185 227
f 224 227 226
f 226 227 183
f 82 59 81
f 59 53 81
f 81 80 82
f 81 53 80
f 49 75 51
f 75 76 51
f 263 260 222
f 341 329 302
f 358 329 341
f 328 296 302
f 302 329 328
f 328 329 296
f 296 329 330
f 330 329 359
f 300 267 299
f 299 301 300
f 300 301 267
f 220 259 218
f 218 257 258
f 173 172 218
f 310 275 274
f 310 313 275
f 274 311 309
f 311 313 309
f 309 310 274
f 313 310 309
f 356 327 355
f 296 325 295
f 295 325 294
f 295 263 296
f 295 294 260
f 260 263 295
f 357 356 367
f 357 327 356
f 305 342 343
f 313 342 305
f 304 313 305
f 343 344 305
f 305 344 306
f 270 271 236
f 270 305 306
f 270 277 304
f 304 305 270
f 152 199 207
f 207 247 202
f 202 152 207
f 72 73 48
f 49 35 48
f 346 345 348
f 346 348 320
f 320 347 346
f 314 345 346
f 319 314 346
f 346 347 319
f 350 349 363
f 363 364 350
f 364 361 350
f 360 338 350
f 350 351 320
f 320 349 350
f 319 282 315
f 315 314 319
f 315 281 316
f 280 314 315
f 315 316 280
f 251 282 283
f 283 252 251
f 208 252 254
f 286 287 254
f 254 287 288
f 169 114 168
f 168 167 169
f 114 167 168
f 161 214 169
f 169 167 161
f 160 214 161
f 167 162 161
f 112 160 161
f 161 162 112
f 110 155 158
f 155 210 158
f 180 128 127
f 181 128 180
f 180 224 181
f 180 216 215
f 127 126 180
f 182 128 181
f 181 224 182
f 182 224 226
f 226 183 182
f 182 183 128
f 188 229 230
f 299 267 298
f 298 297 299
f 267 297 298
f 267 230 264
f 227 185 228
f 228 183 227
f 185 183 228
f 184 185 129
f 184 183 185
f 129 128 184
f 128 183 184
f 50 36 49
f 49 51 50
f 50 51 36
f 36 51 52
f 52 51 76
f 76 77 52
f 79 53 52
f 52 53 36
f 262 261 296
f 296 263 262
f 222 261 262
f 262 263 222
f 340 361 358
f 358 341 340
f 340 341 302
f 360 350 340
f 340 350 361
f 359 365 352
f 352 330 359
f 221 174 220
f 220 218 221
f 221 218 258
f 258 222 221
f 222 174 221
f 173 218 219
f 219 218 259
f 219 220 173
f 219 259 220
f 217 218 172
f 257 218 217
f 235 257 217
f 217 188 235
f 306 271 307
f 307 270 306
f 271 270 307
f 247 207 246
f 246 207 199
f 74 73 98
f 74 48 73
f 98 99 74
f 49 48 74
f 74 75 49
f 74 99 75
f 351 350 333
f 299 337 333
f 333 350 338
f 320 351 333
f 333 321 320
f 333 337 321
f 251 281 284
f 281 315 284
f 284 282 251
f 284 315 282
f 252 283 285
f 285 318 286
f 282 318 285
f 285 283 282
f 286 254 285
f 285 254 252
f 163 167 164
f 163 162 167
f 163 164 112
f 112 162 163
f 170 180 126
f 170 115 114
f 126 115 170
f 216 180 170
f 170 114 169
f 169 216 170
f 231 188 230
f 231 230 258
f 258 233 231
f 229 188 187
f 234 233 235
f 235 188 234
f 234 188 233
f 293 297 267
f 267 264 293
f 256 293 264
f 265 230 266
f 265 264 230
f 227 264 265
f 266 229 265
f 265 229 227
f 321 337 322
f 286 321 322
f 322 287 286
f 79 52 78
f 78 52 77
f 78 76 79
f 78 77 76
f 339 338 360
f 360 340 339
f 302 338 339
f 339 340 302
f 353 352 365
f 354 355 327
f 336 335 338
f 302 301 336
f 336 338 302
f 336 301 299
f 299 335 336
f 133 171 131
f 89 132 133
f 133 131 89
f 132 187 133
f 133 187 188
f 338 335 334
f 334 333 338
f 334 335 299
f 299 333 334
f 233 188 232
f 232 231 233
f 188 231 232
f 186 187 132
f 229 187 186
f 185 229 186
f 132 130 186
f 130 185 186
f 215 256 225
f 225 256 264
f 225 180 215
f 224 180 225
f 227 224 225
f 225 264 227
f 215 214 213
f 213 256 215
f 213 214 160
f 213 160 212
f 212 256 213
f 255 254 288
f 208 254 255
f 293 256 292
f 292 324 297
f 297 293 292
f 297 324 323
f 366 353 365
f 366 365 356
f 356 355 366
f 355 354 366
f 366 354 353
f 331 325 296
f 352 353 326
f 353 354 326
f 330 352 326
f 296 330 326
f 326 331 296
f 327 294 326
f 326 354 327
f 294 325 326
f 325 331 326
f 188 217 189
f 189 133 188
f 189 217 172
f 172 171 189
f 171 133 189
f 211 209 208
f 208 255 211
f 154 209 211
f 211 210 154
f 212 210 211
f 211 256 212
f 211 255 256
f 256 255 291
f 291 292 256
f 332 322 337
f 332 323 322
f 332 337 299
f 299 297 332
f 297 323 332
f 289 323 324
f 322 323 289
f 324 292 289
f 288 287 289
f 287 322 289
f 289 255 288
f 290 291 255
f 292 291 290
f 255 289 290
f 290 289 292
f 197 198 142
f 141 197 142
f 46 67 91
f 68 46 91
f 22 2 7
f 8 2 22
f 22 26 8
f 21 26 22
f 30 26 21
f 21 25 30
f 23 32 24
f 24 32 31
f 24 30 25
f 31 30 24
f 294 327 311
f 294 311 274
f 367 362 357
f 362 342 357
f 311 327 357
f 357 342 311
f 245 277 270
f 236 245 270
f 158 210 159
f 158 159 110
f 343 362 246
f 246 367 368
f 246 191 238
f 368 363 246
f 1 3 246
f 246 314 280
f 246 345 314
f 246 137 136
f 246 4 1
f 197 196 246
f 246 198 197
f 9 29 246
f 246 71 95
f 246 3 9
f 10 4 246
f 246 35 10
f 246 344 343
f 246 143 198
f 246 196 195
f 246 199 144
f 363 349 246
f 246 29 47
f 195 137 246
f 238 273 246
f 278 247 246
f 95 143 246
f 47 71 246
f 246 362 367
f 246 273 308
f 308 306 246
f 136 191 246
f 280 279 246
f 144 96 246
f 306 344 246
f 246 48 35
f 246 96 72
f 348 345 246
f 246 349 348
f 246 279 278
f 72 48 246

