# https://github.com/mikedh/trimesh
v -0.01276852 -0.02675141 -0.00542847
v -0.00735832 -0.02675141 -0.00542847
v -0.01276852 -0.02675141 0.00053472
v -0.01276852 -0.01619390 -0.00542847
v -0.00735832 -0.02675141 -0.00413847
v 0.00033991 -0.01513587 -0.00542847
v 0.00033991 -0.01513729 -0.00161392
v -0.00782928 -0.02675141 0.00053472
v -0.01276852 -0.01619390 0.00053472
v -0.01272874 -0.01597093 -0.00542847
v -0.00735961 -0.02675141 -0.00383669
v 0.00033991 -0.01513729 0.00053472
v 0.00033991 -0.01393157 -0.00542847
v -0.00736474 -0.02675141 -0.00353316
v -0.01271462 -0.01589424 0.00053472
v -0.01267997 -0.01570394 0.00053472
v -0.01267997 -0.01570394 -0.00542847
v 0.00033991 -0.01393157 0.00053472
v -0.00909328 -0.01224300 -0.00542847
v -0.01243616 -0.01530345 0.00053472
v -0.01256962 -0.01552216 -0.00542847
v -0.00909328 -0.01224300 0.00053472
v -0.00948852 -0.01239780 -0.00542847
v -0.01243616 -0.01530345 -0.00542847
v -0.01219106 -0.01505777 0.00053472
v -0.00948852 -0.01239780 0.00053472
v -0.00962327 -0.01251141 -0.00542847
v -0.00958477 -0.01247874 0.00053472
v -0.01219106 -0.01505777 -0.00542847
v -0.01145575 -0.01432212 0.00053472
v -0.01181250 -0.01467858 -0.00542847
v -0.00973363 -0.01260514 -0.00542847
v -0.00973363 -0.01260514 0.00053472
v -0.01037910 -0.01324563 0.00053472
v -0.01034060 -0.01320729 -0.00542847
v -0.00998386 -0.01285083 -0.00542847
v -0.00998386 -0.01285083 0.00053472
f 7 2 6
f 12 8 14
f 10 4 9
f 16 17 10
f 21 17 16
f 11 5 12
f 12 14 11
f 16 10 15
f 15 10 9
f 24 21 20
f 20 21 16
f 27 28 23
f 33 28 27
f 32 33 27
f 23 28 26
f 37 36 34
f 35 34 36
f 31 34 35
f 30 34 31
f 31 29 25
f 25 30 31
f 22 13 19
f 18 13 22
f 6 13 7
f 7 13 18
f 18 12 7
f 1 3 4
f 3 9 4
f 5 7 12
f 2 7 5
f 1 2 11
f 11 3 1
f 11 8 3
f 11 14 8
f 2 5 11
f 36 37 33
f 36 33 32
f 26 22 19
f 19 23 26
f 35 2 1
f 35 13 6
f 6 2 35
f 19 13 35
f 35 10 17
f 1 4 35
f 35 23 19
f 17 21 35
f 35 36 32
f 4 10 35
f 35 21 24
f 32 27 35
f 35 27 23
f 24 29 35
f 35 29 31
f 25 29 24
f 24 20 25
f 25 12 18
f 3 8 25
f 18 22 25
f 25 9 3
f 25 8 12
f 25 20 16
f 16 15 25
f 33 37 25
f 25 28 33
f 25 15 9
f 22 26 25
f 25 26 28
f 37 34 25
f 34 30 25

