# https://github.com/mikedh/trimesh
v 0.00776182 0.00772369 0.00044425
v 0.00754887 0.00772369 0.00911086
v 0.00754636 0.00813481 0.00911086
v 0.00777936 0.00814337 0.00044425
v 0.00784951 0.00743072 0.00044425
v 0.00768917 0.00728691 0.00911086
v 0.00756641 0.00856358 0.00911086
v 0.00787206 0.00853524 0.00044425
v 0.00996902 0.00409683 0.00044425
v 0.00817771 0.00652454 0.00911086
v 0.00770671 0.00891268 0.00911086
v 0.00791966 0.00873305 0.00044425
v 0.01020202 0.00395302 0.00044425
v 0.00983123 0.00400167 0.00911086
v 0.00774679 0.00898807 0.00911086
v 0.00802238 0.00898325 0.00044425
v 0.00801486 0.00896882 0.00044425
v 0.01021705 0.00394447 0.00044425
v 0.01021705 0.00390597 0.00911086
v 0.00816017 0.00926019 0.00911086
v 0.00822280 0.00925324 0.00044425
v 0.00821028 0.00923773 0.00044425
v 0.01061289 0.00385732 0.00044425
v 0.01063795 0.00385198 0.00044425
v 0.01063795 0.00385198 0.00911086
v 0.00828794 0.00928478 0.00911086
v 0.00853848 0.00931365 0.00044425
v 0.03245941 0.00385198 0.00044425
v 0.03078084 0.00385198 0.00911086
v 0.00853848 0.00931365 0.00911086
v 0.03245941 0.00931365 0.00044425
v 0.03285526 0.00394767 0.00044425
v 0.03245941 0.00385198 0.00718344
v 0.03119923 0.00385198 0.00886230
v 0.03119923 0.00385625 0.00911086
v 0.03095120 0.00931365 0.00911086
v 0.03245941 0.00931365 0.00718344
v 0.03287781 0.00926500 0.00044425
v 0.03287781 0.00395355 0.00044425
v 0.03287781 0.00395355 0.00592366
v 0.03287781 0.00396371 0.00634359
v 0.03245941 0.00386374 0.00760252
v 0.03203852 0.00385198 0.00802245
v 0.03162013 0.00385198 0.00844237
v 0.03162013 0.00385893 0.00886230
v 0.03163265 0.00392950 0.00911086
v 0.03137210 0.00931311 0.00911086
v 0.03162013 0.00931365 0.00844237
v 0.03245941 0.00931205 0.00760252
v 0.03287781 0.00926500 0.00592366
v 0.03203852 0.00931365 0.00802245
v 0.03289033 0.00926179 0.00044425
v 0.03310078 0.00409737 0.00044425
v 0.03311331 0.00410592 0.00592366
v 0.03284023 0.00400488 0.00718344
v 0.03310830 0.00411608 0.00634359
v 0.03240430 0.00401717 0.00844237
v 0.03203852 0.00386481 0.00844237
v 0.03280014 0.00401610 0.00760252
v 0.03206107 0.00398937 0.00888096
v 0.03196586 0.00404711 0.00911086
v 0.03162263 0.00928531 0.00911086
v 0.03162013 0.00931311 0.00886230
v 0.03203852 0.00931151 0.00844237
v 0.03237173 0.00925110 0.00844237
v 0.03271997 0.00923132 0.00792658
v 0.03276005 0.00925163 0.00760252
v 0.03287781 0.00925965 0.00634359
v 0.03309828 0.00920512 0.00592366
v 0.03309828 0.00920512 0.00044425
v 0.03311331 0.00410592 0.00044425
v 0.03311581 0.00412089 0.00044425
v 0.03314087 0.00436681 0.00592366
v 0.03312834 0.00436681 0.00634359
v 0.03309828 0.00413639 0.00661590
v 0.03274001 0.00407064 0.00795203
v 0.03231661 0.00407224 0.00875287
v 0.03204603 0.00418932 0.00911086
v 0.03180302 0.00926446 0.00911086
v 0.03204603 0.00926340 0.00886654
v 0.03229907 0.00923025 0.00872911
v 0.03276005 0.00898325 0.00800294
v 0.03289284 0.00898325 0.00760252
v 0.03308825 0.00919336 0.00655567
v 0.03252956 0.00898325 0.00844237
v 0.03309326 0.00919924 0.00634359
v 0.03312333 0.00898325 0.00592366
v 0.03312333 0.00899555 0.00044425
v 0.03314087 0.00436681 0.00044425
v 0.03314087 0.00856358 0.00592366
v 0.03312834 0.00856358 0.00634359
v 0.03310329 0.00436681 0.00664729
v 0.03301560 0.00436681 0.00718344
v 0.03293292 0.00436681 0.00760252
v 0.03277509 0.00436681 0.00802160
v 0.03256213 0.00436681 0.00844237
v 0.03235169 0.00436681 0.00880377
v 0.03219886 0.00436681 0.00901331
v 0.03210616 0.00436681 0.00911086
v 0.03192828 0.00923773 0.00911086
v 0.03206858 0.00898325 0.00911086
v 0.03217882 0.00898325 0.00899549
v 0.03233665 0.00898325 0.00878595
v 0.03277509 0.00856358 0.00802160
v 0.03293292 0.00856358 0.00760252
v 0.03256213 0.00856358 0.00844237
v 0.03301810 0.00856358 0.00718344
v 0.03309577 0.00898325 0.00660233
v 0.03311331 0.00898325 0.00634359
v 0.03314087 0.00856358 0.00044425
v 0.03310329 0.00856358 0.00664729
v 0.03307072 0.00478649 0.00685683
v 0.03301810 0.00478649 0.00718344
v 0.03235169 0.00856358 0.00880377
v 0.03219886 0.00856358 0.00901331
v 0.03210616 0.00856358 0.00911086
v 0.03208862 0.00877956 0.00911086
v 0.03307072 0.00856358 0.00685683
f 24 25 19
f 5 9 6
f 3 4 1
f 7 4 3
f 18 19 14
f 10 9 14
f 10 6 9
f 3 1 2
f 2 1 5
f 5 6 2
f 8 7 12
f 4 7 8
f 12 7 11
f 16 11 15
f 20 21 15
f 14 9 13
f 13 18 14
f 24 19 23
f 19 18 23
f 64 79 80
f 81 101 102
f 75 94 76
f 15 21 22
f 22 16 15
f 12 11 17
f 11 16 17
f 27 21 26
f 21 20 26
f 26 30 27
f 90 110 88
f 78 98 99
f 102 101 117
f 117 116 115
f 115 102 117
f 37 51 49
f 49 63 64
f 51 63 49
f 65 81 66
f 66 49 65
f 65 49 64
f 65 64 80
f 80 81 65
f 66 81 85
f 101 81 100
f 80 79 100
f 100 81 80
f 59 75 76
f 72 89 73
f 73 54 72
f 54 71 72
f 56 54 73
f 75 59 56
f 113 94 93
f 94 75 93
f 35 29 34
f 66 83 84
f 105 84 83
f 87 90 88
f 109 90 87
f 91 90 109
f 77 78 61
f 98 78 77
f 76 96 77
f 76 94 95
f 95 96 76
f 48 36 47
f 47 63 48
f 48 63 51
f 62 63 47
f 79 64 62
f 64 63 62
f 82 106 104
f 82 85 106
f 66 85 82
f 82 83 66
f 104 105 82
f 82 105 83
f 103 81 102
f 103 85 81
f 103 102 115
f 115 114 103
f 103 114 106
f 106 85 103
f 33 40 41
f 41 40 54
f 54 56 41
f 33 28 32
f 32 40 33
f 32 39 40
f 53 71 54
f 40 39 53
f 54 40 53
f 42 43 33
f 42 58 43
f 33 41 42
f 67 49 66
f 66 84 67
f 37 49 50
f 88 70 69
f 69 87 88
f 74 56 73
f 75 56 74
f 76 77 57
f 57 59 76
f 57 42 59
f 58 42 57
f 98 77 97
f 97 77 96
f 55 56 59
f 55 41 56
f 59 42 55
f 55 42 41
f 45 46 35
f 43 58 45
f 45 44 43
f 34 44 45
f 35 34 45
f 61 46 60
f 60 77 61
f 60 45 58
f 46 45 60
f 58 57 60
f 60 57 77
f 49 67 68
f 68 50 49
f 68 69 50
f 84 105 107
f 87 69 86
f 86 84 109
f 109 87 86
f 69 68 86
f 86 67 84
f 86 68 67
f 38 50 52
f 50 69 52
f 52 69 70
f 108 107 118
f 84 107 108
f 118 111 108
f 109 84 108
f 108 91 109
f 108 111 91
f 75 74 92
f 92 93 75
f 92 112 113
f 113 93 92
f 98 116 99
f 115 116 98
f 89 110 90
f 73 89 90
f 94 105 95
f 95 105 104
f 104 106 95
f 106 96 95
f 48 31 27
f 27 30 48
f 37 31 48
f 30 36 48
f 48 51 37
f 24 28 44
f 44 25 24
f 44 28 33
f 44 29 25
f 33 43 44
f 44 34 29
f 99 116 46
f 25 29 46
f 46 19 25
f 116 117 46
f 46 10 14
f 15 11 46
f 14 19 46
f 46 7 3
f 46 36 30
f 3 2 46
f 6 10 46
f 30 26 46
f 46 100 79
f 46 29 35
f 46 2 6
f 46 11 7
f 46 20 15
f 79 62 46
f 46 78 99
f 47 36 46
f 46 26 20
f 61 78 46
f 46 117 101
f 101 100 46
f 46 62 47
f 38 31 50
f 50 31 37
f 73 90 74
f 90 91 74
f 115 98 97
f 97 114 115
f 97 96 106
f 106 114 97
f 107 105 94
f 107 94 113
f 113 112 107
f 112 118 107
f 27 31 52
f 52 28 24
f 5 1 52
f 52 13 9
f 52 21 27
f 52 110 89
f 52 9 5
f 12 17 52
f 24 23 52
f 52 1 4
f 52 8 12
f 52 22 21
f 52 31 38
f 88 110 52
f 4 8 52
f 89 72 52
f 18 13 52
f 52 23 18
f 71 53 52
f 16 22 52
f 52 17 16
f 52 70 88
f 52 32 28
f 52 72 71
f 39 32 52
f 52 53 39
f 92 74 91
f 91 111 92
f 92 118 112
f 92 111 118

