# https://github.com/mikedh/trimesh
v 0.03164419 0.02857727 0.00845145
v 0.03108990 0.02850399 0.00900578
v 0.03164419 0.02853877 0.00900578
v 0.03208190 0.02852510 0.00845145
v 0.03164419 0.02857727 0.00817862
v 0.02776416 0.02807797 0.01011444
v 0.03072917 0.02844810 0.00931209
v 0.03108990 0.02846921 0.00933813
v 0.02631685 0.02789167 0.01066877
v 0.02194852 0.02732902 0.01233115
v 0.02633664 0.02788794 0.01095896
v 0.03164419 0.02846921 0.00932449
v 0.03194553 0.02844810 0.00929349
v 0.03202251 0.02848908 0.00900578
v 0.03207750 0.02852510 0.00817862
v 0.03229966 0.02824316 0.00900578
v 0.03235905 0.02822577 0.00845145
v 0.03221828 0.02837357 0.00817862
v 0.02776416 0.02807797 0.00817862
v 0.01372215 0.02627081 0.01451313
v 0.02665558 0.02790409 0.01097880
v 0.02231804 0.02734269 0.01262567
v 0.02258199 0.02734269 0.01262567
v 0.02709110 0.02790657 0.01097694
v 0.02000630 0.02707937 0.01288548
v 0.01560718 0.02651301 0.01451313
v 0.01723485 0.02672167 0.01399414
v 0.01889772 0.02693530 0.01343981
v 0.01763957 0.02676514 0.01399414
v 0.01800910 0.02677756 0.01427441
v 0.01808168 0.02677756 0.01427441
v 0.02746062 0.02787676 0.01093354
v 0.02025705 0.02676390 0.01370767
v 0.02474636 0.02734020 0.01206204
v 0.02960300 0.02783950 0.01036308
v 0.03099532 0.02796122 0.00988874
v 0.03136484 0.02788297 0.00983666
v 0.03164419 0.02782211 0.00979759
v 0.03219848 0.02742590 0.00990052
v 0.03249762 0.02735386 0.00985340
v 0.03250202 0.02793514 0.00932325
v 0.03250862 0.02796619 0.00900578
v 0.03235465 0.02820590 0.00817862
v 0.03249542 0.02794880 0.00845145
v 0.02631685 0.02789167 0.00817862
v 0.01372215 0.02627081 0.01177682
v 0.01372215 0.02409477 0.01451313
v 0.01612627 0.02658008 0.01399414
v 0.01616147 0.02657014 0.01451313
v 0.01671576 0.02658753 0.01451313
v 0.01726125 0.02655027 0.01451313
v 0.01778694 0.02651301 0.01451313
v 0.01818506 0.02641489 0.01451313
v 0.01829724 0.02652046 0.01440710
v 0.01988753 0.02682103 0.01376162
v 0.01889772 0.02635651 0.01436059
v 0.02004589 0.02654654 0.01391167
v 0.02776416 0.02753644 0.01108173
v 0.02998132 0.02775877 0.01030976
v 0.03215449 0.02700113 0.01019257
v 0.03230846 0.02670304 0.01034448
v 0.03440464 0.02042828 0.01386765
v 0.03386135 0.02246025 0.01268706
v 0.03496553 0.01932163 0.01443128
v 0.03417149 0.02238076 0.01263435
v 0.03303651 0.02622982 0.01039843
v 0.03470598 0.02125423 0.01317815
v 0.03416709 0.02295458 0.01210111
v 0.03417369 0.02298687 0.01177682
v 0.03583876 0.01800756 0.01451313
v 0.03262739 0.02760600 0.00900578
v 0.03249102 0.02792893 0.00817862
v 0.02249621 0.02739982 0.00817862
v 0.01787273 0.02680240 0.00956011
v 0.01446340 0.02636148 0.01122310
v 0.01372215 0.02625094 0.01134030
v 0.02000630 0.02707937 0.00900578
v 0.01834343 0.02686450 0.00956011
v 0.01372215 0.02122815 0.01151019
v 0.03555061 0.01593336 0.01451313
v 0.01866017 0.02622734 0.01451313
v 0.02884415 0.02756253 0.01075992
v 0.03097552 0.02629068 0.01099182
v 0.03367439 0.01975883 0.01451313
v 0.03440244 0.01944459 0.01451313
v 0.03496773 0.01919743 0.01451313
v 0.03533286 0.01915520 0.01436556
v 0.03527347 0.01965077 0.01380998
v 0.03567819 0.01831558 0.01451313
v 0.03595533 0.01765234 0.01451313
v 0.03336425 0.02538897 0.01011444
v 0.03305631 0.02630310 0.00956011
v 0.03259000 0.02760600 0.00817862
v 0.03416269 0.02296948 0.01122310
v 0.03582776 0.01799017 0.01399414
v 0.02182534 0.02730667 0.00817862
v 0.02111488 0.02721973 0.00845145
v 0.01759558 0.02676142 0.00956011
v 0.01408948 0.02625094 0.01090750
v 0.01372215 0.02595037 0.01111769
v 0.01794971 0.02679247 0.00922776
v 0.01372215 0.02119462 0.01145501
v 0.03567159 0.01588865 0.01451313
v 0.01946521 0.02588081 0.01451313
v 0.01966317 0.02619256 0.01425270
v 0.02174616 0.02489836 0.01451313
v 0.03518549 0.01903969 0.01451313
v 0.03540764 0.01879998 0.01451313
v 0.03611590 0.01711081 0.01451313
v 0.03574197 0.01826714 0.01399414
v 0.03260760 0.02727189 0.00817862
v 0.03581456 0.01794918 0.01368845
v 0.03525367 0.01958867 0.01260025
v 0.03359080 0.02457668 0.00982860
v 0.02138763 0.02723463 0.00817862
v 0.02056059 0.02713154 0.00845145
v 0.01372215 0.02127783 0.00817862
v 0.01777375 0.02666950 0.00902810
v 0.01778914 0.02636272 0.00842975
v 0.01760658 0.02617021 0.00823071
v 0.01763737 0.02615282 0.00817862
v 0.01740422 0.02589075 0.00817862
v 0.02083334 0.02712533 0.00817862
v 0.01889772 0.02682973 0.00861638
v 0.01858758 0.02678501 0.00870877
v 0.01372215 0.02106545 0.01122620
v 0.03606311 0.01590107 0.01451313
v 0.01372215 0.02100334 0.01111583
v 0.01372215 0.01998984 0.00931085
v 0.01372215 0.01946322 0.00837208
v 0.01372215 0.01935516 0.00817862
v 0.03619289 0.01654693 0.01451313
v 0.03261640 0.02700610 0.00817862
v 0.03583876 0.01762998 0.01366799
v 0.03525367 0.01952905 0.01260025
v 0.01794091 0.02627205 0.00817862
v 0.01778914 0.02621616 0.00817862
v 0.01837863 0.02659622 0.00849485
v 0.01910888 0.02666329 0.00817862
v 0.01978195 0.02687320 0.00817862
v 0.01960158 0.02682103 0.00817862
v 0.01926725 0.02674403 0.00822947
v 0.01929584 0.02672540 0.00817862
v 0.03584756 0.01622772 0.01426015
v 0.03610930 0.01591473 0.01451313
v 0.01385192 0.01939739 0.00817862
v 0.03612250 0.01600291 0.01451313
v 0.03583876 0.01727848 0.01368039
v 0.03246903 0.02680861 0.00817862
v 0.01668716 0.02034631 0.00817862
v 0.03194773 0.02642358 0.00817862
v 0.03222707 0.02654033 0.00817862
v 0.03243823 0.02677011 0.00817862
f 132 148 134
f 134 148 135
f 47 79 80
f 80 79 103
f 147 148 132
f 147 145 148
f 103 131 127
f 135 148 133
f 151 152 148
f 148 150 151
f 145 127 144
f 144 127 131
f 148 145 144
f 144 150 148
f 99 76 101
f 103 128 129
f 103 79 102
f 52 53 31
f 31 13 12
f 12 3 8
f 13 3 12
f 132 134 112
f 7 11 8
f 148 152 153
f 16 13 41
f 146 144 131
f 150 144 146
f 121 99 120
f 122 99 121
f 117 99 122
f 100 99 117
f 76 99 100
f 130 131 103
f 103 129 130
f 126 128 103
f 103 102 126
f 20 26 48
f 48 25 20
f 48 26 25
f 31 53 54
f 32 13 31
f 31 55 32
f 33 54 53
f 33 32 55
f 33 55 31
f 31 54 33
f 13 32 33
f 24 12 8
f 87 108 89
f 89 70 87
f 107 108 87
f 87 86 107
f 64 86 87
f 132 112 109
f 113 134 135
f 113 112 134
f 93 112 113
f 135 133 113
f 8 11 21
f 21 22 8
f 11 22 21
f 49 50 30
f 30 50 31
f 30 22 11
f 10 28 11
f 10 26 27
f 27 28 10
f 11 7 2
f 2 10 11
f 1 6 2
f 2 3 1
f 8 3 2
f 2 7 8
f 101 115 123
f 101 76 98
f 78 46 77
f 46 73 77
f 101 98 97
f 97 77 73
f 149 133 148
f 148 153 149
f 13 16 14
f 14 3 13
f 51 52 31
f 31 50 51
f 86 64 63
f 87 70 67
f 67 66 65
f 41 66 67
f 67 64 87
f 65 64 67
f 53 81 56
f 56 33 53
f 23 24 8
f 8 22 23
f 31 12 23
f 12 24 23
f 70 71 42
f 42 16 41
f 90 71 70
f 110 91 90
f 90 91 71
f 114 111 93
f 93 113 114
f 133 111 114
f 114 113 133
f 49 30 29
f 29 26 49
f 27 26 29
f 29 28 27
f 11 28 29
f 29 30 11
f 9 2 6
f 10 2 9
f 26 10 9
f 25 26 9
f 9 6 20
f 20 25 9
f 76 46 75
f 75 98 76
f 74 46 78
f 74 97 98
f 74 75 46
f 98 75 74
f 78 77 74
f 77 97 74
f 46 19 45
f 45 73 46
f 96 97 73
f 101 97 96
f 4 14 16
f 4 18 15
f 4 15 5
f 4 5 1
f 1 3 4
f 3 14 4
f 124 123 140
f 140 125 124
f 101 123 124
f 124 125 101
f 41 67 68
f 13 33 34
f 38 59 60
f 16 42 17
f 43 18 17
f 17 4 16
f 18 4 17
f 95 90 109
f 110 90 95
f 95 109 112
f 95 112 93
f 93 72 95
f 95 91 110
f 116 96 115
f 116 115 101
f 101 96 116
f 121 120 119
f 119 120 99
f 62 84 85
f 62 61 60
f 85 86 62
f 86 63 62
f 106 84 83
f 83 62 60
f 84 62 83
f 60 61 39
f 39 62 63
f 61 62 39
f 13 38 39
f 39 38 60
f 88 67 70
f 70 68 88
f 88 68 67
f 70 42 69
f 69 68 70
f 69 42 41
f 41 68 69
f 104 105 81
f 106 105 104
f 81 59 57
f 57 56 81
f 33 56 57
f 57 34 33
f 44 42 71
f 71 72 44
f 44 17 42
f 71 91 92
f 92 72 71
f 91 72 92
f 94 72 91
f 91 95 94
f 94 95 72
f 141 125 140
f 121 119 137
f 137 119 136
f 118 119 99
f 125 119 118
f 118 99 101
f 101 125 118
f 136 119 139
f 125 143 139
f 60 59 82
f 82 83 60
f 106 83 82
f 82 105 106
f 82 59 81
f 81 105 82
f 13 39 40
f 65 66 40
f 40 64 65
f 41 13 40
f 40 66 41
f 40 63 64
f 40 39 63
f 34 57 35
f 13 34 35
f 35 36 13
f 59 38 37
f 37 35 59
f 36 35 37
f 37 38 13
f 13 36 37
f 142 141 143
f 142 143 125
f 125 141 142
f 138 119 125
f 125 139 138
f 138 139 119
f 58 57 59
f 59 35 58
f 58 35 57
f 126 47 20
f 126 102 79
f 126 117 131
f 126 79 47
f 20 46 126
f 126 100 117
f 126 129 128
f 131 130 126
f 126 46 76
f 76 100 126
f 126 130 129
f 1 5 19
f 19 6 1
f 19 46 20
f 20 6 19
f 22 30 23
f 23 30 31
f 104 80 103
f 20 47 104
f 53 52 104
f 52 51 104
f 104 26 20
f 104 147 132
f 47 80 104
f 103 127 104
f 108 107 104
f 145 147 104
f 104 127 145
f 104 86 85
f 49 26 104
f 104 81 53
f 104 50 49
f 104 89 108
f 132 109 104
f 70 89 104
f 104 107 86
f 104 90 70
f 104 51 50
f 85 84 104
f 109 90 104
f 104 84 106
f 44 72 43
f 43 17 44
f 131 117 139
f 152 151 139
f 139 146 131
f 139 141 140
f 93 111 139
f 5 15 139
f 115 96 139
f 139 123 115
f 139 153 152
f 139 151 150
f 139 122 121
f 73 45 139
f 139 111 133
f 139 19 5
f 133 149 139
f 150 146 139
f 117 122 139
f 140 123 139
f 15 18 139
f 139 149 153
f 139 18 43
f 139 45 19
f 139 96 73
f 139 72 93
f 43 72 139
f 121 137 139
f 143 141 139
f 139 137 136

