# https://github.com/mikedh/trimesh
v 0.01372215 0.00289261 0.01136735
v 0.01372215 -0.00021730 0.01136735
v 0.01372215 0.00239670 0.01169295
v 0.03725089 0.00193322 0.01599376
v 0.03771444 0.00197137 0.01599376
v 0.03748506 0.00129236 0.01480274
v 0.03694266 0.00018801 0.01313169
v 0.03639309 -0.00092301 0.01147105
v 0.03620432 -0.00101742 0.01136735
v 0.01372215 -0.00029741 0.01141943
v 0.01380578 -0.00025354 0.01136735
v 0.01372215 -0.00319083 0.01535749
v 0.03663203 0.00172628 0.01599376
v 0.01372215 -0.00360949 0.01563192
v 0.01372215 -0.00403197 0.01590273
v 0.01372215 -0.00417216 0.01599194
v 0.03797489 0.00187505 0.01599376
v 0.03801073 0.00181592 0.01593941
v 0.03748984 0.00076116 0.01422308
v 0.03696416 -0.00031743 0.01251716
v 0.03645521 -0.00106988 0.01136735
v 0.01372215 -0.00430662 0.01404918
v 0.01446048 -0.00053582 0.01136735
v 0.01557157 -0.00101456 0.01136735
v 0.01728479 -0.00175270 0.01136735
v 0.03465358 0.00106443 0.01599376
v 0.01372215 -0.00439341 0.01599104
v 0.01398738 -0.00614338 0.01599376
v 0.01405428 -0.00586110 0.01599376
v 0.01531590 -0.00540715 0.01599376
v 0.01580812 -0.00524217 0.01599376
v 0.01667071 -0.00495321 0.01599376
v 0.02535391 -0.00204739 0.01599376
v 0.03803941 0.00176251 0.01599376
v 0.03807764 0.00151170 0.01599376
v 0.03804180 0.00144685 0.01587284
v 0.03694744 -0.00121769 0.01195652
v 0.03692354 -0.00090680 0.01202264
v 0.03658424 -0.00121960 0.01136735
v 0.01372215 -0.00468523 0.01429780
v 0.02121063 -0.00344355 0.01136735
v 0.01689293 -0.00429327 0.01314482
v 0.01372215 -0.00445539 0.01595209
v 0.01414747 -0.00632267 0.01599376
v 0.01372215 -0.00467092 0.01579133
v 0.01372215 -0.00489313 0.01552369
v 0.01372215 -0.00505334 0.01513604
v 0.01372215 -0.00497800 0.01457359
v 0.03813259 0.00099958 0.01599376
v 0.03807047 0.00099958 0.01579359
v 0.03708602 -0.00121769 0.01233149
v 0.03688053 -0.00177178 0.01158065
v 0.03680168 -0.00177178 0.01136735
v 0.01372215 -0.00473196 0.01432859
v 0.02166940 -0.00363619 0.01136735
v 0.02138267 -0.00371535 0.01149732
v 0.01416658 -0.00482637 0.01426565
v 0.01432907 -0.00646477 0.01599376
v 0.01501722 -0.00674992 0.01599376
v 0.01457757 -0.00660591 0.01599376
v 0.03808719 0.00048269 0.01599376
v 0.03802029 0.00016608 0.01537741
v 0.03802029 0.00017371 0.01537741
v 0.03676345 -0.00233444 0.01136735
v 0.03697850 -0.00177178 0.01185780
v 0.03696655 -0.00213226 0.01189131
v 0.02222136 -0.00383265 0.01136735
v 0.02166940 -0.00376971 0.01145702
v 0.01865633 -0.00425036 0.01262449
v 0.01633858 -0.00483019 0.01370320
v 0.01446287 -0.00486833 0.01422398
v 0.01557157 -0.00670223 0.01578227
v 0.01902669 -0.00430853 0.01256652
v 0.01556918 -0.00683003 0.01599376
v 0.01612592 -0.00674706 0.01570393
v 0.03805613 0.00037588 0.01599376
v 0.03802029 0.00016608 0.01539462
v 0.03749223 -0.00099072 0.01363436
v 0.03652451 -0.00280460 0.01136735
v 0.03748745 -0.00097928 0.01399393
v 0.03695699 -0.00211510 0.01233149
v 0.02222375 -0.00384886 0.01137867
v 0.02779591 -0.00523359 0.01136735
v 0.02790343 -0.00540525 0.01146381
v 0.01855358 -0.00650292 0.01480636
v 0.01889766 -0.00653725 0.01476198
v 0.01612592 -0.00685005 0.01599376
v 0.03799401 0.00019659 0.01576416
v 0.03788648 0.00023569 0.01599376
v 0.03691637 -0.00205311 0.01261724
v 0.03651017 -0.00269206 0.01165899
v 0.03613025 -0.00301536 0.01136735
v 0.03746594 -0.00094113 0.01427289
v 0.02831680 -0.00532991 0.01136735
v 0.02831919 -0.00541383 0.01144162
v 0.02388680 -0.00597840 0.01308640
v 0.01945201 -0.00654106 0.01473118
v 0.01723462 -0.00675850 0.01565683
v 0.01778896 -0.00669174 0.01565683
v 0.01722984 -0.00667553 0.01599376
v 0.03768816 0.00012316 0.01599376
v 0.03608007 -0.00303729 0.01136735
v 0.03757347 0.00006403 0.01599376
v 0.03740143 -0.00036512 0.01534209
v 0.03663203 -0.00194725 0.01298134
v 0.02876363 -0.00532228 0.01136735
v 0.02868000 -0.00539571 0.01145883
v 0.02424999 -0.00595265 0.01311176
v 0.01981520 -0.00650769 0.01476560
v 0.01981520 -0.00650769 0.01487655
v 0.01778896 -0.00655632 0.01599376
v 0.01830030 -0.00657540 0.01565321
v 0.03610875 -0.00248989 0.01232696
v 0.03594387 -0.00308307 0.01136735
v 0.03717921 -0.00007329 0.01599376
v 0.03720550 -0.00026117 0.01564505
v 0.03720550 -0.00054727 0.01513513
v 0.02998224 -0.00504953 0.01136735
v 0.02868000 -0.00539571 0.01154849
v 0.02424999 -0.00595265 0.01321411
v 0.02764059 -0.00542241 0.01214536
v 0.02443637 -0.00578385 0.01341563
v 0.02000158 -0.00633603 0.01507762
v 0.01876624 -0.00653057 0.01546617
v 0.01792755 -0.00651627 0.01599376
v 0.03606812 -0.00189575 0.01341110
v 0.03397259 -0.00374301 0.01136735
v 0.03641459 -0.00032983 0.01599376
v 0.03275398 -0.00155529 0.01599376
v 0.03222114 -0.00192818 0.01564732
v 0.03046013 -0.00491506 0.01136735
v 0.02886876 -0.00523168 0.01175092
v 0.02998224 -0.00491220 0.01166397
v 0.02780069 -0.00526792 0.01233058
v 0.02665615 -0.00543481 0.01271596
v 0.02222375 -0.00598698 0.01437524
v 0.02059177 -0.00610238 0.01514329
v 0.01838154 -0.00636464 0.01599376
v 0.02554984 -0.00530893 0.01360085
v 0.02998224 -0.00475675 0.01194112
v 0.03109333 -0.00470621 0.01136735
v 0.02056787 -0.00563317 0.01599376
v 0.03064889 -0.00485307 0.01136735
v 0.03097624 -0.00474531 0.01136735
v 0.02554984 -0.00546437 0.01332370
f 3 4 1
f 15 16 4
f 4 14 15
f 16 29 30
f 28 29 16
f 12 14 4
f 4 3 12
f 93 90 81
f 102 90 93
f 80 93 81
f 88 93 80
f 18 17 34
f 1 4 5
f 83 84 67
f 48 28 47
f 16 33 26
f 32 33 16
f 27 28 16
f 47 28 46
f 28 45 46
f 88 76 89
f 89 93 88
f 81 90 79
f 90 91 79
f 104 93 103
f 49 61 62
f 115 128 116
f 115 104 103
f 116 104 115
f 116 128 129
f 87 99 100
f 98 99 87
f 110 99 98
f 87 97 98
f 112 99 110
f 95 106 107
f 94 106 95
f 95 84 94
f 84 83 94
f 56 41 55
f 67 84 82
f 84 73 82
f 57 48 54
f 4 16 13
f 16 26 13
f 16 30 31
f 31 32 16
f 43 45 28
f 28 27 43
f 103 93 101
f 93 89 101
f 92 79 91
f 92 90 102
f 92 91 90
f 66 79 64
f 81 79 66
f 66 80 81
f 102 93 105
f 93 104 105
f 18 34 35
f 88 80 77
f 77 76 88
f 77 61 76
f 77 62 61
f 21 20 39
f 8 20 21
f 123 136 125
f 111 100 99
f 111 112 125
f 99 112 111
f 125 112 124
f 124 112 110
f 124 123 125
f 110 123 124
f 95 107 96
f 96 107 97
f 110 98 109
f 109 98 97
f 102 105 113
f 140 126 139
f 139 133 140
f 140 133 126
f 145 133 139
f 68 55 67
f 56 55 68
f 67 82 68
f 68 82 73
f 28 48 44
f 72 75 59
f 75 74 59
f 59 57 72
f 59 60 48
f 48 57 59
f 64 53 52
f 52 66 64
f 53 37 52
f 116 126 117
f 117 104 116
f 117 105 104
f 126 113 117
f 117 113 105
f 50 35 49
f 78 66 62
f 62 77 78
f 80 66 78
f 78 77 80
f 53 39 38
f 38 39 20
f 38 37 53
f 20 19 38
f 18 37 38
f 38 19 18
f 1 8 9
f 9 8 21
f 1 5 6
f 6 19 20
f 6 5 17
f 6 17 18
f 18 19 6
f 139 126 130
f 130 142 139
f 129 142 130
f 116 129 130
f 130 126 116
f 134 121 133
f 118 107 106
f 119 107 118
f 118 131 119
f 120 121 110
f 119 121 120
f 125 136 137
f 136 145 137
f 139 142 137
f 137 145 139
f 69 57 56
f 56 68 69
f 73 57 69
f 69 68 73
f 10 25 22
f 22 25 41
f 48 60 58
f 58 44 48
f 86 75 72
f 72 85 86
f 86 74 75
f 86 85 84
f 87 74 86
f 86 97 87
f 86 96 97
f 86 84 95
f 95 96 86
f 70 57 73
f 70 73 84
f 84 85 70
f 62 66 65
f 66 52 65
f 49 62 63
f 63 50 49
f 62 65 63
f 63 65 52
f 35 50 36
f 18 35 36
f 36 37 18
f 7 8 1
f 1 6 7
f 20 8 7
f 7 6 20
f 119 131 132
f 132 121 119
f 133 121 132
f 133 145 135
f 135 134 133
f 135 145 136
f 136 123 135
f 121 134 135
f 133 141 127
f 126 133 127
f 144 141 133
f 97 107 108
f 108 109 97
f 125 137 138
f 138 137 142
f 11 10 2
f 11 23 10
f 24 25 10
f 10 23 24
f 42 22 41
f 42 41 56
f 56 57 42
f 42 57 54
f 72 57 71
f 57 70 71
f 71 85 72
f 71 70 85
f 51 63 52
f 50 63 51
f 51 52 37
f 37 36 51
f 51 36 50
f 122 123 110
f 122 135 123
f 110 121 122
f 121 135 122
f 102 113 114
f 114 113 126
f 126 127 114
f 133 132 143
f 143 144 133
f 143 132 131
f 40 42 54
f 22 42 40
f 119 120 108
f 108 107 119
f 110 109 108
f 108 120 110
f 138 74 87
f 138 5 4
f 138 31 30
f 49 35 138
f 4 13 138
f 138 30 29
f 29 28 138
f 103 101 138
f 138 111 125
f 87 100 138
f 138 61 49
f 138 115 103
f 138 34 17
f 17 5 138
f 138 26 33
f 33 32 138
f 76 61 138
f 138 89 76
f 128 115 138
f 138 129 128
f 138 58 60
f 28 44 138
f 138 13 26
f 32 31 138
f 138 101 89
f 138 35 34
f 138 142 129
f 100 111 138
f 138 59 74
f 60 59 138
f 44 58 138
f 143 2 1
f 102 114 143
f 21 39 143
f 143 83 67
f 143 92 102
f 106 94 143
f 143 53 64
f 67 55 143
f 143 118 106
f 64 79 143
f 143 94 83
f 143 55 41
f 79 92 143
f 143 39 53
f 1 9 143
f 41 25 143
f 143 9 21
f 131 118 143
f 25 24 143
f 143 11 2
f 143 127 141
f 141 144 143
f 23 11 143
f 143 24 23
f 143 114 127
f 14 12 40
f 1 2 40
f 40 3 1
f 16 15 40
f 40 48 47
f 40 15 14
f 47 46 40
f 40 12 3
f 40 27 16
f 54 48 40
f 2 10 40
f 40 46 45
f 45 43 40
f 40 43 27
f 10 22 40

