# https://github.com/mikedh/trimesh
v 0.01372215 0.00811463 0.02580810
v 0.01372215 0.00811463 0.02778706
v 0.01066983 0.00811463 0.02582129
v -0.00355350 0.01701863 0.01431694
v -0.00288892 0.01723900 0.01431694
v -0.00030670 0.01810275 0.01431694
v 0.00068086 0.01843331 0.01431694
v 0.00376024 0.01946412 0.01431694
v 0.00502345 0.01988710 0.01431694
v 0.00542084 0.02002039 0.01431694
v 0.00564744 0.02009682 0.01431694
v 0.00580302 0.02015013 0.01431694
v 0.00702902 0.02062466 0.01431694
v 0.01372215 0.02399254 0.01431694
v 0.01372215 0.00818749 0.02773994
v 0.01149167 0.00858026 0.02930050
v 0.01168276 0.00811463 0.02944373
v 0.01030963 0.00811463 0.02591176
v -0.00355350 0.02221529 0.01431694
v -0.00355350 0.00811463 0.02978298
v 0.01372215 0.02627097 0.01431694
v 0.01372215 0.01405063 0.02389699
v 0.01085584 0.01070052 0.02812631
v 0.01125831 0.00811463 0.02971137
v 0.01162526 0.00811463 0.02948331
v 0.01372215 0.01638415 0.02236660
v 0.01372215 0.02465545 0.01694048
v 0.01372215 0.02541078 0.01644479
v 0.01372215 0.02577689 0.01619978
v -0.00355350 0.02226861 0.01437914
v -0.00104569 0.02311991 0.01431694
v -0.00355350 0.00811463 0.03357128
v 0.01224418 0.02608080 0.01431694
v 0.01372215 0.02627097 0.01510287
v 0.00726746 0.02043627 0.02275862
v 0.00947257 0.01365430 0.02658461
v 0.01113486 0.00868868 0.02937023
v 0.00746024 0.02064598 0.02254941
v 0.00646929 0.02349846 0.02095682
v 0.00688697 0.02174610 0.02200473
v 0.00614630 0.02358377 0.02101148
v 0.01063262 0.00811463 0.02988853
v 0.00946750 0.00817328 0.03018066
v 0.01372215 0.02589064 0.01610554
v 0.00593492 0.02459858 0.02039706
v -0.00355350 0.02244456 0.01465619
v 0.00516381 0.02513886 0.01431694
v -0.00355350 0.02288709 0.01539500
v -0.00103047 0.02327809 0.01458834
v -0.00082754 0.02346470 0.01479943
v -0.00327447 0.00811463 0.03356374
v -0.00355350 0.00820704 0.03356939
v 0.00836325 0.02558139 0.01431694
v 0.01224418 0.02608080 0.01565886
v 0.01372215 0.02626386 0.01529511
v 0.00005011 0.02451149 0.02120184
v 0.00393104 0.02501090 0.01953762
v 0.00559164 0.02522417 0.01953762
v 0.00780859 0.01861815 0.02379899
v 0.00725562 0.01971471 0.02323734
v 0.00559164 0.02467855 0.02044983
v 0.00613615 0.02313591 0.02130927
v 0.00444681 0.00811463 0.03163755
v 0.00448570 0.00913121 0.03096094
v 0.00282172 0.00836700 0.03193157
v 0.00443497 0.00821771 0.03157347
v 0.00725562 0.01876921 0.02385741
v 0.01372215 0.02607547 0.01592461
v 0.00595183 0.02516019 0.01988818
v 0.00559164 0.02495580 0.02020670
v 0.00503360 0.02514242 0.01459588
v 0.00559164 0.02522417 0.01454876
v 0.00637797 0.02532014 0.01431694
v -0.00161218 0.02407607 0.01635810
v -0.00299376 0.02400142 0.01704979
v 0.00078740 0.02457725 0.01590011
v -0.00332182 0.02308437 0.01560798
v -0.00119788 0.02340249 0.01490874
v -0.00355350 0.02347003 0.01644856
v -0.00161218 0.02392145 0.01608104
v -0.00327447 0.00820704 0.03355997
v -0.00272151 0.00811463 0.03351474
v -0.00355350 0.00876154 0.03342427
v 0.00393104 0.02501090 0.01565886
v 0.00005011 0.02451149 0.01732119
v 0.00836325 0.02558139 0.01676708
v 0.01353106 0.02623364 0.01549301
v 0.01372215 0.02624431 0.01550997
v -0.00272151 0.02415427 0.02231005
v -0.00216684 0.02422536 0.02231005
v 0.00064704 0.02458791 0.02120184
v 0.00115943 0.02465190 0.02120184
v 0.00453136 0.02507488 0.02005404
v 0.00559164 0.02516730 0.01992776
v 0.01372215 0.02623720 0.01557594
v 0.00499470 0.02318389 0.02160140
v 0.00503867 0.02477453 0.02052899
v 0.00207259 0.02458081 0.02150151
v 0.00420499 0.02455592 0.02092290
v 0.00503867 0.02437642 0.02080604
v 0.00164476 0.00811463 0.03242914
v -0.00217192 0.01100798 0.03161117
v -0.00355350 0.01014602 0.03256672
v -0.00327447 0.00911166 0.03316606
v -0.00004628 0.00856249 0.03261384
v 0.00338145 0.02092501 0.02353889
v 0.01372215 0.02616611 0.01576064
v 0.00171409 0.02460747 0.02154109
v 0.00474781 0.02511398 0.01481074
v 0.00069270 0.02458791 0.01621297
v 0.00115943 0.02465367 0.01621297
v -0.00355350 0.02364420 0.01676897
v -0.00355350 0.02390190 0.01726842
v -0.00355350 0.02400498 0.01751532
v -0.00355350 0.02401564 0.01755301
v -0.00272151 0.00820704 0.03349966
v -0.00216684 0.00811463 0.03343746
v -0.00216684 0.00820704 0.03341108
v -0.00327447 0.00876154 0.03337527
v -0.00355350 0.00917209 0.03320376
v -0.00272151 0.02415427 0.01787530
v -0.00327447 0.02407607 0.02120184
v -0.00327447 0.02407429 0.02175595
v -0.00327447 0.02407074 0.02231005
v -0.00327447 0.02406540 0.02286416
v -0.00161218 0.02428045 0.02231005
v 0.00072483 0.02457725 0.02153355
v 0.00115943 0.02460391 0.02156370
v 0.00340682 0.02426090 0.02134319
v -0.00272151 0.02338116 0.02365198
v 0.00060477 0.02281067 0.02308656
v -0.00272151 0.02403519 0.02318080
v -0.00241543 0.02401031 0.02314876
v 0.00115943 0.02409029 0.02208954
v -0.00028303 0.02397832 0.02257015
v -0.00105752 0.00811463 0.03319245
v -0.00355350 0.02337050 0.02389322
v -0.00355350 0.00944934 0.03302283
v -0.00276378 0.00877398 0.03324145
v -0.00216684 0.00859626 0.03319057
v -0.00216684 0.02421825 0.01732119
v -0.00161218 0.02429645 0.01732119
v -0.00355350 0.02402986 0.01787530
v -0.00327447 0.02407607 0.01787530
v -0.00161726 0.00811463 0.03332061
v -0.00118604 0.00811463 0.03322826
v -0.00161895 0.00823548 0.03326972
v -0.00355350 0.02403164 0.02009173
v -0.00355350 0.02402986 0.02120184
v -0.00355350 0.02402631 0.02175595
v -0.00355350 0.02401742 0.02280008
v -0.00355350 0.02401209 0.02313179
v -0.00327447 0.02403164 0.02318457
v -0.00048257 0.02376683 0.02276616
v -0.00220574 0.02374017 0.02326938
v -0.00337932 0.02352157 0.02374433
v -0.00355350 0.02364775 0.02366894
v -0.00355350 0.02354823 0.02376883
v -0.00355350 0.02403164 0.01829182
v -0.00355350 0.02400853 0.02315629
v -0.00355350 0.02394811 0.02328634
f 13 14 1
f 4 1 3
f 18 20 4
f 4 3 18
f 12 13 1
f 1 11 12
f 31 19 30
f 5 1 4
f 5 6 1
f 2 16 17
f 58 94 95
f 95 94 69
f 10 11 1
f 1 9 10
f 8 9 1
f 25 16 24
f 25 17 16
f 15 16 2
f 15 22 16
f 27 16 26
f 16 22 26
f 44 68 69
f 28 16 27
f 28 29 16
f 69 68 107
f 107 95 69
f 81 116 83
f 119 120 83
f 24 43 42
f 43 63 42
f 130 137 103
f 103 106 130
f 103 104 64
f 93 94 58
f 93 128 94
f 127 128 93
f 90 56 89
f 133 98 132
f 133 132 158
f 158 132 157
f 74 75 47
f 47 75 76
f 115 110 76
f 72 73 47
f 1 6 7
f 7 8 1
f 58 95 87
f 56 34 54
f 57 56 58
f 58 34 57
f 57 34 56
f 52 81 83
f 82 117 116
f 116 81 82
f 138 104 103
f 120 104 138
f 120 119 139
f 139 104 120
f 116 117 118
f 83 116 118
f 118 119 83
f 102 106 103
f 103 64 102
f 102 64 106
f 66 63 43
f 36 60 43
f 67 64 43
f 43 60 67
f 106 64 67
f 106 67 96
f 96 67 60
f 58 90 92
f 92 93 58
f 127 93 92
f 58 56 91
f 91 90 58
f 56 90 91
f 127 92 126
f 126 92 90
f 89 124 125
f 125 90 89
f 125 126 90
f 94 128 108
f 128 132 108
f 108 132 98
f 69 94 108
f 108 98 69
f 156 158 137
f 133 158 156
f 137 130 156
f 48 79 75
f 47 31 50
f 50 74 47
f 71 72 47
f 47 76 71
f 71 76 110
f 73 72 53
f 143 144 115
f 141 110 115
f 115 144 141
f 55 34 58
f 58 87 55
f 51 82 81
f 51 52 32
f 81 52 51
f 146 136 140
f 140 139 146
f 104 139 140
f 146 118 145
f 145 118 117
f 147 118 146
f 119 118 147
f 146 139 147
f 147 139 119
f 24 16 23
f 16 29 23
f 69 98 70
f 98 97 70
f 131 130 106
f 106 96 131
f 131 96 130
f 61 97 98
f 61 70 97
f 124 150 151
f 151 125 124
f 123 124 89
f 89 122 123
f 149 122 148
f 149 123 122
f 149 150 124
f 124 123 149
f 160 161 153
f 153 132 128
f 153 161 157
f 157 132 153
f 153 128 127
f 127 126 153
f 75 113 114
f 115 76 114
f 114 76 75
f 75 79 112
f 112 113 75
f 46 31 30
f 46 48 31
f 109 71 110
f 72 71 109
f 110 111 109
f 109 111 72
f 56 54 86
f 142 111 110
f 110 141 142
f 144 143 159
f 88 87 95
f 88 55 87
f 65 101 63
f 63 66 65
f 43 64 65
f 65 66 43
f 24 23 37
f 37 23 36
f 37 43 24
f 37 36 43
f 62 96 60
f 99 98 133
f 99 61 98
f 29 44 45
f 45 39 29
f 45 44 69
f 69 70 45
f 70 61 45
f 125 151 152
f 126 125 152
f 160 153 152
f 152 153 126
f 49 50 31
f 49 78 50
f 31 48 49
f 48 78 49
f 77 78 48
f 77 48 75
f 74 50 80
f 50 78 80
f 78 77 80
f 75 74 80
f 80 77 75
f 72 111 84
f 84 85 53
f 84 53 72
f 111 142 121
f 121 141 144
f 121 142 141
f 121 84 111
f 85 84 121
f 136 101 105
f 101 65 105
f 105 140 136
f 104 140 105
f 105 64 104
f 105 65 64
f 60 36 59
f 135 99 133
f 61 99 100
f 96 62 100
f 100 62 61
f 38 23 29
f 29 39 38
f 38 39 23
f 61 62 41
f 41 45 61
f 41 62 60
f 60 59 41
f 155 156 130
f 133 156 155
f 155 135 133
f 130 96 129
f 96 100 129
f 129 100 99
f 40 41 23
f 45 41 40
f 23 39 40
f 39 45 40
f 23 41 35
f 35 41 59
f 36 23 35
f 35 59 36
f 130 129 154
f 154 155 130
f 135 155 154
f 135 154 134
f 134 154 129
f 99 135 134
f 134 129 99
f 32 20 101
f 101 3 1
f 20 18 101
f 1 2 101
f 101 25 24
f 101 18 3
f 24 42 101
f 2 17 101
f 101 136 146
f 17 25 101
f 101 51 32
f 101 42 63
f 117 82 101
f 146 145 101
f 82 51 101
f 101 145 117
f 21 14 33
f 4 19 33
f 14 13 33
f 19 31 33
f 33 7 6
f 13 12 33
f 33 5 4
f 33 12 11
f 33 31 47
f 47 73 33
f 6 5 33
f 11 10 33
f 33 10 9
f 9 8 33
f 8 7 33
f 73 53 33
f 33 34 21
f 33 54 34
f 86 33 53
f 54 33 86
f 85 86 53
f 56 86 85
f 148 122 159
f 159 122 144
f 88 14 21
f 88 2 1
f 1 14 88
f 68 44 88
f 88 28 27
f 88 15 2
f 27 26 88
f 21 34 88
f 22 15 88
f 88 26 22
f 88 44 29
f 29 28 88
f 88 107 68
f 95 107 88
f 34 55 88
f 152 138 103
f 4 20 152
f 152 20 32
f 152 19 4
f 32 52 152
f 30 19 152
f 137 158 152
f 103 137 152
f 152 149 148
f 83 120 152
f 152 112 79
f 152 143 115
f 152 158 157
f 152 161 160
f 152 52 83
f 120 138 152
f 148 159 152
f 157 161 152
f 115 114 152
f 79 48 152
f 152 46 30
f 152 151 150
f 150 149 152
f 152 114 113
f 113 112 152
f 48 46 152
f 152 159 143
f 56 85 121
f 89 56 121
f 144 122 121
f 121 122 89

