# https://github.com/mikedh/trimesh
v -0.01276980 -0.02943775 -0.00712340
v -0.01276750 -0.02943775 -0.00761404
v -0.01272372 -0.02992291 -0.00614344
v -0.01276980 -0.02943775 -0.00542847
v -0.01276980 -0.02404317 -0.01104588
v -0.01253247 -0.03041449 -0.00663342
v -0.01271220 -0.02992291 -0.00663342
v -0.01276519 -0.02452833 -0.01153718
v -0.00839184 -0.04006947 -0.00837361
v -0.00844253 -0.04016585 -0.00810468
v -0.01272372 -0.02992291 -0.00542847
v -0.01257856 -0.03041449 -0.00614344
v -0.01276980 -0.01619710 -0.00542847
v -0.01276980 -0.01619710 -0.01104588
v -0.00867987 -0.03973532 -0.00761404
v -0.01276519 -0.01619710 -0.01153718
v -0.01252325 -0.02452833 -0.01195435
v -0.01244261 -0.02492031 -0.01189728
v -0.00790335 -0.04104942 -0.00837426
v -0.00795405 -0.04115224 -0.00810468
v -0.00835497 -0.04046466 -0.00761404
v -0.00847479 -0.04022048 -0.00761404
v -0.01257856 -0.03041449 -0.00542847
v -0.00858079 -0.03997308 -0.00736413
v -0.01272833 -0.01597219 -0.00542847
v -0.01267994 -0.01570551 -0.00736544
v -0.01273294 -0.01599468 -0.00888458
v -0.01267994 -0.01570551 -0.01153718
v -0.01247947 -0.01570551 -0.01194254
v -0.01252325 -0.01619710 -0.01195435
v -0.01203707 -0.02452833 -0.01212948
v -0.00643098 -0.04295793 -0.00837033
v -0.00690564 -0.04245670 -0.00836246
v -0.00735956 -0.04192978 -0.00833163
v -0.00781119 -0.04139321 -0.00810468
v -0.00786418 -0.04145104 -0.00761404
v -0.00835497 -0.04046466 -0.00542847
v -0.00847479 -0.04022048 -0.00736413
v -0.00856696 -0.04000199 -0.00542847
v -0.01267763 -0.01570551 -0.00542847
v -0.01243569 -0.01530711 -0.00542847
v -0.01258086 -0.01554165 -0.00888458
v -0.01243569 -0.01530711 -0.01153718
v -0.01238500 -0.01535851 -0.01187957
v -0.01204629 -0.01520429 -0.01196878
v -0.01203707 -0.01570551 -0.01211571
v -0.01203707 -0.01619710 -0.01212948
v -0.00663835 -0.02747784 -0.01212948
v -0.00713145 -0.02747784 -0.01212227
v -0.00501620 -0.04395716 -0.00837623
v -0.00591023 -0.04341738 -0.00835262
v -0.00648397 -0.04300612 -0.00810468
v -0.00672822 -0.04275230 -0.00810468
v -0.00694251 -0.04250490 -0.00810468
v -0.00740334 -0.04197797 -0.00800432
v -0.00776510 -0.04157314 -0.00736413
v -0.00786418 -0.04145104 -0.00736413
v -0.00741947 -0.04199725 -0.00761404
v -0.00847249 -0.04022048 -0.00542847
v -0.00798630 -0.04120364 -0.00542847
v -0.01219145 -0.01505971 -0.00888458
v -0.01011768 -0.01298734 -0.00542847
v -0.01219145 -0.01505971 -0.01153718
v -0.01091263 -0.01388697 -0.01187957
v -0.01008773 -0.01324117 -0.01196878
v -0.00958080 -0.01325402 -0.01211571
v -0.00909232 -0.01325402 -0.01212948
v 0.00169590 -0.02992291 -0.01212948
v 0.00120511 -0.02992291 -0.01210259
v -0.00305995 -0.04490820 -0.00836771
v -0.00409914 -0.04444232 -0.00837623
v -0.00442403 -0.04438770 -0.00834081
v -0.00511528 -0.04403106 -0.00810468
v -0.00594479 -0.04344630 -0.00810468
v -0.00618904 -0.04325031 -0.00810468
v -0.00651854 -0.04303825 -0.00761404
v -0.00676508 -0.04278764 -0.00761404
v -0.00697246 -0.04254024 -0.00761404
v -0.00753007 -0.04186230 -0.00542847
v -0.00775358 -0.04158599 -0.00542847
v -0.00785957 -0.04145104 -0.00542847
v -0.00709689 -0.04238923 -0.00736413
v -0.00741947 -0.04199725 -0.00736413
v -0.00998404 -0.01285240 -0.00736544
v -0.00998404 -0.01285561 -0.00542847
v -0.00998404 -0.01285240 -0.00888458
v -0.00998404 -0.01285561 -0.01153718
v -0.00993104 -0.01290702 -0.01187957
v -0.00959232 -0.01274958 -0.01196681
v -0.00909232 -0.01276565 -0.01210849
v -0.00271662 -0.01222908 -0.01212948
v 0.00659922 -0.02845458 -0.01212948
v 0.00709231 -0.02845458 -0.01212424
v 0.00659922 -0.02894295 -0.01209997
v 0.00218669 -0.02992291 -0.01210849
v 0.00512914 -0.04492105 -0.00837754
v -0.00105991 -0.04492105 -0.00837754
v -0.00271662 -0.04492105 -0.00837689
v -0.00271662 -0.04500138 -0.00810468
v -0.00321663 -0.04494033 -0.00810205
v -0.00338714 -0.04483751 -0.00826341
v -0.00347700 -0.04489856 -0.00793676
v -0.00449085 -0.04442304 -0.00801416
v -0.00466366 -0.04429452 -0.00814797
v -0.00541252 -0.04390575 -0.00761404
v -0.00476505 -0.04432344 -0.00761404
v -0.00516828 -0.04407604 -0.00761404
v -0.00597705 -0.04347200 -0.00761404
v -0.00622360 -0.04328244 -0.00761404
v -0.00651854 -0.04303825 -0.00542847
v -0.00636876 -0.04316356 -0.00736413
v -0.00638489 -0.04315070 -0.00542847
v -0.00676508 -0.04278764 -0.00736413
v -0.00697246 -0.04254024 -0.00542847
v -0.00973058 -0.01260821 -0.00542847
v -0.00983426 -0.01270781 -0.00888458
v -0.00973058 -0.01260821 -0.01153718
v -0.00943334 -0.01244114 -0.01187695
v -0.00909232 -0.01238330 -0.01193533
v -0.00324198 -0.01222908 -0.01196288
v 0.00267749 -0.01222908 -0.01212948
v -0.00909232 -0.01224836 -0.01153718
v 0.00709231 -0.02796942 -0.01212948
v 0.01003707 -0.02452833 -0.01212948
v 0.01003707 -0.02502313 -0.01212227
v 0.01003707 -0.02551471 -0.01208554
v 0.01003707 -0.02600308 -0.01199436
v 0.01036196 -0.02635972 -0.01183300
v 0.00643101 -0.04397323 -0.00837623
v 0.00593100 -0.04444874 -0.00837623
v 0.00541256 -0.04490820 -0.00836836
v 0.00512914 -0.04500138 -0.00810468
v -0.00105991 -0.04505278 -0.00761469
v -0.00271662 -0.04505278 -0.00761404
v -0.00320741 -0.04498531 -0.00761404
v -0.00349083 -0.04490499 -0.00761404
v -0.00452080 -0.04443589 -0.00761404
v -0.00541252 -0.04390575 -0.00542847
v -0.00553465 -0.04381258 -0.00736413
v -0.00610378 -0.04337561 -0.00736413
v -0.00476505 -0.04432344 -0.00736413
v -0.00516828 -0.04407604 -0.00542847
v -0.00622360 -0.04328244 -0.00736413
v -0.00676278 -0.04278443 -0.00542847
v -0.00622129 -0.04328244 -0.00542847
v -0.00687799 -0.04265269 -0.00542847
v -0.00948633 -0.01239937 -0.00542847
v -0.00960845 -0.01250218 -0.00736413
v -0.00948633 -0.01239937 -0.00888458
v -0.00948633 -0.01240258 -0.01153718
v -0.00349313 -0.01222908 -0.01153718
v 0.00321667 -0.01222908 -0.01197272
v 0.01035044 -0.01397051 -0.01181857
v 0.01003707 -0.01423397 -0.01200814
v 0.01003707 -0.01472556 -0.01212948
v -0.00909232 -0.01224515 -0.00888458
v 0.01052325 -0.02452833 -0.01195435
v 0.01052325 -0.02502313 -0.01195304
v 0.01052325 -0.02551471 -0.01193336
v 0.01046334 -0.02600308 -0.01188876
v 0.00931125 -0.04102693 -0.00836049
v 0.00690567 -0.04349128 -0.00837623
v 0.00884119 -0.04295471 -0.00787576
v 0.00881354 -0.04489213 -0.00542847
v 0.00888728 -0.04350734 -0.00744350
v 0.00888037 -0.04398608 -0.00697319
v 0.00883659 -0.04442625 -0.00642811
v 0.00512914 -0.04505278 -0.00761469
v -0.00271662 -0.04505278 -0.00542847
v -0.00320741 -0.04498531 -0.00736413
v -0.00349083 -0.04490499 -0.00736413
v -0.00436642 -0.04450658 -0.00542847
v -0.00452080 -0.04443589 -0.00736413
v -0.00476274 -0.04432344 -0.00542847
v -0.00909232 -0.01224515 -0.00542847
v -0.00350005 -0.01222908 -0.01104588
v 0.00323049 -0.01222908 -0.01196616
v 0.01038270 -0.01396087 -0.01153718
v 0.01062694 -0.01423397 -0.01153718
v 0.01045413 -0.01423397 -0.01189532
v 0.00345400 -0.01222908 -0.01181595
v 0.01052325 -0.01472556 -0.01195435
v 0.01076519 -0.02502313 -0.01153718
v 0.01073293 -0.02551471 -0.01153718
v 0.00934351 -0.04120043 -0.00811320
v 0.00932047 -0.04161169 -0.00795578
v 0.00912691 -0.04267840 -0.00761469
v 0.00893106 -0.04267840 -0.00794004
v 0.00881815 -0.04488892 -0.00542847
v 0.00856469 -0.04491784 -0.00542847
v 0.00890571 -0.04354911 -0.00736413
v 0.00894719 -0.04313785 -0.00760945
v 0.00895871 -0.04366799 -0.00713127
v 0.00891493 -0.04415315 -0.00660849
v 0.00887115 -0.04448730 -0.00614344
v 0.00513145 -0.04505278 -0.00736413
v 0.00513145 -0.04505278 -0.00542847
v -0.00320511 -0.04498531 -0.00542847
v -0.00348853 -0.04490499 -0.00542847
v 0.00267749 -0.01223872 -0.00849102
v 0.00335953 -0.01222908 -0.00888458
v -0.00342170 -0.01222908 -0.00888458
v -0.00346548 -0.01222908 -0.00893443
v -0.00349313 -0.01222908 -0.00908399
v -0.00349774 -0.01222908 -0.00927421
v -0.00350005 -0.01222908 -0.00957594
v 0.00210605 -0.01393195 -0.00542847
v 0.01038270 -0.01396087 -0.00542912
v 0.01048408 -0.01407333 -0.00888458
v 0.00350239 -0.01222908 -0.01155817
v 0.00350699 -0.01222908 -0.01104588
v 0.01076980 -0.01472556 -0.01104588
v 0.01076519 -0.01472556 -0.01153718
v 0.01050712 -0.01409903 -0.00736544
v 0.01062694 -0.01423397 -0.00542912
v 0.01076980 -0.02698625 -0.00957594
v 0.01076519 -0.02747784 -0.01006592
v 0.01076980 -0.02452833 -0.01104588
v 0.01068224 -0.02747784 -0.01055590
v 0.00979282 -0.03754407 -0.00835131
v 0.00981356 -0.03773364 -0.00808762
v 0.00979743 -0.03807421 -0.00791249
v 0.00929973 -0.04193620 -0.00761469
v 0.00925825 -0.04219003 -0.00761469
v 0.00912461 -0.04292901 -0.00736413
v 0.00888037 -0.04464795 -0.00561410
v 0.00886424 -0.04475719 -0.00542847
v 0.00912231 -0.04316998 -0.00712340
v 0.00906931 -0.04366157 -0.00663342
v 0.00898866 -0.04415315 -0.00614344
v 0.00321436 -0.01223872 -0.00864845
v 0.00350008 -0.01222908 -0.00911875
v 0.00324201 -0.01223872 -0.00866419
v 0.01076980 -0.02507775 -0.00542847
v 0.00350699 -0.01222908 -0.00957594
v 0.01050712 -0.01409903 -0.00736413
v 0.01076980 -0.01472556 -0.00542912
v 0.01076980 -0.02698947 -0.00888393
v 0.01076519 -0.02767704 -0.00888458
v 0.01076289 -0.02796942 -0.00908399
v 0.01075367 -0.02846101 -0.00859466
v 0.01074445 -0.02894616 -0.00810468
v 0.01071911 -0.02943775 -0.00810468
v 0.01067763 -0.03041449 -0.00761469
v 0.01063846 -0.03090929 -0.00761469
v 0.01059468 -0.03140087 -0.00761469
v 0.01029514 -0.03420258 -0.00796299
v 0.01029975 -0.03426363 -0.00761469
v 0.01022601 -0.03483233 -0.00761469
v 0.00990803 -0.03728382 -0.00761469
v 0.00933199 -0.04169202 -0.00761469
v 0.00928360 -0.04206472 -0.00736413
v 0.00920295 -0.04267840 -0.00712340
v 0.00923060 -0.04244064 -0.00736413
v 0.00889649 -0.04464795 -0.00542847
v 0.00900940 -0.04415315 -0.00565149
v 0.00897023 -0.04437485 -0.00542847
v 0.01076980 -0.02698625 -0.00542847
v 0.01076980 -0.02698947 -0.00736413
v 0.01076289 -0.02796942 -0.00888458
v 0.01075598 -0.02846101 -0.00810468
v 0.01072833 -0.02943775 -0.00736413
v 0.01070528 -0.02992933 -0.00761469
v 0.01074445 -0.02894616 -0.00542847
v 0.01067994 -0.03041449 -0.00736413
v 0.01061772 -0.03115669 -0.00736413
v 0.01059468 -0.03140087 -0.00542847
v 0.01052556 -0.03211415 -0.00542847
v 0.01040344 -0.03336078 -0.00736413
v 0.01040113 -0.03336078 -0.00761469
v 0.01035274 -0.03384916 -0.00761469
v 0.01030436 -0.03426684 -0.00736413
v 0.01006933 -0.03606289 -0.00736413
v 0.00971679 -0.03875536 -0.00542847
v 0.00920295 -0.04267840 -0.00542847
v 0.00900940 -0.04415315 -0.00542847
v 0.01076058 -0.02796942 -0.00542847
v 0.01075598 -0.02846101 -0.00712340
v 0.01071681 -0.02968515 -0.00736413
v 0.01072833 -0.02943775 -0.00542847
v 0.01070528 -0.02992933 -0.00736413
v 0.01074906 -0.02867949 -0.00542847
v 0.01067994 -0.03041449 -0.00542847
v 0.01063846 -0.03090929 -0.00542847
v 0.01040344 -0.03336078 -0.00542847
v 0.01035274 -0.03385237 -0.00736413
v 0.01030436 -0.03426684 -0.00542847
v 0.01070528 -0.02992291 -0.00542847
v 0.01035274 -0.03385237 -0.00542847
f 93 68 92
f 9 2 8
f 1 2 3
f 200 208 231
f 5 2 1
f 5 8 2
f 7 3 2
f 31 51 32
f 32 51 52
f 48 49 31
f 68 49 48
f 68 70 69
f 69 49 68
f 70 49 69
f 50 51 31
f 31 49 50
f 98 70 68
f 68 97 98
f 98 99 70
f 98 97 99
f 134 99 133
f 159 184 160
f 183 184 159
f 213 179 212
f 119 91 90
f 178 153 181
f 178 208 209
f 178 179 153
f 178 209 179
f 210 178 181
f 236 208 215
f 209 208 236
f 215 208 207
f 3 7 12
f 9 19 20
f 34 54 55
f 54 77 55
f 160 184 161
f 52 77 53
f 53 77 54
f 53 32 52
f 76 77 52
f 71 49 70
f 71 50 49
f 158 157 183
f 183 159 158
f 117 149 150
f 91 119 122
f 153 121 152
f 90 91 67
f 46 67 47
f 14 13 27
f 27 28 14
f 14 28 16
f 40 41 26
f 26 25 40
f 28 27 26
f 13 25 26
f 26 27 13
f 44 28 43
f 30 46 47
f 18 17 31
f 31 32 18
f 34 19 18
f 18 19 9
f 8 17 18
f 9 8 18
f 231 208 233
f 179 209 214
f 209 236 214
f 175 207 208
f 208 200 175
f 215 207 234
f 234 237 215
f 151 122 156
f 201 200 231
f 201 175 200
f 202 175 201
f 231 233 201
f 201 233 208
f 23 12 24
f 35 19 34
f 35 20 19
f 36 20 35
f 34 55 35
f 35 55 36
f 36 55 58
f 160 161 128
f 128 129 93
f 93 127 128
f 128 127 160
f 165 131 163
f 220 184 219
f 219 247 220
f 217 247 219
f 219 184 217
f 217 184 183
f 94 68 93
f 93 131 94
f 93 129 130
f 130 131 93
f 129 163 130
f 130 163 131
f 96 97 68
f 52 51 75
f 51 74 75
f 75 76 52
f 76 75 109
f 109 75 74
f 140 143 109
f 140 105 139
f 139 138 140
f 105 138 139
f 73 74 51
f 105 74 73
f 106 73 103
f 199 172 171
f 171 172 136
f 171 198 199
f 141 172 174
f 174 142 141
f 136 172 137
f 169 198 170
f 198 171 170
f 118 119 90
f 90 89 118
f 150 122 118
f 118 122 119
f 118 117 150
f 181 153 177
f 153 152 177
f 157 158 124
f 154 155 121
f 154 121 153
f 90 67 66
f 67 46 66
f 66 89 90
f 42 26 41
f 28 26 42
f 41 43 42
f 42 43 28
f 46 30 29
f 44 45 29
f 29 45 46
f 29 28 44
f 29 30 16
f 29 16 28
f 34 18 33
f 33 18 32
f 32 53 33
f 33 54 34
f 33 53 54
f 91 122 120
f 122 151 120
f 232 201 208
f 23 24 39
f 38 39 24
f 15 24 12
f 78 55 77
f 78 58 55
f 36 58 56
f 56 58 79
f 113 110 144
f 144 146 113
f 162 163 129
f 129 128 162
f 162 128 161
f 185 161 184
f 184 220 185
f 247 217 246
f 269 246 268
f 183 218 216
f 216 217 183
f 217 216 240
f 68 94 95
f 95 94 131
f 95 96 68
f 131 96 95
f 256 276 257
f 252 276 256
f 140 138 145
f 145 143 140
f 108 74 105
f 108 109 74
f 108 105 140
f 140 109 108
f 76 109 111
f 105 73 107
f 107 73 106
f 70 99 100
f 134 135 100
f 99 134 100
f 104 103 73
f 106 103 102
f 102 137 106
f 136 137 102
f 102 135 136
f 102 100 135
f 172 141 173
f 173 137 172
f 44 43 63
f 117 118 88
f 88 118 89
f 126 127 93
f 126 159 160
f 160 127 126
f 93 92 123
f 123 124 93
f 153 179 180
f 180 154 153
f 213 182 180
f 179 213 180
f 180 182 155
f 155 154 180
f 46 45 65
f 65 66 46
f 89 66 65
f 65 88 89
f 65 45 44
f 176 151 156
f 235 232 208
f 59 38 37
f 39 38 59
f 6 7 2
f 6 12 7
f 6 15 12
f 22 38 24
f 24 15 22
f 113 146 114
f 57 60 37
f 81 60 57
f 57 80 81
f 79 80 57
f 36 56 57
f 57 56 79
f 188 162 161
f 163 162 188
f 165 163 188
f 186 185 220
f 161 185 186
f 247 246 270
f 270 246 269
f 265 283 266
f 269 268 285
f 260 258 277
f 132 96 131
f 189 226 227
f 276 252 275
f 110 76 112
f 76 111 112
f 143 145 112
f 112 109 143
f 112 111 109
f 50 71 72
f 51 50 72
f 72 71 70
f 72 73 51
f 72 104 73
f 103 104 72
f 72 102 103
f 70 100 101
f 100 102 101
f 101 72 70
f 102 72 101
f 147 149 148
f 148 115 147
f 149 117 148
f 117 115 148
f 44 63 64
f 64 65 44
f 88 65 64
f 93 124 125
f 125 126 93
f 159 126 125
f 125 158 159
f 125 124 158
f 205 206 175
f 175 204 205
f 203 175 202
f 203 204 175
f 178 210 211
f 10 6 2
f 15 6 10
f 10 2 9
f 10 22 15
f 9 20 10
f 21 20 36
f 21 10 20
f 22 10 21
f 83 114 79
f 79 58 83
f 221 220 247
f 221 186 220
f 224 229 228
f 186 224 187
f 187 188 161
f 161 186 187
f 244 263 265
f 244 243 263
f 217 243 244
f 247 248 222
f 222 221 247
f 186 221 222
f 286 272 271
f 271 272 248
f 269 286 271
f 271 270 269
f 271 248 247
f 247 270 271
f 267 268 246
f 246 266 267
f 259 258 239
f 258 260 239
f 239 238 259
f 239 260 240
f 216 238 239
f 239 240 216
f 196 190 197
f 168 190 196
f 168 132 164
f 164 190 168
f 164 132 131
f 274 275 252
f 85 84 62
f 115 84 85
f 116 115 117
f 116 84 115
f 117 88 87
f 87 64 63
f 88 64 87
f 41 62 61
f 62 84 61
f 78 114 82
f 58 78 82
f 114 83 82
f 82 83 58
f 253 252 256
f 256 229 253
f 166 131 165
f 165 188 192
f 192 187 165
f 188 187 192
f 281 288 283
f 280 288 281
f 265 266 245
f 245 244 265
f 245 266 246
f 245 246 217
f 217 244 245
f 273 272 287
f 287 274 273
f 273 274 252
f 273 252 251
f 251 272 273
f 251 222 250
f 250 272 251
f 284 266 283
f 284 267 266
f 278 260 277
f 86 87 63
f 117 87 86
f 86 116 117
f 84 116 86
f 223 253 229
f 223 224 186
f 251 252 223
f 252 253 223
f 223 222 251
f 186 222 223
f 228 229 193
f 189 164 167
f 167 164 131
f 131 166 167
f 279 281 263
f 279 262 280
f 263 262 279
f 280 281 279
f 249 222 248
f 249 250 222
f 248 272 249
f 272 250 249
f 282 278 277
f 264 278 282
f 229 224 254
f 254 223 229
f 224 223 254
f 194 193 229
f 166 193 194
f 194 167 166
f 228 193 225
f 225 193 187
f 225 224 228
f 225 187 224
f 165 187 191
f 187 193 191
f 191 166 165
f 191 193 166
f 242 243 217
f 242 262 263
f 263 243 242
f 230 194 229
f 230 255 227
f 230 227 226
f 257 255 230
f 256 257 230
f 230 229 256
f 189 167 195
f 167 194 195
f 194 230 195
f 195 226 189
f 195 230 226
f 240 261 241
f 261 242 241
f 217 240 241
f 241 242 217
f 4 13 5
f 1 4 5
f 5 13 14
f 11 4 1
f 1 3 11
f 237 179 215
f 212 179 237
f 23 11 12
f 12 11 3
f 113 77 76
f 76 110 113
f 183 213 218
f 218 213 212
f 122 149 156
f 150 149 122
f 16 5 14
f 8 5 16
f 30 47 31
f 31 17 30
f 8 16 30
f 30 17 8
f 215 179 214
f 214 236 215
f 156 149 175
f 175 149 147
f 170 134 169
f 170 135 134
f 136 135 170
f 170 171 136
f 182 213 183
f 183 157 182
f 182 124 155
f 157 124 182
f 107 142 138
f 107 138 105
f 106 141 107
f 107 141 142
f 173 141 106
f 106 137 173
f 123 92 68
f 31 47 123
f 123 48 31
f 68 48 123
f 91 121 123
f 123 67 91
f 121 155 123
f 47 67 123
f 155 124 123
f 156 175 176
f 175 206 176
f 114 77 113
f 114 78 77
f 212 237 238
f 238 218 212
f 234 258 238
f 237 234 238
f 238 258 259
f 238 216 218
f 97 96 132
f 99 97 132
f 132 168 133
f 133 99 132
f 211 121 91
f 151 176 211
f 211 210 181
f 181 177 211
f 211 152 121
f 91 120 211
f 202 201 211
f 211 177 152
f 211 120 151
f 206 205 211
f 201 232 211
f 211 176 206
f 211 203 202
f 232 235 211
f 211 205 204
f 204 203 211
f 208 178 211
f 211 235 208
f 36 57 21
f 21 57 37
f 37 38 21
f 38 22 21
f 287 272 289
f 289 272 286
f 289 286 269
f 269 285 289
f 196 197 169
f 196 134 133
f 169 134 196
f 133 168 196
f 61 63 43
f 61 43 41
f 265 263 281
f 281 283 265
f 63 61 86
f 86 61 84
f 23 39 282
f 169 197 282
f 282 142 174
f 282 13 4
f 4 11 282
f 189 227 282
f 277 258 282
f 282 144 110
f 282 198 169
f 282 11 23
f 40 25 282
f 287 289 282
f 174 172 282
f 282 41 40
f 282 175 147
f 282 255 257
f 282 85 62
f 282 284 283
f 282 172 199
f 199 198 282
f 282 25 13
f 207 175 282
f 282 234 207
f 282 59 37
f 37 60 282
f 282 80 79
f 79 114 282
f 138 142 282
f 282 62 41
f 282 258 234
f 147 115 282
f 146 144 282
f 282 60 81
f 81 80 282
f 110 112 282
f 283 288 282
f 282 257 276
f 282 145 138
f 282 274 287
f 39 59 282
f 282 114 146
f 282 285 268
f 197 190 282
f 282 164 189
f 276 275 282
f 282 112 145
f 282 288 280
f 268 267 282
f 282 289 285
f 280 264 282
f 190 164 282
f 227 255 282
f 275 274 282
f 115 85 282
f 267 284 282
f 260 278 261
f 240 260 261
f 242 264 280
f 280 262 242
f 242 261 278
f 242 278 264

