# https://github.com/mikedh/trimesh
v -0.00019235 0.00839776 -0.00873597
v -0.00014796 0.00645286 -0.00794028
v 0.00086148 0.00639696 -0.00794028
v 0.00112124 0.00832378 -0.00873597
v -0.00019235 0.00839776 -0.00949021
v -0.00150430 0.00826295 -0.00873597
v -0.00115576 0.00635093 -0.00794028
v 0.00185119 0.00618324 -0.00794028
v 0.00241016 0.00804594 -0.00873597
v 0.00112124 0.00832378 -0.00949021
v -0.00017756 0.00772206 -0.01083972
v -0.00138428 0.00759876 -0.01083972
v -0.00150430 0.00826295 -0.00949021
v 0.00103081 0.00765465 -0.01083972
v -0.00277843 0.00792592 -0.00873597
v -0.00213561 0.00609117 -0.00794028
v 0.00279651 0.00581826 -0.00794028
v 0.00363826 0.00756916 -0.00873597
v 0.00241016 0.00804594 -0.00949021
v 0.00221617 0.00739983 -0.01083972
v -0.00255484 0.00728968 -0.01083972
v -0.00277843 0.00792592 -0.00949021
v -0.00398515 0.00739325 -0.00873597
v -0.00306285 0.00568180 -0.00794028
v 0.00367279 0.00530861 -0.00794028
v 0.00477758 0.00690662 -0.00873597
v 0.00363826 0.00756916 -0.00949021
v 0.00334562 0.00696087 -0.01083972
v -0.00366457 0.00679975 -0.01083972
v -0.00398515 0.00739325 -0.00949021
v -0.00509159 0.00667974 -0.00873597
v -0.00391282 0.00513270 -0.00794028
v 0.00445699 0.00466908 -0.00794028
v 0.00580018 0.00607473 -0.00873597
v 0.00477758 0.00690662 -0.00949021
v 0.00439452 0.00635257 -0.01083972
v -0.00468223 0.00614214 -0.01083972
v -0.00509159 0.00667974 -0.00949021
v -0.00466908 0.00445699 -0.00794028
v -0.00607473 0.00580018 -0.00873597
v 0.00513270 0.00391282 -0.00794028
v 0.00667974 0.00509159 -0.00873597
v 0.00580018 0.00607473 -0.00949021
v 0.00533327 0.00558645 -0.01083972
v -0.00558645 0.00533327 -0.01083972
v -0.00607473 0.00580018 -0.00949021
v -0.00530861 0.00367279 -0.00794028
v -0.00690662 0.00477758 -0.00873597
v 0.00568180 0.00306285 -0.00794028
v 0.00667974 0.00509159 -0.00949021
v 0.00739325 0.00398515 -0.00873597
v 0.00614214 0.00468223 -0.01083972
v -0.00635257 0.00439452 -0.01083972
v -0.00690662 0.00477758 -0.00949021
v -0.00581826 0.00279651 -0.00794028
v -0.00756916 0.00363826 -0.00873597
v 0.00609117 0.00213561 -0.00794028
v 0.00739325 0.00398515 -0.00949021
v 0.00679975 0.00366457 -0.01083972
v 0.00792592 0.00277843 -0.00873597
v -0.00696087 0.00334562 -0.01083972
v -0.00756916 0.00363826 -0.00949021
v -0.00618324 0.00185119 -0.00794028
v -0.00804594 0.00241016 -0.00873597
v 0.00635093 0.00115576 -0.00794028
v 0.00728968 0.00255484 -0.01083972
v 0.00792592 0.00277843 -0.00949021
v 0.00826295 0.00150430 -0.00873597
v -0.00739983 0.00221617 -0.01083972
v -0.00804594 0.00241016 -0.00949021
v -0.00639696 0.00086148 -0.00794028
v -0.00832378 0.00112124 -0.00873597
v 0.00645286 0.00014796 -0.00794028
v 0.00839776 0.00019235 -0.00873597
v 0.00826295 0.00150430 -0.00949021
v 0.00759876 0.00138428 -0.01083972
v -0.00765465 0.00103081 -0.01083972
v -0.00832378 0.00112124 -0.00949021
v -0.00645286 -0.00014796 -0.00794028
v -0.00839776 -0.00019235 -0.00873597
v 0.00639696 -0.00086148 -0.00794028
v 0.00839776 0.00019235 -0.00949021
v 0.00832378 -0.00112124 -0.00873597
v 0.00772206 0.00017756 -0.01083972
v -0.00772206 -0.00017756 -0.01083972
v -0.00839776 -0.00019235 -0.00949021
v -0.00635093 -0.00115576 -0.00794028
v -0.00826295 -0.00150430 -0.00873597
v 0.00618324 -0.00185119 -0.00794028
v 0.00804594 -0.00241016 -0.00873597
v 0.00832378 -0.00112124 -0.00949021
v 0.00765465 -0.00103081 -0.01083972
v -0.00759876 -0.00138428 -0.01083972
v -0.00826295 -0.00150430 -0.00949021
v -0.00609117 -0.00213561 -0.00794028
v -0.00792592 -0.00277843 -0.00873597
v 0.00581826 -0.00279651 -0.00794028
v 0.00804594 -0.00241016 -0.00949021
v 0.00756916 -0.00363826 -0.00873597
v 0.00739983 -0.00221617 -0.01083972
v -0.00728968 -0.00255484 -0.01083972
v -0.00792592 -0.00277843 -0.00949021
v -0.00568180 -0.00306285 -0.00794028
v -0.00739325 -0.00398515 -0.00873597
v 0.00530861 -0.00367279 -0.00794028
v 0.00690662 -0.00477758 -0.00873597
v 0.00756916 -0.00363826 -0.00949021
v 0.00696087 -0.00334562 -0.01083972
v -0.00679975 -0.00366457 -0.01083972
v -0.00739325 -0.00398515 -0.00949021
v -0.00667974 -0.00509159 -0.00873597
v -0.00513270 -0.00391282 -0.00794028
v 0.00607473 -0.00580018 -0.00873597
v 0.00466908 -0.00445699 -0.00794028
v 0.00690662 -0.00477758 -0.00949021
v 0.00635257 -0.00439452 -0.01083972
v -0.00614214 -0.00468223 -0.01083972
v -0.00667974 -0.00509159 -0.00949021
v -0.00580018 -0.00607473 -0.00873597
v -0.00445699 -0.00466908 -0.00794028
v 0.00607473 -0.00580018 -0.00949021
v 0.00509159 -0.00667974 -0.00873597
v 0.00391282 -0.00513270 -0.00794028
v 0.00558645 -0.00533327 -0.01083972
v -0.00533327 -0.00558645 -0.01083972
v -0.00580018 -0.00607473 -0.00949021
v -0.00477758 -0.00690662 -0.00873597
v -0.00367279 -0.00530861 -0.00794028
v 0.00509159 -0.00667974 -0.00949021
v 0.00306285 -0.00568180 -0.00794028
v 0.00398515 -0.00739325 -0.00873597
v 0.00468223 -0.00614214 -0.01083972
v -0.00439452 -0.00635257 -0.01083972
v -0.00477758 -0.00690662 -0.00949021
v -0.00363826 -0.00756916 -0.00873597
v -0.00279651 -0.00581826 -0.00794028
v 0.00398515 -0.00739325 -0.00949021
v 0.00366457 -0.00679975 -0.01083972
v 0.00213561 -0.00609117 -0.00794028
v 0.00277843 -0.00792592 -0.00873597
v -0.00334562 -0.00696087 -0.01083972
v -0.00363826 -0.00756916 -0.00949021
v -0.00241016 -0.00804594 -0.00873597
v -0.00185119 -0.00618324 -0.00794028
v 0.00277843 -0.00792592 -0.00949021
v 0.00255484 -0.00728968 -0.01083972
v 0.00115576 -0.00635093 -0.00794028
v 0.00150430 -0.00826295 -0.00873597
v -0.00221617 -0.00739983 -0.01083972
v -0.00241016 -0.00804594 -0.00949021
v -0.00112124 -0.00832378 -0.00873597
v -0.00086148 -0.00639696 -0.00794028
v 0.00150430 -0.00826295 -0.00949021
v 0.00138428 -0.00759876 -0.01083972
v 0.00014796 -0.00645286 -0.00794028
v 0.00019235 -0.00839776 -0.00873597
v -0.00103081 -0.00765465 -0.01083972
v -0.00112124 -0.00832378 -0.00949021
v 0.00019235 -0.00839776 -0.00949021
v 0.00017756 -0.00772206 -0.01083972
f 109 118 110
f 110 101 109
f 136 143 144
f 126 118 125
f 150 142 149
f 123 122 114
f 114 122 113
f 90 97 99
f 125 118 117
f 118 109 117
f 102 101 110
f 143 136 135
f 133 126 125
f 134 126 133
f 133 142 134
f 150 149 158
f 27 20 19
f 36 43 44
f 50 44 43
f 73 81 74
f 74 65 73
f 68 65 74
f 60 65 68
f 57 65 60
f 57 51 49
f 57 60 51
f 26 17 25
f 25 34 26
f 33 34 25
f 3 1 2
f 3 4 1
f 4 3 9
f 98 107 100
f 100 107 108
f 116 107 115
f 108 107 116
f 124 116 121
f 121 116 115
f 99 97 106
f 74 81 83
f 81 90 83
f 89 90 81
f 97 90 89
f 103 104 111
f 119 120 111
f 12 21 13
f 13 5 12
f 12 5 11
f 77 85 86
f 86 85 93
f 128 120 119
f 141 149 142
f 142 133 141
f 157 158 149
f 159 158 157
f 160 159 157
f 19 20 10
f 35 43 36
f 36 27 35
f 28 27 36
f 20 27 28
f 59 50 58
f 58 66 59
f 67 66 58
f 42 41 49
f 49 51 42
f 33 41 42
f 42 34 33
f 52 50 59
f 44 50 52
f 18 17 26
f 18 9 17
f 17 9 8
f 8 9 3
f 152 151 156
f 143 151 152
f 144 143 152
f 148 147 156
f 140 147 148
f 140 131 139
f 139 147 140
f 129 132 124
f 124 121 129
f 105 106 97
f 113 106 105
f 114 113 105
f 103 111 112
f 112 111 120
f 71 72 80
f 48 47 40
f 55 48 56
f 47 48 55
f 31 40 39
f 40 47 39
f 29 30 21
f 13 21 22
f 21 30 22
f 69 77 78
f 78 70 69
f 78 77 86
f 94 93 101
f 101 102 94
f 86 93 94
f 63 55 64
f 64 55 56
f 64 71 63
f 72 71 64
f 46 53 54
f 88 87 80
f 88 96 87
f 87 96 95
f 95 96 104
f 95 104 103
f 127 128 119
f 136 128 127
f 127 135 136
f 154 146 153
f 154 153 159
f 154 159 160
f 84 82 92
f 76 82 84
f 92 82 91
f 91 100 92
f 98 100 91
f 75 82 76
f 76 66 75
f 75 66 67
f 14 10 20
f 5 10 14
f 11 5 14
f 156 147 155
f 155 152 156
f 130 139 131
f 122 123 130
f 130 131 122
f 80 87 79
f 79 71 80
f 24 23 31
f 69 70 62
f 54 53 62
f 38 29 37
f 30 29 38
f 53 46 45
f 46 38 45
f 45 38 37
f 138 137 146
f 129 137 138
f 132 129 138
f 153 146 145
f 146 137 145
f 31 39 32
f 32 24 31
f 15 23 16
f 23 24 16
f 69 62 61
f 61 62 53
f 7 6 15
f 15 16 7
f 1 6 7
f 2 1 7
f 107 90 99
f 98 90 107
f 135 142 150
f 150 143 135
f 158 143 150
f 158 151 143
f 156 151 158
f 158 159 156
f 13 6 5
f 5 6 1
f 106 107 99
f 115 107 106
f 106 121 115
f 113 121 106
f 118 126 111
f 111 126 119
f 110 118 111
f 111 104 110
f 110 104 96
f 96 102 110
f 4 9 10
f 10 9 19
f 10 5 1
f 1 4 10
f 35 34 43
f 26 34 35
f 58 60 67
f 51 60 58
f 51 58 42
f 42 58 50
f 43 34 42
f 42 50 43
f 26 35 18
f 18 35 27
f 19 9 18
f 18 27 19
f 156 159 148
f 159 153 148
f 129 121 113
f 129 113 122
f 22 6 13
f 15 6 22
f 22 23 15
f 22 30 23
f 78 86 80
f 80 72 78
f 64 78 72
f 70 78 64
f 54 48 46
f 46 48 40
f 80 86 88
f 86 94 88
f 102 96 88
f 88 94 102
f 119 126 127
f 127 126 134
f 142 135 127
f 134 142 127
f 91 90 98
f 91 83 90
f 74 83 91
f 91 82 74
f 67 60 75
f 60 68 75
f 74 82 75
f 75 68 74
f 137 129 122
f 122 131 137
f 70 64 62
f 62 64 56
f 62 48 54
f 56 48 62
f 23 30 38
f 31 23 38
f 38 46 40
f 38 40 31
f 145 148 153
f 140 148 145
f 145 137 131
f 145 131 140
f 124 132 61
f 61 116 124
f 61 12 11
f 132 138 61
f 125 117 61
f 92 100 61
f 37 29 61
f 61 84 92
f 61 133 125
f 61 109 101
f 149 141 61
f 61 28 36
f 160 157 61
f 61 52 59
f 61 117 109
f 61 77 69
f 101 93 61
f 61 154 160
f 59 66 61
f 36 44 61
f 61 100 108
f 108 116 61
f 21 12 61
f 85 77 61
f 61 93 85
f 61 141 133
f 61 157 149
f 61 45 37
f 61 66 76
f 20 28 61
f 44 52 61
f 61 29 21
f 11 14 61
f 146 154 61
f 76 84 61
f 61 14 20
f 53 45 61
f 61 138 146
f 7 25 17
f 7 123 114
f 7 128 136
f 7 136 144
f 81 73 7
f 7 155 147
f 7 79 87
f 114 105 7
f 7 57 49
f 7 3 2
f 17 8 7
f 7 89 81
f 7 55 63
f 7 73 65
f 65 57 7
f 33 25 7
f 49 41 7
f 144 152 7
f 97 89 7
f 103 112 7
f 63 71 7
f 120 128 7
f 7 41 33
f 7 8 3
f 7 95 103
f 147 139 7
f 7 105 97
f 7 112 120
f 7 130 123
f 47 55 7
f 7 39 47
f 87 95 7
f 152 155 7
f 139 130 7
f 71 79 7
f 7 32 39
f 24 32 7
f 7 16 24

